<?xml version="1.0" encoding="utf-8"?>
<!-- Generator: Adobe Illustrator 21.0.0, SVG Export Plug-In . SVG Version: 6.00 Build 0)  -->
<svg version="1.1" id="Layer_1" xmlns="http://www.w3.org/2000/svg" xmlns:xlink="http://www.w3.org/1999/xlink" x="0px" y="0px"
	 viewBox="0 0 1390 726" style="enable-background:new 0 0 1390 726;" xml:space="preserve">
<style type="text/css">
	.st0{fill:#FFFFFF;}
	.st1{fill:#85DDA8;}
	.st2{fill:#1D1D1B;}
	.st3{fill:#737370;}
</style>
<g id="rettv_x5F_02_8_">
	<rect x="572.5" y="382.6" class="st0" width="257.9" height="81.9"/>
	<path class="st1" d="M832.1,466.2H570.8v-85.2h261.2V466.2z M574.1,462.9h254.6v-78.6H574.1V462.9z"/>
</g>
<g id="text1_x5F_02_9_">
	<path class="st2" d="M603.2,407.1c1.8,0,3.2,0.5,4.3,1.6c1.1,1.1,1.6,2.5,1.6,4.2v1.8c0,1.7-0.5,3.1-1.6,4.2
		c-1.1,1.1-2.5,1.6-4.3,1.6h-5.7v-1.2l1.5-0.3v-10.6l-1.5-0.3v-1.2h1.5H603.2z M600.9,408.6v10.6h2.3c1.2,0,2.2-0.4,3-1.2
		s1.1-1.9,1.1-3.2v-1.9c0-1.3-0.4-2.3-1.1-3.1c-0.7-0.8-1.7-1.2-3-1.2H600.9z"/>
	<path class="st2" d="M610.9,415.5c0-1.5,0.4-2.7,1.2-3.7c0.8-1,1.9-1.4,3.3-1.4c1.4,0,2.5,0.5,3.3,1.4s1.2,2.2,1.2,3.7v0.2
		c0,1.5-0.4,2.7-1.2,3.7c-0.8,1-1.9,1.4-3.3,1.4c-1.4,0-2.5-0.5-3.3-1.4c-0.8-1-1.2-2.2-1.2-3.7V415.5z M612.7,415.7
		c0,1.1,0.2,1.9,0.7,2.6c0.4,0.7,1.1,1,2,1c0.9,0,1.5-0.3,2-1s0.7-1.6,0.7-2.6v-0.2c0-1.1-0.2-1.9-0.7-2.6s-1.1-1-2-1s-1.5,0.3-2,1
		s-0.7,1.6-0.7,2.6V415.7z"/>
	<path class="st2" d="M625.1,411.8l-1.2,0.2l1.3,5l0.2,1.2h0.1l0.3-1.2l2-6.4h1.5l2,6.4l0.3,1.4h0.1l0.3-1.4l1.2-5l-1.2-0.2v-1.2
		h3.8v1.2l-0.9,0.1l-2.5,8.7h-1.5l-1.9-6.1l-0.4-1.7l-0.1,0l-0.4,1.7l-1.9,6.1h-1.5l-2.5-8.7l-0.9-0.1v-1.2h3.8V411.8z"/>
	<path class="st2" d="M637,419.5l1.5-0.3V412l-1.5-0.3v-1.2h3.1l0.1,1.5c0.3-0.5,0.8-0.9,1.3-1.2c0.5-0.3,1.1-0.4,1.7-0.4
		c1.1,0,1.9,0.3,2.5,1c0.6,0.6,0.9,1.6,0.9,2.9v4.9l1.5,0.3v1.2h-4.9v-1.2l1.5-0.3v-4.9c0-0.9-0.2-1.5-0.5-1.9s-0.9-0.6-1.6-0.6
		c-0.5,0-1,0.1-1.4,0.4c-0.4,0.3-0.7,0.6-1,1v5.9l1.5,0.3v1.2H637V419.5z"/>
	<path class="st2" d="M649.2,407.3v-1.2h3.3v13l1.5,0.3v1.2h-4.9v-1.2l1.5-0.3v-11.6L649.2,407.3z"/>
	<path class="st2" d="M655.3,415.5c0-1.5,0.4-2.7,1.2-3.7c0.8-1,1.9-1.4,3.3-1.4c1.4,0,2.5,0.5,3.3,1.4s1.2,2.2,1.2,3.7v0.2
		c0,1.5-0.4,2.7-1.2,3.7c-0.8,1-1.9,1.4-3.3,1.4c-1.4,0-2.5-0.5-3.3-1.4c-0.8-1-1.2-2.2-1.2-3.7V415.5z M657.1,415.7
		c0,1.1,0.2,1.9,0.7,2.6c0.4,0.7,1.1,1,2,1c0.9,0,1.5-0.3,2-1s0.7-1.6,0.7-2.6v-0.2c0-1.1-0.2-1.9-0.7-2.6s-1.1-1-2-1s-1.5,0.3-2,1
		s-0.7,1.6-0.7,2.6V415.7z"/>
	<path class="st2" d="M672.5,420.6c-0.1-0.3-0.1-0.5-0.1-0.7s-0.1-0.4-0.1-0.6c-0.4,0.5-0.8,0.8-1.3,1.1c-0.5,0.3-1.1,0.4-1.7,0.4
		c-1,0-1.8-0.3-2.4-0.8c-0.5-0.5-0.8-1.2-0.8-2.2c0-1,0.4-1.7,1.2-2.2c0.8-0.5,1.8-0.8,3.2-0.8h1.9v-1.2c0-0.6-0.2-1.1-0.6-1.4
		c-0.4-0.3-0.9-0.5-1.5-0.5c-0.5,0-0.9,0.1-1.2,0.2c-0.3,0.1-0.6,0.3-0.8,0.5l-0.2,1.1h-1.4v-1.9c0.5-0.4,1-0.7,1.7-0.9
		c0.6-0.2,1.4-0.3,2.1-0.3c1.1,0,2.1,0.3,2.8,0.9c0.7,0.6,1.1,1.4,1.1,2.5v4.8c0,0.1,0,0.3,0,0.4s0,0.2,0,0.4l0.7,0.1v1.2H672.5z
		 M669.5,419.3c0.6,0,1.2-0.1,1.7-0.4c0.5-0.3,0.9-0.6,1.1-1v-1.7h-1.9c-0.7,0-1.3,0.2-1.8,0.5c-0.4,0.3-0.7,0.8-0.7,1.3
		c0,0.4,0.1,0.8,0.4,1S669,419.3,669.5,419.3z"/>
	<path class="st2" d="M683.2,419.4c-0.3,0.5-0.7,0.8-1.2,1c-0.5,0.2-1,0.4-1.6,0.4c-1.2,0-2.2-0.4-2.9-1.3c-0.7-0.9-1-2.1-1-3.5
		v-0.2c0-1.6,0.3-2.9,1-3.9c0.7-1,1.7-1.5,2.9-1.5c0.6,0,1.1,0.1,1.6,0.3c0.5,0.2,0.8,0.5,1.2,1v-4.1l-1.5-0.3v-1.2h1.5h1.8v13
		l1.5,0.3v1.2h-3.1L683.2,419.4z M678.2,416c0,1,0.2,1.8,0.6,2.4c0.4,0.6,1.1,0.9,1.9,0.9c0.5,0,1-0.1,1.4-0.4
		c0.4-0.2,0.7-0.6,0.9-1v-4.7c-0.2-0.4-0.5-0.8-0.9-1c-0.4-0.2-0.8-0.4-1.4-0.4c-0.9,0-1.5,0.4-1.9,1.1s-0.6,1.7-0.6,2.8V416z"/>
	<path class="st2" d="M700.2,413.8h-1.4l-0.3-1.2c-0.2-0.2-0.5-0.4-0.8-0.5c-0.3-0.1-0.7-0.2-1.1-0.2c-0.6,0-1.1,0.1-1.4,0.4
		c-0.3,0.3-0.5,0.6-0.5,1c0,0.4,0.1,0.7,0.4,0.9c0.3,0.2,0.8,0.4,1.7,0.6c1.3,0.3,2.2,0.6,2.8,1.1c0.6,0.5,0.9,1.1,0.9,1.9
		c0,0.9-0.4,1.6-1.1,2.2c-0.7,0.6-1.7,0.8-2.8,0.8c-0.8,0-1.4-0.1-2.1-0.3c-0.6-0.2-1.1-0.4-1.6-0.8l0-2.3h1.4l0.3,1.3
		c0.2,0.2,0.5,0.3,0.9,0.4c0.4,0.1,0.7,0.1,1.1,0.1c0.7,0,1.2-0.1,1.5-0.4c0.4-0.3,0.6-0.6,0.6-1c0-0.4-0.2-0.7-0.5-1
		s-0.9-0.5-1.7-0.7c-1.2-0.3-2.1-0.6-2.8-1.1c-0.6-0.5-0.9-1.1-0.9-1.9c0-0.8,0.3-1.5,1-2.1s1.6-0.9,2.7-0.9c0.8,0,1.4,0.1,2.1,0.3
		c0.6,0.2,1.1,0.5,1.5,0.8L700.2,413.8z"/>
	<path class="st2" d="M702.2,419.5l1.5-0.3V412l-1.5-0.3v-1.2h3.3v8.6l1.5,0.3v1.2h-4.9V419.5z M705.5,408h-1.8v-1.9h1.8V408z"/>
	<path class="st2" d="M708.5,415.8c0-1.6,0.4-2.9,1.1-3.9c0.7-1,1.7-1.5,2.9-1.5c0.6,0,1.2,0.1,1.7,0.4c0.5,0.2,0.9,0.6,1.2,1.1
		l0.2-1.3h1.5v9.9c0,1.3-0.4,2.3-1.1,3.1c-0.7,0.7-1.8,1.1-3.1,1.1c-0.5,0-1-0.1-1.6-0.2s-1.1-0.3-1.5-0.5l0.5-1.4
		c0.3,0.2,0.7,0.3,1.2,0.4c0.5,0.1,0.9,0.2,1.4,0.2c0.8,0,1.4-0.2,1.8-0.7c0.4-0.5,0.6-1.1,0.6-2v-1c-0.3,0.4-0.7,0.7-1.2,1
		c-0.5,0.2-1,0.3-1.6,0.3c-1.2,0-2.2-0.4-2.9-1.3s-1.1-2.1-1.1-3.5V415.8z M710.3,416c0,1,0.2,1.8,0.6,2.4c0.4,0.6,1.1,0.9,1.9,0.9
		c0.6,0,1-0.1,1.4-0.4c0.4-0.3,0.7-0.6,0.9-1.1v-4.6c-0.2-0.4-0.5-0.8-0.9-1c-0.4-0.3-0.8-0.4-1.4-0.4c-0.9,0-1.5,0.4-2,1.1
		c-0.4,0.7-0.7,1.7-0.7,2.8V416z"/>
	<path class="st2" d="M718.9,419.5l1.5-0.3V412l-1.5-0.3v-1.2h3.1l0.1,1.5c0.3-0.5,0.8-0.9,1.3-1.2c0.5-0.3,1.1-0.4,1.7-0.4
		c1.1,0,1.9,0.3,2.5,1c0.6,0.6,0.9,1.6,0.9,2.9v4.9l1.5,0.3v1.2h-4.9v-1.2l1.5-0.3v-4.9c0-0.9-0.2-1.5-0.5-1.9s-0.9-0.6-1.6-0.6
		c-0.5,0-1,0.1-1.4,0.4c-0.4,0.3-0.7,0.6-1,1v5.9l1.5,0.3v1.2h-4.9V419.5z"/>
	<path class="st2" d="M735.9,420.8c-1.4,0-2.5-0.5-3.3-1.4c-0.8-0.9-1.2-2.1-1.2-3.6v-0.4c0-1.4,0.4-2.6,1.3-3.6
		c0.8-0.9,1.9-1.4,3-1.4c1.3,0,2.4,0.4,3.1,1.2s1,1.9,1,3.3v1.1h-6.5l0,0c0,1,0.3,1.8,0.7,2.4c0.5,0.6,1.1,0.9,2,0.9
		c0.6,0,1.2-0.1,1.6-0.3s0.9-0.4,1.2-0.7l0.7,1.2c-0.4,0.3-0.8,0.6-1.4,0.9C737.5,420.7,736.7,420.8,735.9,420.8z M735.6,411.8
		c-0.6,0-1.1,0.3-1.6,0.8c-0.4,0.5-0.7,1.2-0.8,1.9l0,0h4.6v-0.2c0-0.7-0.2-1.3-0.6-1.8S736.4,411.8,735.6,411.8z"/>
	<path class="st2" d="M741.5,411.8v-1.2h3.1l0.2,1.5c0.3-0.5,0.6-0.9,1.1-1.2s0.9-0.4,1.4-0.4c0.1,0,0.3,0,0.4,0
		c0.2,0,0.3,0,0.3,0.1l-0.2,1.7l-1-0.1c-0.5,0-0.9,0.1-1.2,0.3c-0.3,0.2-0.6,0.5-0.8,1v5.8l1.5,0.3v1.2h-4.9v-1.2l1.5-0.3V412
		L741.5,411.8z"/>
	<path class="st2" d="M757.1,413.8h-1.4l-0.3-1.2c-0.2-0.2-0.5-0.4-0.8-0.5c-0.3-0.1-0.7-0.2-1.1-0.2c-0.6,0-1.1,0.1-1.4,0.4
		c-0.3,0.3-0.5,0.6-0.5,1c0,0.4,0.1,0.7,0.4,0.9c0.3,0.2,0.8,0.4,1.7,0.6c1.3,0.3,2.2,0.6,2.8,1.1c0.6,0.5,0.9,1.1,0.9,1.9
		c0,0.9-0.4,1.6-1.1,2.2c-0.7,0.6-1.7,0.8-2.8,0.8c-0.8,0-1.4-0.1-2.1-0.3c-0.6-0.2-1.1-0.4-1.6-0.8l0-2.3h1.4l0.3,1.3
		c0.2,0.2,0.5,0.3,0.9,0.4c0.4,0.1,0.7,0.1,1.1,0.1c0.6,0,1.2-0.1,1.5-0.4c0.4-0.3,0.6-0.6,0.6-1c0-0.4-0.2-0.7-0.5-1
		c-0.3-0.3-0.9-0.5-1.7-0.7c-1.2-0.3-2.1-0.6-2.8-1.1c-0.6-0.5-0.9-1.1-0.9-1.9c0-0.8,0.3-1.5,1-2.1c0.7-0.6,1.6-0.9,2.7-0.9
		c0.8,0,1.4,0.1,2.1,0.3c0.6,0.2,1.1,0.5,1.5,0.8L757.1,413.8z"/>
	<path class="st2" d="M763.6,411.9v-1.4h1.6v-1.3c0-1.1,0.3-1.9,0.8-2.5c0.6-0.6,1.3-0.9,2.3-0.9c0.2,0,0.4,0,0.6,0.1
		c0.2,0,0.4,0.1,0.7,0.1l-0.2,1.4c-0.1,0-0.2,0-0.4-0.1c-0.2,0-0.3,0-0.5,0c-0.5,0-0.9,0.2-1.2,0.5s-0.4,0.8-0.4,1.4v1.3h2.1v1.4
		H767v7.3l1.5,0.3v1.2h-4.9v-1.2l1.5-0.3v-7.3H763.6z"/>
	<path class="st2" d="M770.6,411.8v-1.2h3.1l0.2,1.5c0.3-0.5,0.6-0.9,1.1-1.2s0.9-0.4,1.4-0.4c0.1,0,0.3,0,0.4,0
		c0.2,0,0.3,0,0.3,0.1l-0.2,1.7l-1-0.1c-0.5,0-0.9,0.1-1.2,0.3c-0.3,0.2-0.6,0.5-0.8,1v5.8l1.5,0.3v1.2h-4.9v-1.2l1.5-0.3V412
		L770.6,411.8z"/>
	<path class="st2" d="M778.2,415.5c0-1.5,0.4-2.7,1.2-3.7c0.8-1,1.9-1.4,3.3-1.4c1.4,0,2.5,0.5,3.3,1.4c0.8,1,1.2,2.2,1.2,3.7v0.2
		c0,1.5-0.4,2.7-1.2,3.7c-0.8,1-1.9,1.4-3.3,1.4c-1.4,0-2.5-0.5-3.3-1.4c-0.8-1-1.2-2.2-1.2-3.7V415.5z M780.1,415.7
		c0,1.1,0.2,1.9,0.7,2.6c0.4,0.7,1.1,1,2,1c0.9,0,1.5-0.3,2-1s0.7-1.6,0.7-2.6v-0.2c0-1.1-0.2-1.9-0.7-2.6s-1.1-1-2-1
		c-0.9,0-1.5,0.3-2,1s-0.7,1.6-0.7,2.6V415.7z"/>
	<path class="st2" d="M788.5,419.5l1.5-0.3V412l-1.5-0.3v-1.2h3.2l0.1,1.3c0.3-0.5,0.7-0.8,1.2-1.1c0.5-0.3,1.1-0.4,1.8-0.4
		s1.2,0.2,1.7,0.5c0.5,0.3,0.8,0.8,1.1,1.4c0.3-0.6,0.7-1,1.3-1.4s1.1-0.5,1.8-0.5c1,0,1.8,0.4,2.4,1.1c0.6,0.7,0.9,1.8,0.9,3.2v4.6
		l1.5,0.3v1.2h-4.9v-1.2l1.5-0.3v-4.6c0-1-0.2-1.7-0.5-2.1c-0.3-0.4-0.8-0.6-1.5-0.6c-0.6,0-1.1,0.2-1.5,0.7c-0.4,0.4-0.6,1-0.7,1.7
		v4.9l1.5,0.3v1.2h-4.9v-1.2l1.5-0.3v-4.6c0-0.9-0.2-1.6-0.5-2.1c-0.3-0.4-0.9-0.7-1.5-0.7c-0.6,0-1,0.1-1.4,0.3
		c-0.4,0.2-0.6,0.6-0.8,1v6l1.5,0.3v1.2h-4.9V419.5z"/>
	<path class="st2" d="M613.4,433.8l-1.2,0.2l1.3,5l0.2,1.2h0.1l0.3-1.2l2-6.4h1.5l2,6.4l0.3,1.4h0.1l0.3-1.4l1.2-5l-1.2-0.2v-1.2
		h3.8v1.2l-0.9,0.1l-2.5,8.7h-1.5l-1.9-6.1l-0.4-1.7l-0.1,0l-0.4,1.7l-1.9,6.1H613l-2.5-8.7l-0.9-0.1v-1.2h3.8V433.8z"/>
	<path class="st2" d="M630.1,442.8c-1.4,0-2.5-0.5-3.3-1.4c-0.8-0.9-1.2-2.1-1.2-3.6v-0.4c0-1.4,0.4-2.6,1.3-3.6
		c0.8-0.9,1.9-1.4,3-1.4c1.3,0,2.4,0.4,3.1,1.2s1,1.9,1,3.3v1.1h-6.5l0,0c0,1,0.3,1.8,0.7,2.4c0.5,0.6,1.1,0.9,2,0.9
		c0.6,0,1.2-0.1,1.6-0.3s0.9-0.4,1.2-0.7l0.7,1.2c-0.4,0.3-0.8,0.6-1.4,0.9C631.7,442.7,631,442.8,630.1,442.8z M629.9,433.8
		c-0.6,0-1.1,0.3-1.6,0.8c-0.4,0.5-0.7,1.2-0.8,1.9l0,0h4.6v-0.2c0-0.7-0.2-1.3-0.6-1.8S630.6,433.8,629.9,433.8z"/>
	<path class="st2" d="M645,438c0,1.4-0.3,2.6-1,3.5c-0.7,0.9-1.7,1.3-2.9,1.3c-0.7,0-1.2-0.1-1.7-0.4c-0.5-0.3-0.9-0.6-1.2-1.1
		l-0.2,1.3h-1.6v-13l-1.5-0.3v-1.2h3.3v5.6c0.3-0.4,0.7-0.8,1.2-1c0.5-0.2,1-0.4,1.6-0.4c1.2,0,2.2,0.5,2.9,1.5c0.7,1,1,2.3,1,3.9
		V438z M643.1,437.8c0-1.2-0.2-2.1-0.6-2.8s-1.1-1.1-1.9-1.1c-0.6,0-1,0.1-1.4,0.4c-0.4,0.3-0.7,0.6-0.9,1.1v4.4
		c0.2,0.5,0.5,0.8,0.9,1.1c0.4,0.3,0.9,0.4,1.4,0.4c0.9,0,1.5-0.3,1.9-0.9c0.4-0.6,0.6-1.4,0.6-2.4V437.8z"/>
	<path class="st2" d="M654.5,435.8h-1.4l-0.3-1.2c-0.2-0.2-0.5-0.4-0.8-0.5c-0.3-0.1-0.7-0.2-1.1-0.2c-0.6,0-1.1,0.1-1.4,0.4
		c-0.3,0.3-0.5,0.6-0.5,1c0,0.4,0.1,0.7,0.4,0.9c0.3,0.2,0.8,0.4,1.7,0.6c1.3,0.3,2.2,0.6,2.8,1.1c0.6,0.5,0.9,1.1,0.9,1.9
		c0,0.9-0.4,1.6-1.1,2.2c-0.7,0.6-1.7,0.8-2.8,0.8c-0.8,0-1.4-0.1-2.1-0.3c-0.6-0.2-1.1-0.4-1.6-0.8l0-2.3h1.4l0.3,1.3
		c0.2,0.2,0.5,0.3,0.9,0.4c0.4,0.1,0.7,0.1,1.1,0.1c0.6,0,1.2-0.1,1.5-0.4c0.4-0.3,0.6-0.6,0.6-1c0-0.4-0.2-0.7-0.5-1
		c-0.3-0.3-0.9-0.5-1.7-0.7c-1.2-0.3-2.1-0.6-2.8-1.1c-0.6-0.5-0.9-1.1-0.9-1.9c0-0.8,0.3-1.5,1-2.1c0.7-0.6,1.6-0.9,2.7-0.9
		c0.8,0,1.4,0.1,2.1,0.3c0.6,0.2,1.1,0.5,1.5,0.8L654.5,435.8z"/>
	<path class="st2" d="M656.5,441.5l1.5-0.3V434l-1.5-0.3v-1.2h3.3v8.6l1.5,0.3v1.2h-4.9V441.5z M659.8,430H658v-1.9h1.8V430z"/>
	<path class="st2" d="M665.9,430.2v2.4h1.9v1.4h-1.9v6.1c0,0.5,0.1,0.8,0.3,1c0.2,0.2,0.5,0.3,0.8,0.3c0.2,0,0.3,0,0.5,0
		s0.4-0.1,0.5-0.1l0.3,1.3c-0.2,0.1-0.4,0.2-0.8,0.3c-0.3,0.1-0.7,0.1-1,0.1c-0.7,0-1.3-0.2-1.8-0.7c-0.4-0.4-0.7-1.2-0.7-2.1v-6.1
		h-1.6v-1.4h1.6v-2.4H665.9z"/>
	<path class="st2" d="M674.3,442.8c-1.4,0-2.5-0.5-3.3-1.4c-0.8-0.9-1.2-2.1-1.2-3.6v-0.4c0-1.4,0.4-2.6,1.3-3.6
		c0.9-0.9,1.9-1.4,3-1.4c1.3,0,2.4,0.4,3.1,1.2c0.7,0.8,1,1.9,1,3.3v1.1h-6.5l0,0c0,1,0.3,1.8,0.7,2.4c0.5,0.6,1.1,0.9,2,0.9
		c0.6,0,1.2-0.1,1.6-0.3c0.5-0.2,0.9-0.4,1.2-0.7l0.7,1.2c-0.4,0.3-0.8,0.6-1.4,0.9S675.1,442.8,674.3,442.8z M674,433.8
		c-0.6,0-1.1,0.3-1.6,0.8c-0.4,0.5-0.7,1.2-0.8,1.9l0,0h4.6v-0.2c0-0.7-0.2-1.3-0.6-1.8C675.3,434.1,674.7,433.8,674,433.8z"/>
	<path class="st2" d="M688.2,433.8L687,434l1.3,5l0.2,1.2h0.1l0.3-1.2l2-6.4h1.5l2,6.4l0.3,1.4h0.1l0.3-1.4l1.2-5l-1.2-0.2v-1.2h3.8
		v1.2l-0.9,0.1l-2.5,8.7H694l-1.9-6.1l-0.4-1.7l-0.1,0l-0.4,1.7l-1.9,6.1h-1.5l-2.5-8.7l-0.9-0.1v-1.2h3.8V433.8z"/>
	<path class="st2" d="M700.3,441.5l1.5-0.3V434l-1.5-0.3v-1.2h3.3v8.6l1.5,0.3v1.2h-4.9V441.5z M703.7,430h-1.8v-1.9h1.8V430z"/>
	<path class="st2" d="M709.7,430.2v2.4h1.9v1.4h-1.9v6.1c0,0.5,0.1,0.8,0.3,1c0.2,0.2,0.5,0.3,0.8,0.3c0.2,0,0.3,0,0.5,0
		s0.4-0.1,0.5-0.1l0.3,1.3c-0.2,0.1-0.4,0.2-0.8,0.3c-0.3,0.1-0.7,0.1-1,0.1c-0.7,0-1.3-0.2-1.8-0.7c-0.4-0.4-0.7-1.2-0.7-2.1v-6.1
		h-1.6v-1.4h1.6v-2.4H709.7z"/>
	<path class="st2" d="M713.3,441.5l1.5-0.3v-11.6l-1.5-0.3v-1.2h3.3v5.8c0.3-0.5,0.8-0.9,1.3-1.1c0.5-0.3,1.1-0.4,1.7-0.4
		c1.1,0,1.9,0.3,2.5,1c0.6,0.6,0.9,1.6,0.9,3v4.9l1.5,0.3v1.2h-4.9v-1.2l1.5-0.3v-4.9c0-0.8-0.2-1.4-0.5-1.8
		c-0.4-0.4-0.9-0.6-1.6-0.6c-0.5,0-1,0.1-1.4,0.4c-0.4,0.2-0.8,0.6-1,1v6l1.5,0.3v1.2h-4.9V441.5z"/>
	<path class="st2" d="M730.3,445.3l1.5-0.3v-11l-1.5-0.3v-1.2h3.1l0.2,1.2c0.3-0.5,0.7-0.8,1.2-1s1-0.4,1.7-0.4
		c1.2,0,2.2,0.5,2.9,1.5c0.7,1,1,2.3,1,3.9v0.2c0,1.4-0.3,2.6-1,3.5c-0.7,0.9-1.6,1.3-2.9,1.3c-0.6,0-1.2-0.1-1.6-0.3
		s-0.9-0.5-1.2-0.9v3.5l1.5,0.3v1.2h-4.9V445.3z M738.5,437.8c0-1.1-0.2-2.1-0.7-2.8c-0.4-0.7-1.1-1.1-2-1.1c-0.5,0-1,0.1-1.3,0.4
		c-0.4,0.2-0.7,0.6-0.9,1v4.9c0.2,0.4,0.5,0.7,0.9,1c0.4,0.2,0.8,0.3,1.4,0.3c0.9,0,1.5-0.3,2-0.9s0.7-1.5,0.7-2.5V437.8z"/>
	<path class="st2" d="M751.4,433.8l-0.9,0.1l-3.8,10.3c-0.3,0.7-0.6,1.3-1.1,1.8c-0.5,0.5-1.1,0.8-1.9,0.8c-0.1,0-0.3,0-0.6-0.1
		c-0.2,0-0.4-0.1-0.5-0.1l0.2-1.4c0,0,0.1,0,0.3,0c0.3,0,0.4,0,0.5,0c0.4,0,0.7-0.2,0.9-0.5c0.2-0.3,0.5-0.7,0.6-1.2l0.4-1l-3.3-8.5
		l-0.9-0.1v-1.2h4.1v1.2l-1.1,0.2l1.7,5l0.3,1.3h0.1l2.1-6.2l-1.1-0.2v-1.2h4V433.8z"/>
	<path class="st2" d="M755.9,430.2v2.4h1.9v1.4h-1.9v6.1c0,0.5,0.1,0.8,0.3,1c0.2,0.2,0.5,0.3,0.8,0.3c0.2,0,0.3,0,0.5,0
		s0.4-0.1,0.5-0.1l0.3,1.3c-0.2,0.1-0.4,0.2-0.8,0.3c-0.3,0.1-0.7,0.1-1,0.1c-0.7,0-1.3-0.2-1.8-0.7c-0.4-0.4-0.7-1.2-0.7-2.1v-6.1
		h-1.6v-1.4h1.6v-2.4H755.9z"/>
	<path class="st2" d="M759.4,441.5l1.5-0.3v-11.6l-1.5-0.3v-1.2h3.3v5.8c0.3-0.5,0.8-0.9,1.3-1.1c0.5-0.3,1.1-0.4,1.7-0.4
		c1.1,0,1.9,0.3,2.5,1c0.6,0.6,0.9,1.6,0.9,3v4.9l1.5,0.3v1.2h-4.9v-1.2l1.5-0.3v-4.9c0-0.8-0.2-1.4-0.5-1.8
		c-0.4-0.4-0.9-0.6-1.6-0.6c-0.5,0-1,0.1-1.4,0.4c-0.4,0.2-0.8,0.6-1,1v6l1.5,0.3v1.2h-4.9V441.5z"/>
	<path class="st2" d="M771.8,437.5c0-1.5,0.4-2.7,1.2-3.7c0.8-1,1.9-1.4,3.3-1.4c1.4,0,2.5,0.5,3.3,1.4s1.2,2.2,1.2,3.7v0.2
		c0,1.5-0.4,2.7-1.2,3.7c-0.8,1-1.9,1.4-3.3,1.4c-1.4,0-2.5-0.5-3.3-1.4c-0.8-1-1.2-2.2-1.2-3.7V437.5z M773.6,437.7
		c0,1.1,0.2,1.9,0.7,2.6c0.4,0.7,1.1,1,2,1c0.9,0,1.5-0.3,2-1s0.7-1.6,0.7-2.6v-0.2c0-1.1-0.2-1.9-0.7-2.6s-1.1-1-2-1s-1.5,0.3-2,1
		s-0.7,1.6-0.7,2.6V437.7z"/>
	<path class="st2" d="M782.2,441.5l1.5-0.3V434l-1.5-0.3v-1.2h3.1l0.1,1.5c0.3-0.5,0.8-0.9,1.3-1.2c0.5-0.3,1.1-0.4,1.7-0.4
		c1.1,0,1.9,0.3,2.5,1c0.6,0.6,0.9,1.6,0.9,2.9v4.9l1.5,0.3v1.2h-4.9v-1.2l1.5-0.3v-4.9c0-0.9-0.2-1.5-0.5-1.9s-0.9-0.6-1.6-0.6
		c-0.5,0-1,0.1-1.4,0.4c-0.4,0.3-0.7,0.6-1,1v5.9l1.5,0.3v1.2h-4.9V441.5z"/>
</g>
<g id="rettv_x5F_02_6_">
	<rect x="572.5" y="14.5" class="st0" width="257.9" height="81.9"/>
	<path class="st1" d="M832.1,98.1H570.8V12.9h261.2V98.1z M574.1,94.8h254.6V16.2H574.1V94.8z"/>
</g>
<g id="text1_x5F_02_7_">
	<path class="st2" d="M616.5,51.4l1-0.1l4.7-12.2h1.6l4.6,12.2l1,0.1v1.2h-3.9v-1.2l1-0.2l-0.9-2.5h-5.4l-0.9,2.5l1,0.2v1.2h-3.9
		V51.4z M620.8,47.2h4.3l-2.1-5.8H623L620.8,47.2z"/>
	<path class="st2" d="M630.5,51.4l1.5-0.3V44l-1.5-0.3v-1.2h3.1l0.1,1.5c0.3-0.5,0.8-0.9,1.3-1.2c0.5-0.3,1.1-0.4,1.7-0.4
		c1.1,0,1.9,0.3,2.5,1c0.6,0.6,0.9,1.6,0.9,2.9v4.9l1.5,0.3v1.2h-4.9v-1.2l1.5-0.3v-4.9c0-0.9-0.2-1.5-0.5-1.9s-0.9-0.6-1.6-0.6
		c-0.5,0-1,0.1-1.4,0.4c-0.4,0.3-0.7,0.6-1,1v5.9l1.5,0.3v1.2h-4.9V51.4z"/>
	<path class="st2" d="M649.5,52.6c-0.1-0.3-0.1-0.5-0.1-0.7c0-0.2-0.1-0.4-0.1-0.6c-0.4,0.5-0.8,0.8-1.3,1.1
		c-0.5,0.3-1.1,0.4-1.7,0.4c-1,0-1.8-0.3-2.4-0.8c-0.5-0.5-0.8-1.2-0.8-2.2c0-1,0.4-1.7,1.2-2.2c0.8-0.5,1.8-0.8,3.2-0.8h1.9v-1.2
		c0-0.6-0.2-1.1-0.6-1.4c-0.4-0.3-0.9-0.5-1.5-0.5c-0.5,0-0.9,0.1-1.2,0.2c-0.3,0.1-0.6,0.3-0.8,0.5l-0.2,1.1h-1.4v-1.9
		c0.5-0.4,1-0.7,1.7-0.9c0.6-0.2,1.4-0.3,2.1-0.3c1.1,0,2.1,0.3,2.8,0.9c0.7,0.6,1.1,1.4,1.1,2.5v4.8c0,0.1,0,0.3,0,0.4
		c0,0.1,0,0.2,0,0.4l0.7,0.1v1.2H649.5z M646.6,51.2c0.6,0,1.2-0.1,1.7-0.4c0.5-0.3,0.9-0.6,1.1-1v-1.7h-1.9c-0.7,0-1.3,0.2-1.8,0.5
		c-0.4,0.3-0.7,0.8-0.7,1.3c0,0.4,0.1,0.8,0.4,1C645.6,51.1,646,51.2,646.6,51.2z"/>
	<path class="st2" d="M653.2,39.3v-1.2h3.3v13l1.5,0.3v1.2h-4.9v-1.2l1.5-0.3V39.5L653.2,39.3z"/>
	<path class="st2" d="M668.9,43.7l-0.9,0.1l-3.8,10.3c-0.3,0.7-0.6,1.3-1.1,1.8s-1.1,0.8-1.9,0.8c-0.1,0-0.3,0-0.6-0.1
		c-0.2,0-0.4-0.1-0.5-0.1l0.2-1.4c0,0,0.1,0,0.3,0c0.3,0,0.4,0,0.5,0c0.4,0,0.7-0.2,0.9-0.5c0.2-0.3,0.5-0.7,0.6-1.2l0.4-1l-3.3-8.5
		l-0.9-0.1v-1.2h4.1v1.2l-1.1,0.2l1.7,5l0.3,1.3h0.1l2.1-6.2l-1.1-0.2v-1.2h4V43.7z"/>
	<path class="st2" d="M672.6,51.1h4.1l0.1-1.5h1.5v3h-8v-1.3l5.4-7.3h-3.7l-0.1,1.5h-1.6v-3h7.6v1.2L672.6,51.1z"/>
	<path class="st2" d="M684.7,52.8c-1.4,0-2.5-0.5-3.3-1.4c-0.8-0.9-1.2-2.1-1.2-3.6v-0.4c0-1.4,0.4-2.6,1.3-3.6
		c0.8-0.9,1.9-1.4,3-1.4c1.3,0,2.4,0.4,3.1,1.2s1,1.9,1,3.3V48H682l0,0c0,1,0.3,1.8,0.7,2.4c0.5,0.6,1.1,0.9,2,0.9
		c0.6,0,1.2-0.1,1.6-0.3c0.5-0.2,0.9-0.4,1.2-0.7l0.7,1.2c-0.4,0.3-0.8,0.6-1.4,0.9C686.2,52.7,685.5,52.8,684.7,52.8z M684.4,43.8
		c-0.6,0-1.1,0.3-1.6,0.8c-0.4,0.5-0.7,1.2-0.8,1.9l0,0h4.6v-0.2c0-0.7-0.2-1.3-0.6-1.8S685.1,43.8,684.4,43.8z"/>
	<path class="st2" d="M694.7,51.4l1.5-0.3V44l-1.5-0.3v-1.2h3.2l0.1,1.3c0.3-0.5,0.7-0.8,1.2-1.1c0.5-0.3,1.1-0.4,1.8-0.4
		s1.2,0.2,1.7,0.5c0.5,0.3,0.8,0.8,1.1,1.4c0.3-0.6,0.7-1,1.3-1.4s1.1-0.5,1.8-0.5c1,0,1.8,0.4,2.4,1.1c0.6,0.7,0.9,1.8,0.9,3.2v4.6
		l1.5,0.3v1.2h-4.9v-1.2l1.5-0.3v-4.6c0-1-0.2-1.7-0.5-2.1c-0.3-0.4-0.8-0.6-1.5-0.6c-0.6,0-1.1,0.2-1.5,0.7c-0.4,0.4-0.6,1-0.7,1.7
		v4.9l1.5,0.3v1.2h-4.9v-1.2l1.5-0.3v-4.6c0-0.9-0.2-1.6-0.5-2.1c-0.3-0.4-0.9-0.7-1.5-0.7c-0.6,0-1,0.1-1.4,0.3
		c-0.4,0.2-0.6,0.6-0.8,1v6l1.5,0.3v1.2h-4.9V51.4z"/>
	<path class="st2" d="M712.9,47.5c0-1.5,0.4-2.7,1.2-3.7c0.8-1,1.9-1.4,3.3-1.4c1.4,0,2.5,0.5,3.3,1.4c0.8,1,1.2,2.2,1.2,3.7v0.2
		c0,1.5-0.4,2.7-1.2,3.7c-0.8,1-1.9,1.4-3.3,1.4c-1.4,0-2.5-0.5-3.3-1.4c-0.8-1-1.2-2.2-1.2-3.7V47.5z M714.7,47.7
		c0,1.1,0.2,1.9,0.7,2.6c0.4,0.7,1.1,1,2,1c0.9,0,1.5-0.3,2-1c0.5-0.7,0.7-1.6,0.7-2.6v-0.2c0-1.1-0.2-1.9-0.7-2.6
		c-0.5-0.7-1.1-1-2-1s-1.5,0.3-2,1c-0.4,0.7-0.7,1.6-0.7,2.6V47.7z"/>
	<path class="st2" d="M731.2,45.7h-1.4l-0.3-1.2c-0.2-0.2-0.5-0.4-0.8-0.5c-0.3-0.1-0.7-0.2-1.1-0.2c-0.6,0-1.1,0.1-1.4,0.4
		c-0.3,0.3-0.5,0.6-0.5,1c0,0.4,0.1,0.7,0.4,0.9c0.3,0.2,0.8,0.4,1.7,0.6c1.3,0.3,2.2,0.6,2.8,1.1c0.6,0.5,0.9,1.1,0.9,1.9
		c0,0.9-0.4,1.6-1.1,2.2c-0.7,0.6-1.7,0.8-2.8,0.8c-0.8,0-1.4-0.1-2.1-0.3c-0.6-0.2-1.1-0.4-1.6-0.8l0-2.3h1.4l0.3,1.3
		c0.2,0.2,0.5,0.3,0.9,0.4c0.4,0.1,0.7,0.1,1.1,0.1c0.7,0,1.2-0.1,1.5-0.4c0.4-0.3,0.6-0.6,0.6-1c0-0.4-0.2-0.7-0.5-1
		s-0.9-0.5-1.7-0.7c-1.2-0.3-2.1-0.6-2.8-1.1c-0.6-0.5-0.9-1.1-0.9-1.9c0-0.8,0.3-1.5,1-2.1s1.6-0.9,2.7-0.9c0.8,0,1.4,0.1,2.1,0.3
		c0.6,0.2,1.1,0.5,1.5,0.8L731.2,45.7z"/>
	<path class="st2" d="M736.4,40.1v2.4h1.9v1.4h-1.9V50c0,0.5,0.1,0.8,0.3,1c0.2,0.2,0.5,0.3,0.8,0.3c0.2,0,0.3,0,0.5,0
		c0.2,0,0.4-0.1,0.5-0.1l0.3,1.3c-0.2,0.1-0.4,0.2-0.8,0.3c-0.3,0.1-0.7,0.1-1,0.1c-0.7,0-1.3-0.2-1.8-0.7c-0.4-0.4-0.7-1.2-0.7-2.1
		v-6.1H733v-1.4h1.6v-2.4H736.4z"/>
	<path class="st2" d="M752.1,51.1c-0.3,0.5-0.7,1-1.2,1.2s-1.1,0.4-1.7,0.4c-1.1,0-1.9-0.3-2.6-1c-0.6-0.7-0.9-1.8-0.9-3.3V44
		l-1.2-0.3v-1.2h1.2h1.8v5.9c0,1.1,0.2,1.8,0.5,2.2c0.3,0.4,0.8,0.6,1.5,0.6c0.7,0,1.2-0.1,1.6-0.4c0.4-0.3,0.7-0.6,1-1.1V44
		l-1.3-0.3v-1.2h1.3h1.8v8.6l1.2,0.3v1.2h-2.8L752.1,51.1z"/>
	<path class="st2" d="M764.1,45.7h-1.4l-0.3-1.2c-0.2-0.2-0.5-0.4-0.8-0.5c-0.3-0.1-0.7-0.2-1.1-0.2c-0.6,0-1.1,0.1-1.4,0.4
		c-0.3,0.3-0.5,0.6-0.5,1c0,0.4,0.1,0.7,0.4,0.9c0.3,0.2,0.8,0.4,1.7,0.6c1.3,0.3,2.2,0.6,2.8,1.1c0.6,0.5,0.9,1.1,0.9,1.9
		c0,0.9-0.4,1.6-1.1,2.2c-0.7,0.6-1.7,0.8-2.8,0.8c-0.8,0-1.4-0.1-2.1-0.3c-0.6-0.2-1.1-0.4-1.6-0.8l0-2.3h1.4l0.3,1.3
		c0.2,0.2,0.5,0.3,0.9,0.4c0.4,0.1,0.7,0.1,1.1,0.1c0.7,0,1.2-0.1,1.5-0.4c0.4-0.3,0.6-0.6,0.6-1c0-0.4-0.2-0.7-0.5-1
		s-0.9-0.5-1.7-0.7c-1.2-0.3-2.1-0.6-2.8-1.1c-0.6-0.5-0.9-1.1-0.9-1.9c0-0.8,0.3-1.5,1-2.1s1.6-0.9,2.7-0.9c0.8,0,1.4,0.1,2.1,0.3
		c0.6,0.2,1.1,0.5,1.5,0.8L764.1,45.7z"/>
	<path class="st2" d="M770.7,52.8c-1.4,0-2.5-0.5-3.3-1.4c-0.8-0.9-1.2-2.1-1.2-3.6v-0.4c0-1.4,0.4-2.6,1.3-3.6
		c0.8-0.9,1.9-1.4,3-1.4c1.3,0,2.4,0.4,3.1,1.2s1,1.9,1,3.3V48H768l0,0c0,1,0.3,1.8,0.7,2.4c0.5,0.6,1.1,0.9,2,0.9
		c0.6,0,1.2-0.1,1.6-0.3c0.5-0.2,0.9-0.4,1.2-0.7l0.7,1.2c-0.4,0.3-0.8,0.6-1.4,0.9C772.3,52.7,771.5,52.8,770.7,52.8z M770.4,43.8
		c-0.6,0-1.1,0.3-1.6,0.8c-0.4,0.5-0.7,1.2-0.8,1.9l0,0h4.6v-0.2c0-0.7-0.2-1.3-0.6-1.8S771.2,43.8,770.4,43.8z"/>
	<path class="st2" d="M783.1,51.4c-0.3,0.5-0.7,0.8-1.2,1c-0.5,0.2-1,0.4-1.6,0.4c-1.2,0-2.2-0.4-2.9-1.3c-0.7-0.9-1-2.1-1-3.5v-0.2
		c0-1.6,0.3-2.9,1-3.9c0.7-1,1.7-1.5,2.9-1.5c0.6,0,1.1,0.1,1.6,0.3c0.5,0.2,0.8,0.5,1.2,1v-4.1l-1.5-0.3v-1.2h1.5h1.8v13l1.5,0.3
		v1.2h-3.1L783.1,51.4z M778.2,47.9c0,1,0.2,1.8,0.6,2.4s1.1,0.9,1.9,0.9c0.5,0,1-0.1,1.4-0.4c0.4-0.2,0.7-0.6,0.9-1v-4.7
		c-0.2-0.4-0.5-0.8-0.9-1c-0.4-0.2-0.8-0.4-1.4-0.4c-0.9,0-1.5,0.4-1.9,1.1s-0.6,1.7-0.6,2.8V47.9z"/>
	<path class="st2" d="M610.4,61.3v-1.2h3.3v8.4h1.2l2.1-2.7l-0.9-0.1v-1.2h4.2v1.2l-1.2,0.2l-2.6,3.2l3.2,4.1l1.1,0.2v1.2h-4.2v-1.2
		l0.9-0.1l-2.7-3.3h-1.2v3.2l1.5,0.3v1.2h-4.9v-1.2l1.5-0.3V61.5L610.4,61.3z"/>
	<path class="st2" d="M626.6,74.8c-1.4,0-2.5-0.5-3.3-1.4c-0.8-0.9-1.2-2.1-1.2-3.6v-0.4c0-1.4,0.4-2.6,1.3-3.6
		c0.9-0.9,1.9-1.4,3-1.4c1.3,0,2.4,0.4,3.1,1.2c0.7,0.8,1,1.9,1,3.3V70h-6.5l0,0c0,1,0.3,1.8,0.7,2.4c0.5,0.6,1.1,0.9,2,0.9
		c0.6,0,1.2-0.1,1.6-0.3c0.5-0.2,0.9-0.4,1.2-0.7l0.7,1.2c-0.4,0.3-0.8,0.6-1.4,0.9C628.1,74.7,627.4,74.8,626.6,74.8z M626.3,65.8
		c-0.6,0-1.1,0.3-1.6,0.8c-0.4,0.5-0.7,1.2-0.8,1.9l0,0h4.6v-0.2c0-0.7-0.2-1.3-0.6-1.8C627.7,66,627.1,65.8,626.3,65.8z"/>
	<path class="st2" d="M641.7,65.7l-0.9,0.1l-3.8,10.3c-0.3,0.7-0.6,1.3-1.1,1.8s-1.1,0.8-1.9,0.8c-0.1,0-0.3,0-0.6-0.1
		c-0.2,0-0.4-0.1-0.5-0.1L633,77c0,0,0.1,0,0.3,0c0.3,0,0.4,0,0.5,0c0.4,0,0.7-0.2,0.9-0.5c0.2-0.3,0.5-0.7,0.6-1.2l0.4-1l-3.3-8.5
		l-0.9-0.1v-1.2h4.1v1.2l-1.1,0.2l1.7,5l0.3,1.3h0.1l2.1-6.2l-1.1-0.2v-1.2h4V65.7z"/>
	<path class="st2" d="M646.5,65.7l-1.2,0.2l1.3,5l0.2,1.2h0.1l0.3-1.2l2-6.4h1.5l2,6.4l0.3,1.4h0.1l0.3-1.4l1.2-5l-1.2-0.2v-1.2h3.8
		v1.2l-0.9,0.1l-2.5,8.7h-1.5l-1.9-6.1l-0.4-1.7l-0.1,0l-0.4,1.7l-1.9,6.1h-1.5l-2.5-8.7l-0.9-0.1v-1.2h3.8V65.7z"/>
	<path class="st2" d="M658.6,69.5c0-1.5,0.4-2.7,1.2-3.7c0.8-1,1.9-1.4,3.3-1.4c1.4,0,2.5,0.5,3.3,1.4c0.8,1,1.2,2.2,1.2,3.7v0.2
		c0,1.5-0.4,2.7-1.2,3.7c-0.8,1-1.9,1.4-3.3,1.4c-1.4,0-2.5-0.5-3.3-1.4c-0.8-1-1.2-2.2-1.2-3.7V69.5z M660.4,69.7
		c0,1.1,0.2,1.9,0.7,2.6c0.4,0.7,1.1,1,2,1c0.9,0,1.5-0.3,2-1c0.5-0.7,0.7-1.6,0.7-2.6v-0.2c0-1.1-0.2-1.9-0.7-2.6
		c-0.5-0.7-1.1-1-2-1c-0.9,0-1.5,0.3-2,1c-0.4,0.7-0.7,1.6-0.7,2.6V69.7z"/>
	<path class="st2" d="M669.3,65.7v-1.2h3.1l0.2,1.5c0.3-0.5,0.6-0.9,1.1-1.2c0.4-0.3,0.9-0.4,1.4-0.4c0.1,0,0.3,0,0.4,0
		c0.2,0,0.3,0,0.3,0.1l-0.2,1.7l-1-0.1c-0.5,0-0.9,0.1-1.2,0.3c-0.3,0.2-0.6,0.5-0.8,1v5.8l1.5,0.3v1.2h-4.9v-1.2l1.5-0.3V66
		L669.3,65.7z"/>
	<path class="st2" d="M683.7,73.4c-0.3,0.5-0.7,0.8-1.2,1s-1,0.4-1.6,0.4c-1.2,0-2.2-0.4-2.9-1.3c-0.7-0.9-1-2.1-1-3.5v-0.2
		c0-1.6,0.3-2.9,1-3.9c0.7-1,1.7-1.5,2.9-1.5c0.6,0,1.1,0.1,1.6,0.3c0.5,0.2,0.8,0.5,1.2,1v-4.1l-1.5-0.3v-1.2h1.5h1.8v13l1.5,0.3
		v1.2h-3.1L683.7,73.4z M678.8,69.9c0,1,0.2,1.8,0.6,2.4s1.1,0.9,1.9,0.9c0.5,0,1-0.1,1.4-0.4c0.4-0.2,0.7-0.6,0.9-1v-4.7
		c-0.2-0.4-0.5-0.8-0.9-1c-0.4-0.2-0.8-0.4-1.4-0.4c-0.9,0-1.5,0.4-1.9,1.1c-0.4,0.7-0.6,1.7-0.6,2.8V69.9z"/>
	<path class="st2" d="M696,67.7h-1.4l-0.3-1.2c-0.2-0.2-0.5-0.4-0.8-0.5c-0.3-0.1-0.7-0.2-1.1-0.2c-0.6,0-1.1,0.1-1.4,0.4
		c-0.3,0.3-0.5,0.6-0.5,1c0,0.4,0.1,0.7,0.4,0.9c0.3,0.2,0.8,0.4,1.7,0.6c1.3,0.3,2.2,0.6,2.8,1.1c0.6,0.5,0.9,1.1,0.9,1.9
		c0,0.9-0.4,1.6-1.1,2.2c-0.7,0.6-1.7,0.8-2.8,0.8c-0.8,0-1.4-0.1-2.1-0.3c-0.6-0.2-1.1-0.4-1.6-0.8l0-2.3h1.4l0.3,1.3
		c0.2,0.2,0.5,0.3,0.9,0.4c0.4,0.1,0.7,0.1,1.1,0.1c0.6,0,1.2-0.1,1.5-0.4c0.4-0.3,0.6-0.6,0.6-1c0-0.4-0.2-0.7-0.5-1
		c-0.3-0.3-0.9-0.5-1.7-0.7c-1.2-0.3-2.1-0.6-2.8-1.1c-0.6-0.5-0.9-1.1-0.9-1.9c0-0.8,0.3-1.5,1-2.1c0.7-0.6,1.6-0.9,2.7-0.9
		c0.8,0,1.4,0.1,2.1,0.3c0.6,0.2,1.1,0.5,1.5,0.8L696,67.7z"/>
	<path class="st2" d="M702.8,73.4l1.5-0.3V66l-1.5-0.3v-1.2h3.3v8.6l1.5,0.3v1.2h-4.9V73.4z M706.1,62h-1.8v-1.9h1.8V62z"/>
	<path class="st2" d="M708.7,73.4l1.5-0.3V66l-1.5-0.3v-1.2h3.1L712,66c0.3-0.5,0.8-0.9,1.3-1.2c0.5-0.3,1.1-0.4,1.7-0.4
		c1.1,0,1.9,0.3,2.5,1c0.6,0.6,0.9,1.6,0.9,2.9v4.9l1.5,0.3v1.2h-4.9v-1.2l1.5-0.3v-4.9c0-0.9-0.2-1.5-0.5-1.9s-0.9-0.6-1.6-0.6
		c-0.5,0-1,0.1-1.4,0.4c-0.4,0.3-0.7,0.6-1,1v5.9l1.5,0.3v1.2h-4.9V73.4z"/>
	<path class="st2" d="M732.5,74.6c-0.1-0.3-0.1-0.5-0.1-0.7c0-0.2-0.1-0.4-0.1-0.6c-0.4,0.5-0.8,0.8-1.3,1.1
		c-0.5,0.3-1.1,0.4-1.7,0.4c-1,0-1.8-0.3-2.4-0.8c-0.5-0.5-0.8-1.2-0.8-2.2c0-1,0.4-1.7,1.2-2.2c0.8-0.5,1.8-0.8,3.2-0.8h1.9v-1.2
		c0-0.6-0.2-1.1-0.6-1.4c-0.4-0.3-0.9-0.5-1.6-0.5c-0.5,0-0.9,0.1-1.2,0.2c-0.3,0.1-0.6,0.3-0.8,0.5l-0.2,1.1h-1.4v-1.9
		c0.5-0.4,1-0.7,1.7-0.9c0.7-0.2,1.4-0.3,2.1-0.3c1.1,0,2.1,0.3,2.8,0.9c0.7,0.6,1.1,1.4,1.1,2.5v4.8c0,0.1,0,0.3,0,0.4
		c0,0.1,0,0.2,0,0.4l0.7,0.1v1.2H732.5z M729.6,73.2c0.6,0,1.2-0.1,1.7-0.4c0.5-0.3,0.9-0.6,1.1-1v-1.7h-1.9c-0.7,0-1.3,0.2-1.8,0.5
		c-0.4,0.3-0.7,0.8-0.7,1.3c0,0.4,0.1,0.8,0.4,1C728.6,73.1,729,73.2,729.6,73.2z"/>
	<path class="st2" d="M736.4,65.7v-1.2h3.1l0.2,1.5c0.3-0.5,0.6-0.9,1.1-1.2c0.4-0.3,0.9-0.4,1.4-0.4c0.1,0,0.3,0,0.4,0
		c0.2,0,0.3,0,0.3,0.1l-0.2,1.7l-1-0.1c-0.5,0-0.9,0.1-1.2,0.3c-0.3,0.2-0.6,0.5-0.8,1v5.8l1.5,0.3v1.2h-4.9v-1.2l1.5-0.3V66
		L736.4,65.7z"/>
	<path class="st2" d="M747.8,62.1v2.4h1.9v1.4h-1.9V72c0,0.5,0.1,0.8,0.3,1c0.2,0.2,0.5,0.3,0.8,0.3c0.2,0,0.3,0,0.5,0
		c0.2,0,0.4-0.1,0.5-0.1l0.3,1.3c-0.2,0.1-0.4,0.2-0.8,0.3c-0.3,0.1-0.7,0.1-1,0.1c-0.7,0-1.3-0.2-1.8-0.7c-0.4-0.4-0.7-1.2-0.7-2.1
		v-6.1h-1.6v-1.4h1.6v-2.4H747.8z"/>
	<path class="st2" d="M751.5,73.4l1.5-0.3V66l-1.5-0.3v-1.2h3.3v8.6l1.5,0.3v1.2h-4.9V73.4z M754.9,62H753v-1.9h1.8V62z"/>
	<path class="st2" d="M762.3,73.3c0.6,0,1.1-0.2,1.6-0.6c0.5-0.4,0.7-0.8,0.7-1.4h1.6l0,0.1c0,0.9-0.4,1.6-1.2,2.3
		c-0.8,0.7-1.7,1-2.8,1c-1.5,0-2.6-0.5-3.3-1.4c-0.8-1-1.2-2.1-1.2-3.6v-0.4c0-1.4,0.4-2.6,1.2-3.6c0.8-1,1.9-1.4,3.3-1.4
		c0.8,0,1.5,0.1,2.2,0.4c0.6,0.3,1.2,0.6,1.6,1.1l0.1,2.2h-1.5l-0.4-1.6c-0.2-0.2-0.5-0.4-0.8-0.5s-0.7-0.2-1.2-0.2
		c-1,0-1.6,0.3-2.1,1c-0.4,0.7-0.6,1.5-0.6,2.5v0.4c0,1,0.2,1.9,0.6,2.6C760.6,73,761.3,73.3,762.3,73.3z"/>
	<path class="st2" d="M767.8,61.3v-1.2h3.3v13l1.5,0.3v1.2h-4.9v-1.2l1.5-0.3V61.5L767.8,61.3z"/>
	<path class="st2" d="M778.6,74.8c-1.4,0-2.5-0.5-3.3-1.4c-0.8-0.9-1.2-2.1-1.2-3.6v-0.4c0-1.4,0.4-2.6,1.3-3.6
		c0.9-0.9,1.9-1.4,3-1.4c1.3,0,2.4,0.4,3.1,1.2c0.7,0.8,1,1.9,1,3.3V70h-6.5l0,0c0,1,0.3,1.8,0.7,2.4c0.5,0.6,1.1,0.9,2,0.9
		c0.6,0,1.2-0.1,1.6-0.3c0.5-0.2,0.9-0.4,1.2-0.7l0.7,1.2c-0.4,0.3-0.8,0.6-1.4,0.9C780.1,74.7,779.4,74.8,778.6,74.8z M778.3,65.8
		c-0.6,0-1.1,0.3-1.6,0.8c-0.4,0.5-0.7,1.2-0.8,1.9l0,0h4.6v-0.2c0-0.7-0.2-1.3-0.6-1.8C779.6,66,779.1,65.8,778.3,65.8z"/>
	<path class="st2" d="M791.9,67.7h-1.4l-0.3-1.2c-0.2-0.2-0.5-0.4-0.8-0.5c-0.3-0.1-0.7-0.2-1.1-0.2c-0.6,0-1.1,0.1-1.4,0.4
		c-0.3,0.3-0.5,0.6-0.5,1c0,0.4,0.1,0.7,0.4,0.9c0.3,0.2,0.8,0.4,1.7,0.6c1.3,0.3,2.2,0.6,2.8,1.1c0.6,0.5,0.9,1.1,0.9,1.9
		c0,0.9-0.4,1.6-1.1,2.2c-0.7,0.6-1.7,0.8-2.8,0.8c-0.8,0-1.4-0.1-2.1-0.3c-0.6-0.2-1.1-0.4-1.6-0.8l0-2.3h1.4l0.3,1.3
		c0.2,0.2,0.5,0.3,0.9,0.4c0.4,0.1,0.7,0.1,1.1,0.1c0.6,0,1.2-0.1,1.5-0.4c0.4-0.3,0.6-0.6,0.6-1c0-0.4-0.2-0.7-0.5-1
		c-0.3-0.3-0.9-0.5-1.7-0.7c-1.2-0.3-2.1-0.6-2.8-1.1c-0.6-0.5-0.9-1.1-0.9-1.9c0-0.8,0.3-1.5,1-2.1c0.7-0.6,1.6-0.9,2.7-0.9
		c0.8,0,1.4,0.1,2.1,0.3c0.6,0.2,1.1,0.5,1.5,0.8L791.9,67.7z"/>
</g>
<g id="rettv_x5F_02_5_">
	<rect x="572.5" y="142" class="st0" width="257.9" height="81.9"/>
	<path class="st1" d="M832.1,225.6H570.8v-85.2h261.2V225.6z M574.1,222.3h254.6v-78.6H574.1V222.3z"/>
</g>
<g id="text1_x5F_02_6_">
	<path class="st2" d="M631.2,170.6h-1.4l-0.3-1.9c-0.3-0.2-0.6-0.4-1.1-0.6c-0.5-0.2-1-0.2-1.6-0.2c-1,0-1.7,0.2-2.2,0.6
		c-0.5,0.4-0.8,0.9-0.8,1.6c0,0.6,0.3,1.1,0.8,1.5c0.5,0.4,1.4,0.7,2.6,1c1.4,0.4,2.5,0.9,3.2,1.6c0.7,0.7,1.1,1.5,1.1,2.6
		c0,1.1-0.4,2-1.3,2.6c-0.9,0.7-2,1-3.5,1c-1,0-2-0.2-2.8-0.5s-1.5-0.8-2-1.3v-2.5h1.4l0.4,1.9c0.4,0.3,0.8,0.5,1.3,0.7
		s1.1,0.3,1.8,0.3c0.9,0,1.6-0.2,2.2-0.6s0.8-0.9,0.8-1.6c0-0.6-0.2-1.1-0.7-1.6c-0.5-0.4-1.3-0.8-2.5-1.1c-1.4-0.3-2.5-0.8-3.3-1.5
		c-0.8-0.7-1.2-1.5-1.2-2.5c0-1.1,0.4-1.9,1.3-2.6c0.9-0.7,2.1-1.1,3.5-1.1c0.9,0,1.8,0.2,2.6,0.5c0.8,0.3,1.4,0.7,1.9,1.2V170.6z"
		/>
	<path class="st2" d="M637.7,180.3c-1.4,0-2.5-0.5-3.3-1.4c-0.8-0.9-1.2-2.1-1.2-3.6v-0.4c0-1.4,0.4-2.6,1.3-3.6
		c0.9-0.9,1.9-1.4,3-1.4c1.3,0,2.4,0.4,3.1,1.2c0.7,0.8,1,1.9,1,3.3v1.1h-6.5l0,0c0,1,0.3,1.8,0.7,2.4c0.5,0.6,1.1,0.9,2,0.9
		c0.6,0,1.2-0.1,1.6-0.3c0.5-0.2,0.9-0.4,1.2-0.7l0.7,1.2c-0.4,0.3-0.8,0.6-1.4,0.9C639.3,180.2,638.6,180.3,637.7,180.3z
		 M637.5,171.3c-0.6,0-1.1,0.3-1.6,0.8c-0.4,0.5-0.7,1.2-0.8,1.9l0,0h4.6v-0.2c0-0.7-0.2-1.3-0.6-1.8
		C638.8,171.5,638.2,171.3,637.5,171.3z"/>
	<path class="st2" d="M643.1,166.8v-1.2h3.3v13l1.5,0.3v1.2h-4.9v-1.2l1.5-0.3v-11.6L643.1,166.8z"/>
	<path class="st2" d="M653.9,180.3c-1.4,0-2.5-0.5-3.3-1.4c-0.8-0.9-1.2-2.1-1.2-3.6v-0.4c0-1.4,0.4-2.6,1.3-3.6
		c0.9-0.9,1.9-1.4,3-1.4c1.3,0,2.4,0.4,3.1,1.2c0.7,0.8,1,1.9,1,3.3v1.1h-6.5l0,0c0,1,0.3,1.8,0.7,2.4c0.5,0.6,1.1,0.9,2,0.9
		c0.6,0,1.2-0.1,1.6-0.3c0.5-0.2,0.9-0.4,1.2-0.7l0.7,1.2c-0.4,0.3-0.8,0.6-1.4,0.9C655.5,180.2,654.8,180.3,653.9,180.3z
		 M653.7,171.3c-0.6,0-1.1,0.3-1.6,0.8c-0.4,0.5-0.7,1.2-0.8,1.9l0,0h4.6v-0.2c0-0.7-0.2-1.3-0.6-1.8
		C655,171.5,654.4,171.3,653.7,171.3z"/>
	<path class="st2" d="M664.1,178.9c0.6,0,1.1-0.2,1.6-0.6c0.5-0.4,0.7-0.8,0.7-1.4h1.6l0,0.1c0,0.9-0.4,1.6-1.2,2.3
		c-0.8,0.7-1.7,1-2.8,1c-1.5,0-2.6-0.5-3.3-1.4c-0.8-1-1.2-2.1-1.2-3.6v-0.4c0-1.4,0.4-2.6,1.2-3.6c0.8-1,1.9-1.4,3.3-1.4
		c0.8,0,1.5,0.1,2.2,0.4c0.6,0.3,1.2,0.6,1.6,1.1l0.1,2.2h-1.5l-0.4-1.6c-0.2-0.2-0.5-0.4-0.8-0.5s-0.7-0.2-1.2-0.2
		c-1,0-1.6,0.3-2.1,1c-0.4,0.7-0.6,1.5-0.6,2.5v0.4c0,1,0.2,1.9,0.6,2.6C662.4,178.5,663.1,178.9,664.1,178.9z"/>
	<path class="st2" d="M673,167.6v2.4h1.9v1.4H673v6.1c0,0.5,0.1,0.8,0.3,1c0.2,0.2,0.5,0.3,0.8,0.3c0.2,0,0.3,0,0.5,0
		c0.2,0,0.4-0.1,0.5-0.1l0.3,1.3c-0.2,0.1-0.4,0.2-0.8,0.3c-0.3,0.1-0.7,0.1-1,0.1c-0.7,0-1.3-0.2-1.8-0.7c-0.4-0.4-0.7-1.2-0.7-2.1
		v-6.1h-1.6v-1.4h1.6v-2.4H673z"/>
	<path class="st2" d="M684.7,167.6v2.4h1.9v1.4h-1.9v6.1c0,0.5,0.1,0.8,0.3,1c0.2,0.2,0.5,0.3,0.8,0.3c0.2,0,0.3,0,0.5,0
		c0.2,0,0.4-0.1,0.5-0.1l0.3,1.3c-0.2,0.1-0.4,0.2-0.8,0.3c-0.3,0.1-0.7,0.1-1,0.1c-0.7,0-1.3-0.2-1.8-0.7c-0.4-0.4-0.7-1.2-0.7-2.1
		v-6.1h-1.6v-1.4h1.6v-2.4H684.7z"/>
	<path class="st2" d="M688.2,178.9l1.5-0.3v-11.6l-1.5-0.3v-1.2h3.3v5.8c0.3-0.5,0.8-0.9,1.3-1.1c0.5-0.3,1.1-0.4,1.7-0.4
		c1.1,0,1.9,0.3,2.5,1c0.6,0.6,0.9,1.6,0.9,3v4.9l1.5,0.3v1.2h-4.9v-1.2l1.5-0.3v-4.9c0-0.8-0.2-1.4-0.5-1.8
		c-0.4-0.4-0.9-0.6-1.6-0.6c-0.5,0-1,0.1-1.4,0.4c-0.4,0.2-0.8,0.6-1,1v6l1.5,0.3v1.2h-4.9V178.9z"/>
	<path class="st2" d="M705.2,180.3c-1.4,0-2.5-0.5-3.3-1.4c-0.8-0.9-1.2-2.1-1.2-3.6v-0.4c0-1.4,0.4-2.6,1.3-3.6
		c0.8-0.9,1.9-1.4,3-1.4c1.3,0,2.4,0.4,3.1,1.2s1,1.9,1,3.3v1.1h-6.5l0,0c0,1,0.3,1.8,0.7,2.4c0.5,0.6,1.1,0.9,2,0.9
		c0.6,0,1.2-0.1,1.6-0.3c0.5-0.2,0.9-0.4,1.2-0.7l0.7,1.2c-0.4,0.3-0.8,0.6-1.4,0.9C706.7,180.2,706,180.3,705.2,180.3z
		 M704.9,171.3c-0.6,0-1.1,0.3-1.6,0.8c-0.4,0.5-0.7,1.2-0.8,1.9l0,0h4.6v-0.2c0-0.7-0.2-1.3-0.6-1.8S705.7,171.3,704.9,171.3z"/>
	<path class="st2" d="M715.6,180.1v-1.3l4.4-4.9c0.8-0.9,1.3-1.6,1.6-2.1s0.4-1.1,0.4-1.6c0-0.7-0.2-1.2-0.6-1.7
		c-0.4-0.5-0.9-0.7-1.6-0.7c-0.9,0-1.6,0.2-2.1,0.7c-0.4,0.5-0.7,1.2-0.7,2h-1.8l0-0.1c0-1.2,0.4-2.1,1.2-2.9
		c0.8-0.8,1.9-1.2,3.3-1.2c1.2,0,2.2,0.4,2.9,1.1c0.7,0.7,1.1,1.6,1.1,2.7c0,0.7-0.2,1.5-0.7,2.2c-0.4,0.7-1.1,1.5-1.8,2.4l-3.6,3.9
		l0,0h4.8l0.1-1.5h1.5v3H715.6z"/>
	<path class="st2" d="M726.4,168.8c0-0.7,0.2-1.2,0.7-1.7c0.5-0.5,1-0.7,1.7-0.7c0.6,0,1.2,0.2,1.7,0.7c0.5,0.5,0.7,1,0.7,1.7
		c0,0.7-0.2,1.2-0.7,1.7c-0.5,0.5-1,0.7-1.7,0.7c-0.7,0-1.2-0.2-1.7-0.7C726.6,170,726.4,169.5,726.4,168.8z M727.6,168.8
		c0,0.3,0.1,0.6,0.3,0.8s0.5,0.3,0.8,0.3c0.3,0,0.6-0.1,0.8-0.3c0.2-0.2,0.3-0.5,0.3-0.8c0-0.3-0.1-0.6-0.3-0.9
		c-0.2-0.2-0.5-0.3-0.8-0.3c-0.3,0-0.6,0.1-0.8,0.3C727.7,168.2,727.6,168.5,727.6,168.8z"/>
	<path class="st2" d="M737.4,178.9l1.5-0.3v-7.2l-1.5-0.3v-1.2h3.2l0.1,1.3c0.3-0.5,0.7-0.8,1.2-1.1s1.1-0.4,1.8-0.4
		s1.2,0.2,1.7,0.5c0.5,0.3,0.8,0.8,1.1,1.4c0.3-0.6,0.7-1,1.3-1.4s1.1-0.5,1.8-0.5c1,0,1.8,0.4,2.4,1.1c0.6,0.7,0.9,1.8,0.9,3.2v4.6
		l1.5,0.3v1.2h-4.9v-1.2l1.5-0.3v-4.6c0-1-0.2-1.7-0.5-2.1c-0.3-0.4-0.8-0.6-1.5-0.6c-0.6,0-1.2,0.2-1.5,0.7c-0.4,0.4-0.6,1-0.7,1.7
		v4.9l1.5,0.3v1.2h-4.9v-1.2l1.5-0.3v-4.6c0-0.9-0.2-1.6-0.5-2.1c-0.3-0.4-0.9-0.7-1.5-0.7c-0.6,0-1,0.1-1.4,0.3
		c-0.4,0.2-0.6,0.6-0.8,1v6l1.5,0.3v1.2h-4.9V178.9z"/>
	<path class="st2" d="M755.7,175c0-1.5,0.4-2.7,1.2-3.7c0.8-1,1.9-1.4,3.3-1.4c1.4,0,2.5,0.5,3.3,1.4c0.8,1,1.2,2.2,1.2,3.7v0.2
		c0,1.5-0.4,2.7-1.2,3.7c-0.8,1-1.9,1.4-3.3,1.4c-1.4,0-2.5-0.5-3.3-1.4c-0.8-1-1.2-2.2-1.2-3.7V175z M757.5,175.2
		c0,1.1,0.2,1.9,0.7,2.6c0.4,0.7,1.1,1,2,1c0.9,0,1.5-0.3,2-1c0.5-0.7,0.7-1.6,0.7-2.6V175c0-1.1-0.2-1.9-0.7-2.6
		c-0.5-0.7-1.1-1-2-1c-0.9,0-1.5,0.3-2,1c-0.4,0.7-0.7,1.6-0.7,2.6V175.2z"/>
	<path class="st2" d="M774,173.2h-1.4l-0.3-1.2c-0.2-0.2-0.5-0.4-0.8-0.5c-0.3-0.1-0.7-0.2-1.1-0.2c-0.6,0-1.1,0.1-1.4,0.4
		c-0.3,0.3-0.5,0.6-0.5,1c0,0.4,0.1,0.7,0.4,0.9c0.3,0.2,0.8,0.4,1.7,0.6c1.3,0.3,2.2,0.6,2.8,1.1c0.6,0.5,0.9,1.1,0.9,1.9
		c0,0.9-0.4,1.6-1.1,2.2c-0.7,0.6-1.7,0.8-2.8,0.8c-0.8,0-1.4-0.1-2.1-0.3c-0.6-0.2-1.1-0.4-1.6-0.8l0-2.3h1.4l0.3,1.3
		c0.2,0.2,0.5,0.3,0.9,0.4c0.4,0.1,0.7,0.1,1.1,0.1c0.6,0,1.2-0.1,1.5-0.4c0.4-0.3,0.6-0.6,0.6-1c0-0.4-0.2-0.7-0.5-1
		c-0.3-0.3-0.9-0.5-1.7-0.7c-1.2-0.3-2.1-0.6-2.8-1.1c-0.6-0.5-0.9-1.1-0.9-1.9c0-0.8,0.3-1.5,1-2.1c0.7-0.6,1.6-0.9,2.7-0.9
		c0.8,0,1.4,0.1,2.1,0.3c0.6,0.2,1.1,0.5,1.5,0.8L774,173.2z"/>
	<path class="st2" d="M779.2,167.6v2.4h1.9v1.4h-1.9v6.1c0,0.5,0.1,0.8,0.3,1c0.2,0.2,0.5,0.3,0.8,0.3c0.2,0,0.3,0,0.5,0
		c0.2,0,0.4-0.1,0.5-0.1l0.3,1.3c-0.2,0.1-0.4,0.2-0.8,0.3c-0.3,0.1-0.7,0.1-1,0.1c-0.7,0-1.3-0.2-1.8-0.7c-0.4-0.4-0.7-1.2-0.7-2.1
		v-6.1h-1.6v-1.4h1.6v-2.4H779.2z"/>
	<path class="st2" d="M602.4,200.9l1.5-0.3v-7.2l-1.5-0.3v-1.2h3.2l0.1,1.3c0.3-0.5,0.7-0.8,1.2-1.1c0.5-0.3,1.1-0.4,1.8-0.4
		s1.2,0.2,1.7,0.5c0.5,0.3,0.8,0.8,1.1,1.4c0.3-0.6,0.7-1,1.3-1.4s1.1-0.5,1.8-0.5c1,0,1.8,0.4,2.4,1.1c0.6,0.7,0.9,1.8,0.9,3.2v4.6
		l1.5,0.3v1.2h-4.9v-1.2l1.5-0.3v-4.6c0-1-0.2-1.7-0.5-2.1c-0.3-0.4-0.8-0.6-1.5-0.6c-0.6,0-1.2,0.2-1.5,0.7c-0.4,0.4-0.6,1-0.7,1.7
		v4.9l1.5,0.3v1.2h-4.9v-1.2l1.5-0.3v-4.6c0-0.9-0.2-1.6-0.5-2.1c-0.3-0.4-0.9-0.7-1.5-0.7c-0.6,0-1,0.1-1.4,0.3
		c-0.4,0.2-0.6,0.6-0.8,1v6l1.5,0.3v1.2h-4.9V200.9z"/>
	<path class="st2" d="M625.2,202.3c-1.4,0-2.5-0.5-3.3-1.4c-0.8-0.9-1.2-2.1-1.2-3.6v-0.4c0-1.4,0.4-2.6,1.3-3.6
		c0.8-0.9,1.9-1.4,3-1.4c1.3,0,2.4,0.4,3.1,1.2s1,1.9,1,3.3v1.1h-6.5l0,0c0,1,0.3,1.8,0.7,2.4c0.5,0.6,1.1,0.9,2,0.9
		c0.6,0,1.2-0.1,1.6-0.3c0.5-0.2,0.9-0.4,1.2-0.7l0.7,1.2c-0.4,0.3-0.8,0.6-1.4,0.9C626.8,202.2,626.1,202.3,625.2,202.3z
		 M625,193.3c-0.6,0-1.1,0.3-1.6,0.8c-0.4,0.5-0.7,1.2-0.8,1.9l0,0h4.6v-0.2c0-0.7-0.2-1.3-0.6-1.8S625.7,193.3,625,193.3z"/>
	<path class="st2" d="M630.6,200.9l1.5-0.3v-7.2l-1.5-0.3v-1.2h3.1l0.1,1.5c0.3-0.5,0.8-0.9,1.3-1.2c0.5-0.3,1.1-0.4,1.7-0.4
		c1.1,0,1.9,0.3,2.5,1c0.6,0.6,0.9,1.6,0.9,2.9v4.9l1.5,0.3v1.2h-4.9v-1.2l1.5-0.3v-4.9c0-0.9-0.2-1.5-0.5-1.9s-0.9-0.6-1.6-0.6
		c-0.5,0-1,0.1-1.4,0.4c-0.4,0.3-0.7,0.6-1,1v5.9l1.5,0.3v1.2h-4.9V200.9z"/>
	<path class="st2" d="M646.3,189.6v2.4h1.9v1.4h-1.9v6.1c0,0.5,0.1,0.8,0.3,1c0.2,0.2,0.5,0.3,0.8,0.3c0.2,0,0.3,0,0.5,0
		c0.2,0,0.4-0.1,0.5-0.1l0.3,1.3c-0.2,0.1-0.4,0.2-0.8,0.3c-0.3,0.1-0.7,0.1-1,0.1c-0.7,0-1.3-0.2-1.8-0.7c-0.4-0.4-0.7-1.2-0.7-2.1
		v-6.1h-1.6v-1.4h1.6v-2.4H646.3z"/>
	<path class="st2" d="M650.1,200.9l1.5-0.3v-7.2l-1.5-0.3v-1.2h3.3v8.6l1.5,0.3v1.2h-4.9V200.9z M653.4,189.5h-1.8v-1.9h1.8V189.5z"
		/>
	<path class="st2" d="M656.3,197c0-1.5,0.4-2.7,1.2-3.7c0.8-1,1.9-1.4,3.3-1.4c1.4,0,2.5,0.5,3.3,1.4c0.8,1,1.2,2.2,1.2,3.7v0.2
		c0,1.5-0.4,2.7-1.2,3.7c-0.8,1-1.9,1.4-3.3,1.4c-1.4,0-2.5-0.5-3.3-1.4c-0.8-1-1.2-2.2-1.2-3.7V197z M658.1,197.2
		c0,1.1,0.2,1.9,0.7,2.6c0.4,0.7,1.1,1,2,1c0.9,0,1.5-0.3,2-1c0.5-0.7,0.7-1.6,0.7-2.6V197c0-1.1-0.2-1.9-0.7-2.6
		c-0.5-0.7-1.1-1-2-1s-1.5,0.3-2,1c-0.4,0.7-0.7,1.6-0.7,2.6V197.2z"/>
	<path class="st2" d="M666.7,200.9l1.5-0.3v-7.2l-1.5-0.3v-1.2h3.1l0.1,1.5c0.3-0.5,0.8-0.9,1.3-1.2c0.5-0.3,1.1-0.4,1.7-0.4
		c1.1,0,1.9,0.3,2.5,1c0.6,0.6,0.9,1.6,0.9,2.9v4.9l1.5,0.3v1.2H673v-1.2l1.5-0.3v-4.9c0-0.9-0.2-1.5-0.5-1.9s-0.9-0.6-1.6-0.6
		c-0.5,0-1,0.1-1.4,0.4c-0.4,0.3-0.7,0.6-1,1v5.9l1.5,0.3v1.2h-4.9V200.9z"/>
	<path class="st2" d="M683.7,202.3c-1.4,0-2.5-0.5-3.3-1.4c-0.8-0.9-1.2-2.1-1.2-3.6v-0.4c0-1.4,0.4-2.6,1.3-3.6
		c0.8-0.9,1.9-1.4,3-1.4c1.3,0,2.4,0.4,3.1,1.2s1,1.9,1,3.3v1.1H681l0,0c0,1,0.3,1.8,0.7,2.4c0.5,0.6,1.1,0.9,2,0.9
		c0.6,0,1.2-0.1,1.6-0.3c0.5-0.2,0.9-0.4,1.2-0.7l0.7,1.2c-0.4,0.3-0.8,0.6-1.4,0.9C685.2,202.2,684.5,202.3,683.7,202.3z
		 M683.4,193.3c-0.6,0-1.1,0.3-1.6,0.8c-0.4,0.5-0.7,1.2-0.8,1.9l0,0h4.6v-0.2c0-0.7-0.2-1.3-0.6-1.8S684.2,193.3,683.4,193.3z"/>
	<path class="st2" d="M696.1,200.9c-0.3,0.5-0.7,0.8-1.2,1s-1,0.4-1.6,0.4c-1.2,0-2.2-0.4-2.9-1.3c-0.7-0.9-1-2.1-1-3.5v-0.2
		c0-1.6,0.3-2.9,1-3.9c0.7-1,1.7-1.5,2.9-1.5c0.6,0,1.1,0.1,1.6,0.3c0.5,0.2,0.8,0.5,1.2,1v-4.1l-1.5-0.3v-1.2h1.5h1.8v13l1.5,0.3
		v1.2h-3.1L696.1,200.9z M691.1,197.5c0,1,0.2,1.8,0.6,2.4s1.1,0.9,1.9,0.9c0.5,0,1-0.1,1.4-0.4c0.4-0.2,0.7-0.6,0.9-1v-4.7
		c-0.2-0.4-0.5-0.8-0.9-1c-0.4-0.2-0.8-0.4-1.4-0.4c-0.9,0-1.5,0.4-1.9,1.1c-0.4,0.7-0.6,1.7-0.6,2.8V197.5z"/>
	<path class="st2" d="M705.1,200.9l1.5-0.3v-7.2l-1.5-0.3v-1.2h3.2l0.1,1.3c0.3-0.5,0.7-0.8,1.2-1.1c0.5-0.3,1.1-0.4,1.8-0.4
		s1.2,0.2,1.7,0.5c0.5,0.3,0.8,0.8,1.1,1.4c0.3-0.6,0.7-1,1.3-1.4s1.1-0.5,1.8-0.5c1,0,1.8,0.4,2.4,1.1c0.6,0.7,0.9,1.8,0.9,3.2v4.6
		l1.5,0.3v1.2h-4.9v-1.2l1.5-0.3v-4.6c0-1-0.2-1.7-0.5-2.1c-0.3-0.4-0.8-0.6-1.5-0.6c-0.6,0-1.1,0.2-1.5,0.7c-0.4,0.4-0.6,1-0.7,1.7
		v4.9l1.5,0.3v1.2h-4.9v-1.2l1.5-0.3v-4.6c0-0.9-0.2-1.6-0.5-2.1c-0.3-0.4-0.9-0.7-1.5-0.7c-0.6,0-1,0.1-1.4,0.3
		c-0.4,0.2-0.6,0.6-0.8,1v6l1.5,0.3v1.2h-4.9V200.9z"/>
	<path class="st2" d="M723.3,197c0-1.5,0.4-2.7,1.2-3.7c0.8-1,1.9-1.4,3.3-1.4c1.4,0,2.5,0.5,3.3,1.4c0.8,1,1.2,2.2,1.2,3.7v0.2
		c0,1.5-0.4,2.7-1.2,3.7c-0.8,1-1.9,1.4-3.3,1.4c-1.4,0-2.5-0.5-3.3-1.4c-0.8-1-1.2-2.2-1.2-3.7V197z M725.1,197.2
		c0,1.1,0.2,1.9,0.7,2.6c0.4,0.7,1.1,1,2,1c0.9,0,1.5-0.3,2-1c0.5-0.7,0.7-1.6,0.7-2.6V197c0-1.1-0.2-1.9-0.7-2.6
		c-0.5-0.7-1.1-1-2-1s-1.5,0.3-2,1c-0.4,0.7-0.7,1.6-0.7,2.6V197.2z"/>
	<path class="st2" d="M737.3,193.2l-1.2,0.2l2.1,5.7l0.2,0.7h0.1l0.2-0.7l2-5.7l-1.2-0.2v-1.2h3.9v1.2l-0.8,0.1l-3.4,8.7h-1.4
		l-3.4-8.7l-0.8-0.1v-1.2h3.9V193.2z"/>
	<path class="st2" d="M748.9,202.3c-1.4,0-2.5-0.5-3.3-1.4c-0.8-0.9-1.2-2.1-1.2-3.6v-0.4c0-1.4,0.4-2.6,1.3-3.6
		c0.8-0.9,1.9-1.4,3-1.4c1.3,0,2.4,0.4,3.1,1.2s1,1.9,1,3.3v1.1h-6.5l0,0c0,1,0.3,1.8,0.7,2.4c0.5,0.6,1.1,0.9,2,0.9
		c0.6,0,1.2-0.1,1.6-0.3c0.5-0.2,0.9-0.4,1.2-0.7l0.7,1.2c-0.4,0.3-0.8,0.6-1.4,0.9C750.4,202.2,749.7,202.3,748.9,202.3z
		 M748.6,193.3c-0.6,0-1.1,0.3-1.6,0.8c-0.4,0.5-0.7,1.2-0.8,1.9l0,0h4.6v-0.2c0-0.7-0.2-1.3-0.6-1.8S749.4,193.3,748.6,193.3z"/>
	<path class="st2" d="M754.1,200.9l1.5-0.3v-7.2l-1.5-0.3v-1.2h3.2l0.1,1.3c0.3-0.5,0.7-0.8,1.2-1.1s1.1-0.4,1.8-0.4
		s1.2,0.2,1.7,0.5c0.5,0.3,0.8,0.8,1.1,1.4c0.3-0.6,0.7-1,1.3-1.4s1.1-0.5,1.8-0.5c1,0,1.8,0.4,2.4,1.1c0.6,0.7,0.9,1.8,0.9,3.2v4.6
		l1.5,0.3v1.2h-4.9v-1.2l1.5-0.3v-4.6c0-1-0.2-1.7-0.5-2.1c-0.3-0.4-0.8-0.6-1.5-0.6c-0.6,0-1.2,0.2-1.5,0.7c-0.4,0.4-0.6,1-0.7,1.7
		v4.9l1.5,0.3v1.2h-4.9v-1.2l1.5-0.3v-4.6c0-0.9-0.2-1.6-0.5-2.1c-0.3-0.4-0.9-0.7-1.5-0.7c-0.6,0-1,0.1-1.4,0.3
		c-0.4,0.2-0.6,0.6-0.8,1v6l1.5,0.3v1.2h-4.9V200.9z"/>
	<path class="st2" d="M776.9,202.3c-1.4,0-2.5-0.5-3.3-1.4c-0.8-0.9-1.2-2.1-1.2-3.6v-0.4c0-1.4,0.4-2.6,1.3-3.6
		c0.9-0.9,1.9-1.4,3-1.4c1.3,0,2.4,0.4,3.1,1.2c0.7,0.8,1,1.9,1,3.3v1.1h-6.5l0,0c0,1,0.3,1.8,0.7,2.4c0.5,0.6,1.1,0.9,2,0.9
		c0.6,0,1.2-0.1,1.6-0.3c0.5-0.2,0.9-0.4,1.2-0.7l0.7,1.2c-0.4,0.3-0.8,0.6-1.4,0.9C778.5,202.2,777.8,202.3,776.9,202.3z
		 M776.7,193.3c-0.6,0-1.1,0.3-1.6,0.8c-0.4,0.5-0.7,1.2-0.8,1.9l0,0h4.6v-0.2c0-0.7-0.2-1.3-0.6-1.8
		C778,193.5,777.4,193.3,776.7,193.3z"/>
	<path class="st2" d="M782.3,200.9l1.5-0.3v-7.2l-1.5-0.3v-1.2h3.1l0.1,1.5c0.3-0.5,0.8-0.9,1.3-1.2c0.5-0.3,1.1-0.4,1.7-0.4
		c1.1,0,1.9,0.3,2.5,1c0.6,0.6,0.9,1.6,0.9,2.9v4.9l1.5,0.3v1.2h-4.9v-1.2l1.5-0.3v-4.9c0-0.9-0.2-1.5-0.5-1.9s-0.9-0.6-1.6-0.6
		c-0.5,0-1,0.1-1.4,0.4c-0.4,0.3-0.7,0.6-1,1v5.9l1.5,0.3v1.2h-4.9V200.9z"/>
	<path class="st2" d="M798,189.6v2.4h1.9v1.4H798v6.1c0,0.5,0.1,0.8,0.3,1c0.2,0.2,0.5,0.3,0.8,0.3c0.2,0,0.3,0,0.5,0
		c0.2,0,0.4-0.1,0.5-0.1l0.3,1.3c-0.2,0.1-0.4,0.2-0.8,0.3c-0.3,0.1-0.7,0.1-1,0.1c-0.7,0-1.3-0.2-1.8-0.7c-0.4-0.4-0.7-1.2-0.7-2.1
		v-6.1h-1.6v-1.4h1.6v-2.4H798z"/>
</g>
<g>
	<g>
		<rect x="700" y="96.5" class="st1" width="2.9" height="2.4"/>
	</g>
	<g>
		<path class="st1" d="M702.9,123.5H700v-4.1h2.9V123.5z M702.9,115.3H700v-4.1h2.9V115.3z M702.9,107.1H700v-4.1h2.9V107.1z"/>
	</g>
	<g>
		<rect x="700" y="127.6" class="st1" width="2.9" height="2.4"/>
	</g>
	<g>
		<g>
			<path class="st1" d="M701.5,138.6c-1.5-4.1-4.1-9.1-6.8-12.3l6.8,2.5l6.8-2.5C705.5,129.5,703,134.6,701.5,138.6z"/>
		</g>
	</g>
</g>
<g>
	<g>
		<rect x="700" y="222.9" class="st1" width="2.9" height="2.4"/>
	</g>
	<g>
		<path class="st1" d="M702.9,249.9H700v-4.1h2.9V249.9z M702.9,241.7H700v-4.1h2.9V241.7z M702.9,233.5H700v-4.1h2.9V233.5z"/>
	</g>
	<g>
		<rect x="700" y="254" class="st1" width="2.9" height="2.4"/>
	</g>
	<g>
		<g>
			<path class="st1" d="M701.5,265.1c-1.5-4.1-4.1-9.1-6.8-12.3l6.8,2.5l6.8-2.5C705.5,255.9,703,261,701.5,265.1z"/>
		</g>
	</g>
</g>
<g>
	<g>
		<rect x="700" y="340.4" class="st1" width="2.9" height="2.4"/>
	</g>
	<g>
		<path class="st1" d="M702.9,367.4H700v-4.1h2.9V367.4z M702.9,359.2H700v-4.1h2.9V359.2z M702.9,351H700v-4.1h2.9V351z"/>
	</g>
	<g>
		<rect x="700" y="371.5" class="st1" width="2.9" height="2.4"/>
	</g>
	<g>
		<g>
			<path class="st1" d="M701.5,382.6c-1.5-4.1-4.1-9.1-6.8-12.3l6.8,2.5l6.8-2.5C705.5,373.4,703,378.5,701.5,382.6z"/>
		</g>
	</g>
</g>
<g id="rettv_x5F_02_4_">
	<rect x="572.5" y="506.7" class="st0" width="257.9" height="81.9"/>
	<path class="st1" d="M832.1,590.3H570.9V505h261.2V590.3z M574.1,587h254.6v-78.6H574.1V587z"/>
</g>
<g id="text1_x5F_02_5_">
	<path class="st2" d="M640.7,535.4h-1.3l-0.3-1.9c-0.3-0.3-0.7-0.5-1.1-0.7c-0.4-0.2-0.9-0.3-1.5-0.3c-1.4,0-2.5,0.5-3.2,1.5
		c-0.8,1-1.1,2.3-1.1,3.9v0.2c0,1.6,0.4,2.9,1.1,3.9c0.7,1,1.8,1.5,3.1,1.5c0.6,0,1.2-0.1,1.7-0.3c0.5-0.2,0.9-0.4,1.2-0.7l0.3-1.9
		h1.3v2.4c-0.4,0.5-1,0.9-1.8,1.3c-0.8,0.4-1.7,0.6-2.7,0.6c-1.8,0-3.2-0.6-4.3-1.9c-1.1-1.3-1.7-2.9-1.7-4.9v-0.2
		c0-2,0.6-3.6,1.7-4.9c1.1-1.3,2.6-1.9,4.4-1.9c1,0,1.9,0.2,2.7,0.6s1.4,0.8,1.8,1.3V535.4z"/>
	<path class="st2" d="M642.6,535.9v-1.2h3.1l0.2,1.5c0.3-0.5,0.6-0.9,1.1-1.2c0.4-0.3,0.9-0.4,1.4-0.4c0.1,0,0.3,0,0.4,0
		c0.2,0,0.3,0,0.3,0.1l-0.2,1.7l-1-0.1c-0.5,0-0.9,0.1-1.2,0.3c-0.3,0.2-0.6,0.5-0.8,1v5.8l1.5,0.3v1.2h-4.9v-1.2l1.5-0.3v-7.2
		L642.6,535.9z"/>
	<path class="st2" d="M654.9,544.9c-1.4,0-2.5-0.5-3.3-1.4c-0.8-0.9-1.2-2.1-1.2-3.6v-0.4c0-1.4,0.4-2.6,1.3-3.6
		c0.8-0.9,1.9-1.4,3-1.4c1.3,0,2.4,0.4,3.1,1.2s1,1.9,1,3.3v1.1h-6.5l0,0c0,1,0.3,1.8,0.7,2.4c0.5,0.6,1.1,0.9,2,0.9
		c0.6,0,1.2-0.1,1.6-0.3s0.9-0.4,1.2-0.7l0.7,1.2c-0.4,0.3-0.8,0.6-1.4,0.9C656.4,544.8,655.7,544.9,654.9,544.9z M654.6,536
		c-0.6,0-1.1,0.3-1.6,0.8c-0.4,0.5-0.7,1.2-0.8,1.9l0,0h4.6v-0.2c0-0.7-0.2-1.3-0.6-1.8S655.4,536,654.6,536z"/>
	<path class="st2" d="M667.1,544.7c-0.1-0.3-0.1-0.5-0.1-0.7s-0.1-0.4-0.1-0.6c-0.4,0.5-0.8,0.8-1.3,1.1c-0.5,0.3-1.1,0.4-1.7,0.4
		c-1,0-1.8-0.3-2.4-0.8c-0.5-0.5-0.8-1.2-0.8-2.2c0-1,0.4-1.7,1.2-2.2c0.8-0.5,1.8-0.8,3.2-0.8h1.9v-1.2c0-0.6-0.2-1.1-0.6-1.4
		c-0.4-0.3-0.9-0.5-1.5-0.5c-0.5,0-0.9,0.1-1.2,0.2c-0.3,0.1-0.6,0.3-0.8,0.5l-0.2,1.1h-1.4v-1.9c0.5-0.4,1-0.7,1.7-0.9
		c0.6-0.2,1.4-0.3,2.1-0.3c1.1,0,2.1,0.3,2.8,0.9c0.7,0.6,1.1,1.4,1.1,2.5v4.8c0,0.1,0,0.3,0,0.4s0,0.2,0,0.4l0.7,0.1v1.2H667.1z
		 M664.1,543.4c0.6,0,1.2-0.1,1.7-0.4c0.5-0.3,0.9-0.6,1.1-1v-1.7h-1.9c-0.7,0-1.3,0.2-1.8,0.5c-0.4,0.3-0.7,0.8-0.7,1.3
		c0,0.4,0.1,0.8,0.4,1S663.6,543.4,664.1,543.4z"/>
	<path class="st2" d="M674.2,532.3v2.4h1.9v1.4h-1.9v6.1c0,0.5,0.1,0.8,0.3,1c0.2,0.2,0.5,0.3,0.8,0.3c0.2,0,0.3,0,0.5,0
		s0.4-0.1,0.5-0.1l0.3,1.3c-0.2,0.1-0.4,0.2-0.8,0.3c-0.3,0.1-0.7,0.1-1,0.1c-0.7,0-1.3-0.2-1.8-0.7c-0.4-0.4-0.7-1.2-0.7-2.1v-6.1
		h-1.6v-1.4h1.6v-2.4H674.2z"/>
	<path class="st2" d="M682.5,544.9c-1.4,0-2.5-0.5-3.3-1.4c-0.8-0.9-1.2-2.1-1.2-3.6v-0.4c0-1.4,0.4-2.6,1.3-3.6
		c0.8-0.9,1.9-1.4,3-1.4c1.3,0,2.4,0.4,3.1,1.2s1,1.9,1,3.3v1.1h-6.5l0,0c0,1,0.3,1.8,0.7,2.4c0.5,0.6,1.1,0.9,2,0.9
		c0.6,0,1.2-0.1,1.6-0.3s0.9-0.4,1.2-0.7l0.7,1.2c-0.4,0.3-0.8,0.6-1.4,0.9C684.1,544.8,683.3,544.9,682.5,544.9z M682.2,536
		c-0.6,0-1.1,0.3-1.6,0.8c-0.4,0.5-0.7,1.2-0.8,1.9l0,0h4.6v-0.2c0-0.7-0.2-1.3-0.6-1.8S683,536,682.2,536z"/>
	<path class="st2" d="M699.4,544.7c-0.1-0.3-0.1-0.5-0.1-0.7s-0.1-0.4-0.1-0.6c-0.4,0.5-0.8,0.8-1.3,1.1c-0.5,0.3-1.1,0.4-1.7,0.4
		c-1,0-1.8-0.3-2.4-0.8c-0.5-0.5-0.8-1.2-0.8-2.2c0-1,0.4-1.7,1.2-2.2c0.8-0.5,1.8-0.8,3.2-0.8h1.9v-1.2c0-0.6-0.2-1.1-0.6-1.4
		c-0.4-0.3-0.9-0.5-1.5-0.5c-0.5,0-0.9,0.1-1.2,0.2c-0.3,0.1-0.6,0.3-0.8,0.5l-0.2,1.1h-1.4v-1.9c0.5-0.4,1-0.7,1.7-0.9
		c0.6-0.2,1.4-0.3,2.1-0.3c1.1,0,2.1,0.3,2.8,0.9c0.7,0.6,1.1,1.4,1.1,2.5v4.8c0,0.1,0,0.3,0,0.4s0,0.2,0,0.4l0.7,0.1v1.2H699.4z
		 M696.5,543.4c0.6,0,1.2-0.1,1.7-0.4c0.5-0.3,0.9-0.6,1.1-1v-1.7h-1.9c-0.7,0-1.3,0.2-1.8,0.5c-0.4,0.3-0.7,0.8-0.7,1.3
		c0,0.4,0.1,0.8,0.4,1S695.9,543.4,696.5,543.4z"/>
	<path class="st2" d="M714.8,543.5c-0.3,0.5-0.7,0.8-1.2,1c-0.5,0.2-1,0.4-1.6,0.4c-1.2,0-2.2-0.4-2.9-1.3c-0.7-0.9-1-2.1-1-3.5
		v-0.2c0-1.6,0.3-2.9,1-3.9c0.7-1,1.7-1.5,2.9-1.5c0.6,0,1.1,0.1,1.6,0.3c0.5,0.2,0.8,0.5,1.2,1v-4.1l-1.5-0.3v-1.2h1.5h1.8v13
		l1.5,0.3v1.2H715L714.8,543.5z M709.9,540.1c0,1,0.2,1.8,0.6,2.4c0.4,0.6,1.1,0.9,1.9,0.9c0.5,0,1-0.1,1.4-0.4
		c0.4-0.2,0.7-0.6,0.9-1v-4.7c-0.2-0.4-0.5-0.8-0.9-1c-0.4-0.2-0.8-0.4-1.4-0.4c-0.9,0-1.5,0.4-1.9,1.1s-0.6,1.7-0.6,2.8V540.1z"/>
	<path class="st2" d="M726,544.7c-0.1-0.3-0.1-0.5-0.1-0.7s-0.1-0.4-0.1-0.6c-0.4,0.5-0.8,0.8-1.3,1.1c-0.5,0.3-1.1,0.4-1.7,0.4
		c-1,0-1.8-0.3-2.4-0.8c-0.5-0.5-0.8-1.2-0.8-2.2c0-1,0.4-1.7,1.2-2.2c0.8-0.5,1.8-0.8,3.2-0.8h1.9v-1.2c0-0.6-0.2-1.1-0.6-1.4
		c-0.4-0.3-0.9-0.5-1.5-0.5c-0.5,0-0.9,0.1-1.2,0.2c-0.3,0.1-0.6,0.3-0.8,0.5l-0.2,1.1H720v-1.9c0.5-0.4,1-0.7,1.7-0.9
		c0.6-0.2,1.4-0.3,2.1-0.3c1.1,0,2.1,0.3,2.8,0.9c0.7,0.6,1.1,1.4,1.1,2.5v4.8c0,0.1,0,0.3,0,0.4s0,0.2,0,0.4l0.7,0.1v1.2H726z
		 M723.1,543.4c0.6,0,1.2-0.1,1.7-0.4c0.5-0.3,0.9-0.6,1.1-1v-1.7h-1.9c-0.7,0-1.3,0.2-1.8,0.5c-0.4,0.3-0.7,0.8-0.7,1.3
		c0,0.4,0.1,0.8,0.4,1S722.5,543.4,723.1,543.4z"/>
	<path class="st2" d="M733.1,532.3v2.4h1.9v1.4h-1.9v6.1c0,0.5,0.1,0.8,0.3,1c0.2,0.2,0.5,0.3,0.8,0.3c0.2,0,0.3,0,0.5,0
		s0.4-0.1,0.5-0.1l0.3,1.3c-0.2,0.1-0.4,0.2-0.8,0.3c-0.3,0.1-0.7,0.1-1,0.1c-0.7,0-1.3-0.2-1.8-0.7c-0.4-0.4-0.7-1.2-0.7-2.1v-6.1
		h-1.6v-1.4h1.6v-2.4H733.1z"/>
	<path class="st2" d="M743.4,544.7c-0.1-0.3-0.1-0.5-0.1-0.7s-0.1-0.4-0.1-0.6c-0.4,0.5-0.8,0.8-1.3,1.1c-0.5,0.3-1.1,0.4-1.7,0.4
		c-1,0-1.8-0.3-2.4-0.8c-0.5-0.5-0.8-1.2-0.8-2.2c0-1,0.4-1.7,1.2-2.2c0.8-0.5,1.8-0.8,3.2-0.8h1.9v-1.2c0-0.6-0.2-1.1-0.6-1.4
		c-0.4-0.3-0.9-0.5-1.5-0.5c-0.5,0-0.9,0.1-1.2,0.2c-0.3,0.1-0.6,0.3-0.8,0.5l-0.2,1.1h-1.4v-1.9c0.5-0.4,1-0.7,1.7-0.9
		c0.6-0.2,1.4-0.3,2.1-0.3c1.1,0,2.1,0.3,2.8,0.9c0.7,0.6,1.1,1.4,1.1,2.5v4.8c0,0.1,0,0.3,0,0.4s0,0.2,0,0.4l0.7,0.1v1.2H743.4z
		 M740.5,543.4c0.6,0,1.2-0.1,1.7-0.4c0.5-0.3,0.9-0.6,1.1-1v-1.7h-1.9c-0.7,0-1.3,0.2-1.8,0.5c-0.4,0.3-0.7,0.8-0.7,1.3
		c0,0.4,0.1,0.8,0.4,1S739.9,543.4,740.5,543.4z"/>
	<path class="st2" d="M755,537.9h-1.4l-0.3-1.2c-0.2-0.2-0.5-0.4-0.8-0.5c-0.3-0.1-0.7-0.2-1.1-0.2c-0.6,0-1.1,0.1-1.4,0.4
		c-0.3,0.3-0.5,0.6-0.5,1c0,0.4,0.1,0.7,0.4,0.9c0.3,0.2,0.8,0.4,1.7,0.6c1.3,0.3,2.2,0.6,2.8,1.1c0.6,0.5,0.9,1.1,0.9,1.9
		c0,0.9-0.4,1.6-1.1,2.2c-0.7,0.6-1.7,0.8-2.8,0.8c-0.8,0-1.4-0.1-2.1-0.3c-0.6-0.2-1.1-0.4-1.6-0.8l0-2.3h1.4l0.3,1.3
		c0.2,0.2,0.5,0.3,0.9,0.4c0.4,0.1,0.7,0.1,1.1,0.1c0.7,0,1.2-0.1,1.5-0.4c0.4-0.3,0.6-0.6,0.6-1c0-0.4-0.2-0.7-0.5-1
		s-0.9-0.5-1.7-0.7c-1.2-0.3-2.1-0.6-2.8-1.1c-0.6-0.5-0.9-1.1-0.9-1.9c0-0.8,0.3-1.5,1-2.1s1.6-0.9,2.7-0.9c0.8,0,1.4,0.1,2.1,0.3
		c0.6,0.2,1.1,0.5,1.5,0.8L755,537.9z"/>
	<path class="st2" d="M761.6,544.9c-1.4,0-2.5-0.5-3.3-1.4c-0.8-0.9-1.2-2.1-1.2-3.6v-0.4c0-1.4,0.4-2.6,1.3-3.6
		c0.8-0.9,1.9-1.4,3-1.4c1.3,0,2.4,0.4,3.1,1.2s1,1.9,1,3.3v1.1h-6.5l0,0c0,1,0.3,1.8,0.7,2.4c0.5,0.6,1.1,0.9,2,0.9
		c0.6,0,1.2-0.1,1.6-0.3s0.9-0.4,1.2-0.7l0.7,1.2c-0.4,0.3-0.8,0.6-1.4,0.9C763.2,544.8,762.4,544.9,761.6,544.9z M761.3,536
		c-0.6,0-1.1,0.3-1.6,0.8c-0.4,0.5-0.7,1.2-0.8,1.9l0,0h4.6v-0.2c0-0.7-0.2-1.3-0.6-1.8S762.1,536,761.3,536z"/>
	<path class="st2" d="M770.4,532.3v2.4h1.9v1.4h-1.9v6.1c0,0.5,0.1,0.8,0.3,1c0.2,0.2,0.5,0.3,0.8,0.3c0.2,0,0.3,0,0.5,0
		s0.4-0.1,0.5-0.1l0.3,1.3c-0.2,0.1-0.4,0.2-0.8,0.3c-0.3,0.1-0.7,0.1-1,0.1c-0.7,0-1.3-0.2-1.8-0.7c-0.4-0.4-0.7-1.2-0.7-2.1v-6.1
		H767v-1.4h1.6v-2.4H770.4z"/>
	<path class="st2" d="M638.7,561.6c0-1.5,0.4-2.7,1.2-3.7c0.8-1,1.9-1.4,3.3-1.4c1.4,0,2.5,0.5,3.3,1.4s1.2,2.2,1.2,3.7v0.2
		c0,1.5-0.4,2.7-1.2,3.7c-0.8,1-1.9,1.4-3.3,1.4c-1.4,0-2.5-0.5-3.3-1.4c-0.8-1-1.2-2.2-1.2-3.7V561.6z M640.5,561.8
		c0,1.1,0.2,1.9,0.7,2.6c0.4,0.7,1.1,1,2,1c0.9,0,1.5-0.3,2-1s0.7-1.6,0.7-2.6v-0.2c0-1.1-0.2-1.9-0.7-2.6s-1.1-1-2-1s-1.5,0.3-2,1
		s-0.7,1.6-0.7,2.6V561.8z"/>
	<path class="st2" d="M649.2,558.1v-1.4h1.6v-1.3c0-1.1,0.3-1.9,0.8-2.5c0.6-0.6,1.3-0.9,2.3-0.9c0.2,0,0.4,0,0.6,0.1
		c0.2,0,0.4,0.1,0.7,0.1l-0.2,1.4c-0.1,0-0.2,0-0.4-0.1s-0.3,0-0.5,0c-0.5,0-0.9,0.2-1.2,0.5s-0.4,0.8-0.4,1.4v1.3h2.1v1.4h-2.1v7.3
		l1.5,0.3v1.2h-4.9v-1.2l1.5-0.3v-7.3H649.2z"/>
	<path class="st2" d="M668.5,559.9h-1.4l-0.3-1.2c-0.2-0.2-0.5-0.4-0.8-0.5c-0.3-0.1-0.7-0.2-1.1-0.2c-0.6,0-1.1,0.1-1.4,0.4
		c-0.3,0.3-0.5,0.6-0.5,1c0,0.4,0.1,0.7,0.4,0.9c0.3,0.2,0.8,0.4,1.7,0.6c1.3,0.3,2.2,0.6,2.8,1.1c0.6,0.5,0.9,1.1,0.9,1.9
		c0,0.9-0.4,1.6-1.1,2.2c-0.7,0.6-1.7,0.8-2.8,0.8c-0.8,0-1.4-0.1-2.1-0.3c-0.6-0.2-1.1-0.4-1.6-0.8l0-2.3h1.4l0.3,1.3
		c0.2,0.2,0.5,0.3,0.9,0.4c0.4,0.1,0.7,0.1,1.1,0.1c0.7,0,1.2-0.1,1.5-0.4c0.4-0.3,0.6-0.6,0.6-1c0-0.4-0.2-0.7-0.5-1
		s-0.9-0.5-1.7-0.7c-1.2-0.3-2.1-0.6-2.8-1.1c-0.6-0.5-0.9-1.1-0.9-1.9c0-0.8,0.3-1.5,1-2.1s1.6-0.9,2.7-0.9c0.8,0,1.4,0.1,2.1,0.3
		c0.6,0.2,1.1,0.5,1.5,0.8L668.5,559.9z"/>
	<path class="st2" d="M677.7,565.3c-0.3,0.5-0.7,1-1.2,1.2c-0.5,0.3-1.1,0.4-1.7,0.4c-1.1,0-1.9-0.3-2.6-1c-0.6-0.7-0.9-1.8-0.9-3.3
		v-4.5l-1.2-0.3v-1.2h1.2h1.8v5.9c0,1.1,0.2,1.8,0.5,2.2c0.3,0.4,0.8,0.6,1.5,0.6c0.7,0,1.2-0.1,1.6-0.4c0.4-0.3,0.7-0.6,1-1.1v-5.8
		l-1.3-0.3v-1.2h1.3h1.8v8.6l1.2,0.3v1.2h-2.8L677.7,565.3z"/>
	<path class="st2" d="M691.2,562.1c0,1.4-0.3,2.6-1,3.5c-0.7,0.9-1.7,1.3-2.9,1.3c-0.7,0-1.2-0.1-1.7-0.4c-0.5-0.3-0.9-0.6-1.2-1.1
		l-0.2,1.3h-1.6v-13l-1.5-0.3v-1.2h3.3v5.6c0.3-0.4,0.7-0.8,1.2-1c0.5-0.2,1-0.4,1.6-0.4c1.2,0,2.2,0.5,2.9,1.5c0.7,1,1,2.3,1,3.9
		V562.1z M689.4,561.9c0-1.2-0.2-2.1-0.6-2.8s-1.1-1.1-1.9-1.1c-0.6,0-1,0.1-1.4,0.4c-0.4,0.3-0.7,0.6-0.9,1.1v4.4
		c0.2,0.5,0.5,0.8,0.9,1.1c0.4,0.3,0.9,0.4,1.4,0.4c0.9,0,1.5-0.3,1.9-0.9c0.4-0.6,0.6-1.4,0.6-2.4V561.9z"/>
	<path class="st2" d="M700.8,559.9h-1.4l-0.3-1.2c-0.2-0.2-0.5-0.4-0.8-0.5c-0.3-0.1-0.7-0.2-1.1-0.2c-0.6,0-1.1,0.1-1.4,0.4
		c-0.3,0.3-0.5,0.6-0.5,1c0,0.4,0.1,0.7,0.4,0.9c0.3,0.2,0.8,0.4,1.7,0.6c1.3,0.3,2.2,0.6,2.8,1.1c0.6,0.5,0.9,1.1,0.9,1.9
		c0,0.9-0.4,1.6-1.1,2.2c-0.7,0.6-1.7,0.8-2.8,0.8c-0.8,0-1.4-0.1-2.1-0.3c-0.6-0.2-1.1-0.4-1.6-0.8l0-2.3h1.4l0.3,1.3
		c0.2,0.2,0.5,0.3,0.9,0.4c0.4,0.1,0.7,0.1,1.1,0.1c0.6,0,1.2-0.1,1.5-0.4c0.4-0.3,0.6-0.6,0.6-1c0-0.4-0.2-0.7-0.5-1
		c-0.3-0.3-0.9-0.5-1.7-0.7c-1.2-0.3-2.1-0.6-2.8-1.1c-0.6-0.5-0.9-1.1-0.9-1.9c0-0.8,0.3-1.5,1-2.1c0.7-0.6,1.6-0.9,2.7-0.9
		c0.8,0,1.4,0.1,2.1,0.3c0.6,0.2,1.1,0.5,1.5,0.8L700.8,559.9z"/>
	<path class="st2" d="M707.3,565.5c0.6,0,1.1-0.2,1.6-0.6c0.5-0.4,0.7-0.8,0.7-1.4h1.6l0,0.1c0,0.9-0.4,1.6-1.2,2.3
		c-0.8,0.7-1.7,1-2.8,1c-1.5,0-2.6-0.5-3.3-1.4c-0.8-1-1.2-2.1-1.2-3.6v-0.4c0-1.4,0.4-2.6,1.2-3.6c0.8-1,1.9-1.4,3.3-1.4
		c0.8,0,1.5,0.1,2.2,0.4s1.2,0.6,1.6,1.1l0.1,2.2h-1.5l-0.4-1.6c-0.2-0.2-0.5-0.4-0.8-0.5c-0.3-0.1-0.7-0.2-1.2-0.2
		c-1,0-1.6,0.3-2.1,1c-0.4,0.7-0.6,1.5-0.6,2.5v0.4c0,1,0.2,1.9,0.6,2.6C705.6,565.2,706.3,565.5,707.3,565.5z"/>
	<path class="st2" d="M713,557.9v-1.2h3.1l0.2,1.5c0.3-0.5,0.6-0.9,1.1-1.2s0.9-0.4,1.4-0.4c0.1,0,0.3,0,0.4,0c0.2,0,0.3,0,0.3,0.1
		l-0.2,1.7l-1-0.1c-0.5,0-0.9,0.1-1.2,0.3c-0.3,0.2-0.6,0.5-0.8,1v5.8l1.5,0.3v1.2H713v-1.2l1.5-0.3v-7.2L713,557.9z"/>
	<path class="st2" d="M720.9,565.6l1.5-0.3v-7.2l-1.5-0.3v-1.2h3.3v8.6l1.5,0.3v1.2h-4.9V565.6z M724.2,554.1h-1.8v-1.9h1.8V554.1z"
		/>
	<path class="st2" d="M736.3,562.1c0,1.4-0.3,2.6-1,3.5c-0.7,0.9-1.7,1.3-2.9,1.3c-0.7,0-1.2-0.1-1.7-0.4c-0.5-0.3-0.9-0.6-1.2-1.1
		l-0.2,1.3h-1.6v-13l-1.5-0.3v-1.2h3.3v5.6c0.3-0.4,0.7-0.8,1.2-1c0.5-0.2,1-0.4,1.6-0.4c1.2,0,2.2,0.5,2.9,1.5c0.7,1,1,2.3,1,3.9
		V562.1z M734.4,561.9c0-1.2-0.2-2.1-0.6-2.8s-1.1-1.1-1.9-1.1c-0.6,0-1,0.1-1.4,0.4c-0.4,0.3-0.7,0.6-0.9,1.1v4.4
		c0.2,0.5,0.5,0.8,0.9,1.1c0.4,0.3,0.9,0.4,1.4,0.4c0.9,0,1.5-0.3,1.9-0.9c0.4-0.6,0.6-1.4,0.6-2.4V561.9z"/>
	<path class="st2" d="M742.7,566.9c-1.4,0-2.5-0.5-3.3-1.4c-0.8-0.9-1.2-2.1-1.2-3.6v-0.4c0-1.4,0.4-2.6,1.3-3.6
		c0.9-0.9,1.9-1.4,3-1.4c1.3,0,2.4,0.4,3.1,1.2c0.7,0.8,1,1.9,1,3.3v1.1H740l0,0c0,1,0.3,1.8,0.7,2.4c0.5,0.6,1.1,0.9,2,0.9
		c0.6,0,1.2-0.1,1.6-0.3c0.5-0.2,0.9-0.4,1.2-0.7l0.7,1.2c-0.4,0.3-0.8,0.6-1.4,0.9S743.5,566.9,742.7,566.9z M742.4,558
		c-0.6,0-1.1,0.3-1.6,0.8c-0.4,0.5-0.7,1.2-0.8,1.9l0,0h4.6v-0.2c0-0.7-0.2-1.3-0.6-1.8C743.7,558.2,743.2,558,742.4,558z"/>
	<path class="st2" d="M748.3,557.9v-1.2h3.1l0.2,1.5c0.3-0.5,0.6-0.9,1.1-1.2c0.4-0.3,0.9-0.4,1.4-0.4c0.1,0,0.3,0,0.4,0
		c0.2,0,0.3,0,0.3,0.1l-0.2,1.7l-1-0.1c-0.5,0-0.9,0.1-1.2,0.3c-0.3,0.2-0.6,0.5-0.8,1v5.8l1.5,0.3v1.2h-4.9v-1.2l1.5-0.3v-7.2
		L748.3,557.9z"/>
	<path class="st2" d="M763.9,559.9h-1.4l-0.3-1.2c-0.2-0.2-0.5-0.4-0.8-0.5c-0.3-0.1-0.7-0.2-1.1-0.2c-0.6,0-1.1,0.1-1.4,0.4
		c-0.3,0.3-0.5,0.6-0.5,1c0,0.4,0.1,0.7,0.4,0.9c0.3,0.2,0.8,0.4,1.7,0.6c1.3,0.3,2.2,0.6,2.8,1.1c0.6,0.5,0.9,1.1,0.9,1.9
		c0,0.9-0.4,1.6-1.1,2.2c-0.7,0.6-1.7,0.8-2.8,0.8c-0.8,0-1.4-0.1-2.1-0.3c-0.6-0.2-1.1-0.4-1.6-0.8l0-2.3h1.4l0.3,1.3
		c0.2,0.2,0.5,0.3,0.9,0.4c0.4,0.1,0.7,0.1,1.1,0.1c0.7,0,1.2-0.1,1.5-0.4c0.4-0.3,0.6-0.6,0.6-1c0-0.4-0.2-0.7-0.5-1
		s-0.9-0.5-1.7-0.7c-1.2-0.3-2.1-0.6-2.8-1.1c-0.6-0.5-0.9-1.1-0.9-1.9c0-0.8,0.3-1.5,1-2.1s1.6-0.9,2.7-0.9c0.8,0,1.4,0.1,2.1,0.3
		c0.6,0.2,1.1,0.5,1.5,0.8L763.9,559.9z"/>
</g>
<g>
	<g>
		<rect x="700" y="464.5" class="st1" width="2.9" height="2.4"/>
	</g>
	<g>
		<path class="st1" d="M702.9,491.5H700v-4.1h2.9V491.5z M702.9,483.3H700v-4.1h2.9V483.3z M702.9,475.1H700V471h2.9V475.1z"/>
	</g>
	<g>
		<rect x="700" y="495.6" class="st1" width="2.9" height="2.4"/>
	</g>
	<g>
		<g>
			<path class="st1" d="M701.5,506.7c-1.5-4.1-4.1-9.1-6.8-12.3l6.8,2.5l6.8-2.5C705.5,497.5,703,502.6,701.5,506.7z"/>
		</g>
	</g>
</g>
<g id="rettv_x5F_02_2_">
	<rect x="411.3" y="630.8" class="st0" width="257.9" height="81.9"/>
	<path d="M669.2,713.8h-5.1v-2.1h5.1V713.8z M659,713.8h-5.1v-2.1h5.1V713.8z M648.8,713.8h-5.1v-2.1h5.1V713.8z M638.7,713.8h-5.1
		v-2.1h5.1V713.8z M628.5,713.8h-5.1v-2.1h5.1V713.8z M618.4,713.8h-5.1v-2.1h5.1V713.8z M608.2,713.8h-5.1v-2.1h5.1V713.8z
		 M598,713.8h-5.1v-2.1h5.1V713.8z M587.9,713.8h-5.1v-2.1h5.1V713.8z M577.7,713.8h-5.1v-2.1h5.1V713.8z M567.5,713.8h-5.1v-2.1
		h5.1V713.8z M557.4,713.8h-5.1v-2.1h5.1V713.8z M547.2,713.8h-5.1v-2.1h5.1V713.8z M537.1,713.8H532v-2.1h5.1V713.8z M526.9,713.8
		h-5.1v-2.1h5.1V713.8z M516.7,713.8h-5.1v-2.1h5.1V713.8z M506.6,713.8h-5.1v-2.1h5.1V713.8z M496.4,713.8h-5.1v-2.1h5.1V713.8z
		 M486.2,713.8h-5.1v-2.1h5.1V713.8z M476.1,713.8H471v-2.1h5.1V713.8z M465.9,713.8h-5.1v-2.1h5.1V713.8z M455.8,713.8h-5.1v-2.1
		h5.1V713.8z M445.6,713.8h-5.1v-2.1h5.1V713.8z M435.4,713.8h-5.1v-2.1h5.1V713.8z M425.3,713.8h-5.1v-2.1h5.1V713.8z M415.1,713.8
		h-4.9v-2.3h2.1v0.2h2.8V713.8z M670.2,708.8h-2.1v-5.1h2.1V708.8z M412.3,706.4h-2.1v-5.1h2.1V706.4z M670.2,698.7h-2.1v-5.1h2.1
		V698.7z M412.3,696.2h-2.1v-5.1h2.1V696.2z M670.2,688.5h-2.1v-5.1h2.1V688.5z M412.3,686.1h-2.1V681h2.1V686.1z M670.2,678.3h-2.1
		v-5.1h2.1V678.3z M412.3,675.9h-2.1v-5.1h2.1V675.9z M670.2,668.2h-2.1v-5.1h2.1V668.2z M412.3,665.8h-2.1v-5.1h2.1V665.8z
		 M670.2,658h-2.1v-5.1h2.1V658z M412.3,655.6h-2.1v-5.1h2.1V655.6z M670.2,647.9h-2.1v-5.1h2.1V647.9z M412.3,645.4h-2.1v-5.1h2.1
		V645.4z M670.2,637.7h-2.1v-5.1h2.1V637.7z M412.3,635.3h-2.1v-5.5h1.7v1.1h0.5V635.3z M665.9,631.8h-5.1v-2.1h5.1V631.8z
		 M655.7,631.8h-5.1v-2.1h5.1V631.8z M645.6,631.8h-5.1v-2.1h5.1V631.8z M635.4,631.8h-5.1v-2.1h5.1V631.8z M625.3,631.8h-5.1v-2.1
		h5.1V631.8z M615.1,631.8H610v-2.1h5.1V631.8z M604.9,631.8h-5.1v-2.1h5.1V631.8z M594.8,631.8h-5.1v-2.1h5.1V631.8z M584.6,631.8
		h-5.1v-2.1h5.1V631.8z M574.4,631.8h-5.1v-2.1h5.1V631.8z M564.3,631.8h-5.1v-2.1h5.1V631.8z M554.1,631.8H549v-2.1h5.1V631.8z
		 M544,631.8h-5.1v-2.1h5.1V631.8z M533.8,631.8h-5.1v-2.1h5.1V631.8z M523.6,631.8h-5.1v-2.1h5.1V631.8z M513.5,631.8h-5.1v-2.1
		h5.1V631.8z M503.3,631.8h-5.1v-2.1h5.1V631.8z M493.1,631.8h-5.1v-2.1h5.1V631.8z M483,631.8h-5.1v-2.1h5.1V631.8z M472.8,631.8
		h-5.1v-2.1h5.1V631.8z M462.7,631.8h-5.1v-2.1h5.1V631.8z M452.5,631.8h-5.1v-2.1h5.1V631.8z M442.3,631.8h-5.1v-2.1h5.1V631.8z
		 M432.2,631.8h-5.1v-2.1h5.1V631.8z M422,631.8h-5.1v-2.1h5.1V631.8z"/>
</g>
<g id="text1_x5F_02_3_">
	<path class="st2" d="M481.6,658L481.6,658l-4.4,10.8h-1.2l-4.4-10.8l0,0l0.2,5.5v3.9l1.5,0.3v1.2h-4.9v-1.2l1.5-0.3v-10.6l-1.5-0.3
		v-1.2h1.5h2.3l4.3,11h0.1l4.3-11h3.9v1.2l-1.5,0.3v10.6l1.5,0.3v1.2h-4.9v-1.2l1.5-0.3v-3.9L481.6,658z"/>
	<path class="st2" d="M492.8,668.8c-0.1-0.3-0.1-0.5-0.1-0.7c0-0.2-0.1-0.4-0.1-0.6c-0.4,0.5-0.8,0.8-1.3,1.1
		c-0.5,0.3-1.1,0.5-1.7,0.5c-1,0-1.8-0.3-2.4-0.8c-0.5-0.5-0.8-1.2-0.8-2.2c0-1,0.4-1.7,1.2-2.2c0.8-0.5,1.8-0.8,3.2-0.8h1.9V662
		c0-0.6-0.2-1.1-0.6-1.4s-0.9-0.5-1.5-0.5c-0.5,0-0.9,0.1-1.2,0.2s-0.6,0.3-0.8,0.5l-0.2,1.1h-1.4v-1.9c0.5-0.4,1-0.7,1.7-0.9
		c0.6-0.2,1.4-0.3,2.1-0.3c1.1,0,2.1,0.3,2.8,0.9c0.7,0.6,1.1,1.4,1.1,2.5v4.8c0,0.1,0,0.3,0,0.4c0,0.1,0,0.2,0,0.4l0.7,0.1v1.2
		H492.8z M489.8,667.5c0.6,0,1.2-0.1,1.7-0.4c0.5-0.3,0.9-0.6,1.1-1v-1.7h-1.9c-0.7,0-1.3,0.2-1.8,0.5c-0.4,0.3-0.7,0.8-0.7,1.3
		c0,0.4,0.1,0.8,0.4,1C488.9,667.4,489.3,667.5,489.8,667.5z"/>
	<path class="st2" d="M496.4,671.5l1.5-0.3v-11l-1.5-0.3v-1.2h3.1l0.2,1.2c0.3-0.5,0.7-0.8,1.2-1c0.5-0.2,1-0.4,1.7-0.4
		c1.2,0,2.2,0.5,2.9,1.5c0.7,1,1,2.3,1,3.9v0.2c0,1.4-0.3,2.6-1,3.5c-0.7,0.9-1.6,1.3-2.9,1.3c-0.6,0-1.2-0.1-1.6-0.3
		c-0.5-0.2-0.9-0.5-1.2-0.9v3.5l1.5,0.3v1.2h-4.9V671.5z M504.7,664c0-1.1-0.2-2.1-0.7-2.8c-0.4-0.7-1.1-1.1-2-1.1
		c-0.5,0-1,0.1-1.3,0.4c-0.4,0.2-0.7,0.6-0.9,1v4.9c0.2,0.4,0.5,0.7,0.9,1c0.4,0.2,0.8,0.3,1.4,0.3c0.9,0,1.5-0.3,2-0.9
		s0.7-1.5,0.7-2.5V664z"/>
	<path class="st2" d="M516.1,656.4v2.4h1.9v1.4h-1.9v6.1c0,0.5,0.1,0.8,0.3,1c0.2,0.2,0.5,0.3,0.8,0.3c0.2,0,0.3,0,0.5,0
		c0.2,0,0.4-0.1,0.5-0.1l0.3,1.3c-0.2,0.1-0.4,0.2-0.8,0.3c-0.3,0.1-0.7,0.1-1,0.1c-0.7,0-1.3-0.2-1.8-0.7c-0.4-0.4-0.7-1.2-0.7-2.1
		v-6.1h-1.6v-1.4h1.6v-2.4H516.1z"/>
	<path class="st2" d="M519.6,667.7l1.5-0.3v-11.6l-1.5-0.3v-1.2h3.3v5.8c0.3-0.5,0.8-0.9,1.3-1.1c0.5-0.3,1.1-0.4,1.7-0.4
		c1.1,0,1.9,0.3,2.5,1c0.6,0.6,0.9,1.6,0.9,3v4.9l1.5,0.3v1.2h-4.9v-1.2l1.5-0.3v-4.9c0-0.8-0.2-1.4-0.5-1.8
		c-0.4-0.4-0.9-0.6-1.6-0.6c-0.5,0-1,0.1-1.4,0.4s-0.8,0.6-1,1v6l1.5,0.3v1.2h-4.9V667.7z"/>
	<path class="st2" d="M536.6,669c-1.4,0-2.5-0.5-3.3-1.4c-0.8-0.9-1.2-2.1-1.2-3.6v-0.4c0-1.4,0.4-2.6,1.3-3.6
		c0.9-0.9,1.9-1.4,3-1.4c1.3,0,2.4,0.4,3.1,1.2c0.7,0.8,1,1.9,1,3.3v1.1h-6.5l0,0c0,1,0.3,1.8,0.7,2.4c0.5,0.6,1.1,0.9,2,0.9
		c0.6,0,1.2-0.1,1.6-0.3c0.5-0.2,0.9-0.4,1.2-0.7l0.7,1.2c-0.4,0.3-0.8,0.6-1.4,0.9C538.1,668.9,537.4,669,536.6,669z M536.3,660.1
		c-0.6,0-1.1,0.3-1.6,0.8c-0.4,0.5-0.7,1.2-0.8,1.9l0,0h4.6v-0.2c0-0.7-0.2-1.3-0.6-1.8C537.7,660.3,537.1,660.1,536.3,660.1z"/>
	<path class="st2" d="M554.6,662h-1.4l-0.3-1.2c-0.2-0.2-0.5-0.4-0.8-0.5c-0.3-0.1-0.7-0.2-1.1-0.2c-0.6,0-1.1,0.1-1.4,0.4
		c-0.3,0.3-0.5,0.6-0.5,1c0,0.4,0.1,0.7,0.4,0.9c0.3,0.2,0.8,0.4,1.7,0.6c1.3,0.3,2.2,0.6,2.8,1.1c0.6,0.5,0.9,1.1,0.9,1.9
		c0,0.9-0.4,1.6-1.1,2.2c-0.7,0.6-1.7,0.8-2.8,0.8c-0.8,0-1.4-0.1-2.1-0.3c-0.6-0.2-1.1-0.4-1.6-0.8l0-2.3h1.4l0.3,1.3
		c0.2,0.2,0.5,0.3,0.9,0.4c0.4,0.1,0.7,0.1,1.1,0.1c0.6,0,1.2-0.1,1.5-0.4c0.4-0.3,0.6-0.6,0.6-1c0-0.4-0.2-0.7-0.5-1
		c-0.3-0.3-0.9-0.5-1.7-0.7c-1.2-0.3-2.1-0.6-2.8-1.1c-0.6-0.5-0.9-1.1-0.9-1.9c0-0.8,0.3-1.5,1-2.1c0.7-0.6,1.6-0.9,2.7-0.9
		c0.8,0,1.4,0.1,2.1,0.3c0.6,0.2,1.1,0.5,1.5,0.8L554.6,662z"/>
	<path class="st2" d="M556.7,667.7l1.5-0.3v-7.2l-1.5-0.3v-1.2h3.3v8.6l1.5,0.3v1.2h-4.9V667.7z M560,656.2h-1.8v-1.9h1.8V656.2z"/>
	<path class="st2" d="M562.9,664c0-1.6,0.4-2.9,1.1-3.9c0.7-1,1.7-1.5,2.9-1.5c0.6,0,1.2,0.1,1.7,0.4c0.5,0.2,0.9,0.6,1.2,1.1
		l0.2-1.3h1.5v9.9c0,1.3-0.4,2.3-1.1,3.1c-0.7,0.7-1.8,1.1-3.1,1.1c-0.5,0-1-0.1-1.6-0.2c-0.6-0.1-1.1-0.3-1.5-0.5l0.5-1.4
		c0.3,0.2,0.7,0.3,1.2,0.4c0.5,0.1,0.9,0.2,1.4,0.2c0.8,0,1.4-0.2,1.8-0.7c0.4-0.5,0.6-1.1,0.6-2v-1c-0.3,0.4-0.7,0.7-1.2,1
		c-0.5,0.2-1,0.3-1.6,0.3c-1.2,0-2.2-0.4-2.9-1.3s-1.1-2.1-1.1-3.5V664z M564.7,664.2c0,1,0.2,1.8,0.6,2.4c0.4,0.6,1.1,0.9,1.9,0.9
		c0.6,0,1-0.1,1.4-0.4s0.7-0.6,0.9-1.1v-4.6c-0.2-0.4-0.5-0.8-0.9-1c-0.4-0.3-0.8-0.4-1.4-0.4c-0.9,0-1.5,0.4-2,1.1
		c-0.4,0.7-0.7,1.7-0.7,2.8V664.2z"/>
	<path class="st2" d="M573.4,667.7l1.5-0.3v-7.2l-1.5-0.3v-1.2h3.1l0.1,1.5c0.3-0.5,0.8-0.9,1.3-1.2c0.5-0.3,1.1-0.4,1.7-0.4
		c1.1,0,1.9,0.3,2.5,1c0.6,0.6,0.9,1.6,0.9,2.9v4.9l1.5,0.3v1.2h-4.9v-1.2l1.5-0.3v-4.9c0-0.9-0.2-1.5-0.5-1.9s-0.9-0.6-1.6-0.6
		c-0.5,0-1,0.1-1.4,0.4c-0.4,0.3-0.7,0.6-1,1v5.9l1.5,0.3v1.2h-4.9V667.7z"/>
	<path class="st2" d="M590.4,669c-1.4,0-2.5-0.5-3.3-1.4c-0.8-0.9-1.2-2.1-1.2-3.6v-0.4c0-1.4,0.4-2.6,1.3-3.6
		c0.9-0.9,1.9-1.4,3-1.4c1.3,0,2.4,0.4,3.1,1.2c0.7,0.8,1,1.9,1,3.3v1.1h-6.5l0,0c0,1,0.3,1.8,0.7,2.4c0.5,0.6,1.1,0.9,2,0.9
		c0.6,0,1.2-0.1,1.6-0.3c0.5-0.2,0.9-0.4,1.2-0.7l0.7,1.2c-0.4,0.3-0.8,0.6-1.4,0.9C591.9,668.9,591.2,669,590.4,669z M590.1,660.1
		c-0.6,0-1.1,0.3-1.6,0.8c-0.4,0.5-0.7,1.2-0.8,1.9l0,0h4.6v-0.2c0-0.7-0.2-1.3-0.6-1.8C591.4,660.3,590.8,660.1,590.1,660.1z"/>
	<path class="st2" d="M596,660v-1.2h3.1l0.2,1.5c0.3-0.5,0.6-0.9,1.1-1.2c0.4-0.3,0.9-0.4,1.4-0.4c0.1,0,0.3,0,0.4,0
		c0.2,0,0.3,0,0.3,0.1l-0.2,1.7l-1-0.1c-0.5,0-0.9,0.1-1.2,0.3c-0.3,0.2-0.6,0.5-0.8,1v5.8l1.5,0.3v1.2H596v-1.2l1.5-0.3v-7.2
		L596,660z"/>
	<path class="st2" d="M611.5,662h-1.4l-0.3-1.2c-0.2-0.2-0.5-0.4-0.8-0.5c-0.3-0.1-0.7-0.2-1.1-0.2c-0.6,0-1.1,0.1-1.4,0.4
		c-0.3,0.3-0.5,0.6-0.5,1c0,0.4,0.1,0.7,0.4,0.9c0.3,0.2,0.8,0.4,1.7,0.6c1.3,0.3,2.2,0.6,2.8,1.1c0.6,0.5,0.9,1.1,0.9,1.9
		c0,0.9-0.4,1.6-1.1,2.2c-0.7,0.6-1.7,0.8-2.8,0.8c-0.8,0-1.4-0.1-2.1-0.3c-0.6-0.2-1.1-0.4-1.6-0.8l0-2.3h1.4l0.3,1.3
		c0.2,0.2,0.5,0.3,0.9,0.4c0.4,0.1,0.7,0.1,1.1,0.1c0.6,0,1.2-0.1,1.5-0.4c0.4-0.3,0.6-0.6,0.6-1c0-0.4-0.2-0.7-0.5-1
		c-0.3-0.3-0.9-0.5-1.7-0.7c-1.2-0.3-2.1-0.6-2.8-1.1c-0.6-0.5-0.9-1.1-0.9-1.9c0-0.8,0.3-1.5,1-2.1c0.7-0.6,1.6-0.9,2.7-0.9
		c0.8,0,1.4,0.1,2.1,0.3c0.6,0.2,1.1,0.5,1.5,0.8L611.5,662z"/>
	<path class="st2" d="M497.5,682l-1.2,0.2l1.3,5l0.2,1.2h0.1l0.3-1.2l2-6.4h1.5l2,6.4l0.3,1.4h0.1l0.3-1.4l1.2-5l-1.2-0.2v-1.2h3.8
		v1.2l-0.9,0.1l-2.5,8.7h-1.5l-1.9-6.1l-0.4-1.7l-0.1,0l-0.4,1.7l-1.9,6.1h-1.5l-2.5-8.7l-0.9-0.1v-1.2h3.8V682z"/>
	<path class="st2" d="M509.6,689.7l1.5-0.3v-7.2l-1.5-0.3v-1.2h3.3v8.6l1.5,0.3v1.2h-4.9V689.7z M513,678.2h-1.8v-1.9h1.8V678.2z"/>
	<path class="st2" d="M519.1,678.4v2.4h1.9v1.4h-1.9v6.1c0,0.5,0.1,0.8,0.3,1c0.2,0.2,0.5,0.3,0.8,0.3c0.2,0,0.3,0,0.5,0
		c0.2,0,0.4-0.1,0.5-0.1l0.3,1.3c-0.2,0.1-0.4,0.2-0.8,0.3c-0.3,0.1-0.7,0.1-1,0.1c-0.7,0-1.3-0.2-1.8-0.7c-0.4-0.4-0.7-1.2-0.7-2.1
		v-6.1h-1.6v-1.4h1.6v-2.4H519.1z"/>
	<path class="st2" d="M522.6,689.7l1.5-0.3v-11.6l-1.5-0.3v-1.2h3.3v5.8c0.3-0.5,0.8-0.9,1.3-1.1c0.5-0.3,1.1-0.4,1.7-0.4
		c1.1,0,1.9,0.3,2.5,1c0.6,0.6,0.9,1.6,0.9,3v4.9l1.5,0.3v1.2h-4.9v-1.2l1.5-0.3v-4.9c0-0.8-0.2-1.4-0.5-1.8
		c-0.4-0.4-0.9-0.6-1.6-0.6c-0.5,0-1,0.1-1.4,0.4s-0.8,0.6-1,1v6l1.5,0.3v1.2h-4.9V689.7z"/>
	<path class="st2" d="M550.1,681.5h-1.3l-0.3-1.9c-0.3-0.3-0.7-0.5-1.1-0.7s-0.9-0.3-1.5-0.3c-1.4,0-2.5,0.5-3.2,1.5
		c-0.8,1-1.1,2.3-1.1,3.9v0.2c0,1.6,0.4,2.9,1.1,3.9s1.8,1.5,3.1,1.5c0.6,0,1.2-0.1,1.7-0.3c0.5-0.2,0.9-0.4,1.2-0.7l0.3-1.9h1.3
		v2.4c-0.4,0.5-1,0.9-1.8,1.3s-1.7,0.6-2.7,0.6c-1.8,0-3.2-0.6-4.3-1.9c-1.1-1.3-1.7-2.9-1.7-4.9V684c0-2,0.6-3.6,1.7-4.9
		c1.1-1.3,2.6-1.9,4.4-1.9c1,0,1.9,0.2,2.7,0.6c0.8,0.4,1.4,0.8,1.8,1.3V681.5z"/>
	<path class="st2" d="M558.6,690.8c-0.1-0.3-0.1-0.5-0.1-0.7c0-0.2-0.1-0.4-0.1-0.6c-0.4,0.5-0.8,0.8-1.3,1.1
		c-0.5,0.3-1.1,0.5-1.7,0.5c-1,0-1.8-0.3-2.4-0.8c-0.5-0.5-0.8-1.2-0.8-2.2c0-1,0.4-1.7,1.2-2.2c0.8-0.5,1.8-0.8,3.2-0.8h1.9V684
		c0-0.6-0.2-1.1-0.6-1.4s-0.9-0.5-1.5-0.5c-0.5,0-0.9,0.1-1.2,0.2s-0.6,0.3-0.8,0.5l-0.2,1.1h-1.4v-1.9c0.5-0.4,1-0.7,1.7-0.9
		c0.6-0.2,1.4-0.3,2.1-0.3c1.1,0,2.1,0.3,2.8,0.9c0.7,0.6,1.1,1.4,1.1,2.5v4.8c0,0.1,0,0.3,0,0.4c0,0.1,0,0.2,0,0.4l0.7,0.1v1.2
		H558.6z M555.7,689.5c0.6,0,1.2-0.1,1.7-0.4c0.5-0.3,0.9-0.6,1.1-1v-1.7h-1.9c-0.7,0-1.3,0.2-1.8,0.5c-0.4,0.3-0.7,0.8-0.7,1.3
		c0,0.4,0.1,0.8,0.4,1C554.7,689.4,555.1,689.5,555.7,689.5z"/>
	<path class="st2" d="M562.6,682v-1.2h3.1l0.2,1.5c0.3-0.5,0.6-0.9,1.1-1.2c0.4-0.3,0.9-0.4,1.4-0.4c0.1,0,0.3,0,0.4,0
		c0.2,0,0.3,0,0.3,0.1l-0.2,1.7l-1-0.1c-0.5,0-0.9,0.1-1.2,0.3c-0.3,0.2-0.6,0.5-0.8,1v5.8l1.5,0.3v1.2h-4.9v-1.2l1.5-0.3v-7.2
		L562.6,682z"/>
	<path class="st2" d="M573.9,678.4v2.4h1.9v1.4h-1.9v6.1c0,0.5,0.1,0.8,0.3,1c0.2,0.2,0.5,0.3,0.8,0.3c0.2,0,0.3,0,0.5,0
		c0.2,0,0.4-0.1,0.5-0.1l0.3,1.3c-0.2,0.1-0.4,0.2-0.8,0.3c-0.3,0.1-0.7,0.1-1,0.1c-0.7,0-1.3-0.2-1.8-0.7c-0.4-0.4-0.7-1.2-0.7-2.1
		v-6.1h-1.6v-1.4h1.6v-2.4H573.9z"/>
	<path class="st2" d="M577.5,685.7c0-1.5,0.4-2.7,1.2-3.7c0.8-1,1.9-1.4,3.3-1.4c1.4,0,2.5,0.5,3.3,1.4c0.8,1,1.2,2.2,1.2,3.7v0.2
		c0,1.5-0.4,2.7-1.2,3.7c-0.8,1-1.9,1.4-3.3,1.4c-1.4,0-2.5-0.5-3.3-1.4c-0.8-1-1.2-2.2-1.2-3.7V685.7z M579.3,685.9
		c0,1.1,0.2,1.9,0.7,2.6c0.4,0.7,1.1,1,2,1c0.9,0,1.5-0.3,2-1c0.5-0.7,0.7-1.6,0.7-2.6v-0.2c0-1.1-0.2-1.9-0.7-2.6
		c-0.5-0.7-1.1-1-2-1c-0.9,0-1.5,0.3-2,1c-0.4,0.7-0.7,1.6-0.7,2.6V685.9z"/>
</g>
<g id="rettv_x5F_02_7_">
	<rect x="733.7" y="630.8" class="st0" width="257.9" height="81.9"/>
	<path d="M991.7,713.8h-5.1v-2.1h5.1V713.8z M981.5,713.8h-5.1v-2.1h5.1V713.8z M971.3,713.8h-5.1v-2.1h5.1V713.8z M961.2,713.8
		h-5.1v-2.1h5.1V713.8z M951,713.8h-5.1v-2.1h5.1V713.8z M940.8,713.8h-5.1v-2.1h5.1V713.8z M930.7,713.8h-5.1v-2.1h5.1V713.8z
		 M920.5,713.8h-5.1v-2.1h5.1V713.8z M910.4,713.8h-5.1v-2.1h5.1V713.8z M900.2,713.8h-5.1v-2.1h5.1V713.8z M890,713.8h-5.1v-2.1
		h5.1V713.8z M879.9,713.8h-5.1v-2.1h5.1V713.8z M869.7,713.8h-5.1v-2.1h5.1V713.8z M859.5,713.8h-5.1v-2.1h5.1V713.8z M849.4,713.8
		h-5.1v-2.1h5.1V713.8z M839.2,713.8h-5.1v-2.1h5.1V713.8z M829.1,713.8H824v-2.1h5.1V713.8z M818.9,713.8h-5.1v-2.1h5.1V713.8z
		 M808.7,713.8h-5.1v-2.1h5.1V713.8z M798.6,713.8h-5.1v-2.1h5.1V713.8z M788.4,713.8h-5.1v-2.1h5.1V713.8z M778.2,713.8h-5.1v-2.1
		h5.1V713.8z M768.1,713.8H763v-2.1h5.1V713.8z M757.9,713.8h-5.1v-2.1h5.1V713.8z M747.8,713.8h-5.1v-2.1h5.1V713.8z M737.6,713.8
		h-4.9v-2.3h2.1v0.2h2.8V713.8z M992.7,708.8h-2.1v-5.1h2.1V708.8z M734.8,706.4h-2.1v-5.1h2.1V706.4z M992.7,698.7h-2.1v-5.1h2.1
		V698.7z M734.8,696.2h-2.1v-5.1h2.1V696.2z M992.7,688.5h-2.1v-5.1h2.1V688.5z M734.8,686.1h-2.1V681h2.1V686.1z M992.7,678.3h-2.1
		v-5.1h2.1V678.3z M734.8,675.9h-2.1v-5.1h2.1V675.9z M992.7,668.2h-2.1v-5.1h2.1V668.2z M734.8,665.8h-2.1v-5.1h2.1V665.8z
		 M992.7,658h-2.1v-5.1h2.1V658z M734.8,655.6h-2.1v-5.1h2.1V655.6z M992.7,647.9h-2.1v-5.1h2.1V647.9z M734.8,645.4h-2.1v-5.1h2.1
		V645.4z M992.7,637.7h-2.1v-5.1h2.1V637.7z M734.8,635.3h-2.1v-5.5h1.7v1.1h0.5V635.3z M988.4,631.8h-5.1v-2.1h5.1V631.8z
		 M978.2,631.8h-5.1v-2.1h5.1V631.8z M968.1,631.8H963v-2.1h5.1V631.8z M957.9,631.8h-5.1v-2.1h5.1V631.8z M947.7,631.8h-5.1v-2.1
		h5.1V631.8z M937.6,631.8h-5.1v-2.1h5.1V631.8z M927.4,631.8h-5.1v-2.1h5.1V631.8z M917.3,631.8h-5.1v-2.1h5.1V631.8z M907.1,631.8
		H902v-2.1h5.1V631.8z M896.9,631.8h-5.1v-2.1h5.1V631.8z M886.8,631.8h-5.1v-2.1h5.1V631.8z M876.6,631.8h-5.1v-2.1h5.1V631.8z
		 M866.4,631.8h-5.1v-2.1h5.1V631.8z M856.3,631.8h-5.1v-2.1h5.1V631.8z M846.1,631.8H841v-2.1h5.1V631.8z M836,631.8h-5.1v-2.1h5.1
		V631.8z M825.8,631.8h-5.1v-2.1h5.1V631.8z M815.6,631.8h-5.1v-2.1h5.1V631.8z M805.5,631.8h-5.1v-2.1h5.1V631.8z M795.3,631.8
		h-5.1v-2.1h5.1V631.8z M785.1,631.8h-5.1v-2.1h5.1V631.8z M775,631.8h-5.1v-2.1h5.1V631.8z M764.8,631.8h-5.1v-2.1h5.1V631.8z
		 M754.7,631.8h-5.1v-2.1h5.1V631.8z M744.5,631.8h-5.1v-2.1h5.1V631.8z"/>
</g>
<g id="text1_x5F_02_8_">
	<path class="st2" d="M805.9,659.5h-1.3l-0.3-1.9c-0.3-0.3-0.7-0.5-1.1-0.7s-0.9-0.3-1.5-0.3c-1.4,0-2.5,0.5-3.2,1.5
		c-0.8,1-1.1,2.3-1.1,3.9v0.2c0,1.6,0.4,2.9,1.1,3.9s1.8,1.5,3.1,1.5c0.6,0,1.2-0.1,1.7-0.3c0.5-0.2,0.9-0.4,1.2-0.7l0.3-1.9h1.3
		v2.4c-0.4,0.5-1,0.9-1.8,1.3s-1.7,0.6-2.7,0.6c-1.8,0-3.2-0.6-4.3-1.9c-1.1-1.3-1.7-2.9-1.7-4.9V662c0-2,0.6-3.6,1.7-4.9
		c1.1-1.3,2.6-1.9,4.4-1.9c1,0,1.9,0.2,2.7,0.6c0.8,0.4,1.4,0.8,1.8,1.3V659.5z"/>
	<path class="st2" d="M807.6,655.6v-1.2h3.3v13l1.5,0.3v1.2h-4.9v-1.2l1.5-0.3v-11.6L807.6,655.6z"/>
	<path class="st2" d="M821,667.4c-0.3,0.5-0.7,1-1.2,1.2c-0.5,0.3-1.1,0.4-1.7,0.4c-1.1,0-1.9-0.3-2.6-1c-0.6-0.7-0.9-1.8-0.9-3.3
		v-4.5l-1.2-0.3v-1.2h1.2h1.8v5.9c0,1.1,0.2,1.8,0.5,2.2s0.8,0.6,1.5,0.6c0.7,0,1.2-0.1,1.6-0.4c0.4-0.3,0.7-0.6,1-1.1v-5.8
		l-1.3-0.3v-1.2h1.3h1.8v8.6l1.2,0.3v1.2h-2.8L821,667.4z"/>
	<path class="st2" d="M833.1,662h-1.4l-0.3-1.2c-0.2-0.2-0.5-0.4-0.8-0.5c-0.3-0.1-0.7-0.2-1.1-0.2c-0.6,0-1.1,0.1-1.4,0.4
		c-0.3,0.3-0.5,0.6-0.5,1c0,0.4,0.1,0.7,0.4,0.9c0.3,0.2,0.8,0.4,1.7,0.6c1.3,0.3,2.2,0.6,2.8,1.1c0.6,0.5,0.9,1.1,0.9,1.9
		c0,0.9-0.4,1.6-1.1,2.2c-0.7,0.6-1.7,0.8-2.8,0.8c-0.8,0-1.4-0.1-2.1-0.3c-0.6-0.2-1.1-0.4-1.6-0.8l0-2.3h1.4l0.3,1.3
		c0.2,0.2,0.5,0.3,0.9,0.4c0.4,0.1,0.7,0.1,1.1,0.1c0.6,0,1.2-0.1,1.5-0.4c0.4-0.3,0.6-0.6,0.6-1c0-0.4-0.2-0.7-0.5-1
		c-0.3-0.3-0.9-0.5-1.7-0.7c-1.2-0.3-2.1-0.6-2.8-1.1c-0.6-0.5-0.9-1.1-0.9-1.9c0-0.8,0.3-1.5,1-2.1c0.7-0.6,1.6-0.9,2.7-0.9
		c0.8,0,1.4,0.1,2.1,0.3c0.6,0.2,1.1,0.5,1.5,0.8L833.1,662z"/>
	<path class="st2" d="M838.3,656.4v2.4h1.9v1.4h-1.9v6.1c0,0.5,0.1,0.8,0.3,1c0.2,0.2,0.5,0.3,0.8,0.3c0.2,0,0.3,0,0.5,0
		c0.2,0,0.4-0.1,0.5-0.1l0.3,1.3c-0.2,0.1-0.4,0.2-0.8,0.3c-0.3,0.1-0.7,0.1-1,0.1c-0.7,0-1.3-0.2-1.8-0.7c-0.4-0.4-0.7-1.2-0.7-2.1
		v-6.1h-1.6v-1.4h1.6v-2.4H838.3z"/>
	<path class="st2" d="M846.6,669c-1.4,0-2.5-0.5-3.3-1.4c-0.8-0.9-1.2-2.1-1.2-3.6v-0.4c0-1.4,0.4-2.6,1.3-3.6
		c0.9-0.9,1.9-1.4,3-1.4c1.3,0,2.4,0.4,3.1,1.2c0.7,0.8,1,1.9,1,3.3v1.1h-6.5l0,0c0,1,0.3,1.8,0.7,2.4c0.5,0.6,1.1,0.9,2,0.9
		c0.6,0,1.2-0.1,1.6-0.3c0.5-0.2,0.9-0.4,1.2-0.7l0.7,1.2c-0.4,0.3-0.8,0.6-1.4,0.9C848.2,668.9,847.5,669,846.6,669z M846.4,660.1
		c-0.6,0-1.1,0.3-1.6,0.8c-0.4,0.5-0.7,1.2-0.8,1.9l0,0h4.6v-0.2c0-0.7-0.2-1.3-0.6-1.8C847.7,660.3,847.1,660.1,846.4,660.1z"/>
	<path class="st2" d="M852.3,660v-1.2h3.1l0.2,1.5c0.3-0.5,0.6-0.9,1.1-1.2c0.4-0.3,0.9-0.4,1.4-0.4c0.1,0,0.3,0,0.4,0
		c0.2,0,0.3,0,0.3,0.1l-0.2,1.7l-1-0.1c-0.5,0-0.9,0.1-1.2,0.3c-0.3,0.2-0.6,0.5-0.8,1v5.8l1.5,0.3v1.2h-4.9v-1.2l1.5-0.3v-7.2
		L852.3,660z"/>
	<path class="st2" d="M872.5,662h-1.4l-0.3-1.2c-0.2-0.2-0.5-0.4-0.8-0.5c-0.3-0.1-0.7-0.2-1.1-0.2c-0.6,0-1.1,0.1-1.4,0.4
		c-0.3,0.3-0.5,0.6-0.5,1c0,0.4,0.1,0.7,0.4,0.9c0.3,0.2,0.8,0.4,1.7,0.6c1.3,0.3,2.2,0.6,2.8,1.1c0.6,0.5,0.9,1.1,0.9,1.9
		c0,0.9-0.4,1.6-1.1,2.2c-0.7,0.6-1.7,0.8-2.8,0.8c-0.8,0-1.4-0.1-2.1-0.3c-0.6-0.2-1.1-0.4-1.6-0.8l0-2.3h1.4l0.3,1.3
		c0.2,0.2,0.5,0.3,0.9,0.4c0.4,0.1,0.7,0.1,1.1,0.1c0.6,0,1.2-0.1,1.5-0.4c0.4-0.3,0.6-0.6,0.6-1c0-0.4-0.2-0.7-0.5-1
		c-0.3-0.3-0.9-0.5-1.7-0.7c-1.2-0.3-2.1-0.6-2.8-1.1c-0.6-0.5-0.9-1.1-0.9-1.9c0-0.8,0.3-1.5,1-2.1c0.7-0.6,1.6-0.9,2.7-0.9
		c0.8,0,1.4,0.1,2.1,0.3c0.6,0.2,1.1,0.5,1.5,0.8L872.5,662z"/>
	<path class="st2" d="M874.5,667.7l1.5-0.3v-7.2l-1.5-0.3v-1.2h3.3v8.6l1.5,0.3v1.2h-4.9V667.7z M877.9,656.2H876v-1.9h1.8V656.2z"
		/>
	<path class="st2" d="M880.8,664c0-1.6,0.4-2.9,1.1-3.9c0.7-1,1.7-1.5,2.9-1.5c0.6,0,1.2,0.1,1.7,0.4c0.5,0.2,0.9,0.6,1.2,1.1
		l0.2-1.3h1.5v9.9c0,1.3-0.4,2.3-1.1,3.1c-0.7,0.7-1.8,1.1-3.1,1.1c-0.5,0-1-0.1-1.6-0.2c-0.6-0.1-1.1-0.3-1.5-0.5l0.5-1.4
		c0.3,0.2,0.7,0.3,1.2,0.4c0.5,0.1,0.9,0.2,1.4,0.2c0.8,0,1.4-0.2,1.8-0.7c0.4-0.5,0.6-1.1,0.6-2v-1c-0.3,0.4-0.7,0.7-1.2,1
		c-0.5,0.2-1,0.3-1.6,0.3c-1.2,0-2.2-0.4-2.9-1.3s-1.1-2.1-1.1-3.5V664z M882.6,664.2c0,1,0.2,1.8,0.6,2.4c0.4,0.6,1.1,0.9,1.9,0.9
		c0.6,0,1-0.1,1.4-0.4s0.7-0.6,0.9-1.1v-4.6c-0.2-0.4-0.5-0.8-0.9-1c-0.4-0.3-0.8-0.4-1.4-0.4c-0.9,0-1.5,0.4-2,1.1
		c-0.4,0.7-0.7,1.7-0.7,2.8V664.2z"/>
	<path class="st2" d="M891.3,667.7l1.5-0.3v-7.2l-1.5-0.3v-1.2h3.1l0.1,1.5c0.3-0.5,0.8-0.9,1.3-1.2c0.5-0.3,1.1-0.4,1.7-0.4
		c1.1,0,1.9,0.3,2.5,1c0.6,0.6,0.9,1.6,0.9,2.9v4.9l1.5,0.3v1.2h-4.9v-1.2l1.5-0.3v-4.9c0-0.9-0.2-1.5-0.5-1.9s-0.9-0.6-1.6-0.6
		c-0.5,0-1,0.1-1.4,0.4c-0.4,0.3-0.7,0.6-1,1v5.9l1.5,0.3v1.2h-4.9V667.7z"/>
	<path class="st2" d="M908.2,669c-1.4,0-2.5-0.5-3.3-1.4c-0.8-0.9-1.2-2.1-1.2-3.6v-0.4c0-1.4,0.4-2.6,1.3-3.6
		c0.9-0.9,1.9-1.4,3-1.4c1.3,0,2.4,0.4,3.1,1.2c0.7,0.8,1,1.9,1,3.3v1.1h-6.5l0,0c0,1,0.3,1.8,0.7,2.4c0.5,0.6,1.1,0.9,2,0.9
		c0.6,0,1.2-0.1,1.6-0.3c0.5-0.2,0.9-0.4,1.2-0.7l0.7,1.2c-0.4,0.3-0.8,0.6-1.4,0.9C909.8,668.9,909.1,669,908.2,669z M908,660.1
		c-0.6,0-1.1,0.3-1.6,0.8c-0.4,0.5-0.7,1.2-0.8,1.9l0,0h4.6v-0.2c0-0.7-0.2-1.3-0.6-1.8C909.3,660.3,908.7,660.1,908,660.1z"/>
	<path class="st2" d="M913.9,660v-1.2h3.1l0.2,1.5c0.3-0.5,0.6-0.9,1.1-1.2c0.4-0.3,0.9-0.4,1.4-0.4c0.1,0,0.3,0,0.4,0
		c0.2,0,0.3,0,0.3,0.1l-0.2,1.7l-1-0.1c-0.5,0-0.9,0.1-1.2,0.3c-0.3,0.2-0.6,0.5-0.8,1v5.8l1.5,0.3v1.2h-4.9v-1.2l1.5-0.3v-7.2
		L913.9,660z"/>
	<path class="st2" d="M929.4,662H928l-0.3-1.2c-0.2-0.2-0.5-0.4-0.8-0.5c-0.3-0.1-0.7-0.2-1.1-0.2c-0.6,0-1.1,0.1-1.4,0.4
		c-0.3,0.3-0.5,0.6-0.5,1c0,0.4,0.1,0.7,0.4,0.9c0.3,0.2,0.8,0.4,1.7,0.6c1.3,0.3,2.2,0.6,2.8,1.1c0.6,0.5,0.9,1.1,0.9,1.9
		c0,0.9-0.4,1.6-1.1,2.2c-0.7,0.6-1.7,0.8-2.8,0.8c-0.8,0-1.4-0.1-2.1-0.3c-0.6-0.2-1.1-0.4-1.6-0.8l0-2.3h1.4l0.3,1.3
		c0.2,0.2,0.5,0.3,0.9,0.4c0.4,0.1,0.7,0.1,1.1,0.1c0.6,0,1.2-0.1,1.5-0.4c0.4-0.3,0.6-0.6,0.6-1c0-0.4-0.2-0.7-0.5-1
		c-0.3-0.3-0.9-0.5-1.7-0.7c-1.2-0.3-2.1-0.6-2.8-1.1c-0.6-0.5-0.9-1.1-0.9-1.9c0-0.8,0.3-1.5,1-2.1c0.7-0.6,1.6-0.9,2.7-0.9
		c0.8,0,1.4,0.1,2.1,0.3c0.6,0.2,1.1,0.5,1.5,0.8L929.4,662z"/>
	<path class="st2" d="M813.4,686.2c0,1.4-0.3,2.6-1,3.5c-0.7,0.9-1.7,1.3-2.9,1.3c-0.7,0-1.2-0.1-1.7-0.4s-0.9-0.6-1.2-1.1l-0.2,1.3
		h-1.6v-13l-1.5-0.3v-1.2h3.3v5.6c0.3-0.4,0.7-0.8,1.2-1c0.5-0.2,1-0.4,1.6-0.4c1.2,0,2.2,0.5,2.9,1.5c0.7,1,1,2.3,1,3.9V686.2z
		 M811.5,686c0-1.2-0.2-2.1-0.6-2.8c-0.4-0.7-1.1-1.1-1.9-1.1c-0.6,0-1,0.1-1.4,0.4c-0.4,0.3-0.7,0.6-0.9,1.1v4.4
		c0.2,0.5,0.5,0.8,0.9,1.1c0.4,0.3,0.9,0.4,1.4,0.4c0.9,0,1.5-0.3,1.9-0.9c0.4-0.6,0.6-1.4,0.6-2.4V686z"/>
	<path class="st2" d="M824.6,682l-0.9,0.1l-3.8,10.3c-0.3,0.7-0.6,1.3-1.1,1.8c-0.5,0.5-1.1,0.8-1.9,0.8c-0.1,0-0.3,0-0.6-0.1
		c-0.2,0-0.4-0.1-0.5-0.1l0.2-1.4c0,0,0.1,0,0.3,0c0.3,0,0.4,0,0.5,0c0.4,0,0.7-0.2,0.9-0.5c0.2-0.3,0.5-0.7,0.6-1.2l0.4-1l-3.3-8.5
		l-0.9-0.1v-1.2h4.1v1.2l-1.1,0.2l1.7,5l0.3,1.3h0.1l2.1-6.2l-1.1-0.2v-1.2h4V682z"/>
	<path class="st2" d="M837.8,689.4c-0.3,0.5-0.7,1-1.2,1.2c-0.5,0.3-1.1,0.4-1.7,0.4c-1.1,0-1.9-0.3-2.6-1c-0.6-0.7-0.9-1.8-0.9-3.3
		v-4.5l-1.2-0.3v-1.2h1.2h1.8v5.9c0,1.1,0.2,1.8,0.5,2.2s0.8,0.6,1.5,0.6c0.7,0,1.2-0.1,1.6-0.4c0.4-0.3,0.7-0.6,1-1.1v-5.8
		l-1.3-0.3v-1.2h1.3h1.8v8.6l1.2,0.3v1.2h-2.8L837.8,689.4z"/>
	<path class="st2" d="M841.9,689.7l1.5-0.3v-7.2l-1.5-0.3v-1.2h3.1l0.1,1.5c0.3-0.5,0.8-0.9,1.3-1.2c0.5-0.3,1.1-0.4,1.7-0.4
		c1.1,0,1.9,0.3,2.5,1c0.6,0.6,0.9,1.6,0.9,2.9v4.9l1.5,0.3v1.2h-4.9v-1.2l1.5-0.3v-4.9c0-0.9-0.2-1.5-0.5-1.9s-0.9-0.6-1.6-0.6
		c-0.5,0-1,0.1-1.4,0.4c-0.4,0.3-0.7,0.6-1,1v5.9l1.5,0.3v1.2h-4.9V689.7z"/>
	<path class="st2" d="M854.4,689.7l1.5-0.3v-7.2l-1.5-0.3v-1.2h3.3v8.6l1.5,0.3v1.2h-4.9V689.7z M857.7,678.2h-1.8v-1.9h1.8V678.2z"
		/>
	<path class="st2" d="M864.1,682l-1.2,0.2l2.1,5.7l0.2,0.7h0.1l0.2-0.7l2-5.7l-1.2-0.2v-1.2h3.9v1.2l-0.8,0.1l-3.4,8.7h-1.4
		l-3.4-8.7l-0.8-0.1v-1.2h3.9V682z"/>
	<path class="st2" d="M875.7,691c-1.4,0-2.5-0.5-3.3-1.4c-0.8-0.9-1.2-2.1-1.2-3.6v-0.4c0-1.4,0.4-2.6,1.3-3.6
		c0.9-0.9,1.9-1.4,3-1.4c1.3,0,2.4,0.4,3.1,1.2c0.7,0.8,1,1.9,1,3.3v1.1H873l0,0c0,1,0.3,1.8,0.7,2.4c0.5,0.6,1.1,0.9,2,0.9
		c0.6,0,1.2-0.1,1.6-0.3c0.5-0.2,0.9-0.4,1.2-0.7l0.7,1.2c-0.4,0.3-0.8,0.6-1.4,0.9C877.2,690.9,876.5,691,875.7,691z M875.4,682.1
		c-0.6,0-1.1,0.3-1.6,0.8c-0.4,0.5-0.7,1.2-0.8,1.9l0,0h4.6v-0.2c0-0.7-0.2-1.3-0.6-1.8C876.7,682.3,876.2,682.1,875.4,682.1z"/>
	<path class="st2" d="M881.3,682v-1.2h3.1l0.2,1.5c0.3-0.5,0.6-0.9,1.1-1.2c0.4-0.3,0.9-0.4,1.4-0.4c0.1,0,0.3,0,0.4,0
		c0.2,0,0.3,0,0.3,0.1l-0.2,1.7l-1-0.1c-0.5,0-0.9,0.1-1.2,0.3c-0.3,0.2-0.6,0.5-0.8,1v5.8l1.5,0.3v1.2h-4.9v-1.2l1.5-0.3v-7.2
		L881.3,682z"/>
	<path class="st2" d="M896.9,684h-1.4l-0.3-1.2c-0.2-0.2-0.5-0.4-0.8-0.5c-0.3-0.1-0.7-0.2-1.1-0.2c-0.6,0-1.1,0.1-1.4,0.4
		c-0.3,0.3-0.5,0.6-0.5,1c0,0.4,0.1,0.7,0.4,0.9c0.3,0.2,0.8,0.4,1.7,0.6c1.3,0.3,2.2,0.6,2.8,1.1c0.6,0.5,0.9,1.1,0.9,1.9
		c0,0.9-0.4,1.6-1.1,2.2c-0.7,0.6-1.7,0.8-2.8,0.8c-0.8,0-1.4-0.1-2.1-0.3c-0.6-0.2-1.1-0.4-1.6-0.8l0-2.3h1.4l0.3,1.3
		c0.2,0.2,0.5,0.3,0.9,0.4c0.4,0.1,0.7,0.1,1.1,0.1c0.6,0,1.2-0.1,1.5-0.4c0.4-0.3,0.6-0.6,0.6-1c0-0.4-0.2-0.7-0.5-1
		c-0.3-0.3-0.9-0.5-1.7-0.7c-1.2-0.3-2.1-0.6-2.8-1.1c-0.6-0.5-0.9-1.1-0.9-1.9c0-0.8,0.3-1.5,1-2.1c0.7-0.6,1.6-0.9,2.7-0.9
		c0.8,0,1.4,0.1,2.1,0.3c0.6,0.2,1.1,0.5,1.5,0.8L896.9,684z"/>
	<path class="st2" d="M898.9,689.7l1.5-0.3v-7.2l-1.5-0.3v-1.2h3.3v8.6l1.5,0.3v1.2h-4.9V689.7z M902.2,678.2h-1.8v-1.9h1.8V678.2z"
		/>
	<path class="st2" d="M908.3,678.4v2.4h1.9v1.4h-1.9v6.1c0,0.5,0.1,0.8,0.3,1c0.2,0.2,0.5,0.3,0.8,0.3c0.2,0,0.3,0,0.5,0
		c0.2,0,0.4-0.1,0.5-0.1l0.3,1.3c-0.2,0.1-0.4,0.2-0.8,0.3c-0.3,0.1-0.7,0.1-1,0.1c-0.7,0-1.3-0.2-1.8-0.7c-0.4-0.4-0.7-1.2-0.7-2.1
		v-6.1h-1.6v-1.4h1.6v-2.4H908.3z"/>
	<path class="st2" d="M921.6,682l-0.9,0.1l-3.8,10.3c-0.3,0.7-0.6,1.3-1.1,1.8c-0.5,0.5-1.1,0.8-1.9,0.8c-0.1,0-0.3,0-0.6-0.1
		c-0.2,0-0.4-0.1-0.5-0.1l0.2-1.4c0,0,0.1,0,0.3,0c0.3,0,0.4,0,0.5,0c0.4,0,0.7-0.2,0.9-0.5c0.2-0.3,0.5-0.7,0.6-1.2l0.4-1l-3.3-8.5
		l-0.9-0.1v-1.2h4.1v1.2l-1.1,0.2l1.7,5l0.3,1.3h0.1l2.1-6.2l-1.1-0.2v-1.2h4V682z"/>
</g>
<g>
	<g>
		
			<rect x="699.1" y="587.4" transform="matrix(0.9771 -0.213 0.213 0.9771 -109.3437 162.646)" class="st1" width="2.4" height="2.9"/>
	</g>
	<g>
		<path class="st1" d="M566,619.6l-0.6-2.8l4.8-1l0.6,2.8L566,619.6z M575.5,617.5l-0.6-2.8l4.8-1l0.6,2.8L575.5,617.5z M585,615.4
			l-0.6-2.8l4.8-1l0.6,2.8L585,615.4z M594.6,613.4l-0.6-2.8l4.8-1l0.6,2.8L594.6,613.4z M604.1,611.3l-0.6-2.8l4.8-1l0.6,2.8
			L604.1,611.3z M613.6,609.2l-0.6-2.8l4.8-1l0.6,2.8L613.6,609.2z M623.2,607.1l-0.6-2.8l4.8-1l0.6,2.8L623.2,607.1z M632.7,605.1
			l-0.6-2.8l4.8-1l0.6,2.8L632.7,605.1z M642.2,603l-0.6-2.8l4.8-1l0.6,2.8L642.2,603z M651.8,600.9l-0.6-2.8l4.8-1l0.6,2.8
			L651.8,600.9z M661.3,598.8l-0.6-2.8l4.8-1l0.6,2.8L661.3,598.8z M670.8,596.8l-0.6-2.8l4.8-1l0.6,2.8L670.8,596.8z M680.4,594.7
			l-0.6-2.8l4.8-1l0.6,2.8L680.4,594.7z M689.9,592.6l-0.6-2.8l4.8-1l0.6,2.8L689.9,592.6z"/>
	</g>
	<g>
		
			<rect x="558.5" y="618" transform="matrix(0.9771 -0.2126 0.2126 0.9771 -118.9259 133.1892)" class="st1" width="2.4" height="2.9"/>
	</g>
	<g>
		<g>
			<path class="st1" d="M550.1,621.6c3.7-2.3,8.1-5.9,10.5-9.3l-1,7.2l3.9,6.1C559.9,623.6,554.4,622.2,550.1,621.6z"/>
		</g>
	</g>
</g>
<g>
	<g>
		<rect x="466.9" y="262.8" class="st0" width="469.1" height="80.8"/>
		<path class="st3" d="M937.2,344.7H465.7v-83.2h471.4V344.7z M468.1,342.4h466.7v-78.4H468.1V342.4z"/>
	</g>
	<g>
		<path class="st2" d="M530.5,297.8v4h-2.3l-0.1-1.7h-2.7v10.5l1.6,0.3v1.8h-6.2v-1.8l1.6-0.3v-10.5h-2.7l-0.1,1.7h-2.3v-4H530.5z"
			/>
		<path class="st2" d="M531.5,299.6v-1.8h6.2v1.8l-1.6,0.3v4.3h6.1v-4.3l-1.6-0.3v-1.8h1.6h3h1.6v1.8l-1.6,0.3v10.7l1.6,0.3v1.8
			h-6.2v-1.8l1.6-0.3v-4.1H536v4.1l1.6,0.3v1.8h-6.2v-1.8l1.6-0.3v-10.7L531.5,299.6z"/>
		<path class="st2" d="M557.5,306.1h-5.1v4.3h4.8l0.1-1.8h2.3v4.1h-11.8v-1.8l1.6-0.3v-10.7l-1.6-0.3v-1.8h1.6h10.2v4.1h-2.3
			l-0.1-1.8h-4.8v3.8h5.1V306.1z"/>
		<path class="st2" d="M578.7,302.8h-2.2l-0.3-2c-0.3-0.3-0.7-0.5-1.1-0.7c-0.4-0.2-1-0.3-1.6-0.3c-1.3,0-2.3,0.5-3,1.4
			c-0.7,0.9-1.1,2.2-1.1,3.7v0.5c0,1.5,0.3,2.8,1,3.7s1.7,1.4,3,1.4c0.6,0,1.1-0.1,1.6-0.3c0.5-0.2,0.9-0.4,1.1-0.7l0.3-2h2.2v3
			c-0.6,0.7-1.4,1.3-2.3,1.7c-0.9,0.4-2,0.6-3.1,0.6c-2,0-3.6-0.7-4.9-2.1c-1.3-1.4-1.9-3.2-1.9-5.3V305c0-2.2,0.6-3.9,1.9-5.3
			s2.9-2.1,4.9-2.1c1.2,0,2.2,0.2,3.1,0.6c0.9,0.4,1.7,1,2.3,1.7V302.8z"/>
		<path class="st2" d="M593.7,305.3c0,2.2-0.6,4-1.9,5.4s-2.9,2.1-4.9,2.1c-2,0-3.6-0.7-4.9-2.1c-1.2-1.4-1.9-3.2-1.9-5.4v-0.2
			c0-2.2,0.6-4,1.9-5.4s2.9-2.2,4.9-2.2c2,0,3.7,0.7,4.9,2.2c1.3,1.4,1.9,3.2,1.9,5.4V305.3z M590.7,305.1c0-1.5-0.3-2.8-1-3.8
			s-1.6-1.4-2.9-1.4s-2.2,0.5-2.8,1.4c-0.6,1-0.9,2.2-0.9,3.8v0.2c0,1.6,0.3,2.8,0.9,3.8c0.6,1,1.6,1.4,2.8,1.4
			c1.3,0,2.2-0.5,2.9-1.4c0.6-1,1-2.2,1-3.8V305.1z"/>
		<path class="st2" d="M606.2,302.5H604l-0.4-2.1c-0.3-0.2-0.6-0.3-1.1-0.4s-1-0.2-1.6-0.2c-0.8,0-1.5,0.2-1.9,0.5
			c-0.4,0.3-0.7,0.8-0.7,1.3c0,0.5,0.2,0.9,0.7,1.2c0.5,0.3,1.3,0.7,2.4,1c1.6,0.5,2.9,1.1,3.7,1.8c0.9,0.8,1.3,1.7,1.3,3
			c0,1.3-0.5,2.3-1.5,3c-1,0.7-2.3,1.1-4,1.1c-1.2,0-2.3-0.2-3.2-0.6c-1-0.4-1.7-0.9-2.4-1.6v-3.1h2.3l0.3,2.1
			c0.3,0.2,0.7,0.5,1.2,0.6c0.5,0.2,1.1,0.2,1.7,0.2c0.8,0,1.4-0.2,1.9-0.5c0.4-0.3,0.6-0.8,0.6-1.3c0-0.6-0.2-1-0.6-1.4
			c-0.4-0.3-1.1-0.7-2.1-1c-1.8-0.5-3.1-1.1-4-1.8s-1.4-1.7-1.4-2.9c0-1.2,0.5-2.2,1.5-3c1-0.8,2.3-1.2,3.9-1.2
			c1.1,0,2.2,0.2,3.1,0.5s1.7,0.8,2.4,1.4V302.5z"/>
		<path class="st2" d="M620.8,297.8v4h-2.3l-0.1-1.7h-2.7v10.5l1.6,0.3v1.8H611v-1.8l1.6-0.3v-10.5h-2.7l-0.1,1.7h-2.3v-4H620.8z"/>
		<path class="st2" d="M640.5,305.3c0,2.2-0.6,4-1.9,5.4s-2.9,2.1-4.9,2.1c-2,0-3.6-0.7-4.9-2.1c-1.2-1.4-1.9-3.2-1.9-5.4v-0.2
			c0-2.2,0.6-4,1.9-5.4s2.9-2.2,4.9-2.2c2,0,3.7,0.7,4.9,2.2c1.3,1.4,1.9,3.2,1.9,5.4V305.3z M637.6,305.1c0-1.5-0.3-2.8-1-3.8
			s-1.6-1.4-2.9-1.4s-2.2,0.5-2.8,1.4c-0.6,1-0.9,2.2-0.9,3.8v0.2c0,1.6,0.3,2.8,0.9,3.8c0.6,1,1.6,1.4,2.8,1.4
			c1.3,0,2.2-0.5,2.9-1.4c0.6-1,1-2.2,1-3.8V305.1z"/>
		<path class="st2" d="M641.7,310.9l1.6-0.3v-10.7l-1.6-0.3v-1.8h11.9v4.1h-2.3l-0.1-1.8h-4.9v4.1h5.2v2.3h-5.2v4.1l1.6,0.3v1.8
			h-6.2V310.9z"/>
		<path class="st2" d="M659.9,310.9l1.6-0.3v-10.7l-1.6-0.3v-1.8h6.1v1.8l-1.5,0.3v4h1.3l2.9-4.2l-0.9-0.1v-1.8h5.9v1.8l-1.6,0.3
			l-3.7,4.9l4.1,5.9l1.5,0.3v1.8h-5.9v-1.8l0.9-0.1l-2.9-4.3h-1.7v4.1l1.5,0.3v1.8h-6.1V310.9z"/>
		<path class="st2" d="M690.1,297.8v1.8l-1.6,0.3v12.8h-3l-6-10l-0.1,0v7.9l1.6,0.3v1.8h-6.2v-1.8l1.6-0.3v-10.7l-1.6-0.3v-1.8h1.6
			h3l6,10l0.1,0v-7.9l-1.6-0.3v-1.8h4.6H690.1z"/>
		<path class="st2" d="M704.7,305.3c0,2.2-0.6,4-1.9,5.4s-2.9,2.1-4.9,2.1c-2,0-3.6-0.7-4.9-2.1c-1.2-1.4-1.9-3.2-1.9-5.4v-0.2
			c0-2.2,0.6-4,1.9-5.4s2.9-2.2,4.9-2.2c2,0,3.7,0.7,4.9,2.2c1.3,1.4,1.9,3.2,1.9,5.4V305.3z M701.8,305.1c0-1.5-0.3-2.8-1-3.8
			s-1.6-1.4-2.9-1.4s-2.2,0.5-2.8,1.4c-0.6,1-0.9,2.2-0.9,3.8v0.2c0,1.6,0.3,2.8,0.9,3.8c0.6,1,1.6,1.4,2.8,1.4
			c1.3,0,2.2-0.5,2.9-1.4c0.6-1,1-2.2,1-3.8V305.1z"/>
		<path class="st2" d="M725.3,299.6l-1.2,0.2l-3,13h-2.8l-2.7-9.9h-0.1l-2.7,9.9h-2.8l-3-13l-1.2-0.2v-1.8h5.5v1.8l-1.4,0.2l1.7,8.2
			l0.1,0l2.8-10.2h2.2l2.8,10.2l0.1,0l1.7-8.2l-1.4-0.2v-1.8h5.5V299.6z"/>
		<path class="st2" d="M726.2,312.7v-1.8l1.6-0.3v-10.7l-1.6-0.3v-1.8h1.6h3h1.6v1.8l-1.6,0.3v10.5h4.2l0.1-1.9h2.3v4.2H726.2z"/>
		<path class="st2" d="M748.1,306.1H743v4.3h4.8l0.1-1.8h2.3v4.1h-11.8v-1.8l1.6-0.3v-10.7l-1.6-0.3v-1.8h1.6h10.2v4.1H748l-0.1-1.8
			H743v3.8h5.1V306.1z"/>
		<path class="st2" d="M758.6,297.8c1.8,0,3.3,0.6,4.5,1.7c1.2,1.2,1.8,2.7,1.8,4.5v2.5c0,1.8-0.6,3.3-1.8,4.5
			c-1.2,1.2-2.7,1.7-4.5,1.7h-6.7v-1.8l1.6-0.3v-10.7l-1.6-0.3v-1.8h1.6H758.6z M756.5,300.1v10.3h2c1.1,0,1.9-0.4,2.5-1.1
			s0.9-1.7,0.9-2.8V304c0-1.2-0.3-2.1-0.9-2.8s-1.4-1.1-2.5-1.1H756.5z"/>
		<path class="st2" d="M778.7,311c-0.5,0.5-1.2,0.9-2.1,1.3s-2.1,0.6-3.5,0.6c-2,0-3.7-0.7-4.9-2s-1.9-3.1-1.9-5.3v-0.5
			c0-2.2,0.6-4.1,1.9-5.5c1.2-1.4,2.9-2.1,4.9-2.1c1.2,0,2.2,0.2,3.2,0.6c1,0.4,1.8,0.9,2.4,1.5v3h-2.2l-0.4-2
			c-0.3-0.2-0.6-0.4-1.1-0.6c-0.4-0.1-1-0.2-1.5-0.2c-1.3,0-2.3,0.5-3,1.4s-1.1,2.2-1.1,3.8v0.5c0,1.5,0.4,2.7,1.1,3.6
			c0.7,0.9,1.7,1.4,3.1,1.4c0.6,0,1.1-0.1,1.5-0.2c0.4-0.1,0.7-0.2,0.9-0.4v-2.5l-2.1-0.2v-2.1h5.1V311z"/>
		<path class="st2" d="M789.9,306.1h-5.1v4.3h4.8l0.1-1.8h2.3v4.1h-11.8v-1.8l1.6-0.3v-10.7l-1.6-0.3v-1.8h1.6H792v4.1h-2.3
			l-0.1-1.8h-4.8v3.8h5.1V306.1z"/>
		<path class="st2" d="M813.2,301.7L813.2,301.7l-4.1,11h-2l-4-11l-0.1,0l0.3,6.6v2.3l1.6,0.3v1.8h-6.2v-1.8l1.6-0.3v-10.7l-1.6-0.3
			v-1.8h1.6h3.9l3.8,11h0.1l3.8-11h5.5v1.8l-1.6,0.3v10.7l1.6,0.3v1.8h-6.2v-1.8l1.6-0.3v-2.3L813.2,301.7z"/>
		<path class="st2" d="M818.4,310.9l1.1-0.2l4.5-13h3.1l4.5,13l1.1,0.2v1.8h-5.1v-1.8l1-0.2l-0.7-2.1h-4.8l-0.7,2.1l1,0.2v1.8h-5.1
			V310.9z M823.8,306.5h3.4l-1.7-5.3h-0.1L823.8,306.5z"/>
		<path class="st2" d="M840.7,297.8c1.7,0,3.1,0.4,4,1.3c1,0.9,1.5,2,1.5,3.5c0,1.4-0.5,2.6-1.5,3.4c-1,0.9-2.3,1.3-4,1.3h-2.5v3.3
			l1.6,0.3v1.8h-6.2v-1.8l1.6-0.3v-10.7l-1.6-0.3v-1.8h1.6H840.7z M838.2,305h2.5c0.8,0,1.5-0.2,1.9-0.7c0.4-0.5,0.6-1,0.6-1.7
			c0-0.7-0.2-1.3-0.6-1.8c-0.4-0.5-1.1-0.7-1.9-0.7h-2.5V305z"/>
		<path class="st2" d="M854.3,297.8c1.7,0,3.1,0.4,4,1.3c1,0.9,1.5,2,1.5,3.5c0,1.4-0.5,2.6-1.5,3.4c-1,0.9-2.3,1.3-4,1.3h-2.5v3.3
			l1.6,0.3v1.8h-6.2v-1.8l1.6-0.3v-10.7l-1.6-0.3v-1.8h1.6H854.3z M851.8,305h2.5c0.8,0,1.5-0.2,1.9-0.7c0.4-0.5,0.6-1,0.6-1.7
			c0-0.7-0.2-1.3-0.6-1.8c-0.4-0.5-1.1-0.7-1.9-0.7h-2.5V305z"/>
		<path class="st2" d="M860.8,299.6v-1.8h6.2v1.8l-1.6,0.3v10.7l1.6,0.3v1.8h-6.2v-1.8l1.6-0.3v-10.7L860.8,299.6z"/>
		<path class="st2" d="M883.4,297.8v1.8l-1.6,0.3v12.8h-3l-6-10l-0.1,0v7.9l1.6,0.3v1.8h-6.2v-1.8l1.6-0.3v-10.7l-1.6-0.3v-1.8h1.6
			h3l6,10l0.1,0v-7.9l-1.6-0.3v-1.8h4.6H883.4z"/>
		<path class="st2" d="M896.7,311c-0.5,0.5-1.2,0.9-2.1,1.3s-2.1,0.6-3.5,0.6c-2,0-3.7-0.7-4.9-2s-1.9-3.1-1.9-5.3v-0.5
			c0-2.2,0.6-4.1,1.9-5.5c1.2-1.4,2.9-2.1,4.9-2.1c1.2,0,2.2,0.2,3.2,0.6c1,0.4,1.8,0.9,2.4,1.5v3h-2.2l-0.4-2
			c-0.3-0.2-0.6-0.4-1.1-0.6c-0.4-0.1-1-0.2-1.5-0.2c-1.3,0-2.3,0.5-3,1.4s-1.1,2.2-1.1,3.8v0.5c0,1.5,0.4,2.7,1.1,3.6
			c0.7,0.9,1.7,1.4,3.1,1.4c0.6,0,1.1-0.1,1.5-0.2c0.4-0.1,0.7-0.2,0.9-0.4v-2.5l-2.1-0.2v-2.1h5.1V311z"/>
	</g>
</g>
<g>
	<g>
		
			<rect x="701.2" y="587.7" transform="matrix(0.2126 -0.9771 0.9771 0.2126 -22.1887 1150.1946)" class="st1" width="2.9" height="2.4"/>
	</g>
	<g>
		<path class="st1" d="M836.9,619.6l-4.8-1l0.6-2.8l4.8,1L836.9,619.6z M827.4,617.5l-4.8-1l0.6-2.8l4.8,1L827.4,617.5z
			 M817.9,615.4l-4.8-1l0.6-2.8l4.8,1L817.9,615.4z M808.3,613.4l-4.8-1l0.6-2.8l4.8,1L808.3,613.4z M798.8,611.3l-4.8-1l0.6-2.8
			l4.8,1L798.8,611.3z M789.3,609.2l-4.8-1l0.6-2.8l4.8,1L789.3,609.2z M779.7,607.1l-4.8-1l0.6-2.8l4.8,1L779.7,607.1z
			 M770.2,605.1l-4.8-1l0.6-2.8l4.8,1L770.2,605.1z M760.7,603l-4.8-1l0.6-2.8l4.8,1L760.7,603z M751.1,600.9l-4.8-1l0.6-2.8l4.8,1
			L751.1,600.9z M741.6,598.8l-4.8-1l0.6-2.8l4.8,1L741.6,598.8z M732.1,596.8l-4.8-1l0.6-2.8l4.8,1L732.1,596.8z M722.5,594.7
			l-4.8-1l0.6-2.8l4.8,1L722.5,594.7z M713,592.6l-4.8-1l0.6-2.8l4.8,1L713,592.6z"/>
	</g>
	<g>
		
			<rect x="841.7" y="618.3" transform="matrix(0.2126 -0.9771 0.9771 0.2126 58.5657 1311.6381)" class="st1" width="2.9" height="2.4"/>
	</g>
	<g>
		<g>
			<path class="st1" d="M852.8,621.6c-4.3,0.6-9.8,2.1-13.4,4.1l3.9-6.1l-1-7.2C844.8,615.6,849.1,619.2,852.8,621.6z"/>
		</g>
	</g>
</g>
</svg>
