<?xml version="1.0" encoding="utf-8"?>
<!-- Generator: Adobe Illustrator 21.0.0, SVG Export Plug-In . SVG Version: 6.00 Build 0)  -->
<svg version="1.1" id="Livello_1" xmlns="http://www.w3.org/2000/svg" xmlns:xlink="http://www.w3.org/1999/xlink" x="0px" y="0px"
	 viewBox="0 0 472.7 424.5" style="enable-background:new 0 0 472.7 424.5;" xml:space="preserve">
<style type="text/css">
	.st0{fill:#272724;}
	.st1{fill:#FFFFFF;}
</style>
<g>
	<polygon class="st0" points="0,280.8 48.4,243.6 48.4,219.2 79.3,208.9 79.3,188.4 105.6,184.9 105.6,162 148.8,173.5 148.5,119.2 
		176,114.5 176,91.7 206.8,81.4 206.8,60.9 233.1,57.4 233.1,34.5 280.5,13 280.5,33.5 299.8,39.2 299.8,64.1 331.1,59 331.1,101.1 
		365.7,93.3 365.7,68.8 396.3,58.5 396.5,38 472.7,84.3 472.7,424.5 0,424.5 	"/>
	<g>
		<path class="st1" d="M411.4,24.1l61.2,61.2l-16.2,16.2l-32.1-10.4c-4.7-1.6-11-4.1-16.2-6.8c2.7,2,8.9,7.1,16.4,14.7l17.2,17.2
			l-14.9,14.9l-61.2-61.2l15.1-15.1l32.1,9.8c5,1.5,11.2,4,16.8,6.6c-4.1-3.2-10.2-9.1-14.2-13.2l-19-19L411.4,24.1z"/>
		<polygon class="st1" points="268.7,0 280.5,14 261.8,32.7 272,43 287.3,27.7 299.8,40.2 284.5,55.5 297,67.9 318,46.9 331.1,60 
			294.4,96.7 233.1,35.5 		"/>
		<path class="st1" d="M221.7,46.9l61.2,61.2l-16.2,16.2l-32.1-10.4c-4.7-1.6-11-4.1-16.2-6.8c2.7,2,8.9,7.1,16.4,14.7L252,139
			l-14.9,14.9l-61.2-61.2L191,77.6l32.1,9.8c5,1.5,11.2,4,16.8,6.6c-4-3.2-10.2-9.1-14.2-13.2l-19-19L221.7,46.9z"/>
		<path class="st1" d="M329,104.4c20.8-20.8,42.8-11,56.2,2.5c17.6,17.6,28.5,39.5,6.6,61.4c-17.7,17.7-39.3,15.8-57.7-2.5
			C312.3,144,312.8,120.6,329,104.4z M379.7,155.6c6.7-6.7,5.6-13.5-10.1-29.2c-15.3-15.3-22-16-28.7-9.2
			c-7.1,7.1-2.6,17.6,9.1,29.2C365.5,162,373.2,162.1,379.7,155.6"/>
		
			<rect x="304.4" y="137.7" transform="matrix(0.7069 -0.7073 0.7073 0.7069 -35.4835 276.3798)" class="st1" width="22.7" height="86.6"/>
		
			<rect x="175.8" y="99.6" transform="matrix(0.7069 -0.7073 0.7073 0.7069 -46.2034 174.2167)" class="st1" width="22.7" height="86.6"/>
		<polygon class="st1" points="121.5,147.1 169.7,195.3 190.5,174.5 200.6,190.5 166.8,224.2 105.6,163 		"/>
		<path class="st1" d="M94.2,174.5l61.2,61.2l-16.2,16.2l-32.1-10.4c-4.7-1.6-11-4.1-16.2-6.8c2.7,2,8.9,7.1,16.4,14.7l17.2,17.2
			l-14.9,14.9l-61.2-61.2l15.1-15.1l32.1,9.8c5,1.5,11.2,4,16.8,6.6c-4-3.2-10.2-9.1-14.2-13.2l-19-19L94.2,174.5z"/>
		<path class="st1" d="M244.7,188.7c8.5-8.5,18.6-14.2,27.8-15.9l3.6,18.7c-6.9,1.4-13.9,5.3-18.1,9.5c-4,4-4.3,8.2-1.8,10.6
			c2,2,5.4,2.6,11.2-0.8l7.8-4.7c8.3-4.9,20.7-11.4,33,0.9c14.7,14.7,11.5,33.3-4.4,49.2c-9.2,9.2-18.7,14.1-28.1,17l-6.8-17.8
			c6.9-1.8,15.9-6.1,22.1-12.3c6.2-6.2,6.3-10.9,3-14.2c-2.7-2.7-5.9-2-11.2,1.1l-9,5.4c-11.2,6.6-22.1,7.7-32.7-2.8
			C229,220.5,231,202.4,244.7,188.7z"/>
		<path class="st1" d="M191.3,242c8.5-8.5,18.6-14.2,27.8-15.9l3.6,18.7c-6.9,1.4-13.9,5.3-18.1,9.5c-4,4-4.3,8.2-1.8,10.6
			c2,2,5.4,2.6,11.2-0.8l7.8-4.7c8.3-4.9,20.7-11.4,33,0.9c14.7,14.7,11.5,33.3-4.4,49.2c-9.2,9.2-18.7,14.1-28.1,17l-6.8-17.8
			c6.9-1.8,15.9-6.1,22.1-12.3c6.2-6.2,6.3-10.9,3-14.2c-2.7-2.7-5.9-2-11.2,1.1l-9,5.4c-11.2,6.6-22.1,7.7-32.7-2.8
			C175.7,273.8,177.7,255.7,191.3,242z"/>
		<polygon class="st1" points="160.5,275 172.3,289 153.6,307.7 163.9,318 179.1,302.7 191.6,315.2 176.3,330.5 188.8,342.9 
			209.8,322 222.9,335 186.2,371.7 125,310.5 		"/>
		<path class="st1" d="M11.7,254.8c20.8-20.8,42.8-11,56.2,2.4c17.6,17.6,28.5,39.5,6.6,61.4c-17.7,17.7-39.4,15.8-57.7-2.5
			C-4.9,294.3-4.4,271,11.7,254.8z M62.4,306c6.7-6.7,5.6-13.5-10.1-29.2c-15.3-15.3-22-16-28.7-9.2c-7.1,7.1-2.6,17.6,9,29.2
			C48.3,312.4,55.9,312.5,62.4,306"/>
		<path class="st1" d="M93.4,340c8.5-8.5,18.6-14.2,27.8-15.9l3.6,18.7c-6.8,1.4-13.9,5.3-18.1,9.5c-4,4-4.3,8.2-1.8,10.6
			c2,2,5.4,2.6,11.2-0.8l7.8-4.7c8.3-4.9,20.7-11.4,33,0.9c14.7,14.7,11.5,33.3-4.4,49.2c-9.2,9.2-18.7,14.1-28.1,17l-6.8-17.8
			c6.9-1.8,15.9-6.1,22.1-12.3c6.1-6.1,6.3-10.9,3-14.2c-2.7-2.7-5.9-2-11.2,1.1l-9,5.4c-11.2,6.6-22.1,7.7-32.7-2.8
			C77.8,371.8,79.7,353.7,93.4,340z"/>
	</g>
</g>
</svg>
