<?xml version="1.0" encoding="utf-8"?>
<!-- Generator: Adobe Illustrator 21.0.0, SVG Export Plug-In . SVG Version: 6.00 Build 0)  -->
<svg version="1.1" id="Livello_1" xmlns="http://www.w3.org/2000/svg" xmlns:xlink="http://www.w3.org/1999/xlink" x="0px" y="0px"
	 viewBox="0 0 407.4 503.6" style="enable-background:new 0 0 407.4 503.6;" xml:space="preserve">
<style type="text/css">
	.st0{fill:#272724;}
	.st1{fill:#FFFFFF;}
</style>
<polyline class="st0" points="0,149.4 53.7,190.9 53.7,212.2 99.6,241 99.6,249 153.9,290.4 153.9,303.2 208.4,344.5 208.4,366.9 
	247.8,359.9 248.2,392.2 298.6,431.6 298.6,457.1 328.7,457.3 328.7,487.2 407.4,441.4 407.4,277.3 407.4,0 0,0 "/>
<path class="st1" d="M407.4,441.4l-62.3,62.2l-16.4-16.4l10.6-32.6c1.6-4.8,4.2-11.2,6.9-16.5c-2.1,2.8-7.2,9-14.9,16.7l-17.5,17.5
	l-15.2-15.2l62.3-62.2l15.4,15.4l-10,32.7c-1.5,5.1-4,11.3-6.7,17.1c3.2-4.1,9.3-10.4,13.4-14.5l19.3-19.3L407.4,441.4z"/>
<path class="st1" d="M325.7,357.5c21.2,21.2,11.2,43.5-2.5,57.2c-17.9,17.9-40.2,28.9-62.5,6.7c-18-18-16.1-40,2.6-58.7
	C285.5,340.5,309.2,341,325.7,357.5z M273.6,409c6.8,6.8,13.8,5.7,29.8-10.3c15.5-15.5,16.3-22.3,9.4-29.2
	c-7.2-7.2-17.9-2.7-29.8,9.2C267,394.6,267,402.4,273.6,409"/>
<rect x="324" y="291.2" transform="matrix(0.7073 -0.7069 0.7069 0.7073 -106.2947 348.7692)" class="st1" width="88.1" height="23.1"/>
<rect x="203.7" y="332.4" transform="matrix(0.7073 -0.7069 0.7069 0.7073 -170.6362 275.8099)" class="st1" width="88.1" height="23.1"/>
<path class="st1" d="M239.9,271.7c8.7,8.7,14.5,18.9,16.2,28.3l-19,3.7c-1.4-7-5.4-14.1-9.7-18.4c-4.1-4.1-8.3-4.4-10.8-1.9
	c-2.1,2.1-2.7,5.5,0.8,11.3l4.7,7.9c5,8.4,11.6,21.1-0.9,33.6c-14.9,14.9-33.9,11.7-50-4.5c-9.4-9.4-14.4-19-17.3-28.6l18.1-6.9
	c1.9,7.1,6.2,16.2,12.5,22.5c6.3,6.3,11.1,6.4,14.5,3c2.8-2.8,2.1-6-1.2-11.3l-5.4-9.2c-6.7-11.3-7.9-22.5,2.9-33.2
	C207.6,255.8,226,257.8,239.9,271.7z"/>
<path class="st1" d="M374.6,247L318,315l-15.5-15.5l23.6-26.6c3.7-4.2,6.7-7.6,12.1-12.9c-6.1,4.5-9.7,7.1-13.9,9.5l-33.5,18.3
	l-13.6-13.6l18.6-31.8c2.6-4.4,5.4-8.6,10.5-14.6c-5.6,5.4-9.1,8.8-13.2,12.5l-26.1,23.6l-16.1-16.1l68.4-56.2l19.6,19.6l-18.6,30.7
	c-2.6,4.4-5.3,8.3-9.7,13.8c5.4-4.1,8.9-6.6,15.2-10.2l30.1-17.4L374.6,247z"/>
<rect x="218.9" y="186.1" transform="matrix(0.7073 -0.7069 0.7069 0.7073 -62.7741 243.7464)" class="st1" width="88.1" height="23.1"/>
<path class="st1" d="M185.7,217.5c8.7,8.7,14.5,18.9,16.2,28.3l-19,3.7c-1.4-7-5.4-14.1-9.7-18.4c-4.1-4.1-8.3-4.4-10.8-1.9
	c-2.1,2.1-2.7,5.5,0.8,11.3l4.7,7.9c5,8.4,11.6,21.1-0.9,33.6c-14.9,14.9-33.9,11.7-50-4.5c-9.4-9.4-14.4-19-17.3-28.6l18.1-6.9
	c1.9,7.1,6.2,16.2,12.5,22.5c6.3,6.3,11.1,6.4,14.5,3c2.8-2.8,2.1-6-1.2-11.3l-5.4-9.2c-6.7-11.3-7.9-22.5,2.9-33.2
	C153.3,201.6,171.7,203.5,185.7,217.5z"/>
<polygon class="st1" points="258.5,131 209.5,180 230.6,201.2 214.4,211.3 180.1,177 242.3,114.8 "/>
<polygon class="st1" points="152.2,186.1 137.9,198.1 118.8,179 108.4,189.5 123.9,205 111.2,217.7 95.7,202.2 83,214.9 
	104.4,236.2 91,249.5 53.7,212.2 116,149.9 "/>
<path class="st1" d="M207.1,77.4c21.2,21.2,11.2,43.5-2.5,57.2c-17.9,17.9-40.2,28.9-62.5,6.7c-18-18-16.1-40,2.6-58.7
	C166.9,60.5,190.7,61,207.1,77.4z M155,129c6.8,6.8,13.8,5.7,29.8-10.3c15.5-15.5,16.3-22.3,9.4-29.2c-7.2-7.2-17.9-2.7-29.8,9.2
	C148.5,114.6,148.4,122.4,155,129"/>
<path class="st1" d="M86.1,117.9c8.7,8.7,14.5,18.9,16.2,28.3l-19,3.7c-1.4-7-5.4-14.1-9.7-18.4c-4.1-4.1-8.3-4.4-10.8-1.9
	c-2.1,2.1-2.7,5.5,0.8,11.3l4.7,7.9c5,8.4,11.6,21.1-0.9,33.6c-14.9,14.9-33.9,11.7-50-4.5C8,168.6,3,158.9,0,149.4l18.1-6.9
	c1.9,7.1,6.2,16.2,12.5,22.5c6.3,6.3,11.1,6.4,14.5,3c2.8-2.8,2.1-6-1.2-11.3l-5.4-9.2c-6.7-11.3-7.9-22.5,2.9-33.2
	C53.7,101.9,72.1,103.9,86.1,117.9z"/>
<path class="st1" d="M147.9,20.3c15.8,15.8,19.9,30.3,5.7,44.5c-9.2,9.2-24.8,16.7-45.1-3.7l-5-5L81.3,78.3l-16-16l62.3-62.2
	L147.9,20.3z M120.8,48.1c5,5,8.7,6,15.5-0.8c5.2-5.2,3.6-8.8-0.3-12.6l-5.5-5.5l-14.3,14.3L120.8,48.1"/>
</svg>
