<?xml version="1.0" encoding="utf-8"?>
<!-- Generator: Adobe Illustrator 21.0.0, SVG Export Plug-In . SVG Version: 6.00 Build 0)  -->
<svg version="1.1" id="Livello_1" xmlns="http://www.w3.org/2000/svg" xmlns:xlink="http://www.w3.org/1999/xlink" x="0px" y="0px"
	 viewBox="0 0 470 273.4" style="enable-background:new 0 0 470 273.4;" xml:space="preserve">
<style type="text/css">
	.st0{opacity:0.2;}
	.st1{fill:none;stroke:#631510;stroke-width:2;}
	.st2{fill:#FFFFFF;}
	.st3{font-family:'MetaPro-Normal';}
	.st4{font-size:9.0481px;}
	.st5{fill:none;stroke:#EBAD9C;stroke-width:2;}
	.st6{fill:none;stroke:#CA1C1A;stroke-width:2;}
</style>
<g class="st0">
	<rect x="1" y="179.7" class="st1" width="144.8" height="92.7"/>
	<g>
		<text transform="matrix(1 0 0 1 53.1762 228.249)" class="st2 st3 st4">FoxNews 1</text>
	</g>
	<rect x="1" y="100" class="st1" width="144.8" height="79.7"/>
	<g>
		<text transform="matrix(1 0 0 1 51.3305 142.0088)" class="st2 st3 st4">Leaksource</text>
	</g>
	<rect x="145.8" y="100" class="st1" width="109.7" height="172.5"/>
	<g>
		<text transform="matrix(1 0 0 1 170.2944 188.3799)" class="st2 st3 st4">Zerocensorship</text>
	</g>
	<rect x="394" y="115.8" class="st5" width="74.9" height="156.6"/>
	<g>
		<text transform="matrix(1 0 0 1 410.5903 196.2979)" class="st2 st3 st4">SkyNews 1</text>
	</g>
	<rect x="261.1" y="115.8" class="st5" width="132.9" height="74.1"/>
	<g>
		<text transform="matrix(1 0 0 1 319.3598 155.0147)" class="st2 st3 st4">NBC</text>
	</g>
	<rect x="394.6" y="1" class="st5" width="74.4" height="114.8"/>
	<g>
		<text transform="matrix(1 0 0 1 410.9633 60.5752)" class="st2 st3 st4">FoxNews 2</text>
	</g>
	<rect x="261.1" y="189.9" class="st5" width="132.9" height="82.6"/>
	<g>
		<text transform="matrix(1 0 0 1 319.2553 233.3389)" class="st2 st3 st4">CNN</text>
	</g>
	<rect x="261.1" y="1" class="st5" width="63.9" height="114.8"/>
	<g>
		<text transform="matrix(1 0 0 1 271.5815 60.5752)" class="st2 st3 st4">SkyNews 2</text>
	</g>
	<rect x="325" y="1" class="st5" width="69.6" height="114.8"/>
	<g>
		<text transform="matrix(1 0 0 1 344.7446 60.5752)" class="st2 st3 st4">Reuters</text>
	</g>
	<rect x="109" y="1" class="st6" width="146.5" height="93.3"/>
	<g>
		<text transform="matrix(1 0 0 1 174.2465 49.8311)" class="st2 st3 st4">CBS</text>
	</g>
	<rect x="1" y="1" class="st6" width="108" height="93.3"/>
	<g>
		<text transform="matrix(1 0 0 1 31.5219 49.8311)" class="st2 st3 st4">Miseeharris</text>
	</g>
</g>
</svg>
