<?xml version="1.0" encoding="utf-8"?>
<!-- Generator: Adobe Illustrator 21.0.0, SVG Export Plug-In . SVG Version: 6.00 Build 0)  -->
<svg version="1.1" id="Livello_1" xmlns="http://www.w3.org/2000/svg" xmlns:xlink="http://www.w3.org/1999/xlink" x="0px" y="0px"
	 width="729.6px" height="538.3px" viewBox="0 0 729.6 538.3" style="enable-background:new 0 0 729.6 538.3;" xml:space="preserve"
	>
<style type="text/css">
	.st0{display:none;fill:#F5F5F5;stroke:#F5F5F5;stroke-width:0.5;stroke-miterlimit:10;}
	.st1{font-family:'CrimsonText-Roman';}
	.st2{font-size:14px;}
	.st3{font-family:'CrimsonText-Italic';}
	.st4{fill:#D9D9D9;stroke:#F5F5F5;stroke-width:0.5;stroke-miterlimit:10;}
	.st5{fill:#007CA8;stroke:#F5F5F5;stroke-width:0.5;stroke-miterlimit:10;}
	.st6{opacity:0.4;fill:#007CA8;stroke:#F5F5F5;stroke-width:0.5;stroke-miterlimit:10;enable-background:new    ;}
	.st7{fill:url(#SVGID_1_);stroke:#F5F5F5;stroke-width:0.5;stroke-miterlimit:10;}
	.st8{fill:#007CA8;}
	.st9{font-size:12px;}
</style>
<rect x="-113.7" y="-31.4" class="st0" width="1920" height="1080"/>
<g>
	<text transform="matrix(1 0 0 1 0.4957 303.8679)" class="st1 st2">Washington Post — </text>
	<text transform="matrix(1 0 0 1 113.0957 303.8679)" class="st3 st2">What a Trump presidency means for climate change</text>
	<g>
		<rect x="0.5" y="316.5" class="st4" width="39.1" height="24.9"/>
		<rect x="39.6" y="316.5" class="st5" width="45.1" height="24.9"/>
		<rect x="84.7" y="316.5" class="st4" width="24.9" height="24.9"/>
		<rect x="109.6" y="316.5" class="st6" width="19.1" height="24.9"/>
		<rect x="128.7" y="316.5" class="st5" width="53.9" height="24.9"/>
		<rect x="182.6" y="316.5" class="st4" width="15" height="24.9"/>
		<rect x="196.8" y="316.5" class="st4" width="21.8" height="24.9"/>
		<rect x="217.8" y="316.5" class="st4" width="13.8" height="24.9"/>
		<rect x="231.6" y="316.5" class="st4" width="11" height="24.9"/>
		<rect x="242.6" y="316.5" class="st4" width="17.9" height="24.9"/>
		<rect x="260.6" y="316.5" class="st4" width="14.2" height="24.9"/>
		<rect x="274.8" y="316.5" class="st4" width="9.8" height="24.9"/>
		<rect x="284.6" y="316.5" class="st4" width="36.1" height="24.9"/>
		<rect x="320.7" y="316.5" class="st6" width="27" height="24.9"/>
		<rect x="347.7" y="316.5" class="st5" width="51.9" height="24.9"/>
		<rect x="399.7" y="316.5" class="st6" width="45" height="24.9"/>
		<rect x="444.6" y="316.5" class="st4" width="8.1" height="24.9"/>
		<rect x="452.7" y="316.5" class="st4" width="79" height="24.9"/>
		<rect x="531.7" y="316.5" class="st4" width="51.8" height="24.9"/>
		<rect x="583.5" y="316.5" class="st6" width="50.7" height="24.9"/>
	</g>
</g>
<g>
	<text transform="matrix(1 0 0 1 0 206.0166)" class="st1 st2">Time — </text>
	<text transform="matrix(1 0 0 1 46.5 206.0166)" class="st3 st2">Donald Trump’s Victory Could Mean Disaster for the Planet</text>
	<g>
		<rect x="0.5" y="218.1" class="st4" width="6.2" height="24.9"/>
		<rect x="6.7" y="218.1" class="st4" width="2.7" height="24.9"/>
		<rect x="9.4" y="218.1" class="st4" width="5" height="24.9"/>
		<rect x="14.4" y="218.1" class="st4" width="6.1" height="24.9"/>
		<rect x="20.5" y="218.1" class="st5" width="11" height="24.9"/>
		<rect x="31.4" y="218.1" class="st4" width="13" height="24.9"/>
		<rect x="44.4" y="218.1" class="st6" width="12.1" height="24.9"/>
		<rect x="56.5" y="218.1" class="st4" width="7" height="24.9"/>
		<rect x="63.5" y="218.1" class="st4" width="14" height="24.9"/>
		<rect x="77.5" y="218.1" class="st4" width="22" height="24.9"/>
		<rect x="99.5" y="218.1" class="st4" width="7" height="24.9"/>
		<rect x="106.5" y="218.1" class="st4" width="2.9" height="24.9"/>
		<rect x="109.4" y="218.1" class="st6" width="10.1" height="24.9"/>
		<rect x="119.5" y="218.1" class="st6" width="11" height="24.9"/>
		<rect x="130.5" y="218.1" class="st5" width="26.9" height="24.9"/>
		<rect x="157.4" y="218.1" class="st6" width="10" height="24.9"/>
		<rect x="167.8" y="218.1" class="st4" width="4.7" height="24.9"/>
		<rect x="172.4" y="218.1" class="st4" width="8" height="24.9"/>
		<rect x="180.4" y="218.1" class="st4" width="32" height="24.9"/>
		<rect x="212.4" y="218.1" class="st6" width="15" height="24.9"/>
		<rect x="227.4" y="218.1" class="st4" width="13" height="24.9"/>
		<rect x="240.4" y="218.1" class="st4" width="24" height="24.9"/>
		<rect x="264.4" y="218.1" class="st4" width="12" height="24.9"/>
		<rect x="276.4" y="218.1" class="st4" width="30.9" height="24.9"/>
		<rect x="307.3" y="218.1" class="st6" width="10.2" height="24.9"/>
		<rect x="317.5" y="218.1" class="st5" width="19.9" height="24.9"/>
		<rect x="337.5" y="218.1" class="st4" width="16" height="24.9"/>
		<rect x="353.5" y="218.1" class="st4" width="11.9" height="24.9"/>
		<rect x="365.4" y="218.1" class="st5" width="9" height="24.9"/>
		<rect x="374.4" y="218.1" class="st6" width="11.1" height="24.9"/>
		<rect x="385.4" y="218.1" class="st6" width="12" height="24.9"/>
		<rect x="397.4" y="218.1" class="st4" width="35.1" height="24.9"/>
		<rect x="432.5" y="218.1" class="st6" width="18" height="24.9"/>
		<rect x="450.5" y="218.1" class="st4" width="12" height="24.9"/>
		<rect x="462.5" y="218.1" class="st4" width="42.9" height="24.9"/>
		<rect x="505.3" y="218.1" class="st4" width="13.1" height="24.9"/>
		<rect x="518.5" y="218.1" class="st4" width="10" height="24.9"/>
		<rect x="528.4" y="218.1" class="st6" width="6" height="24.9"/>
		<rect x="534.4" y="218.1" class="st4" width="24.9" height="24.9"/>
		<rect x="559.3" y="218.1" class="st6" width="20.1" height="24.9"/>
		<rect x="579.5" y="218.1" class="st4" width="8" height="24.9"/>
		<rect x="587.4" y="218.1" class="st4" width="8.9" height="24.9"/>
		<rect x="596.3" y="218.1" class="st4" width="23.1" height="24.9"/>
		<rect x="619.5" y="218.1" class="st4" width="12" height="24.9"/>
	</g>
</g>
<g>
	<text transform="matrix(1 0 0 1 0 108.4966)" class="st1 st2">CBS News —</text>
	<text transform="matrix(1 0 0 1 71.4 108.4966)" class="st3 st2"> Trump likely to take aim at Obama environment initiatives</text>
	<g>
		<rect x="0.5" y="118.4" class="st4" width="58.6" height="24.9"/>
		<rect x="59.1" y="118.4" class="st5" width="8.1" height="24.9"/>
		<rect x="67.2" y="118.4" class="st6" width="28.7" height="24.9"/>
		<rect x="95.9" y="118.4" class="st4" width="3.3" height="24.9"/>
		<rect x="99.2" y="118.4" class="st4" width="5.9" height="24.9"/>
		<rect x="105" y="118.4" class="st4" width="11.1" height="24.9"/>
		<rect x="116.1" y="118.4" class="st4" width="11.1" height="24.9"/>
		<rect x="127.2" y="118.4" class="st4" width="15.8" height="24.9"/>
		<rect x="143" y="118.4" class="st4" width="17.1" height="24.9"/>
		<rect x="160" y="118.4" class="st4" width="6.1" height="24.9"/>
		<rect x="166.1" y="118.4" class="st4" width="9.9" height="24.9"/>
		<rect x="176.1" y="118.4" class="st4" width="12.1" height="24.9"/>
		<rect x="188.1" y="118.4" class="st4" width="36" height="24.9"/>
		<rect x="224.1" y="118.4" class="st4" width="77" height="24.9"/>
		<rect x="301.1" y="118.4" class="st4" width="13" height="24.9"/>
		<rect x="314.1" y="118.4" class="st4" width="19.9" height="24.9"/>
		<rect x="334" y="118.4" class="st4" width="10.9" height="24.9"/>
		<rect x="344.9" y="118.4" class="st4" width="19.2" height="24.9"/>
		<rect x="364.1" y="118.4" class="st4" width="11.7" height="24.9"/>
		<rect x="375.9" y="118.4" class="st4" width="11.7" height="24.9"/>
		<rect x="387.6" y="118.4" class="st4" width="10.4" height="24.9"/>
		<rect x="398.1" y="118.4" class="st4" width="9.9" height="24.9"/>
		<rect x="408" y="118.4" class="st4" width="5" height="24.9"/>
		<rect x="413" y="118.4" class="st4" width="6.1" height="24.9"/>
		<rect x="419.1" y="118.4" class="st4" width="13.7" height="24.9"/>
		<rect x="432.9" y="118.4" class="st4" width="51" height="24.9"/>
		<rect x="483.9" y="118.4" class="st4" width="83.2" height="24.9"/>
	</g>
</g>
<g>
	<text transform="matrix(1 0 0 1 0.4957 501.2644)" class="st1 st2">New York Times — </text>
	<text transform="matrix(1 0 0 1 111.7957 501.2644)" class="st3 st2">Fact-Checking The First Presidential Debate</text>
	<rect x="14.2" y="512.6" class="st4" width="12" height="24.9"/>
	<rect y="512.6" class="st4" width="14.2" height="24.9"/>
	<rect x="26.2" y="512.6" class="st5" width="11" height="24.9"/>
	<rect x="37.2" y="512.6" class="st4" width="47.9" height="24.9"/>
	<rect x="85.1" y="512.6" class="st5" width="12" height="24.9"/>
	<rect x="97.1" y="512.6" class="st6" width="50" height="24.9"/>
	<rect x="147.1" y="512.6" class="st4" width="16.1" height="24.9"/>
	<rect x="163.2" y="512.6" class="st4" width="17.1" height="24.9"/>
	
		<linearGradient id="SVGID_1_" gradientUnits="userSpaceOnUse" x1="180.3" y1="14.95" x2="268.7" y2="14.95" gradientTransform="matrix(1 0 0 -1 0 540)">
		<stop  offset="0" style="stop-color:#D9D9D9"/>
		<stop  offset="0.2697" style="stop-color:#E9E9E9"/>
		<stop  offset="0.5765" style="stop-color:#F2F2F2"/>
		<stop  offset="1" style="stop-color:#F5F5F5"/>
	</linearGradient>
	<rect x="180.3" y="512.6" class="st7" width="88.4" height="24.9"/>
</g>
<g>
	<g>
		<text transform="matrix(1 0 0 1 0.4957 403.8965)" class="st1 st2">New York Times —  </text>
		<text transform="matrix(1 0 0 1 114.8957 403.8965)" class="st3 st2">Trump and Trudeau Policy Differences</text>
		<rect x="38.1" y="415.8" class="st4" width="45.3" height="24.9"/>
		<rect y="415.8" class="st4" width="38.1" height="24.9"/>
		<rect x="83.4" y="415.8" class="st5" width="39.1" height="24.9"/>
		<rect x="122.5" y="415.8" class="st4" width="43.1" height="24.9"/>
		<rect x="165.6" y="415.8" class="st5" width="30.8" height="24.9"/>
		<rect x="196.4" y="415.8" class="st4" width="38" height="24.9"/>
	</g>
	<rect x="234.4" y="415.8" class="st5" width="32.3" height="24.9"/>
	<rect x="266.7" y="415.8" class="st4" width="51.9" height="24.9"/>
	<rect x="318.6" y="415.8" class="st4" width="49" height="24.9"/>
</g>
<rect x="-0.3" y="20" class="st8" width="4.2" height="11.9"/>
<text transform="matrix(1 0 0 1 9.4104 29.802)" class="st1 st9">Trump speaking</text>
<rect x="-0.3" y="36.3" class="st6" width="4.2" height="11.9"/>
<text transform="matrix(1 0 0 1 9.4104 46.1892)" class="st1 st9">Trump appearing</text>
</svg>
