<?xml version="1.0" encoding="utf-8"?>
<!-- Generator: Adobe Illustrator 21.0.0, SVG Export Plug-In . SVG Version: 6.00 Build 0)  -->
<svg version="1.1" id="Livello_1" xmlns="http://www.w3.org/2000/svg" xmlns:xlink="http://www.w3.org/1999/xlink" x="0px" y="0px"
	 width="285.8px" height="246px" viewBox="0 0 285.8 246" style="enable-background:new 0 0 285.8 246;" xml:space="preserve">
<style type="text/css">
	.st0{font-family:'CrimsonText-Roman';}
	.st1{font-size:18px;}
	.st2{opacity:0.3;fill:#52514E;}
	.st3{fill:#007CA3;}
	.st4{opacity:0.3;fill:#A0A0A0;}
	.st5{font-size:19.422px;}
	.st6{fill:none;stroke:#000000;stroke-width:0.5;stroke-miterlimit:10;}
</style>
<text transform="matrix(1 0 0 1 8.388 32.933)" class="st0 st1">2014</text>
<text transform="matrix(1 0 0 1 65.8668 32.933)" class="st0 st1">2015</text>
<text transform="matrix(1 0 0 1 123.3807 32.9332)" class="st0 st1">2016</text>
<rect x="57.5" y="48.5" class="st2" width="50.8" height="126"/>
<rect y="56.9" class="st2" width="50.8" height="117.6"/>
<rect x="115" y="81.1" class="st3" width="50.8" height="93.5"/>
<rect x="64.2" y="139.6" transform="matrix(-1.836970e-16 1 -1 -1.836970e-16 296.7256 130.9432)" class="st4" width="37.4" height="148.4"/>
<g>
	<text transform="matrix(1 0 0 1 33.2262 219.6972)" class="st0 st5">Actor’s name</text>
</g>
<g>
	<text transform="matrix(1 0 0 1 199.2223 123.0125)"><tspan x="0" y="0" class="st0 st5">Number</tspan><tspan x="0" y="23.3" class="st0 st5">of pictures</tspan></text>
</g>
<polyline class="st6" points="176.8,81.1 188.3,81.1 188.3,174.5 176.8,174.5 "/>
</svg>
