<?xml version="1.0" encoding="utf-8"?>
<!-- Generator: Adobe Illustrator 21.0.0, SVG Export Plug-In . SVG Version: 6.00 Build 0)  -->
<svg version="1.1" id="Livello_1" xmlns="http://www.w3.org/2000/svg" xmlns:xlink="http://www.w3.org/1999/xlink" x="0px" y="0px"
	 width="755.2px" height="191.2px" viewBox="0 0 755.2 191.2" style="enable-background:new 0 0 755.2 191.2;" xml:space="preserve"
	>
<style type="text/css">
	.st0{fill:#999999;}
	.st1{fill:none;stroke:#000000;stroke-miterlimit:10;}
	.st2{font-family:'CrimsonText-Roman';}
	.st3{font-size:10px;}
	.st4{font-family:'CrimsonText-Bold';}
	.st5{font-size:12px;}
	.st6{enable-background:new    ;}
	.st7{opacity:0.8;}
	.st8{fill:#E5C67A;}
	.st9{fill:#007CA8;}
</style>
<rect x="211.3" y="146.9" class="st0" width="32.2" height="8.6"/>
<rect x="29.3" y="106.8" class="st1" width="32.2" height="32.2"/>
<rect x="211.3" y="106.8" class="st1" width="32.2" height="32.2"/>
<text transform="matrix(1 0 0 1 32.2536 161.1462)" class="st2 st3">article</text>
<rect x="90.5" y="107.3" class="st1" width="32.2" height="32.2"/>
<text transform="matrix(1 0 0 1 87.9563 161.1464)" class="st2 st3">images palette</text>
<line class="st1" x1="95.4" y1="107.3" x2="95.4" y2="139.3"/>
<line class="st1" x1="106.4" y1="107.3" x2="106.4" y2="139.3"/>
<line class="st1" x1="119.4" y1="107.3" x2="119.4" y2="139.3"/>
<text transform="matrix(1 0 0 1 29.6638 32.6445)" class="st4 st5">Glyphs</text>
<text transform="matrix(1 0 0 1 619.3784 32.6444)" class="st4 st5">Glyphs’s position</text>
<text transform="matrix(1 0 0 1 206.2807 66.5465)" class="st2 st5">Article</text>
<text transform="matrix(1 0 0 1 206.2807 80.9465)" class="st2 st5">text</text>
<text transform="matrix(1 0 0 1 29.6637 66.6636)" class="st2 st5">Content</text>
<text transform="matrix(1 0 0 1 29.6637 81.0636)" class="st2 st5">picture</text>
<g class="st6">
	<path d="M211.5,94.4c0.3,0.3,0.4,0.6,0.4,1s-0.1,0.8-0.4,1c-0.3,0.3-0.7,0.4-1.3,0.4h-0.9v2h-0.6v-4.9h1.6
		C210.8,94,211.2,94.1,211.5,94.4z M209.3,96.3h0.9c0.4,0,0.6-0.1,0.8-0.2c0.2-0.2,0.3-0.4,0.3-0.7c0-0.6-0.3-0.9-1-0.9h-0.9v1.8
		H209.3z"/>
	<path d="M214.4,96.8v2h-0.6v-4.9h1.6c0.5,0,1,0.1,1.2,0.4c0.3,0.3,0.4,0.6,0.4,1s-0.1,0.7-0.3,1s-0.5,0.4-0.9,0.5l1.3,2h-0.8
		l-1.3-2H214.4z M214.4,94.5v1.8h0.9c0.4,0,0.6-0.1,0.8-0.2c0.2-0.2,0.3-0.4,0.3-0.7c0-0.6-0.3-0.9-1-0.9
		C215.4,94.5,214.4,94.5,214.4,94.5z"/>
	<path d="M221.3,98.9c-0.7,0-1.3-0.2-1.8-0.7s-0.7-1.1-0.7-1.8c0-0.7,0.2-1.3,0.7-1.8s1.1-0.7,1.8-0.7s1.3,0.2,1.8,0.7
		s0.7,1.1,0.7,1.8s-0.2,1.3-0.7,1.8C222.6,98.6,222,98.9,221.3,98.9z M222.6,97.8c0.3-0.3,0.5-0.8,0.5-1.4s-0.2-1-0.5-1.4
		s-0.8-0.5-1.3-0.5s-1,0.2-1.3,0.5s-0.5,0.8-0.5,1.4s0.2,1,0.5,1.4c0.3,0.3,0.8,0.5,1.3,0.5S222.2,98.1,222.6,97.8z"/>
	<path d="M227,98.8l-1.9-4.9h0.7l1.5,4.2l1.5-4.2h0.7l-1.9,4.9H227z"/>
	<path d="M231.3,98.8v-4.9h0.6v4.9H231.3z"/>
	<path d="M235.5,94c0.8,0,1.4,0.2,1.9,0.7c0.5,0.4,0.7,1,0.7,1.8s-0.2,1.3-0.7,1.8c-0.5,0.4-1.1,0.6-1.9,0.6H234V94H235.5z
		 M234.6,98.3h0.9c0.6,0,1.1-0.2,1.4-0.5s0.5-0.8,0.5-1.4s-0.2-1.1-0.5-1.4s-0.8-0.5-1.4-0.5h-0.9V98.3z"/>
	<path d="M242.4,94v0.5h-1.9v1.7h1.7v0.5h-1.7v1.7h1.9v0.5h-2.6V94C239.8,94,242.4,94,242.4,94z"/>
	<path d="M245,96.8v2h-0.6v-4.9h1.6c0.5,0,1,0.1,1.2,0.4c0.3,0.3,0.4,0.6,0.4,1s-0.1,0.7-0.3,1s-0.5,0.4-0.9,0.5l1.3,2h-0.8l-1.3-2
		H245z M245,94.5v1.8h0.9c0.4,0,0.6-0.1,0.8-0.2c0.2-0.2,0.3-0.4,0.3-0.7c0-0.6-0.3-0.9-1-0.9C246,94.5,245,94.5,245,94.5z"/>
</g>
<text transform="matrix(1 0 0 1 287.8784 124.4345)" class="st2 st3">picture subject</text>
<g class="st7">
	<g>
		<line class="st1" x1="234.9" y1="122.8" x2="282.9" y2="122.8"/>
		<g>
			<polygon points="236.5,125.3 236.9,124.8 234.8,122.8 236.9,120.8 236.5,120.4 233.9,122.8 			"/>
		</g>
	</g>
</g>
<text transform="matrix(1 0 0 1 287.8784 146.6845)" class="st6"><tspan x="0" y="0" class="st2 st3">Trump’s</tspan><tspan x="0" y="12" class="st2 st3">adjective</tspan></text>
<g class="st7">
	<g>
		<line class="st1" x1="234.9" y1="151.1" x2="282.9" y2="151.1"/>
		<g>
			<polygon points="236.5,153.6 236.9,153.1 234.8,151.1 236.9,149.1 236.5,148.6 233.9,151.1 			"/>
		</g>
	</g>
</g>
<rect x="358.1" y="151" class="st8" width="9.5" height="9.5"/>
<g class="st6">
	<path d="M380.1,153.6h0.6v4.9h-0.6l-2.6-3.8v3.8h-0.6v-4.9h0.6l2.6,3.8V153.6z"/>
	<path d="M385.4,153.6v0.5h-1.9v1.7h1.7v0.5h-1.7v1.7h1.9v0.5h-2.6v-4.9H385.4z"/>
	<path d="M389.5,158.5c-0.7,0-1.2-0.2-1.7-0.7s-0.7-1.1-0.7-1.8s0.2-1.3,0.7-1.8s1.1-0.7,1.8-0.7c0.5,0,1,0.1,1.3,0.4
		c0.4,0.2,0.7,0.6,0.9,1H391c-0.3-0.5-0.8-0.8-1.4-0.8c-0.5,0-1,0.2-1.3,0.5s-0.5,0.8-0.5,1.4c0,0.6,0.2,1,0.5,1.4
		c0.3,0.3,0.8,0.5,1.3,0.5s0.9-0.1,1.2-0.4c0.3-0.3,0.5-0.7,0.5-1.2h-2v-0.5h2.7v0.5c-0.1,0.6-0.3,1.1-0.8,1.6
		C390.8,158.3,390.2,158.5,389.5,158.5z"/>
	<path d="M397.1,158.5l-0.4-1.1h-2.1l-0.4,1.1h-0.6l1.8-4.9h0.7l1.8,4.9H397.1z M394.9,156.9h1.8l-0.9-2.5L394.9,156.9z"/>
	<path d="M399.4,154.1v-0.5h3.2v0.5h-1.3v4.3h-0.6v-4.3H399.4z"/>
	<path d="M404.4,158.5v-4.9h0.6v4.9H404.4z"/>
	<path d="M408.6,158.5l-1.9-4.9h0.7l1.5,4.2l1.5-4.2h0.7l-1.9,4.9H408.6z"/>
	<path d="M415.4,153.6v0.5h-1.9v1.7h1.7v0.5h-1.7v1.7h1.9v0.5h-2.6v-4.9H415.4z"/>
</g>
<rect x="435.9" y="151" width="9.5" height="9.5"/>
<g class="st6">
	<path d="M457.9,153.6h0.6v4.9h-0.6l-2.6-3.8v3.8h-0.6v-4.9h0.6l2.6,3.8V153.6z"/>
	<path d="M463.2,153.6v0.5h-1.9v1.7h1.7v0.5h-1.7v1.7h1.9v0.5h-2.6v-4.9H463.2z"/>
	<path d="M465.1,156.8v-3.1h0.6v3.1c0,0.4,0.1,0.7,0.3,0.9c0.2,0.2,0.5,0.3,0.9,0.3s0.7-0.1,0.9-0.3s0.3-0.5,0.3-0.9v-3.1h0.6v3.1
		c0,0.6-0.2,1-0.5,1.3s-0.8,0.4-1.3,0.4s-1-0.1-1.3-0.4C465.4,157.8,465.1,157.3,465.1,156.8z"/>
	<path d="M470.6,154.1v-0.5h3.2v0.5h-1.3v4.3H472v-4.3H470.6z"/>
	<path d="M476.4,156.5v2h-0.6v-4.9h1.6c0.5,0,1,0.1,1.2,0.4c0.3,0.3,0.4,0.6,0.4,1s-0.1,0.7-0.3,1s-0.5,0.4-0.9,0.5l1.3,2h-0.8
		l-1.3-2H476.4z M476.4,154.1v1.8h0.9c0.3,0,0.6-0.1,0.8-0.2c0.2-0.2,0.3-0.4,0.3-0.7c0-0.6-0.3-0.9-1-0.9L476.4,154.1L476.4,154.1z
		"/>
	<path d="M484.4,158.5l-0.4-1.1h-2.2l-0.4,1.1h-0.7l1.8-4.9h0.7l1.8,4.9H484.4z M482,156.9h1.8l-0.9-2.5L482,156.9z"/>
	<path d="M486.9,153.6h0.6v4.4h1.7v0.5h-2.3L486.9,153.6L486.9,153.6z"/>
</g>
<rect x="510.9" y="151" class="st9" width="9.5" height="9.5"/>
<g class="st6">
	<path d="M532.5,154c0.3,0.3,0.4,0.6,0.4,1s-0.1,0.8-0.4,1s-0.7,0.4-1.3,0.4h-0.9v2h-0.6v-4.9h1.6
		C531.8,153.6,532.3,153.7,532.5,154z M530.4,156h0.9c0.4,0,0.6-0.1,0.8-0.2c0.2-0.2,0.3-0.4,0.3-0.7c0-0.6-0.3-0.9-1-0.9h-0.9
		L530.4,156L530.4,156z"/>
	<path d="M537,158.5c-0.7,0-1.3-0.2-1.8-0.7s-0.7-1.1-0.7-1.8s0.2-1.3,0.7-1.8s1.1-0.7,1.8-0.7s1.3,0.2,1.8,0.7s0.7,1.1,0.7,1.8
		s-0.2,1.3-0.7,1.8S537.8,158.5,537,158.5z M538.3,157.4c0.3-0.3,0.5-0.8,0.5-1.4c0-0.6-0.2-1-0.5-1.4c-0.3-0.4-0.8-0.5-1.3-0.5
		s-1,0.2-1.3,0.5c-0.3,0.3-0.5,0.8-0.5,1.4c0,0.6,0.2,1,0.5,1.4c0.3,0.4,0.8,0.5,1.3,0.5S537.9,157.8,538.3,157.4z"/>
	<path d="M541.8,154.9c0,0.2,0,0.3,0.1,0.4c0.1,0.1,0.2,0.2,0.4,0.3c0.2,0.1,0.3,0.1,0.5,0.1s0.4,0.1,0.6,0.1
		c0.2,0.1,0.4,0.1,0.5,0.2c0.2,0.1,0.3,0.2,0.4,0.4s0.1,0.4,0.1,0.6c0,0.4-0.1,0.7-0.4,1s-0.7,0.4-1.2,0.4s-0.9-0.1-1.2-0.3
		s-0.5-0.5-0.5-0.9h0.7c0,0.2,0.1,0.4,0.3,0.5s0.4,0.2,0.7,0.2c0.3,0,0.6-0.1,0.7-0.2c0.2-0.2,0.3-0.3,0.3-0.6c0-0.2,0-0.4-0.1-0.5
		c-0.1-0.1-0.2-0.2-0.4-0.3c-0.2-0.1-0.3-0.1-0.5-0.1s-0.4-0.1-0.6-0.1c-0.2-0.1-0.4-0.1-0.5-0.2c-0.2-0.1-0.3-0.2-0.4-0.4
		s-0.1-0.4-0.1-0.6c0-0.4,0.1-0.7,0.4-1c0.3-0.2,0.7-0.4,1.1-0.4c0.4,0,0.8,0.1,1.1,0.3s0.4,0.5,0.5,0.9h-0.6c0-0.2-0.1-0.4-0.3-0.5
		c-0.2-0.1-0.4-0.2-0.7-0.2c-0.3,0-0.5,0.1-0.7,0.2C541.8,154.3,541.8,154.6,541.8,154.9z"/>
	<path d="M546.3,158.5v-4.9h0.6v4.9H546.3z"/>
	<path d="M548.8,154.1v-0.5h3.2v0.5h-1.3v4.3h-0.6v-4.3H548.8z"/>
	<path d="M553.8,158.5v-4.9h0.6v4.9H553.8z"/>
	<path d="M558,158.5l-1.9-4.9h0.7l1.5,4.2l1.5-4.2h0.7l-1.9,4.9H558z"/>
	<path d="M564.8,153.6v0.5H563v1.7h1.7v0.5H563v1.7h1.9v0.5h-2.6v-4.9H564.8z"/>
</g>
<line class="st1" x1="619.4" y1="84.3" x2="619.4" y2="161.3"/>
<line class="st1" x1="618.9" y1="123.8" x2="723.9" y2="123.8"/>
<g class="st6">
	<path d="M637.8,102.3c0.3,0.3,0.4,0.6,0.4,1s-0.1,0.8-0.4,1c-0.3,0.3-0.7,0.4-1.3,0.4h-0.9v2H635v-4.9h1.6
		C637.1,101.9,637.5,102,637.8,102.3z M635.6,104.2h0.9c0.3,0,0.6-0.1,0.8-0.2c0.2-0.2,0.3-0.4,0.3-0.7c0-0.6-0.3-0.9-1-0.9h-0.9
		L635.6,104.2L635.6,104.2z"/>
	<path d="M642.3,106.8c-0.7,0-1.3-0.2-1.8-0.7s-0.7-1.1-0.7-1.8c0-0.7,0.2-1.3,0.7-1.8s1.1-0.7,1.8-0.7s1.3,0.2,1.8,0.7
		s0.7,1.1,0.7,1.8s-0.2,1.3-0.7,1.8C643.5,106.6,642.9,106.8,642.3,106.8z M643.6,105.7c0.3-0.3,0.5-0.8,0.5-1.4s-0.2-1-0.5-1.4
		s-0.8-0.5-1.3-0.5s-1,0.2-1.3,0.5s-0.5,0.8-0.5,1.4s0.2,1,0.5,1.4c0.3,0.3,0.8,0.5,1.3,0.5S643.2,106.1,643.6,105.7z"/>
	<path d="M647,103.2c0,0.2,0,0.3,0.1,0.4s0.2,0.2,0.4,0.3c0.2,0.1,0.3,0.1,0.5,0.1s0.4,0.1,0.6,0.1c0.2,0.1,0.4,0.1,0.5,0.2
		s0.3,0.2,0.4,0.4c0.1,0.2,0.1,0.4,0.1,0.6c0,0.4-0.1,0.7-0.4,1c-0.3,0.3-0.7,0.4-1.2,0.4s-0.9-0.1-1.2-0.3
		c-0.3-0.2-0.5-0.5-0.5-0.9h0.7c0,0.2,0.1,0.4,0.3,0.5s0.4,0.2,0.7,0.2s0.6-0.1,0.7-0.2c0.2-0.2,0.3-0.3,0.3-0.6
		c0-0.2,0-0.4-0.1-0.5s-0.2-0.2-0.4-0.3c-0.2-0.1-0.3-0.1-0.5-0.1s-0.4-0.1-0.6-0.1c-0.2-0.1-0.4-0.1-0.5-0.2
		c-0.2-0.1-0.3-0.2-0.4-0.4c-0.1-0.2-0.1-0.4-0.1-0.6c0-0.4,0.1-0.7,0.4-1c0.3-0.2,0.7-0.4,1.1-0.4c0.5,0,0.8,0.1,1.1,0.3
		c0.3,0.2,0.4,0.5,0.5,0.9h-0.7c0-0.2-0.1-0.4-0.3-0.5s-0.4-0.2-0.7-0.2s-0.5,0.1-0.7,0.2C647.1,102.7,647,102.9,647,103.2z"/>
	<path d="M651.6,106.8v-4.9h0.6v4.9H651.6z"/>
	<path d="M654.1,102.4v-0.5h3.2v0.5H656v4.3h-0.6v-4.3H654.1z"/>
	<path d="M659.1,106.8v-4.9h0.6v4.9H659.1z"/>
	<path d="M663.3,106.8l-1.9-4.9h0.7l1.5,4.2l1.5-4.2h0.7l-1.9,4.9H663.3z"/>
	<path d="M670.1,101.9v0.5h-1.9v1.7h1.7v0.5h-1.7v1.7h1.9v0.5h-2.6v-4.9C667.5,101.9,670.1,101.9,670.1,101.9z"/>
	<path d="M675.7,103.2c0,0.2,0,0.3,0.1,0.4s0.2,0.2,0.4,0.3c0.2,0.1,0.3,0.1,0.5,0.1s0.4,0.1,0.6,0.1c0.2,0.1,0.4,0.1,0.5,0.2
		c0.2,0.1,0.3,0.2,0.4,0.4c0.1,0.2,0.1,0.4,0.1,0.6c0,0.4-0.1,0.7-0.4,1s-0.7,0.4-1.2,0.4s-0.9-0.1-1.2-0.3
		c-0.3-0.2-0.5-0.5-0.5-0.9h0.7c0,0.2,0.1,0.4,0.3,0.5s0.4,0.2,0.7,0.2s0.6-0.1,0.7-0.2c0.2-0.2,0.3-0.3,0.3-0.6
		c0-0.2,0-0.4-0.1-0.5s-0.2-0.2-0.4-0.3c-0.2-0.1-0.3-0.1-0.5-0.1s-0.4-0.1-0.6-0.1c-0.2-0.1-0.4-0.1-0.5-0.2
		c-0.2-0.1-0.3-0.2-0.4-0.4c-0.1-0.2-0.1-0.4-0.1-0.6c0-0.4,0.1-0.7,0.4-1c0.3-0.2,0.7-0.4,1.1-0.4s0.8,0.1,1.1,0.3s0.4,0.5,0.5,0.9
		h-0.7c0-0.2-0.1-0.4-0.3-0.5s-0.4-0.2-0.7-0.2s-0.5,0.1-0.7,0.2S675.7,102.9,675.7,103.2z"/>
	<path d="M682.8,101.9v0.5h-1.9v1.7h1.7v0.5h-1.7v1.7h1.9v0.5h-2.6v-4.9C680.2,101.9,682.8,101.9,682.8,101.9z"/>
	<path d="M688,101.9h0.6v4.9H688l-2.6-3.8v3.8h-0.6v-4.9h0.6l2.6,3.8V101.9z"/>
	<path d="M690.5,102.4v-0.5h3.2v0.5h-1.3v4.3h-0.6v-4.3H690.5z"/>
	<path d="M695.5,106.8v-4.9h0.6v4.9H695.5z"/>
	<path d="M703.1,101.9v4.9h-0.6v-3.5l-1.6,3.5h-0.4l-1.6-3.5v3.5h-0.6v-4.9h0.7l1.8,4l1.8-4H703.1z"/>
	<path d="M707.7,101.9v0.5h-1.9v1.7h1.7v0.5h-1.7v1.7h1.9v0.5h-2.6v-4.9C705.1,101.9,707.7,101.9,707.7,101.9z"/>
	<path d="M712.9,101.9h0.6v4.9h-0.6l-2.6-3.8v3.8h-0.6v-4.9h0.6l2.6,3.8V101.9z"/>
	<path d="M715.4,102.4v-0.5h3.2v0.5h-1.3v4.3h-0.6v-4.3H715.4z"/>
</g>
<g class="st6">
	<path d="M638.2,141.9h0.6v4.9h-0.6l-2.6-3.8v3.8H635v-4.9h0.6l2.6,3.8L638.2,141.9L638.2,141.9z"/>
	<path d="M643.4,141.9v0.5h-1.9v1.7h1.7v0.5h-1.7v1.7h1.9v0.5h-2.6v-4.9H643.4z"/>
	<path d="M647.6,146.8c-0.7,0-1.2-0.2-1.7-0.7s-0.7-1.1-0.7-1.8s0.2-1.3,0.7-1.8s1.1-0.7,1.8-0.7c0.5,0,1,0.1,1.3,0.4
		c0.4,0.2,0.7,0.6,0.9,1h-0.8c-0.3-0.5-0.8-0.8-1.4-0.8c-0.5,0-1,0.2-1.3,0.5s-0.5,0.8-0.5,1.4c0,0.6,0.2,1,0.5,1.4s0.8,0.5,1.3,0.5
		s0.9-0.1,1.2-0.4c0.3-0.3,0.5-0.7,0.5-1.2h-2v-0.5h2.7v0.5c-0.1,0.6-0.3,1.1-0.8,1.6C648.8,146.6,648.3,146.8,647.6,146.8z"/>
	<path d="M655.2,146.7l-0.4-1.1h-2.2l-0.4,1.1h-0.7l1.8-4.9h0.7l1.8,4.9H655.2z M652.8,145.2h1.8l-0.9-2.5L652.8,145.2z"/>
	<path d="M657.4,142.4v-0.5h3.2v0.5h-1.3v4.3h-0.6v-4.3H657.4z"/>
	<path d="M662.5,146.7v-4.9h0.6v4.9H662.5z"/>
	<path d="M666.7,146.7l-1.9-4.9h0.7l1.5,4.2l1.5-4.2h0.7l-1.9,4.9H666.7z"/>
	<path d="M673.5,141.9v0.5h-1.9v1.7h1.7v0.5h-1.7v1.7h1.9v0.5h-2.6v-4.9H673.5z"/>
	<path d="M679.1,143.2c0,0.2,0,0.3,0.1,0.4c0.1,0.1,0.2,0.2,0.4,0.3s0.3,0.1,0.5,0.1s0.4,0.1,0.6,0.1c0.2,0.1,0.4,0.1,0.5,0.2
		c0.2,0.1,0.3,0.2,0.4,0.4c0.1,0.2,0.1,0.4,0.1,0.6c0,0.4-0.1,0.7-0.4,1s-0.7,0.4-1.2,0.4s-0.9-0.1-1.2-0.3s-0.5-0.5-0.5-0.9h0.7
		c0,0.2,0.1,0.4,0.3,0.5s0.4,0.2,0.7,0.2s0.6-0.1,0.7-0.2c0.2-0.2,0.3-0.3,0.3-0.6c0-0.2,0-0.4-0.1-0.5s-0.2-0.2-0.4-0.3
		s-0.3-0.1-0.5-0.1s-0.4-0.1-0.6-0.1c-0.2-0.1-0.4-0.1-0.5-0.2c-0.2-0.1-0.3-0.2-0.4-0.4c-0.1-0.2-0.1-0.4-0.1-0.6
		c0-0.4,0.1-0.7,0.4-1c0.3-0.2,0.7-0.4,1.1-0.4s0.8,0.1,1.1,0.3s0.4,0.5,0.5,0.9h-0.7c0-0.2-0.1-0.4-0.3-0.5s-0.4-0.2-0.7-0.2
		s-0.5,0.1-0.7,0.2S679.1,142.9,679.1,143.2z"/>
	<path d="M686.2,141.9v0.5h-1.9v1.7h1.7v0.5h-1.7v1.7h1.9v0.5h-2.6v-4.9H686.2z"/>
	<path d="M691.4,141.9h0.6v4.9h-0.6l-2.6-3.8v3.8h-0.6v-4.9h0.6l2.6,3.8V141.9z"/>
	<path d="M693.8,142.4v-0.5h3.2v0.5h-1.3v4.3h-0.6v-4.3H693.8z"/>
	<path d="M698.9,146.7v-4.9h0.6v4.9H698.9z"/>
	<path d="M706.5,141.9v4.9h-0.6v-3.5l-1.6,3.5h-0.4l-1.6-3.5v3.5h-0.6v-4.9h0.7l1.8,4l1.8-4H706.5z"/>
	<path d="M711.1,141.9v0.5h-1.9v1.7h1.7v0.5h-1.7v1.7h1.9v0.5h-2.6v-4.9H711.1z"/>
	<path d="M716.3,141.9h0.6v4.9h-0.6l-2.6-3.8v3.8h-0.6v-4.9h0.6l2.6,3.8V141.9z"/>
	<path d="M718.7,142.4v-0.5h3.2v0.5h-1.3v4.3H720v-4.3H718.7z"/>
</g>
<text transform="matrix(1 0 0 1 620.3452 66.5465)" class="st2 st5">Article sentiment</text>
</svg>
