<?xml version="1.0" encoding="utf-8"?>
<!-- Generator: Adobe Illustrator 21.0.0, SVG Export Plug-In . SVG Version: 6.00 Build 0)  -->
<svg version="1.1" id="Layer_1" xmlns="http://www.w3.org/2000/svg" xmlns:xlink="http://www.w3.org/1999/xlink" x="0px" y="0px"
	 viewBox="0 0 1390 900.1" style="enable-background:new 0 0 1390 900.1;" xml:space="preserve">
<style type="text/css">
	.st0{fill:#85DDA8;}
	.st1{fill:#737370;}
	.st2{fill:#1D1D1B;}
	.st3{fill:#7FD3A1;}
	.st4{fill:#FFFFFF;}
</style>
<g>
	<g>
		<rect x="700" y="489.1" class="st0" width="2.9" height="2.4"/>
	</g>
	<g>
		<path class="st0" d="M702.9,516.1H700V512h2.9V516.1z M702.9,507.9H700v-4.1h2.9V507.9z M702.9,499.7H700v-4.1h2.9V499.7z"/>
	</g>
	<g>
		<rect x="700" y="520.2" class="st0" width="2.9" height="2.4"/>
	</g>
	<g>
		<g>
			<path class="st0" d="M701.5,531.3c-1.5-4.1-4.1-9.1-6.8-12.3l6.8,2.5l6.8-2.5C705.5,522.1,703,527.2,701.5,531.3z"/>
		</g>
	</g>
</g>
<g>
	<g>
		<rect x="527.3" y="741.9" class="st0" width="2.9" height="2.4"/>
	</g>
	<g>
		<path class="st0" d="M530.1,778.9h-2.9v-4.3h2.9V778.9z M530.1,770.3h-2.9v-4.3h2.9V770.3z M530.1,761.6h-2.9v-4.3h2.9V761.6z
			 M530.1,753h-2.9v-4.3h2.9V753z"/>
	</g>
	<g>
		<rect x="527.3" y="783.2" class="st0" width="2.9" height="2.4"/>
	</g>
	<g>
		<g>
			<path class="st0" d="M528.7,794.3c-1.5-4.1-4.1-9.1-6.8-12.3l6.8,2.5l6.8-2.5C532.8,785.2,530.2,790.2,528.7,794.3z"/>
		</g>
	</g>
</g>
<g>
	<path class="st1" d="M937.2,354.9H465.7v-83.2h471.4V354.9z M468.1,352.5h466.7v-78.4H468.1V352.5z"/>
</g>
<g>
	<path class="st2" d="M631,309.2L631,309.2l-4.1,11h-2l-4-11l-0.1,0l0.3,6.6v2.3l1.6,0.3v1.8h-6.2v-1.8l1.6-0.3v-10.7l-1.6-0.3v-1.8
		h1.6h3.9l3.8,11h0.1l3.8-11h5.5v1.8l-1.6,0.3v10.7l1.6,0.3v1.8h-6.2v-1.8l1.6-0.3v-2.3L631,309.2z"/>
	<path class="st2" d="M636.2,318.4l1.1-0.2l4.5-13h3.1l4.5,13l1.1,0.2v1.8h-5.1v-1.8l1-0.2l-0.7-2.1h-4.8l-0.7,2.1l1,0.2v1.8h-5.1
		V318.4z M641.6,314h3.4l-1.7-5.3h-0.1L641.6,314z"/>
	<path class="st2" d="M658.6,305.3c1.7,0,3.1,0.4,4,1.3c1,0.9,1.5,2,1.5,3.5c0,1.4-0.5,2.6-1.5,3.4c-1,0.9-2.3,1.3-4,1.3h-2.5v3.3
		l1.6,0.3v1.8h-6.2v-1.8l1.6-0.3v-10.7l-1.6-0.3v-1.8h1.6H658.6z M656.1,312.5h2.5c0.8,0,1.5-0.2,1.9-0.7c0.4-0.5,0.6-1,0.6-1.7
		c0-0.7-0.2-1.3-0.6-1.8c-0.4-0.5-1.1-0.7-1.9-0.7h-2.5V312.5z"/>
	<path class="st2" d="M672.2,305.3c1.7,0,3.1,0.4,4,1.3c1,0.9,1.5,2,1.5,3.5c0,1.4-0.5,2.6-1.5,3.4c-1,0.9-2.3,1.3-4,1.3h-2.5v3.3
		l1.6,0.3v1.8h-6.2v-1.8l1.6-0.3v-10.7l-1.6-0.3v-1.8h1.6H672.2z M669.6,312.5h2.5c0.8,0,1.5-0.2,1.9-0.7c0.4-0.5,0.6-1,0.6-1.7
		c0-0.7-0.2-1.3-0.6-1.8c-0.4-0.5-1.1-0.7-1.9-0.7h-2.5V312.5z"/>
	<path class="st2" d="M678.6,307.1v-1.8h6.2v1.8l-1.6,0.3v10.7l1.6,0.3v1.8h-6.2v-1.8l1.6-0.3v-10.7L678.6,307.1z"/>
	<path class="st2" d="M701.2,305.3v1.8l-1.6,0.3v12.8h-3l-6-10l-0.1,0v7.9l1.6,0.3v1.8H686v-1.8l1.6-0.3v-10.7l-1.6-0.3v-1.8h1.6h3
		l6,10l0.1,0v-7.9l-1.6-0.3v-1.8h4.6H701.2z"/>
	<path class="st2" d="M714.6,318.6c-0.5,0.5-1.2,0.9-2.1,1.3c-0.9,0.4-2.1,0.6-3.5,0.6c-2,0-3.7-0.7-4.9-2s-1.9-3.1-1.9-5.3v-0.5
		c0-2.2,0.6-4.1,1.9-5.5c1.2-1.4,2.9-2.1,4.9-2.1c1.2,0,2.2,0.2,3.2,0.6c1,0.4,1.8,0.9,2.4,1.5v3h-2.2l-0.4-2
		c-0.3-0.2-0.6-0.4-1.1-0.6c-0.4-0.1-1-0.2-1.5-0.2c-1.3,0-2.3,0.5-3,1.4s-1.1,2.2-1.1,3.8v0.5c0,1.5,0.4,2.7,1.1,3.6
		c0.7,0.9,1.7,1.4,3.1,1.4c0.6,0,1.1-0.1,1.5-0.2c0.4-0.1,0.7-0.2,0.9-0.4v-2.5l-2.1-0.2v-2.1h5.1V318.6z"/>
	<path class="st2" d="M728.3,305.3c1.7,0,3.1,0.4,4,1.3c1,0.9,1.5,2,1.5,3.5c0,1.4-0.5,2.6-1.5,3.4c-1,0.9-2.3,1.3-4,1.3h-2.5v3.3
		l1.6,0.3v1.8h-6.2v-1.8l1.6-0.3v-10.7l-1.6-0.3v-1.8h1.6H728.3z M725.8,312.5h2.5c0.8,0,1.5-0.2,1.9-0.7c0.4-0.5,0.6-1,0.6-1.7
		c0-0.7-0.2-1.3-0.6-1.8c-0.4-0.5-1.1-0.7-1.9-0.7h-2.5V312.5z"/>
	<path class="st2" d="M734.8,307.1v-1.8h6.2v1.8l-1.6,0.3v10.7l1.6,0.3v1.8h-6.2v-1.8l1.6-0.3v-10.7L734.8,307.1z"/>
	<path class="st2" d="M748.8,305.3c1.7,0,3,0.4,4,1.2c1,0.8,1.4,1.8,1.4,3.2c0,0.8-0.2,1.4-0.6,2s-1,1-1.8,1.3
		c0.9,0.3,1.5,0.7,1.9,1.3c0.4,0.6,0.6,1.4,0.6,2.3v0.8c0,0.3,0.1,0.6,0.2,0.8s0.3,0.3,0.6,0.3l0.4,0.1v1.8H754
		c-1,0-1.7-0.3-2.1-0.8s-0.6-1.2-0.6-2v-0.9c0-0.7-0.2-1.3-0.6-1.7c-0.4-0.4-0.9-0.6-1.6-0.7h-2.5v3.9l1.6,0.3v1.8h-6.2v-1.8
		l1.6-0.3v-10.7l-1.6-0.3v-1.8h1.6H748.8z M746.7,311.9h2.1c0.8,0,1.5-0.2,1.9-0.5s0.6-0.9,0.6-1.5s-0.2-1.2-0.6-1.6
		c-0.4-0.4-1-0.6-1.8-0.6h-2.1V311.9z"/>
	<path class="st2" d="M756.4,318.4l1.1-0.2l4.5-13h3.1l4.5,13l1.1,0.2v1.8h-5.1v-1.8l1-0.2l-0.7-2.1h-4.8l-0.7,2.1l1,0.2v1.8h-5.1
		V318.4z M761.8,314h3.4l-1.7-5.3h-0.1L761.8,314z"/>
	<path class="st2" d="M783.2,310.3H781l-0.3-2c-0.3-0.3-0.7-0.5-1.1-0.7c-0.4-0.2-1-0.3-1.6-0.3c-1.3,0-2.3,0.5-3,1.4
		c-0.7,0.9-1.1,2.2-1.1,3.7v0.5c0,1.5,0.3,2.8,1,3.7s1.7,1.4,3,1.4c0.6,0,1.1-0.1,1.6-0.3c0.5-0.2,0.9-0.4,1.1-0.7l0.3-2h2.2v3
		c-0.6,0.7-1.4,1.3-2.3,1.7c-0.9,0.4-2,0.6-3.1,0.6c-2,0-3.6-0.7-4.9-2.1c-1.3-1.4-1.9-3.2-1.9-5.3v-0.5c0-2.2,0.6-3.9,1.9-5.3
		s2.9-2.1,4.9-2.1c1.2,0,2.2,0.2,3.1,0.6c0.9,0.4,1.7,1,2.3,1.7V310.3z"/>
	<path class="st2" d="M790.1,307.1l-1.2,0.2l2.3,4.9h0.1l2.3-4.9l-1.2-0.2v-1.8h5.7v1.8l-1.3,0.2l-4.1,7.7v3.1l1.6,0.3v1.8h-6.2
		v-1.8l1.6-0.3v-3.3l-4-7.5l-1.3-0.2v-1.8h5.7V307.1z"/>
</g>
<g>
	<g>
		<rect x="700" y="354.8" class="st0" width="2.9" height="2.4"/>
	</g>
	<g>
		<path class="st0" d="M702.9,391.8H700v-4.3h2.9V391.8z M702.9,383.1H700v-4.3h2.9V383.1z M702.9,374.5H700v-4.3h2.9V374.5z
			 M702.9,365.8H700v-4.3h2.9V365.8z"/>
	</g>
	<g>
		<rect x="700" y="396.1" class="st0" width="2.9" height="2.4"/>
	</g>
	<g>
		<g>
			<path class="st0" d="M701.5,407.2c-1.5-4.1-4.1-9.1-6.8-12.3l6.8,2.5l6.8-2.5C705.5,398,703,403.1,701.5,407.2z"/>
		</g>
	</g>
</g>
<g id="fact_x5F_01">
	<g id="rettp_x5F_01">
		<rect x="594.5" y="407.2" class="st3" width="213.8" height="81.9"/>
		<path class="st3" d="M809.9,490.6H593v-84.9h216.8V490.6z M596,487.6h210.8v-78.9H596V487.6z"/>
	</g>
	<g id="rettv_x5F_01">
		<rect x="572.5" y="407.2" class="st4" width="257.9" height="81.9"/>
		<path class="st3" d="M832.1,490.7H570.8v-85.2h261.2V490.7z M574.1,487.4h254.6v-78.6H574.1V487.4z"/>
	</g>
	<g id="text1_x5F_01">
		<path class="st2" d="M648.2,437.7c0,2-0.6,3.6-1.7,4.9s-2.6,1.9-4.4,1.9c-1.7,0-3.2-0.6-4.3-1.9c-1.1-1.3-1.6-2.9-1.6-4.9v-0.2
			c0-2,0.5-3.6,1.6-4.9c1.1-1.3,2.5-2,4.3-2c1.8,0,3.3,0.7,4.4,2c1.1,1.3,1.7,2.9,1.7,4.9V437.7z M646.4,437.5
			c0-1.6-0.4-2.9-1.1-3.8c-0.8-1-1.8-1.5-3.1-1.5c-1.3,0-2.3,0.5-3,1.5c-0.7,1-1.1,2.3-1.1,3.8v0.2c0,1.6,0.4,2.9,1.1,3.9
			c0.7,1,1.7,1.5,3,1.5c1.3,0,2.4-0.5,3.1-1.5c0.7-1,1.1-2.3,1.1-3.9V437.5z"/>
		<path class="st2" d="M658.9,439.7c0,1.4-0.3,2.6-1,3.5c-0.7,0.9-1.7,1.3-2.9,1.3c-0.7,0-1.2-0.1-1.7-0.4c-0.5-0.3-0.9-0.6-1.2-1.1
			l-0.2,1.3h-1.6v-13l-1.5-0.3v-1.2h3.3v5.6c0.3-0.4,0.7-0.8,1.2-1c0.5-0.2,1-0.4,1.6-0.4c1.2,0,2.2,0.5,2.9,1.5c0.7,1,1,2.3,1,3.9
			V439.7z M657.1,439.5c0-1.2-0.2-2.1-0.6-2.8c-0.4-0.7-1.1-1.1-1.9-1.1c-0.6,0-1,0.1-1.4,0.4c-0.4,0.3-0.7,0.6-0.9,1.1v4.4
			c0.2,0.5,0.5,0.8,0.9,1.1c0.4,0.3,0.9,0.4,1.4,0.4c0.9,0,1.5-0.3,1.9-0.9c0.4-0.6,0.6-1.4,0.6-2.4V439.5z"/>
		<path class="st2" d="M663.9,431.9v2.4h1.9v1.4h-1.9v6.1c0,0.5,0.1,0.8,0.3,1c0.2,0.2,0.5,0.3,0.8,0.3c0.2,0,0.3,0,0.5,0
			c0.2,0,0.4-0.1,0.5-0.1l0.3,1.3c-0.2,0.1-0.4,0.2-0.8,0.3c-0.3,0.1-0.7,0.1-1,0.1c-0.7,0-1.3-0.2-1.8-0.7
			c-0.4-0.4-0.7-1.2-0.7-2.1v-6.1h-1.6v-1.4h1.6v-2.4H663.9z"/>
		<path class="st2" d="M674.3,444.4c-0.1-0.3-0.1-0.5-0.1-0.7c0-0.2-0.1-0.4-0.1-0.6c-0.4,0.5-0.8,0.8-1.3,1.1
			c-0.5,0.3-1.1,0.4-1.7,0.4c-1,0-1.8-0.3-2.4-0.8c-0.5-0.5-0.8-1.2-0.8-2.2c0-1,0.4-1.7,1.2-2.2c0.8-0.5,1.8-0.8,3.2-0.8h1.9v-1.2
			c0-0.6-0.2-1.1-0.6-1.4c-0.4-0.3-0.9-0.5-1.5-0.5c-0.5,0-0.9,0.1-1.2,0.2c-0.3,0.1-0.6,0.3-0.8,0.5l-0.2,1.1h-1.4v-1.9
			c0.5-0.4,1-0.7,1.7-0.9c0.6-0.2,1.4-0.3,2.1-0.3c1.1,0,2.1,0.3,2.8,0.9c0.7,0.6,1.1,1.4,1.1,2.5v4.8c0,0.1,0,0.3,0,0.4
			c0,0.1,0,0.2,0,0.4l0.7,0.1v1.2H674.3z M671.3,443c0.6,0,1.2-0.1,1.7-0.4c0.5-0.3,0.9-0.6,1.1-1v-1.7h-1.9c-0.7,0-1.3,0.2-1.8,0.5
			c-0.4,0.3-0.7,0.8-0.7,1.3c0,0.4,0.1,0.8,0.4,1C670.4,442.9,670.8,443,671.3,443z"/>
		<path class="st2" d="M678.2,443.2l1.5-0.3v-7.2l-1.5-0.3v-1.2h3.3v8.6l1.5,0.3v1.2h-4.9V443.2z M681.5,431.7h-1.8v-1.9h1.8V431.7z
			"/>
		<path class="st2" d="M684.2,443.2l1.5-0.3v-7.2l-1.5-0.3v-1.2h3.1l0.1,1.5c0.3-0.5,0.8-0.9,1.3-1.2c0.5-0.3,1.1-0.4,1.7-0.4
			c1.1,0,1.9,0.3,2.5,1c0.6,0.6,0.9,1.6,0.9,2.9v4.9l1.5,0.3v1.2h-4.9v-1.2l1.5-0.3v-4.9c0-0.9-0.2-1.5-0.5-1.9s-0.9-0.6-1.6-0.6
			c-0.5,0-1,0.1-1.4,0.4c-0.4,0.3-0.7,0.6-1,1v5.9l1.5,0.3v1.2h-4.9V443.2z"/>
		<path class="st2" d="M711,434.8h-1.4l-0.3-1.9c-0.3-0.2-0.6-0.4-1.1-0.6c-0.5-0.2-1-0.2-1.6-0.2c-1,0-1.7,0.2-2.2,0.6
			c-0.5,0.4-0.8,0.9-0.8,1.6c0,0.6,0.3,1.1,0.8,1.5c0.5,0.4,1.4,0.7,2.6,1c1.4,0.4,2.5,0.9,3.2,1.6s1.1,1.5,1.1,2.6
			c0,1.1-0.4,2-1.3,2.6c-0.9,0.7-2,1-3.5,1c-1,0-2-0.2-2.8-0.5c-0.8-0.3-1.5-0.8-2-1.3v-2.5h1.4l0.4,1.9c0.4,0.3,0.8,0.5,1.3,0.7
			c0.5,0.2,1.1,0.3,1.8,0.3c0.9,0,1.6-0.2,2.2-0.6s0.8-0.9,0.8-1.6c0-0.6-0.2-1.1-0.7-1.6c-0.5-0.4-1.3-0.8-2.5-1.1
			c-1.4-0.3-2.5-0.8-3.3-1.5c-0.8-0.7-1.2-1.5-1.2-2.5c0-1.1,0.4-1.9,1.3-2.6c0.9-0.7,2.1-1.1,3.5-1.1c0.9,0,1.8,0.2,2.6,0.5
			c0.8,0.3,1.4,0.7,1.9,1.2V434.8z"/>
		<path class="st2" d="M717.4,443.1c0.6,0,1.1-0.2,1.6-0.6c0.5-0.4,0.7-0.8,0.7-1.4h1.6l0,0.1c0,0.9-0.4,1.6-1.2,2.3
			c-0.8,0.7-1.7,1-2.8,1c-1.5,0-2.6-0.5-3.3-1.4c-0.8-1-1.2-2.1-1.2-3.6v-0.4c0-1.4,0.4-2.6,1.2-3.6c0.8-1,1.9-1.4,3.3-1.4
			c0.8,0,1.5,0.1,2.2,0.4c0.6,0.3,1.2,0.6,1.6,1.1l0.1,2.2h-1.5l-0.4-1.6c-0.2-0.2-0.5-0.4-0.8-0.5c-0.3-0.1-0.7-0.2-1.2-0.2
			c-1,0-1.6,0.3-2.1,1c-0.4,0.7-0.6,1.5-0.6,2.5v0.4c0,1,0.2,1.9,0.6,2.6C715.8,442.8,716.5,443.1,717.4,443.1z"/>
		<path class="st2" d="M723.2,443.2l1.5-0.3v-7.2l-1.5-0.3v-1.2h3.3v8.6l1.5,0.3v1.2h-4.9V443.2z M726.5,431.7h-1.8v-1.9h1.8V431.7z
			"/>
		<path class="st2" d="M734.6,439.4H730v-1.4h4.5V439.4z"/>
		<path class="st2" d="M736.7,432v-1.2h4.9v1.2l-1.5,0.3v4.7h6.6v-4.7L745,432v-1.2h1.5h1.8h1.5v1.2l-1.5,0.3v10.6l1.5,0.3v1.2H745
			v-1.2l1.5-0.3v-4.5H740v4.5l1.5,0.3v1.2h-4.9v-1.2l1.5-0.3v-10.6L736.7,432z"/>
		<path class="st2" d="M758.6,442.9c-0.3,0.5-0.7,1-1.2,1.2s-1.1,0.4-1.7,0.4c-1.1,0-1.9-0.3-2.6-1c-0.6-0.7-0.9-1.8-0.9-3.3v-4.5
			l-1.2-0.3v-1.2h1.2h1.8v5.9c0,1.1,0.2,1.8,0.5,2.2c0.3,0.4,0.8,0.6,1.5,0.6c0.7,0,1.2-0.1,1.6-0.4c0.4-0.3,0.7-0.6,1-1.1v-5.8
			l-1.3-0.3v-1.2h1.3h1.8v8.6l1.2,0.3v1.2h-2.8L758.6,442.9z"/>
		<path class="st2" d="M772.1,439.7c0,1.4-0.3,2.6-1,3.5c-0.7,0.9-1.7,1.3-2.9,1.3c-0.7,0-1.2-0.1-1.7-0.4c-0.5-0.3-0.9-0.6-1.2-1.1
			l-0.2,1.3h-1.6v-13l-1.5-0.3v-1.2h3.3v5.6c0.3-0.4,0.7-0.8,1.2-1c0.5-0.2,1-0.4,1.6-0.4c1.2,0,2.2,0.5,2.9,1.5c0.7,1,1,2.3,1,3.9
			V439.7z M770.3,439.5c0-1.2-0.2-2.1-0.6-2.8c-0.4-0.7-1.1-1.1-1.9-1.1c-0.6,0-1,0.1-1.4,0.4c-0.4,0.3-0.7,0.6-0.9,1.1v4.4
			c0.2,0.5,0.5,0.8,0.9,1.1c0.4,0.3,0.9,0.4,1.4,0.4c0.9,0,1.5-0.3,1.9-0.9c0.4-0.6,0.6-1.4,0.6-2.4V439.5z"/>
		<path class="st2" d="M668.6,459.5h-1.4l-0.3-1.2c-0.2-0.2-0.5-0.4-0.8-0.5c-0.3-0.1-0.7-0.2-1.1-0.2c-0.6,0-1.1,0.1-1.4,0.4
			c-0.3,0.3-0.5,0.6-0.5,1c0,0.4,0.1,0.7,0.4,0.9c0.3,0.2,0.8,0.4,1.7,0.6c1.3,0.3,2.2,0.6,2.8,1.1c0.6,0.5,0.9,1.1,0.9,1.9
			c0,0.9-0.4,1.6-1.1,2.2c-0.7,0.6-1.7,0.8-2.8,0.8c-0.8,0-1.4-0.1-2.1-0.3c-0.6-0.2-1.1-0.4-1.6-0.8l0-2.3h1.4l0.3,1.3
			c0.2,0.2,0.5,0.3,0.9,0.4c0.4,0.1,0.7,0.1,1.1,0.1c0.6,0,1.2-0.1,1.5-0.4c0.4-0.3,0.6-0.6,0.6-1c0-0.4-0.2-0.7-0.5-1
			c-0.3-0.3-0.9-0.5-1.7-0.7c-1.2-0.3-2.1-0.6-2.8-1.1c-0.6-0.5-0.9-1.1-0.9-1.9c0-0.8,0.3-1.5,1-2.1c0.7-0.6,1.6-0.9,2.7-0.9
			c0.8,0,1.4,0.1,2.1,0.3c0.6,0.2,1.1,0.5,1.5,0.8L668.6,459.5z"/>
		<path class="st2" d="M675.2,466.5c-1.4,0-2.5-0.5-3.3-1.4c-0.8-0.9-1.2-2.1-1.2-3.6v-0.4c0-1.4,0.4-2.6,1.3-3.6
			c0.9-0.9,1.9-1.4,3-1.4c1.3,0,2.4,0.4,3.1,1.2c0.7,0.8,1,1.9,1,3.3v1.1h-6.5l0,0c0,1,0.3,1.8,0.7,2.4c0.5,0.6,1.1,0.9,2,0.9
			c0.6,0,1.2-0.1,1.6-0.3c0.5-0.2,0.9-0.4,1.2-0.7l0.7,1.2c-0.4,0.3-0.8,0.6-1.4,0.9C676.8,466.4,676,466.5,675.2,466.5z
			 M674.9,457.6c-0.6,0-1.1,0.3-1.6,0.8c-0.4,0.5-0.7,1.2-0.8,1.9l0,0h4.6v-0.2c0-0.7-0.2-1.3-0.6-1.8
			C676.3,457.8,675.7,457.6,674.9,457.6z"/>
		<path class="st2" d="M680.8,457.5v-1.2h3.1l0.2,1.5c0.3-0.5,0.6-0.9,1.1-1.2c0.4-0.3,0.9-0.4,1.4-0.4c0.1,0,0.3,0,0.4,0
			c0.2,0,0.3,0,0.3,0.1l-0.2,1.7l-1-0.1c-0.5,0-0.9,0.1-1.2,0.3c-0.3,0.2-0.6,0.5-0.8,1v5.8l1.5,0.3v1.2h-4.9v-1.2l1.5-0.3v-7.2
			L680.8,457.5z"/>
		<path class="st2" d="M692.3,457.5l-1.2,0.2l2.1,5.7l0.2,0.7h0.1l0.2-0.7l2-5.7l-1.2-0.2v-1.2h3.9v1.2l-0.8,0.1l-3.4,8.7h-1.4
			l-3.4-8.7l-0.8-0.1v-1.2h3.9V457.5z"/>
		<path class="st2" d="M703.9,466.5c-1.4,0-2.5-0.5-3.3-1.4c-0.8-0.9-1.2-2.1-1.2-3.6v-0.4c0-1.4,0.4-2.6,1.3-3.6
			c0.9-0.9,1.9-1.4,3-1.4c1.3,0,2.4,0.4,3.1,1.2c0.7,0.8,1,1.9,1,3.3v1.1h-6.5l0,0c0,1,0.3,1.8,0.7,2.4c0.5,0.6,1.1,0.9,2,0.9
			c0.6,0,1.2-0.1,1.6-0.3c0.5-0.2,0.9-0.4,1.2-0.7l0.7,1.2c-0.4,0.3-0.8,0.6-1.4,0.9C705.5,466.4,704.8,466.5,703.9,466.5z
			 M703.7,457.6c-0.6,0-1.1,0.3-1.6,0.8c-0.4,0.5-0.7,1.2-0.8,1.9l0,0h4.6v-0.2c0-0.7-0.2-1.3-0.6-1.8
			C705,457.8,704.4,457.6,703.7,457.6z"/>
		<path class="st2" d="M709.6,457.5v-1.2h3.1l0.2,1.5c0.3-0.5,0.6-0.9,1.1-1.2c0.4-0.3,0.9-0.4,1.4-0.4c0.1,0,0.3,0,0.4,0
			c0.2,0,0.3,0,0.3,0.1l-0.2,1.7l-1-0.1c-0.5,0-0.9,0.1-1.2,0.3c-0.3,0.2-0.6,0.5-0.8,1v5.8l1.5,0.3v1.2h-4.9v-1.2l1.5-0.3v-7.2
			L709.6,457.5z"/>
		<path class="st2" d="M721.9,453.1v-1.2h3.3v13l1.5,0.3v1.2h-4.9v-1.2l1.5-0.3v-11.6L721.9,453.1z"/>
		<path class="st2" d="M728,461.2c0-1.5,0.4-2.7,1.2-3.7c0.8-1,1.9-1.4,3.3-1.4c1.4,0,2.5,0.5,3.3,1.4c0.8,1,1.2,2.2,1.2,3.7v0.2
			c0,1.5-0.4,2.7-1.2,3.7c-0.8,1-1.9,1.4-3.3,1.4c-1.4,0-2.5-0.5-3.3-1.4c-0.8-1-1.2-2.2-1.2-3.7V461.2z M729.8,461.4
			c0,1.1,0.2,1.9,0.7,2.6c0.4,0.7,1.1,1,2,1c0.9,0,1.5-0.3,2-1c0.5-0.7,0.7-1.6,0.7-2.6v-0.2c0-1.1-0.2-1.9-0.7-2.6
			c-0.5-0.7-1.1-1-2-1c-0.9,0-1.5,0.3-2,1c-0.4,0.7-0.7,1.6-0.7,2.6V461.4z"/>
		<path class="st2" d="M738.6,461.5c0-1.6,0.4-2.9,1.1-3.9c0.7-1,1.7-1.5,2.9-1.5c0.6,0,1.2,0.1,1.7,0.4c0.5,0.2,0.9,0.6,1.2,1.1
			l0.2-1.3h1.5v9.9c0,1.3-0.4,2.3-1.1,3.1c-0.7,0.7-1.8,1.1-3.1,1.1c-0.5,0-1-0.1-1.6-0.2c-0.6-0.1-1.1-0.3-1.5-0.5l0.5-1.4
			c0.3,0.2,0.7,0.3,1.2,0.4c0.5,0.1,0.9,0.2,1.4,0.2c0.8,0,1.4-0.2,1.8-0.7c0.4-0.5,0.6-1.1,0.6-2v-1c-0.3,0.4-0.7,0.7-1.2,1
			c-0.5,0.2-1,0.3-1.6,0.3c-1.2,0-2.2-0.4-2.9-1.3s-1.1-2.1-1.1-3.5V461.5z M740.4,461.7c0,1,0.2,1.8,0.6,2.4s1.1,0.9,1.9,0.9
			c0.6,0,1-0.1,1.4-0.4c0.4-0.3,0.7-0.6,0.9-1.1V459c-0.2-0.4-0.5-0.8-0.9-1c-0.4-0.3-0.8-0.4-1.4-0.4c-0.9,0-1.5,0.4-2,1.1
			c-0.4,0.7-0.7,1.7-0.7,2.8V461.7z"/>
	</g>
</g>
<g id="rettp_x5F_02">
	<rect x="594.5" y="533.6" class="st0" width="213.8" height="81.9"/>
	<path class="st0" d="M809.9,617H593v-84.9h216.8V617z M596,614h210.8v-78.9H596V614z"/>
</g>
<g id="rettv_x5F_02">
	<rect x="572.5" y="533.6" class="st4" width="257.9" height="81.9"/>
	<path class="st0" d="M832.1,617.2H570.9v-85.2h261.2V617.2z M574.1,613.9h254.6v-78.6H574.1V613.9z"/>
</g>
<g id="text1_x5F_02">
	<path class="st2" d="M632.3,557.3c1.8,0,3.2,0.5,4.3,1.6c1.1,1.1,1.6,2.5,1.6,4.2v1.8c0,1.7-0.5,3.1-1.6,4.2
		c-1.1,1.1-2.5,1.6-4.3,1.6h-5.7v-1.2l1.5-0.3v-10.6l-1.5-0.3v-1.2h1.5H632.3z M630,558.7v10.6h2.3c1.2,0,2.2-0.4,3-1.2
		c0.7-0.8,1.1-1.9,1.1-3.2v-1.9c0-1.3-0.4-2.3-1.1-3.1s-1.7-1.2-3-1.2H630z"/>
	<path class="st2" d="M646.5,570.8c-0.1-0.3-0.1-0.5-0.1-0.7c0-0.2-0.1-0.4-0.1-0.6c-0.4,0.5-0.8,0.8-1.3,1.1
		c-0.5,0.3-1.1,0.5-1.7,0.5c-1,0-1.8-0.3-2.4-0.8c-0.5-0.5-0.8-1.2-0.8-2.2c0-1,0.4-1.7,1.2-2.2c0.8-0.5,1.8-0.8,3.2-0.8h1.9v-1.2
		c0-0.6-0.2-1.1-0.6-1.4s-0.9-0.5-1.5-0.5c-0.5,0-0.9,0.1-1.2,0.2s-0.6,0.3-0.8,0.5l-0.2,1.1h-1.4v-1.9c0.5-0.4,1-0.7,1.7-0.9
		c0.6-0.2,1.4-0.3,2.1-0.3c1.1,0,2.1,0.3,2.8,0.9c0.7,0.6,1.1,1.4,1.1,2.5v4.8c0,0.1,0,0.3,0,0.4c0,0.1,0,0.2,0,0.4l0.7,0.1v1.2
		H646.5z M643.6,569.4c0.6,0,1.2-0.1,1.7-0.4c0.5-0.3,0.9-0.6,1.1-1v-1.7h-1.9c-0.7,0-1.3,0.2-1.8,0.5c-0.4,0.3-0.7,0.8-0.7,1.3
		c0,0.4,0.1,0.8,0.4,1C642.6,569.3,643.1,569.4,643.6,569.4z"/>
	<path class="st2" d="M653.7,558.3v2.4h1.9v1.4h-1.9v6.1c0,0.5,0.1,0.8,0.3,1c0.2,0.2,0.5,0.3,0.8,0.3c0.2,0,0.3,0,0.5,0
		c0.2,0,0.4-0.1,0.5-0.1l0.3,1.3c-0.2,0.1-0.4,0.2-0.8,0.3c-0.3,0.1-0.7,0.1-1,0.1c-0.7,0-1.3-0.2-1.8-0.7c-0.4-0.4-0.7-1.2-0.7-2.1
		v-6.1h-1.6v-1.4h1.6v-2.4H653.7z"/>
	<path class="st2" d="M664,570.8c-0.1-0.3-0.1-0.5-0.1-0.7c0-0.2-0.1-0.4-0.1-0.6c-0.4,0.5-0.8,0.8-1.3,1.1
		c-0.5,0.3-1.1,0.5-1.7,0.5c-1,0-1.8-0.3-2.4-0.8c-0.5-0.5-0.8-1.2-0.8-2.2c0-1,0.4-1.7,1.2-2.2c0.8-0.5,1.8-0.8,3.2-0.8h1.9v-1.2
		c0-0.6-0.2-1.1-0.6-1.4s-0.9-0.5-1.6-0.5c-0.5,0-0.9,0.1-1.2,0.2s-0.6,0.3-0.8,0.5l-0.2,1.1H658v-1.9c0.5-0.4,1-0.7,1.7-0.9
		c0.7-0.2,1.4-0.3,2.1-0.3c1.1,0,2.1,0.3,2.8,0.9c0.7,0.6,1.1,1.4,1.1,2.5v4.8c0,0.1,0,0.3,0,0.4c0,0.1,0,0.2,0,0.4l0.7,0.1v1.2H664
		z M661,569.4c0.6,0,1.2-0.1,1.7-0.4c0.5-0.3,0.9-0.6,1.1-1v-1.7h-1.9c-0.7,0-1.3,0.2-1.8,0.5c-0.4,0.3-0.7,0.8-0.7,1.3
		c0,0.4,0.1,0.8,0.4,1C660.1,569.3,660.5,569.4,661,569.4z"/>
	<path class="st2" d="M675.6,563.9h-1.4l-0.3-1.2c-0.2-0.2-0.5-0.4-0.8-0.5c-0.3-0.1-0.7-0.2-1.1-0.2c-0.6,0-1.1,0.1-1.4,0.4
		c-0.3,0.3-0.5,0.6-0.5,1c0,0.4,0.1,0.7,0.4,0.9c0.3,0.2,0.8,0.4,1.7,0.6c1.3,0.3,2.2,0.6,2.8,1.1c0.6,0.5,0.9,1.1,0.9,1.9
		c0,0.9-0.4,1.6-1.1,2.2s-1.7,0.8-2.8,0.8c-0.8,0-1.4-0.1-2.1-0.3s-1.1-0.4-1.6-0.8l0-2.3h1.4l0.3,1.3c0.2,0.2,0.5,0.3,0.9,0.4
		s0.7,0.1,1.1,0.1c0.6,0,1.2-0.1,1.5-0.4c0.4-0.3,0.6-0.6,0.6-1c0-0.4-0.2-0.7-0.5-1c-0.3-0.3-0.9-0.5-1.7-0.7
		c-1.2-0.3-2.1-0.6-2.8-1.1c-0.6-0.5-0.9-1.1-0.9-1.9c0-0.8,0.3-1.5,1-2.1c0.7-0.6,1.6-0.9,2.7-0.9c0.8,0,1.4,0.1,2.1,0.3
		c0.6,0.2,1.1,0.5,1.5,0.8L675.6,563.9z"/>
	<path class="st2" d="M682.2,571c-1.4,0-2.5-0.5-3.3-1.4c-0.8-0.9-1.2-2.1-1.2-3.6v-0.4c0-1.4,0.4-2.6,1.3-3.6
		c0.9-0.9,1.9-1.4,3-1.4c1.3,0,2.4,0.4,3.1,1.2c0.7,0.8,1,1.9,1,3.3v1.1h-6.5l0,0c0,1,0.3,1.8,0.7,2.4c0.5,0.6,1.1,0.9,2,0.9
		c0.6,0,1.2-0.1,1.6-0.3c0.5-0.2,0.9-0.4,1.2-0.7l0.7,1.2c-0.4,0.3-0.8,0.6-1.4,0.9C683.7,570.8,683,571,682.2,571z M681.9,562
		c-0.6,0-1.1,0.3-1.6,0.8c-0.4,0.5-0.7,1.2-0.8,1.9l0,0h4.6v-0.2c0-0.7-0.2-1.3-0.6-1.8C683.2,562.2,682.6,562,681.9,562z"/>
	<path class="st2" d="M691,558.3v2.4h1.9v1.4H691v6.1c0,0.5,0.1,0.8,0.3,1c0.2,0.2,0.5,0.3,0.8,0.3c0.2,0,0.3,0,0.5,0
		c0.2,0,0.4-0.1,0.5-0.1l0.3,1.3c-0.2,0.1-0.4,0.2-0.8,0.3c-0.3,0.1-0.7,0.1-1,0.1c-0.7,0-1.3-0.2-1.8-0.7c-0.4-0.4-0.7-1.2-0.7-2.1
		v-6.1h-1.6v-1.4h1.6v-2.4H691z"/>
	<path class="st2" d="M704,569.5c0.6,0,1.1-0.2,1.6-0.6c0.5-0.4,0.7-0.8,0.7-1.4h1.6l0,0.1c0,0.9-0.4,1.6-1.2,2.3
		c-0.8,0.7-1.7,1-2.8,1c-1.5,0-2.6-0.5-3.3-1.4c-0.8-1-1.2-2.1-1.2-3.6v-0.4c0-1.4,0.4-2.6,1.2-3.6c0.8-1,1.9-1.4,3.3-1.4
		c0.8,0,1.5,0.1,2.2,0.4c0.6,0.3,1.2,0.6,1.6,1.1l0.1,2.2h-1.5l-0.4-1.6c-0.2-0.2-0.5-0.4-0.8-0.5c-0.3-0.1-0.7-0.2-1.2-0.2
		c-1,0-1.6,0.3-2.1,1c-0.4,0.7-0.6,1.5-0.6,2.5v0.4c0,1,0.2,1.9,0.6,2.6S703,569.5,704,569.5z"/>
	<path class="st2" d="M709.5,557.5v-1.2h3.3v13l1.5,0.3v1.2h-4.9v-1.2l1.5-0.3v-11.6L709.5,557.5z"/>
	<path class="st2" d="M720.3,571c-1.4,0-2.5-0.5-3.3-1.4c-0.8-0.9-1.2-2.1-1.2-3.6v-0.4c0-1.4,0.4-2.6,1.3-3.6
		c0.8-0.9,1.9-1.4,3-1.4c1.3,0,2.4,0.4,3.1,1.2s1,1.9,1,3.3v1.1h-6.5l0,0c0,1,0.3,1.8,0.7,2.4c0.5,0.6,1.1,0.9,2,0.9
		c0.6,0,1.2-0.1,1.6-0.3c0.5-0.2,0.9-0.4,1.2-0.7l0.7,1.2c-0.4,0.3-0.8,0.6-1.4,0.9C721.8,570.8,721.1,571,720.3,571z M720,562
		c-0.6,0-1.1,0.3-1.6,0.8c-0.4,0.5-0.7,1.2-0.8,1.9l0,0h4.6v-0.2c0-0.7-0.2-1.3-0.6-1.8S720.7,562,720,562z"/>
	<path class="st2" d="M732.5,570.8c-0.1-0.3-0.1-0.5-0.1-0.7c0-0.2-0.1-0.4-0.1-0.6c-0.4,0.5-0.8,0.8-1.3,1.1
		c-0.5,0.3-1.1,0.5-1.7,0.5c-1,0-1.8-0.3-2.4-0.8c-0.5-0.5-0.8-1.2-0.8-2.2c0-1,0.4-1.7,1.2-2.2c0.8-0.5,1.8-0.8,3.2-0.8h1.9v-1.2
		c0-0.6-0.2-1.1-0.6-1.4s-0.9-0.5-1.5-0.5c-0.5,0-0.9,0.1-1.2,0.2s-0.6,0.3-0.8,0.5l-0.2,1.1h-1.4v-1.9c0.5-0.4,1-0.7,1.7-0.9
		c0.6-0.2,1.4-0.3,2.1-0.3c1.1,0,2.1,0.3,2.8,0.9c0.7,0.6,1.1,1.4,1.1,2.5v4.8c0,0.1,0,0.3,0,0.4c0,0.1,0,0.2,0,0.4l0.7,0.1v1.2
		H732.5z M729.5,569.4c0.6,0,1.2-0.1,1.7-0.4c0.5-0.3,0.9-0.6,1.1-1v-1.7h-1.9c-0.7,0-1.3,0.2-1.8,0.5c-0.4,0.3-0.7,0.8-0.7,1.3
		c0,0.4,0.1,0.8,0.4,1C728.6,569.3,729,569.4,729.5,569.4z"/>
	<path class="st2" d="M736.1,569.6l1.5-0.3v-7.2l-1.5-0.3v-1.2h3.1l0.1,1.5c0.3-0.5,0.8-0.9,1.3-1.2c0.5-0.3,1.1-0.4,1.7-0.4
		c1.1,0,1.9,0.3,2.5,1c0.6,0.6,0.9,1.6,0.9,2.9v4.9l1.5,0.3v1.2h-4.9v-1.2l1.5-0.3v-4.9c0-0.9-0.2-1.5-0.5-1.9s-0.9-0.6-1.6-0.6
		c-0.5,0-1,0.1-1.4,0.4c-0.4,0.3-0.7,0.6-1,1v5.9l1.5,0.3v1.2h-4.9V569.6z"/>
	<path class="st2" d="M748.6,569.6l1.5-0.3v-7.2l-1.5-0.3v-1.2h3.3v8.6l1.5,0.3v1.2h-4.9V569.6z M751.9,558.2h-1.8v-1.9h1.8V558.2z"
		/>
	<path class="st2" d="M754.6,569.6l1.5-0.3v-7.2l-1.5-0.3v-1.2h3.1l0.1,1.5c0.3-0.5,0.8-0.9,1.3-1.2c0.5-0.3,1.1-0.4,1.7-0.4
		c1.1,0,1.9,0.3,2.5,1c0.6,0.6,0.9,1.6,0.9,2.9v4.9l1.5,0.3v1.2h-4.9v-1.2l1.5-0.3v-4.9c0-0.9-0.2-1.5-0.5-1.9s-0.9-0.6-1.6-0.6
		c-0.5,0-1,0.1-1.4,0.4c-0.4,0.3-0.7,0.6-1,1v5.9l1.5,0.3v1.2h-4.9V569.6z"/>
	<path class="st2" d="M767,565.9c0-1.6,0.4-2.9,1.1-3.9c0.7-1,1.7-1.5,2.9-1.5c0.6,0,1.2,0.1,1.7,0.4c0.5,0.2,0.9,0.6,1.2,1.1
		l0.2-1.3h1.5v9.9c0,1.3-0.4,2.3-1.1,3.1c-0.7,0.7-1.8,1.1-3.1,1.1c-0.5,0-1-0.1-1.6-0.2c-0.6-0.1-1.1-0.3-1.5-0.5l0.5-1.4
		c0.3,0.2,0.7,0.3,1.2,0.4c0.5,0.1,0.9,0.2,1.4,0.2c0.8,0,1.4-0.2,1.8-0.7c0.4-0.5,0.6-1.1,0.6-2v-1c-0.3,0.4-0.7,0.7-1.2,1
		c-0.5,0.2-1,0.3-1.6,0.3c-1.2,0-2.2-0.4-2.9-1.3s-1.1-2.1-1.1-3.5V565.9z M768.8,566.1c0,1,0.2,1.8,0.6,2.4
		c0.4,0.6,1.1,0.9,1.9,0.9c0.6,0,1-0.1,1.4-0.4s0.7-0.6,0.9-1.1v-4.6c-0.2-0.4-0.5-0.8-0.9-1c-0.4-0.3-0.8-0.4-1.4-0.4
		c-0.9,0-1.5,0.4-2,1.1c-0.4,0.7-0.7,1.7-0.7,2.8V566.1z"/>
	<path class="st2" d="M642.9,587.3c0-2.4,0.5-4.5,1.5-6.2c1-1.7,2-2.9,3.1-3.5l0.1,0l0.3,1.1c-0.8,0.7-1.6,1.7-2.2,3.2
		c-0.6,1.5-0.9,3.3-0.9,5.4v0.1c0,2.2,0.3,4,0.9,5.4c0.6,1.5,1.4,2.5,2.2,3.3l-0.3,1h-0.1c-1.1-0.6-2.1-1.7-3.1-3.4
		C643.4,591.9,642.9,589.8,642.9,587.3L642.9,587.3z"/>
	<path class="st2" d="M648.8,591.6l1.5-0.3v-7.2l-1.5-0.3v-1.2h3.3v8.6l1.5,0.3v1.2h-4.9V591.6z M652.1,580.2h-1.8v-1.9h1.8V580.2z"
		/>
	<path class="st2" d="M654.8,591.6l1.5-0.3v-7.2l-1.5-0.3v-1.2h3.1l0.1,1.5c0.3-0.5,0.8-0.9,1.3-1.2c0.5-0.3,1.1-0.4,1.7-0.4
		c1.1,0,1.9,0.3,2.5,1c0.6,0.6,0.9,1.6,0.9,2.9v4.9l1.5,0.3v1.2h-4.9v-1.2l1.5-0.3v-4.9c0-0.9-0.2-1.5-0.5-1.9s-0.9-0.6-1.6-0.6
		c-0.5,0-1,0.1-1.4,0.4c-0.4,0.3-0.7,0.6-1,1v5.9l1.5,0.3v1.2h-4.9V591.6z"/>
	<path class="st2" d="M670.7,583.9l-1.2,0.2l2.1,5.7l0.2,0.7h0.1l0.2-0.7l2-5.7l-1.2-0.2v-1.2h3.9v1.2l-0.8,0.1l-3.4,8.7h-1.4
		l-3.4-8.7l-0.8-0.1v-1.2h3.9V583.9z"/>
	<path class="st2" d="M684.3,592.8c-0.1-0.3-0.1-0.5-0.1-0.7c0-0.2-0.1-0.4-0.1-0.6c-0.4,0.5-0.8,0.8-1.3,1.1
		c-0.5,0.3-1.1,0.5-1.7,0.5c-1,0-1.8-0.3-2.4-0.8c-0.5-0.5-0.8-1.2-0.8-2.2c0-1,0.4-1.7,1.2-2.2c0.8-0.5,1.8-0.8,3.2-0.8h1.9v-1.2
		c0-0.6-0.2-1.1-0.6-1.4s-0.9-0.5-1.5-0.5c-0.5,0-0.9,0.1-1.2,0.2s-0.6,0.3-0.8,0.5l-0.2,1.1h-1.4v-1.9c0.5-0.4,1-0.7,1.7-0.9
		c0.6-0.2,1.4-0.3,2.1-0.3c1.1,0,2.1,0.3,2.8,0.9c0.7,0.6,1.1,1.4,1.1,2.5v4.8c0,0.1,0,0.3,0,0.4c0,0.1,0,0.2,0,0.4l0.7,0.1v1.2
		H684.3z M681.3,591.4c0.6,0,1.2-0.1,1.7-0.4c0.5-0.3,0.9-0.6,1.1-1v-1.7h-1.9c-0.7,0-1.3,0.2-1.8,0.5c-0.4,0.3-0.7,0.8-0.7,1.3
		c0,0.4,0.1,0.8,0.4,1C680.4,591.3,680.8,591.4,681.3,591.4z"/>
	<path class="st2" d="M687.9,579.5v-1.2h3.3v13l1.5,0.3v1.2h-4.9v-1.2l1.5-0.3v-11.6L687.9,579.5z"/>
	<path class="st2" d="M694.2,591.6l1.5-0.3v-7.2l-1.5-0.3v-1.2h3.3v8.6l1.5,0.3v1.2h-4.9V591.6z M697.5,580.2h-1.8v-1.9h1.8V580.2z"
		/>
	<path class="st2" d="M707.2,591.6c-0.3,0.5-0.7,0.8-1.2,1c-0.5,0.2-1,0.4-1.6,0.4c-1.2,0-2.2-0.4-2.9-1.3c-0.7-0.9-1-2.1-1-3.5
		v-0.2c0-1.6,0.3-2.9,1-3.9c0.7-1,1.7-1.5,2.9-1.5c0.6,0,1.1,0.1,1.6,0.3c0.5,0.2,0.8,0.5,1.2,1v-4.1l-1.5-0.3v-1.2h1.5h1.8v13
		l1.5,0.3v1.2h-3.1L707.2,591.6z M702.3,588.1c0,1,0.2,1.8,0.6,2.4c0.4,0.6,1.1,0.9,1.9,0.9c0.5,0,1-0.1,1.4-0.4s0.7-0.6,0.9-1v-4.7
		c-0.2-0.4-0.5-0.8-0.9-1c-0.4-0.2-0.8-0.4-1.4-0.4c-0.9,0-1.5,0.4-1.9,1.1s-0.6,1.7-0.6,2.8V588.1z"/>
	<path class="st2" d="M723.3,591.6c-0.3,0.5-0.7,0.8-1.2,1c-0.5,0.2-1,0.4-1.6,0.4c-1.2,0-2.2-0.4-2.9-1.3c-0.7-0.9-1-2.1-1-3.5
		v-0.2c0-1.6,0.3-2.9,1-3.9c0.7-1,1.7-1.5,2.9-1.5c0.6,0,1.1,0.1,1.6,0.3c0.5,0.2,0.8,0.5,1.2,1v-4.1l-1.5-0.3v-1.2h1.5h1.8v13
		l1.5,0.3v1.2h-3.1L723.3,591.6z M718.4,588.1c0,1,0.2,1.8,0.6,2.4c0.4,0.6,1.1,0.9,1.9,0.9c0.5,0,1-0.1,1.4-0.4s0.7-0.6,0.9-1v-4.7
		c-0.2-0.4-0.5-0.8-0.9-1c-0.4-0.2-0.8-0.4-1.4-0.4c-0.9,0-1.5,0.4-1.9,1.1s-0.6,1.7-0.6,2.8V588.1z"/>
	<path class="st2" d="M734.5,592.8c-0.1-0.3-0.1-0.5-0.1-0.7c0-0.2-0.1-0.4-0.1-0.6c-0.4,0.5-0.8,0.8-1.3,1.1
		c-0.5,0.3-1.1,0.5-1.7,0.5c-1,0-1.8-0.3-2.4-0.8c-0.5-0.5-0.8-1.2-0.8-2.2c0-1,0.4-1.7,1.2-2.2c0.8-0.5,1.8-0.8,3.2-0.8h1.9v-1.2
		c0-0.6-0.2-1.1-0.6-1.4s-0.9-0.5-1.5-0.5c-0.5,0-0.9,0.1-1.2,0.2s-0.6,0.3-0.8,0.5l-0.2,1.1h-1.4v-1.9c0.5-0.4,1-0.7,1.7-0.9
		c0.6-0.2,1.4-0.3,2.1-0.3c1.1,0,2.1,0.3,2.8,0.9c0.7,0.6,1.1,1.4,1.1,2.5v4.8c0,0.1,0,0.3,0,0.4c0,0.1,0,0.2,0,0.4l0.7,0.1v1.2
		H734.5z M731.6,591.4c0.6,0,1.2-0.1,1.7-0.4c0.5-0.3,0.9-0.6,1.1-1v-1.7h-1.9c-0.7,0-1.3,0.2-1.8,0.5c-0.4,0.3-0.7,0.8-0.7,1.3
		c0,0.4,0.1,0.8,0.4,1C730.6,591.3,731,591.4,731.6,591.4z"/>
	<path class="st2" d="M741.6,580.3v2.4h1.9v1.4h-1.9v6.1c0,0.5,0.1,0.8,0.3,1c0.2,0.2,0.5,0.3,0.8,0.3c0.2,0,0.3,0,0.5,0
		c0.2,0,0.4-0.1,0.5-0.1l0.3,1.3c-0.2,0.1-0.4,0.2-0.8,0.3c-0.3,0.1-0.7,0.1-1,0.1c-0.7,0-1.3-0.2-1.8-0.7c-0.4-0.4-0.7-1.2-0.7-2.1
		v-6.1h-1.6v-1.4h1.6v-2.4H741.6z"/>
	<path class="st2" d="M751.9,592.8c-0.1-0.3-0.1-0.5-0.1-0.7c0-0.2-0.1-0.4-0.1-0.6c-0.4,0.5-0.8,0.8-1.3,1.1
		c-0.5,0.3-1.1,0.5-1.7,0.5c-1,0-1.8-0.3-2.4-0.8c-0.5-0.5-0.8-1.2-0.8-2.2c0-1,0.4-1.7,1.2-2.2c0.8-0.5,1.8-0.8,3.2-0.8h1.9v-1.2
		c0-0.6-0.2-1.1-0.6-1.4s-0.9-0.5-1.5-0.5c-0.5,0-0.9,0.1-1.2,0.2s-0.6,0.3-0.8,0.5l-0.2,1.1h-1.4v-1.9c0.5-0.4,1-0.7,1.7-0.9
		c0.6-0.2,1.4-0.3,2.1-0.3c1.1,0,2.1,0.3,2.8,0.9c0.7,0.6,1.1,1.4,1.1,2.5v4.8c0,0.1,0,0.3,0,0.4c0,0.1,0,0.2,0,0.4l0.7,0.1v1.2
		H751.9z M749,591.4c0.6,0,1.2-0.1,1.7-0.4c0.5-0.3,0.9-0.6,1.1-1v-1.7h-1.9c-0.7,0-1.3,0.2-1.8,0.5c-0.4,0.3-0.7,0.8-0.7,1.3
		c0,0.4,0.1,0.8,0.4,1C748,591.3,748.4,591.4,749,591.4z"/>
	<path class="st2" d="M760.1,587.4c0,2.4-0.5,4.5-1.5,6.2c-1,1.7-2,2.9-3.1,3.4h-0.1l-0.3-1c0.8-0.6,1.6-1.7,2.2-3.2
		c0.6-1.5,0.9-3.3,0.9-5.5v-0.1c0-2.1-0.3-3.9-1-5.4c-0.7-1.5-1.4-2.6-2.2-3.3l0.3-1h0.1c1.1,0.6,2.1,1.7,3.1,3.5
		C759.6,582.8,760.1,584.8,760.1,587.4L760.1,587.4z"/>
</g>
<g>
	<g>
		
			<rect x="699.1" y="614.3" transform="matrix(0.9791 -0.2034 0.2034 0.9791 -110.6218 155.3407)" class="st0" width="2.4" height="2.9"/>
	</g>
	<g>
		<path class="st0" d="M544.4,649.5l-0.6-2.8l4.6-0.9l0.6,2.8L544.4,649.5z M553.5,647.6l-0.6-2.8l4.6-0.9l0.6,2.8L553.5,647.6z
			 M562.6,645.7l-0.6-2.8l4.6-0.9l0.6,2.8L562.6,645.7z M571.7,643.9l-0.6-2.8l4.6-0.9l0.6,2.8L571.7,643.9z M580.8,642l-0.6-2.8
			l4.6-0.9l0.6,2.8L580.8,642z M590,640.1l-0.6-2.8l4.6-0.9l0.6,2.8L590,640.1z M599.1,638.2l-0.6-2.8l4.6-0.9l0.6,2.8L599.1,638.2z
			 M608.2,636.3l-0.6-2.8l4.6-0.9l0.6,2.8L608.2,636.3z M617.3,634.4l-0.6-2.8l4.6-0.9l0.6,2.8L617.3,634.4z M626.4,632.5l-0.6-2.8
			l4.6-0.9l0.6,2.8L626.4,632.5z M635.6,630.6l-0.6-2.8l4.6-0.9l0.6,2.8L635.6,630.6z M644.7,628.7l-0.6-2.8l4.6-0.9l0.6,2.8
			L644.7,628.7z M653.8,626.8l-0.6-2.8l4.6-0.9l0.6,2.8L653.8,626.8z M662.9,625l-0.6-2.8l4.6-0.9l0.6,2.8L662.9,625z M672,623.1
			l-0.6-2.8l4.6-0.9l0.6,2.8L672,623.1z M681.2,621.2l-0.6-2.8l4.6-0.9l0.6,2.8L681.2,621.2z M690.3,619.3l-0.6-2.8l4.6-0.9l0.6,2.8
			L690.3,619.3z"/>
	</g>
	<g>
		
			<rect x="537.1" y="647.9" transform="matrix(0.9793 -0.2023 0.2023 0.9793 -120.2376 122.3483)" class="st0" width="2.4" height="2.9"/>
	</g>
	<g>
		<g>
			<path class="st0" d="M528.7,651.3c3.7-2.3,8.1-5.9,10.6-9.2l-1,7.2l3.8,6.2C538.5,653.5,533,652,528.7,651.3z"/>
		</g>
	</g>
</g>
<g>
	<g>
		
			<rect x="694.7" y="614.6" transform="matrix(0.2033 -0.9791 0.9791 0.2033 -48.2214 1172.2336)" class="st0" width="2.9" height="2.4"/>
	</g>
	<g>
		<path class="st0" d="M852.1,649.5l-4.6-0.9l0.6-2.8l4.6,0.9L852.1,649.5z M843,647.6l-4.6-0.9l0.6-2.8l4.6,0.9L843,647.6z
			 M833.9,645.7l-4.6-0.9l0.6-2.8l4.6,0.9L833.9,645.7z M824.7,643.9l-4.6-0.9l0.6-2.8l4.6,0.9L824.7,643.9z M815.6,642l-4.6-0.9
			l0.6-2.8l4.6,0.9L815.6,642z M806.5,640.1l-4.6-0.9l0.6-2.8l4.6,0.9L806.5,640.1z M797.4,638.2l-4.6-0.9l0.6-2.8l4.6,0.9
			L797.4,638.2z M788.3,636.3l-4.6-0.9l0.6-2.8l4.6,0.9L788.3,636.3z M779.1,634.4l-4.6-0.9l0.6-2.8l4.6,0.9L779.1,634.4z
			 M770,632.5l-4.6-0.9l0.6-2.8l4.6,0.9L770,632.5z M760.9,630.6l-4.6-0.9l0.6-2.8l4.6,0.9L760.9,630.6z M751.8,628.7l-4.6-0.9
			l0.6-2.8l4.6,0.9L751.8,628.7z M742.7,626.8l-4.6-0.9l0.6-2.8l4.6,0.9L742.7,626.8z M733.5,625L729,624l0.6-2.8l4.6,0.9L733.5,625
			z M724.4,623.1l-4.6-0.9l0.6-2.8l4.6,0.9L724.4,623.1z M715.3,621.2l-4.6-0.9l0.6-2.8l4.6,0.9L715.3,621.2z M706.2,619.3l-4.6-0.9
			l0.6-2.8l4.6,0.9L706.2,619.3z"/>
	</g>
	<g>
		
			<rect x="856.7" y="648.1" transform="matrix(0.2025 -0.9793 0.9793 0.2025 48.5084 1358.1837)" class="st0" width="2.9" height="2.4"/>
	</g>
	<g>
		<g>
			<path class="st0" d="M867.8,651.3c-4.3,0.7-9.8,2.2-13.4,4.2l3.8-6.2l-1-7.2C859.7,645.5,864.1,649,867.8,651.3z"/>
		</g>
	</g>
</g>
<g id="rettp_x5F_02_1_">
	<rect x="421.8" y="660" class="st0" width="213.8" height="81.9"/>
	<path class="st0" d="M637.1,743.4H420.3v-84.9h216.8V743.4z M423.3,740.4h210.8v-78.9H423.3V740.4z"/>
</g>
<g id="rettv_x5F_02_1_">
	<rect x="421.8" y="660" class="st4" width="213.8" height="81.9"/>
	<path class="st0" d="M637.1,743.4H420.3v-84.9h216.8V743.4z M423.3,740.4h210.8v-78.9H423.3V740.4z"/>
</g>
<g id="text1_x5F_02_1_">
	<path class="st2" d="M473.9,683.7c1.8,0,3.2,0.5,4.3,1.6s1.6,2.5,1.6,4.2v1.8c0,1.7-0.5,3.1-1.6,4.2c-1.1,1.1-2.5,1.6-4.3,1.6h-5.7
		V696l1.5-0.3v-10.6l-1.5-0.3v-1.2h1.5H473.9z M471.6,685.1v10.6h2.3c1.2,0,2.2-0.4,3-1.2s1.1-1.9,1.1-3.2v-1.9
		c0-1.3-0.4-2.3-1.1-3.1c-0.7-0.8-1.7-1.2-3-1.2H471.6z"/>
	<path class="st2" d="M486.1,697.4c-1.4,0-2.5-0.5-3.3-1.4c-0.8-0.9-1.2-2.1-1.2-3.6v-0.4c0-1.4,0.4-2.6,1.3-3.6s1.9-1.4,3-1.4
		c1.3,0,2.4,0.4,3.1,1.2c0.7,0.8,1,1.9,1,3.3v1.1h-6.5l0,0c0,1,0.3,1.8,0.7,2.4s1.1,0.9,2,0.9c0.6,0,1.2-0.1,1.6-0.3
		c0.5-0.2,0.9-0.4,1.2-0.7l0.7,1.2c-0.4,0.3-0.8,0.6-1.4,0.9C487.7,697.2,487,697.4,486.1,697.4z M485.9,688.4
		c-0.6,0-1.1,0.3-1.6,0.8c-0.4,0.5-0.7,1.2-0.8,1.9l0,0h4.6v-0.2c0-0.7-0.2-1.3-0.6-1.8C487.2,688.6,486.6,688.4,485.9,688.4z"/>
	<path class="st2" d="M491.4,688.5v-1.4h1.6V686c0-1.1,0.3-2,1-2.6c0.7-0.6,1.6-0.9,2.7-0.9c0.4,0,0.8,0,1.2,0.1s0.9,0.2,1.4,0.4
		l-0.3,1.5c-0.3-0.1-0.7-0.2-1-0.3c-0.4-0.1-0.8-0.1-1.1-0.1c-0.7,0-1.3,0.2-1.6,0.5c-0.3,0.3-0.5,0.8-0.5,1.5v1.1h5.7v8.6l1.5,0.3
		v1.2h-4.9V696l1.5-0.3v-7.3h-3.9v7.3l1.5,0.3v1.2h-4.9V696l1.5-0.3v-7.3H491.4z"/>
	<path class="st2" d="M503,696l1.5-0.3v-7.2l-1.5-0.3v-1.2h3.1l0.1,1.5c0.3-0.5,0.8-0.9,1.3-1.2c0.5-0.3,1.1-0.4,1.7-0.4
		c1.1,0,1.9,0.3,2.5,1c0.6,0.6,0.9,1.6,0.9,2.9v4.9l1.5,0.3v1.2h-4.9V696l1.5-0.3v-4.9c0-0.9-0.2-1.5-0.5-1.9s-0.9-0.6-1.6-0.6
		c-0.5,0-1,0.1-1.4,0.4c-0.4,0.3-0.7,0.6-1,1v5.9l1.5,0.3v1.2H503V696z"/>
	<path class="st2" d="M515.5,696l1.5-0.3v-7.2l-1.5-0.3v-1.2h3.3v8.6l1.5,0.3v1.2h-4.9V696z M518.8,684.6H517v-1.9h1.8V684.6z"/>
	<path class="st2" d="M521.5,696l1.5-0.3v-7.2l-1.5-0.3v-1.2h3.1l0.1,1.5c0.3-0.5,0.8-0.9,1.3-1.2c0.5-0.3,1.1-0.4,1.7-0.4
		c1.1,0,1.9,0.3,2.5,1c0.6,0.6,0.9,1.6,0.9,2.9v4.9l1.5,0.3v1.2h-4.9V696l1.5-0.3v-4.9c0-0.9-0.2-1.5-0.5-1.9s-0.9-0.6-1.6-0.6
		c-0.5,0-1,0.1-1.4,0.4c-0.4,0.3-0.7,0.6-1,1v5.9l1.5,0.3v1.2h-4.9V696z"/>
	<path class="st2" d="M533.9,692.3c0-1.6,0.4-2.9,1.1-3.9c0.7-1,1.7-1.5,2.9-1.5c0.6,0,1.2,0.1,1.7,0.4c0.5,0.2,0.9,0.6,1.2,1.1
		l0.2-1.3h1.5v9.9c0,1.3-0.4,2.3-1.1,3.1c-0.7,0.7-1.8,1.1-3.1,1.1c-0.5,0-1-0.1-1.6-0.2s-1.1-0.3-1.5-0.5l0.5-1.4
		c0.3,0.2,0.7,0.3,1.2,0.4c0.5,0.1,0.9,0.2,1.4,0.2c0.8,0,1.4-0.2,1.8-0.7c0.4-0.5,0.6-1.1,0.6-2v-1c-0.3,0.4-0.7,0.7-1.2,1
		c-0.5,0.2-1,0.3-1.6,0.3c-1.2,0-2.2-0.4-2.9-1.3s-1.1-2.1-1.1-3.5V692.3z M535.7,692.5c0,1,0.2,1.8,0.6,2.4
		c0.4,0.6,1.1,0.9,1.9,0.9c0.6,0,1-0.1,1.4-0.4c0.4-0.3,0.7-0.6,0.9-1.1v-4.6c-0.2-0.4-0.5-0.8-0.9-1c-0.4-0.3-0.8-0.4-1.4-0.4
		c-0.9,0-1.5,0.4-2,1.1c-0.4,0.7-0.7,1.7-0.7,2.8V692.5z"/>
	<path class="st2" d="M552.5,684.7v2.4h1.9v1.4h-1.9v6.1c0,0.5,0.1,0.8,0.3,1c0.2,0.2,0.5,0.3,0.8,0.3c0.2,0,0.3,0,0.5,0
		c0.2,0,0.4-0.1,0.5-0.1l0.3,1.3c-0.2,0.1-0.4,0.2-0.8,0.3c-0.3,0.1-0.7,0.1-1,0.1c-0.7,0-1.3-0.2-1.8-0.7c-0.4-0.4-0.7-1.2-0.7-2.1
		v-6.1h-1.6v-1.4h1.6v-2.4H552.5z"/>
	<path class="st2" d="M556.3,696l1.5-0.3v-7.2l-1.5-0.3v-1.2h3.3v8.6l1.5,0.3v1.2h-4.9V696z M559.7,684.6h-1.8v-1.9h1.8V684.6z"/>
	<path class="st2" d="M562.2,696l1.5-0.3v-7.2l-1.5-0.3v-1.2h3.2l0.1,1.3c0.3-0.5,0.7-0.8,1.2-1.1c0.5-0.3,1.1-0.4,1.8-0.4
		s1.2,0.2,1.7,0.5c0.5,0.3,0.8,0.8,1.1,1.4c0.3-0.6,0.7-1,1.3-1.4s1.1-0.5,1.8-0.5c1,0,1.8,0.4,2.4,1.1c0.6,0.7,0.9,1.8,0.9,3.2v4.6
		l1.5,0.3v1.2h-4.9V696l1.5-0.3v-4.6c0-1-0.2-1.7-0.5-2.1c-0.3-0.4-0.8-0.6-1.5-0.6c-0.6,0-1.1,0.2-1.5,0.7c-0.4,0.4-0.6,1-0.7,1.7
		v4.9l1.5,0.3v1.2h-4.9V696l1.5-0.3v-4.6c0-0.9-0.2-1.6-0.5-2.1c-0.3-0.4-0.9-0.7-1.5-0.7c-0.6,0-1,0.1-1.4,0.3
		c-0.4,0.2-0.6,0.6-0.8,1v6l1.5,0.3v1.2h-4.9V696z"/>
	<path class="st2" d="M585,697.4c-1.4,0-2.5-0.5-3.3-1.4c-0.8-0.9-1.2-2.1-1.2-3.6v-0.4c0-1.4,0.4-2.6,1.3-3.6s1.9-1.4,3-1.4
		c1.3,0,2.4,0.4,3.1,1.2c0.7,0.8,1,1.9,1,3.3v1.1h-6.5l0,0c0,1,0.3,1.8,0.7,2.4s1.1,0.9,2,0.9c0.6,0,1.2-0.1,1.6-0.3
		c0.5-0.2,0.9-0.4,1.2-0.7l0.7,1.2c-0.4,0.3-0.8,0.6-1.4,0.9C586.5,697.2,585.8,697.4,585,697.4z M584.7,688.4
		c-0.6,0-1.1,0.3-1.6,0.8c-0.4,0.5-0.7,1.2-0.8,1.9l0,0h4.6v-0.2c0-0.7-0.2-1.3-0.6-1.8C586,688.6,585.5,688.4,584.7,688.4z"/>
	<path class="st2" d="M456.3,710.3v-1.2h3.1l0.2,1.5c0.3-0.5,0.6-0.9,1.1-1.2c0.4-0.3,0.9-0.4,1.4-0.4c0.1,0,0.3,0,0.4,0
		c0.2,0,0.3,0,0.3,0.1l-0.2,1.7l-1-0.1c-0.5,0-0.9,0.1-1.2,0.3c-0.3,0.2-0.6,0.5-0.8,1v5.8l1.5,0.3v1.2h-4.9V718l1.5-0.3v-7.2
		L456.3,710.3z"/>
	<path class="st2" d="M470.7,719.2c-0.1-0.3-0.1-0.5-0.1-0.7c0-0.2-0.1-0.4-0.1-0.6c-0.4,0.5-0.8,0.8-1.3,1.1
		c-0.5,0.3-1.1,0.4-1.7,0.4c-1,0-1.8-0.3-2.4-0.8s-0.8-1.2-0.8-2.2c0-1,0.4-1.7,1.2-2.2c0.8-0.5,1.8-0.8,3.2-0.8h1.9v-1.2
		c0-0.6-0.2-1.1-0.6-1.4c-0.4-0.3-0.9-0.5-1.5-0.5c-0.5,0-0.9,0.1-1.2,0.2c-0.3,0.1-0.6,0.3-0.8,0.5l-0.2,1.1h-1.4v-1.9
		c0.5-0.4,1-0.7,1.7-0.9c0.6-0.2,1.4-0.3,2.1-0.3c1.1,0,2.1,0.3,2.8,0.9c0.7,0.6,1.1,1.4,1.1,2.5v4.8c0,0.1,0,0.3,0,0.4
		c0,0.1,0,0.2,0,0.4l0.7,0.1v1.2H470.7z M467.7,717.8c0.6,0,1.2-0.1,1.7-0.4c0.5-0.3,0.9-0.6,1.1-1v-1.7h-1.9
		c-0.7,0-1.3,0.2-1.8,0.5c-0.4,0.3-0.7,0.8-0.7,1.3c0,0.4,0.1,0.8,0.4,1C466.8,717.7,467.2,717.8,467.7,717.8z"/>
	<path class="st2" d="M474.3,718l1.5-0.3v-7.2l-1.5-0.3v-1.2h3.1l0.1,1.5c0.3-0.5,0.8-0.9,1.3-1.2c0.5-0.3,1.1-0.4,1.7-0.4
		c1.1,0,1.9,0.3,2.5,1c0.6,0.6,0.9,1.6,0.9,2.9v4.9l1.5,0.3v1.2h-4.9V718l1.5-0.3v-4.9c0-0.9-0.2-1.5-0.5-1.9s-0.9-0.6-1.6-0.6
		c-0.5,0-1,0.1-1.4,0.4c-0.4,0.3-0.7,0.6-1,1v5.9l1.5,0.3v1.2h-4.9V718z"/>
	<path class="st2" d="M486.7,714.3c0-1.6,0.4-2.9,1.1-3.9c0.7-1,1.7-1.5,2.9-1.5c0.6,0,1.2,0.1,1.7,0.4c0.5,0.2,0.9,0.6,1.2,1.1
		l0.2-1.3h1.5v9.9c0,1.3-0.4,2.3-1.1,3.1c-0.7,0.7-1.8,1.1-3.1,1.1c-0.5,0-1-0.1-1.6-0.2s-1.1-0.3-1.5-0.5l0.5-1.4
		c0.3,0.2,0.7,0.3,1.2,0.4c0.5,0.1,0.9,0.2,1.4,0.2c0.8,0,1.4-0.2,1.8-0.7c0.4-0.5,0.6-1.1,0.6-2v-1c-0.3,0.4-0.7,0.7-1.2,1
		c-0.5,0.2-1,0.3-1.6,0.3c-1.2,0-2.2-0.4-2.9-1.3s-1.1-2.1-1.1-3.5V714.3z M488.6,714.5c0,1,0.2,1.8,0.6,2.4
		c0.4,0.6,1.1,0.9,1.9,0.9c0.6,0,1-0.1,1.4-0.4c0.4-0.3,0.7-0.6,0.9-1.1v-4.6c-0.2-0.4-0.5-0.8-0.9-1c-0.4-0.3-0.8-0.4-1.4-0.4
		c-0.9,0-1.5,0.4-2,1.1c-0.4,0.7-0.7,1.7-0.7,2.8V714.5z"/>
	<path class="st2" d="M502.1,719.4c-1.4,0-2.5-0.5-3.3-1.4c-0.8-0.9-1.2-2.1-1.2-3.6v-0.4c0-1.4,0.4-2.6,1.3-3.6s1.9-1.4,3-1.4
		c1.3,0,2.4,0.4,3.1,1.2c0.7,0.8,1,1.9,1,3.3v1.1h-6.5l0,0c0,1,0.3,1.8,0.7,2.4s1.1,0.9,2,0.9c0.6,0,1.2-0.1,1.6-0.3
		c0.5-0.2,0.9-0.4,1.2-0.7l0.7,1.2c-0.4,0.3-0.8,0.6-1.4,0.9C503.6,719.2,502.9,719.4,502.1,719.4z M501.8,710.4
		c-0.6,0-1.1,0.3-1.6,0.8c-0.4,0.5-0.7,1.2-0.8,1.9l0,0h4.6v-0.2c0-0.7-0.2-1.3-0.6-1.8C503.1,710.6,502.5,710.4,501.8,710.4z"/>
	<path class="st2" d="M512.6,713.7c0-2.4,0.5-4.5,1.5-6.2c1-1.7,2-2.9,3.1-3.5l0.1,0l0.3,1.1c-0.8,0.7-1.6,1.7-2.2,3.2
		c-0.6,1.5-0.9,3.3-0.9,5.4v0.1c0,2.2,0.3,4,0.9,5.4c0.6,1.5,1.4,2.5,2.2,3.3l-0.3,1h-0.1c-1.1-0.6-2.1-1.7-3.1-3.4
		C513.1,718.3,512.6,716.2,512.6,713.7L512.6,713.7z"/>
	<path class="st2" d="M518.6,719.2v-1.3l4.4-4.9c0.8-0.9,1.3-1.6,1.6-2.1s0.4-1.1,0.4-1.6c0-0.7-0.2-1.2-0.6-1.7
		c-0.4-0.5-0.9-0.7-1.6-0.7c-0.9,0-1.6,0.2-2.1,0.7c-0.4,0.5-0.7,1.2-0.7,2h-1.8l0-0.1c0-1.2,0.4-2.1,1.2-2.9
		c0.8-0.8,1.9-1.2,3.3-1.2c1.2,0,2.2,0.4,2.9,1.1c0.7,0.7,1.1,1.6,1.1,2.7c0,0.7-0.2,1.5-0.7,2.2c-0.4,0.7-1,1.5-1.8,2.4l-3.6,3.9
		l0,0h4.8l0.1-1.5h1.5v3H518.6z"/>
	<path class="st2" d="M536.7,714.6h1.9v1.4h-1.9v1.7l1.5,0.3v1.2h-4.8V718l1.5-0.3V716h-6.1v-1l6-9.4h1.9V714.6z M530.8,714.6h4.1
		v-6.4l-0.1,0l-0.2,0.5L530.8,714.6z"/>
	<path class="st2" d="M544.5,718l1.5-0.3v-11.6l-1.5-0.3v-1.2h3.3v5.8c0.3-0.5,0.8-0.9,1.3-1.1c0.5-0.3,1.1-0.4,1.7-0.4
		c1.1,0,1.9,0.3,2.5,1c0.6,0.6,0.9,1.6,0.9,3v4.9l1.5,0.3v1.2h-4.9V718l1.5-0.3v-4.9c0-0.8-0.2-1.4-0.5-1.8
		c-0.4-0.4-0.9-0.6-1.6-0.6c-0.5,0-1,0.1-1.4,0.4c-0.4,0.2-0.8,0.6-1,1v6l1.5,0.3v1.2h-4.9V718z"/>
	<path class="st2" d="M557,714.1c0-1.5,0.4-2.7,1.2-3.7c0.8-1,1.9-1.4,3.3-1.4c1.4,0,2.5,0.5,3.3,1.4c0.8,1,1.2,2.2,1.2,3.7v0.2
		c0,1.5-0.4,2.7-1.2,3.7s-1.9,1.4-3.3,1.4c-1.4,0-2.5-0.5-3.3-1.4s-1.2-2.2-1.2-3.7V714.1z M558.8,714.3c0,1.1,0.2,1.9,0.7,2.6
		s1.1,1,2,1c0.9,0,1.5-0.3,2-1s0.7-1.6,0.7-2.6v-0.2c0-1.1-0.2-1.9-0.7-2.6s-1.1-1-2-1c-0.9,0-1.5,0.3-2,1s-0.7,1.6-0.7,2.6V714.3z"
		/>
	<path class="st2" d="M574.8,717.7c-0.3,0.5-0.7,1-1.2,1.2c-0.5,0.3-1.1,0.4-1.7,0.4c-1.1,0-1.9-0.3-2.6-1c-0.6-0.7-0.9-1.8-0.9-3.3
		v-4.5l-1.2-0.3v-1.2h1.2h1.8v5.9c0,1.1,0.2,1.8,0.5,2.2c0.3,0.4,0.8,0.6,1.5,0.6c0.7,0,1.2-0.1,1.6-0.4c0.4-0.3,0.7-0.6,1-1.1v-5.8
		l-1.3-0.3v-1.2h1.3h1.8v8.6l1.2,0.3v1.2h-2.8L574.8,717.7z"/>
	<path class="st2" d="M579.2,710.3v-1.2h3.1l0.2,1.5c0.3-0.5,0.6-0.9,1.1-1.2c0.4-0.3,0.9-0.4,1.4-0.4c0.1,0,0.3,0,0.4,0
		c0.2,0,0.3,0,0.3,0.1l-0.2,1.7l-1-0.1c-0.5,0-0.9,0.1-1.2,0.3c-0.3,0.2-0.6,0.5-0.8,1v5.8l1.5,0.3v1.2h-4.9V718l1.5-0.3v-7.2
		L579.2,710.3z"/>
	<path class="st2" d="M594.7,712.3h-1.4l-0.3-1.2c-0.2-0.2-0.5-0.4-0.8-0.5c-0.3-0.1-0.7-0.2-1.1-0.2c-0.6,0-1.1,0.1-1.4,0.4
		c-0.3,0.3-0.5,0.6-0.5,1c0,0.4,0.1,0.7,0.4,0.9c0.3,0.2,0.8,0.4,1.7,0.6c1.3,0.3,2.2,0.6,2.8,1.1c0.6,0.5,0.9,1.1,0.9,1.9
		c0,0.9-0.4,1.6-1.1,2.2c-0.7,0.6-1.7,0.8-2.8,0.8c-0.8,0-1.4-0.1-2.1-0.3c-0.6-0.2-1.1-0.4-1.6-0.8l0-2.3h1.4l0.3,1.3
		c0.2,0.2,0.5,0.3,0.9,0.4c0.4,0.1,0.7,0.1,1.1,0.1c0.6,0,1.2-0.1,1.5-0.4c0.4-0.3,0.6-0.6,0.6-1c0-0.4-0.2-0.7-0.5-1
		c-0.3-0.3-0.9-0.5-1.7-0.7c-1.2-0.3-2.1-0.6-2.8-1.1c-0.6-0.5-0.9-1.1-0.9-1.9c0-0.8,0.3-1.5,1-2.1c0.7-0.6,1.6-0.9,2.7-0.9
		c0.8,0,1.4,0.1,2.1,0.3c0.6,0.2,1.1,0.5,1.5,0.8L594.7,712.3z"/>
	<path class="st2" d="M600.9,713.8c0,2.4-0.5,4.5-1.5,6.2s-2,2.9-3.1,3.4h-0.1l-0.3-1c0.8-0.6,1.6-1.7,2.2-3.2
		c0.6-1.5,0.9-3.3,0.9-5.5v-0.1c0-2.1-0.3-3.9-1-5.4c-0.7-1.5-1.4-2.6-2.2-3.3l0.3-1h0.1c1.1,0.6,2.1,1.7,3.1,3.5
		C600.5,709.2,600.9,711.2,600.9,713.8L600.9,713.8z"/>
</g>
<g id="rettp_x5F_02_2_">
	<rect x="767.3" y="660" class="st0" width="213.8" height="81.9"/>
	<path class="st0" d="M982.6,743.4H765.8v-84.9h216.8V743.4z M768.8,740.4h210.8v-78.9H768.8V740.4z"/>
</g>
<g id="rettv_x5F_02_2_">
	<rect x="767.3" y="660" class="st4" width="213.8" height="81.9"/>
	<path class="st0" d="M982.6,743.4H765.8v-84.9h216.8V743.4z M768.8,740.4h210.8v-78.9H768.8V740.4z"/>
</g>
<g id="text1_x5F_02_2_">
	<path class="st2" d="M821.3,687.6h-1.4l-0.3-1.9c-0.3-0.2-0.6-0.4-1.1-0.6c-0.5-0.2-1-0.2-1.6-0.2c-1,0-1.7,0.2-2.2,0.6
		c-0.5,0.4-0.8,0.9-0.8,1.6c0,0.6,0.3,1.1,0.8,1.5c0.5,0.4,1.4,0.7,2.6,1c1.4,0.4,2.5,0.9,3.2,1.6c0.7,0.7,1.1,1.5,1.1,2.6
		c0,1.1-0.4,2-1.3,2.6s-2,1-3.5,1c-1,0-2-0.2-2.8-0.5c-0.8-0.3-1.5-0.8-2-1.3V693h1.4l0.4,1.9c0.4,0.3,0.8,0.5,1.3,0.7
		c0.5,0.2,1.1,0.3,1.8,0.3c0.9,0,1.6-0.2,2.2-0.6c0.5-0.4,0.8-0.9,0.8-1.6c0-0.6-0.2-1.1-0.7-1.6c-0.5-0.4-1.3-0.8-2.5-1.1
		c-1.4-0.3-2.5-0.8-3.3-1.5c-0.8-0.7-1.2-1.5-1.2-2.5c0-1.1,0.4-1.9,1.3-2.6c0.9-0.7,2.1-1.1,3.5-1.1c0.9,0,1.8,0.2,2.6,0.5
		s1.4,0.7,1.9,1.2V687.6z"/>
	<path class="st2" d="M823.1,699.8l1.5-0.3v-11l-1.5-0.3v-1.2h3.1l0.2,1.2c0.3-0.5,0.7-0.8,1.2-1c0.5-0.2,1-0.4,1.7-0.4
		c1.2,0,2.2,0.5,2.9,1.5c0.7,1,1,2.3,1,3.9v0.2c0,1.4-0.3,2.6-1,3.5c-0.7,0.9-1.6,1.3-2.9,1.3c-0.6,0-1.2-0.1-1.6-0.3
		s-0.9-0.5-1.2-0.9v3.5l1.5,0.3v1.2h-4.9V699.8z M831.3,692.3c0-1.1-0.2-2.1-0.7-2.8c-0.4-0.7-1.1-1.1-2-1.1c-0.5,0-1,0.1-1.3,0.4
		c-0.4,0.2-0.7,0.6-0.9,1v4.9c0.2,0.4,0.5,0.7,0.9,1c0.4,0.2,0.8,0.3,1.4,0.3c0.9,0,1.5-0.3,2-0.9s0.7-1.5,0.7-2.5V692.3z"/>
	<path class="st2" d="M834.8,692.1c0-1.5,0.4-2.7,1.2-3.7c0.8-1,1.9-1.4,3.3-1.4c1.4,0,2.5,0.5,3.3,1.4c0.8,1,1.2,2.2,1.2,3.7v0.2
		c0,1.5-0.4,2.7-1.2,3.7s-1.9,1.4-3.3,1.4c-1.4,0-2.5-0.5-3.3-1.4s-1.2-2.2-1.2-3.7V692.1z M836.6,692.3c0,1.1,0.2,1.9,0.7,2.6
		s1.1,1,2,1c0.9,0,1.5-0.3,2-1s0.7-1.6,0.7-2.6v-0.2c0-1.1-0.2-1.9-0.7-2.6s-1.1-1-2-1c-0.9,0-1.5,0.3-2,1s-0.7,1.6-0.7,2.6V692.3z"
		/>
	<path class="st2" d="M848.6,684.7v2.4h1.9v1.4h-1.9v6.1c0,0.5,0.1,0.8,0.3,1c0.2,0.2,0.5,0.3,0.8,0.3c0.2,0,0.3,0,0.5,0
		c0.2,0,0.4-0.1,0.5-0.1l0.3,1.3c-0.2,0.1-0.4,0.2-0.8,0.3c-0.3,0.1-0.7,0.1-1,0.1c-0.7,0-1.3-0.2-1.8-0.7c-0.4-0.4-0.7-1.2-0.7-2.1
		v-6.1h-1.6v-1.4h1.6v-2.4H848.6z"/>
	<path class="st2" d="M855.6,684.7v2.4h1.9v1.4h-1.9v6.1c0,0.5,0.1,0.8,0.3,1c0.2,0.2,0.5,0.3,0.8,0.3c0.2,0,0.3,0,0.5,0
		c0.2,0,0.4-0.1,0.5-0.1l0.3,1.3c-0.2,0.1-0.4,0.2-0.8,0.3c-0.3,0.1-0.7,0.1-1,0.1c-0.7,0-1.3-0.2-1.8-0.7c-0.4-0.4-0.7-1.2-0.7-2.1
		v-6.1h-1.6v-1.4h1.6v-2.4H855.6z"/>
	<path class="st2" d="M859.4,696l1.5-0.3v-7.2l-1.5-0.3v-1.2h3.3v8.6l1.5,0.3v1.2h-4.9V696z M862.7,684.6h-1.8v-1.9h1.8V684.6z"/>
	<path class="st2" d="M865.3,696l1.5-0.3v-7.2l-1.5-0.3v-1.2h3.1l0.1,1.5c0.3-0.5,0.8-0.9,1.3-1.2c0.5-0.3,1.1-0.4,1.7-0.4
		c1.1,0,1.9,0.3,2.5,1c0.6,0.6,0.9,1.6,0.9,2.9v4.9l1.5,0.3v1.2h-4.9V696l1.5-0.3v-4.9c0-0.9-0.2-1.5-0.5-1.9s-0.9-0.6-1.6-0.6
		c-0.5,0-1,0.1-1.4,0.4c-0.4,0.3-0.7,0.6-1,1v5.9l1.5,0.3v1.2h-4.9V696z"/>
	<path class="st2" d="M877.8,692.3c0-1.6,0.4-2.9,1.1-3.9c0.7-1,1.7-1.5,2.9-1.5c0.6,0,1.2,0.1,1.7,0.4c0.5,0.2,0.9,0.6,1.2,1.1
		l0.2-1.3h1.5v9.9c0,1.3-0.4,2.3-1.1,3.1c-0.7,0.7-1.8,1.1-3.1,1.1c-0.5,0-1-0.1-1.6-0.2s-1.1-0.3-1.5-0.5l0.5-1.4
		c0.3,0.2,0.7,0.3,1.2,0.4c0.5,0.1,0.9,0.2,1.4,0.2c0.8,0,1.4-0.2,1.8-0.7c0.4-0.5,0.6-1.1,0.6-2v-1c-0.3,0.4-0.7,0.7-1.2,1
		c-0.5,0.2-1,0.3-1.6,0.3c-1.2,0-2.2-0.4-2.9-1.3s-1.1-2.1-1.1-3.5V692.3z M879.6,692.5c0,1,0.2,1.8,0.6,2.4
		c0.4,0.6,1.1,0.9,1.9,0.9c0.6,0,1-0.1,1.4-0.4c0.4-0.3,0.7-0.6,0.9-1.1v-4.6c-0.2-0.4-0.5-0.8-0.9-1c-0.4-0.3-0.8-0.4-1.4-0.4
		c-0.9,0-1.5,0.4-2,1.1c-0.4,0.7-0.7,1.7-0.7,2.8V692.5z"/>
	<path class="st2" d="M892.9,696l1.5-0.3v-7.2l-1.5-0.3v-1.2h3.2l0.1,1.3c0.3-0.5,0.7-0.8,1.2-1.1c0.5-0.3,1.1-0.4,1.8-0.4
		s1.2,0.2,1.7,0.5c0.5,0.3,0.8,0.8,1.1,1.4c0.3-0.6,0.7-1,1.3-1.4s1.1-0.5,1.8-0.5c1,0,1.8,0.4,2.4,1.1c0.6,0.7,0.9,1.8,0.9,3.2v4.6
		l1.5,0.3v1.2H905V696l1.5-0.3v-4.6c0-1-0.2-1.7-0.5-2.1c-0.3-0.4-0.8-0.6-1.5-0.6c-0.6,0-1.1,0.2-1.5,0.7c-0.4,0.4-0.6,1-0.7,1.7
		v4.9l1.5,0.3v1.2h-4.9V696l1.5-0.3v-4.6c0-0.9-0.2-1.6-0.5-2.1c-0.3-0.4-0.9-0.7-1.5-0.7c-0.6,0-1,0.1-1.4,0.3
		c-0.4,0.2-0.6,0.6-0.8,1v6l1.5,0.3v1.2h-4.9V696z"/>
	<path class="st2" d="M911.1,692.1c0-1.5,0.4-2.7,1.2-3.7c0.8-1,1.9-1.4,3.3-1.4c1.4,0,2.5,0.5,3.3,1.4c0.8,1,1.2,2.2,1.2,3.7v0.2
		c0,1.5-0.4,2.7-1.2,3.7s-1.9,1.4-3.3,1.4c-1.4,0-2.5-0.5-3.3-1.4s-1.2-2.2-1.2-3.7V692.1z M912.9,692.3c0,1.1,0.2,1.9,0.7,2.6
		s1.1,1,2,1c0.9,0,1.5-0.3,2-1s0.7-1.6,0.7-2.6v-0.2c0-1.1-0.2-1.9-0.7-2.6s-1.1-1-2-1c-0.9,0-1.5,0.3-2,1s-0.7,1.6-0.7,2.6V692.3z"
		/>
	<path class="st2" d="M929.4,690.3H928l-0.3-1.2c-0.2-0.2-0.5-0.4-0.8-0.5c-0.3-0.1-0.7-0.2-1.1-0.2c-0.6,0-1.1,0.1-1.4,0.4
		c-0.3,0.3-0.5,0.6-0.5,1c0,0.4,0.1,0.7,0.4,0.9c0.3,0.2,0.8,0.4,1.7,0.6c1.3,0.3,2.2,0.6,2.8,1.1c0.6,0.5,0.9,1.1,0.9,1.9
		c0,0.9-0.4,1.6-1.1,2.2c-0.7,0.6-1.7,0.8-2.8,0.8c-0.8,0-1.4-0.1-2.1-0.3c-0.6-0.2-1.1-0.4-1.6-0.8l0-2.3h1.4l0.3,1.3
		c0.2,0.2,0.5,0.3,0.9,0.4c0.4,0.1,0.7,0.1,1.1,0.1c0.6,0,1.2-0.1,1.5-0.4c0.4-0.3,0.6-0.6,0.6-1c0-0.4-0.2-0.7-0.5-1
		c-0.3-0.3-0.9-0.5-1.7-0.7c-1.2-0.3-2.1-0.6-2.8-1.1c-0.6-0.5-0.9-1.1-0.9-1.9c0-0.8,0.3-1.5,1-2.1c0.7-0.6,1.6-0.9,2.7-0.9
		c0.8,0,1.4,0.1,2.1,0.3c0.6,0.2,1.1,0.5,1.5,0.8L929.4,690.3z"/>
	<path class="st2" d="M934.6,684.7v2.4h1.9v1.4h-1.9v6.1c0,0.5,0.1,0.8,0.3,1c0.2,0.2,0.5,0.3,0.8,0.3c0.2,0,0.3,0,0.5,0
		c0.2,0,0.4-0.1,0.5-0.1l0.3,1.3c-0.2,0.1-0.4,0.2-0.8,0.3c-0.3,0.1-0.7,0.1-1,0.1c-0.7,0-1.3-0.2-1.8-0.7c-0.4-0.4-0.7-1.2-0.7-2.1
		v-6.1h-1.6v-1.4h1.6v-2.4H934.6z"/>
	<path class="st2" d="M792.2,721.8l1.5-0.3v-11l-1.5-0.3v-1.2h3.1l0.2,1.2c0.3-0.5,0.7-0.8,1.2-1c0.5-0.2,1-0.4,1.7-0.4
		c1.2,0,2.2,0.5,2.9,1.5c0.7,1,1,2.3,1,3.9v0.2c0,1.4-0.3,2.6-1,3.5c-0.7,0.9-1.6,1.3-2.9,1.3c-0.6,0-1.2-0.1-1.6-0.3
		s-0.9-0.5-1.2-0.9v3.5l1.5,0.3v1.2h-4.9V721.8z M800.5,714.3c0-1.1-0.2-2.1-0.7-2.8c-0.4-0.7-1.1-1.1-2-1.1c-0.5,0-1,0.1-1.3,0.4
		c-0.4,0.2-0.7,0.6-0.9,1v4.9c0.2,0.4,0.5,0.7,0.9,1c0.4,0.2,0.8,0.3,1.4,0.3c0.9,0,1.5-0.3,2-0.9s0.7-1.5,0.7-2.5V714.3z"/>
	<path class="st2" d="M804,718l1.5-0.3v-7.2l-1.5-0.3v-1.2h3.3v8.6l1.5,0.3v1.2H804V718z M807.3,706.6h-1.8v-1.9h1.8V706.6z"/>
	<path class="st2" d="M810.2,710.3v-1.2h3.1l0.2,1.5c0.3-0.5,0.6-0.9,1.1-1.2c0.4-0.3,0.9-0.4,1.4-0.4c0.1,0,0.3,0,0.4,0
		c0.2,0,0.3,0,0.3,0.1l-0.2,1.7l-1-0.1c-0.5,0-0.9,0.1-1.2,0.3c-0.3,0.2-0.6,0.5-0.8,1v5.8l1.5,0.3v1.2h-4.9V718l1.5-0.3v-7.2
		L810.2,710.3z"/>
	<path class="st2" d="M824.6,719.2c-0.1-0.3-0.1-0.5-0.1-0.7c0-0.2-0.1-0.4-0.1-0.6c-0.4,0.5-0.8,0.8-1.3,1.1
		c-0.5,0.3-1.1,0.4-1.7,0.4c-1,0-1.8-0.3-2.4-0.8s-0.8-1.2-0.8-2.2c0-1,0.4-1.7,1.2-2.2c0.8-0.5,1.8-0.8,3.2-0.8h1.9v-1.2
		c0-0.6-0.2-1.1-0.6-1.4c-0.4-0.3-0.9-0.5-1.5-0.5c-0.5,0-0.9,0.1-1.2,0.2c-0.3,0.1-0.6,0.3-0.8,0.5l-0.2,1.1h-1.4v-1.9
		c0.5-0.4,1-0.7,1.7-0.9c0.6-0.2,1.4-0.3,2.1-0.3c1.1,0,2.1,0.3,2.8,0.9c0.7,0.6,1.1,1.4,1.1,2.5v4.8c0,0.1,0,0.3,0,0.4
		c0,0.1,0,0.2,0,0.4l0.7,0.1v1.2H824.6z M821.7,717.8c0.6,0,1.2-0.1,1.7-0.4c0.5-0.3,0.9-0.6,1.1-1v-1.7h-1.9
		c-0.7,0-1.3,0.2-1.8,0.5c-0.4,0.3-0.7,0.8-0.7,1.3c0,0.4,0.1,0.8,0.4,1C820.7,717.7,821.1,717.8,821.7,717.8z"/>
	<path class="st2" d="M831.7,706.7v2.4h1.9v1.4h-1.9v6.1c0,0.5,0.1,0.8,0.3,1c0.2,0.2,0.5,0.3,0.8,0.3c0.2,0,0.3,0,0.5,0
		c0.2,0,0.4-0.1,0.5-0.1l0.3,1.3c-0.2,0.1-0.4,0.2-0.8,0.3c-0.3,0.1-0.7,0.1-1,0.1c-0.7,0-1.3-0.2-1.8-0.7c-0.4-0.4-0.7-1.2-0.7-2.1
		v-6.1h-1.6v-1.4h1.6v-2.4H831.7z"/>
	<path class="st2" d="M840.1,719.4c-1.4,0-2.5-0.5-3.3-1.4c-0.8-0.9-1.2-2.1-1.2-3.6v-0.4c0-1.4,0.4-2.6,1.3-3.6s1.9-1.4,3-1.4
		c1.3,0,2.4,0.4,3.1,1.2c0.7,0.8,1,1.9,1,3.3v1.1h-6.5l0,0c0,1,0.3,1.8,0.7,2.4s1.1,0.9,2,0.9c0.6,0,1.2-0.1,1.6-0.3
		c0.5-0.2,0.9-0.4,1.2-0.7l0.7,1.2c-0.4,0.3-0.8,0.6-1.4,0.9C841.6,719.2,840.9,719.4,840.1,719.4z M839.8,710.4
		c-0.6,0-1.1,0.3-1.6,0.8c-0.4,0.5-0.7,1.2-0.8,1.9l0,0h4.6v-0.2c0-0.7-0.2-1.3-0.6-1.8C841.1,710.6,840.6,710.4,839.8,710.4z"/>
	<path class="st2" d="M852.5,718c-0.3,0.5-0.7,0.8-1.2,1c-0.5,0.2-1,0.4-1.6,0.4c-1.2,0-2.2-0.4-2.9-1.3c-0.7-0.9-1-2.1-1-3.5v-0.2
		c0-1.6,0.3-2.9,1-3.9c0.7-1,1.7-1.5,2.9-1.5c0.6,0,1.1,0.1,1.6,0.3c0.5,0.2,0.8,0.5,1.2,1v-4.1l-1.5-0.3v-1.2h1.5h1.8v13l1.5,0.3
		v1.2h-3.1L852.5,718z M847.5,714.5c0,1,0.2,1.8,0.6,2.4c0.4,0.6,1.1,0.9,1.9,0.9c0.5,0,1-0.1,1.4-0.4c0.4-0.2,0.7-0.6,0.9-1v-4.7
		c-0.2-0.4-0.5-0.8-0.9-1c-0.4-0.2-0.8-0.4-1.4-0.4c-0.9,0-1.5,0.4-1.9,1.1c-0.4,0.7-0.6,1.7-0.6,2.8V714.5z"/>
	<path class="st2" d="M861.6,721.8l1.5-0.3v-11l-1.5-0.3v-1.2h3.1l0.2,1.2c0.3-0.5,0.7-0.8,1.2-1c0.5-0.2,1-0.4,1.7-0.4
		c1.2,0,2.2,0.5,2.9,1.5c0.7,1,1,2.3,1,3.9v0.2c0,1.4-0.3,2.6-1,3.5c-0.7,0.9-1.6,1.3-2.9,1.3c-0.6,0-1.2-0.1-1.6-0.3
		s-0.9-0.5-1.2-0.9v3.5l1.5,0.3v1.2h-4.9V721.8z M869.8,714.3c0-1.1-0.2-2.1-0.7-2.8c-0.4-0.7-1.1-1.1-2-1.1c-0.5,0-1,0.1-1.3,0.4
		c-0.4,0.2-0.7,0.6-0.9,1v4.9c0.2,0.4,0.5,0.7,0.9,1c0.4,0.2,0.8,0.3,1.4,0.3c0.9,0,1.5-0.3,2-0.9s0.7-1.5,0.7-2.5V714.3z"/>
	<path class="st2" d="M880.5,717.7c-0.3,0.5-0.7,1-1.2,1.2c-0.5,0.3-1.1,0.4-1.7,0.4c-1.1,0-1.9-0.3-2.6-1c-0.6-0.7-0.9-1.8-0.9-3.3
		v-4.5l-1.2-0.3v-1.2h1.2h1.8v5.9c0,1.1,0.2,1.8,0.5,2.2c0.3,0.4,0.8,0.6,1.5,0.6c0.7,0,1.2-0.1,1.6-0.4c0.4-0.3,0.7-0.6,1-1.1v-5.8
		l-1.3-0.3v-1.2h1.3h1.8v8.6l1.2,0.3v1.2h-2.8L880.5,717.7z"/>
	<path class="st2" d="M894.1,714.5c0,1.4-0.3,2.6-1,3.5c-0.7,0.9-1.7,1.3-2.9,1.3c-0.7,0-1.2-0.1-1.7-0.4c-0.5-0.3-0.9-0.6-1.2-1.1
		l-0.2,1.3h-1.6v-13l-1.5-0.3v-1.2h3.3v5.6c0.3-0.4,0.7-0.8,1.2-1c0.5-0.2,1-0.4,1.6-0.4c1.2,0,2.2,0.5,2.9,1.5c0.7,1,1,2.3,1,3.9
		V714.5z M892.2,714.3c0-1.2-0.2-2.1-0.6-2.8c-0.4-0.7-1.1-1.1-1.9-1.1c-0.6,0-1,0.1-1.4,0.4c-0.4,0.3-0.7,0.6-0.9,1.1v4.4
		c0.2,0.5,0.5,0.8,0.9,1.1c0.4,0.3,0.9,0.4,1.4,0.4c0.9,0,1.5-0.3,1.9-0.9c0.4-0.6,0.6-1.4,0.6-2.4V714.3z"/>
	<path class="st2" d="M895.5,705.9v-1.2h3.3v13l1.5,0.3v1.2h-4.9V718l1.5-0.3v-11.6L895.5,705.9z"/>
	<path class="st2" d="M901.8,718l1.5-0.3v-7.2l-1.5-0.3v-1.2h3.3v8.6l1.5,0.3v1.2h-4.9V718z M905.1,706.6h-1.8v-1.9h1.8V706.6z"/>
	<path class="st2" d="M915.7,712.3h-1.4l-0.3-1.2c-0.2-0.2-0.5-0.4-0.8-0.5c-0.3-0.1-0.7-0.2-1.1-0.2c-0.6,0-1.1,0.1-1.4,0.4
		c-0.3,0.3-0.5,0.6-0.5,1c0,0.4,0.1,0.7,0.4,0.9c0.3,0.2,0.8,0.4,1.7,0.6c1.3,0.3,2.2,0.6,2.8,1.1c0.6,0.5,0.9,1.1,0.9,1.9
		c0,0.9-0.4,1.6-1.1,2.2c-0.7,0.6-1.7,0.8-2.8,0.8c-0.8,0-1.4-0.1-2.1-0.3c-0.6-0.2-1.1-0.4-1.6-0.8l0-2.3h1.4l0.3,1.3
		c0.2,0.2,0.5,0.3,0.9,0.4c0.4,0.1,0.7,0.1,1.1,0.1c0.6,0,1.2-0.1,1.5-0.4c0.4-0.3,0.6-0.6,0.6-1c0-0.4-0.2-0.7-0.5-1
		c-0.3-0.3-0.9-0.5-1.7-0.7c-1.2-0.3-2.1-0.6-2.8-1.1c-0.6-0.5-0.9-1.1-0.9-1.9c0-0.8,0.3-1.5,1-2.1c0.7-0.6,1.6-0.9,2.7-0.9
		c0.8,0,1.4,0.1,2.1,0.3c0.6,0.2,1.1,0.5,1.5,0.8L915.7,712.3z"/>
	<path class="st2" d="M917.4,718l1.5-0.3v-11.6l-1.5-0.3v-1.2h3.3v5.8c0.3-0.5,0.8-0.9,1.3-1.1c0.5-0.3,1.1-0.4,1.7-0.4
		c1.1,0,1.9,0.3,2.5,1c0.6,0.6,0.9,1.6,0.9,3v4.9l1.5,0.3v1.2h-4.9V718l1.5-0.3v-4.9c0-0.8-0.2-1.4-0.5-1.8
		c-0.4-0.4-0.9-0.6-1.6-0.6c-0.5,0-1,0.1-1.4,0.4c-0.4,0.2-0.8,0.6-1,1v6l1.5,0.3v1.2h-4.9V718z"/>
	<path class="st2" d="M934.5,719.4c-1.4,0-2.5-0.5-3.3-1.4c-0.8-0.9-1.2-2.1-1.2-3.6v-0.4c0-1.4,0.4-2.6,1.3-3.6s1.9-1.4,3-1.4
		c1.3,0,2.4,0.4,3.1,1.2c0.7,0.8,1,1.9,1,3.3v1.1h-6.5l0,0c0,1,0.3,1.8,0.7,2.4s1.1,0.9,2,0.9c0.6,0,1.2-0.1,1.6-0.3
		c0.5-0.2,0.9-0.4,1.2-0.7l0.7,1.2c-0.4,0.3-0.8,0.6-1.4,0.9C936,719.2,935.3,719.4,934.5,719.4z M934.2,710.4
		c-0.6,0-1.1,0.3-1.6,0.8c-0.4,0.5-0.7,1.2-0.8,1.9l0,0h4.6v-0.2c0-0.7-0.2-1.3-0.6-1.8C935.5,710.6,934.9,710.4,934.2,710.4z"/>
	<path class="st2" d="M940.1,710.3v-1.2h3.1l0.2,1.5c0.3-0.5,0.6-0.9,1.1-1.2c0.4-0.3,0.9-0.4,1.4-0.4c0.1,0,0.3,0,0.4,0
		c0.2,0,0.3,0,0.3,0.1l-0.2,1.7l-1-0.1c-0.5,0-0.9,0.1-1.2,0.3c-0.3,0.2-0.6,0.5-0.8,1v5.8l1.5,0.3v1.2h-4.9V718l1.5-0.3v-7.2
		L940.1,710.3z"/>
	<path class="st2" d="M955.6,712.3h-1.4l-0.3-1.2c-0.2-0.2-0.5-0.4-0.8-0.5c-0.3-0.1-0.7-0.2-1.1-0.2c-0.6,0-1.1,0.1-1.4,0.4
		c-0.3,0.3-0.5,0.6-0.5,1c0,0.4,0.1,0.7,0.4,0.9c0.3,0.2,0.8,0.4,1.7,0.6c1.3,0.3,2.2,0.6,2.8,1.1c0.6,0.5,0.9,1.1,0.9,1.9
		c0,0.9-0.4,1.6-1.1,2.2c-0.7,0.6-1.7,0.8-2.8,0.8c-0.8,0-1.4-0.1-2.1-0.3c-0.6-0.2-1.1-0.4-1.6-0.8l0-2.3h1.4l0.3,1.3
		c0.2,0.2,0.5,0.3,0.9,0.4c0.4,0.1,0.7,0.1,1.1,0.1c0.6,0,1.2-0.1,1.5-0.4c0.4-0.3,0.6-0.6,0.6-1c0-0.4-0.2-0.7-0.5-1
		c-0.3-0.3-0.9-0.5-1.7-0.7c-1.2-0.3-2.1-0.6-2.8-1.1c-0.6-0.5-0.9-1.1-0.9-1.9c0-0.8,0.3-1.5,1-2.1c0.7-0.6,1.6-0.9,2.7-0.9
		c0.8,0,1.4,0.1,2.1,0.3c0.6,0.2,1.1,0.5,1.5,0.8L955.6,712.3z"/>
</g>
<g id="fact_x5F_06">
	<g id="rettv_x5F_06">
		<path d="M636.7,881.9h-6.1v-2.1h4v-1h2.1V881.9z M625.4,881.9h-5.1v-2.1h5.1V881.9z M615.3,881.9h-5.1v-2.1h5.1V881.9z
			 M605.1,881.9H600v-2.1h5.1V881.9z M594.9,881.9h-5.1v-2.1h5.1V881.9z M584.8,881.9h-5.1v-2.1h5.1V881.9z M574.6,881.9h-5.1v-2.1
			h5.1V881.9z M564.5,881.9h-5.1v-2.1h5.1V881.9z M554.3,881.9h-5.1v-2.1h5.1V881.9z M544.1,881.9h-5.1v-2.1h5.1V881.9z M534,881.9
			h-5.1v-2.1h5.1V881.9z M523.8,881.9h-5.1v-2.1h5.1V881.9z M513.7,881.9h-5.1v-2.1h5.1V881.9z M503.5,881.9h-5.1v-2.1h5.1V881.9z
			 M493.3,881.9h-5.1v-2.1h5.1V881.9z M483.2,881.9h-5.1v-2.1h5.1V881.9z M473,881.9h-5.1v-2.1h5.1V881.9z M462.8,881.9h-5.1v-2.1
			h5.1V881.9z M452.7,881.9h-5.1v-2.1h5.1V881.9z M442.5,881.9h-5.1v-2.1h5.1V881.9z M432.4,881.9h-5.1v-2.1h5.1V881.9z
			 M422.2,881.9h-1.5v-5.7h2.1v4.7h-0.6V881.9z M636.7,873.7h-2.1v-5.1h2.1V873.7z M422.8,871.1h-2.1V866h2.1V871.1z M636.7,863.5
			h-2.1v-5.1h2.1V863.5z M422.8,860.9h-2.1v-5.1h2.1V860.9z M636.7,853.3h-2.1v-5.1h2.1V853.3z M422.8,850.8h-2.1v-5.1h2.1V850.8z
			 M636.7,843.2h-2.1v-5.1h2.1V843.2z M422.8,840.6h-2.1v-5.1h2.1V840.6z M636.7,833h-2.1v-5.1h2.1V833z M422.8,830.4h-2.1v-5.1h2.1
			V830.4z M636.7,822.8h-2.1v-5.1h2.1V822.8z M422.8,820.3h-2.1v-5.1h2.1V820.3z M636.7,812.7h-2.1v-5.1h2.1V812.7z M422.8,810.1
			h-2.1V805h2.1V810.1z M636.7,802.5h-2.1V800h-0.4v-2.1h2.5V802.5z M629.1,800H624v-2.1h5.1V800z M618.9,800h-5.1v-2.1h5.1V800z
			 M608.7,800h-5.1v-2.1h5.1V800z M598.6,800h-5.1v-2.1h5.1V800z M588.4,800h-5.1v-2.1h5.1V800z M578.2,800h-5.1v-2.1h5.1V800z
			 M568.1,800H563v-2.1h5.1V800z M557.9,800h-5.1v-2.1h5.1V800z M547.8,800h-5.1v-2.1h5.1V800z M537.6,800h-5.1v-2.1h5.1V800z
			 M527.4,800h-5.1v-2.1h5.1V800z M517.3,800h-5.1v-2.1h5.1V800z M507.1,800H502v-2.1h5.1V800z M496.9,800h-5.1v-2.1h5.1V800z
			 M486.8,800h-5.1v-2.1h5.1V800z M476.6,800h-5.1v-2.1h5.1V800z M466.5,800h-5.1v-2.1h5.1V800z M456.3,800h-5.1v-2.1h5.1V800z
			 M446.1,800h-5.1v-2.1h5.1V800z M436,800h-5.1v-2.1h5.1V800z M425.8,800l-5.1,0v-2.1h5.1V800z"/>
	</g>
	<g id="text1_x5F_06">
		<path class="st2" d="M482.3,826.7H481l-0.3-1.9c-0.3-0.3-0.7-0.5-1.1-0.7s-0.9-0.3-1.5-0.3c-1.4,0-2.5,0.5-3.2,1.5
			c-0.8,1-1.1,2.3-1.1,3.9v0.2c0,1.6,0.4,2.9,1.1,3.9c0.7,1,1.8,1.5,3.1,1.5c0.6,0,1.2-0.1,1.7-0.3c0.5-0.2,0.9-0.4,1.2-0.7l0.3-1.9
			h1.3v2.4c-0.4,0.5-1,0.9-1.8,1.3c-0.8,0.4-1.7,0.6-2.7,0.6c-1.8,0-3.2-0.6-4.3-1.9c-1.1-1.3-1.7-2.9-1.7-4.9v-0.2
			c0-2,0.6-3.6,1.7-4.9c1.1-1.3,2.6-1.9,4.4-1.9c1,0,1.9,0.2,2.7,0.6c0.8,0.4,1.4,0.8,1.8,1.3V826.7z"/>
		<path class="st2" d="M490.8,836.1c-0.1-0.3-0.1-0.5-0.1-0.7c0-0.2-0.1-0.4-0.1-0.6c-0.4,0.5-0.8,0.8-1.3,1.1
			c-0.5,0.3-1.1,0.4-1.7,0.4c-1,0-1.8-0.3-2.4-0.8c-0.5-0.5-0.8-1.2-0.8-2.2c0-1,0.4-1.7,1.2-2.2c0.8-0.5,1.8-0.8,3.2-0.8h1.9v-1.2
			c0-0.6-0.2-1.1-0.6-1.4c-0.4-0.3-0.9-0.5-1.5-0.5c-0.5,0-0.9,0.1-1.2,0.2c-0.3,0.1-0.6,0.3-0.8,0.5l-0.2,1.1h-1.4v-1.9
			c0.5-0.4,1-0.7,1.7-0.9s1.4-0.3,2.1-0.3c1.1,0,2.1,0.3,2.8,0.9s1.1,1.4,1.1,2.5v4.8c0,0.1,0,0.3,0,0.4c0,0.1,0,0.2,0,0.4l0.7,0.1
			v1.2H490.8z M487.8,834.8c0.6,0,1.2-0.1,1.7-0.4c0.5-0.3,0.9-0.6,1.1-1v-1.7h-1.9c-0.7,0-1.3,0.2-1.8,0.5
			c-0.4,0.3-0.7,0.8-0.7,1.3c0,0.4,0.1,0.8,0.4,1C486.9,834.6,487.3,834.8,487.8,834.8z"/>
		<path class="st2" d="M494.7,827.2v-1.2h3.1l0.2,1.5c0.3-0.5,0.6-0.9,1.1-1.2c0.4-0.3,0.9-0.4,1.4-0.4c0.1,0,0.3,0,0.4,0
			c0.2,0,0.3,0,0.3,0.1l-0.2,1.7l-1-0.1c-0.5,0-0.9,0.1-1.2,0.3c-0.3,0.2-0.6,0.5-0.8,1v5.8l1.5,0.3v1.2h-4.9v-1.2l1.5-0.3v-7.2
			L494.7,827.2z"/>
		<path class="st2" d="M506,823.6v2.4h1.9v1.4H506v6.1c0,0.5,0.1,0.8,0.3,1c0.2,0.2,0.5,0.3,0.8,0.3c0.2,0,0.3,0,0.5,0
			c0.2,0,0.4-0.1,0.5-0.1l0.3,1.3c-0.2,0.1-0.4,0.2-0.8,0.3s-0.7,0.1-1,0.1c-0.7,0-1.3-0.2-1.8-0.7c-0.4-0.4-0.7-1.2-0.7-2.1v-6.1
			h-1.6v-1.4h1.6v-2.4H506z"/>
		<path class="st2" d="M509.6,831c0-1.5,0.4-2.7,1.2-3.7s1.9-1.4,3.3-1.4c1.4,0,2.5,0.5,3.3,1.4c0.8,1,1.2,2.2,1.2,3.7v0.2
			c0,1.5-0.4,2.7-1.2,3.7c-0.8,1-1.9,1.4-3.3,1.4c-1.4,0-2.5-0.5-3.3-1.4c-0.8-1-1.2-2.2-1.2-3.7V831z M511.5,831.2
			c0,1.1,0.2,1.9,0.7,2.6c0.4,0.7,1.1,1,2,1c0.9,0,1.5-0.3,2-1c0.5-0.7,0.7-1.6,0.7-2.6V831c0-1.1-0.2-1.9-0.7-2.6s-1.1-1-2-1
			c-0.9,0-1.5,0.3-2,1s-0.7,1.6-0.7,2.6V831.2z"/>
		<path class="st2" d="M524.6,834.9l1.5-0.3v-7.2l-1.5-0.3v-1.2h3.2l0.1,1.3c0.3-0.5,0.7-0.8,1.2-1.1c0.5-0.3,1.1-0.4,1.8-0.4
			s1.2,0.2,1.7,0.5c0.5,0.3,0.8,0.8,1.1,1.4c0.3-0.6,0.7-1,1.3-1.4s1.1-0.5,1.8-0.5c1,0,1.8,0.4,2.4,1.1c0.6,0.7,0.9,1.8,0.9,3.2
			v4.6l1.5,0.3v1.2h-4.9v-1.2l1.5-0.3v-4.6c0-1-0.2-1.7-0.5-2.1c-0.3-0.4-0.8-0.6-1.5-0.6c-0.6,0-1.1,0.2-1.5,0.7
			c-0.4,0.4-0.6,1-0.7,1.7v4.9l1.5,0.3v1.2h-4.9v-1.2l1.5-0.3v-4.6c0-0.9-0.2-1.6-0.5-2.1c-0.3-0.4-0.9-0.7-1.5-0.7
			c-0.6,0-1,0.1-1.4,0.3c-0.4,0.2-0.6,0.6-0.8,1v6l1.5,0.3v1.2h-4.9V834.9z"/>
		<path class="st2" d="M549.5,836.1c-0.1-0.3-0.1-0.5-0.1-0.7c0-0.2-0.1-0.4-0.1-0.6c-0.4,0.5-0.8,0.8-1.3,1.1
			c-0.5,0.3-1.1,0.4-1.7,0.4c-1,0-1.8-0.3-2.4-0.8c-0.5-0.5-0.8-1.2-0.8-2.2c0-1,0.4-1.7,1.2-2.2c0.8-0.5,1.8-0.8,3.2-0.8h1.9v-1.2
			c0-0.6-0.2-1.1-0.6-1.4c-0.4-0.3-0.9-0.5-1.5-0.5c-0.5,0-0.9,0.1-1.2,0.2c-0.3,0.1-0.6,0.3-0.8,0.5l-0.2,1.1h-1.4v-1.9
			c0.5-0.4,1-0.7,1.7-0.9s1.4-0.3,2.1-0.3c1.1,0,2.1,0.3,2.8,0.9s1.1,1.4,1.1,2.5v4.8c0,0.1,0,0.3,0,0.4c0,0.1,0,0.2,0,0.4l0.7,0.1
			v1.2H549.5z M546.6,834.8c0.6,0,1.2-0.1,1.7-0.4c0.5-0.3,0.9-0.6,1.1-1v-1.7h-1.9c-0.7,0-1.3,0.2-1.8,0.5
			c-0.4,0.3-0.7,0.8-0.7,1.3c0,0.4,0.1,0.8,0.4,1C545.6,834.6,546,834.8,546.6,834.8z"/>
		<path class="st2" d="M553.2,838.8l1.5-0.3v-11l-1.5-0.3v-1.2h3.1l0.2,1.2c0.3-0.5,0.7-0.8,1.2-1c0.5-0.2,1-0.4,1.7-0.4
			c1.2,0,2.2,0.5,2.9,1.5c0.7,1,1,2.3,1,3.9v0.2c0,1.4-0.3,2.6-1,3.5s-1.6,1.3-2.9,1.3c-0.6,0-1.2-0.1-1.6-0.3s-0.9-0.5-1.2-0.9v3.5
			l1.5,0.3v1.2h-4.9V838.8z M561.4,831.3c0-1.1-0.2-2.1-0.7-2.8s-1.1-1.1-2-1.1c-0.5,0-1,0.1-1.3,0.4s-0.7,0.6-0.9,1v4.9
			c0.2,0.4,0.5,0.7,0.9,1s0.8,0.3,1.4,0.3c0.9,0,1.5-0.3,2-0.9s0.7-1.4,0.7-2.5V831.3z"/>
		<path class="st2" d="M569.7,831c0-1.5,0.4-2.7,1.2-3.7s1.9-1.4,3.3-1.4c1.4,0,2.5,0.5,3.3,1.4c0.8,1,1.2,2.2,1.2,3.7v0.2
			c0,1.5-0.4,2.7-1.2,3.7c-0.8,1-1.9,1.4-3.3,1.4c-1.4,0-2.5-0.5-3.3-1.4c-0.8-1-1.2-2.2-1.2-3.7V831z M571.5,831.2
			c0,1.1,0.2,1.9,0.7,2.6c0.4,0.7,1.1,1,2,1c0.9,0,1.5-0.3,2-1c0.5-0.7,0.7-1.6,0.7-2.6V831c0-1.1-0.2-1.9-0.7-2.6s-1.1-1-2-1
			c-0.9,0-1.5,0.3-2,1s-0.7,1.6-0.7,2.6V831.2z"/>
		<path class="st2" d="M580.1,827.4v-1.4h1.6v-1.3c0-1.1,0.3-1.9,0.8-2.5c0.6-0.6,1.3-0.9,2.3-0.9c0.2,0,0.4,0,0.6,0.1
			c0.2,0,0.4,0.1,0.7,0.1L586,823c-0.1,0-0.2,0-0.4-0.1c-0.2,0-0.3,0-0.5,0c-0.5,0-0.9,0.2-1.2,0.5s-0.4,0.8-0.4,1.4v1.3h2.1v1.4
			h-2.1v7.3l1.5,0.3v1.2h-4.9v-1.2l1.5-0.3v-7.3H580.1z"/>
		<path class="st2" d="M462.5,856.9c-0.3,0.5-0.7,0.8-1.2,1c-0.5,0.2-1,0.4-1.6,0.4c-1.2,0-2.2-0.4-2.9-1.3s-1-2.1-1-3.5v-0.2
			c0-1.6,0.3-2.9,1-3.9c0.7-1,1.7-1.5,2.9-1.5c0.6,0,1.1,0.1,1.6,0.3c0.5,0.2,0.8,0.5,1.2,1v-4.1l-1.5-0.3v-1.2h1.5h1.8v13l1.5,0.3
			v1.2h-3.1L462.5,856.9z M457.5,853.5c0,1,0.2,1.8,0.6,2.4s1.1,0.9,1.9,0.9c0.5,0,1-0.1,1.4-0.4c0.4-0.2,0.7-0.6,0.9-1v-4.7
			c-0.2-0.4-0.5-0.8-0.9-1c-0.4-0.2-0.8-0.4-1.4-0.4c-0.9,0-1.5,0.4-1.9,1.1c-0.4,0.7-0.6,1.7-0.6,2.8V853.5z"/>
		<path class="st2" d="M473.7,858.1c-0.1-0.3-0.1-0.5-0.1-0.7c0-0.2-0.1-0.4-0.1-0.6c-0.4,0.5-0.8,0.8-1.3,1.1
			c-0.5,0.3-1.1,0.4-1.7,0.4c-1,0-1.8-0.3-2.4-0.8c-0.5-0.5-0.8-1.2-0.8-2.2c0-1,0.4-1.7,1.2-2.2c0.8-0.5,1.8-0.8,3.2-0.8h1.9v-1.2
			c0-0.6-0.2-1.1-0.6-1.4c-0.4-0.3-0.9-0.5-1.5-0.5c-0.5,0-0.9,0.1-1.2,0.2c-0.3,0.1-0.6,0.3-0.8,0.5l-0.2,1.1h-1.4v-1.9
			c0.5-0.4,1-0.7,1.7-0.9s1.4-0.3,2.1-0.3c1.1,0,2.1,0.3,2.8,0.9s1.1,1.4,1.1,2.5v4.8c0,0.1,0,0.3,0,0.4c0,0.1,0,0.2,0,0.4l0.7,0.1
			v1.2H473.7z M470.7,856.8c0.6,0,1.2-0.1,1.7-0.4c0.5-0.3,0.9-0.6,1.1-1v-1.7h-1.9c-0.7,0-1.3,0.2-1.8,0.5
			c-0.4,0.3-0.7,0.8-0.7,1.3c0,0.4,0.1,0.8,0.4,1C469.8,856.6,470.2,856.8,470.7,856.8z"/>
		<path class="st2" d="M477.6,856.9l1.5-0.3v-7.2l-1.5-0.3v-1.2h3.3v8.6l1.5,0.3v1.2h-4.9V856.9z M480.9,845.5h-1.8v-1.9h1.8V845.5z
			"/>
		<path class="st2" d="M483.6,844.8v-1.2h3.3v13l1.5,0.3v1.2h-4.9v-1.2l1.5-0.3v-11.6L483.6,844.8z"/>
		<path class="st2" d="M499.3,849.2l-0.9,0.1l-3.8,10.3c-0.3,0.7-0.6,1.3-1.1,1.8s-1.1,0.8-1.9,0.8c-0.1,0-0.3,0-0.6-0.1
			c-0.2,0-0.4-0.1-0.5-0.1l0.2-1.4c0,0,0.1,0,0.3,0s0.4,0,0.5,0c0.4,0,0.7-0.2,0.9-0.5c0.2-0.3,0.5-0.7,0.6-1.2l0.4-1l-3.3-8.5
			l-0.9-0.1v-1.2h4.1v1.2l-1.1,0.2l1.7,5l0.3,1.3h0.1l2.1-6.2l-1.1-0.2v-1.2h4V849.2z"/>
		<path class="st2" d="M512.1,856.9c-0.3,0.5-0.7,0.8-1.2,1c-0.5,0.2-1,0.4-1.6,0.4c-1.2,0-2.2-0.4-2.9-1.3s-1-2.1-1-3.5v-0.2
			c0-1.6,0.3-2.9,1-3.9c0.7-1,1.7-1.5,2.9-1.5c0.6,0,1.1,0.1,1.6,0.3c0.5,0.2,0.8,0.5,1.2,1v-4.1l-1.5-0.3v-1.2h1.5h1.8v13l1.5,0.3
			v1.2h-3.1L512.1,856.9z M507.1,853.5c0,1,0.2,1.8,0.6,2.4s1.1,0.9,1.9,0.9c0.5,0,1-0.1,1.4-0.4c0.4-0.2,0.7-0.6,0.9-1v-4.7
			c-0.2-0.4-0.5-0.8-0.9-1c-0.4-0.2-0.8-0.4-1.4-0.4c-0.9,0-1.5,0.4-1.9,1.1c-0.4,0.7-0.6,1.7-0.6,2.8V853.5z"/>
		<path class="st2" d="M516.7,853c0-1.5,0.4-2.7,1.2-3.7s1.9-1.4,3.3-1.4c1.4,0,2.5,0.5,3.3,1.4c0.8,1,1.2,2.2,1.2,3.7v0.2
			c0,1.5-0.4,2.7-1.2,3.7c-0.8,1-1.9,1.4-3.3,1.4c-1.4,0-2.5-0.5-3.3-1.4c-0.8-1-1.2-2.2-1.2-3.7V853z M518.5,853.2
			c0,1.1,0.2,1.9,0.7,2.6c0.4,0.7,1.1,1,2,1c0.9,0,1.5-0.3,2-1c0.5-0.7,0.7-1.6,0.7-2.6V853c0-1.1-0.2-1.9-0.7-2.6s-1.1-1-2-1
			c-0.9,0-1.5,0.3-2,1s-0.7,1.6-0.7,2.6V853.2z"/>
		<path class="st2" d="M530.9,849.2l-1.2,0.2l1.3,5l0.2,1.2h0.1l0.3-1.2l2-6.4h1.5l2,6.4l0.3,1.4h0.1l0.3-1.4l1.2-5l-1.2-0.2v-1.2
			h3.8v1.2l-0.9,0.1l-2.5,8.7h-1.5l-1.9-6.1l-0.4-1.7l-0.1,0l-0.4,1.7l-1.9,6.1h-1.5l-2.5-8.7l-0.9-0.1v-1.2h3.8V849.2z"/>
		<path class="st2" d="M542.8,856.9l1.5-0.3v-7.2l-1.5-0.3v-1.2h3.1l0.1,1.5c0.3-0.5,0.8-0.9,1.3-1.2c0.5-0.3,1.1-0.4,1.7-0.4
			c1.1,0,1.9,0.3,2.5,1c0.6,0.6,0.9,1.6,0.9,2.9v4.9l1.5,0.3v1.2h-4.9v-1.2l1.5-0.3v-4.9c0-0.9-0.2-1.5-0.5-1.9s-0.9-0.6-1.6-0.6
			c-0.5,0-1,0.1-1.4,0.4c-0.4,0.3-0.7,0.6-1,1v5.9l1.5,0.3v1.2h-4.9V856.9z"/>
		<path class="st2" d="M555.1,844.8v-1.2h3.3v13l1.5,0.3v1.2h-4.9v-1.2l1.5-0.3v-11.6L555.1,844.8z"/>
		<path class="st2" d="M561.1,853c0-1.5,0.4-2.7,1.2-3.7s1.9-1.4,3.3-1.4c1.4,0,2.5,0.5,3.3,1.4c0.8,1,1.2,2.2,1.2,3.7v0.2
			c0,1.5-0.4,2.7-1.2,3.7c-0.8,1-1.9,1.4-3.3,1.4c-1.4,0-2.5-0.5-3.3-1.4c-0.8-1-1.2-2.2-1.2-3.7V853z M562.9,853.2
			c0,1.1,0.2,1.9,0.7,2.6c0.4,0.7,1.1,1,2,1c0.9,0,1.5-0.3,2-1c0.5-0.7,0.7-1.6,0.7-2.6V853c0-1.1-0.2-1.9-0.7-2.6s-1.1-1-2-1
			c-0.9,0-1.5,0.3-2,1s-0.7,1.6-0.7,2.6V853.2z"/>
		<path class="st2" d="M578.3,858.1c-0.1-0.3-0.1-0.5-0.1-0.7c0-0.2-0.1-0.4-0.1-0.6c-0.4,0.5-0.8,0.8-1.3,1.1
			c-0.5,0.3-1.1,0.4-1.7,0.4c-1,0-1.8-0.3-2.4-0.8c-0.5-0.5-0.8-1.2-0.8-2.2c0-1,0.4-1.7,1.2-2.2c0.8-0.5,1.8-0.8,3.2-0.8h1.9v-1.2
			c0-0.6-0.2-1.1-0.6-1.4c-0.4-0.3-0.9-0.5-1.5-0.5c-0.5,0-0.9,0.1-1.2,0.2c-0.3,0.1-0.6,0.3-0.8,0.5l-0.2,1.1h-1.4v-1.9
			c0.5-0.4,1-0.7,1.7-0.9s1.4-0.3,2.1-0.3c1.1,0,2.1,0.3,2.8,0.9s1.1,1.4,1.1,2.5v4.8c0,0.1,0,0.3,0,0.4c0,0.1,0,0.2,0,0.4l0.7,0.1
			v1.2H578.3z M575.4,856.8c0.6,0,1.2-0.1,1.7-0.4c0.5-0.3,0.9-0.6,1.1-1v-1.7h-1.9c-0.7,0-1.3,0.2-1.8,0.5
			c-0.4,0.3-0.7,0.8-0.7,1.3c0,0.4,0.1,0.8,0.4,1C574.4,856.6,574.8,856.8,575.4,856.8z"/>
		<path class="st2" d="M589,856.9c-0.3,0.5-0.7,0.8-1.2,1c-0.5,0.2-1,0.4-1.6,0.4c-1.2,0-2.2-0.4-2.9-1.3s-1-2.1-1-3.5v-0.2
			c0-1.6,0.3-2.9,1-3.9c0.7-1,1.7-1.5,2.9-1.5c0.6,0,1.1,0.1,1.6,0.3c0.5,0.2,0.8,0.5,1.2,1v-4.1l-1.5-0.3v-1.2h1.5h1.8v13l1.5,0.3
			v1.2h-3.1L589,856.9z M584.1,853.5c0,1,0.2,1.8,0.6,2.4s1.1,0.9,1.9,0.9c0.5,0,1-0.1,1.4-0.4c0.4-0.2,0.7-0.6,0.9-1v-4.7
			c-0.2-0.4-0.5-0.8-0.9-1c-0.4-0.2-0.8-0.4-1.4-0.4c-0.9,0-1.5,0.4-1.9,1.1c-0.4,0.7-0.6,1.7-0.6,2.8V853.5z"/>
		<path class="st2" d="M601.3,851.2h-1.4l-0.3-1.2c-0.2-0.2-0.5-0.4-0.8-0.5c-0.3-0.1-0.7-0.2-1.1-0.2c-0.6,0-1.1,0.1-1.4,0.4
			c-0.3,0.3-0.5,0.6-0.5,1c0,0.4,0.1,0.7,0.4,0.9c0.3,0.2,0.8,0.4,1.7,0.6c1.3,0.3,2.2,0.6,2.8,1.1c0.6,0.5,0.9,1.1,0.9,1.9
			c0,0.9-0.4,1.6-1.1,2.2c-0.7,0.6-1.7,0.8-2.8,0.8c-0.8,0-1.4-0.1-2.1-0.3c-0.6-0.2-1.1-0.4-1.6-0.8l0-2.3h1.4l0.3,1.3
			c0.2,0.2,0.5,0.3,0.9,0.4c0.4,0.1,0.7,0.1,1.1,0.1c0.6,0,1.2-0.1,1.5-0.4c0.4-0.3,0.6-0.6,0.6-1c0-0.4-0.2-0.7-0.5-1
			c-0.3-0.3-0.9-0.5-1.7-0.7c-1.2-0.3-2.1-0.6-2.8-1.1s-0.9-1.1-0.9-1.9c0-0.8,0.3-1.5,1-2.1c0.7-0.6,1.6-0.9,2.7-0.9
			c0.8,0,1.4,0.1,2.1,0.3c0.6,0.2,1.1,0.5,1.5,0.8L601.3,851.2z"/>
	</g>
</g>
<g>
	<g>
		<rect x="872.8" y="741.9" class="st0" width="2.9" height="2.4"/>
	</g>
	<g>
		<path class="st0" d="M875.7,778.9h-2.9v-4.3h2.9V778.9z M875.7,770.3h-2.9v-4.3h2.9V770.3z M875.7,761.6h-2.9v-4.3h2.9V761.6z
			 M875.7,753h-2.9v-4.3h2.9V753z"/>
	</g>
	<g>
		<rect x="872.8" y="783.2" class="st0" width="2.9" height="2.4"/>
	</g>
	<g>
		<g>
			<path class="st0" d="M874.2,794.3c-1.5-4.1-4.1-9.1-6.8-12.3l6.8,2.5l6.8-2.5C878.3,785.2,875.7,790.2,874.2,794.3z"/>
		</g>
	</g>
</g>
<g id="rettv_x5F_06_2_">
	<path d="M982.2,881.9h-6.1v-2.1h4v-1h2.1V881.9z M971,881.9h-5.1v-2.1h5.1V881.9z M960.8,881.9h-5.1v-2.1h5.1V881.9z M950.6,881.9
		h-5.1v-2.1h5.1V881.9z M940.5,881.9h-5.1v-2.1h5.1V881.9z M930.3,881.9h-5.1v-2.1h5.1V881.9z M920.2,881.9h-5.1v-2.1h5.1V881.9z
		 M910,881.9h-5.1v-2.1h5.1V881.9z M899.8,881.9h-5.1v-2.1h5.1V881.9z M889.7,881.9h-5.1v-2.1h5.1V881.9z M879.5,881.9h-5.1v-2.1
		h5.1V881.9z M869.3,881.9h-5.1v-2.1h5.1V881.9z M859.2,881.9h-5.1v-2.1h5.1V881.9z M849,881.9h-5.1v-2.1h5.1V881.9z M838.9,881.9
		h-5.1v-2.1h5.1V881.9z M828.7,881.9h-5.1v-2.1h5.1V881.9z M818.5,881.9h-5.1v-2.1h5.1V881.9z M808.4,881.9h-5.1v-2.1h5.1V881.9z
		 M798.2,881.9h-5.1v-2.1h5.1V881.9z M788,881.9H783v-2.1h5.1V881.9z M777.9,881.9h-5.1v-2.1h5.1V881.9z M767.7,881.9h-1.5v-5.7h2.1
		v4.7h-0.6V881.9z M982.2,873.7h-2.1v-5.1h2.1V873.7z M768.4,871.1h-2.1V866h2.1V871.1z M982.2,863.5h-2.1v-5.1h2.1V863.5z
		 M768.4,860.9h-2.1v-5.1h2.1V860.9z M982.2,853.3h-2.1v-5.1h2.1V853.3z M768.4,850.8h-2.1v-5.1h2.1V850.8z M982.2,843.2h-2.1v-5.1
		h2.1V843.2z M768.4,840.6h-2.1v-5.1h2.1V840.6z M982.2,833h-2.1v-5.1h2.1V833z M768.4,830.4h-2.1v-5.1h2.1V830.4z M982.2,822.8
		h-2.1v-5.1h2.1V822.8z M768.4,820.3h-2.1v-5.1h2.1V820.3z M982.2,812.7h-2.1v-5.1h2.1V812.7z M768.4,810.1h-2.1V805h2.1V810.1z
		 M982.2,802.5h-2.1V800h-0.4v-2.1h2.5V802.5z M974.6,800h-5.1v-2.1h5.1V800z M964.4,800h-5.1v-2.1h5.1V800z M954.3,800h-5.1v-2.1
		h5.1V800z M944.1,800H939v-2.1h5.1V800z M933.9,800h-5.1v-2.1h5.1V800z M923.8,800h-5.1v-2.1h5.1V800z M913.6,800h-5.1v-2.1h5.1
		V800z M903.5,800h-5.1v-2.1h5.1V800z M893.3,800h-5.1v-2.1h5.1V800z M883.1,800H878v-2.1h5.1V800z M873,800h-5.1v-2.1h5.1V800z
		 M862.8,800h-5.1v-2.1h5.1V800z M852.6,800h-5.1v-2.1h5.1V800z M842.5,800h-5.1v-2.1h5.1V800z M832.3,800h-5.1v-2.1h5.1V800z
		 M822.2,800h-5.1v-2.1h5.1V800z M812,800h-5.1v-2.1h5.1V800z M801.8,800h-5.1v-2.1h5.1V800z M791.7,800h-5.1v-2.1h5.1V800z
		 M781.5,800h-5.1v-2.1h5.1V800z M771.3,800l-5.1,0v-2.1h5.1V800z"/>
</g>
<g id="text1_x5F_06_2_">
	<path class="st2" d="M846.2,822.6v3h-1.6l-0.1-1.5h-3v10.6l1.5,0.3v1.2h-4.9v-1.2l1.5-0.3V824h-3l-0.1,1.5h-1.6v-3H846.2z"/>
	<path class="st2" d="M846.6,827.2v-1.2h3.1l0.2,1.5c0.3-0.5,0.6-0.9,1.1-1.2c0.4-0.3,0.9-0.4,1.4-0.4c0.1,0,0.3,0,0.4,0
		c0.2,0,0.3,0,0.3,0.1l-0.2,1.7l-1-0.1c-0.5,0-0.9,0.1-1.2,0.3c-0.3,0.2-0.6,0.5-0.8,1v5.8l1.5,0.3v1.2h-4.9v-1.2l1.5-0.3v-7.2
		L846.6,827.2z"/>
	<path class="st2" d="M858.9,836.3c-1.4,0-2.5-0.5-3.3-1.4c-0.8-0.9-1.2-2.1-1.2-3.6v-0.4c0-1.4,0.4-2.6,1.3-3.6s1.9-1.4,3-1.4
		c1.3,0,2.4,0.4,3.1,1.2c0.7,0.8,1,1.9,1,3.3v1.1h-6.5l0,0c0,1,0.3,1.8,0.7,2.4c0.5,0.6,1.1,0.9,2,0.9c0.6,0,1.2-0.1,1.6-0.3
		c0.5-0.2,0.9-0.4,1.2-0.7l0.7,1.2c-0.4,0.3-0.8,0.6-1.4,0.9C860.4,836.2,859.7,836.3,858.9,836.3z M858.6,827.3
		c-0.6,0-1.1,0.3-1.6,0.8c-0.4,0.5-0.7,1.2-0.8,1.9l0,0h4.6v-0.2c0-0.7-0.2-1.3-0.6-1.8C860,827.5,859.4,827.3,858.6,827.3z"/>
	<path class="st2" d="M869.1,836.3c-1.4,0-2.5-0.5-3.3-1.4c-0.8-0.9-1.2-2.1-1.2-3.6v-0.4c0-1.4,0.4-2.6,1.3-3.6s1.9-1.4,3-1.4
		c1.3,0,2.4,0.4,3.1,1.2c0.7,0.8,1,1.9,1,3.3v1.1h-6.5l0,0c0,1,0.3,1.8,0.7,2.4c0.5,0.6,1.1,0.9,2,0.9c0.6,0,1.2-0.1,1.6-0.3
		c0.5-0.2,0.9-0.4,1.2-0.7l0.7,1.2c-0.4,0.3-0.8,0.6-1.4,0.9C870.7,836.2,869.9,836.3,869.1,836.3z M868.8,827.3
		c-0.6,0-1.1,0.3-1.6,0.8c-0.4,0.5-0.7,1.2-0.8,1.9l0,0h4.6v-0.2c0-0.7-0.2-1.3-0.6-1.8C870.2,827.5,869.6,827.3,868.8,827.3z"/>
	<path class="st2" d="M874.4,834.9l1.5-0.3v-7.2l-1.5-0.3v-1.2h3.2l0.1,1.3c0.3-0.5,0.7-0.8,1.2-1.1c0.5-0.3,1.1-0.4,1.8-0.4
		s1.2,0.2,1.7,0.5c0.5,0.3,0.8,0.8,1.1,1.4c0.3-0.6,0.7-1,1.3-1.4s1.1-0.5,1.8-0.5c1,0,1.8,0.4,2.4,1.1c0.6,0.7,0.9,1.8,0.9,3.2v4.6
		l1.5,0.3v1.2h-4.9v-1.2l1.5-0.3v-4.6c0-1-0.2-1.7-0.5-2.1c-0.3-0.4-0.8-0.6-1.5-0.6c-0.6,0-1.1,0.2-1.5,0.7c-0.4,0.4-0.6,1-0.7,1.7
		v4.9l1.5,0.3v1.2h-4.9v-1.2l1.5-0.3v-4.6c0-0.9-0.2-1.6-0.5-2.1c-0.3-0.4-0.9-0.7-1.5-0.7c-0.6,0-1,0.1-1.4,0.3
		c-0.4,0.2-0.6,0.6-0.8,1v6l1.5,0.3v1.2h-4.9V834.9z"/>
	<path class="st2" d="M899.3,836.1c-0.1-0.3-0.1-0.5-0.1-0.7c0-0.2-0.1-0.4-0.1-0.6c-0.4,0.5-0.8,0.8-1.3,1.1
		c-0.5,0.3-1.1,0.4-1.7,0.4c-1,0-1.8-0.3-2.4-0.8c-0.5-0.5-0.8-1.2-0.8-2.2c0-1,0.4-1.7,1.2-2.2c0.8-0.5,1.8-0.8,3.2-0.8h1.9v-1.2
		c0-0.6-0.2-1.1-0.6-1.4c-0.4-0.3-0.9-0.5-1.5-0.5c-0.5,0-0.9,0.1-1.2,0.2c-0.3,0.1-0.6,0.3-0.8,0.5l-0.2,1.1h-1.4v-1.9
		c0.5-0.4,1-0.7,1.7-0.9s1.4-0.3,2.1-0.3c1.1,0,2.1,0.3,2.8,0.9s1.1,1.4,1.1,2.5v4.8c0,0.1,0,0.3,0,0.4c0,0.1,0,0.2,0,0.4l0.7,0.1
		v1.2H899.3z M896.3,834.8c0.6,0,1.2-0.1,1.7-0.4c0.5-0.3,0.9-0.6,1.1-1v-1.7h-1.9c-0.7,0-1.3,0.2-1.8,0.5c-0.4,0.3-0.7,0.8-0.7,1.3
		c0,0.4,0.1,0.8,0.4,1C895.3,834.6,895.8,834.8,896.3,834.8z"/>
	<path class="st2" d="M902.9,838.8l1.5-0.3v-11l-1.5-0.3v-1.2h3.1l0.2,1.2c0.3-0.5,0.7-0.8,1.2-1c0.5-0.2,1-0.4,1.7-0.4
		c1.2,0,2.2,0.5,2.9,1.5c0.7,1,1,2.3,1,3.9v0.2c0,1.4-0.3,2.6-1,3.5s-1.6,1.3-2.9,1.3c-0.6,0-1.2-0.1-1.6-0.3s-0.9-0.5-1.2-0.9v3.5
		l1.5,0.3v1.2h-4.9V838.8z M911.2,831.3c0-1.1-0.2-2.1-0.7-2.8s-1.1-1.1-2-1.1c-0.5,0-1,0.1-1.3,0.4s-0.7,0.6-0.9,1v4.9
		c0.2,0.4,0.5,0.7,0.9,1s0.8,0.3,1.4,0.3c0.9,0,1.5-0.3,2-0.9s0.7-1.4,0.7-2.5V831.3z"/>
	<path class="st2" d="M819.8,849.2l-1.2,0.2l2.1,5.7l0.2,0.7h0.1l0.2-0.7l2-5.7l-1.2-0.2v-1.2h3.9v1.2l-0.8,0.1l-3.4,8.7h-1.4
		l-3.4-8.7l-0.8-0.1v-1.2h3.9V849.2z"/>
	<path class="st2" d="M827,856.9l1.5-0.3v-7.2l-1.5-0.3v-1.2h3.3v8.6l1.5,0.3v1.2H827V856.9z M830.3,845.5h-1.8v-1.9h1.8V845.5z"/>
	<path class="st2" d="M840.9,851.2h-1.4l-0.3-1.2c-0.2-0.2-0.5-0.4-0.8-0.5c-0.3-0.1-0.7-0.2-1.1-0.2c-0.6,0-1.1,0.1-1.4,0.4
		c-0.3,0.3-0.5,0.6-0.5,1c0,0.4,0.1,0.7,0.4,0.9c0.3,0.2,0.8,0.4,1.7,0.6c1.3,0.3,2.2,0.6,2.8,1.1c0.6,0.5,0.9,1.1,0.9,1.9
		c0,0.9-0.4,1.6-1.1,2.2c-0.7,0.6-1.7,0.8-2.8,0.8c-0.8,0-1.4-0.1-2.1-0.3c-0.6-0.2-1.1-0.4-1.6-0.8l0-2.3h1.4l0.3,1.3
		c0.2,0.2,0.5,0.3,0.9,0.4c0.4,0.1,0.7,0.1,1.1,0.1c0.6,0,1.2-0.1,1.5-0.4c0.4-0.3,0.6-0.6,0.6-1c0-0.4-0.2-0.7-0.5-1
		c-0.3-0.3-0.9-0.5-1.7-0.7c-1.2-0.3-2.1-0.6-2.8-1.1s-0.9-1.1-0.9-1.9c0-0.8,0.3-1.5,1-2.1c0.7-0.6,1.6-0.9,2.7-0.9
		c0.8,0,1.4,0.1,2.1,0.3c0.6,0.2,1.1,0.5,1.5,0.8L840.9,851.2z"/>
	<path class="st2" d="M850.1,856.6c-0.3,0.5-0.7,1-1.2,1.2s-1.1,0.4-1.7,0.4c-1.1,0-1.9-0.3-2.6-1c-0.6-0.7-0.9-1.8-0.9-3.3v-4.5
		l-1.2-0.3v-1.2h1.2h1.8v5.9c0,1.1,0.2,1.8,0.5,2.2c0.3,0.4,0.8,0.6,1.5,0.6c0.7,0,1.2-0.1,1.6-0.4c0.4-0.3,0.7-0.6,1-1.1v-5.8
		l-1.3-0.3v-1.2h1.3h1.8v8.6l1.2,0.3v1.2h-2.8L850.1,856.6z"/>
	<path class="st2" d="M861,858.1c-0.1-0.3-0.1-0.5-0.1-0.7c0-0.2-0.1-0.4-0.1-0.6c-0.4,0.5-0.8,0.8-1.3,1.1
		c-0.5,0.3-1.1,0.4-1.7,0.4c-1,0-1.8-0.3-2.4-0.8c-0.5-0.5-0.8-1.2-0.8-2.2c0-1,0.4-1.7,1.2-2.2c0.8-0.5,1.8-0.8,3.2-0.8h1.9v-1.2
		c0-0.6-0.2-1.1-0.6-1.4c-0.4-0.3-0.9-0.5-1.5-0.5c-0.5,0-0.9,0.1-1.2,0.2c-0.3,0.1-0.6,0.3-0.8,0.5l-0.2,1.1H855v-1.9
		c0.5-0.4,1-0.7,1.7-0.9s1.4-0.3,2.1-0.3c1.1,0,2.1,0.3,2.8,0.9s1.1,1.4,1.1,2.5v4.8c0,0.1,0,0.3,0,0.4c0,0.1,0,0.2,0,0.4l0.7,0.1
		v1.2H861z M858,856.8c0.6,0,1.2-0.1,1.7-0.4c0.5-0.3,0.9-0.6,1.1-1v-1.7h-1.9c-0.7,0-1.3,0.2-1.8,0.5c-0.4,0.3-0.7,0.8-0.7,1.3
		c0,0.4,0.1,0.8,0.4,1C857.1,856.6,857.5,856.8,858,856.8z"/>
	<path class="st2" d="M864.6,844.8v-1.2h3.3v13l1.5,0.3v1.2h-4.9v-1.2l1.5-0.3v-11.6L864.6,844.8z"/>
	<path class="st2" d="M870.9,856.9l1.5-0.3v-7.2l-1.5-0.3v-1.2h3.3v8.6l1.5,0.3v1.2h-4.9V856.9z M874.2,845.5h-1.8v-1.9h1.8V845.5z"
		/>
	<path class="st2" d="M879.5,856.7h4.1l0.1-1.5h1.5v3h-8v-1.3l5.4-7.3h-3.7L879,851h-1.6v-3h7.6v1.2L879.5,856.7z"/>
	<path class="st2" d="M893.7,858.1c-0.1-0.3-0.1-0.5-0.1-0.7c0-0.2-0.1-0.4-0.1-0.6c-0.4,0.5-0.8,0.8-1.3,1.1
		c-0.5,0.3-1.1,0.4-1.7,0.4c-1,0-1.8-0.3-2.4-0.8c-0.5-0.5-0.8-1.2-0.8-2.2c0-1,0.4-1.7,1.2-2.2c0.8-0.5,1.8-0.8,3.2-0.8h1.9v-1.2
		c0-0.6-0.2-1.1-0.6-1.4c-0.4-0.3-0.9-0.5-1.5-0.5c-0.5,0-0.9,0.1-1.2,0.2c-0.3,0.1-0.6,0.3-0.8,0.5l-0.2,1.1h-1.4v-1.9
		c0.5-0.4,1-0.7,1.7-0.9s1.4-0.3,2.1-0.3c1.1,0,2.1,0.3,2.8,0.9s1.1,1.4,1.1,2.5v4.8c0,0.1,0,0.3,0,0.4c0,0.1,0,0.2,0,0.4l0.7,0.1
		v1.2H893.7z M890.8,856.8c0.6,0,1.2-0.1,1.7-0.4c0.5-0.3,0.9-0.6,1.1-1v-1.7h-1.9c-0.7,0-1.3,0.2-1.8,0.5c-0.4,0.3-0.7,0.8-0.7,1.3
		c0,0.4,0.1,0.8,0.4,1C889.8,856.6,890.2,856.8,890.8,856.8z"/>
	<path class="st2" d="M900.8,845.6v2.4h1.9v1.4h-1.9v6.1c0,0.5,0.1,0.8,0.3,1c0.2,0.2,0.5,0.3,0.8,0.3c0.2,0,0.3,0,0.5,0
		c0.2,0,0.4-0.1,0.5-0.1l0.3,1.3c-0.2,0.1-0.4,0.2-0.8,0.3s-0.7,0.1-1,0.1c-0.7,0-1.3-0.2-1.8-0.7c-0.4-0.4-0.7-1.2-0.7-2.1v-6.1
		h-1.6v-1.4h1.6v-2.4H900.8z"/>
	<path class="st2" d="M904.6,856.9l1.5-0.3v-7.2l-1.5-0.3v-1.2h3.3v8.6l1.5,0.3v1.2h-4.9V856.9z M907.9,845.5h-1.8v-1.9h1.8V845.5z"
		/>
	<path class="st2" d="M910.9,853c0-1.5,0.4-2.7,1.2-3.7s1.9-1.4,3.3-1.4c1.4,0,2.5,0.5,3.3,1.4c0.8,1,1.2,2.2,1.2,3.7v0.2
		c0,1.5-0.4,2.7-1.2,3.7c-0.8,1-1.9,1.4-3.3,1.4c-1.4,0-2.5-0.5-3.3-1.4c-0.8-1-1.2-2.2-1.2-3.7V853z M912.7,853.2
		c0,1.1,0.2,1.9,0.7,2.6c0.4,0.7,1.1,1,2,1c0.9,0,1.5-0.3,2-1c0.5-0.7,0.7-1.6,0.7-2.6V853c0-1.1-0.2-1.9-0.7-2.6s-1.1-1-2-1
		c-0.9,0-1.5,0.3-2,1s-0.7,1.6-0.7,2.6V853.2z"/>
	<path class="st2" d="M921.2,856.9l1.5-0.3v-7.2l-1.5-0.3v-1.2h3.1l0.1,1.5c0.3-0.5,0.8-0.9,1.3-1.2c0.5-0.3,1.1-0.4,1.7-0.4
		c1.1,0,1.9,0.3,2.5,1c0.6,0.6,0.9,1.6,0.9,2.9v4.9l1.5,0.3v1.2h-4.9v-1.2l1.5-0.3v-4.9c0-0.9-0.2-1.5-0.5-1.9s-0.9-0.6-1.6-0.6
		c-0.5,0-1,0.1-1.4,0.4c-0.4,0.3-0.7,0.6-1,1v5.9l1.5,0.3v1.2h-4.9V856.9z"/>
</g>
<g id="rettv_x5F_02_6_">
	<rect x="575.4" y="16.5" class="st4" width="257.9" height="81.9"/>
	<path class="st0" d="M834.9,100.1H573.7V14.9h261.2V100.1z M577,96.8h254.6V18.2H577V96.8z"/>
</g>
<g id="text1_x5F_02_7_">
	<path class="st2" d="M619.4,53.4l1-0.1l4.7-12.2h1.6l4.6,12.2l1,0.1v1.2h-3.9v-1.2l1-0.2l-0.9-2.5h-5.4l-0.9,2.5l1,0.2v1.2h-3.9
		V53.4z M623.7,49.2h4.3l-2.1-5.8h-0.1L623.7,49.2z"/>
	<path class="st2" d="M633.3,53.4l1.5-0.3V46l-1.5-0.3v-1.2h3.1l0.1,1.5c0.3-0.5,0.8-0.9,1.3-1.2c0.5-0.3,1.1-0.4,1.7-0.4
		c1.1,0,1.9,0.3,2.5,1c0.6,0.6,0.9,1.6,0.9,2.9v4.9l1.5,0.3v1.2h-4.9v-1.2l1.5-0.3v-4.9c0-0.9-0.2-1.5-0.5-1.9s-0.9-0.6-1.6-0.6
		c-0.5,0-1,0.1-1.4,0.4c-0.4,0.3-0.7,0.6-1,1v5.9l1.5,0.3v1.2h-4.9V53.4z"/>
	<path class="st2" d="M652.4,54.6c-0.1-0.3-0.1-0.5-0.1-0.7c0-0.2-0.1-0.4-0.1-0.6c-0.4,0.5-0.8,0.8-1.3,1.1
		c-0.5,0.3-1.1,0.4-1.7,0.4c-1,0-1.8-0.3-2.4-0.8c-0.5-0.5-0.8-1.2-0.8-2.2c0-1,0.4-1.7,1.2-2.2c0.8-0.5,1.8-0.8,3.2-0.8h1.9v-1.2
		c0-0.6-0.2-1.1-0.6-1.4c-0.4-0.3-0.9-0.5-1.6-0.5c-0.5,0-0.9,0.1-1.2,0.2c-0.3,0.1-0.6,0.3-0.8,0.5l-0.2,1.1h-1.4v-1.9
		c0.5-0.4,1-0.7,1.7-0.9c0.7-0.2,1.4-0.3,2.1-0.3c1.1,0,2.1,0.3,2.8,0.9c0.7,0.6,1.1,1.4,1.1,2.5v4.8c0,0.1,0,0.3,0,0.4
		c0,0.1,0,0.2,0,0.4l0.7,0.1v1.2H652.4z M649.4,53.2c0.6,0,1.2-0.1,1.7-0.4c0.5-0.3,0.9-0.6,1.1-1v-1.7h-1.9c-0.7,0-1.3,0.2-1.8,0.5
		c-0.4,0.3-0.7,0.8-0.7,1.3c0,0.4,0.1,0.8,0.4,1C648.5,53.1,648.9,53.2,649.4,53.2z"/>
	<path class="st2" d="M656,41.3v-1.2h3.3v13l1.5,0.3v1.2H656v-1.2l1.5-0.3V41.5L656,41.3z"/>
	<path class="st2" d="M671.8,45.7l-0.9,0.1l-3.8,10.3c-0.3,0.7-0.6,1.3-1.1,1.8s-1.1,0.8-1.9,0.8c-0.1,0-0.3,0-0.6-0.1
		c-0.2,0-0.4-0.1-0.5-0.1l0.2-1.4c0,0,0.1,0,0.3,0c0.3,0,0.4,0,0.5,0c0.4,0,0.7-0.2,0.9-0.5c0.2-0.3,0.5-0.7,0.6-1.2l0.4-1l-3.3-8.5
		l-0.9-0.1v-1.2h4.1v1.2l-1.1,0.2l1.7,5l0.3,1.3h0.1l2.1-6.2l-1.1-0.2v-1.2h4V45.7z"/>
	<path class="st2" d="M675.4,53.2h4.1l0.1-1.5h1.5v3h-8v-1.3l5.4-7.3H675l-0.1,1.5h-1.6v-3h7.6v1.2L675.4,53.2z"/>
	<path class="st2" d="M687.5,54.8c-1.4,0-2.5-0.5-3.3-1.4c-0.8-0.9-1.2-2.1-1.2-3.6v-0.4c0-1.4,0.4-2.6,1.3-3.6
		c0.9-0.9,1.9-1.4,3-1.4c1.3,0,2.4,0.4,3.1,1.2c0.7,0.8,1,1.9,1,3.3V50h-6.5l0,0c0,1,0.3,1.8,0.7,2.4c0.5,0.6,1.1,0.9,2,0.9
		c0.6,0,1.2-0.1,1.6-0.3c0.5-0.2,0.9-0.4,1.2-0.7l0.7,1.2c-0.4,0.3-0.8,0.6-1.4,0.9C689.1,54.7,688.4,54.8,687.5,54.8z M687.3,45.8
		c-0.6,0-1.1,0.3-1.6,0.8c-0.4,0.5-0.7,1.2-0.8,1.9l0,0h4.6v-0.2c0-0.7-0.2-1.3-0.6-1.8C688.6,46,688,45.8,687.3,45.8z"/>
	<path class="st2" d="M697.5,53.4l1.5-0.3V46l-1.5-0.3v-1.2h3.2l0.1,1.3c0.3-0.5,0.7-0.8,1.2-1.1s1.1-0.4,1.8-0.4s1.2,0.2,1.7,0.5
		c0.5,0.3,0.8,0.8,1.1,1.4c0.3-0.6,0.7-1,1.3-1.4s1.1-0.5,1.8-0.5c1,0,1.8,0.4,2.4,1.1c0.6,0.7,0.9,1.8,0.9,3.2v4.6l1.5,0.3v1.2
		h-4.9v-1.2l1.5-0.3v-4.6c0-1-0.2-1.7-0.5-2.1c-0.3-0.4-0.8-0.6-1.5-0.6c-0.6,0-1.2,0.2-1.5,0.7c-0.4,0.4-0.6,1-0.7,1.7v4.9l1.5,0.3
		v1.2h-4.9v-1.2l1.5-0.3v-4.6c0-0.9-0.2-1.6-0.5-2.1c-0.3-0.4-0.9-0.7-1.5-0.7c-0.6,0-1,0.1-1.4,0.3c-0.4,0.2-0.6,0.6-0.8,1v6
		l1.5,0.3v1.2h-4.9V53.4z"/>
	<path class="st2" d="M715.8,49.5c0-1.5,0.4-2.7,1.2-3.7c0.8-1,1.9-1.4,3.3-1.4c1.4,0,2.5,0.5,3.3,1.4c0.8,1,1.2,2.2,1.2,3.7v0.2
		c0,1.5-0.4,2.7-1.2,3.7c-0.8,1-1.9,1.4-3.3,1.4c-1.4,0-2.5-0.5-3.3-1.4c-0.8-1-1.2-2.2-1.2-3.7V49.5z M717.6,49.7
		c0,1.1,0.2,1.9,0.7,2.6c0.4,0.7,1.1,1,2,1c0.9,0,1.5-0.3,2-1c0.5-0.7,0.7-1.6,0.7-2.6v-0.2c0-1.1-0.2-1.9-0.7-2.6
		c-0.5-0.7-1.1-1-2-1c-0.9,0-1.5,0.3-2,1c-0.4,0.7-0.7,1.6-0.7,2.6V49.7z"/>
	<path class="st2" d="M734.1,47.7h-1.4l-0.3-1.2c-0.2-0.2-0.5-0.4-0.8-0.5c-0.3-0.1-0.7-0.2-1.1-0.2c-0.6,0-1.1,0.1-1.4,0.4
		c-0.3,0.3-0.5,0.6-0.5,1c0,0.4,0.1,0.7,0.4,0.9c0.3,0.2,0.8,0.4,1.7,0.6c1.3,0.3,2.2,0.6,2.8,1.1c0.6,0.5,0.9,1.1,0.9,1.9
		c0,0.9-0.4,1.6-1.1,2.2c-0.7,0.6-1.7,0.8-2.8,0.8c-0.8,0-1.4-0.1-2.1-0.3c-0.6-0.2-1.1-0.4-1.6-0.8l0-2.3h1.4l0.3,1.3
		c0.2,0.2,0.5,0.3,0.9,0.4c0.4,0.1,0.7,0.1,1.1,0.1c0.6,0,1.2-0.1,1.5-0.4c0.4-0.3,0.6-0.6,0.6-1c0-0.4-0.2-0.7-0.5-1
		c-0.3-0.3-0.9-0.5-1.7-0.7c-1.2-0.3-2.1-0.6-2.8-1.1c-0.6-0.5-0.9-1.1-0.9-1.9c0-0.8,0.3-1.5,1-2.1c0.7-0.6,1.6-0.9,2.7-0.9
		c0.8,0,1.4,0.1,2.1,0.3c0.6,0.2,1.1,0.5,1.5,0.8L734.1,47.7z"/>
	<path class="st2" d="M739.3,42.1v2.4h1.9v1.4h-1.9V52c0,0.5,0.1,0.8,0.3,1c0.2,0.2,0.5,0.3,0.8,0.3c0.2,0,0.3,0,0.5,0
		c0.2,0,0.4-0.1,0.5-0.1l0.3,1.3c-0.2,0.1-0.4,0.2-0.8,0.3c-0.3,0.1-0.7,0.1-1,0.1c-0.7,0-1.3-0.2-1.8-0.7c-0.4-0.4-0.7-1.2-0.7-2.1
		v-6.1h-1.6v-1.4h1.6v-2.4H739.3z"/>
	<path class="st2" d="M755,53.1c-0.3,0.5-0.7,1-1.2,1.2s-1.1,0.4-1.7,0.4c-1.1,0-1.9-0.3-2.6-1c-0.6-0.7-0.9-1.8-0.9-3.3V46
		l-1.2-0.3v-1.2h1.2h1.8v5.9c0,1.1,0.2,1.8,0.5,2.2c0.3,0.4,0.8,0.6,1.5,0.6c0.7,0,1.2-0.1,1.6-0.4c0.4-0.3,0.7-0.6,1-1.1V46
		l-1.3-0.3v-1.2h1.3h1.8v8.6l1.2,0.3v1.2h-2.8L755,53.1z"/>
	<path class="st2" d="M767,47.7h-1.4l-0.3-1.2c-0.2-0.2-0.5-0.4-0.8-0.5c-0.3-0.1-0.7-0.2-1.1-0.2c-0.6,0-1.1,0.1-1.4,0.4
		c-0.3,0.3-0.5,0.6-0.5,1c0,0.4,0.1,0.7,0.4,0.9c0.3,0.2,0.8,0.4,1.7,0.6c1.3,0.3,2.2,0.6,2.8,1.1c0.6,0.5,0.9,1.1,0.9,1.9
		c0,0.9-0.4,1.6-1.1,2.2c-0.7,0.6-1.7,0.8-2.8,0.8c-0.8,0-1.4-0.1-2.1-0.3c-0.6-0.2-1.1-0.4-1.6-0.8l0-2.3h1.4l0.3,1.3
		c0.2,0.2,0.5,0.3,0.9,0.4c0.4,0.1,0.7,0.1,1.1,0.1c0.6,0,1.2-0.1,1.5-0.4c0.4-0.3,0.6-0.6,0.6-1c0-0.4-0.2-0.7-0.5-1
		c-0.3-0.3-0.9-0.5-1.7-0.7c-1.2-0.3-2.1-0.6-2.8-1.1c-0.6-0.5-0.9-1.1-0.9-1.9c0-0.8,0.3-1.5,1-2.1c0.7-0.6,1.6-0.9,2.7-0.9
		c0.8,0,1.4,0.1,2.1,0.3c0.6,0.2,1.1,0.5,1.5,0.8L767,47.7z"/>
	<path class="st2" d="M773.6,54.8c-1.4,0-2.5-0.5-3.3-1.4c-0.8-0.9-1.2-2.1-1.2-3.6v-0.4c0-1.4,0.4-2.6,1.3-3.6
		c0.9-0.9,1.9-1.4,3-1.4c1.3,0,2.4,0.4,3.1,1.2c0.7,0.8,1,1.9,1,3.3V50h-6.5l0,0c0,1,0.3,1.8,0.7,2.4c0.5,0.6,1.1,0.9,2,0.9
		c0.6,0,1.2-0.1,1.6-0.3c0.5-0.2,0.9-0.4,1.2-0.7l0.7,1.2c-0.4,0.3-0.8,0.6-1.4,0.9C775.1,54.7,774.4,54.8,773.6,54.8z M773.3,45.8
		c-0.6,0-1.1,0.3-1.6,0.8c-0.4,0.5-0.7,1.2-0.8,1.9l0,0h4.6v-0.2c0-0.7-0.2-1.3-0.6-1.8C774.6,46,774.1,45.8,773.3,45.8z"/>
	<path class="st2" d="M786,53.4c-0.3,0.5-0.7,0.8-1.2,1s-1,0.4-1.6,0.4c-1.2,0-2.2-0.4-2.9-1.3c-0.7-0.9-1-2.1-1-3.5v-0.2
		c0-1.6,0.3-2.9,1-3.9c0.7-1,1.7-1.5,2.9-1.5c0.6,0,1.1,0.1,1.6,0.3c0.5,0.2,0.8,0.5,1.2,1v-4.1l-1.5-0.3v-1.2h1.5h1.8v13l1.5,0.3
		v1.2h-3.1L786,53.4z M781.1,49.9c0,1,0.2,1.8,0.6,2.4s1.1,0.9,1.9,0.9c0.5,0,1-0.1,1.4-0.4c0.4-0.2,0.7-0.6,0.9-1v-4.7
		c-0.2-0.4-0.5-0.8-0.9-1c-0.4-0.2-0.8-0.4-1.4-0.4c-0.9,0-1.5,0.4-1.9,1.1c-0.4,0.7-0.6,1.7-0.6,2.8V49.9z"/>
	<path class="st2" d="M613.3,63.3v-1.2h3.3v8.4h1.2l2.1-2.7l-0.9-0.1v-1.2h4.2v1.2L622,68l-2.6,3.2l3.2,4.1l1.1,0.2v1.2h-4.2v-1.2
		l0.9-0.1l-2.7-3.3h-1.2v3.2l1.5,0.3v1.2h-4.9v-1.2l1.5-0.3V63.5L613.3,63.3z"/>
	<path class="st2" d="M629.5,76.8c-1.4,0-2.5-0.5-3.3-1.4c-0.8-0.9-1.2-2.1-1.2-3.6v-0.4c0-1.4,0.4-2.6,1.3-3.6
		c0.8-0.9,1.9-1.4,3-1.4c1.3,0,2.4,0.4,3.1,1.2s1,1.9,1,3.3V72h-6.5l0,0c0,1,0.3,1.8,0.7,2.4c0.5,0.6,1.1,0.9,2,0.9
		c0.6,0,1.2-0.1,1.6-0.3c0.5-0.2,0.9-0.4,1.2-0.7l0.7,1.2c-0.4,0.3-0.8,0.6-1.4,0.9C631,76.7,630.3,76.8,629.5,76.8z M629.2,67.8
		c-0.6,0-1.1,0.3-1.6,0.8c-0.4,0.5-0.7,1.2-0.8,1.9l0,0h4.6v-0.2c0-0.7-0.2-1.3-0.6-1.8S630,67.8,629.2,67.8z"/>
	<path class="st2" d="M644.5,67.7l-0.9,0.1l-3.8,10.3c-0.3,0.7-0.6,1.3-1.1,1.8s-1.1,0.8-1.9,0.8c-0.1,0-0.3,0-0.6-0.1
		c-0.2,0-0.4-0.1-0.5-0.1l0.2-1.4c0,0,0.1,0,0.3,0c0.3,0,0.4,0,0.5,0c0.4,0,0.7-0.2,0.9-0.5c0.2-0.3,0.5-0.7,0.6-1.2l0.4-1l-3.3-8.5
		l-0.9-0.1v-1.2h4.1v1.2l-1.1,0.2l1.7,5l0.3,1.3h0.1l2.1-6.2l-1.1-0.2v-1.2h4V67.7z"/>
	<path class="st2" d="M649.3,67.7l-1.2,0.2l1.3,5l0.2,1.2h0.1l0.3-1.2l2-6.4h1.5l2,6.4l0.3,1.4h0.1l0.3-1.4l1.2-5l-1.2-0.2v-1.2h3.8
		v1.2l-0.9,0.1l-2.5,8.7h-1.5l-1.9-6.1l-0.4-1.7l-0.1,0l-0.4,1.7l-1.9,6.1h-1.5l-2.5-8.7l-0.9-0.1v-1.2h3.8V67.7z"/>
	<path class="st2" d="M661.5,71.5c0-1.5,0.4-2.7,1.2-3.7c0.8-1,1.9-1.4,3.3-1.4c1.4,0,2.5,0.5,3.3,1.4c0.8,1,1.2,2.2,1.2,3.7v0.2
		c0,1.5-0.4,2.7-1.2,3.7c-0.8,1-1.9,1.4-3.3,1.4c-1.4,0-2.5-0.5-3.3-1.4c-0.8-1-1.2-2.2-1.2-3.7V71.5z M663.3,71.7
		c0,1.1,0.2,1.9,0.7,2.6c0.4,0.7,1.1,1,2,1c0.9,0,1.5-0.3,2-1c0.5-0.7,0.7-1.6,0.7-2.6v-0.2c0-1.1-0.2-1.9-0.7-2.6
		c-0.5-0.7-1.1-1-2-1s-1.5,0.3-2,1c-0.4,0.7-0.7,1.6-0.7,2.6V71.7z"/>
	<path class="st2" d="M672.1,67.7v-1.2h3.1l0.2,1.5c0.3-0.5,0.6-0.9,1.1-1.2c0.4-0.3,0.9-0.4,1.4-0.4c0.1,0,0.3,0,0.4,0
		c0.2,0,0.3,0,0.3,0.1l-0.2,1.7l-1-0.1c-0.5,0-0.9,0.1-1.2,0.3c-0.3,0.2-0.6,0.5-0.8,1v5.8l1.5,0.3v1.2h-4.9v-1.2l1.5-0.3V68
		L672.1,67.7z"/>
	<path class="st2" d="M686.6,75.4c-0.3,0.5-0.7,0.8-1.2,1c-0.5,0.2-1,0.4-1.6,0.4c-1.2,0-2.2-0.4-2.9-1.3c-0.7-0.9-1-2.1-1-3.5v-0.2
		c0-1.6,0.3-2.9,1-3.9c0.7-1,1.7-1.5,2.9-1.5c0.6,0,1.1,0.1,1.6,0.3c0.5,0.2,0.8,0.5,1.2,1v-4.1l-1.5-0.3v-1.2h1.5h1.8v13l1.5,0.3
		v1.2h-3.1L686.6,75.4z M681.7,71.9c0,1,0.2,1.8,0.6,2.4s1.1,0.9,1.9,0.9c0.5,0,1-0.1,1.4-0.4c0.4-0.2,0.7-0.6,0.9-1v-4.7
		c-0.2-0.4-0.5-0.8-0.9-1c-0.4-0.2-0.8-0.4-1.4-0.4c-0.9,0-1.5,0.4-1.9,1.1s-0.6,1.7-0.6,2.8V71.9z"/>
	<path class="st2" d="M698.9,69.7h-1.4l-0.3-1.2c-0.2-0.2-0.5-0.4-0.8-0.5c-0.3-0.1-0.7-0.2-1.1-0.2c-0.6,0-1.1,0.1-1.4,0.4
		c-0.3,0.3-0.5,0.6-0.5,1c0,0.4,0.1,0.7,0.4,0.9c0.3,0.2,0.8,0.4,1.7,0.6c1.3,0.3,2.2,0.6,2.8,1.1c0.6,0.5,0.9,1.1,0.9,1.9
		c0,0.9-0.4,1.6-1.1,2.2c-0.7,0.6-1.7,0.8-2.8,0.8c-0.8,0-1.4-0.1-2.1-0.3c-0.6-0.2-1.1-0.4-1.6-0.8l0-2.3h1.4l0.3,1.3
		c0.2,0.2,0.5,0.3,0.9,0.4c0.4,0.1,0.7,0.1,1.1,0.1c0.7,0,1.2-0.1,1.5-0.4c0.4-0.3,0.6-0.6,0.6-1c0-0.4-0.2-0.7-0.5-1
		s-0.9-0.5-1.7-0.7c-1.2-0.3-2.1-0.6-2.8-1.1c-0.6-0.5-0.9-1.1-0.9-1.9c0-0.8,0.3-1.5,1-2.1s1.6-0.9,2.7-0.9c0.8,0,1.4,0.1,2.1,0.3
		c0.6,0.2,1.1,0.5,1.5,0.8L698.9,69.7z"/>
	<path class="st2" d="M705.6,75.4l1.5-0.3V68l-1.5-0.3v-1.2h3.3v8.6l1.5,0.3v1.2h-4.9V75.4z M709,64h-1.8v-1.9h1.8V64z"/>
	<path class="st2" d="M711.6,75.4l1.5-0.3V68l-1.5-0.3v-1.2h3.1l0.1,1.5c0.3-0.5,0.8-0.9,1.3-1.2c0.5-0.3,1.1-0.4,1.7-0.4
		c1.1,0,1.9,0.3,2.5,1c0.6,0.6,0.9,1.6,0.9,2.9v4.9l1.5,0.3v1.2h-4.9v-1.2l1.5-0.3v-4.9c0-0.9-0.2-1.5-0.5-1.9s-0.9-0.6-1.6-0.6
		c-0.5,0-1,0.1-1.4,0.4c-0.4,0.3-0.7,0.6-1,1v5.9l1.5,0.3v1.2h-4.9V75.4z"/>
	<path class="st2" d="M735.4,76.6c-0.1-0.3-0.1-0.5-0.1-0.7c0-0.2-0.1-0.4-0.1-0.6c-0.4,0.5-0.8,0.8-1.3,1.1
		c-0.5,0.3-1.1,0.4-1.7,0.4c-1,0-1.8-0.3-2.4-0.8c-0.5-0.5-0.8-1.2-0.8-2.2c0-1,0.4-1.7,1.2-2.2c0.8-0.5,1.8-0.8,3.2-0.8h1.9v-1.2
		c0-0.6-0.2-1.1-0.6-1.4c-0.4-0.3-0.9-0.5-1.5-0.5c-0.5,0-0.9,0.1-1.2,0.2c-0.3,0.1-0.6,0.3-0.8,0.5l-0.2,1.1h-1.4v-1.9
		c0.5-0.4,1-0.7,1.7-0.9c0.6-0.2,1.4-0.3,2.1-0.3c1.1,0,2.1,0.3,2.8,0.9c0.7,0.6,1.1,1.4,1.1,2.5v4.8c0,0.1,0,0.3,0,0.4
		c0,0.1,0,0.2,0,0.4l0.7,0.1v1.2H735.4z M732.4,75.2c0.6,0,1.2-0.1,1.7-0.4c0.5-0.3,0.9-0.6,1.1-1v-1.7h-1.9c-0.7,0-1.3,0.2-1.8,0.5
		c-0.4,0.3-0.7,0.8-0.7,1.3c0,0.4,0.1,0.8,0.4,1C731.5,75.1,731.9,75.2,732.4,75.2z"/>
	<path class="st2" d="M739.3,67.7v-1.2h3.1l0.2,1.5c0.3-0.5,0.6-0.9,1.1-1.2c0.4-0.3,0.9-0.4,1.4-0.4c0.1,0,0.3,0,0.4,0
		c0.2,0,0.3,0,0.3,0.1l-0.2,1.7l-1-0.1c-0.5,0-0.9,0.1-1.2,0.3c-0.3,0.2-0.6,0.5-0.8,1v5.8l1.5,0.3v1.2h-4.9v-1.2l1.5-0.3V68
		L739.3,67.7z"/>
	<path class="st2" d="M750.6,64.1v2.4h1.9v1.4h-1.9V74c0,0.5,0.1,0.8,0.3,1c0.2,0.2,0.5,0.3,0.8,0.3c0.2,0,0.3,0,0.5,0
		c0.2,0,0.4-0.1,0.5-0.1l0.3,1.3c-0.2,0.1-0.4,0.2-0.8,0.3c-0.3,0.1-0.7,0.1-1,0.1c-0.7,0-1.3-0.2-1.8-0.7c-0.4-0.4-0.7-1.2-0.7-2.1
		v-6.1h-1.6v-1.4h1.6v-2.4H750.6z"/>
	<path class="st2" d="M754.4,75.4l1.5-0.3V68l-1.5-0.3v-1.2h3.3v8.6l1.5,0.3v1.2h-4.9V75.4z M757.7,64h-1.8v-1.9h1.8V64z"/>
	<path class="st2" d="M765.2,75.4c0.6,0,1.1-0.2,1.6-0.6c0.5-0.4,0.7-0.8,0.7-1.4h1.6l0,0.1c0,0.9-0.4,1.6-1.2,2.3
		c-0.8,0.7-1.7,1-2.8,1c-1.5,0-2.6-0.5-3.3-1.4c-0.8-1-1.2-2.1-1.2-3.6v-0.4c0-1.4,0.4-2.6,1.2-3.6c0.8-1,1.9-1.4,3.3-1.4
		c0.8,0,1.5,0.1,2.2,0.4c0.6,0.3,1.2,0.6,1.6,1.1l0.1,2.2h-1.5l-0.4-1.6c-0.2-0.2-0.5-0.4-0.8-0.5c-0.3-0.1-0.7-0.2-1.2-0.2
		c-1,0-1.6,0.3-2.1,1c-0.4,0.7-0.6,1.5-0.6,2.5v0.4c0,1,0.2,1.9,0.6,2.6C763.5,75,764.2,75.4,765.2,75.4z"/>
	<path class="st2" d="M770.6,63.3v-1.2h3.3v13l1.5,0.3v1.2h-4.9v-1.2l1.5-0.3V63.5L770.6,63.3z"/>
	<path class="st2" d="M781.5,76.8c-1.4,0-2.5-0.5-3.3-1.4c-0.8-0.9-1.2-2.1-1.2-3.6v-0.4c0-1.4,0.4-2.6,1.3-3.6
		c0.8-0.9,1.9-1.4,3-1.4c1.3,0,2.4,0.4,3.1,1.2s1,1.9,1,3.3V72h-6.5l0,0c0,1,0.3,1.8,0.7,2.4c0.5,0.6,1.1,0.9,2,0.9
		c0.6,0,1.2-0.1,1.6-0.3c0.5-0.2,0.9-0.4,1.2-0.7l0.7,1.2c-0.4,0.3-0.8,0.6-1.4,0.9C783,76.7,782.3,76.8,781.5,76.8z M781.2,67.8
		c-0.6,0-1.1,0.3-1.6,0.8c-0.4,0.5-0.7,1.2-0.8,1.9l0,0h4.6v-0.2c0-0.7-0.2-1.3-0.6-1.8S781.9,67.8,781.2,67.8z"/>
	<path class="st2" d="M794.8,69.7h-1.4l-0.3-1.2c-0.2-0.2-0.5-0.4-0.8-0.5c-0.3-0.1-0.7-0.2-1.1-0.2c-0.6,0-1.1,0.1-1.4,0.4
		c-0.3,0.3-0.5,0.6-0.5,1c0,0.4,0.1,0.7,0.4,0.9c0.3,0.2,0.8,0.4,1.7,0.6c1.3,0.3,2.2,0.6,2.8,1.1c0.6,0.5,0.9,1.1,0.9,1.9
		c0,0.9-0.4,1.6-1.1,2.2c-0.7,0.6-1.7,0.8-2.8,0.8c-0.8,0-1.4-0.1-2.1-0.3c-0.6-0.2-1.1-0.4-1.6-0.8l0-2.3h1.4l0.3,1.3
		c0.2,0.2,0.5,0.3,0.9,0.4c0.4,0.1,0.7,0.1,1.1,0.1c0.7,0,1.2-0.1,1.5-0.4c0.4-0.3,0.6-0.6,0.6-1c0-0.4-0.2-0.7-0.5-1
		s-0.9-0.5-1.7-0.7c-1.2-0.3-2.1-0.6-2.8-1.1c-0.6-0.5-0.9-1.1-0.9-1.9c0-0.8,0.3-1.5,1-2.1s1.6-0.9,2.7-0.9c0.8,0,1.4,0.1,2.1,0.3
		c0.6,0.2,1.1,0.5,1.5,0.8L794.8,69.7z"/>
</g>
<g id="rettv_x5F_02_5_">
	<rect x="575.4" y="144" class="st4" width="257.9" height="81.9"/>
	<path class="st0" d="M834.9,227.6H573.7v-85.2h261.2V227.6z M577,224.3h254.6v-78.6H577V224.3z"/>
</g>
<g id="text1_x5F_02_6_">
	<path class="st2" d="M635.4,172.6H634l-0.3-1.9c-0.3-0.2-0.6-0.4-1.1-0.6c-0.5-0.2-1-0.2-1.6-0.2c-1,0-1.7,0.2-2.2,0.6
		c-0.5,0.4-0.8,0.9-0.8,1.6c0,0.6,0.3,1.1,0.8,1.5c0.5,0.4,1.4,0.7,2.6,1c1.4,0.4,2.5,0.9,3.2,1.6c0.7,0.7,1.1,1.5,1.1,2.6
		c0,1.1-0.4,2-1.3,2.6c-0.9,0.7-2,1-3.5,1c-1,0-2-0.2-2.8-0.5c-0.8-0.3-1.5-0.8-2-1.3v-2.5h1.4l0.4,1.9c0.4,0.3,0.8,0.5,1.3,0.7
		c0.5,0.2,1.1,0.3,1.8,0.3c0.9,0,1.7-0.2,2.2-0.6s0.8-0.9,0.8-1.6c0-0.6-0.2-1.1-0.7-1.6c-0.5-0.4-1.3-0.8-2.5-1.1
		c-1.4-0.3-2.5-0.8-3.3-1.5c-0.8-0.7-1.2-1.5-1.2-2.5c0-1.1,0.4-1.9,1.3-2.6c0.9-0.7,2.1-1.1,3.5-1.1c0.9,0,1.8,0.2,2.6,0.5
		c0.8,0.3,1.4,0.7,1.9,1.2V172.6z"/>
	<path class="st2" d="M641.9,182.3c-1.4,0-2.5-0.5-3.3-1.4c-0.8-0.9-1.2-2.1-1.2-3.6v-0.4c0-1.4,0.4-2.6,1.3-3.6
		c0.8-0.9,1.9-1.4,3-1.4c1.3,0,2.4,0.4,3.1,1.2s1,1.9,1,3.3v1.1h-6.5l0,0c0,1,0.3,1.8,0.7,2.4c0.5,0.6,1.1,0.9,2,0.9
		c0.6,0,1.2-0.1,1.6-0.3c0.5-0.2,0.9-0.4,1.2-0.7l0.7,1.2c-0.4,0.3-0.8,0.6-1.4,0.9C643.5,182.2,642.8,182.3,641.9,182.3z
		 M641.7,173.3c-0.6,0-1.1,0.3-1.6,0.8c-0.4,0.5-0.7,1.2-0.8,1.9l0,0h4.6v-0.2c0-0.7-0.2-1.3-0.6-1.8S642.4,173.3,641.7,173.3z"/>
	<path class="st2" d="M647.3,168.8v-1.2h3.3v13l1.5,0.3v1.2h-4.9v-1.2l1.5-0.3v-11.6L647.3,168.8z"/>
	<path class="st2" d="M658.1,182.3c-1.4,0-2.5-0.5-3.3-1.4c-0.8-0.9-1.2-2.1-1.2-3.6v-0.4c0-1.4,0.4-2.6,1.3-3.6
		c0.8-0.9,1.9-1.4,3-1.4c1.3,0,2.4,0.4,3.1,1.2s1,1.9,1,3.3v1.1h-6.5l0,0c0,1,0.3,1.8,0.7,2.4c0.5,0.6,1.1,0.9,2,0.9
		c0.6,0,1.2-0.1,1.6-0.3c0.5-0.2,0.9-0.4,1.2-0.7l0.7,1.2c-0.4,0.3-0.8,0.6-1.4,0.9C659.7,182.2,659,182.3,658.1,182.3z
		 M657.9,173.3c-0.6,0-1.1,0.3-1.6,0.8c-0.4,0.5-0.7,1.2-0.8,1.9l0,0h4.6v-0.2c0-0.7-0.2-1.3-0.6-1.8S658.6,173.3,657.9,173.3z"/>
	<path class="st2" d="M668.3,180.9c0.6,0,1.1-0.2,1.6-0.6c0.5-0.4,0.7-0.8,0.7-1.4h1.6l0,0.1c0,0.9-0.4,1.6-1.2,2.3
		c-0.8,0.7-1.7,1-2.8,1c-1.5,0-2.6-0.5-3.3-1.4c-0.8-1-1.2-2.1-1.2-3.6v-0.4c0-1.4,0.4-2.6,1.2-3.6c0.8-1,1.9-1.4,3.3-1.4
		c0.8,0,1.5,0.1,2.2,0.4c0.6,0.3,1.2,0.6,1.6,1.1l0.1,2.2h-1.5l-0.4-1.6c-0.2-0.2-0.5-0.4-0.8-0.5c-0.3-0.1-0.7-0.2-1.2-0.2
		c-1,0-1.6,0.3-2.1,1c-0.4,0.7-0.6,1.5-0.6,2.5v0.4c0,1,0.2,1.9,0.6,2.6C666.6,180.5,667.3,180.9,668.3,180.9z"/>
	<path class="st2" d="M677.2,169.6v2.4h1.9v1.4h-1.9v6.1c0,0.5,0.1,0.8,0.3,1c0.2,0.2,0.5,0.3,0.8,0.3c0.2,0,0.3,0,0.5,0
		c0.2,0,0.4-0.1,0.5-0.1l0.3,1.3c-0.2,0.1-0.4,0.2-0.8,0.3c-0.3,0.1-0.7,0.1-1,0.1c-0.7,0-1.3-0.2-1.8-0.7c-0.4-0.4-0.7-1.2-0.7-2.1
		v-6.1h-1.6v-1.4h1.6v-2.4H677.2z"/>
	<path class="st2" d="M688.9,169.6v2.4h1.9v1.4h-1.9v6.1c0,0.5,0.1,0.8,0.3,1c0.2,0.2,0.5,0.3,0.8,0.3c0.2,0,0.3,0,0.5,0
		c0.2,0,0.4-0.1,0.5-0.1l0.3,1.3c-0.2,0.1-0.4,0.2-0.8,0.3c-0.3,0.1-0.7,0.1-1,0.1c-0.7,0-1.3-0.2-1.8-0.7c-0.4-0.4-0.7-1.2-0.7-2.1
		v-6.1h-1.6v-1.4h1.6v-2.4H688.9z"/>
	<path class="st2" d="M692.4,180.9l1.5-0.3v-11.6l-1.5-0.3v-1.2h3.3v5.8c0.3-0.5,0.8-0.9,1.3-1.1c0.5-0.3,1.1-0.4,1.7-0.4
		c1.1,0,1.9,0.3,2.5,1c0.6,0.6,0.9,1.6,0.9,3v4.9l1.5,0.3v1.2h-4.9v-1.2l1.5-0.3v-4.9c0-0.8-0.2-1.4-0.5-1.8
		c-0.4-0.4-0.9-0.6-1.6-0.6c-0.5,0-1,0.1-1.4,0.4c-0.4,0.2-0.8,0.6-1,1v6l1.5,0.3v1.2h-4.9V180.9z"/>
	<path class="st2" d="M709.4,182.3c-1.4,0-2.5-0.5-3.3-1.4c-0.8-0.9-1.2-2.1-1.2-3.6v-0.4c0-1.4,0.4-2.6,1.3-3.6
		c0.9-0.9,1.9-1.4,3-1.4c1.3,0,2.4,0.4,3.1,1.2c0.7,0.8,1,1.9,1,3.3v1.1h-6.5l0,0c0,1,0.3,1.8,0.7,2.4c0.5,0.6,1.1,0.9,2,0.9
		c0.6,0,1.2-0.1,1.6-0.3c0.5-0.2,0.9-0.4,1.2-0.7l0.7,1.2c-0.4,0.3-0.8,0.6-1.4,0.9C711,182.2,710.2,182.3,709.4,182.3z
		 M709.1,173.3c-0.6,0-1.1,0.3-1.6,0.8c-0.4,0.5-0.7,1.2-0.8,1.9l0,0h4.6v-0.2c0-0.7-0.2-1.3-0.6-1.8
		C710.5,173.6,709.9,173.3,709.1,173.3z"/>
	<path class="st2" d="M720.1,180.9l2.1-0.3v-10.1l-2.1,0v-1.1l4-0.9v12.1l2.1,0.3v1.2h-6V180.9z"/>
	<path class="st2" d="M727.9,170.8c0-0.7,0.2-1.2,0.7-1.7c0.5-0.5,1-0.7,1.7-0.7c0.6,0,1.2,0.2,1.7,0.7c0.5,0.5,0.7,1,0.7,1.7
		c0,0.7-0.2,1.2-0.7,1.7c-0.5,0.5-1,0.7-1.7,0.7c-0.7,0-1.2-0.2-1.7-0.7C728.2,172.1,727.9,171.5,727.9,170.8z M729.1,170.8
		c0,0.3,0.1,0.6,0.3,0.8c0.2,0.2,0.5,0.3,0.8,0.3c0.3,0,0.6-0.1,0.8-0.3c0.2-0.2,0.3-0.5,0.3-0.8c0-0.3-0.1-0.6-0.3-0.9
		c-0.2-0.2-0.5-0.3-0.8-0.3c-0.3,0-0.6,0.1-0.8,0.3C729.2,170.2,729.1,170.5,729.1,170.8z"/>
	<path class="st2" d="M739,180.9l1.5-0.3v-7.2l-1.5-0.3v-1.2h3.2l0.1,1.3c0.3-0.5,0.7-0.8,1.2-1.1c0.5-0.3,1.1-0.4,1.8-0.4
		s1.2,0.2,1.7,0.5c0.5,0.3,0.8,0.8,1.1,1.4c0.3-0.6,0.7-1,1.3-1.4s1.1-0.5,1.8-0.5c1,0,1.8,0.4,2.4,1.1c0.6,0.7,0.9,1.8,0.9,3.2v4.6
		l1.5,0.3v1.2h-4.9v-1.2l1.5-0.3v-4.6c0-1-0.2-1.7-0.5-2.1c-0.3-0.4-0.8-0.6-1.5-0.6c-0.6,0-1.1,0.2-1.5,0.7c-0.4,0.4-0.6,1-0.7,1.7
		v4.9l1.5,0.3v1.2h-4.9v-1.2l1.5-0.3v-4.6c0-0.9-0.2-1.6-0.5-2.1c-0.3-0.4-0.9-0.7-1.5-0.7c-0.6,0-1,0.1-1.4,0.3
		c-0.4,0.2-0.6,0.6-0.8,1v6l1.5,0.3v1.2H739V180.9z"/>
	<path class="st2" d="M757.2,177c0-1.5,0.4-2.7,1.2-3.7c0.8-1,1.9-1.4,3.3-1.4c1.4,0,2.5,0.5,3.3,1.4c0.8,1,1.2,2.2,1.2,3.7v0.2
		c0,1.5-0.4,2.7-1.2,3.7c-0.8,1-1.9,1.4-3.3,1.4c-1.4,0-2.5-0.5-3.3-1.4c-0.8-1-1.2-2.2-1.2-3.7V177z M759,177.2
		c0,1.1,0.2,1.9,0.7,2.6c0.4,0.7,1.1,1,2,1c0.9,0,1.5-0.3,2-1c0.5-0.7,0.7-1.6,0.7-2.6V177c0-1.1-0.2-1.9-0.7-2.6
		c-0.5-0.7-1.1-1-2-1s-1.5,0.3-2,1c-0.4,0.7-0.7,1.6-0.7,2.6V177.2z"/>
	<path class="st2" d="M775.5,175.2h-1.4l-0.3-1.2c-0.2-0.2-0.5-0.4-0.8-0.5c-0.3-0.1-0.7-0.2-1.1-0.2c-0.6,0-1.1,0.1-1.4,0.4
		c-0.3,0.3-0.5,0.6-0.5,1c0,0.4,0.1,0.7,0.4,0.9c0.3,0.2,0.8,0.4,1.7,0.6c1.3,0.3,2.2,0.6,2.8,1.1c0.6,0.5,0.9,1.1,0.9,1.9
		c0,0.9-0.4,1.6-1.1,2.2c-0.7,0.6-1.7,0.8-2.8,0.8c-0.8,0-1.4-0.1-2.1-0.3c-0.6-0.2-1.1-0.4-1.6-0.8l0-2.3h1.4l0.3,1.3
		c0.2,0.2,0.5,0.3,0.9,0.4c0.4,0.1,0.7,0.1,1.1,0.1c0.7,0,1.2-0.1,1.5-0.4c0.4-0.3,0.6-0.6,0.6-1c0-0.4-0.2-0.7-0.5-1
		s-0.9-0.5-1.7-0.7c-1.2-0.3-2.1-0.6-2.8-1.1c-0.6-0.5-0.9-1.1-0.9-1.9c0-0.8,0.3-1.5,1-2.1s1.6-0.9,2.7-0.9c0.8,0,1.4,0.1,2.1,0.3
		c0.6,0.2,1.1,0.5,1.5,0.8L775.5,175.2z"/>
	<path class="st2" d="M780.7,169.6v2.4h1.9v1.4h-1.9v6.1c0,0.5,0.1,0.8,0.3,1c0.2,0.2,0.5,0.3,0.8,0.3c0.2,0,0.3,0,0.5,0
		c0.2,0,0.4-0.1,0.5-0.1l0.3,1.3c-0.2,0.1-0.4,0.2-0.8,0.3c-0.3,0.1-0.7,0.1-1,0.1c-0.7,0-1.3-0.2-1.8-0.7c-0.4-0.4-0.7-1.2-0.7-2.1
		v-6.1h-1.6v-1.4h1.6v-2.4H780.7z"/>
	<path class="st2" d="M605.3,202.9l1.5-0.3v-7.2l-1.5-0.3v-1.2h3.2l0.1,1.3c0.3-0.5,0.7-0.8,1.2-1.1c0.5-0.3,1.1-0.4,1.8-0.4
		s1.2,0.2,1.7,0.5c0.5,0.3,0.8,0.8,1.1,1.4c0.3-0.6,0.7-1,1.3-1.4s1.1-0.5,1.8-0.5c1,0,1.8,0.4,2.4,1.1c0.6,0.7,0.9,1.8,0.9,3.2v4.6
		l1.5,0.3v1.2h-4.9v-1.2l1.5-0.3v-4.6c0-1-0.2-1.7-0.5-2.1c-0.3-0.4-0.8-0.6-1.5-0.6c-0.6,0-1.1,0.2-1.5,0.7c-0.4,0.4-0.6,1-0.7,1.7
		v4.9l1.5,0.3v1.2h-4.9v-1.2l1.5-0.3v-4.6c0-0.9-0.2-1.6-0.5-2.1c-0.3-0.4-0.9-0.7-1.5-0.7c-0.6,0-1,0.1-1.4,0.3
		c-0.4,0.2-0.6,0.6-0.8,1v6l1.5,0.3v1.2h-4.9V202.9z"/>
	<path class="st2" d="M628.1,204.3c-1.4,0-2.5-0.5-3.3-1.4c-0.8-0.9-1.2-2.1-1.2-3.6v-0.4c0-1.4,0.4-2.6,1.3-3.6
		c0.9-0.9,1.9-1.4,3-1.4c1.3,0,2.4,0.4,3.1,1.2c0.7,0.8,1,1.9,1,3.3v1.1h-6.5l0,0c0,1,0.3,1.8,0.7,2.4c0.5,0.6,1.1,0.9,2,0.9
		c0.6,0,1.2-0.1,1.6-0.3c0.5-0.2,0.9-0.4,1.2-0.7l0.7,1.2c-0.4,0.3-0.8,0.6-1.4,0.9C629.6,204.2,628.9,204.3,628.1,204.3z
		 M627.8,195.3c-0.6,0-1.1,0.3-1.6,0.8c-0.4,0.5-0.7,1.2-0.8,1.9l0,0h4.6v-0.2c0-0.7-0.2-1.3-0.6-1.8
		C629.2,195.6,628.6,195.3,627.8,195.3z"/>
	<path class="st2" d="M633.5,202.9l1.5-0.3v-7.2l-1.5-0.3v-1.2h3.1l0.1,1.5c0.3-0.5,0.8-0.9,1.3-1.2c0.5-0.3,1.1-0.4,1.7-0.4
		c1.1,0,1.9,0.3,2.5,1c0.6,0.6,0.9,1.6,0.9,2.9v4.9l1.5,0.3v1.2h-4.9v-1.2l1.5-0.3v-4.9c0-0.9-0.2-1.5-0.5-1.9s-0.9-0.6-1.6-0.6
		c-0.5,0-1,0.1-1.4,0.4c-0.4,0.3-0.7,0.6-1,1v5.9l1.5,0.3v1.2h-4.9V202.9z"/>
	<path class="st2" d="M649.2,191.6v2.4h1.9v1.4h-1.9v6.1c0,0.5,0.1,0.8,0.3,1c0.2,0.2,0.5,0.3,0.8,0.3c0.2,0,0.3,0,0.5,0
		c0.2,0,0.4-0.1,0.5-0.1l0.3,1.3c-0.2,0.1-0.4,0.2-0.8,0.3c-0.3,0.1-0.7,0.1-1,0.1c-0.7,0-1.3-0.2-1.8-0.7c-0.4-0.4-0.7-1.2-0.7-2.1
		v-6.1h-1.6v-1.4h1.6v-2.4H649.2z"/>
	<path class="st2" d="M652.9,202.9l1.5-0.3v-7.2l-1.5-0.3v-1.2h3.3v8.6l1.5,0.3v1.2h-4.9V202.9z M656.3,191.5h-1.8v-1.9h1.8V191.5z"
		/>
	<path class="st2" d="M659.2,199c0-1.5,0.4-2.7,1.2-3.7c0.8-1,1.9-1.4,3.3-1.4c1.4,0,2.5,0.5,3.3,1.4c0.8,1,1.2,2.2,1.2,3.7v0.2
		c0,1.5-0.4,2.7-1.2,3.7c-0.8,1-1.9,1.4-3.3,1.4c-1.4,0-2.5-0.5-3.3-1.4c-0.8-1-1.2-2.2-1.2-3.7V199z M661,199.2
		c0,1.1,0.2,1.9,0.7,2.6c0.4,0.7,1.1,1,2,1c0.9,0,1.5-0.3,2-1c0.5-0.7,0.7-1.6,0.7-2.6V199c0-1.1-0.2-1.9-0.7-2.6
		c-0.5-0.7-1.1-1-2-1c-0.9,0-1.5,0.3-2,1c-0.4,0.7-0.7,1.6-0.7,2.6V199.2z"/>
	<path class="st2" d="M669.6,202.9l1.5-0.3v-7.2l-1.5-0.3v-1.2h3.1l0.1,1.5c0.3-0.5,0.8-0.9,1.3-1.2c0.5-0.3,1.1-0.4,1.7-0.4
		c1.1,0,1.9,0.3,2.5,1c0.6,0.6,0.9,1.6,0.9,2.9v4.9l1.5,0.3v1.2h-4.9v-1.2l1.5-0.3v-4.9c0-0.9-0.2-1.5-0.5-1.9s-0.9-0.6-1.6-0.6
		c-0.5,0-1,0.1-1.4,0.4c-0.4,0.3-0.7,0.6-1,1v5.9l1.5,0.3v1.2h-4.9V202.9z"/>
	<path class="st2" d="M686.5,204.3c-1.4,0-2.5-0.5-3.3-1.4c-0.8-0.9-1.2-2.1-1.2-3.6v-0.4c0-1.4,0.4-2.6,1.3-3.6
		c0.9-0.9,1.9-1.4,3-1.4c1.3,0,2.4,0.4,3.1,1.2c0.7,0.8,1,1.9,1,3.3v1.1h-6.5l0,0c0,1,0.3,1.8,0.7,2.4c0.5,0.6,1.1,0.9,2,0.9
		c0.6,0,1.2-0.1,1.6-0.3c0.5-0.2,0.9-0.4,1.2-0.7l0.7,1.2c-0.4,0.3-0.8,0.6-1.4,0.9C688.1,204.2,687.4,204.3,686.5,204.3z
		 M686.3,195.3c-0.6,0-1.1,0.3-1.6,0.8c-0.4,0.5-0.7,1.2-0.8,1.9l0,0h4.6v-0.2c0-0.7-0.2-1.3-0.6-1.8
		C687.6,195.6,687,195.3,686.3,195.3z"/>
	<path class="st2" d="M698.9,202.9c-0.3,0.5-0.7,0.8-1.2,1c-0.5,0.2-1,0.4-1.6,0.4c-1.2,0-2.2-0.4-2.9-1.3c-0.7-0.9-1-2.1-1-3.5
		v-0.2c0-1.6,0.3-2.9,1-3.9c0.7-1,1.7-1.5,2.9-1.5c0.6,0,1.1,0.1,1.6,0.3c0.5,0.2,0.8,0.5,1.2,1v-4.1l-1.5-0.3v-1.2h1.5h1.8v13
		l1.5,0.3v1.2h-3.1L698.9,202.9z M694,199.5c0,1,0.2,1.8,0.6,2.4s1.1,0.9,1.9,0.9c0.5,0,1-0.1,1.4-0.4c0.4-0.2,0.7-0.6,0.9-1v-4.7
		c-0.2-0.4-0.5-0.8-0.9-1c-0.4-0.2-0.8-0.4-1.4-0.4c-0.9,0-1.5,0.4-1.9,1.1s-0.6,1.7-0.6,2.8V199.5z"/>
	<path class="st2" d="M707.9,202.9l1.5-0.3v-7.2l-1.5-0.3v-1.2h3.2l0.1,1.3c0.3-0.5,0.7-0.8,1.2-1.1s1.1-0.4,1.8-0.4
		s1.2,0.2,1.7,0.5c0.5,0.3,0.8,0.8,1.1,1.4c0.3-0.6,0.7-1,1.3-1.4s1.1-0.5,1.8-0.5c1,0,1.8,0.4,2.4,1.1c0.6,0.7,0.9,1.8,0.9,3.2v4.6
		l1.5,0.3v1.2h-4.9v-1.2l1.5-0.3v-4.6c0-1-0.2-1.7-0.5-2.1c-0.3-0.4-0.8-0.6-1.5-0.6c-0.6,0-1.2,0.2-1.5,0.7c-0.4,0.4-0.6,1-0.7,1.7
		v4.9l1.5,0.3v1.2H714v-1.2l1.5-0.3v-4.6c0-0.9-0.2-1.6-0.5-2.1c-0.3-0.4-0.9-0.7-1.5-0.7c-0.6,0-1,0.1-1.4,0.3
		c-0.4,0.2-0.6,0.6-0.8,1v6l1.5,0.3v1.2h-4.9V202.9z"/>
	<path class="st2" d="M726.2,199c0-1.5,0.4-2.7,1.2-3.7c0.8-1,1.9-1.4,3.3-1.4c1.4,0,2.5,0.5,3.3,1.4c0.8,1,1.2,2.2,1.2,3.7v0.2
		c0,1.5-0.4,2.7-1.2,3.7c-0.8,1-1.9,1.4-3.3,1.4c-1.4,0-2.5-0.5-3.3-1.4c-0.8-1-1.2-2.2-1.2-3.7V199z M728,199.2
		c0,1.1,0.2,1.9,0.7,2.6c0.4,0.7,1.1,1,2,1c0.9,0,1.5-0.3,2-1c0.5-0.7,0.7-1.6,0.7-2.6V199c0-1.1-0.2-1.9-0.7-2.6
		c-0.5-0.7-1.1-1-2-1c-0.9,0-1.5,0.3-2,1c-0.4,0.7-0.7,1.6-0.7,2.6V199.2z"/>
	<path class="st2" d="M740.1,195.2l-1.2,0.2l2.1,5.7l0.2,0.7h0.1l0.2-0.7l2-5.7l-1.2-0.2v-1.2h3.9v1.2l-0.8,0.1l-3.4,8.7h-1.4
		l-3.4-8.7l-0.8-0.1v-1.2h3.9V195.2z"/>
	<path class="st2" d="M751.8,204.3c-1.4,0-2.5-0.5-3.3-1.4c-0.8-0.9-1.2-2.1-1.2-3.6v-0.4c0-1.4,0.4-2.6,1.3-3.6
		c0.9-0.9,1.9-1.4,3-1.4c1.3,0,2.4,0.4,3.1,1.2c0.7,0.8,1,1.9,1,3.3v1.1h-6.5l0,0c0,1,0.3,1.8,0.7,2.4c0.5,0.6,1.1,0.9,2,0.9
		c0.6,0,1.2-0.1,1.6-0.3c0.5-0.2,0.9-0.4,1.2-0.7l0.7,1.2c-0.4,0.3-0.8,0.6-1.4,0.9C753.3,204.2,752.6,204.3,751.8,204.3z
		 M751.5,195.3c-0.6,0-1.1,0.3-1.6,0.8c-0.4,0.5-0.7,1.2-0.8,1.9l0,0h4.6v-0.2c0-0.7-0.2-1.3-0.6-1.8
		C752.8,195.6,752.2,195.3,751.5,195.3z"/>
	<path class="st2" d="M757,202.9l1.5-0.3v-7.2l-1.5-0.3v-1.2h3.2l0.1,1.3c0.3-0.5,0.7-0.8,1.2-1.1c0.5-0.3,1.1-0.4,1.8-0.4
		s1.2,0.2,1.7,0.5c0.5,0.3,0.8,0.8,1.1,1.4c0.3-0.6,0.7-1,1.3-1.4s1.1-0.5,1.8-0.5c1,0,1.8,0.4,2.4,1.1c0.6,0.7,0.9,1.8,0.9,3.2v4.6
		l1.5,0.3v1.2h-4.9v-1.2l1.5-0.3v-4.6c0-1-0.2-1.7-0.5-2.1c-0.3-0.4-0.8-0.6-1.5-0.6c-0.6,0-1.1,0.2-1.5,0.7c-0.4,0.4-0.6,1-0.7,1.7
		v4.9l1.5,0.3v1.2h-4.9v-1.2l1.5-0.3v-4.6c0-0.9-0.2-1.6-0.5-2.1c-0.3-0.4-0.9-0.7-1.5-0.7c-0.6,0-1,0.1-1.4,0.3
		c-0.4,0.2-0.6,0.6-0.8,1v6l1.5,0.3v1.2H757V202.9z"/>
	<path class="st2" d="M779.8,204.3c-1.4,0-2.5-0.5-3.3-1.4c-0.8-0.9-1.2-2.1-1.2-3.6v-0.4c0-1.4,0.4-2.6,1.3-3.6
		c0.8-0.9,1.9-1.4,3-1.4c1.3,0,2.4,0.4,3.1,1.2s1,1.9,1,3.3v1.1h-6.5l0,0c0,1,0.3,1.8,0.7,2.4c0.5,0.6,1.1,0.9,2,0.9
		c0.6,0,1.2-0.1,1.6-0.3c0.5-0.2,0.9-0.4,1.2-0.7l0.7,1.2c-0.4,0.3-0.8,0.6-1.4,0.9C781.4,204.2,780.7,204.3,779.8,204.3z
		 M779.5,195.3c-0.6,0-1.1,0.3-1.6,0.8c-0.4,0.5-0.7,1.2-0.8,1.9l0,0h4.6v-0.2c0-0.7-0.2-1.3-0.6-1.8S780.3,195.3,779.5,195.3z"/>
	<path class="st2" d="M785.2,202.9l1.5-0.3v-7.2l-1.5-0.3v-1.2h3.1l0.1,1.5c0.3-0.5,0.8-0.9,1.3-1.2c0.5-0.3,1.1-0.4,1.7-0.4
		c1.1,0,1.9,0.3,2.5,1c0.6,0.6,0.9,1.6,0.9,2.9v4.9l1.5,0.3v1.2h-4.9v-1.2l1.5-0.3v-4.9c0-0.9-0.2-1.5-0.5-1.9s-0.9-0.6-1.6-0.6
		c-0.5,0-1,0.1-1.4,0.4c-0.4,0.3-0.7,0.6-1,1v5.9l1.5,0.3v1.2h-4.9V202.9z"/>
	<path class="st2" d="M800.9,191.6v2.4h1.9v1.4h-1.9v6.1c0,0.5,0.1,0.8,0.3,1c0.2,0.2,0.5,0.3,0.8,0.3c0.2,0,0.3,0,0.5,0
		c0.2,0,0.4-0.1,0.5-0.1l0.3,1.3c-0.2,0.1-0.4,0.2-0.8,0.3c-0.3,0.1-0.7,0.1-1,0.1c-0.7,0-1.3-0.2-1.8-0.7c-0.4-0.4-0.7-1.2-0.7-2.1
		v-6.1h-1.6v-1.4h1.6v-2.4H800.9z"/>
</g>
<g>
	<g>
		<rect x="702.9" y="98.5" class="st0" width="2.9" height="2.4"/>
	</g>
	<g>
		<path class="st0" d="M705.8,125.5h-2.9v-4.1h2.9V125.5z M705.8,117.3h-2.9v-4.1h2.9V117.3z M705.8,109.1h-2.9V105h2.9V109.1z"/>
	</g>
	<g>
		<rect x="702.9" y="129.6" class="st0" width="2.9" height="2.4"/>
	</g>
	<g>
		<g>
			<path class="st0" d="M704.3,140.6c-1.5-4.1-4.1-9.1-6.8-12.3l6.8,2.5l6.8-2.5C708.4,131.5,705.8,136.6,704.3,140.6z"/>
		</g>
	</g>
</g>
<g>
	<g>
		<rect x="702.9" y="224.9" class="st0" width="2.9" height="2.4"/>
	</g>
	<g>
		<path class="st0" d="M705.8,251.9h-2.9v-4.1h2.9V251.9z M705.8,243.7h-2.9v-4.1h2.9V243.7z M705.8,235.5h-2.9v-4.1h2.9V235.5z"/>
	</g>
	<g>
		<rect x="702.9" y="256" class="st0" width="2.9" height="2.4"/>
	</g>
	<g>
		<g>
			<path class="st0" d="M704.3,267.1c-1.5-4.1-4.1-9.1-6.8-12.3l6.8,2.5l6.8-2.5C708.4,257.9,705.8,263,704.3,267.1z"/>
		</g>
	</g>
</g>
</svg>
