<?xml version="1.0" encoding="utf-8"?>
<!-- Generator: Adobe Illustrator 21.0.0, SVG Export Plug-In . SVG Version: 6.00 Build 0)  -->
<svg version="1.1" xmlns="http://www.w3.org/2000/svg" xmlns:xlink="http://www.w3.org/1999/xlink" x="0px" y="0px"
	 viewBox="0 0 1366 768" style="enable-background:new 0 0 1366 768;" xml:space="preserve">
<style type="text/css">
	.st0{display:none;}
	.st1{fill:none;}
	.st2{fill:#141414;}
	.st3{font-family:'Lekton-Regular';}
	.st4{font-size:7.7842px;}
	.st5{fill:#DFDFDF;}
	.st6{fill:#FEE5AB;}
	.st7{fill:#A8E3F1;}
	.st8{fill:none;stroke:#141414;stroke-width:0.1;stroke-miterlimit:10;}
	.st9{font-family:'Lekton-Bold';}
</style>
<g id="Layer_1" class="st0">
	
		<image style="overflow:visible;" width="698" height="1028" xlink:href="Screen Shot 2016-12-20 at 16.59.02.png"  transform="matrix(0.5 0 0 0.5 1469 80)">
	</image>
	
		<image style="display:inline;overflow:visible;" width="706" height="1030" xlink:href="Screen Shot 2016-12-20 at 16.59.13.png"  transform="matrix(0.5 0 0 0.5 1644 81)">
	</image>
	
		<image style="overflow:visible;" width="702" height="1030" xlink:href="Screen Shot 2016-12-20 at 16.59.29.png"  transform="matrix(0.5 0 0 0.5 1629 103)">
	</image>
</g>
<g id="Layer_2">
	<g>
		<rect x="548.4" y="343.9" class="st1" width="123.1" height="8.9"/>
		<text transform="matrix(1 0 0 1 548.4282 349.0669)" class="st2 st3 st4">MARIJUANA: 20/12/11 - 20/12/16</text>
		<g>
			<rect x="548.4" y="364.9" class="st5" width="111.9" height="3.2"/>
			<rect x="548.4" y="377.3" class="st5" width="110" height="3.2"/>
			<rect x="548.4" y="389.7" class="st5" width="89.5" height="3.2"/>
			<rect x="548.4" y="402.1" class="st5" width="64.2" height="3.2"/>
			<rect x="548.4" y="414.5" class="st6" width="58.4" height="3.2"/>
			<rect x="548.4" y="426.9" class="st5" width="41.8" height="3.2"/>
			<rect x="548.4" y="439.3" class="st5" width="39.9" height="3.2"/>
			<rect x="548.4" y="451.7" class="st5" width="38.9" height="3.2"/>
			<rect x="548.4" y="464.1" class="st7" width="38.9" height="3.2"/>
			<rect x="548.4" y="476.5" class="st5" width="34.1" height="3.2"/>
			<rect x="548.4" y="488.9" class="st7" width="31.1" height="3.2"/>
			<rect x="548.4" y="501.4" class="st7" width="29.2" height="3.2"/>
			<rect x="548.4" y="513.8" class="st5" width="28.2" height="3.2"/>
			<rect x="548.4" y="526.2" class="st5" width="24.3" height="3.2"/>
			<rect x="548.4" y="538.6" class="st5" width="24.3" height="3.2"/>
			<rect x="548.4" y="551" class="st7" width="17.5" height="3.2"/>
			<rect x="548.4" y="563.4" class="st5" width="14.6" height="3.2"/>
			<rect x="548.4" y="575.8" class="st7" width="14.6" height="3.2"/>
			<rect x="548.4" y="588.2" class="st5" width="12.6" height="3.2"/>
			<rect x="548.4" y="600.6" class="st7" width="9.7" height="3.2"/>
			<rect x="548.4" y="613" class="st7" width="9.7" height="3.2"/>
			<rect x="548.4" y="625.4" class="st7" width="9.7" height="3.2"/>
			<rect x="548.4" y="637.8" class="st5" width="8.8" height="3.2"/>
			<rect x="548.4" y="650.2" class="st7" width="8.8" height="3.2"/>
			<rect x="548.4" y="662.6" class="st5" width="8.8" height="3.2"/>
			<g>
				<rect x="548.4" y="362.1" class="st1" width="107.7" height="8.9"/>
				<text transform="matrix(1 0 0 1 548.4282 367.23)" class="st2 st3 st4">marijuana legalization 2016</text>
				<rect x="548.4" y="374.5" class="st1" width="116.1" height="8.9"/>
				<text transform="matrix(1 0 0 1 548.4282 379.646)" class="st2 st3 st4">recreational marijuana states</text>
				<rect x="548.4" y="386.9" class="st1" width="116.1" height="8.9"/>
				<text transform="matrix(1 0 0 1 548.4282 392.0625)" class="st2 st3 st4">marijuana vape pen</text>
				<rect x="548.4" y="399.3" class="st1" width="116.1" height="8.9"/>
				<text transform="matrix(1 0 0 1 548.4282 404.4785)" class="st2 st3 st4">marijuana memes</text>
				<rect x="548.4" y="411.7" class="st1" width="116.1" height="8.9"/>
				<text transform="matrix(1 0 0 1 548.4282 416.8955)" class="st2 st3 st4">bitches and marijuana</text>
				<rect x="548.4" y="424.1" class="st1" width="116.1" height="8.9"/>
				<text transform="matrix(1 0 0 1 548.4282 429.3115)" class="st2 st3 st4">recreational marijuana</text>
				<rect x="548.4" y="436.6" class="st1" width="107.7" height="8.9"/>
				<text transform="matrix(1 0 0 1 548.4282 441.7275)" class="st2 st3 st4">recreational</text>
				<rect x="548.4" y="449" class="st1" width="116.1" height="8.9"/>
				<text transform="matrix(1 0 0 1 548.4282 454.1436)" class="st2 st3 st4">marijuana stocks</text>
				<rect x="548.4" y="461.4" class="st1" width="116.1" height="8.9"/>
				<text transform="matrix(1 0 0 1 548.4282 466.5596)" class="st2 st3 st4">donald trump marijuana</text>
				<rect x="548.4" y="473.8" class="st1" width="116.1" height="8.9"/>
				<text transform="matrix(1 0 0 1 548.4282 478.9756)" class="st2 st3 st4">leafly</text>
				<rect x="548.4" y="486.2" class="st1" width="116.1" height="8.9"/>
				<text transform="matrix(1 0 0 1 548.4282 491.3926)" class="st2 st3 st4">medical marijuana.com arizona</text>
				<rect x="548.4" y="498.6" class="st1" width="125.2" height="8.9"/>
				<text transform="matrix(1 0 0 1 548.4282 503.8086)" class="st2 st3 st4">colorado marijuana legalization</text>
				<rect x="548.4" y="511.1" class="st1" width="107.7" height="8.9"/>
				<text transform="matrix(1 0 0 1 548.4282 516.2246)" class="st2 st3 st4">main street marijuana</text>
				<rect x="548.4" y="523.5" class="st1" width="116.1" height="8.9"/>
				<text transform="matrix(1 0 0 1 548.4282 528.6406)" class="st2 st3 st4">marijuana wax</text>
				<rect x="548.4" y="535.9" class="st1" width="116.1" height="8.9"/>
				<text transform="matrix(1 0 0 1 548.4282 541.0566)" class="st2 st3 st4">marijuana vape</text>
				<rect x="548.4" y="548.3" class="st1" width="116.1" height="8.9"/>
				<text transform="matrix(1 0 0 1 548.4282 553.4727)" class="st2 st3 st4">hillary clinton marijuana</text>
				<rect x="548.4" y="573.1" class="st1" width="116.1" height="8.9"/>
				<text transform="matrix(1 0 0 1 548.4282 578.3057)" class="st2 st3 st4">ohio marijuana legalization</text>
				<rect x="548.4" y="560.7" class="st1" width="116.1" height="8.9"/>
				<text transform="matrix(1 0 0 1 548.4282 565.8887)" class="st2 st3 st4">medical marijuana stocks</text>
				<rect x="548.4" y="585.6" class="st1" width="116.1" height="8.9"/>
				<text transform="matrix(1 0 0 1 548.4282 590.7217)" class="st2 st3 st4">marijuana stock</text>
				<rect x="548.4" y="598" class="st1" width="107.7" height="8.9"/>
				<text transform="matrix(1 0 0 1 548.4282 603.1377)" class="st2 st3 st4">marijuana colorado</text>
				<rect x="548.4" y="610.4" class="st1" width="116.1" height="8.9"/>
				<text transform="matrix(1 0 0 1 548.4282 615.5537)" class="st2 st3 st4">texas marijuana legalization</text>
				<rect x="548.4" y="622.8" class="st1" width="132.3" height="8.9"/>
				<text transform="matrix(1 0 0 1 548.4282 627.9697)" class="st2 st3 st4">massachussetts medical marijuana</text>
				<rect x="548.4" y="635.2" class="st1" width="116.1" height="8.9"/>
				<text transform="matrix(1 0 0 1 548.4282 640.3857)" class="st2 st3 st4">marijuana packaging</text>
				<rect x="548.4" y="647.6" class="st1" width="116.1" height="8.9"/>
				<text transform="matrix(1 0 0 1 548.4282 652.8027)" class="st2 st3 st4">medical marijuana florida</text>
				<rect x="548.4" y="660" class="st1" width="116.1" height="8.9"/>
				<text transform="matrix(1 0 0 1 548.4282 665.2188)" class="st2 st3 st4">marijuana tumblr</text>
			</g>
		</g>
	</g>
	<g>
		<rect x="364.9" y="343.9" class="st1" width="131.5" height="8.9"/>
		<text transform="matrix(1 0 0 1 364.9282 349.0669)" class="st2 st3 st4">LEGALIZATION: 20/12/11 - 20/12/16</text>
		<rect x="364.9" y="365" class="st5" width="111.9" height="3.2"/>
		<rect x="364.9" y="377.4" class="st7" width="111.9" height="3.2"/>
		<rect x="364.9" y="389.8" class="st7" width="111.9" height="3.2"/>
		<rect x="364.9" y="402.2" class="st5" width="111.9" height="3.2"/>
		<rect x="364.9" y="414.6" class="st7" width="111.9" height="3.2"/>
		<rect x="364.9" y="427" class="st5" width="111.9" height="3.2"/>
		<rect x="364.9" y="439.4" class="st7" width="111.9" height="3.2"/>
		<rect x="364.9" y="451.8" class="st5" width="111.9" height="3.2"/>
		<rect x="364.9" y="464.2" class="st7" width="111.9" height="3.2"/>
		<rect x="364.9" y="476.6" class="st5" width="111.9" height="3.2"/>
		<rect x="364.9" y="489" class="st7" width="111.9" height="3.2"/>
		<rect x="364.9" y="501.3" class="st7" width="111.9" height="3.2"/>
		<rect x="364.9" y="513.7" class="st5" width="111.9" height="3.2"/>
		<rect x="364.9" y="526.1" class="st7" width="111.9" height="3.2"/>
		<rect x="364.9" y="538.5" class="st5" width="111.9" height="3.2"/>
		<rect x="364.9" y="550.9" class="st7" width="111.9" height="3.2"/>
		<rect x="364.9" y="563.3" class="st7" width="111.9" height="3.2"/>
		<rect x="364.9" y="575.7" class="st7" width="53.5" height="3.2"/>
		<rect x="364.9" y="588.1" class="st7" width="39.9" height="3.2"/>
		<rect x="364.9" y="600.5" class="st5" width="37.9" height="3.2"/>
		<rect x="364.9" y="612.9" class="st7" width="36" height="3.2"/>
		<rect x="364.9" y="625.3" class="st7" width="28.2" height="3.2"/>
		<rect x="364.9" y="637.7" class="st5" width="27.2" height="3.2"/>
		<rect x="364.9" y="650.1" class="st7" width="27.2" height="3.2"/>
		<rect x="364.9" y="662.5" class="st7" width="27.2" height="3.2"/>
		<rect x="364.9" y="362.1" class="st1" width="107.7" height="8.9"/>
		<text transform="matrix(1 0 0 1 364.9282 367.23)" class="st2 st3 st4">weed legalization 2016</text>
		<rect x="364.9" y="374.5" class="st1" width="116.1" height="8.9"/>
		<text transform="matrix(1 0 0 1 364.9282 379.6294)" class="st2 st3 st4">colorado since legalization</text>
		<rect x="364.9" y="386.9" class="st1" width="116.1" height="8.9"/>
		<text transform="matrix(1 0 0 1 364.9282 392.0312)" class="st2 st3 st4">bernie sanders</text>
		<rect x="364.9" y="399.3" class="st1" width="116.1" height="8.9"/>
		<text transform="matrix(1 0 0 1 364.9282 404.4316)" class="st2 st3 st4">pot legalization 2016</text>
		<rect x="364.9" y="411.7" class="st1" width="116.1" height="8.9"/>
		<text transform="matrix(1 0 0 1 364.9282 416.8311)" class="st2 st3 st4">florida legalization 2016</text>
		<rect x="364.9" y="424.1" class="st1" width="116.1" height="8.9"/>
		<text transform="matrix(1 0 0 1 364.9282 429.2314)" class="st2 st3 st4">marijuana legalization 2016</text>
		<rect x="364.9" y="436.5" class="st1" width="107.7" height="8.9"/>
		<text transform="matrix(1 0 0 1 364.9282 441.6309)" class="st2 st3 st4">amendment 64</text>
		<rect x="364.9" y="448.9" class="st1" width="116.1" height="8.9"/>
		<text transform="matrix(1 0 0 1 364.9282 454.0312)" class="st2 st3 st4">2016 marijuana legalization</text>
		<rect x="364.9" y="461.3" class="st1" width="132.8" height="8.9"/>
		<text transform="matrix(1 0 0 1 364.9282 466.4307)" class="st2 st3 st4">colorado marajuana legalization</text>
		<rect x="364.9" y="473.7" class="st1" width="116.1" height="8.9"/>
		<text transform="matrix(1 0 0 1 364.9282 478.8311)" class="st2 st3 st4">justin trudeau</text>
		<rect x="364.9" y="486.1" class="st1" width="116.1" height="8.9"/>
		<text transform="matrix(1 0 0 1 364.9282 491.2305)" class="st2 st3 st4">colorado amendment 64</text>
		<rect x="364.9" y="498.5" class="st1" width="125.2" height="8.9"/>
		<text transform="matrix(1 0 0 1 364.9282 503.6309)" class="st2 st3 st4">maine legalization 2016</text>
		<rect x="364.9" y="510.9" class="st1" width="107.7" height="8.9"/>
		<text transform="matrix(1 0 0 1 364.9282 516.0303)" class="st2 st3 st4">marijuana legalization 2015</text>
		<rect x="364.9" y="523.3" class="st1" width="116.1" height="8.9"/>
		<text transform="matrix(1 0 0 1 364.9282 528.4307)" class="st2 st3 st4">colorado after legalization</text>
		<rect x="364.9" y="535.7" class="st1" width="116.1" height="8.9"/>
		<text transform="matrix(1 0 0 1 364.9282 540.8301)" class="st2 st3 st4">marijuana legalization 2014</text>
		<rect x="364.9" y="548.1" class="st1" width="116.1" height="8.9"/>
		<text transform="matrix(1 0 0 1 364.9282 553.2305)" class="st2 st3 st4">nevada pot legalization</text>
		<rect x="364.9" y="572.9" class="st1" width="116.1" height="8.9"/>
		<text transform="matrix(1 0 0 1 364.9282 578.0303)" class="st2 st3 st4">donal trump</text>
		<rect x="364.9" y="560.5" class="st1" width="116.1" height="8.9"/>
		<text transform="matrix(1 0 0 1 364.9282 565.6299)" class="st2 st3 st4">maine pot legalization</text>
		<rect x="364.9" y="585.3" class="st1" width="116.1" height="8.9"/>
		<text transform="matrix(1 0 0 1 364.9282 590.4297)" class="st2 st3 st4">colorado weed legalization</text>
		<rect x="364.9" y="597.7" class="st1" width="107.7" height="8.9"/>
		<text transform="matrix(1 0 0 1 364.9282 602.8301)" class="st2 st3 st4">bibme</text>
		<rect x="364.9" y="610.1" class="st1" width="116.1" height="8.9"/>
		<text transform="matrix(1 0 0 1 364.9282 615.2314)" class="st2 st3 st4">colorado pot legalization</text>
		<rect x="364.9" y="622.5" class="st1" width="132.3" height="8.9"/>
		<text transform="matrix(1 0 0 1 364.9282 627.6309)" class="st2 st3 st4">colorado legalization</text>
		<rect x="364.9" y="634.9" class="st1" width="116.1" height="8.9"/>
		<text transform="matrix(1 0 0 1 364.9282 640.0312)" class="st2 st3 st4">trudeau legalization</text>
		<rect x="364.9" y="647.3" class="st1" width="116.1" height="8.9"/>
		<text transform="matrix(1 0 0 1 364.9282 652.4307)" class="st2 st3 st4">oregon weed legalization</text>
		<rect x="364.9" y="659.7" class="st1" width="116.1" height="8.9"/>
		<text transform="matrix(1 0 0 1 364.9282 664.8311)" class="st2 st3 st4">colorado</text>
		<rect x="362" y="360" class="st8" width="21" height="11"/>
		<rect x="398" y="583" class="st8" width="20" height="11"/>
		<rect x="390" y="645" class="st8" width="20" height="11"/>
		<rect x="362" y="397" class="st8" width="17" height="11"/>
		<rect x="398" y="609" class="st8" width="16" height="10"/>
		<rect x="386" y="559" class="st8" width="16" height="10"/>
		<rect x="390" y="547" class="st8" width="16" height="10"/>
		<rect x="362" y="422" class="st8" width="40" height="11"/>
		<rect x="382" y="447" class="st8" width="40" height="11"/>
		<rect x="398" y="460" class="st8" width="40" height="10"/>
		<rect x="362" y="510" class="st8" width="40" height="10"/>
		<rect x="362" y="534" class="st8" width="40" height="10"/>
	</g>
	<g>
		<rect x="734.9" y="343.9" class="st1" width="169.1" height="8.9"/>
		<text transform="matrix(1 0 0 1 734.8564 349.0669)" class="st2 st3 st4">MARIJUANA LEGALIZATION: 20/12/11 - 20/12/16</text>
		<rect x="734.9" y="365" class="st5" width="111.9" height="3.2"/>
		<rect x="734.9" y="377.4" class="st5" width="111.9" height="3.2"/>
		<rect x="734.9" y="389.8" class="st7" width="111.9" height="3.2"/>
		<rect x="734.9" y="402.2" class="st7" width="111.9" height="3.2"/>
		<rect x="734.9" y="414.6" class="st7" width="111.9" height="3.2"/>
		<rect x="734.9" y="427" class="st7" width="111.9" height="3.2"/>
		<rect x="734.9" y="439.4" class="st5" width="111.9" height="3.2"/>
		<rect x="734.9" y="451.8" class="st5" width="111.9" height="3.2"/>
		<rect x="734.9" y="464.2" class="st5" width="111.9" height="3.2"/>
		<rect x="734.9" y="476.7" class="st5" width="111.9" height="3.2"/>
		<rect x="734.9" y="489.1" class="st5" width="72" height="3.2"/>
		<rect x="734.9" y="501.5" class="st7" width="62.3" height="3.2"/>
		<rect x="734.9" y="513.9" class="st5" width="56.4" height="3.2"/>
		<rect x="734.9" y="526.3" class="st7" width="32.1" height="3.2"/>
		<rect x="734.9" y="538.7" class="st7" width="23.4" height="3.2"/>
		<rect x="734.9" y="551.1" class="st7" width="21.4" height="3.2"/>
		<rect x="734.9" y="563.5" class="st7" width="20.4" height="3.2"/>
		<rect x="734.9" y="575.9" class="st5" width="20.4" height="3.2"/>
		<rect x="734.9" y="588.3" class="st7" width="20.4" height="3.2"/>
		<rect x="734.9" y="600.7" class="st7" width="19.5" height="3.2"/>
		<rect x="734.9" y="613.1" class="st7" width="17.5" height="3.2"/>
		<rect x="734.9" y="625.5" class="st5" width="15.6" height="3.2"/>
		<rect x="734.9" y="637.9" class="st5" width="14.6" height="3.2"/>
		<rect x="734.9" y="650.3" class="st5" width="14.6" height="3.2"/>
		<rect x="734.9" y="662.7" class="st7" width="13.6" height="3.2"/>
		<rect x="734.9" y="362.1" class="st1" width="107.7" height="8.9"/>
		<text transform="matrix(1 0 0 1 734.8564 367.23)" class="st2 st3 st4">2016 marijuana legalization</text>
		<rect x="734.9" y="374.5" class="st1" width="116.1" height="8.9"/>
		<text transform="matrix(1 0 0 1 734.8564 379.646)" class="st2 st3 st4">marijuana legalization 2013</text>
		<rect x="734.9" y="386.9" class="st1" width="116.1" height="8.9"/>
		<text transform="matrix(1 0 0 1 734.8564 392.0625)" class="st2 st3 st4">bernie sanders</text>
		<rect x="734.9" y="399.3" class="st1" width="116.1" height="8.9"/>
		<text transform="matrix(1 0 0 1 734.8564 404.4785)" class="st2 st3 st4">amendment 64</text>
		<rect x="734.9" y="411.7" class="st1" width="116.1" height="8.9"/>
		<text transform="matrix(1 0 0 1 734.8564 416.8955)" class="st2 st3 st4">prop 64</text>
		<rect x="734.9" y="424.1" class="st1" width="116.1" height="8.9"/>
		<text transform="matrix(1 0 0 1 734.8564 429.3115)" class="st2 st3 st4">colorado amendment 64</text>
		<rect x="734.9" y="436.6" class="st1" width="107.7" height="8.9"/>
		<text transform="matrix(1 0 0 1 734.8564 441.7275)" class="st2 st3 st4">justin trudeau</text>
		<rect x="734.9" y="449" class="st1" width="116.1" height="8.9"/>
		<text transform="matrix(1 0 0 1 734.8564 454.1436)" class="st2 st3 st4">2014 marijuana legalization</text>
		<rect x="734.9" y="461.4" class="st1" width="132.8" height="8.9"/>
		<text transform="matrix(1 0 0 1 734.8564 466.5596)" class="st2 st3 st4">marijuana legalization 2015</text>
		<rect x="734.9" y="473.8" class="st1" width="116.1" height="8.9"/>
		<text transform="matrix(1 0 0 1 734.8564 478.9756)" class="st2 st3 st4">presidential polls</text>
		<rect x="734.9" y="486.2" class="st1" width="116.1" height="8.9"/>
		<text transform="matrix(1 0 0 1 734.8564 491.3926)" class="st2 st3 st4">marijuanareviews</text>
		<rect x="734.9" y="498.6" class="st1" width="125.2" height="8.9"/>
		<text transform="matrix(1 0 0 1 734.8564 503.8086)" class="st2 st3 st4">trump</text>
		<rect x="734.9" y="511.1" class="st1" width="127" height="8.9"/>
		<text transform="matrix(1 0 0 1 734.8564 516.2246)" class="st2 st3 st4">uruguay marihuana legalizacion </text>
		<rect x="734.9" y="523.5" class="st1" width="116.1" height="8.9"/>
		<text transform="matrix(1 0 0 1 734.8564 528.6406)" class="st2 st3 st4">donald trump</text>
		<rect x="734.9" y="535.9" class="st1" width="125" height="8.9"/>
		<text transform="matrix(1 0 0 1 734.8564 541.0566)" class="st2 st3 st4">marijuana legalization colorado</text>
		<rect x="734.9" y="548.3" class="st1" width="116.1" height="8.9"/>
		<text transform="matrix(1 0 0 1 734.8564 553.4727)" class="st2 st3 st4">colorado</text>
		<rect x="734.9" y="573.1" class="st1" width="119.2" height="8.9"/>
		<text transform="matrix(1 0 0 1 734.8564 578.3057)" class="st2 st3 st4">uruguay marijuana legalization</text>
		<rect x="734.9" y="560.7" class="st1" width="116.1" height="8.9"/>
		<text transform="matrix(1 0 0 1 734.8564 565.8887)" class="st2 st3 st4">marijuana in colorado</text>
		<rect x="734.9" y="585.6" class="st1" width="116.1" height="8.9"/>
		<text transform="matrix(1 0 0 1 734.8564 590.7217)" class="st2 st3 st4">colorado legalization</text>
		<rect x="734.9" y="598" class="st1" width="107.7" height="8.9"/>
		<text transform="matrix(1 0 0 1 734.8564 603.1377)" class="st2 st3 st4">colorado marijuana</text>
		<rect x="734.9" y="610.4" class="st1" width="116.1" height="8.9"/>
		<text transform="matrix(1 0 0 1 734.8564 615.5537)" class="st2 st3 st4">maine marijuana legalization</text>
		<rect x="734.9" y="622.8" class="st1" width="132.3" height="8.9"/>
		<text transform="matrix(1 0 0 1 734.8564 627.9697)" class="st2 st3 st4">presidential election</text>
		<rect x="734.9" y="635.2" class="st1" width="116.1" height="8.9"/>
		<text transform="matrix(1 0 0 1 734.8564 640.3857)" class="st2 st3 st4">recreational marijuana</text>
		<rect x="734.9" y="647.6" class="st1" width="116.1" height="8.9"/>
		<text transform="matrix(1 0 0 1 734.8564 652.8027)" class="st2 st3 st4">marijuana stocks</text>
		<rect x="734.9" y="660" class="st1" width="116.1" height="8.9"/>
		<text transform="matrix(1 0 0 1 734.8564 665.2188)" class="st2 st3 st4">marijuana legalization dc</text>
	</g>
	<rect x="362" y="320.9" class="st1" width="182.8" height="8.9"/>
	<text transform="matrix(1 0 0 1 362.0005 326.0894)" class="st2 st9 st4">Correlated queries on google trends</text>
</g>
</svg>
