<?xml version="1.0" encoding="utf-8"?>
<!-- Generator: Adobe Illustrator 21.0.0, SVG Export Plug-In . SVG Version: 6.00 Build 0)  -->
<svg version="1.1" id="Layer_1" xmlns="http://www.w3.org/2000/svg" xmlns:xlink="http://www.w3.org/1999/xlink" x="0px" y="0px"
	 viewBox="0 0 1387.4 911.1" style="enable-background:new 0 0 1387.4 911.1;" xml:space="preserve">
<style type="text/css">
	.st0{fill:#141414;}
	.st1{font-family:'Lekton-Bold';}
	.st2{font-size:21.7937px;}
	.st3{fill:none;stroke:#141414;stroke-width:4;stroke-miterlimit:10;}
	.st4{fill:#D4D4D4;}
	.st5{fill:none;}
	.st6{font-family:'Lekton-Regular';}
	.st7{fill:none;stroke:#C1C1C1;stroke-width:1.5;stroke-miterlimit:10;}
	.st8{fill:none;stroke:#FDBD2C;stroke-width:0.35;stroke-miterlimit:10;}
	.st9{fill:#FDBD2C;}
	.st10{font-size:22.0583px;}
</style>
<text transform="matrix(1 0 0 1 1.5981 36.064)" class="st0 st1 st2">Correlated queries on google trends</text>
<line class="st3" x1="4.5" y1="59.8" x2="381.5" y2="59.8"/>
<rect x="9.6" y="248.1" class="st4" width="313.4" height="9"/>
<rect x="9.6" y="283.6" class="st4" width="313.4" height="9"/>
<rect x="9.6" y="358.2" class="st4" width="313.4" height="9"/>
<rect x="9.6" y="432.7" class="st4" width="313.4" height="9"/>
<rect x="9.6" y="545.7" class="st4" width="313.4" height="9"/>
<rect x="9.6" y="581.2" class="st4" width="313.4" height="9"/>
<rect x="9.6" y="616.5" class="st4" width="313.4" height="9"/>
<rect x="9.6" y="690.9" class="st4" width="313.4" height="9"/>
<rect x="9.6" y="843.3" class="st4" width="149.8" height="9"/>
<rect x="9.6" y="882" class="st4" width="111.5" height="9"/>
<rect x="9.6" y="322.4" class="st4" width="313.4" height="9"/>
<rect x="9.6" y="807.5" class="st4" width="313.4" height="9"/>
<rect x="9.6" y="768.9" class="st4" width="313.4" height="9"/>
<rect x="9.6" y="397.2" class="st4" width="313.4" height="9"/>
<rect x="9.6" y="471.4" class="st4" width="313.4" height="9"/>
<rect x="9.6" y="510.4" class="st4" width="313.4" height="9"/>
<rect x="9.6" y="655.3" class="st4" width="313.4" height="9"/>
<rect x="9.6" y="729.8" class="st4" width="313.4" height="9"/>
<rect x="523.5" y="132.1" class="st5" width="344.7" height="25"/>
<text transform="matrix(1 0 0 1 523.5468 150.1069)" class="st0 st6 st2">MARIJUANA: 20/12/11 - 20/12/16</text>
<g>
	<rect x="523.5" y="284.8" class="st4" width="250.6" height="9"/>
	<text transform="matrix(1 0 0 1 523.5468 291.6313)" class="st0 st6 st2">marijuana vape pen</text>
</g>
<g>
	<rect x="523.5" y="322.3" class="st4" width="179.9" height="9"/>
	<text transform="matrix(1 0 0 1 523.5468 328.8345)" class="st0 st6 st2">marijuana memes</text>
</g>
<g>
	<rect x="523.5" y="470.8" class="st4" width="108.9" height="9"/>
	<text transform="matrix(1 0 0 1 523.5468 477.6465)" class="st0 st6 st2">marijuana stocks</text>
</g>
<g>
	<rect x="523.5" y="508" class="st4" width="108.9" height="9"/>
	<text transform="matrix(1 0 0 1 523.5468 514.8477)" class="st0 st6 st2">donald trump marijuana</text>
</g>
<g>
	<rect x="523.5" y="545" class="st4" width="95.5" height="9"/>
	<text transform="matrix(1 0 0 1 523.5468 552.0508)" class="st0 st6 st2">leafly</text>
</g>
<g>
	<rect x="523.5" y="582.3" class="st4" width="87.1" height="9"/>
	<text transform="matrix(1 0 0 1 523.5468 589.2539)" class="st0 st6 st2">medical marijuana.com arizona</text>
</g>
<rect x="523.5" y="656.8" class="st4" width="79.1" height="9"/>
<g>
	<text transform="matrix(1 0 0 1 523.5468 663.6582)" class="st0 st6 st2">main street marijuana</text>
</g>
<g>
	<rect x="523.5" y="693.8" class="st4" width="68" height="9"/>
	<text transform="matrix(1 0 0 1 523.5468 700.8613)" class="st0 st6 st2">marijuana wax</text>
</g>
<g>
	<rect x="523.5" y="731.1" class="st4" width="68" height="9"/>
	<text transform="matrix(1 0 0 1 523.5468 738.0645)" class="st0 st6 st2">marijuana vape</text>
</g>
<g>
	<rect x="523.5" y="768.5" class="st4" width="49.2" height="9"/>
	<text transform="matrix(1 0 0 1 523.5468 775.2656)" class="st0 st6 st2">hillary clinton marijuana</text>
</g>
<rect x="523.5" y="879.8" class="st4" width="35.4" height="9"/>
<text transform="matrix(1 0 0 1 523.5468 886.875)" class="st0 st6 st2">marijuana stock</text>
<rect x="9.6" y="132.1" class="st5" width="367.9" height="25"/>
<text transform="matrix(1 0 0 1 1.5981 150.1069)" class="st0 st6 st2">LEGALIZATION: 20/12/11 - 20/12/16</text>
<text transform="matrix(1 0 0 1 9.7949 254.3501)" class="st0 st6 st2">colorado since legalization</text>
<text transform="matrix(1 0 0 1 9.7949 289.7798)" class="st0 st6 st2">bernie sanders</text>
<text transform="matrix(1 0 0 1 9.7949 364.2485)" class="st0 st6 st2">florida legalization 2016</text>
<text transform="matrix(1 0 0 1 9.7949 438.896)" class="st0 st6 st2">amendment 64</text>
<text transform="matrix(1 0 0 1 9.7949 552.123)" class="st0 st6 st2">justin trudeau</text>
<text transform="matrix(1 0 0 1 9.7949 587.5547)" class="st0 st6 st2">colorado amendment 64</text>
<text transform="matrix(1 0 0 1 9.7949 622.9863)" class="st0 st6 st2">maine legalization 2016</text>
<text transform="matrix(1 0 0 1 9.7949 697.3574)" class="st0 st6 st2">colorado after legalization</text>
<text transform="matrix(1 0 0 1 9.7949 849.6895)" class="st0 st6 st2">donal trump</text>
<rect x="9.6" y="212.7" class="st4" width="313.4" height="9"/>
<rect x="9.6" y="200.7" class="st5" width="239.7" height="23.5"/>
<text transform="matrix(1 0 0 1 9.7949 218.9155)" class="st0 st6 st2">weed legalization 2016</text>
<rect x="1.8" y="197.5" class="st7" width="58.7" height="30.7"/>
<rect x="9.6" y="877" class="st4" width="105.9" height="9"/>
<rect x="9.6" y="870.6" class="st5" width="283.2" height="23.9"/>
<text transform="matrix(1 0 0 1 9.7949 888.6211)" class="st0 st6 st2">colorado weed legalization</text>
<rect x="102.4" y="867.1" class="st7" width="55.9" height="30.7"/>
<rect x="9.6" y="310.9" class="st5" width="228.9" height="23.5"/>
<text transform="matrix(1 0 0 1 9.7949 328.8179)" class="st0 st6 st2">pot legalization 2016</text>
<rect x="1.8" y="307.1" class="st7" width="47.6" height="30.7"/>
<rect x="9.6" y="796.1" class="st5" width="239.7" height="23.9"/>
<text transform="matrix(1 0 0 1 9.7949 814.2559)" class="st0 st6 st2">maine pot legalization</text>
<rect x="68.8" y="792.7" class="st7" width="44.6" height="30.7"/>
<rect x="9.6" y="757.3" class="st5" width="250.7" height="23.5"/>
<text transform="matrix(1 0 0 1 9.7949 775.3184)" class="st0 st6 st2">nevada pot legalization</text>
<rect x="79.9" y="753.7" class="st7" width="44.6" height="30.7"/>
<rect x="9.6" y="385.5" class="st5" width="294.1" height="22.9"/>
<text transform="matrix(1 0 0 1 9.7949 403.4644)" class="st0 st6 st2">marijuana legalization 2016</text>
<rect x="1.8" y="381.7" class="st7" width="112.1" height="30.7"/>
<rect x="9.6" y="459.8" class="st5" width="294.1" height="24"/>
<text transform="matrix(1 0 0 1 9.7949 477.748)" class="st0 st6 st2">2016 marijuana legalization</text>
<rect x="57.5" y="456.3" class="st7" width="112.1" height="30.7"/>
<rect x="9.6" y="502.4" class="st5" width="372" height="25"/>
<rect x="9.6" y="498.5" class="st5" width="337.8" height="23.5"/>
<text transform="matrix(1 0 0 1 9.7949 516.6895)" class="st0 st6 st2">colorado marajuana legalization</text>
<rect x="102.4" y="495" class="st7" width="112.1" height="30.7"/>
<rect x="9.6" y="643.8" class="st5" width="294.1" height="23.5"/>
<text transform="matrix(1 0 0 1 9.7949 661.9258)" class="st0 st6 st2">marijuana legalization 2015</text>
<rect x="1.8" y="640.5" class="st7" width="112.1" height="30.7"/>
<rect x="9.6" y="718.1" class="st5" width="294.1" height="23.5"/>
<text transform="matrix(1 0 0 1 9.7949 736.291)" class="st0 st6 st2">marijuana legalization 2014</text>
<rect x="1.8" y="714.9" class="st7" width="112.1" height="30.7"/>
<g>
	<rect x="523.5" y="210.6" class="st4" width="313.4" height="9"/>
	<text transform="matrix(1 0 0 1 523.5468 217.2271)" class="st0 st6 st2">marijuana legalization 2016</text>
	<line class="st7" x1="633.9" y1="225" x2="762.5" y2="225"/>
</g>
<g>
	<g>
		<rect x="523.5" y="247.9" class="st4" width="308.1" height="9"/>
		<text transform="matrix(1 0 0 1 523.5468 254.4282)" class="st0 st6 st2">recreational marijuana states</text>
	</g>
	<line class="st7" x1="523.6" y1="264.9" x2="652.2" y2="264.9"/>
</g>
<g>
	<rect x="523.5" y="396.5" class="st4" width="117.1" height="9"/>
	<text transform="matrix(1 0 0 1 523.5468 403.2397)" class="st0 st6 st2">recreational marijuana</text>
	<line class="st7" x1="523.6" y1="413.4" x2="652.2" y2="413.4"/>
</g>
<g>
	<rect x="523.5" y="433.5" class="st4" width="111.5" height="9"/>
	<text transform="matrix(1 0 0 1 523.5468 440.4419)" class="st0 st6 st2">recreational</text>
	<line class="st7" x1="523.6" y1="451.6" x2="652.2" y2="451.6"/>
</g>
<g>
	<rect x="523.5" y="619.8" class="st4" width="81.7" height="9"/>
	<text transform="matrix(1 0 0 1 523.5468 626.4551)" class="st0 st6 st2">colorado marijuana legalization</text>
	<line class="st7" x1="732.8" y1="636.5" x2="861.2" y2="636.5"/>
</g>
<g>
	<rect x="523.5" y="842.7" class="st4" width="41" height="9"/>
	<text transform="matrix(1 0 0 1 523.5468 849.6719)" class="st0 st6 st2">ohio marijuana legalization</text>
	<line class="st7" x1="689.3" y1="859.3" x2="817.9" y2="859.3"/>
</g>
<g>
	<rect x="523.5" y="805.5" class="st4" width="41" height="9"/>
	<text transform="matrix(1 0 0 1 523.5468 812.4707)" class="st0 st6 st2">medical marijuana stocks</text>
	<line class="st7" x1="523.5" y1="822.3" x2="597.3" y2="822.3"/>
</g>
<g>
	<line class="st8" x1="909.2" y1="367.9" x2="684.9" y2="367.9"/>
	<rect x="523.5" y="363.4" class="st9" width="163.6" height="9"/>
	<text transform="matrix(0.988 0 0 1 523.5468 369.7905)" class="st0 st6 st10">bitches and marijuana</text>
	<g>
		<rect x="929.7" y="360.1" class="st5" width="195.1" height="19.3"/>
		<text transform="matrix(1 0 0 1 929.7021 374.5845)" class="st0 st6 st2">SONG TITLE</text>
	</g>
	<circle class="st9" cx="910.8" cy="367.6" r="3.4"/>
</g>
</svg>
