<?xml version="1.0" encoding="utf-8"?>
<!-- Generator: Adobe Illustrator 21.0.0, SVG Export Plug-In . SVG Version: 6.00 Build 0)  -->
<svg version="1.1" id="Livello_1" xmlns="http://www.w3.org/2000/svg" xmlns:xlink="http://www.w3.org/1999/xlink" x="0px" y="0px"
	 viewBox="0 0 900 702.7" style="enable-background:new 0 0 900 702.7;" xml:space="preserve">
<style type="text/css">
	.st0{fill:none;stroke:#141414;stroke-width:0.4;stroke-miterlimit:10;}
	.st1{fill:#141414;}
	.st2{font-family:'Lekton-Regular';}
	.st3{font-size:13.3115px;}
	.st4{font-family:'Lekton-Italic';}
	.st5{fill:#C6006B;}
	.st6{font-family:'Lekton-Bold';}
	.st7{fill:none;stroke:#000000;stroke-width:0.4;stroke-miterlimit:10;stroke-dasharray:4;}
	.st8{fill:#FFFFFF;}
</style>
<polygon class="st0" points="238.8,67.8 159.9,67.8 80.9,67.8 80.9,23.4 238.8,23.4 "/>
<text transform="matrix(1 0 0 1 99.9644 42.3656)" class="st1 st2 st3">QUERIES DEFINITION</text>
<text transform="matrix(1 0 0 1 96.6362 114.0185)" class="st1 st2 st3">“drug legalization”</text>
<text transform="matrix(1 0 0 1 521.3174 110.6933)" class="st1 st2 st3">- “drug prohibition”</text>
<text transform="matrix(1 0 0 1 521.3174 126.6669)" class="st1 st2 st3">- “drug legalization”</text>
<text transform="matrix(1 0 0 1 521.3174 142.6405)" class="st1 st2 st3">- “drug decriminalization”</text>
<text transform="matrix(1 0 0 1 521.3174 158.6132)" class="st1 st2 st3">- “drug liberalization”</text>
<text transform="matrix(1 0 0 1 91.312 166.4999)" class="st1 st4 st3">- drug liberalization</text>
<text transform="matrix(1 0 0 1 91.312 182.4735)" class="st1 st4 st3">- drug prohibition</text>
<text transform="matrix(1 0 0 1 258.4521 159.6288)" class="st1 st2 st3">drug legalization</text>
<text transform="matrix(1 0 0 1 258.4521 175.6034)" class="st1 st2 st3">drug decriminalization</text>
<text transform="matrix(1 0 0 1 129.9155 59.3661)" class="st5 st6 st3">Wikipedia</text>
<polygon class="st0" points="238.8,267.1 159.9,267.1 80.9,267.1 80.9,222.8 238.8,222.8 "/>
<text transform="matrix(1 0 0 1 116.6035 241.6982)" class="st1 st2 st3">TOPIC NETWORK</text>
<text transform="matrix(1 0 0 1 123.2593 258.6991)" class="st5 st6 st3">Seealsology</text>
<text transform="matrix(1 0 0 1 255.7344 258.6991)" class="st5 st6 st3">» distance: 2</text>
<text transform="matrix(1 0 0 1 685.7402 59.2582)" class="st5 st6 st3">» language: English</text>
<text transform="matrix(1 0 0 1 255.7344 306.4843)" class="st5 st6 st3">» Gephi</text>
<text transform="matrix(1 0 0 1 255.7344 322.4589)" class="st5 st6 st3">» Illustrator</text>
<line class="st0" x1="159.9" y1="67.8" x2="159.9" y2="95.4"/>
<polygon class="st0" points="668.8,67.7 589.8,67.7 511,67.7 511,23.4 668.8,23.4 "/>
<text transform="matrix(1 0 0 1 529.9717 42.2582)" class="st1 st2 st3">QUERIES DEFINITION</text>
<text transform="matrix(1 0 0 1 546.6094 59.2582)" class="st5 st6 st3">Google.trends</text>
<line class="st0" x1="589.8" y1="67.7" x2="589.8" y2="95.3"/>
<line class="st0" x1="589.8" y1="297.1" x2="589.8" y2="324.7"/>
<line class="st7" x1="589.8" y1="405.3" x2="589.8" y2="432.8"/>
<line class="st7" x1="160" y1="191.8" x2="160" y2="223"/>
<line class="st7" x1="160" y1="122.9" x2="160" y2="154.4"/>
<text transform="matrix(1 0 0 1 526.7666 210.3798)" class="st1 st4 st3">drug legalization</text>
<line class="st7" x1="590" y1="166.9" x2="590" y2="198.2"/>
<text transform="matrix(1 0 0 1 543.2217 340.0985)" class="st1 st2 st3">“legalization”</text>
<line class="st0" x1="589.8" y1="600.4" x2="589.8" y2="628.1"/>
<text transform="matrix(1 0 0 1 553.2041 643.4725)" class="st1 st2 st3">“marijuana”</text>
<text transform="matrix(1 0 0 1 543.2217 519.0165)" class="st1 st2 st3">“legalization”</text>
<text transform="matrix(1 0 0 1 685.7402 288.663)" class="st5 st6 st3">» language: English</text>
<text transform="matrix(1 0 0 1 685.7402 592.0419)" class="st5 st6 st3">» language: English</text>
<polygon class="st0" points="668.8,297.1 589.8,297.1 511,297.1 511,252.7 668.8,252.7 "/>
<text transform="matrix(1 0 0 1 529.9717 271.664)" class="st1 st2 st3">CORRELATED QUERIES</text>
<text transform="matrix(1 0 0 1 546.6094 288.663)" class="st5 st6 st3">Google.trends</text>
<polygon class="st0" points="668.8,600.4 589.8,600.4 511,600.4 511,556.1 668.8,556.1 "/>
<text transform="matrix(1 0 0 1 529.9717 575.0409)" class="st1 st2 st3">CORRELATED QUERIES</text>
<text transform="matrix(1 0 0 1 546.6094 592.0419)" class="st5 st6 st3">Google.trends</text>
<line class="st0" x1="589.8" y1="476.6" x2="589.8" y2="504.2"/>
<line class="st7" x1="589.8" y1="528.1" x2="589.8" y2="555.7"/>
<text transform="matrix(1 0 0 1 526.6436 451.1444)" class="st1 st2 st3">synonyms definition</text>
<text transform="matrix(1 0 0 1 559.9219 468.1454)" class="st5 st6 st3">Thesaurus</text>
<text transform="matrix(1 0 0 1 530.5078 395.5116)" class="st1 st4 st3">cannabis (synonym)</text>
<line class="st7" x1="590" y1="348" x2="590" y2="379.3"/>
<polygon class="st5" points="238.8,326.1 159.9,326.1 80.9,326.1 80.9,295.7 238.8,295.7 "/>
<text transform="matrix(1 0 0 1 116.6035 314.6923)" class="st8 st2 st3">VISUALIZATION</text>
<line class="st7" x1="159.9" y1="267.1" x2="159.9" y2="298.4"/>
<line class="st0" x1="238.4" y1="163.3" x2="250.7" y2="163.3"/>
<line class="st0" x1="250.7" y1="154.4" x2="250.7" y2="173.4"/>
</svg>
