<?xml version="1.0" encoding="utf-8"?>
<!-- Generator: Adobe Illustrator 21.0.0, SVG Export Plug-In . SVG Version: 6.00 Build 0)  -->
<svg version="1.1" id="Layer_1" xmlns="http://www.w3.org/2000/svg" xmlns:xlink="http://www.w3.org/1999/xlink" x="0px" y="0px"
	 viewBox="0 0 1390 1046" style="enable-background:new 0 0 1390 1046;" xml:space="preserve">
<style type="text/css">
	.st0{fill:#1D1D1B;}
	.st1{fill:#737370;}
	.st2{fill:#85DDA8;}
	.st3{fill:#7FD3A1;}
	.st4{fill:#FFFFFF;}
	.st5{fill:none;stroke:#000000;stroke-width:2.1235;stroke-miterlimit:10;stroke-dasharray:5.0812;}
</style>
<g>
	<path class="st0" d="M443,194.7h-2.2l-0.4-2.1c-0.3-0.2-0.6-0.3-1.1-0.4s-1-0.2-1.6-0.2c-0.8,0-1.5,0.2-1.9,0.5
		c-0.4,0.3-0.7,0.8-0.7,1.3c0,0.5,0.2,0.9,0.7,1.2c0.5,0.3,1.3,0.7,2.4,1c1.6,0.5,2.9,1.1,3.7,1.8c0.9,0.8,1.3,1.7,1.3,3
		c0,1.3-0.5,2.3-1.5,3c-1,0.7-2.3,1.1-4,1.1c-1.2,0-2.3-0.2-3.2-0.6c-1-0.4-1.7-0.9-2.4-1.6v-3.1h2.3l0.3,2.1
		c0.3,0.2,0.7,0.4,1.2,0.6c0.5,0.2,1.1,0.2,1.7,0.2c0.8,0,1.4-0.2,1.9-0.5c0.4-0.3,0.6-0.8,0.6-1.3c0-0.6-0.2-1-0.6-1.4
		c-0.4-0.3-1.1-0.7-2.1-1c-1.8-0.5-3.1-1.1-4-1.8s-1.4-1.7-1.4-2.9c0-1.2,0.5-2.2,1.5-3c1-0.8,2.3-1.2,3.9-1.2
		c1.1,0,2.2,0.2,3.1,0.5s1.7,0.8,2.4,1.4V194.7z"/>
	<path class="st0" d="M454.1,198.3H449v4.3h4.8l0.1-1.8h2.3v4.1h-11.8V203l1.6-0.3V192l-1.6-0.3v-1.8h1.6h10.2v4.1h-2.3l-0.1-1.8
		H449v3.8h5.1V198.3z"/>
	<path class="st0" d="M471.2,189.9v4h-2.3l-0.1-1.7H466v10.5l1.6,0.3v1.8h-6.2V203l1.6-0.3v-10.5h-2.7l-0.1,1.7h-2.3v-4H471.2z"/>
	<path class="st0" d="M485.5,189.9v4h-2.3l-0.1-1.7h-2.7v10.5l1.6,0.3v1.8h-6.2V203l1.6-0.3v-10.5h-2.7l-0.1,1.7h-2.3v-4H485.5z"/>
	<path class="st0" d="M486.4,191.7v-1.8h6.2v1.8L491,192v10.7l1.6,0.3v1.8h-6.2V203l1.6-0.3V192L486.4,191.7z"/>
	<path class="st0" d="M509,189.9v1.8l-1.6,0.3v12.8h-3l-6-10l-0.1,0v7.9l1.6,0.3v1.8h-6.2V203l1.6-0.3V192l-1.6-0.3v-1.8h1.6h3l6,10
		l0.1,0V192l-1.6-0.3v-1.8h4.6H509z"/>
	<path class="st0" d="M522.4,203.2c-0.5,0.5-1.2,0.9-2.1,1.3c-0.9,0.4-2.1,0.6-3.5,0.6c-2,0-3.7-0.7-4.9-2s-1.9-3.1-1.9-5.3v-0.5
		c0-2.2,0.6-4.1,1.9-5.5c1.2-1.4,2.9-2.1,4.9-2.1c1.2,0,2.2,0.2,3.2,0.6c1,0.4,1.8,0.9,2.4,1.5v3h-2.2l-0.4-2
		c-0.3-0.2-0.6-0.4-1.1-0.6c-0.4-0.1-1-0.2-1.5-0.2c-1.3,0-2.3,0.5-3,1.4s-1.1,2.2-1.1,3.8v0.5c0,1.5,0.4,2.7,1.1,3.6
		c0.7,0.9,1.7,1.4,3.1,1.4c0.6,0,1.1-0.1,1.5-0.2c0.4-0.1,0.7-0.2,0.9-0.4v-2.5l-2.1-0.2v-2.1h5.1V203.2z"/>
	<path class="st0" d="M482.4,215.1v4h-2.3l-0.1-1.7h-2.7v10.5l1.6,0.3v1.8h-6.2v-1.8l1.6-0.3v-10.5h-2.7l-0.1,1.7h-2.3v-4H482.4z"/>
	<path class="st0" d="M483.4,216.9v-1.8h6.2v1.8l-1.6,0.3v10.7l1.6,0.3v1.8h-6.2v-1.8l1.6-0.3v-10.7L483.4,216.9z"/>
	<path class="st0" d="M505.1,219L505.1,219l-4.1,11h-2l-4-11l-0.1,0l0.3,6.6v2.3l1.6,0.3v1.8h-6.2v-1.8l1.6-0.3v-10.7l-1.6-0.3v-1.8
		h1.6h3.9l3.8,11h0.1l3.8-11h5.5v1.8l-1.6,0.3v10.7l1.6,0.3v1.8h-6.2v-1.8l1.6-0.3v-2.3L505.1,219z"/>
	<path class="st0" d="M520.1,223.5H515v4.3h4.8l0.1-1.8h2.3v4.1h-11.8v-1.8l1.6-0.3v-10.7l-1.6-0.3v-1.8h1.6h10.2v4.1h-2.3l-0.1-1.8
		H515v3.8h5.1V223.5z"/>
	<path class="st0" d="M457.5,240.3c1.7,0,3,0.4,4,1.2c1,0.8,1.4,1.8,1.4,3.2c0,0.8-0.2,1.4-0.6,2s-1,1-1.8,1.3
		c0.9,0.3,1.5,0.7,1.9,1.3c0.4,0.6,0.6,1.4,0.6,2.3v0.8c0,0.3,0.1,0.6,0.2,0.8s0.3,0.3,0.6,0.3l0.4,0.1v1.8h-1.5
		c-1,0-1.7-0.3-2.1-0.8s-0.6-1.2-0.6-2v-0.9c0-0.7-0.2-1.3-0.6-1.7c-0.4-0.4-0.9-0.6-1.6-0.7h-2.5v3.9l1.6,0.3v1.8h-6.2v-1.8
		l1.6-0.3v-10.7l-1.6-0.3v-1.8h1.6H457.5z M455.4,246.9h2.1c0.8,0,1.5-0.2,1.9-0.5s0.6-0.9,0.6-1.5s-0.2-1.2-0.6-1.6
		c-0.4-0.4-1-0.6-1.8-0.6h-2.1V246.9z"/>
	<path class="st0" d="M465.1,253.4l1.1-0.2l4.5-13h3.1l4.5,13l1.1,0.2v1.8h-5.1v-1.8l1-0.2l-0.7-2.1h-4.8l-0.7,2.1l1,0.2v1.8h-5.1
		V253.4z M470.5,249h3.4l-1.7-5.3h-0.1L470.5,249z"/>
	<path class="st0" d="M495.6,240.3v1.8l-1.6,0.3v12.8h-3l-6-10l-0.1,0v7.9l1.6,0.3v1.8h-6.2v-1.8l1.6-0.3v-10.7l-1.6-0.3v-1.8h1.6h3
		l6,10l0.1,0v-7.9l-1.6-0.3v-1.8h4.6H495.6z"/>
	<path class="st0" d="M509,253.6c-0.5,0.5-1.2,0.9-2.1,1.3c-0.9,0.4-2.1,0.6-3.5,0.6c-2,0-3.7-0.7-4.9-2s-1.9-3.1-1.9-5.3v-0.5
		c0-2.2,0.6-4.1,1.9-5.5c1.2-1.4,2.9-2.1,4.9-2.1c1.2,0,2.2,0.2,3.2,0.6c1,0.4,1.8,0.9,2.4,1.5v3h-2.2l-0.4-2
		c-0.3-0.2-0.6-0.4-1.1-0.6c-0.4-0.1-1-0.2-1.5-0.2c-1.3,0-2.3,0.5-3,1.4s-1.1,2.2-1.1,3.8v0.5c0,1.5,0.4,2.7,1.1,3.6
		c0.7,0.9,1.7,1.4,3.1,1.4c0.6,0,1.1-0.1,1.5-0.2c0.4-0.1,0.7-0.2,0.9-0.4v-2.5l-2.1-0.2v-2.1h5.1V253.6z"/>
	<path class="st0" d="M520.1,248.7H515v4.3h4.8l0.1-1.8h2.3v4.1h-11.8v-1.8l1.6-0.3v-10.7l-1.6-0.3v-1.8h1.6h10.2v4.1h-2.3l-0.1-1.8
		H515v3.8h5.1V248.7z"/>
</g>
<g>
	<path class="st1" d="M937.2,509.8H465.7v-83.2h471.4V509.8z M468.1,507.4h466.7v-78.4H468.1V507.4z"/>
</g>
<g>
	<path class="st0" d="M576.5,473.3l1.6-0.3v-10.7l-1.6-0.3v-1.8h11.9v4.1h-2.3l-0.1-1.8h-4.9v4.1h5.2v2.3h-5.2v4.1l1.6,0.3v1.8h-6.2
		V473.3z"/>
	<path class="st0" d="M589.5,462v-1.8h6.2v1.8l-1.6,0.3V473l1.6,0.3v1.8h-6.2v-1.8l1.6-0.3v-10.7L589.5,462z"/>
	<path class="st0" d="M612.1,460.2v1.8l-1.6,0.3v12.8h-3l-6-10l-0.1,0v7.9l1.6,0.3v1.8h-6.2v-1.8l1.6-0.3v-10.7l-1.6-0.3v-1.8h1.6h3
		l6,10l0.1,0v-7.9l-1.6-0.3v-1.8h4.6H612.1z"/>
	<path class="st0" d="M619.7,460.2c1.8,0,3.3,0.6,4.5,1.7c1.2,1.2,1.8,2.7,1.8,4.5v2.5c0,1.8-0.6,3.3-1.8,4.5
		c-1.2,1.2-2.7,1.7-4.5,1.7H613v-1.8l1.6-0.3v-10.7L613,462v-1.8h1.6H619.7z M617.6,462.5v10.3h2c1.1,0,1.9-0.4,2.5-1.1
		c0.6-0.7,0.9-1.7,0.9-2.8v-2.5c0-1.2-0.3-2.1-0.9-2.8s-1.4-1.1-2.5-1.1H617.6z"/>
	<path class="st0" d="M627.5,462v-1.8h6.2v1.8l-1.6,0.3V473l1.6,0.3v1.8h-6.2v-1.8l1.6-0.3v-10.7L627.5,462z"/>
	<path class="st0" d="M650.1,460.2v1.8l-1.6,0.3v12.8h-3l-6-10l-0.1,0v7.9l1.6,0.3v1.8h-6.2v-1.8l1.6-0.3v-10.7l-1.6-0.3v-1.8h1.6h3
		l6,10l0.1,0v-7.9l-1.6-0.3v-1.8h4.6H650.1z"/>
	<path class="st0" d="M663.4,473.5c-0.5,0.5-1.2,0.9-2.1,1.3c-0.9,0.4-2.1,0.6-3.5,0.6c-2,0-3.7-0.7-4.9-2c-1.3-1.3-1.9-3.1-1.9-5.3
		v-0.5c0-2.2,0.6-4.1,1.9-5.5c1.2-1.4,2.9-2.1,4.9-2.1c1.2,0,2.2,0.2,3.2,0.6c1,0.4,1.8,0.9,2.4,1.5v3h-2.2l-0.4-2
		c-0.3-0.2-0.6-0.4-1.1-0.6c-0.4-0.1-1-0.2-1.5-0.2c-1.3,0-2.3,0.5-3,1.4s-1.1,2.2-1.1,3.8v0.5c0,1.5,0.4,2.7,1.1,3.6
		c0.7,0.9,1.7,1.4,3.1,1.4c0.6,0,1.1-0.1,1.5-0.2c0.4-0.1,0.7-0.2,0.9-0.4V470l-2.1-0.2v-2.1h5.1V473.5z"/>
	<path class="st0" d="M676.8,460.2c1.7,0,3,0.4,4,1.2c1,0.8,1.4,1.8,1.4,3.2c0,0.8-0.2,1.4-0.6,2s-1,1-1.8,1.3
		c0.9,0.3,1.5,0.7,1.9,1.3c0.4,0.6,0.6,1.4,0.6,2.3v0.8c0,0.3,0.1,0.6,0.2,0.8c0.1,0.2,0.3,0.3,0.6,0.3l0.4,0.1v1.8H682
		c-1,0-1.7-0.3-2.1-0.8s-0.6-1.2-0.6-2v-0.9c0-0.7-0.2-1.3-0.6-1.7c-0.4-0.4-0.9-0.6-1.6-0.7h-2.5v3.9l1.6,0.3v1.8H670v-1.8l1.6-0.3
		v-10.7L670,462v-1.8h1.6H676.8z M674.6,466.8h2.1c0.8,0,1.5-0.2,1.9-0.5s0.6-0.9,0.6-1.5s-0.2-1.2-0.6-1.6c-0.4-0.4-1-0.6-1.8-0.6
		h-2.1V466.8z"/>
	<path class="st0" d="M694.1,468.6h-5.1v4.3h4.8l0.1-1.8h2.3v4.1h-11.8v-1.8l1.6-0.3v-10.7l-1.6-0.3v-1.8h1.6h10.2v4.1H694l-0.1-1.8
		h-4.8v3.8h5.1V468.6z"/>
	<path class="st0" d="M697.9,475.1v-1.8l1.6-0.3v-10.7l-1.6-0.3v-1.8h1.6h3h1.6v1.8l-1.6,0.3v10.5h4.2l0.1-1.9h2.3v4.2H697.9z"/>
	<path class="st0" d="M710,473.3l1.1-0.2l4.5-13h3.1l4.5,13l1.1,0.2v1.8h-5.1v-1.8l1-0.2l-0.7-2.1h-4.8l-0.7,2.1l1,0.2v1.8H710
		V473.3z M715.5,468.9h3.4l-1.7-5.3h-0.1L715.5,468.9z"/>
	<path class="st0" d="M736.9,460.2v4h-2.3l-0.1-1.7h-2.7V473l1.6,0.3v1.8h-6.2v-1.8l1.6-0.3v-10.5H726l-0.1,1.7h-2.3v-4H736.9z"/>
	<path class="st0" d="M737.9,462v-1.8h6.2v1.8l-1.6,0.3V473l1.6,0.3v1.8h-6.2v-1.8l1.6-0.3v-10.7L737.9,462z"/>
	<path class="st0" d="M758.8,467.8c0,2.2-0.6,4-1.9,5.4c-1.3,1.4-2.9,2.1-4.9,2.1c-2,0-3.6-0.7-4.9-2.1c-1.2-1.4-1.9-3.2-1.9-5.4
		v-0.2c0-2.2,0.6-4,1.9-5.4s2.9-2.2,4.9-2.2c2,0,3.7,0.7,4.9,2.2c1.3,1.4,1.9,3.2,1.9,5.4V467.8z M755.8,467.5c0-1.5-0.3-2.8-1-3.8
		s-1.6-1.4-2.9-1.4s-2.2,0.5-2.8,1.4c-0.6,1-0.9,2.2-0.9,3.8v0.2c0,1.6,0.3,2.8,0.9,3.8c0.6,1,1.6,1.4,2.8,1.4
		c1.3,0,2.2-0.5,2.9-1.4c0.6-1,1-2.2,1-3.8V467.5z"/>
	<path class="st0" d="M775.3,460.2v1.8l-1.6,0.3v12.8h-3l-6-10l-0.1,0v7.9l1.6,0.3v1.8H760v-1.8l1.6-0.3v-10.7L760,462v-1.8h1.6h3
		l6,10l0.1,0v-7.9l-1.6-0.3v-1.8h4.6H775.3z"/>
	<path class="st0" d="M787.6,465h-2.2l-0.4-2.1c-0.3-0.2-0.6-0.3-1.1-0.4s-1-0.2-1.6-0.2c-0.8,0-1.5,0.2-1.9,0.5
		c-0.4,0.3-0.7,0.8-0.7,1.3c0,0.5,0.2,0.9,0.7,1.2c0.5,0.3,1.3,0.7,2.4,1c1.6,0.5,2.9,1.1,3.7,1.8c0.9,0.8,1.3,1.7,1.3,3
		c0,1.3-0.5,2.3-1.5,3c-1,0.7-2.3,1.1-4,1.1c-1.2,0-2.3-0.2-3.2-0.6c-1-0.4-1.7-0.9-2.4-1.6v-3.1h2.3l0.3,2.1
		c0.3,0.2,0.7,0.4,1.2,0.6c0.5,0.2,1.1,0.2,1.7,0.2c0.8,0,1.4-0.2,1.9-0.5c0.4-0.3,0.6-0.8,0.6-1.3c0-0.6-0.2-1-0.6-1.4
		c-0.4-0.3-1.1-0.7-2.1-1c-1.8-0.5-3.1-1.1-4-1.8s-1.4-1.7-1.4-2.9c0-1.2,0.5-2.2,1.5-3c1-0.8,2.3-1.2,3.9-1.2
		c1.1,0,2.2,0.2,3.1,0.5s1.7,0.8,2.4,1.4V465z"/>
	<path class="st0" d="M789,462v-1.8h6.2v1.8l-1.6,0.3v4.3h6.1v-4.3l-1.6-0.3v-1.8h1.6h3h1.6v1.8l-1.6,0.3V473l1.6,0.3v1.8h-6.2v-1.8
		l1.6-0.3v-4.1h-6.1v4.1l1.6,0.3v1.8H789v-1.8l1.6-0.3v-10.7L789,462z"/>
	<path class="st0" d="M805.4,462v-1.8h6.2v1.8l-1.6,0.3V473l1.6,0.3v1.8h-6.2v-1.8l1.6-0.3v-10.7L805.4,462z"/>
	<path class="st0" d="M819.8,460.2c1.7,0,3.1,0.4,4,1.3c1,0.9,1.5,2,1.5,3.5c0,1.4-0.5,2.6-1.5,3.4c-1,0.9-2.3,1.3-4,1.3h-2.5v3.3
		l1.6,0.3v1.8h-6.2v-1.8l1.6-0.3v-10.7l-1.6-0.3v-1.8h1.6H819.8z M817.3,467.4h2.5c0.8,0,1.5-0.2,1.9-0.7c0.4-0.5,0.6-1,0.6-1.7
		c0-0.7-0.2-1.3-0.6-1.8c-0.4-0.5-1.1-0.7-1.9-0.7h-2.5V467.4z"/>
	<path class="st0" d="M837.6,465h-2.2l-0.4-2.1c-0.3-0.2-0.6-0.3-1.1-0.4s-1-0.2-1.6-0.2c-0.8,0-1.5,0.2-1.9,0.5
		c-0.4,0.3-0.7,0.8-0.7,1.3c0,0.5,0.2,0.9,0.7,1.2c0.5,0.3,1.3,0.7,2.4,1c1.6,0.5,2.9,1.1,3.7,1.8c0.9,0.8,1.3,1.7,1.3,3
		c0,1.3-0.5,2.3-1.5,3c-1,0.7-2.3,1.1-4,1.1c-1.2,0-2.3-0.2-3.2-0.6c-1-0.4-1.7-0.9-2.4-1.6v-3.1h2.3l0.3,2.1
		c0.3,0.2,0.7,0.4,1.2,0.6c0.5,0.2,1.1,0.2,1.7,0.2c0.8,0,1.4-0.2,1.9-0.5c0.4-0.3,0.6-0.8,0.6-1.3c0-0.6-0.2-1-0.6-1.4
		c-0.4-0.3-1.1-0.7-2.1-1c-1.8-0.5-3.1-1.1-4-1.8s-1.4-1.7-1.4-2.9c0-1.2,0.5-2.2,1.5-3c1-0.8,2.3-1.2,3.9-1.2
		c1.1,0,2.2,0.2,3.1,0.5s1.7,0.8,2.4,1.4V465z"/>
</g>
<g>
	<path class="st0" d="M592.1,831.9v1.8l-1.6,0.3v12.8h-3l-6-10l-0.1,0v7.9l1.6,0.3v1.8h-6.2V845l1.6-0.3V834l-1.6-0.3v-1.8h1.6h3
		l6,10l0.1,0V834l-1.6-0.3v-1.8h4.6H592.1z"/>
	<path class="st0" d="M602.7,840.3h-5.1v4.3h4.8l0.1-1.8h2.3v4.1h-11.8V845l1.6-0.3V834l-1.6-0.3v-1.8h1.6h10.2v4.1h-2.3l-0.1-1.8
		h-4.8v3.8h5.1V840.3z"/>
	<path class="st0" d="M619.8,831.9v4h-2.3l-0.1-1.7h-2.7v10.5l1.6,0.3v1.8h-6.2V845l1.6-0.3v-10.5h-2.7l-0.1,1.7h-2.3v-4H619.8z"/>
	<path class="st0" d="M640.3,833.7l-1.2,0.2l-3,13h-2.8l-2.7-9.9h-0.1l-2.7,9.9H625l-3-13l-1.2-0.2v-1.8h5.5v1.8l-1.4,0.2l1.7,8.2
		l0.1,0l2.8-10.2h2.2l2.8,10.2l0.1,0l1.7-8.2l-1.4-0.2v-1.8h5.5V833.7z"/>
	<path class="st0" d="M654.8,839.5c0,2.2-0.6,4-1.9,5.4c-1.3,1.4-2.9,2.1-4.9,2.1c-2,0-3.6-0.7-4.9-2.1c-1.2-1.4-1.9-3.2-1.9-5.4
		v-0.2c0-2.2,0.6-4,1.9-5.4s2.9-2.2,4.9-2.2c2,0,3.7,0.7,4.9,2.2c1.3,1.4,1.9,3.2,1.9,5.4V839.5z M651.8,839.2c0-1.5-0.3-2.8-1-3.8
		c-0.6-1-1.6-1.4-2.9-1.4s-2.2,0.5-2.8,1.4c-0.6,1-0.9,2.2-0.9,3.8v0.2c0,1.6,0.3,2.8,0.9,3.8c0.6,1,1.6,1.4,2.8,1.4
		c1.3,0,2.2-0.5,2.9-1.4c0.6-1,1-2.2,1-3.8V839.2z"/>
	<path class="st0" d="M662.7,831.9c1.7,0,3,0.4,4,1.2c1,0.8,1.4,1.8,1.4,3.2c0,0.8-0.2,1.4-0.6,2c-0.4,0.6-1,1-1.8,1.3
		c0.9,0.3,1.5,0.7,1.9,1.3c0.4,0.6,0.6,1.4,0.6,2.3v0.8c0,0.3,0.1,0.6,0.2,0.8c0.1,0.2,0.3,0.3,0.6,0.3l0.4,0.1v1.8h-1.5
		c-1,0-1.7-0.3-2.1-0.8s-0.6-1.2-0.6-2v-0.9c0-0.7-0.2-1.3-0.6-1.7c-0.4-0.4-0.9-0.6-1.6-0.7h-2.5v3.9l1.6,0.3v1.8H656V845l1.6-0.3
		V834l-1.6-0.3v-1.8h1.6H662.7z M660.6,838.5h2.1c0.8,0,1.5-0.2,1.9-0.5s0.6-0.9,0.6-1.5s-0.2-1.2-0.6-1.6c-0.4-0.4-1-0.6-1.8-0.6
		h-2.1V838.5z"/>
	<path class="st0" d="M670.5,845l1.6-0.3V834l-1.6-0.3v-1.8h6.1v1.8l-1.5,0.3v4h1.3l2.9-4.2l-0.9-0.1v-1.8h5.9v1.8l-1.6,0.3
		l-3.7,4.9l4.1,5.9l1.5,0.3v1.8h-5.9V845l0.9-0.1l-2.9-4.3h-1.7v4.1l1.5,0.3v1.8h-6.1V845z"/>
	<path class="st0" d="M703,845.2c-0.5,0.5-1.2,0.9-2.1,1.3c-0.9,0.4-2.1,0.6-3.5,0.6c-2,0-3.7-0.7-4.9-2c-1.3-1.3-1.9-3.1-1.9-5.3
		v-0.5c0-2.2,0.6-4.1,1.9-5.5c1.2-1.4,2.9-2.1,4.9-2.1c1.2,0,2.2,0.2,3.2,0.6c1,0.4,1.8,0.9,2.4,1.5v3h-2.2l-0.4-2
		c-0.3-0.2-0.6-0.4-1.1-0.6c-0.4-0.1-1-0.2-1.5-0.2c-1.3,0-2.3,0.5-3,1.4s-1.1,2.2-1.1,3.8v0.5c0,1.5,0.4,2.7,1.1,3.6
		c0.7,0.9,1.7,1.4,3.1,1.4c0.6,0,1.1-0.1,1.5-0.2c0.4-0.1,0.7-0.2,0.9-0.4v-2.5l-2.1-0.2v-2.1h5.1V845.2z"/>
	<path class="st0" d="M714.1,840.3h-5.1v4.3h4.8l0.1-1.8h2.3v4.1h-11.8V845l1.6-0.3V834l-1.6-0.3v-1.8h1.6h10.2v4.1H714l-0.1-1.8
		h-4.8v3.8h5.1V840.3z"/>
	<path class="st0" d="M733.2,831.9v1.8l-1.6,0.3v12.8h-3l-6-10l-0.1,0v7.9l1.6,0.3v1.8h-6.2V845l1.6-0.3V834l-1.6-0.3v-1.8h1.6h3
		l6,10l0.1,0V834l-1.6-0.3v-1.8h4.6H733.2z"/>
	<path class="st0" d="M743.8,840.3h-5.1v4.3h4.8l0.1-1.8h2.3v4.1h-11.8V845l1.6-0.3V834l-1.6-0.3v-1.8h1.6h10.2v4.1h-2.3l-0.1-1.8
		h-4.8v3.8h5.1V840.3z"/>
	<path class="st0" d="M754.3,831.9c1.7,0,3,0.4,4,1.2c1,0.8,1.4,1.8,1.4,3.2c0,0.8-0.2,1.4-0.6,2c-0.4,0.6-1,1-1.8,1.3
		c0.9,0.3,1.5,0.7,1.9,1.3c0.4,0.6,0.6,1.4,0.6,2.3v0.8c0,0.3,0.1,0.6,0.2,0.8c0.1,0.2,0.3,0.3,0.6,0.3l0.4,0.1v1.8h-1.5
		c-1,0-1.7-0.3-2.1-0.8s-0.6-1.2-0.6-2v-0.9c0-0.7-0.2-1.3-0.6-1.7c-0.4-0.4-0.9-0.6-1.6-0.7h-2.5v3.9l1.6,0.3v1.8h-6.2V845l1.6-0.3
		V834l-1.6-0.3v-1.8h1.6H754.3z M752.1,838.5h2.1c0.8,0,1.5-0.2,1.9-0.5s0.6-0.9,0.6-1.5s-0.2-1.2-0.6-1.6c-0.4-0.4-1-0.6-1.8-0.6
		h-2.1V838.5z"/>
	<path class="st0" d="M761.8,845l1.1-0.2l4.5-13h3.1l4.5,13l1.1,0.2v1.8H771V845l1-0.2l-0.7-2.1h-4.8l-0.7,2.1l1,0.2v1.8h-5.1V845z
		 M767.2,840.6h3.4l-1.7-5.3h-0.1L767.2,840.6z"/>
	<path class="st0" d="M788.7,831.9v4h-2.3l-0.1-1.7h-2.7v10.5l1.6,0.3v1.8h-6.2V845l1.6-0.3v-10.5h-2.7l-0.1,1.7h-2.3v-4H788.7z"/>
	<path class="st0" d="M789.6,833.7v-1.8h6.2v1.8l-1.6,0.3v10.7l1.6,0.3v1.8h-6.2V845l1.6-0.3V834L789.6,833.7z"/>
	<path class="st0" d="M810.6,839.5c0,2.2-0.6,4-1.9,5.4c-1.3,1.4-2.9,2.1-4.9,2.1c-2,0-3.6-0.7-4.9-2.1c-1.2-1.4-1.9-3.2-1.9-5.4
		v-0.2c0-2.2,0.6-4,1.9-5.4s2.9-2.2,4.9-2.2c2,0,3.7,0.7,4.9,2.2c1.3,1.4,1.9,3.2,1.9,5.4V839.5z M807.6,839.2c0-1.5-0.3-2.8-1-3.8
		c-0.6-1-1.6-1.4-2.9-1.4s-2.2,0.5-2.8,1.4c-0.6,1-0.9,2.2-0.9,3.8v0.2c0,1.6,0.3,2.8,0.9,3.8c0.6,1,1.6,1.4,2.8,1.4
		c1.3,0,2.2-0.5,2.9-1.4c0.6-1,1-2.2,1-3.8V839.2z"/>
	<path class="st0" d="M827.1,831.9v1.8l-1.6,0.3v12.8h-3l-6-10l-0.1,0v7.9l1.6,0.3v1.8h-6.2V845l1.6-0.3V834l-1.6-0.3v-1.8h1.6h3
		l6,10l0.1,0V834l-1.6-0.3v-1.8h4.6H827.1z"/>
</g>
<g>
	<g>
		<rect x="700" y="385.6" class="st2" width="2.9" height="2.4"/>
	</g>
	<g>
		<path class="st2" d="M702.9,412.6H700v-4.1h2.9V412.6z M702.9,404.4H700v-4.1h2.9V404.4z M702.9,396.2H700v-4.1h2.9V396.2z"/>
	</g>
	<g>
		<rect x="700" y="416.7" class="st2" width="2.9" height="2.4"/>
	</g>
	<g>
		<g>
			<path class="st2" d="M701.5,427.8c-1.5-4.1-4.1-9.1-6.8-12.3l6.8,2.5l6.8-2.5C705.5,418.6,703,423.7,701.5,427.8z"/>
		</g>
	</g>
</g>
<g>
	<g>
		<rect x="700" y="130.8" class="st2" width="2.9" height="2.4"/>
	</g>
	<g>
		<path class="st2" d="M702.9,157.8H700v-4.1h2.9V157.8z M702.9,149.6H700v-4.1h2.9V149.6z M702.9,141.4H700v-4.1h2.9V141.4z"/>
	</g>
	<g>
		<rect x="700" y="161.9" class="st2" width="2.9" height="2.4"/>
	</g>
	<g>
		<g>
			<path class="st2" d="M701.5,173c-1.5-4.1-4.1-9.1-6.8-12.3l6.8,2.5l6.8-2.5C705.5,163.8,703,168.9,701.5,173z"/>
		</g>
	</g>
</g>
<g>
	<g>
		<rect x="700" y="509.7" class="st2" width="2.9" height="2.4"/>
	</g>
	<g>
		<path class="st2" d="M702.9,546.7H700v-4.3h2.9V546.7z M702.9,538H700v-4.3h2.9V538z M702.9,529.4H700V525h2.9V529.4z
			 M702.9,520.7H700v-4.3h2.9V520.7z"/>
	</g>
	<g>
		<rect x="700" y="551" class="st2" width="2.9" height="2.4"/>
	</g>
	<g>
		<g>
			<path class="st2" d="M701.5,562c-1.5-4.1-4.1-9.1-6.8-12.3l6.8,2.5l6.8-2.5C705.5,552.9,703,558,701.5,562z"/>
		</g>
	</g>
</g>
<g id="fact_x5F_01">
	<g id="rettp_x5F_01">
		<rect x="594.5" y="48.9" class="st3" width="213.8" height="81.9"/>
		<path class="st3" d="M809.9,132.3H593V47.4h216.8V132.3z M596,129.3h210.8V50.4H596V129.3z"/>
	</g>
	<g id="rettv_x5F_01">
		<rect x="572.5" y="48.9" class="st4" width="257.9" height="81.9"/>
		<path class="st3" d="M832.1,132.4H570.8V47.2h261.2V132.4z M574.1,129.1h254.6V50.5H574.1V129.1z"/>
	</g>
	<g id="text1_x5F_01">
		<path class="st0" d="M634.2,76.5h-1.4l-0.3-1.9c-0.3-0.2-0.6-0.4-1.1-0.6c-0.5-0.2-1-0.2-1.6-0.2c-1,0-1.7,0.2-2.2,0.6
			c-0.5,0.4-0.8,0.9-0.8,1.6c0,0.6,0.3,1.1,0.8,1.5c0.5,0.4,1.4,0.7,2.6,1c1.4,0.4,2.5,0.9,3.2,1.6s1.1,1.5,1.1,2.6
			c0,1.1-0.4,2-1.3,2.6c-0.9,0.7-2,1-3.5,1c-1,0-2-0.2-2.8-0.5c-0.8-0.3-1.5-0.8-2-1.3v-2.5h1.4l0.4,1.9c0.4,0.3,0.8,0.5,1.3,0.7
			c0.5,0.2,1.1,0.3,1.8,0.3c0.9,0,1.6-0.2,2.2-0.6s0.8-0.9,0.8-1.6c0-0.6-0.2-1.1-0.7-1.6c-0.5-0.4-1.3-0.8-2.5-1.1
			c-1.4-0.3-2.5-0.8-3.3-1.5c-0.8-0.7-1.2-1.5-1.2-2.5c0-1.1,0.4-1.9,1.3-2.6c0.9-0.7,2.1-1.1,3.5-1.1c0.9,0,1.8,0.2,2.6,0.5
			c0.8,0.3,1.4,0.7,1.9,1.2V76.5z"/>
		<path class="st0" d="M640.8,86.2c-1.4,0-2.5-0.5-3.3-1.4c-0.8-0.9-1.2-2.1-1.2-3.6v-0.4c0-1.4,0.4-2.6,1.3-3.6
			c0.9-0.9,1.9-1.4,3-1.4c1.3,0,2.4,0.4,3.1,1.2c0.7,0.8,1,1.9,1,3.3v1.1h-6.5l0,0c0,1,0.3,1.8,0.7,2.4c0.5,0.6,1.1,0.9,2,0.9
			c0.6,0,1.2-0.1,1.6-0.3c0.5-0.2,0.9-0.4,1.2-0.7l0.7,1.2c-0.4,0.3-0.8,0.6-1.4,0.9C642.3,86.1,641.6,86.2,640.8,86.2z M640.5,77.3
			c-0.6,0-1.1,0.3-1.6,0.8c-0.4,0.5-0.7,1.2-0.8,1.9l0,0h4.6v-0.2c0-0.7-0.2-1.3-0.6-1.8C641.8,77.5,641.2,77.3,640.5,77.3z"/>
		<path class="st0" d="M653,86c-0.1-0.3-0.1-0.5-0.1-0.7c0-0.2-0.1-0.4-0.1-0.6c-0.4,0.5-0.8,0.8-1.3,1.1c-0.5,0.3-1.1,0.4-1.7,0.4
			c-1,0-1.8-0.3-2.4-0.8c-0.5-0.5-0.8-1.2-0.8-2.2c0-1,0.4-1.7,1.2-2.2c0.8-0.5,1.8-0.8,3.2-0.8h1.9v-1.2c0-0.6-0.2-1.1-0.6-1.4
			c-0.4-0.3-0.9-0.5-1.5-0.5c-0.5,0-0.9,0.1-1.2,0.2c-0.3,0.1-0.6,0.3-0.8,0.5l-0.2,1.1H647V77c0.5-0.4,1-0.7,1.7-0.9
			c0.6-0.2,1.4-0.3,2.1-0.3c1.1,0,2.1,0.3,2.8,0.9c0.7,0.6,1.1,1.4,1.1,2.5V84c0,0.1,0,0.3,0,0.4c0,0.1,0,0.2,0,0.4l0.7,0.1V86H653z
			 M650,84.7c0.6,0,1.2-0.1,1.7-0.4c0.5-0.3,0.9-0.6,1.1-1v-1.7h-1.9c-0.7,0-1.3,0.2-1.8,0.5c-0.4,0.3-0.7,0.8-0.7,1.3
			c0,0.4,0.1,0.8,0.4,1C649.1,84.6,649.5,84.7,650,84.7z"/>
		<path class="st0" d="M656.9,77.2V76h3.1l0.2,1.5c0.3-0.5,0.6-0.9,1.1-1.2c0.4-0.3,0.9-0.4,1.4-0.4c0.1,0,0.3,0,0.4,0
			c0.2,0,0.3,0,0.3,0.1l-0.2,1.7l-1-0.1c-0.5,0-0.9,0.1-1.2,0.3c-0.3,0.2-0.6,0.5-0.8,1v5.8l1.5,0.3V86h-4.9v-1.2l1.5-0.3v-7.2
			L656.9,77.2z"/>
		<path class="st0" d="M669.1,84.8c0.6,0,1.1-0.2,1.6-0.6c0.5-0.4,0.7-0.8,0.7-1.4h1.6l0,0.1c0,0.9-0.4,1.6-1.2,2.3
			c-0.8,0.7-1.7,1-2.8,1c-1.5,0-2.6-0.5-3.3-1.4c-0.8-1-1.2-2.1-1.2-3.6v-0.4c0-1.4,0.4-2.6,1.2-3.6c0.8-1,1.9-1.4,3.3-1.4
			c0.8,0,1.5,0.1,2.2,0.4c0.6,0.3,1.2,0.6,1.6,1.1l0.1,2.2h-1.5L671,78c-0.2-0.2-0.5-0.4-0.8-0.5c-0.3-0.1-0.7-0.2-1.2-0.2
			c-1,0-1.6,0.3-2.1,1c-0.4,0.7-0.6,1.5-0.6,2.5v0.4c0,1,0.2,1.9,0.6,2.6C667.4,84.5,668.1,84.8,669.1,84.8z"/>
		<path class="st0" d="M674.5,84.9l1.5-0.3V73l-1.5-0.3v-1.2h3.3v5.8c0.3-0.5,0.8-0.9,1.3-1.1c0.5-0.3,1.1-0.4,1.7-0.4
			c1.1,0,1.9,0.3,2.5,1c0.6,0.6,0.9,1.6,0.9,3v4.9l1.5,0.3V86h-4.9v-1.2l1.5-0.3v-4.9c0-0.8-0.2-1.4-0.5-1.8
			c-0.4-0.4-0.9-0.6-1.6-0.6c-0.5,0-1,0.1-1.4,0.4c-0.4,0.2-0.8,0.6-1,1v6l1.5,0.3V86h-4.9V84.9z"/>
		<path class="st0" d="M696.4,86.2c-1.4,0-2.5-0.5-3.3-1.4c-0.8-0.9-1.2-2.1-1.2-3.6v-0.4c0-1.4,0.4-2.6,1.3-3.6
			c0.9-0.9,1.9-1.4,3-1.4c1.3,0,2.4,0.4,3.1,1.2c0.7,0.8,1,1.9,1,3.3v1.1h-6.5l0,0c0,1,0.3,1.8,0.7,2.4c0.5,0.6,1.1,0.9,2,0.9
			c0.6,0,1.2-0.1,1.6-0.3c0.5-0.2,0.9-0.4,1.2-0.7l0.7,1.2c-0.4,0.3-0.8,0.6-1.4,0.9C697.9,86.1,697.2,86.2,696.4,86.2z M696.1,77.3
			c-0.6,0-1.1,0.3-1.6,0.8c-0.4,0.5-0.7,1.2-0.8,1.9l0,0h4.6v-0.2c0-0.7-0.2-1.3-0.6-1.8C697.4,77.5,696.8,77.3,696.1,77.3z"/>
		<path class="st0" d="M708.5,86c-0.1-0.3-0.1-0.5-0.1-0.7c0-0.2-0.1-0.4-0.1-0.6c-0.4,0.5-0.8,0.8-1.3,1.1
			c-0.5,0.3-1.1,0.4-1.7,0.4c-1,0-1.8-0.3-2.4-0.8c-0.5-0.5-0.8-1.2-0.8-2.2c0-1,0.4-1.7,1.2-2.2c0.8-0.5,1.8-0.8,3.2-0.8h1.9v-1.2
			c0-0.6-0.2-1.1-0.6-1.4c-0.4-0.3-0.9-0.5-1.5-0.5c-0.5,0-0.9,0.1-1.2,0.2c-0.3,0.1-0.6,0.3-0.8,0.5L704,79h-1.4V77
			c0.5-0.4,1-0.7,1.7-0.9c0.6-0.2,1.4-0.3,2.1-0.3c1.1,0,2.1,0.3,2.8,0.9c0.7,0.6,1.1,1.4,1.1,2.5V84c0,0.1,0,0.3,0,0.4
			c0,0.1,0,0.2,0,0.4l0.7,0.1V86H708.5z M705.6,84.7c0.6,0,1.2-0.1,1.7-0.4c0.5-0.3,0.9-0.6,1.1-1v-1.7h-1.9c-0.7,0-1.3,0.2-1.8,0.5
			c-0.4,0.3-0.7,0.8-0.7,1.3c0,0.4,0.1,0.8,0.4,1C704.6,84.6,705.1,84.7,705.6,84.7z"/>
		<path class="st0" d="M717,84.8c0.6,0,1.1-0.2,1.6-0.6c0.5-0.4,0.7-0.8,0.7-1.4h1.6l0,0.1c0,0.9-0.4,1.6-1.2,2.3
			c-0.8,0.7-1.7,1-2.8,1c-1.5,0-2.6-0.5-3.3-1.4c-0.8-1-1.2-2.1-1.2-3.6v-0.4c0-1.4,0.4-2.6,1.2-3.6c0.8-1,1.9-1.4,3.3-1.4
			c0.8,0,1.5,0.1,2.2,0.4c0.6,0.3,1.2,0.6,1.6,1.1l0.1,2.2h-1.5L719,78c-0.2-0.2-0.5-0.4-0.8-0.5c-0.3-0.1-0.7-0.2-1.2-0.2
			c-1,0-1.6,0.3-2.1,1c-0.4,0.7-0.6,1.5-0.6,2.5v0.4c0,1,0.2,1.9,0.6,2.6C715.3,84.5,716,84.8,717,84.8z"/>
		<path class="st0" d="M722.5,84.9l1.5-0.3V73l-1.5-0.3v-1.2h3.3v5.8c0.3-0.5,0.8-0.9,1.3-1.1c0.5-0.3,1.1-0.4,1.7-0.4
			c1.1,0,1.9,0.3,2.5,1c0.6,0.6,0.9,1.6,0.9,3v4.9l1.5,0.3V86h-4.9v-1.2l1.5-0.3v-4.9c0-0.8-0.2-1.4-0.5-1.8
			c-0.4-0.4-0.9-0.6-1.6-0.6c-0.5,0-1,0.1-1.4,0.4c-0.4,0.2-0.8,0.6-1,1v6l1.5,0.3V86h-4.9V84.9z"/>
		<path class="st0" d="M746.2,86c-0.1-0.3-0.1-0.5-0.1-0.7c0-0.2-0.1-0.4-0.1-0.6c-0.4,0.5-0.8,0.8-1.3,1.1
			c-0.5,0.3-1.1,0.4-1.7,0.4c-1,0-1.8-0.3-2.4-0.8c-0.5-0.5-0.8-1.2-0.8-2.2c0-1,0.4-1.7,1.2-2.2c0.8-0.5,1.8-0.8,3.2-0.8h1.9v-1.2
			c0-0.6-0.2-1.1-0.6-1.4c-0.4-0.3-0.9-0.5-1.5-0.5c-0.5,0-0.9,0.1-1.2,0.2c-0.3,0.1-0.6,0.3-0.8,0.5l-0.2,1.1h-1.4V77
			c0.5-0.4,1-0.7,1.7-0.9c0.6-0.2,1.4-0.3,2.1-0.3c1.1,0,2.1,0.3,2.8,0.9c0.7,0.6,1.1,1.4,1.1,2.5V84c0,0.1,0,0.3,0,0.4
			c0,0.1,0,0.2,0,0.4l0.7,0.1V86H746.2z M743.3,84.7c0.6,0,1.2-0.1,1.7-0.4c0.5-0.3,0.9-0.6,1.1-1v-1.7h-1.9c-0.7,0-1.3,0.2-1.8,0.5
			c-0.4,0.3-0.7,0.8-0.7,1.3c0,0.4,0.1,0.8,0.4,1C742.3,84.6,742.7,84.7,743.3,84.7z"/>
		<path class="st0" d="M754.7,84.8c0.6,0,1.1-0.2,1.6-0.6c0.5-0.4,0.7-0.8,0.7-1.4h1.6l0,0.1c0,0.9-0.4,1.6-1.2,2.3
			c-0.8,0.7-1.7,1-2.8,1c-1.5,0-2.6-0.5-3.3-1.4c-0.8-1-1.2-2.1-1.2-3.6v-0.4c0-1.4,0.4-2.6,1.2-3.6c0.8-1,1.9-1.4,3.3-1.4
			c0.8,0,1.5,0.1,2.2,0.4c0.6,0.3,1.2,0.6,1.6,1.1l0.1,2.2H757l-0.4-1.6c-0.2-0.2-0.5-0.4-0.8-0.5c-0.3-0.1-0.7-0.2-1.2-0.2
			c-1,0-1.6,0.3-2.1,1c-0.4,0.7-0.6,1.5-0.6,2.5v0.4c0,1,0.2,1.9,0.6,2.6C753,84.5,753.7,84.8,754.7,84.8z"/>
		<path class="st0" d="M763.6,73.6V76h1.9v1.4h-1.9v6.1c0,0.5,0.1,0.8,0.3,1c0.2,0.2,0.5,0.3,0.8,0.3c0.2,0,0.3,0,0.5,0
			c0.2,0,0.4-0.1,0.5-0.1l0.3,1.3c-0.2,0.1-0.4,0.2-0.8,0.3c-0.3,0.1-0.7,0.1-1,0.1c-0.7,0-1.3-0.2-1.8-0.7
			c-0.4-0.4-0.7-1.2-0.7-2.1v-6.1h-1.6V76h1.6v-2.4H763.6z"/>
		<path class="st0" d="M767.2,80.9c0-1.5,0.4-2.7,1.2-3.7c0.8-1,1.9-1.4,3.3-1.4c1.4,0,2.5,0.5,3.3,1.4c0.8,1,1.2,2.2,1.2,3.7v0.2
			c0,1.5-0.4,2.7-1.2,3.7c-0.8,1-1.9,1.4-3.3,1.4c-1.4,0-2.5-0.5-3.3-1.4c-0.8-1-1.2-2.2-1.2-3.7V80.9z M769,81.1
			c0,1.1,0.2,1.9,0.7,2.6c0.4,0.7,1.1,1,2,1c0.9,0,1.5-0.3,2-1c0.5-0.7,0.7-1.6,0.7-2.6v-0.2c0-1.1-0.2-1.9-0.7-2.6
			c-0.5-0.7-1.1-1-2-1c-0.9,0-1.5,0.3-2,1c-0.4,0.7-0.7,1.6-0.7,2.6V81.1z"/>
		<path class="st0" d="M777.8,77.2V76h3.1l0.2,1.5c0.3-0.5,0.6-0.9,1.1-1.2c0.4-0.3,0.9-0.4,1.4-0.4c0.1,0,0.3,0,0.4,0
			c0.2,0,0.3,0,0.3,0.1l-0.2,1.7l-1-0.1c-0.5,0-0.9,0.1-1.2,0.3c-0.3,0.2-0.6,0.5-0.8,1v5.8l1.5,0.3V86h-4.9v-1.2l1.5-0.3v-7.2
			L777.8,77.2z"/>
		<path class="st0" d="M629.5,106.9l1.5-0.3v-7.2l-1.5-0.3V98h3.3v8.6l1.5,0.3v1.2h-4.9V106.9z M632.8,95.4H631v-1.9h1.8V95.4z"/>
		<path class="st0" d="M635.4,106.9l1.5-0.3v-7.2l-1.5-0.3V98h3.1l0.1,1.5c0.3-0.5,0.8-0.9,1.3-1.2c0.5-0.3,1.1-0.4,1.7-0.4
			c1.1,0,1.9,0.3,2.5,1c0.6,0.6,0.9,1.6,0.9,2.9v4.9l1.5,0.3v1.2h-4.9v-1.2l1.5-0.3v-4.9c0-0.9-0.2-1.5-0.5-1.9s-0.9-0.6-1.6-0.6
			c-0.5,0-1,0.1-1.4,0.4c-0.4,0.3-0.7,0.6-1,1v5.9l1.5,0.3v1.2h-4.9V106.9z"/>
		<path class="st0" d="M663.2,106.5c-0.4,0.4-1,0.8-1.8,1.2c-0.8,0.4-1.8,0.6-3,0.6c-1.8,0-3.3-0.6-4.4-1.9
			c-1.1-1.3-1.7-2.9-1.7-4.9v-0.2c0-2,0.6-3.7,1.7-4.9s2.6-1.9,4.5-1.9c1,0,1.9,0.2,2.6,0.5c0.8,0.3,1.4,0.7,1.9,1.2v2.4h-1.3
			l-0.4-1.9c-0.3-0.2-0.7-0.5-1.1-0.6c-0.4-0.2-0.9-0.2-1.5-0.2c-1.5,0-2.6,0.5-3.4,1.5c-0.8,1-1.2,2.3-1.2,3.9v0.2
			c0,1.6,0.4,2.9,1.1,3.9c0.8,1,1.8,1.5,3.2,1.5c0.7,0,1.3-0.1,1.8-0.2c0.5-0.2,0.8-0.3,1.1-0.5v-3l-2.2-0.1v-1.3h4V106.5z"/>
		<path class="st0" d="M665.5,102.9c0-1.5,0.4-2.7,1.2-3.7c0.8-1,1.9-1.4,3.3-1.4c1.4,0,2.5,0.5,3.3,1.4c0.8,1,1.2,2.2,1.2,3.7v0.2
			c0,1.5-0.4,2.7-1.2,3.7c-0.8,1-1.9,1.4-3.3,1.4c-1.4,0-2.5-0.5-3.3-1.4c-0.8-1-1.2-2.2-1.2-3.7V102.9z M667.4,103.1
			c0,1.1,0.2,1.9,0.7,2.6c0.4,0.7,1.1,1,2,1c0.9,0,1.5-0.3,2-1c0.5-0.7,0.7-1.6,0.7-2.6v-0.2c0-1.1-0.2-1.9-0.7-2.6
			c-0.5-0.7-1.1-1-2-1c-0.9,0-1.5,0.3-2,1c-0.4,0.7-0.7,1.6-0.7,2.6V103.1z"/>
		<path class="st0" d="M676.2,102.9c0-1.5,0.4-2.7,1.2-3.7c0.8-1,1.9-1.4,3.3-1.4c1.4,0,2.5,0.5,3.3,1.4c0.8,1,1.2,2.2,1.2,3.7v0.2
			c0,1.5-0.4,2.7-1.2,3.7c-0.8,1-1.9,1.4-3.3,1.4c-1.4,0-2.5-0.5-3.3-1.4c-0.8-1-1.2-2.2-1.2-3.7V102.9z M678,103.1
			c0,1.1,0.2,1.9,0.7,2.6c0.4,0.7,1.1,1,2,1c0.9,0,1.5-0.3,2-1c0.5-0.7,0.7-1.6,0.7-2.6v-0.2c0-1.1-0.2-1.9-0.7-2.6
			c-0.5-0.7-1.1-1-2-1c-0.9,0-1.5,0.3-2,1c-0.4,0.7-0.7,1.6-0.7,2.6V103.1z"/>
		<path class="st0" d="M686.8,103.2c0-1.6,0.4-2.9,1.1-3.9c0.7-1,1.7-1.5,2.9-1.5c0.6,0,1.2,0.1,1.7,0.4c0.5,0.2,0.9,0.6,1.2,1.1
			l0.2-1.3h1.5v9.9c0,1.3-0.4,2.3-1.1,3.1c-0.7,0.7-1.8,1.1-3.1,1.1c-0.5,0-1-0.1-1.6-0.2c-0.6-0.1-1.1-0.3-1.5-0.5l0.5-1.4
			c0.3,0.2,0.7,0.3,1.2,0.4c0.5,0.1,0.9,0.2,1.4,0.2c0.8,0,1.4-0.2,1.8-0.7c0.4-0.5,0.6-1.1,0.6-2v-1c-0.3,0.4-0.7,0.7-1.2,1
			c-0.5,0.2-1,0.3-1.6,0.3c-1.2,0-2.2-0.4-2.9-1.3s-1.1-2.1-1.1-3.5V103.2z M688.7,103.4c0,1,0.2,1.8,0.6,2.4s1.1,0.9,1.9,0.9
			c0.6,0,1-0.1,1.4-0.4c0.4-0.3,0.7-0.6,0.9-1.1v-4.6c-0.2-0.4-0.5-0.8-0.9-1c-0.4-0.3-0.8-0.4-1.4-0.4c-0.9,0-1.5,0.4-2,1.1
			c-0.4,0.7-0.7,1.7-0.7,2.8V103.4z"/>
		<path class="st0" d="M697.3,94.7v-1.2h3.3v13l1.5,0.3v1.2h-4.9v-1.2l1.5-0.3V95L697.3,94.7z"/>
		<path class="st0" d="M708.2,108.2c-1.4,0-2.5-0.5-3.3-1.4c-0.8-0.9-1.2-2.1-1.2-3.6v-0.4c0-1.4,0.4-2.6,1.3-3.6
			c0.9-0.9,1.9-1.4,3-1.4c1.3,0,2.4,0.4,3.1,1.2c0.7,0.8,1,1.9,1,3.3v1.1h-6.5l0,0c0,1,0.3,1.8,0.7,2.4c0.5,0.6,1.1,0.9,2,0.9
			c0.6,0,1.2-0.1,1.6-0.3c0.5-0.2,0.9-0.4,1.2-0.7l0.7,1.2c-0.4,0.3-0.8,0.6-1.4,0.9C709.7,108.1,709,108.2,708.2,108.2z
			 M707.9,99.3c-0.6,0-1.1,0.3-1.6,0.8c-0.4,0.5-0.7,1.2-0.8,1.9l0,0h4.6v-0.2c0-0.7-0.2-1.3-0.6-1.8
			C709.2,99.5,708.6,99.3,707.9,99.3z"/>
		<path class="st0" d="M729.3,94.5v3h-1.6l-0.1-1.5h-3v10.6l1.5,0.3v1.2h-4.9v-1.2l1.5-0.3V96h-3l-0.1,1.5H718v-3H729.3z"/>
		<path class="st0" d="M729.7,99.2V98h3.1l0.2,1.5c0.3-0.5,0.6-0.9,1.1-1.2c0.4-0.3,0.9-0.4,1.4-0.4c0.1,0,0.3,0,0.4,0
			c0.2,0,0.3,0,0.3,0.1l-0.2,1.7l-1-0.1c-0.5,0-0.9,0.1-1.2,0.3c-0.3,0.2-0.6,0.5-0.8,1v5.8l1.5,0.3v1.2h-4.9v-1.2l1.5-0.3v-7.2
			L729.7,99.2z"/>
		<path class="st0" d="M742,108.2c-1.4,0-2.5-0.5-3.3-1.4c-0.8-0.9-1.2-2.1-1.2-3.6v-0.4c0-1.4,0.4-2.6,1.3-3.6
			c0.9-0.9,1.9-1.4,3-1.4c1.3,0,2.4,0.4,3.1,1.2c0.7,0.8,1,1.9,1,3.3v1.1h-6.5l0,0c0,1,0.3,1.8,0.7,2.4c0.5,0.6,1.1,0.9,2,0.9
			c0.6,0,1.2-0.1,1.6-0.3c0.5-0.2,0.9-0.4,1.2-0.7l0.7,1.2c-0.4,0.3-0.8,0.6-1.4,0.9C743.5,108.1,742.8,108.2,742,108.2z
			 M741.7,99.3c-0.6,0-1.1,0.3-1.6,0.8c-0.4,0.5-0.7,1.2-0.8,1.9l0,0h4.6v-0.2c0-0.7-0.2-1.3-0.6-1.8
			C743,99.5,742.5,99.3,741.7,99.3z"/>
		<path class="st0" d="M747.4,106.9l1.5-0.3v-7.2l-1.5-0.3V98h3.1l0.1,1.5c0.3-0.5,0.8-0.9,1.3-1.2c0.5-0.3,1.1-0.4,1.7-0.4
			c1.1,0,1.9,0.3,2.5,1c0.6,0.6,0.9,1.6,0.9,2.9v4.9l1.5,0.3v1.2h-4.9v-1.2l1.5-0.3v-4.9c0-0.9-0.2-1.5-0.5-1.9s-0.9-0.6-1.6-0.6
			c-0.5,0-1,0.1-1.4,0.4c-0.4,0.3-0.7,0.6-1,1v5.9l1.5,0.3v1.2h-4.9V106.9z"/>
		<path class="st0" d="M766.5,106.8c-0.3,0.5-0.7,0.8-1.2,1c-0.5,0.2-1,0.4-1.6,0.4c-1.2,0-2.2-0.4-2.9-1.3c-0.7-0.9-1-2.1-1-3.5
			v-0.2c0-1.6,0.3-2.9,1-3.9c0.7-1,1.7-1.5,2.9-1.5c0.6,0,1.1,0.1,1.6,0.3c0.5,0.2,0.8,0.5,1.2,1V95l-1.5-0.3v-1.2h1.5h1.8v13
			l1.5,0.3v1.2h-3.1L766.5,106.8z M761.6,103.4c0,1,0.2,1.8,0.6,2.4s1.1,0.9,1.9,0.9c0.5,0,1-0.1,1.4-0.4c0.4-0.2,0.7-0.6,0.9-1
			v-4.7c-0.2-0.4-0.5-0.8-0.9-1c-0.4-0.2-0.8-0.4-1.4-0.4c-0.9,0-1.5,0.4-1.9,1.1c-0.4,0.7-0.6,1.7-0.6,2.8V103.4z"/>
		<path class="st0" d="M778.8,101.2h-1.4l-0.3-1.2c-0.2-0.2-0.5-0.4-0.8-0.5c-0.3-0.1-0.7-0.2-1.1-0.2c-0.6,0-1.1,0.1-1.4,0.4
			c-0.3,0.3-0.5,0.6-0.5,1c0,0.4,0.1,0.7,0.4,0.9c0.3,0.2,0.8,0.4,1.7,0.6c1.3,0.3,2.2,0.6,2.8,1.1c0.6,0.5,0.9,1.1,0.9,1.9
			c0,0.9-0.4,1.6-1.1,2.2c-0.7,0.6-1.7,0.8-2.8,0.8c-0.8,0-1.4-0.1-2.1-0.3c-0.6-0.2-1.1-0.4-1.6-0.8l0-2.3h1.4l0.3,1.3
			c0.2,0.2,0.5,0.3,0.9,0.4c0.4,0.1,0.7,0.1,1.1,0.1c0.6,0,1.2-0.1,1.5-0.4c0.4-0.3,0.6-0.6,0.6-1c0-0.4-0.2-0.7-0.5-1
			c-0.3-0.3-0.9-0.5-1.7-0.7c-1.2-0.3-2.1-0.6-2.8-1.1c-0.6-0.5-0.9-1.1-0.9-1.9c0-0.8,0.3-1.5,1-2.1c0.7-0.6,1.6-0.9,2.7-0.9
			c0.8,0,1.4,0.1,2.1,0.3c0.6,0.2,1.1,0.5,1.5,0.8L778.8,101.2z"/>
	</g>
</g>
<g id="rettp_x5F_02">
	<rect x="594.5" y="175.3" class="st2" width="213.8" height="81.9"/>
	<path class="st2" d="M809.9,258.7H593v-84.9h216.8V258.7z M596,255.7h210.8v-78.9H596V255.7z"/>
</g>
<g id="rettv_x5F_02">
	<rect x="572.5" y="175.3" class="st4" width="257.9" height="81.9"/>
	<path class="st2" d="M832.1,258.8H570.9v-85.2h261.2V258.8z M574.1,255.5h254.6v-78.6H574.1V255.5z"/>
</g>
<g id="text1_x5F_02">
	<path class="st0" d="M621.7,205.6h-1.4l-0.3-1.2c-0.2-0.2-0.5-0.4-0.8-0.5c-0.3-0.1-0.7-0.2-1.1-0.2c-0.6,0-1.1,0.1-1.4,0.4
		c-0.3,0.3-0.5,0.6-0.5,1c0,0.4,0.1,0.7,0.4,0.9c0.3,0.2,0.8,0.4,1.7,0.6c1.3,0.3,2.2,0.6,2.8,1.1c0.6,0.5,0.9,1.1,0.9,1.9
		c0,0.9-0.4,1.6-1.1,2.2c-0.7,0.6-1.7,0.8-2.8,0.8c-0.8,0-1.4-0.1-2.1-0.3c-0.6-0.2-1.1-0.4-1.6-0.8l0-2.3h1.4l0.3,1.3
		c0.2,0.2,0.5,0.3,0.9,0.4c0.4,0.1,0.7,0.1,1.1,0.1c0.7,0,1.2-0.1,1.5-0.4c0.4-0.3,0.6-0.6,0.6-1c0-0.4-0.2-0.7-0.5-1
		s-0.9-0.5-1.7-0.7c-1.2-0.3-2.1-0.6-2.8-1.1c-0.6-0.5-0.9-1.1-0.9-1.9c0-0.8,0.3-1.5,1-2.1s1.6-0.9,2.7-0.9c0.8,0,1.4,0.1,2.1,0.3
		c0.6,0.2,1.1,0.5,1.5,0.8L621.7,205.6z"/>
	<path class="st0" d="M628.3,212.6c-1.4,0-2.5-0.5-3.3-1.4c-0.8-0.9-1.2-2.1-1.2-3.6v-0.4c0-1.4,0.4-2.6,1.3-3.6
		c0.8-0.9,1.9-1.4,3-1.4c1.3,0,2.4,0.4,3.1,1.2s1,1.9,1,3.3v1.1h-6.5l0,0c0,1,0.3,1.8,0.7,2.4c0.5,0.6,1.1,0.9,2,0.9
		c0.6,0,1.2-0.1,1.6-0.3c0.5-0.2,0.9-0.4,1.2-0.7l0.7,1.2c-0.4,0.3-0.8,0.6-1.4,0.9C629.8,212.5,629.1,212.6,628.3,212.6z
		 M628,203.7c-0.6,0-1.1,0.3-1.6,0.8c-0.4,0.5-0.7,1.2-0.8,1.9l0,0h4.6v-0.2c0-0.7-0.2-1.3-0.6-1.8S628.8,203.7,628,203.7z"/>
	<path class="st0" d="M633.7,199.2V198h3.3v13l1.5,0.3v1.2h-4.9v-1.2l1.5-0.3v-11.6L633.7,199.2z"/>
	<path class="st0" d="M644.5,212.6c-1.4,0-2.5-0.5-3.3-1.4c-0.8-0.9-1.2-2.1-1.2-3.6v-0.4c0-1.4,0.4-2.6,1.3-3.6
		c0.8-0.9,1.9-1.4,3-1.4c1.3,0,2.4,0.4,3.1,1.2s1,1.9,1,3.3v1.1h-6.5l0,0c0,1,0.3,1.8,0.7,2.4c0.5,0.6,1.1,0.9,2,0.9
		c0.6,0,1.2-0.1,1.6-0.3c0.5-0.2,0.9-0.4,1.2-0.7l0.7,1.2c-0.4,0.3-0.8,0.6-1.4,0.9C646,212.5,645.3,212.6,644.5,212.6z
		 M644.2,203.7c-0.6,0-1.1,0.3-1.6,0.8c-0.4,0.5-0.7,1.2-0.8,1.9l0,0h4.6v-0.2c0-0.7-0.2-1.3-0.6-1.8S645,203.7,644.2,203.7z"/>
	<path class="st0" d="M654.6,211.2c0.6,0,1.1-0.2,1.6-0.6c0.5-0.4,0.7-0.8,0.7-1.4h1.6l0,0.1c0,0.9-0.4,1.6-1.2,2.3
		c-0.8,0.7-1.7,1-2.8,1c-1.5,0-2.6-0.5-3.3-1.4c-0.8-1-1.2-2.1-1.2-3.6v-0.4c0-1.4,0.4-2.6,1.2-3.6c0.8-1,1.9-1.4,3.3-1.4
		c0.8,0,1.5,0.1,2.2,0.4c0.6,0.3,1.2,0.6,1.6,1.1l0.1,2.2H657l-0.4-1.6c-0.2-0.2-0.5-0.4-0.8-0.5c-0.3-0.1-0.7-0.2-1.2-0.2
		c-1,0-1.6,0.3-2.1,1c-0.4,0.7-0.6,1.5-0.6,2.5v0.4c0,1,0.2,1.9,0.6,2.6C653,210.9,653.7,211.2,654.6,211.2z"/>
	<path class="st0" d="M663.5,200v2.4h1.9v1.4h-1.9v6.1c0,0.5,0.1,0.8,0.3,1c0.2,0.2,0.5,0.3,0.8,0.3c0.2,0,0.3,0,0.5,0
		c0.2,0,0.4-0.1,0.5-0.1l0.3,1.3c-0.2,0.1-0.4,0.2-0.8,0.3c-0.3,0.1-0.7,0.1-1,0.1c-0.7,0-1.3-0.2-1.8-0.7c-0.4-0.4-0.7-1.2-0.7-2.1
		v-6.1h-1.6v-1.4h1.6V200H663.5z"/>
	<path class="st0" d="M675.2,200v2.4h1.9v1.4h-1.9v6.1c0,0.5,0.1,0.8,0.3,1c0.2,0.2,0.5,0.3,0.8,0.3c0.2,0,0.3,0,0.5,0
		c0.2,0,0.4-0.1,0.5-0.1l0.3,1.3c-0.2,0.1-0.4,0.2-0.8,0.3c-0.3,0.1-0.7,0.1-1,0.1c-0.7,0-1.3-0.2-1.8-0.7c-0.4-0.4-0.7-1.2-0.7-2.1
		v-6.1h-1.6v-1.4h1.6V200H675.2z"/>
	<path class="st0" d="M678.7,211.3l1.5-0.3v-11.6l-1.5-0.3V198h3.3v5.8c0.3-0.5,0.8-0.9,1.3-1.1c0.5-0.3,1.1-0.4,1.7-0.4
		c1.1,0,1.9,0.3,2.5,1c0.6,0.6,0.9,1.6,0.9,3v4.9l1.5,0.3v1.2h-4.9v-1.2l1.5-0.3v-4.9c0-0.8-0.2-1.4-0.5-1.8
		c-0.4-0.4-0.9-0.6-1.6-0.6c-0.5,0-1,0.1-1.4,0.4c-0.4,0.2-0.8,0.6-1,1v6l1.5,0.3v1.2h-4.9V211.3z"/>
	<path class="st0" d="M695.7,212.6c-1.4,0-2.5-0.5-3.3-1.4c-0.8-0.9-1.2-2.1-1.2-3.6v-0.4c0-1.4,0.4-2.6,1.3-3.6
		c0.9-0.9,1.9-1.4,3-1.4c1.3,0,2.4,0.4,3.1,1.2c0.7,0.8,1,1.9,1,3.3v1.1h-6.5l0,0c0,1,0.3,1.8,0.7,2.4c0.5,0.6,1.1,0.9,2,0.9
		c0.6,0,1.2-0.1,1.6-0.3c0.5-0.2,0.9-0.4,1.2-0.7l0.7,1.2c-0.4,0.3-0.8,0.6-1.4,0.9C697.3,212.5,696.6,212.6,695.7,212.6z
		 M695.5,203.7c-0.6,0-1.1,0.3-1.6,0.8c-0.4,0.5-0.7,1.2-0.8,1.9l0,0h4.6v-0.2c0-0.7-0.2-1.3-0.6-1.8
		C696.8,203.9,696.2,203.7,695.5,203.7z"/>
	<path class="st0" d="M705.7,203.8v-1.4h1.6v-1.1c0-1.1,0.3-2,1-2.6c0.7-0.6,1.6-0.9,2.7-0.9c0.4,0,0.8,0,1.2,0.1
		c0.4,0.1,0.9,0.2,1.4,0.4l-0.3,1.5c-0.3-0.1-0.7-0.2-1-0.3s-0.8-0.1-1.1-0.1c-0.7,0-1.3,0.2-1.6,0.5c-0.3,0.3-0.5,0.8-0.5,1.5v1.1
		h5.7v8.6l1.5,0.3v1.2h-4.9v-1.2l1.5-0.3v-7.3h-3.9v7.3l1.5,0.3v1.2h-4.9v-1.2l1.5-0.3v-7.3H705.7z"/>
	<path class="st0" d="M717.6,203.6v-1.2h3.1l0.2,1.5c0.3-0.5,0.6-0.9,1.1-1.2c0.4-0.3,0.9-0.4,1.4-0.4c0.1,0,0.3,0,0.4,0
		c0.2,0,0.3,0,0.3,0.1l-0.2,1.7l-1-0.1c-0.5,0-0.9,0.1-1.2,0.3c-0.3,0.2-0.6,0.5-0.8,1v5.8l1.5,0.3v1.2h-4.9v-1.2l1.5-0.3v-7.2
		L717.6,203.6z"/>
	<path class="st0" d="M733.1,205.6h-1.4l-0.3-1.2c-0.2-0.2-0.5-0.4-0.8-0.5c-0.3-0.1-0.7-0.2-1.1-0.2c-0.6,0-1.1,0.1-1.4,0.4
		c-0.3,0.3-0.5,0.6-0.5,1c0,0.4,0.1,0.7,0.4,0.9c0.3,0.2,0.8,0.4,1.7,0.6c1.3,0.3,2.2,0.6,2.8,1.1c0.6,0.5,0.9,1.1,0.9,1.9
		c0,0.9-0.4,1.6-1.1,2.2c-0.7,0.6-1.7,0.8-2.8,0.8c-0.8,0-1.4-0.1-2.1-0.3c-0.6-0.2-1.1-0.4-1.6-0.8l0-2.3h1.4l0.3,1.3
		c0.2,0.2,0.5,0.3,0.9,0.4c0.4,0.1,0.7,0.1,1.1,0.1c0.6,0,1.2-0.1,1.5-0.4c0.4-0.3,0.6-0.6,0.6-1c0-0.4-0.2-0.7-0.5-1
		c-0.3-0.3-0.9-0.5-1.7-0.7c-1.2-0.3-2.1-0.6-2.8-1.1c-0.6-0.5-0.9-1.1-0.9-1.9c0-0.8,0.3-1.5,1-2.1c0.7-0.6,1.6-0.9,2.7-0.9
		c0.8,0,1.4,0.1,2.1,0.3c0.6,0.2,1.1,0.5,1.5,0.8L733.1,205.6z"/>
	<path class="st0" d="M738.3,200v2.4h1.9v1.4h-1.9v6.1c0,0.5,0.1,0.8,0.3,1c0.2,0.2,0.5,0.3,0.8,0.3c0.2,0,0.3,0,0.5,0
		c0.2,0,0.4-0.1,0.5-0.1l0.3,1.3c-0.2,0.1-0.4,0.2-0.8,0.3c-0.3,0.1-0.7,0.1-1,0.1c-0.7,0-1.3-0.2-1.8-0.7c-0.4-0.4-0.7-1.2-0.7-2.1
		v-6.1h-1.6v-1.4h1.6V200H738.3z"/>
	<path class="st0" d="M746.6,215.1l1.5-0.3v-11l-1.5-0.3v-1.2h3.1l0.2,1.2c0.3-0.5,0.7-0.8,1.2-1c0.5-0.2,1-0.4,1.7-0.4
		c1.2,0,2.2,0.5,2.9,1.5c0.7,1,1,2.3,1,3.9v0.2c0,1.4-0.3,2.6-1,3.5c-0.7,0.9-1.6,1.3-2.9,1.3c-0.6,0-1.2-0.1-1.6-0.3
		c-0.5-0.2-0.9-0.5-1.2-0.9v3.5l1.5,0.3v1.2h-4.9V215.1z M754.8,207.6c0-1.1-0.2-2.1-0.7-2.8c-0.4-0.7-1.1-1.1-2-1.1
		c-0.5,0-1,0.1-1.3,0.4c-0.4,0.2-0.7,0.6-0.9,1v4.9c0.2,0.4,0.5,0.7,0.9,1c0.4,0.2,0.8,0.3,1.4,0.3c0.9,0,1.5-0.3,2-0.9
		s0.7-1.5,0.7-2.5V207.6z"/>
	<path class="st0" d="M762.9,212.6c-1.4,0-2.5-0.5-3.3-1.4c-0.8-0.9-1.2-2.1-1.2-3.6v-0.4c0-1.4,0.4-2.6,1.3-3.6
		c0.9-0.9,1.9-1.4,3-1.4c1.3,0,2.4,0.4,3.1,1.2c0.7,0.8,1,1.9,1,3.3v1.1h-6.5l0,0c0,1,0.3,1.8,0.7,2.4c0.5,0.6,1.1,0.9,2,0.9
		c0.6,0,1.2-0.1,1.6-0.3c0.5-0.2,0.9-0.4,1.2-0.7l0.7,1.2c-0.4,0.3-0.8,0.6-1.4,0.9C764.4,212.5,763.7,212.6,762.9,212.6z
		 M762.6,203.7c-0.6,0-1.1,0.3-1.6,0.8c-0.4,0.5-0.7,1.2-0.8,1.9l0,0h4.6v-0.2c0-0.7-0.2-1.3-0.6-1.8
		C763.9,203.9,763.4,203.7,762.6,203.7z"/>
	<path class="st0" d="M775.1,212.4c-0.1-0.3-0.1-0.5-0.1-0.7c0-0.2-0.1-0.4-0.1-0.6c-0.4,0.5-0.8,0.8-1.3,1.1
		c-0.5,0.3-1.1,0.4-1.7,0.4c-1,0-1.8-0.3-2.4-0.8c-0.5-0.5-0.8-1.2-0.8-2.2c0-1,0.4-1.7,1.2-2.2c0.8-0.5,1.8-0.8,3.2-0.8h1.9v-1.2
		c0-0.6-0.2-1.1-0.6-1.4c-0.4-0.3-0.9-0.5-1.6-0.5c-0.5,0-0.9,0.1-1.2,0.2c-0.3,0.1-0.6,0.3-0.8,0.5l-0.2,1.1h-1.4v-1.9
		c0.5-0.4,1-0.7,1.7-0.9c0.7-0.2,1.4-0.3,2.1-0.3c1.1,0,2.1,0.3,2.8,0.9c0.7,0.6,1.1,1.4,1.1,2.5v4.8c0,0.1,0,0.3,0,0.4
		c0,0.1,0,0.2,0,0.4l0.7,0.1v1.2H775.1z M772.1,211.1c0.6,0,1.2-0.1,1.7-0.4c0.5-0.3,0.9-0.6,1.1-1V208h-1.9c-0.7,0-1.3,0.2-1.8,0.5
		c-0.4,0.3-0.7,0.8-0.7,1.3c0,0.4,0.1,0.8,0.4,1C771.2,211,771.6,211.1,772.1,211.1z"/>
	<path class="st0" d="M778.7,199.2V198h3.3v8.4h1.2l2.1-2.7l-0.9-0.1v-1.2h4.2v1.2l-1.2,0.2l-2.6,3.2l3.2,4.1l1.1,0.2v1.2H785v-1.2
		l0.9-0.1l-2.7-3.3h-1.2v3.2l1.5,0.3v1.2h-4.9v-1.2l1.5-0.3v-11.6L778.7,199.2z"/>
	<path class="st0" d="M615,234.4c-0.1-0.3-0.1-0.5-0.1-0.7c0-0.2-0.1-0.4-0.1-0.6c-0.4,0.5-0.8,0.8-1.3,1.1
		c-0.5,0.3-1.1,0.4-1.7,0.4c-1,0-1.8-0.3-2.4-0.8c-0.5-0.5-0.8-1.2-0.8-2.2c0-1,0.4-1.7,1.2-2.2c0.8-0.5,1.8-0.8,3.2-0.8h1.9v-1.2
		c0-0.6-0.2-1.1-0.6-1.4c-0.4-0.3-0.9-0.5-1.6-0.5c-0.5,0-0.9,0.1-1.2,0.2c-0.3,0.1-0.6,0.3-0.8,0.5l-0.2,1.1H609v-1.9
		c0.5-0.4,1-0.7,1.7-0.9c0.7-0.2,1.4-0.3,2.1-0.3c1.1,0,2.1,0.3,2.8,0.9c0.7,0.6,1.1,1.4,1.1,2.5v4.8c0,0.1,0,0.3,0,0.4
		c0,0.1,0,0.2,0,0.4l0.7,0.1v1.2H615z M612,233.1c0.6,0,1.2-0.1,1.7-0.4c0.5-0.3,0.9-0.6,1.1-1V230h-1.9c-0.7,0-1.3,0.2-1.8,0.5
		c-0.4,0.3-0.7,0.8-0.7,1.3c0,0.4,0.1,0.8,0.4,1C611.1,233,611.5,233.1,612,233.1z"/>
	<path class="st0" d="M618.6,233.3l1.5-0.3v-7.2l-1.5-0.3v-1.2h3.1l0.1,1.5c0.3-0.5,0.8-0.9,1.3-1.2c0.5-0.3,1.1-0.4,1.7-0.4
		c1.1,0,1.9,0.3,2.5,1c0.6,0.6,0.9,1.6,0.9,2.9v4.9l1.5,0.3v1.2h-4.9v-1.2l1.5-0.3v-4.9c0-0.9-0.2-1.5-0.5-1.9s-0.9-0.6-1.6-0.6
		c-0.5,0-1,0.1-1.4,0.4c-0.4,0.3-0.7,0.6-1,1v5.9l1.5,0.3v1.2h-4.9V233.3z"/>
	<path class="st0" d="M637.8,233.3c-0.3,0.5-0.7,0.8-1.2,1s-1,0.4-1.6,0.4c-1.2,0-2.2-0.4-2.9-1.3c-0.7-0.9-1-2.1-1-3.5v-0.2
		c0-1.6,0.3-2.9,1-3.9c0.7-1,1.7-1.5,2.9-1.5c0.6,0,1.1,0.1,1.6,0.3c0.5,0.2,0.8,0.5,1.2,1v-4.1l-1.5-0.3V220h1.5h1.8v13l1.5,0.3
		v1.2h-3.1L637.8,233.3z M632.9,229.8c0,1,0.2,1.8,0.6,2.4s1.1,0.9,1.9,0.9c0.5,0,1-0.1,1.4-0.4c0.4-0.2,0.7-0.6,0.9-1v-4.7
		c-0.2-0.4-0.5-0.8-0.9-1c-0.4-0.2-0.8-0.4-1.4-0.4c-0.9,0-1.5,0.4-1.9,1.1c-0.4,0.7-0.6,1.7-0.6,2.8V229.8z"/>
	<path class="st0" d="M646.9,237.1l1.5-0.3v-11l-1.5-0.3v-1.2h3.1l0.2,1.2c0.3-0.5,0.7-0.8,1.2-1c0.5-0.2,1-0.4,1.7-0.4
		c1.2,0,2.2,0.5,2.9,1.5c0.7,1,1,2.3,1,3.9v0.2c0,1.4-0.3,2.6-1,3.5c-0.7,0.9-1.6,1.3-2.9,1.3c-0.6,0-1.2-0.1-1.6-0.3
		c-0.5-0.2-0.9-0.5-1.2-0.9v3.5l1.5,0.3v1.2h-4.9V237.1z M655.2,229.6c0-1.1-0.2-2.1-0.7-2.8c-0.4-0.7-1.1-1.1-2-1.1
		c-0.5,0-1,0.1-1.3,0.4c-0.4,0.2-0.7,0.6-0.9,1v4.9c0.2,0.4,0.5,0.7,0.9,1c0.4,0.2,0.8,0.3,1.4,0.3c0.9,0,1.5-0.3,2-0.9
		s0.7-1.5,0.7-2.5V229.6z"/>
	<path class="st0" d="M658.7,225.6v-1.2h3.1l0.2,1.5c0.3-0.5,0.6-0.9,1.1-1.2c0.4-0.3,0.9-0.4,1.4-0.4c0.1,0,0.3,0,0.4,0
		c0.2,0,0.3,0,0.3,0.1L665,226l-1-0.1c-0.5,0-0.9,0.1-1.2,0.3c-0.3,0.2-0.6,0.5-0.8,1v5.8l1.5,0.3v1.2h-4.9v-1.2l1.5-0.3v-7.2
		L658.7,225.6z"/>
	<path class="st0" d="M670.9,234.6c-1.4,0-2.5-0.5-3.3-1.4c-0.8-0.9-1.2-2.1-1.2-3.6v-0.4c0-1.4,0.4-2.6,1.3-3.6
		c0.8-0.9,1.9-1.4,3-1.4c1.3,0,2.4,0.4,3.1,1.2s1,1.9,1,3.3v1.1h-6.5l0,0c0,1,0.3,1.8,0.7,2.4c0.5,0.6,1.1,0.9,2,0.9
		c0.6,0,1.2-0.1,1.6-0.3c0.5-0.2,0.9-0.4,1.2-0.7l0.7,1.2c-0.4,0.3-0.8,0.6-1.4,0.9C672.5,234.5,671.7,234.6,670.9,234.6z
		 M670.6,225.7c-0.6,0-1.1,0.3-1.6,0.8c-0.4,0.5-0.7,1.2-0.8,1.9l0,0h4.6v-0.2c0-0.7-0.2-1.3-0.6-1.8S671.4,225.7,670.6,225.7z"/>
	<path class="st0" d="M684.2,227.6h-1.4l-0.3-1.2c-0.2-0.2-0.5-0.4-0.8-0.5c-0.3-0.1-0.7-0.2-1.1-0.2c-0.6,0-1.1,0.1-1.4,0.4
		c-0.3,0.3-0.5,0.6-0.5,1c0,0.4,0.1,0.7,0.4,0.9c0.3,0.2,0.8,0.4,1.7,0.6c1.3,0.3,2.2,0.6,2.8,1.1c0.6,0.5,0.9,1.1,0.9,1.9
		c0,0.9-0.4,1.6-1.1,2.2c-0.7,0.6-1.7,0.8-2.8,0.8c-0.8,0-1.4-0.1-2.1-0.3c-0.6-0.2-1.1-0.4-1.6-0.8l0-2.3h1.4l0.3,1.3
		c0.2,0.2,0.5,0.3,0.9,0.4c0.4,0.1,0.7,0.1,1.1,0.1c0.7,0,1.2-0.1,1.5-0.4c0.4-0.3,0.6-0.6,0.6-1c0-0.4-0.2-0.7-0.5-1
		s-0.9-0.5-1.7-0.7c-1.2-0.3-2.1-0.6-2.8-1.1c-0.6-0.5-0.9-1.1-0.9-1.9c0-0.8,0.3-1.5,1-2.1s1.6-0.9,2.7-0.9c0.8,0,1.4,0.1,2.1,0.3
		c0.6,0.2,1.1,0.5,1.5,0.8L684.2,227.6z"/>
	<path class="st0" d="M690.8,234.6c-1.4,0-2.5-0.5-3.3-1.4c-0.8-0.9-1.2-2.1-1.2-3.6v-0.4c0-1.4,0.4-2.6,1.3-3.6
		c0.8-0.9,1.9-1.4,3-1.4c1.3,0,2.4,0.4,3.1,1.2s1,1.9,1,3.3v1.1h-6.5l0,0c0,1,0.3,1.8,0.7,2.4c0.5,0.6,1.1,0.9,2,0.9
		c0.6,0,1.2-0.1,1.6-0.3c0.5-0.2,0.9-0.4,1.2-0.7l0.7,1.2c-0.4,0.3-0.8,0.6-1.4,0.9C692.4,234.5,691.6,234.6,690.8,234.6z
		 M690.5,225.7c-0.6,0-1.1,0.3-1.6,0.8c-0.4,0.5-0.7,1.2-0.8,1.9l0,0h4.6v-0.2c0-0.7-0.2-1.3-0.6-1.8S691.3,225.7,690.5,225.7z"/>
	<path class="st0" d="M696.2,233.3l1.5-0.3v-7.2l-1.5-0.3v-1.2h3.1l0.1,1.5c0.3-0.5,0.8-0.9,1.3-1.2c0.5-0.3,1.1-0.4,1.7-0.4
		c1.1,0,1.9,0.3,2.5,1c0.6,0.6,0.9,1.6,0.9,2.9v4.9l1.5,0.3v1.2h-4.9v-1.2l1.5-0.3v-4.9c0-0.9-0.2-1.5-0.5-1.9s-0.9-0.6-1.6-0.6
		c-0.5,0-1,0.1-1.4,0.4c-0.4,0.3-0.7,0.6-1,1v5.9l1.5,0.3v1.2h-4.9V233.3z"/>
	<path class="st0" d="M711.9,222v2.4h1.9v1.4h-1.9v6.1c0,0.5,0.1,0.8,0.3,1c0.2,0.2,0.5,0.3,0.8,0.3c0.2,0,0.3,0,0.5,0
		c0.2,0,0.4-0.1,0.5-0.1l0.3,1.3c-0.2,0.1-0.4,0.2-0.8,0.3c-0.3,0.1-0.7,0.1-1,0.1c-0.7,0-1.3-0.2-1.8-0.7c-0.4-0.4-0.7-1.2-0.7-2.1
		v-6.1h-1.6v-1.4h1.6V222H711.9z"/>
	<path class="st0" d="M720,233.3l1.5-0.3v-7.2l-1.5-0.3v-1.2h3.2l0.1,1.3c0.3-0.5,0.7-0.8,1.2-1.1s1.1-0.4,1.8-0.4s1.2,0.2,1.7,0.5
		c0.5,0.3,0.8,0.8,1.1,1.4c0.3-0.6,0.7-1,1.3-1.4s1.1-0.5,1.8-0.5c1,0,1.8,0.4,2.4,1.1c0.6,0.7,0.9,1.8,0.9,3.2v4.6l1.5,0.3v1.2
		h-4.9v-1.2l1.5-0.3v-4.6c0-1-0.2-1.7-0.5-2.1c-0.3-0.4-0.8-0.6-1.5-0.6c-0.6,0-1.2,0.2-1.5,0.7c-0.4,0.4-0.6,1-0.7,1.7v4.9l1.5,0.3
		v1.2h-4.9v-1.2l1.5-0.3v-4.6c0-0.9-0.2-1.6-0.5-2.1c-0.3-0.4-0.9-0.7-1.5-0.7c-0.6,0-1,0.1-1.4,0.3c-0.4,0.2-0.6,0.6-0.8,1v6
		l1.5,0.3v1.2H720V233.3z"/>
	<path class="st0" d="M738.2,229.3c0-1.5,0.4-2.7,1.2-3.7c0.8-1,1.9-1.4,3.3-1.4c1.4,0,2.5,0.5,3.3,1.4c0.8,1,1.2,2.2,1.2,3.7v0.2
		c0,1.5-0.4,2.7-1.2,3.7c-0.8,1-1.9,1.4-3.3,1.4c-1.4,0-2.5-0.5-3.3-1.4c-0.8-1-1.2-2.2-1.2-3.7V229.3z M740.1,229.5
		c0,1.1,0.2,1.9,0.7,2.6c0.4,0.7,1.1,1,2,1c0.9,0,1.5-0.3,2-1c0.5-0.7,0.7-1.6,0.7-2.6v-0.2c0-1.1-0.2-1.9-0.7-2.6
		c-0.5-0.7-1.1-1-2-1s-1.5,0.3-2,1c-0.4,0.7-0.7,1.6-0.7,2.6V229.5z"/>
	<path class="st0" d="M748.5,233.3l1.5-0.3v-7.2l-1.5-0.3v-1.2h3.2l0.1,1.3c0.3-0.5,0.7-0.8,1.2-1.1s1.1-0.4,1.8-0.4
		s1.2,0.2,1.7,0.5c0.5,0.3,0.8,0.8,1.1,1.4c0.3-0.6,0.7-1,1.3-1.4s1.1-0.5,1.8-0.5c1,0,1.8,0.4,2.4,1.1c0.6,0.7,0.9,1.8,0.9,3.2v4.6
		l1.5,0.3v1.2h-4.9v-1.2l1.5-0.3v-4.6c0-1-0.2-1.7-0.5-2.1c-0.3-0.4-0.8-0.6-1.5-0.6c-0.6,0-1.2,0.2-1.5,0.7c-0.4,0.4-0.6,1-0.7,1.7
		v4.9l1.5,0.3v1.2h-4.9v-1.2l1.5-0.3v-4.6c0-0.9-0.2-1.6-0.5-2.1c-0.3-0.4-0.9-0.7-1.5-0.7c-0.6,0-1,0.1-1.4,0.3
		c-0.4,0.2-0.6,0.6-0.8,1v6l1.5,0.3v1.2h-4.9V233.3z"/>
	<path class="st0" d="M771.3,234.6c-1.4,0-2.5-0.5-3.3-1.4c-0.8-0.9-1.2-2.1-1.2-3.6v-0.4c0-1.4,0.4-2.6,1.3-3.6
		c0.8-0.9,1.9-1.4,3-1.4c1.3,0,2.4,0.4,3.1,1.2s1,1.9,1,3.3v1.1h-6.5l0,0c0,1,0.3,1.8,0.7,2.4c0.5,0.6,1.1,0.9,2,0.9
		c0.6,0,1.2-0.1,1.6-0.3c0.5-0.2,0.9-0.4,1.2-0.7l0.7,1.2c-0.4,0.3-0.8,0.6-1.4,0.9C772.9,234.5,772.1,234.6,771.3,234.6z
		 M771,225.7c-0.6,0-1.1,0.3-1.6,0.8c-0.4,0.5-0.7,1.2-0.8,1.9l0,0h4.6v-0.2c0-0.7-0.2-1.3-0.6-1.8S771.8,225.7,771,225.7z"/>
	<path class="st0" d="M776.7,233.3l1.5-0.3v-7.2l-1.5-0.3v-1.2h3.1l0.1,1.5c0.3-0.5,0.8-0.9,1.3-1.2c0.5-0.3,1.1-0.4,1.7-0.4
		c1.1,0,1.9,0.3,2.5,1c0.6,0.6,0.9,1.6,0.9,2.9v4.9l1.5,0.3v1.2H783v-1.2l1.5-0.3v-4.9c0-0.9-0.2-1.5-0.5-1.9s-0.9-0.6-1.6-0.6
		c-0.5,0-1,0.1-1.4,0.4c-0.4,0.3-0.7,0.6-1,1v5.9l1.5,0.3v1.2h-4.9V233.3z"/>
	<path class="st0" d="M792.4,222v2.4h1.9v1.4h-1.9v6.1c0,0.5,0.1,0.8,0.3,1c0.2,0.2,0.5,0.3,0.8,0.3c0.2,0,0.3,0,0.5,0
		c0.2,0,0.4-0.1,0.5-0.1l0.3,1.3c-0.2,0.1-0.4,0.2-0.8,0.3c-0.3,0.1-0.7,0.1-1,0.1c-0.7,0-1.3-0.2-1.8-0.7c-0.4-0.4-0.7-1.2-0.7-2.1
		v-6.1H789v-1.4h1.6V222H792.4z"/>
</g>
<g>
	<g>
		<rect x="700" y="257.2" class="st2" width="2.9" height="2.4"/>
	</g>
	<g>
		<path class="st2" d="M702.9,284.2H700v-4.1h2.9V284.2z M702.9,276H700v-4.1h2.9V276z M702.9,267.8H700v-4.1h2.9V267.8z"/>
	</g>
	<g>
		<rect x="700" y="288.3" class="st2" width="2.9" height="2.4"/>
	</g>
	<g>
		<g>
			<path class="st2" d="M701.5,299.4c-1.5-4.1-4.1-9.1-6.8-12.3l6.8,2.5l6.8-2.5C705.5,290.2,703,295.3,701.5,299.4z"/>
		</g>
	</g>
</g>
<g id="rettp_x5F_02_1_">
	<rect x="594.5" y="301.7" class="st2" width="213.8" height="81.9"/>
	<path class="st2" d="M809.9,385.1H593v-84.9h216.8V385.1z M596,382.1h210.8v-78.9H596V382.1z"/>
</g>
<g id="rettv_x5F_02_1_">
	<rect x="572.5" y="301.7" class="st4" width="257.9" height="81.9"/>
	<path class="st2" d="M832.1,385.2H570.9V300h261.2V385.2z M574.1,382h254.6v-78.6H574.1V382z"/>
</g>
<g id="text1_x5F_02_1_">
	<path class="st0" d="M631,329.3h-1.4l-0.3-1.9c-0.3-0.2-0.6-0.4-1.1-0.6c-0.5-0.2-1-0.2-1.6-0.2c-1,0-1.7,0.2-2.2,0.6
		c-0.5,0.4-0.8,0.9-0.8,1.6c0,0.6,0.3,1.1,0.8,1.5c0.5,0.4,1.4,0.7,2.6,1c1.4,0.4,2.5,0.9,3.2,1.6c0.7,0.7,1.1,1.5,1.1,2.6
		c0,1.1-0.4,2-1.3,2.6c-0.9,0.7-2,1-3.5,1c-1,0-2-0.2-2.8-0.5c-0.8-0.3-1.5-0.8-2-1.3v-2.5h1.4l0.4,1.9c0.4,0.3,0.8,0.5,1.3,0.7
		c0.5,0.2,1.1,0.3,1.8,0.3c0.9,0,1.7-0.2,2.2-0.6s0.8-0.9,0.8-1.6c0-0.6-0.2-1.1-0.7-1.6c-0.5-0.4-1.3-0.8-2.5-1.1
		c-1.4-0.3-2.5-0.8-3.3-1.5c-0.8-0.7-1.2-1.5-1.2-2.5c0-1.1,0.4-1.9,1.3-2.6c0.9-0.7,2.1-1.1,3.5-1.1c0.9,0,1.8,0.2,2.6,0.5
		c0.8,0.3,1.4,0.7,1.9,1.2V329.3z"/>
	<path class="st0" d="M637.5,339c-1.4,0-2.5-0.5-3.3-1.4c-0.8-0.9-1.2-2.1-1.2-3.6v-0.4c0-1.4,0.4-2.6,1.3-3.6
		c0.8-0.9,1.9-1.4,3-1.4c1.3,0,2.4,0.4,3.1,1.2s1,1.9,1,3.3v1.1h-6.5l0,0c0,1,0.3,1.8,0.7,2.4c0.5,0.6,1.1,0.9,2,0.9
		c0.6,0,1.2-0.1,1.6-0.3c0.5-0.2,0.9-0.4,1.2-0.7l0.7,1.2c-0.4,0.3-0.8,0.6-1.4,0.9C639.1,338.9,638.4,339,637.5,339z M637.3,330.1
		c-0.6,0-1.1,0.3-1.6,0.8c-0.4,0.5-0.7,1.2-0.8,1.9l0,0h4.6v-0.2c0-0.7-0.2-1.3-0.6-1.8S638,330.1,637.3,330.1z"/>
	<path class="st0" d="M646.4,326.4v2.4h1.9v1.4h-1.9v6.1c0,0.5,0.1,0.8,0.3,1c0.2,0.2,0.5,0.3,0.8,0.3c0.2,0,0.3,0,0.5,0
		c0.2,0,0.4-0.1,0.5-0.1l0.3,1.3c-0.2,0.1-0.4,0.2-0.8,0.3c-0.3,0.1-0.7,0.1-1,0.1c-0.7,0-1.3-0.2-1.8-0.7c-0.4-0.4-0.7-1.2-0.7-2.1
		v-6.1H643v-1.4h1.6v-2.4H646.4z"/>
	<path class="st0" d="M658,326.4v2.4h1.9v1.4H658v6.1c0,0.5,0.1,0.8,0.3,1c0.2,0.2,0.5,0.3,0.8,0.3c0.2,0,0.3,0,0.5,0
		c0.2,0,0.4-0.1,0.5-0.1l0.3,1.3c-0.2,0.1-0.4,0.2-0.8,0.3c-0.3,0.1-0.7,0.1-1,0.1c-0.7,0-1.3-0.2-1.8-0.7c-0.4-0.4-0.7-1.2-0.7-2.1
		v-6.1h-1.6v-1.4h1.6v-2.4H658z"/>
	<path class="st0" d="M661.6,337.7l1.5-0.3v-11.6l-1.5-0.3v-1.2h3.3v5.8c0.3-0.5,0.8-0.9,1.3-1.1c0.5-0.3,1.1-0.4,1.7-0.4
		c1.1,0,1.9,0.3,2.5,1c0.6,0.6,0.9,1.6,0.9,3v4.9l1.5,0.3v1.2h-4.9v-1.2l1.5-0.3v-4.9c0-0.8-0.2-1.4-0.5-1.8
		c-0.4-0.4-0.9-0.6-1.6-0.6c-0.5,0-1,0.1-1.4,0.4c-0.4,0.2-0.8,0.6-1,1v6l1.5,0.3v1.2h-4.9V337.7z"/>
	<path class="st0" d="M678.6,339c-1.4,0-2.5-0.5-3.3-1.4c-0.8-0.9-1.2-2.1-1.2-3.6v-0.4c0-1.4,0.4-2.6,1.3-3.6
		c0.9-0.9,1.9-1.4,3-1.4c1.3,0,2.4,0.4,3.1,1.2c0.7,0.8,1,1.9,1,3.3v1.1h-6.5l0,0c0,1,0.3,1.8,0.7,2.4c0.5,0.6,1.1,0.9,2,0.9
		c0.6,0,1.2-0.1,1.6-0.3c0.5-0.2,0.9-0.4,1.2-0.7l0.7,1.2c-0.4,0.3-0.8,0.6-1.4,0.9C680.1,338.9,679.4,339,678.6,339z M678.3,330.1
		c-0.6,0-1.1,0.3-1.6,0.8c-0.4,0.5-0.7,1.2-0.8,1.9l0,0h4.6v-0.2c0-0.7-0.2-1.3-0.6-1.8C679.6,330.3,679,330.1,678.3,330.1z"/>
	<path class="st0" d="M683.8,337.7l1.5-0.3v-7.2l-1.5-0.3v-1.2h3.2l0.1,1.3c0.3-0.5,0.7-0.8,1.2-1.1c0.5-0.3,1.1-0.4,1.8-0.4
		s1.2,0.2,1.7,0.5c0.5,0.3,0.8,0.8,1.1,1.4c0.3-0.6,0.7-1,1.3-1.4s1.1-0.5,1.8-0.5c1,0,1.8,0.4,2.4,1.1c0.6,0.7,0.9,1.8,0.9,3.2v4.6
		l1.5,0.3v1.2H696v-1.2l1.5-0.3v-4.6c0-1-0.2-1.7-0.5-2.1c-0.3-0.4-0.8-0.6-1.5-0.6c-0.6,0-1.1,0.2-1.5,0.7c-0.4,0.4-0.6,1-0.7,1.7
		v4.9l1.5,0.3v1.2h-4.9v-1.2l1.5-0.3v-4.6c0-0.9-0.2-1.6-0.5-2.1c-0.3-0.4-0.9-0.7-1.5-0.7c-0.6,0-1,0.1-1.4,0.3
		c-0.4,0.2-0.6,0.6-0.8,1v6l1.5,0.3v1.2h-4.9V337.7z"/>
	<path class="st0" d="M713.4,338.9c-0.1-0.3-0.1-0.5-0.1-0.7c0-0.2-0.1-0.4-0.1-0.6c-0.4,0.5-0.8,0.8-1.3,1.1
		c-0.5,0.3-1.1,0.4-1.7,0.4c-1,0-1.8-0.3-2.4-0.8c-0.5-0.5-0.8-1.2-0.8-2.2c0-1,0.4-1.7,1.2-2.2c0.8-0.5,1.8-0.8,3.2-0.8h1.9V332
		c0-0.6-0.2-1.1-0.6-1.4c-0.4-0.3-0.9-0.5-1.6-0.5c-0.5,0-0.9,0.1-1.2,0.2c-0.3,0.1-0.6,0.3-0.8,0.5l-0.2,1.1h-1.4v-1.9
		c0.5-0.4,1-0.7,1.7-0.9c0.7-0.2,1.4-0.3,2.1-0.3c1.1,0,2.1,0.3,2.8,0.9c0.7,0.6,1.1,1.4,1.1,2.5v4.8c0,0.1,0,0.3,0,0.4
		c0,0.1,0,0.2,0,0.4l0.7,0.1v1.2H713.4z M710.5,337.5c0.6,0,1.2-0.1,1.7-0.4c0.5-0.3,0.9-0.6,1.1-1v-1.7h-1.9
		c-0.7,0-1.3,0.2-1.8,0.5c-0.4,0.3-0.7,0.8-0.7,1.3c0,0.4,0.1,0.8,0.4,1C709.5,337.4,709.9,337.5,710.5,337.5z"/>
	<path class="st0" d="M725,332h-1.4l-0.3-1.2c-0.2-0.2-0.5-0.4-0.8-0.5c-0.3-0.1-0.7-0.2-1.1-0.2c-0.6,0-1.1,0.1-1.4,0.4
		c-0.3,0.3-0.5,0.6-0.5,1c0,0.4,0.1,0.7,0.4,0.9c0.3,0.2,0.8,0.4,1.7,0.6c1.3,0.3,2.2,0.6,2.8,1.1c0.6,0.5,0.9,1.1,0.9,1.9
		c0,0.9-0.4,1.6-1.1,2.2c-0.7,0.6-1.7,0.8-2.8,0.8c-0.8,0-1.4-0.1-2.1-0.3c-0.6-0.2-1.1-0.4-1.6-0.8l0-2.3h1.4l0.3,1.3
		c0.2,0.2,0.5,0.3,0.9,0.4c0.4,0.1,0.7,0.1,1.1,0.1c0.6,0,1.2-0.1,1.5-0.4c0.4-0.3,0.6-0.6,0.6-1c0-0.4-0.2-0.7-0.5-1
		c-0.3-0.3-0.9-0.5-1.7-0.7c-1.2-0.3-2.1-0.6-2.8-1.1c-0.6-0.5-0.9-1.1-0.9-1.9c0-0.8,0.3-1.5,1-2.1c0.7-0.6,1.6-0.9,2.7-0.9
		c0.8,0,1.4,0.1,2.1,0.3c0.6,0.2,1.1,0.5,1.5,0.8L725,332z"/>
	<path class="st0" d="M731.7,330v-1.2h3.1l0.2,1.5c0.3-0.5,0.6-0.9,1.1-1.2c0.4-0.3,0.9-0.4,1.4-0.4c0.1,0,0.3,0,0.4,0
		c0.2,0,0.3,0,0.3,0.1l-0.2,1.7l-1-0.1c-0.5,0-0.9,0.1-1.2,0.3c-0.3,0.2-0.6,0.5-0.8,1v5.8l1.5,0.3v1.2h-4.9v-1.2l1.5-0.3v-7.2
		L731.7,330z"/>
	<path class="st0" d="M746.2,338.9c-0.1-0.3-0.1-0.5-0.1-0.7c0-0.2-0.1-0.4-0.1-0.6c-0.4,0.5-0.8,0.8-1.3,1.1
		c-0.5,0.3-1.1,0.4-1.7,0.4c-1,0-1.8-0.3-2.4-0.8c-0.5-0.5-0.8-1.2-0.8-2.2c0-1,0.4-1.7,1.2-2.2c0.8-0.5,1.8-0.8,3.2-0.8h1.9V332
		c0-0.6-0.2-1.1-0.6-1.4c-0.4-0.3-0.9-0.5-1.6-0.5c-0.5,0-0.9,0.1-1.2,0.2c-0.3,0.1-0.6,0.3-0.8,0.5l-0.2,1.1h-1.4v-1.9
		c0.5-0.4,1-0.7,1.7-0.9c0.7-0.2,1.4-0.3,2.1-0.3c1.1,0,2.1,0.3,2.8,0.9c0.7,0.6,1.1,1.4,1.1,2.5v4.8c0,0.1,0,0.3,0,0.4
		c0,0.1,0,0.2,0,0.4l0.7,0.1v1.2H746.2z M743.2,337.5c0.6,0,1.2-0.1,1.7-0.4c0.5-0.3,0.9-0.6,1.1-1v-1.7H744c-0.7,0-1.3,0.2-1.8,0.5
		c-0.4,0.3-0.7,0.8-0.7,1.3c0,0.4,0.1,0.8,0.4,1C742.3,337.4,742.7,337.5,743.2,337.5z"/>
	<path class="st0" d="M749.8,337.7l1.5-0.3v-7.2l-1.5-0.3v-1.2h3.1l0.1,1.5c0.3-0.5,0.8-0.9,1.3-1.2c0.5-0.3,1.1-0.4,1.7-0.4
		c1.1,0,1.9,0.3,2.5,1c0.6,0.6,0.9,1.6,0.9,2.9v4.9l1.5,0.3v1.2h-4.9v-1.2l1.5-0.3v-4.9c0-0.9-0.2-1.5-0.5-1.9s-0.9-0.6-1.6-0.6
		c-0.5,0-1,0.1-1.4,0.4c-0.4,0.3-0.7,0.6-1,1v5.9l1.5,0.3v1.2h-4.9V337.7z"/>
	<path class="st0" d="M762.2,334c0-1.6,0.4-2.9,1.1-3.9c0.7-1,1.7-1.5,2.9-1.5c0.6,0,1.2,0.1,1.7,0.4c0.5,0.2,0.9,0.6,1.2,1.1
		l0.2-1.3h1.5v9.9c0,1.3-0.4,2.3-1.1,3.1c-0.7,0.7-1.8,1.1-3.1,1.1c-0.5,0-1-0.1-1.6-0.2c-0.6-0.1-1.1-0.3-1.5-0.5l0.5-1.4
		c0.3,0.2,0.7,0.3,1.2,0.4c0.5,0.1,0.9,0.2,1.4,0.2c0.8,0,1.4-0.2,1.8-0.7c0.4-0.5,0.6-1.1,0.6-2v-1c-0.3,0.4-0.7,0.7-1.2,1
		s-1,0.3-1.6,0.3c-1.2,0-2.2-0.4-2.9-1.3s-1.1-2.1-1.1-3.5V334z M764,334.2c0,1,0.2,1.8,0.6,2.4c0.4,0.6,1.1,0.9,1.9,0.9
		c0.6,0,1-0.1,1.4-0.4c0.4-0.3,0.7-0.6,0.9-1.1v-4.6c-0.2-0.4-0.5-0.8-0.9-1c-0.4-0.3-0.8-0.4-1.4-0.4c-0.9,0-1.5,0.4-2,1.1
		c-0.4,0.7-0.7,1.7-0.7,2.8V334.2z"/>
	<path class="st0" d="M777.5,339c-1.4,0-2.5-0.5-3.3-1.4c-0.8-0.9-1.2-2.1-1.2-3.6v-0.4c0-1.4,0.4-2.6,1.3-3.6
		c0.8-0.9,1.9-1.4,3-1.4c1.3,0,2.4,0.4,3.1,1.2s1,1.9,1,3.3v1.1h-6.5l0,0c0,1,0.3,1.8,0.7,2.4c0.5,0.6,1.1,0.9,2,0.9
		c0.6,0,1.2-0.1,1.6-0.3c0.5-0.2,0.9-0.4,1.2-0.7l0.7,1.2c-0.4,0.3-0.8,0.6-1.4,0.9C779.1,338.9,778.4,339,777.5,339z M777.3,330.1
		c-0.6,0-1.1,0.3-1.6,0.8c-0.4,0.5-0.7,1.2-0.8,1.9l0,0h4.6v-0.2c0-0.7-0.2-1.3-0.6-1.8S778,330.1,777.3,330.1z"/>
	<path class="st0" d="M614.1,361c-1.4,0-2.5-0.5-3.3-1.4c-0.8-0.9-1.2-2.1-1.2-3.6v-0.4c0-1.4,0.4-2.6,1.3-3.6
		c0.9-0.9,1.9-1.4,3-1.4c1.3,0,2.4,0.4,3.1,1.2c0.7,0.8,1,1.9,1,3.3v1.1h-6.5l0,0c0,1,0.3,1.8,0.7,2.4c0.5,0.6,1.1,0.9,2,0.9
		c0.6,0,1.2-0.1,1.6-0.3c0.5-0.2,0.9-0.4,1.2-0.7l0.7,1.2c-0.4,0.3-0.8,0.6-1.4,0.9C615.6,360.9,614.9,361,614.1,361z M613.8,352.1
		c-0.6,0-1.1,0.3-1.6,0.8c-0.4,0.5-0.7,1.2-0.8,1.9l0,0h4.6v-0.2c0-0.7-0.2-1.3-0.6-1.8C615.1,352.3,614.5,352.1,613.8,352.1z"/>
	<path class="st0" d="M619.4,359.7l1.1-0.2l3-3.7l-2.9-3.6l-1.1-0.2v-1.2h3.9v1.2l-0.9,0.1l1.9,2.4l1.9-2.4l-0.9-0.1v-1.2h4v1.2
		l-1.1,0.2l-2.9,3.6l3,3.7l1.1,0.2v1.2h-3.9v-1.2l0.9-0.1l-2-2.5l-2,2.5l0.9,0.1v1.2h-4V359.7z"/>
	<path class="st0" d="M633.9,348.4v2.4h1.9v1.4h-1.9v6.1c0,0.5,0.1,0.8,0.3,1c0.2,0.2,0.5,0.3,0.8,0.3c0.2,0,0.3,0,0.5,0
		c0.2,0,0.4-0.1,0.5-0.1l0.3,1.3c-0.2,0.1-0.4,0.2-0.8,0.3c-0.3,0.1-0.7,0.1-1,0.1c-0.7,0-1.3-0.2-1.8-0.7c-0.4-0.4-0.7-1.2-0.7-2.1
		v-6.1h-1.6v-1.4h1.6v-2.4H633.9z"/>
	<path class="st0" d="M637.7,352v-1.2h3.1l0.2,1.5c0.3-0.5,0.6-0.9,1.1-1.2c0.4-0.3,0.9-0.4,1.4-0.4c0.1,0,0.3,0,0.4,0
		c0.2,0,0.3,0,0.3,0.1l-0.2,1.7l-1-0.1c-0.5,0-0.9,0.1-1.2,0.3c-0.3,0.2-0.6,0.5-0.8,1v5.8l1.5,0.3v1.2h-4.9v-1.2l1.5-0.3v-7.2
		L637.7,352z"/>
	<path class="st0" d="M650,361c-1.4,0-2.5-0.5-3.3-1.4c-0.8-0.9-1.2-2.1-1.2-3.6v-0.4c0-1.4,0.4-2.6,1.3-3.6c0.8-0.9,1.9-1.4,3-1.4
		c1.3,0,2.4,0.4,3.1,1.2s1,1.9,1,3.3v1.1h-6.5l0,0c0,1,0.3,1.8,0.7,2.4c0.5,0.6,1.1,0.9,2,0.9c0.6,0,1.2-0.1,1.6-0.3
		c0.5-0.2,0.9-0.4,1.2-0.7l0.7,1.2c-0.4,0.3-0.8,0.6-1.4,0.9C651.5,360.9,650.8,361,650,361z M649.7,352.1c-0.6,0-1.1,0.3-1.6,0.8
		c-0.4,0.5-0.7,1.2-0.8,1.9l0,0h4.6v-0.2c0-0.7-0.2-1.3-0.6-1.8S650.4,352.1,649.7,352.1z"/>
	<path class="st0" d="M655.2,359.7l1.5-0.3v-7.2l-1.5-0.3v-1.2h3.2l0.1,1.3c0.3-0.5,0.7-0.8,1.2-1.1s1.1-0.4,1.8-0.4
		s1.2,0.2,1.7,0.5c0.5,0.3,0.8,0.8,1.1,1.4c0.3-0.6,0.7-1,1.3-1.4s1.1-0.5,1.8-0.5c1,0,1.8,0.4,2.4,1.1c0.6,0.7,0.9,1.8,0.9,3.2v4.6
		l1.5,0.3v1.2h-4.9v-1.2l1.5-0.3v-4.6c0-1-0.2-1.7-0.5-2.1c-0.3-0.4-0.8-0.6-1.5-0.6c-0.6,0-1.2,0.2-1.5,0.7c-0.4,0.4-0.6,1-0.7,1.7
		v4.9l1.5,0.3v1.2h-4.9v-1.2l1.5-0.3v-4.6c0-0.9-0.2-1.6-0.5-2.1c-0.3-0.4-0.9-0.7-1.5-0.7c-0.6,0-1,0.1-1.4,0.3
		c-0.4,0.2-0.6,0.6-0.8,1v6l1.5,0.3v1.2h-4.9V359.7z"/>
	<path class="st0" d="M673.6,359.7l1.5-0.3v-7.2l-1.5-0.3v-1.2h3.3v8.6l1.5,0.3v1.2h-4.9V359.7z M676.9,348.2h-1.8v-1.9h1.8V348.2z"
		/>
	<path class="st0" d="M683,348.4v2.4h1.9v1.4H683v6.1c0,0.5,0.1,0.8,0.3,1c0.2,0.2,0.5,0.3,0.8,0.3c0.2,0,0.3,0,0.5,0
		c0.2,0,0.4-0.1,0.5-0.1l0.3,1.3c-0.2,0.1-0.4,0.2-0.8,0.3c-0.3,0.1-0.7,0.1-1,0.1c-0.7,0-1.3-0.2-1.8-0.7c-0.4-0.4-0.7-1.2-0.7-2.1
		v-6.1h-1.6v-1.4h1.6v-2.4H683z"/>
	<path class="st0" d="M686.8,359.7l1.5-0.3v-7.2l-1.5-0.3v-1.2h3.3v8.6l1.5,0.3v1.2h-4.9V359.7z M690.1,348.2h-1.8v-1.9h1.8V348.2z"
		/>
	<path class="st0" d="M697.6,361c-1.4,0-2.5-0.5-3.3-1.4c-0.8-0.9-1.2-2.1-1.2-3.6v-0.4c0-1.4,0.4-2.6,1.3-3.6
		c0.8-0.9,1.9-1.4,3-1.4c1.3,0,2.4,0.4,3.1,1.2s1,1.9,1,3.3v1.1h-6.5l0,0c0,1,0.3,1.8,0.7,2.4c0.5,0.6,1.1,0.9,2,0.9
		c0.6,0,1.2-0.1,1.6-0.3c0.5-0.2,0.9-0.4,1.2-0.7l0.7,1.2c-0.4,0.3-0.8,0.6-1.4,0.9C699.1,360.9,698.4,361,697.6,361z M697.3,352.1
		c-0.6,0-1.1,0.3-1.6,0.8c-0.4,0.5-0.7,1.2-0.8,1.9l0,0h4.6v-0.2c0-0.7-0.2-1.3-0.6-1.8S698.1,352.1,697.3,352.1z"/>
	<path class="st0" d="M710.9,354h-1.4l-0.3-1.2c-0.2-0.2-0.5-0.4-0.8-0.5c-0.3-0.1-0.7-0.2-1.1-0.2c-0.6,0-1.1,0.1-1.4,0.4
		c-0.3,0.3-0.5,0.6-0.5,1c0,0.4,0.1,0.7,0.4,0.9c0.3,0.2,0.8,0.4,1.7,0.6c1.3,0.3,2.2,0.6,2.8,1.1c0.6,0.5,0.9,1.1,0.9,1.9
		c0,0.9-0.4,1.6-1.1,2.2c-0.7,0.6-1.7,0.8-2.8,0.8c-0.8,0-1.4-0.1-2.1-0.3c-0.6-0.2-1.1-0.4-1.6-0.8l0-2.3h1.4l0.3,1.3
		c0.2,0.2,0.5,0.3,0.9,0.4c0.4,0.1,0.7,0.1,1.1,0.1c0.7,0,1.2-0.1,1.5-0.4c0.4-0.3,0.6-0.6,0.6-1c0-0.4-0.2-0.7-0.5-1
		s-0.9-0.5-1.7-0.7c-1.2-0.3-2.1-0.6-2.8-1.1c-0.6-0.5-0.9-1.1-0.9-1.9c0-0.8,0.3-1.5,1-2.1s1.6-0.9,2.7-0.9c0.8,0,1.4,0.1,2.1,0.3
		c0.6,0.2,1.1,0.5,1.5,0.8L710.9,354z"/>
	<path class="st0" d="M717.9,355.4c0-2.4,0.5-4.5,1.5-6.2c1-1.7,2-2.9,3.1-3.5l0.1,0l0.3,1.1c-0.8,0.7-1.6,1.7-2.2,3.2
		c-0.6,1.5-0.9,3.3-0.9,5.4v0.1c0,2.2,0.3,4,0.9,5.4c0.6,1.5,1.4,2.5,2.2,3.3l-0.3,1h-0.1c-1.1-0.6-2.1-1.7-3.1-3.4
		C718.3,360,717.9,357.9,717.9,355.4L717.9,355.4z"/>
	<path class="st0" d="M723.8,360.9v-1.3l4.4-4.9c0.8-0.9,1.3-1.6,1.6-2.1s0.4-1.1,0.4-1.6c0-0.7-0.2-1.2-0.6-1.7
		c-0.4-0.5-0.9-0.7-1.6-0.7c-0.9,0-1.6,0.2-2.1,0.7c-0.4,0.5-0.7,1.2-0.7,2h-1.8l0-0.1c0-1.2,0.4-2.1,1.2-2.9
		c0.8-0.8,1.9-1.2,3.3-1.2c1.2,0,2.2,0.4,2.9,1.1c0.7,0.7,1.1,1.6,1.1,2.7c0,0.7-0.2,1.5-0.7,2.2c-0.4,0.7-1.1,1.5-1.8,2.4l-3.6,3.9
		l0,0h4.8l0.1-1.5h1.5v3H723.8z"/>
	<path class="st0" d="M743.2,355.7c0,1.7-0.4,3-1.2,4c-0.8,0.9-1.8,1.4-3.1,1.4c-1.3,0-2.4-0.5-3.1-1.4c-0.8-0.9-1.2-2.2-1.2-4v-3.2
		c0-1.7,0.4-3,1.2-4c0.8-0.9,1.8-1.4,3.1-1.4c1.3,0,2.4,0.5,3.2,1.4c0.8,0.9,1.2,2.2,1.2,4V355.7z M741.3,352.1c0-1.2-0.2-2-0.6-2.6
		c-0.4-0.6-1-0.9-1.9-0.9c-0.8,0-1.4,0.3-1.8,0.9c-0.4,0.6-0.6,1.5-0.6,2.6v4c0,1.2,0.2,2.1,0.6,2.6c0.4,0.6,1,0.9,1.8,0.9
		c0.8,0,1.4-0.3,1.8-0.9s0.6-1.5,0.6-2.7V352.1z"/>
	<path class="st0" d="M745.4,359.7l2.1-0.3v-10.1l-2.1,0v-1.1l4-0.9v12.1l2.1,0.3v1.2h-6V359.7z"/>
	<path class="st0" d="M755.5,353.3h1.6c0.8,0,1.4-0.2,1.7-0.6c0.3-0.4,0.5-1,0.5-1.7c0-0.8-0.2-1.4-0.6-1.8
		c-0.4-0.4-0.9-0.6-1.7-0.6c-0.7,0-1.3,0.2-1.7,0.6c-0.4,0.4-0.6,1-0.6,1.7h-1.8l0-0.1c0-1,0.3-1.9,1.1-2.6c0.8-0.7,1.8-1.1,3-1.1
		c1.2,0,2.2,0.3,3,1c0.7,0.7,1.1,1.6,1.1,2.8c0,0.6-0.2,1.1-0.5,1.7c-0.3,0.6-0.8,1-1.5,1.3c0.8,0.3,1.4,0.7,1.7,1.3
		c0.3,0.6,0.5,1.2,0.5,1.9c0,1.2-0.4,2.2-1.2,2.9s-1.8,1.1-3.1,1.1c-1.2,0-2.3-0.3-3.1-1c-0.8-0.7-1.2-1.6-1.2-2.7l0-0.1h1.7
		c0,0.7,0.2,1.3,0.7,1.7c0.4,0.4,1,0.6,1.8,0.6c0.8,0,1.4-0.2,1.8-0.6c0.4-0.4,0.7-1,0.7-1.9c0-0.8-0.2-1.5-0.6-1.8
		c-0.4-0.4-1-0.6-1.8-0.6h-1.6V353.3z"/>
	<path class="st0" d="M768.3,355.9h-4.5v-1.4h4.5V355.9z"/>
	<path class="st0" d="M770.9,359.7l2.1-0.3v-10.1l-2.1,0v-1.1l4-0.9v12.1l2.1,0.3v1.2h-6V359.7z"/>
	<path class="st0" d="M783.7,347.2c0.5,0,0.9,0.1,1.4,0.2c0.5,0.1,0.8,0.2,1.1,0.4l-0.4,1.4c-0.3-0.1-0.6-0.3-1-0.3
		c-0.3-0.1-0.7-0.1-1.2-0.1c-0.9,0-1.7,0.4-2.3,1.1c-0.6,0.7-0.9,1.8-0.9,3.2l0,0c0.3-0.3,0.8-0.6,1.3-0.8c0.5-0.2,1-0.3,1.6-0.3
		c1.2,0,2.2,0.4,2.9,1.3c0.7,0.8,1.1,1.9,1.1,3.2c0,1.4-0.4,2.5-1.1,3.4c-0.8,0.9-1.8,1.3-3.1,1.3c-1.3,0-2.4-0.5-3.3-1.4
		c-0.9-1-1.3-2.3-1.3-4.1v-1.8c0-2.1,0.5-3.8,1.4-4.9C781.1,347.7,782.3,347.2,783.7,347.2z M783.1,353.2c-0.6,0-1.2,0.1-1.6,0.4
		c-0.4,0.3-0.8,0.6-1,1v1.1c0,1.3,0.3,2.2,0.8,2.9c0.5,0.7,1.2,1,2,1c0.7,0,1.3-0.3,1.7-1c0.4-0.6,0.6-1.4,0.6-2.4
		c0-0.9-0.2-1.6-0.7-2.2C784.5,353.5,783.9,353.2,783.1,353.2z"/>
	<path class="st0" d="M793.3,355.5c0,2.4-0.5,4.5-1.5,6.2c-1,1.7-2,2.9-3.1,3.4h-0.1l-0.3-1c0.8-0.6,1.6-1.7,2.2-3.2
		c0.6-1.5,0.9-3.3,0.9-5.5v-0.1c0-2.1-0.3-3.9-1-5.4c-0.7-1.5-1.4-2.6-2.2-3.3l0.3-1h0.1c1.1,0.6,2.1,1.7,3.1,3.5
		S793.3,352.9,793.3,355.5L793.3,355.5z"/>
</g>
<g id="fact_x5F_06">
	<g id="rettp_x5F_06">
		<rect x="594.5" y="566.6" class="st4" width="213.8" height="81.9"/>
		<path class="st3" d="M809.9,650.1H593v-84.9h216.8V650.1z M596,647.1h210.8v-78.9H596V647.1z"/>
	</g>
	<g id="rettv_x5F_06">
		<rect x="594.5" y="566.6" class="st4" width="213.8" height="81.9"/>
		<path class="st3" d="M809.9,650.1H593v-84.9h216.8V650.1z M596,647.1h210.8v-78.9H596V647.1z"/>
	</g>
	<g id="text1_x5F_06">
		<path class="st0" d="M627.8,603.8v-1.2l1.5-0.3v-10.6l-1.5-0.3v-1.2h10.4v3.2h-1.6l-0.1-1.8h-5.3v4.4h5.2v1.4h-5.2v4.8h5.4
			l0.1-1.8h1.6v3.2H627.8z"/>
		<path class="st0" d="M639.8,602.7l1.1-0.2l3-3.7l-2.9-3.6l-1.1-0.2v-1.2h3.9v1.2l-0.9,0.1l1.9,2.4l1.9-2.4l-0.9-0.1v-1.2h4v1.2
			l-1.1,0.2l-2.9,3.6l3,3.7l1.1,0.2v1.2h-3.9v-1.2l0.9-0.1l-2-2.5l-2,2.5l0.9,0.1v1.2h-4V602.7z"/>
		<path class="st0" d="M654.3,591.4v2.4h1.9v1.4h-1.9v6.1c0,0.5,0.1,0.8,0.3,1c0.2,0.2,0.5,0.3,0.8,0.3c0.2,0,0.3,0,0.5,0
			c0.2,0,0.4-0.1,0.5-0.1l0.3,1.3c-0.2,0.1-0.4,0.2-0.8,0.3s-0.7,0.1-1,0.1c-0.7,0-1.3-0.2-1.8-0.7c-0.4-0.4-0.7-1.2-0.7-2.1v-6.1
			h-1.6v-1.4h1.6v-2.4H654.3z"/>
		<path class="st0" d="M658.1,595v-1.2h3.1l0.2,1.5c0.3-0.5,0.6-0.9,1.1-1.2c0.4-0.3,0.9-0.4,1.4-0.4c0.1,0,0.3,0,0.4,0
			c0.2,0,0.3,0,0.3,0.1l-0.2,1.7l-1-0.1c-0.5,0-0.9,0.1-1.2,0.3c-0.3,0.2-0.6,0.5-0.8,1v5.8l1.5,0.3v1.2h-4.9v-1.2l1.5-0.3v-7.2
			L658.1,595z"/>
		<path class="st0" d="M672.5,603.8c-0.1-0.3-0.1-0.5-0.1-0.7c0-0.2-0.1-0.4-0.1-0.6c-0.4,0.5-0.8,0.8-1.3,1.1
			c-0.5,0.3-1.1,0.4-1.7,0.4c-1,0-1.8-0.3-2.4-0.8c-0.5-0.5-0.8-1.2-0.8-2.2c0-1,0.4-1.7,1.2-2.2c0.8-0.5,1.8-0.8,3.2-0.8h1.9V597
			c0-0.6-0.2-1.1-0.6-1.4c-0.4-0.3-0.9-0.5-1.5-0.5c-0.5,0-0.9,0.1-1.2,0.2c-0.3,0.1-0.6,0.3-0.8,0.5l-0.2,1.1h-1.4v-1.9
			c0.5-0.4,1-0.7,1.7-0.9s1.4-0.3,2.1-0.3c1.1,0,2.1,0.3,2.8,0.9s1.1,1.4,1.1,2.5v4.8c0,0.1,0,0.3,0,0.4c0,0.1,0,0.2,0,0.4l0.7,0.1
			v1.2H672.5z M669.6,602.5c0.6,0,1.2-0.1,1.7-0.4c0.5-0.3,0.9-0.6,1.1-1v-1.7h-1.9c-0.7,0-1.3,0.2-1.8,0.5
			c-0.4,0.3-0.7,0.8-0.7,1.3c0,0.4,0.1,0.8,0.4,1C668.6,602.4,669,602.5,669.6,602.5z"/>
		<path class="st0" d="M680.9,602.6c0.6,0,1.1-0.2,1.6-0.6s0.7-0.8,0.7-1.4h1.6l0,0.1c0,0.9-0.4,1.6-1.2,2.3c-0.8,0.7-1.7,1-2.8,1
			c-1.5,0-2.6-0.5-3.3-1.4c-0.8-1-1.2-2.1-1.2-3.6v-0.4c0-1.4,0.4-2.6,1.2-3.6c0.8-1,1.9-1.4,3.3-1.4c0.8,0,1.5,0.1,2.2,0.4
			c0.6,0.3,1.2,0.6,1.6,1.1l0.1,2.2h-1.5l-0.4-1.6c-0.2-0.2-0.5-0.4-0.8-0.5c-0.3-0.1-0.7-0.2-1.2-0.2c-1,0-1.6,0.3-2.1,1
			s-0.6,1.5-0.6,2.5v0.4c0,1,0.2,1.9,0.6,2.6S680,602.6,680.9,602.6z"/>
		<path class="st0" d="M689.9,591.4v2.4h1.9v1.4h-1.9v6.1c0,0.5,0.1,0.8,0.3,1c0.2,0.2,0.5,0.3,0.8,0.3c0.2,0,0.3,0,0.5,0
			c0.2,0,0.4-0.1,0.5-0.1l0.3,1.3c-0.2,0.1-0.4,0.2-0.8,0.3s-0.7,0.1-1,0.1c-0.7,0-1.3-0.2-1.8-0.7c-0.4-0.4-0.7-1.2-0.7-2.1v-6.1
			h-1.6v-1.4h1.6v-2.4H689.9z"/>
		<path class="st0" d="M698.1,606.5l1.5-0.3v-11l-1.5-0.3v-1.2h3.1l0.2,1.2c0.3-0.5,0.7-0.8,1.2-1c0.5-0.2,1-0.4,1.7-0.4
			c1.2,0,2.2,0.5,2.9,1.5c0.7,1,1,2.3,1,3.9v0.2c0,1.4-0.3,2.6-1,3.5s-1.6,1.3-2.9,1.3c-0.6,0-1.2-0.1-1.6-0.3s-0.9-0.5-1.2-0.9v3.5
			l1.5,0.3v1.2h-4.9V606.5z M706.4,599c0-1.1-0.2-2.1-0.7-2.8s-1.1-1.1-2-1.1c-0.5,0-1,0.1-1.3,0.4s-0.7,0.6-0.9,1v4.9
			c0.2,0.4,0.5,0.7,0.9,1s0.8,0.3,1.4,0.3c0.9,0,1.5-0.3,2-0.9s0.7-1.4,0.7-2.5V599z"/>
		<path class="st0" d="M716.4,603.8c-0.1-0.3-0.1-0.5-0.1-0.7c0-0.2-0.1-0.4-0.1-0.6c-0.4,0.5-0.8,0.8-1.3,1.1
			c-0.5,0.3-1.1,0.4-1.7,0.4c-1,0-1.8-0.3-2.4-0.8c-0.5-0.5-0.8-1.2-0.8-2.2c0-1,0.4-1.7,1.2-2.2c0.8-0.5,1.8-0.8,3.2-0.8h1.9V597
			c0-0.6-0.2-1.1-0.6-1.4c-0.4-0.3-0.9-0.5-1.5-0.5c-0.5,0-0.9,0.1-1.2,0.2c-0.3,0.1-0.6,0.3-0.8,0.5l-0.2,1.1h-1.4v-1.9
			c0.5-0.4,1-0.7,1.7-0.9s1.4-0.3,2.1-0.3c1.1,0,2.1,0.3,2.8,0.9s1.1,1.4,1.1,2.5v4.8c0,0.1,0,0.3,0,0.4c0,0.1,0,0.2,0,0.4l0.7,0.1
			v1.2H716.4z M713.5,602.5c0.6,0,1.2-0.1,1.7-0.4c0.5-0.3,0.9-0.6,1.1-1v-1.7h-1.9c-0.7,0-1.3,0.2-1.8,0.5
			c-0.4,0.3-0.7,0.8-0.7,1.3c0,0.4,0.1,0.8,0.4,1C712.5,602.4,712.9,602.5,713.5,602.5z"/>
		<path class="st0" d="M728,596.9h-1.4l-0.3-1.2c-0.2-0.2-0.5-0.4-0.8-0.5c-0.3-0.1-0.7-0.2-1.1-0.2c-0.6,0-1.1,0.1-1.4,0.4
			c-0.3,0.3-0.5,0.6-0.5,1c0,0.4,0.1,0.7,0.4,0.9c0.3,0.2,0.8,0.4,1.7,0.6c1.3,0.3,2.2,0.6,2.8,1.1c0.6,0.5,0.9,1.1,0.9,1.9
			c0,0.9-0.4,1.6-1.1,2.2c-0.7,0.6-1.7,0.8-2.8,0.8c-0.8,0-1.4-0.1-2.1-0.3c-0.6-0.2-1.1-0.4-1.6-0.8l0-2.3h1.4l0.3,1.3
			c0.2,0.2,0.5,0.3,0.9,0.4c0.4,0.1,0.7,0.1,1.1,0.1c0.6,0,1.2-0.1,1.5-0.4c0.4-0.3,0.6-0.6,0.6-1c0-0.4-0.2-0.7-0.5-1
			c-0.3-0.3-0.9-0.5-1.7-0.7c-1.2-0.3-2.1-0.6-2.8-1.1s-0.9-1.1-0.9-1.9c0-0.8,0.3-1.5,1-2.1c0.7-0.6,1.6-0.9,2.7-0.9
			c0.8,0,1.4,0.1,2.1,0.3c0.6,0.2,1.1,0.5,1.5,0.8L728,596.9z"/>
		<path class="st0" d="M733.2,591.4v2.4h1.9v1.4h-1.9v6.1c0,0.5,0.1,0.8,0.3,1c0.2,0.2,0.5,0.3,0.8,0.3c0.2,0,0.3,0,0.5,0
			c0.2,0,0.4-0.1,0.5-0.1l0.3,1.3c-0.2,0.1-0.4,0.2-0.8,0.3s-0.7,0.1-1,0.1c-0.7,0-1.3-0.2-1.8-0.7c-0.4-0.4-0.7-1.2-0.7-2.1v-6.1
			h-1.6v-1.4h1.6v-2.4H733.2z"/>
		<path class="st0" d="M748.9,602.3c-0.3,0.5-0.7,1-1.2,1.2s-1.1,0.4-1.7,0.4c-1.1,0-1.9-0.3-2.6-1c-0.6-0.7-0.9-1.8-0.9-3.3v-4.5
			l-1.2-0.3v-1.2h1.2h1.8v5.9c0,1.1,0.2,1.8,0.5,2.2c0.3,0.4,0.8,0.6,1.5,0.6c0.7,0,1.2-0.1,1.6-0.4c0.4-0.3,0.7-0.6,1-1.1v-5.8
			l-1.3-0.3v-1.2h1.3h1.8v8.6l1.2,0.3v1.2H749L748.9,602.3z"/>
		<path class="st0" d="M753.2,595v-1.2h3.1l0.2,1.5c0.3-0.5,0.6-0.9,1.1-1.2c0.4-0.3,0.9-0.4,1.4-0.4c0.1,0,0.3,0,0.4,0
			c0.2,0,0.3,0,0.3,0.1l-0.2,1.7l-1-0.1c-0.5,0-0.9,0.1-1.2,0.3c-0.3,0.2-0.6,0.5-0.8,1v5.8l1.5,0.3v1.2h-4.9v-1.2l1.5-0.3v-7.2
			L753.2,595z"/>
		<path class="st0" d="M760.7,590.5v-1.2h3.3v13l1.5,0.3v1.2h-4.9v-1.2l1.5-0.3v-11.6L760.7,590.5z"/>
		<path class="st0" d="M774.6,596.9h-1.4l-0.3-1.2c-0.2-0.2-0.5-0.4-0.8-0.5c-0.3-0.1-0.7-0.2-1.1-0.2c-0.6,0-1.1,0.1-1.4,0.4
			c-0.3,0.3-0.5,0.6-0.5,1c0,0.4,0.1,0.7,0.4,0.9c0.3,0.2,0.8,0.4,1.7,0.6c1.3,0.3,2.2,0.6,2.8,1.1c0.6,0.5,0.9,1.1,0.9,1.9
			c0,0.9-0.4,1.6-1.1,2.2c-0.7,0.6-1.7,0.8-2.8,0.8c-0.8,0-1.4-0.1-2.1-0.3c-0.6-0.2-1.1-0.4-1.6-0.8l0-2.3h1.4l0.3,1.3
			c0.2,0.2,0.5,0.3,0.9,0.4c0.4,0.1,0.7,0.1,1.1,0.1c0.6,0,1.2-0.1,1.5-0.4c0.4-0.3,0.6-0.6,0.6-1c0-0.4-0.2-0.7-0.5-1
			c-0.3-0.3-0.9-0.5-1.7-0.7c-1.2-0.3-2.1-0.6-2.8-1.1s-0.9-1.1-0.9-1.9c0-0.8,0.3-1.5,1-2.1c0.7-0.6,1.6-0.9,2.7-0.9
			c0.8,0,1.4,0.1,2.1,0.3c0.6,0.2,1.1,0.5,1.5,0.8L774.6,596.9z"/>
		<path class="st0" d="M628,617l-1.2,0.2l1.3,5l0.2,1.2h0.1l0.3-1.2l2-6.4h1.5l2,6.4l0.3,1.4h0.1l0.3-1.4l1.2-5l-1.2-0.2v-1.2h3.8
			v1.2l-0.9,0.1l-2.5,8.7h-1.5l-1.9-6.1l-0.4-1.7l-0.1,0l-0.4,1.7l-1.9,6.1h-1.5l-2.5-8.7l-0.9-0.1v-1.2h3.8V617z"/>
		<path class="st0" d="M640.2,624.7l1.5-0.3v-7.2l-1.5-0.3v-1.2h3.3v8.6l1.5,0.3v1.2h-4.9V624.7z M643.5,613.2h-1.8v-1.9h1.8V613.2z
			"/>
		<path class="st0" d="M649.6,613.4v2.4h1.9v1.4h-1.9v6.1c0,0.5,0.1,0.8,0.3,1c0.2,0.2,0.5,0.3,0.8,0.3c0.2,0,0.3,0,0.5,0
			c0.2,0,0.4-0.1,0.5-0.1l0.3,1.3c-0.2,0.1-0.4,0.2-0.8,0.3s-0.7,0.1-1,0.1c-0.7,0-1.3-0.2-1.8-0.7c-0.4-0.4-0.7-1.2-0.7-2.1v-6.1
			h-1.6v-1.4h1.6v-2.4H649.6z"/>
		<path class="st0" d="M653.1,624.7l1.5-0.3v-11.6l-1.5-0.3v-1.2h3.3v5.8c0.3-0.5,0.8-0.9,1.3-1.1c0.5-0.3,1.1-0.4,1.7-0.4
			c1.1,0,1.9,0.3,2.5,1c0.6,0.6,0.9,1.6,0.9,3v4.9l1.5,0.3v1.2h-4.9v-1.2l1.5-0.3v-4.9c0-0.8-0.2-1.4-0.5-1.8
			c-0.4-0.4-0.9-0.6-1.6-0.6c-0.5,0-1,0.1-1.4,0.4s-0.8,0.6-1,1v6l1.5,0.3v1.2h-4.9V624.7z"/>
		<path class="st0" d="M674.1,613.5l-1.4,0.2l1.7,7.4l0.3,1.7l0.1,0l0.4-1.7l2.5-8.8h1.6l2.5,8.8l0.4,1.7h0.1l0.3-1.7l1.7-7.4
			l-1.4-0.2v-1.2h4.3v1.2l-1.1,0.1l-2.9,12.2h-1.6l-2.7-9.4l-0.2-1.2h-0.1l-0.2,1.2l-2.7,9.4h-1.6l-2.9-12.2l-1.1-0.1v-1.2h4.3
			V613.5z"/>
		<path class="st0" d="M692.4,626c-1.4,0-2.5-0.5-3.3-1.4c-0.8-0.9-1.2-2.1-1.2-3.6v-0.4c0-1.4,0.4-2.6,1.3-3.6s1.9-1.4,3-1.4
			c1.3,0,2.4,0.4,3.1,1.2c0.7,0.8,1,1.9,1,3.3v1.1h-6.5l0,0c0,1,0.3,1.8,0.7,2.4c0.5,0.6,1.1,0.9,2,0.9c0.6,0,1.2-0.1,1.6-0.3
			c0.5-0.2,0.9-0.4,1.2-0.7l0.7,1.2c-0.4,0.3-0.8,0.6-1.4,0.9C693.9,625.9,693.2,626,692.4,626z M692.1,617c-0.6,0-1.1,0.3-1.6,0.8
			c-0.4,0.5-0.7,1.2-0.8,1.9l0,0h4.6v-0.2c0-0.7-0.2-1.3-0.6-1.8C693.4,617.3,692.9,617,692.1,617z"/>
		<path class="st0" d="M707.2,621.2c0,1.4-0.3,2.6-1,3.5c-0.7,0.9-1.7,1.3-2.9,1.3c-0.7,0-1.2-0.1-1.7-0.4c-0.5-0.3-0.9-0.6-1.2-1.1
			l-0.2,1.3h-1.6v-13l-1.5-0.3v-1.2h3.3v5.6c0.3-0.4,0.7-0.8,1.2-1c0.5-0.2,1-0.4,1.6-0.4c1.2,0,2.2,0.5,2.9,1.5c0.7,1,1,2.3,1,3.9
			V621.2z M705.4,621c0-1.2-0.2-2.1-0.6-2.8c-0.4-0.7-1.1-1.1-1.9-1.1c-0.6,0-1,0.1-1.4,0.4c-0.4,0.3-0.7,0.6-0.9,1.1v4.4
			c0.2,0.5,0.5,0.8,0.9,1.1c0.4,0.3,0.9,0.4,1.4,0.4c0.9,0,1.5-0.3,1.9-0.9c0.4-0.6,0.6-1.4,0.6-2.4V621z"/>
		<path class="st0" d="M708.7,624.7l1-0.1l4.7-12.2h1.6l4.6,12.2l1,0.1v1.2h-3.9v-1.2l1-0.2l-0.9-2.5h-5.4l-0.9,2.5l1,0.2v1.2h-3.9
			V624.7z M713,620.5h4.3l-2.1-5.8h-0.1L713,620.5z"/>
		<path class="st0" d="M722.9,617v-1.2h3.1l0.2,1.5c0.3-0.5,0.6-0.9,1.1-1.2c0.4-0.3,0.9-0.4,1.4-0.4c0.1,0,0.3,0,0.4,0
			c0.2,0,0.3,0,0.3,0.1l-0.2,1.7l-1-0.1c-0.5,0-0.9,0.1-1.2,0.3c-0.3,0.2-0.6,0.5-0.8,1v5.8l1.5,0.3v1.2h-4.9v-1.2l1.5-0.3v-7.2
			L722.9,617z"/>
		<path class="st0" d="M735.1,624.6c0.6,0,1.1-0.2,1.6-0.6s0.7-0.8,0.7-1.4h1.6l0,0.1c0,0.9-0.4,1.6-1.2,2.3c-0.8,0.7-1.7,1-2.8,1
			c-1.5,0-2.6-0.5-3.3-1.4c-0.8-1-1.2-2.1-1.2-3.6v-0.4c0-1.4,0.4-2.6,1.2-3.6c0.8-1,1.9-1.4,3.3-1.4c0.8,0,1.5,0.1,2.2,0.4
			c0.6,0.3,1.2,0.6,1.6,1.1l0.1,2.2h-1.5l-0.4-1.6c-0.2-0.2-0.5-0.4-0.8-0.5c-0.3-0.1-0.7-0.2-1.2-0.2c-1,0-1.6,0.3-2.1,1
			s-0.6,1.5-0.6,2.5v0.4c0,1,0.2,1.9,0.6,2.6S734.2,624.6,735.1,624.6z"/>
		<path class="st0" d="M740.6,624.7l1.5-0.3v-11.6l-1.5-0.3v-1.2h3.3v5.8c0.3-0.5,0.8-0.9,1.3-1.1c0.5-0.3,1.1-0.4,1.7-0.4
			c1.1,0,1.9,0.3,2.5,1c0.6,0.6,0.9,1.6,0.9,3v4.9l1.5,0.3v1.2H747v-1.2l1.5-0.3v-4.9c0-0.8-0.2-1.4-0.5-1.8
			c-0.4-0.4-0.9-0.6-1.6-0.6c-0.5,0-1,0.1-1.4,0.4s-0.8,0.6-1,1v6l1.5,0.3v1.2h-4.9V624.7z"/>
		<path class="st0" d="M753.1,624.7l1.5-0.3v-7.2l-1.5-0.3v-1.2h3.3v8.6l1.5,0.3v1.2h-4.9V624.7z M756.5,613.2h-1.8v-1.9h1.8V613.2z
			"/>
		<path class="st0" d="M762.8,617l-1.2,0.2l2.1,5.7l0.2,0.7h0.1l0.2-0.7l2-5.7l-1.2-0.2v-1.2h3.9v1.2l-0.8,0.1l-3.4,8.7h-1.4
			l-3.4-8.7l-0.8-0.1v-1.2h3.9V617z"/>
		<path class="st0" d="M774.4,626c-1.4,0-2.5-0.5-3.3-1.4c-0.8-0.9-1.2-2.1-1.2-3.6v-0.4c0-1.4,0.4-2.6,1.3-3.6s1.9-1.4,3-1.4
			c1.3,0,2.4,0.4,3.1,1.2c0.7,0.8,1,1.9,1,3.3v1.1h-6.5l0,0c0,1,0.3,1.8,0.7,2.4c0.5,0.6,1.1,0.9,2,0.9c0.6,0,1.2-0.1,1.6-0.3
			c0.5-0.2,0.9-0.4,1.2-0.7l0.7,1.2c-0.4,0.3-0.8,0.6-1.4,0.9C776,625.9,775.3,626,774.4,626z M774.2,617c-0.6,0-1.1,0.3-1.6,0.8
			c-0.4,0.5-0.7,1.2-0.8,1.9l0,0h4.6v-0.2c0-0.7-0.2-1.3-0.6-1.8C775.5,617.3,774.9,617,774.2,617z"/>
	</g>
</g>
<g>
	<g>
		<rect x="700" y="648.6" class="st2" width="2.9" height="2.4"/>
	</g>
	<g>
		<path class="st2" d="M702.9,685.6H700v-4.3h2.9V685.6z M702.9,676.9H700v-4.3h2.9V676.9z M702.9,668.3H700V664h2.9V668.3z
			 M702.9,659.6H700v-4.3h2.9V659.6z"/>
	</g>
	<g>
		<rect x="700" y="689.9" class="st2" width="2.9" height="2.4"/>
	</g>
	<g>
		<g>
			<path class="st2" d="M701.5,701c-1.5-4.1-4.1-9.1-6.8-12.3l6.8,2.5l6.8-2.5C705.5,691.8,703,696.9,701.5,701z"/>
		</g>
	</g>
</g>
<g>
	<g>
		<rect x="838.3" y="674.8" transform="matrix(0.7285 -0.685 0.685 0.7285 -235.349 758.6691)" width="2.4" height="2.9"/>
	</g>
	<g>
		<path d="M820.6,696.1l-2-2.1l3.2-3l2,2.1L820.6,696.1z M826.9,690.1l-2-2.1l3.2-3l2,2.1L826.9,690.1z M833.3,684.1l-2-2.1l3.2-3
			l2,2.1L833.3,684.1z"/>
	</g>
	<g>
		<rect x="814.4" y="697.4" transform="matrix(0.7285 -0.685 0.685 0.7285 -257.3034 748.3571)" width="2.4" height="2.9"/>
	</g>
	<g>
		<g>
			<path d="M808.4,705.6c1.9-3.9,3.9-9.2,4.3-13.4l2.9,6.7l6.5,3.3C817.8,702.3,812.4,703.9,808.4,705.6z"/>
		</g>
	</g>
</g>
<g id="fact_x5F_06_1_">
	<g id="rettp_x5F_06_1_">
		<rect x="594.5" y="705.6" class="st4" width="213.8" height="81.9"/>
		<path class="st3" d="M809.9,789H593v-84.9h216.8V789z M596,786h210.8v-78.9H596V786z"/>
	</g>
	<g id="rettv_x5F_06_1_">
		<rect x="594.5" y="705.6" class="st4" width="213.8" height="81.9"/>
		<path class="st3" d="M809.9,789H593v-84.9h216.8V789z M596,786h210.8v-78.9H596V786z"/>
	</g>
	<g id="text1_x5F_06_1_">
		<path class="st0" d="M627.1,730.4v-1.2h4.9v1.2l-1.5,0.3v10.6l1.5,0.3v1.2h-4.9v-1.2l1.5-0.3v-10.6L627.1,730.4z"/>
		<path class="st0" d="M641.1,735.9h-1.4l-0.3-1.2c-0.2-0.2-0.5-0.4-0.8-0.5c-0.3-0.1-0.7-0.2-1.1-0.2c-0.6,0-1.1,0.1-1.4,0.4
			c-0.3,0.3-0.5,0.6-0.5,1c0,0.4,0.1,0.7,0.4,0.9c0.3,0.2,0.8,0.4,1.7,0.6c1.3,0.3,2.2,0.6,2.8,1.1c0.6,0.5,0.9,1.1,0.9,1.9
			c0,0.9-0.4,1.6-1.1,2.2c-0.7,0.6-1.7,0.8-2.8,0.8c-0.8,0-1.4-0.1-2.1-0.3c-0.6-0.2-1.1-0.4-1.6-0.8l0-2.3h1.4l0.3,1.3
			c0.2,0.2,0.5,0.3,0.9,0.4c0.4,0.1,0.7,0.1,1.1,0.1c0.6,0,1.2-0.1,1.5-0.4c0.4-0.3,0.6-0.6,0.6-1c0-0.4-0.2-0.7-0.5-1
			c-0.3-0.3-0.9-0.5-1.7-0.7c-1.2-0.3-2.1-0.6-2.8-1.1c-0.6-0.5-0.9-1.1-0.9-1.9c0-0.8,0.3-1.5,1-2.1c0.7-0.6,1.6-0.9,2.7-0.9
			c0.8,0,1.4,0.1,2.1,0.3s1.1,0.5,1.5,0.8L641.1,735.9z"/>
		<path class="st0" d="M650.8,735.9h-1.4l-0.3-1.2c-0.2-0.2-0.5-0.4-0.8-0.5c-0.3-0.1-0.7-0.2-1.1-0.2c-0.6,0-1.1,0.1-1.4,0.4
			c-0.3,0.3-0.5,0.6-0.5,1c0,0.4,0.1,0.7,0.4,0.9c0.3,0.2,0.8,0.4,1.7,0.6c1.3,0.3,2.2,0.6,2.8,1.1c0.6,0.5,0.9,1.1,0.9,1.9
			c0,0.9-0.4,1.6-1.1,2.2c-0.7,0.6-1.7,0.8-2.8,0.8c-0.8,0-1.4-0.1-2.1-0.3c-0.6-0.2-1.1-0.4-1.6-0.8l0-2.3h1.4l0.3,1.3
			c0.2,0.2,0.5,0.3,0.9,0.4c0.4,0.1,0.7,0.1,1.1,0.1c0.6,0,1.2-0.1,1.5-0.4c0.4-0.3,0.6-0.6,0.6-1c0-0.4-0.2-0.7-0.5-1
			c-0.3-0.3-0.9-0.5-1.7-0.7c-1.2-0.3-2.1-0.6-2.8-1.1c-0.6-0.5-0.9-1.1-0.9-1.9c0-0.8,0.3-1.5,1-2.1c0.7-0.6,1.6-0.9,2.7-0.9
			c0.8,0,1.4,0.1,2.1,0.3s1.1,0.5,1.5,0.8L650.8,735.9z"/>
		<path class="st0" d="M660,741.3c-0.3,0.5-0.7,1-1.2,1.2s-1.1,0.4-1.7,0.4c-1.1,0-1.9-0.3-2.6-1c-0.6-0.7-0.9-1.8-0.9-3.3v-4.5
			l-1.2-0.3v-1.2h1.2h1.8v5.9c0,1.1,0.2,1.8,0.5,2.2s0.8,0.6,1.5,0.6c0.7,0,1.2-0.1,1.6-0.4c0.4-0.3,0.7-0.6,1-1.1v-5.8l-1.3-0.3
			v-1.2h1.3h1.8v8.6l1.2,0.3v1.2h-2.8L660,741.3z"/>
		<path class="st0" d="M668.9,743c-1.4,0-2.5-0.5-3.3-1.4c-0.8-0.9-1.2-2.1-1.2-3.6v-0.4c0-1.4,0.4-2.6,1.3-3.6
			c0.9-0.9,1.9-1.4,3-1.4c1.3,0,2.4,0.4,3.1,1.2c0.7,0.8,1,1.9,1,3.3v1.1h-6.5l0,0c0,1,0.3,1.8,0.7,2.4c0.5,0.6,1.1,0.9,2,0.9
			c0.6,0,1.2-0.1,1.6-0.3c0.5-0.2,0.9-0.4,1.2-0.7l0.7,1.2c-0.4,0.3-0.8,0.6-1.4,0.9C670.5,742.8,669.8,743,668.9,743z M668.7,734
			c-0.6,0-1.1,0.3-1.6,0.8s-0.7,1.2-0.8,1.9l0,0h4.6v-0.2c0-0.7-0.2-1.3-0.6-1.8C670,734.2,669.4,734,668.7,734z"/>
		<path class="st0" d="M689.6,733.4h-1.3l-0.3-1.9c-0.3-0.3-0.7-0.5-1.1-0.7s-0.9-0.3-1.5-0.3c-1.4,0-2.5,0.5-3.2,1.5
			s-1.1,2.3-1.1,3.9v0.2c0,1.6,0.4,2.9,1.1,3.9s1.8,1.5,3.1,1.5c0.6,0,1.2-0.1,1.7-0.3c0.5-0.2,0.9-0.4,1.2-0.7l0.3-1.9h1.3v2.4
			c-0.4,0.5-1,0.9-1.8,1.3s-1.7,0.6-2.7,0.6c-1.8,0-3.2-0.7-4.3-1.9c-1.1-1.3-1.7-2.9-1.7-4.9v-0.2c0-2,0.6-3.6,1.7-4.9
			s2.6-1.9,4.4-1.9c1,0,1.9,0.2,2.7,0.6c0.8,0.4,1.4,0.8,1.8,1.3V733.4z"/>
		<path class="st0" d="M691.6,733.9v-1.2h3.1l0.2,1.5c0.3-0.5,0.6-0.9,1.1-1.2c0.4-0.3,0.9-0.4,1.4-0.4c0.1,0,0.3,0,0.4,0
			c0.2,0,0.3,0,0.3,0.1l-0.2,1.7l-1-0.1c-0.5,0-0.9,0.1-1.2,0.3c-0.3,0.2-0.6,0.5-0.8,1v5.8l1.5,0.3v1.2h-4.9v-1.2l1.5-0.3v-7.2
			L691.6,733.9z"/>
		<path class="st0" d="M706,742.8c-0.1-0.3-0.1-0.5-0.1-0.7c0-0.2-0.1-0.4-0.1-0.7c-0.4,0.5-0.8,0.8-1.3,1.1
			c-0.5,0.3-1.1,0.5-1.7,0.5c-1,0-1.8-0.3-2.4-0.8c-0.5-0.5-0.8-1.2-0.8-2.2c0-1,0.4-1.7,1.2-2.2c0.8-0.5,1.8-0.8,3.2-0.8h1.9v-1.2
			c0-0.6-0.2-1.1-0.6-1.4c-0.4-0.3-0.9-0.5-1.5-0.5c-0.5,0-0.9,0.1-1.2,0.2s-0.6,0.3-0.8,0.5l-0.2,1.1H700v-1.9
			c0.5-0.4,1-0.7,1.7-0.9c0.6-0.2,1.4-0.3,2.1-0.3c1.1,0,2.1,0.3,2.8,0.9c0.7,0.6,1.1,1.4,1.1,2.5v4.8c0,0.1,0,0.3,0,0.4
			c0,0.1,0,0.2,0,0.4l0.7,0.1v1.2H706z M703,741.4c0.6,0,1.2-0.1,1.7-0.4c0.5-0.3,0.9-0.6,1.1-1v-1.7h-1.9c-0.7,0-1.3,0.2-1.8,0.5
			c-0.4,0.3-0.7,0.8-0.7,1.3c0,0.4,0.1,0.8,0.4,1C702.1,741.3,702.5,741.4,703,741.4z"/>
		<path class="st0" d="M713.4,733.9l-1.2,0.2l1.3,5l0.2,1.2h0.1l0.3-1.2l2-6.4h1.5l2,6.4l0.3,1.4h0.1l0.3-1.4l1.2-5l-1.2-0.2v-1.2
			h3.8v1.2l-0.9,0.1l-2.5,8.7h-1.5l-1.9-6.1l-0.4-1.7l-0.1,0l-0.4,1.7l-1.9,6.1H713l-2.5-8.7l-0.9-0.1v-1.2h3.8V733.9z"/>
		<path class="st0" d="M725.3,729.5v-1.2h3.3v13l1.5,0.3v1.2h-4.9v-1.2l1.5-0.3v-11.6L725.3,729.5z"/>
		<path class="st0" d="M736.2,743c-1.4,0-2.5-0.5-3.3-1.4c-0.8-0.9-1.2-2.1-1.2-3.6v-0.4c0-1.4,0.4-2.6,1.3-3.6
			c0.9-0.9,1.9-1.4,3-1.4c1.3,0,2.4,0.4,3.1,1.2c0.7,0.8,1,1.9,1,3.3v1.1h-6.5l0,0c0,1,0.3,1.8,0.7,2.4c0.5,0.6,1.1,0.9,2,0.9
			c0.6,0,1.2-0.1,1.6-0.3c0.5-0.2,0.9-0.4,1.2-0.7l0.7,1.2c-0.4,0.3-0.8,0.6-1.4,0.9C737.7,742.8,737,743,736.2,743z M735.9,734
			c-0.6,0-1.1,0.3-1.6,0.8s-0.7,1.2-0.8,1.9l0,0h4.6v-0.2c0-0.7-0.2-1.3-0.6-1.8C737.2,734.2,736.6,734,735.9,734z"/>
		<path class="st0" d="M741.8,733.9v-1.2h3.1l0.2,1.5c0.3-0.5,0.6-0.9,1.1-1.2c0.4-0.3,0.9-0.4,1.4-0.4c0.1,0,0.3,0,0.4,0
			c0.2,0,0.3,0,0.3,0.1l-0.2,1.7l-1-0.1c-0.5,0-0.9,0.1-1.2,0.3c-0.3,0.2-0.6,0.5-0.8,1v5.8l1.5,0.3v1.2h-4.9v-1.2l1.5-0.3v-7.2
			L741.8,733.9z"/>
		<path class="st0" d="M754.4,737.6c0-1.5,0.4-2.7,1.2-3.7c0.8-1,1.9-1.4,3.3-1.4c1.4,0,2.5,0.5,3.3,1.4c0.8,1,1.2,2.2,1.2,3.7v0.2
			c0,1.5-0.4,2.7-1.2,3.7c-0.8,1-1.9,1.4-3.3,1.4c-1.4,0-2.5-0.5-3.3-1.4c-0.8-1-1.2-2.2-1.2-3.7V737.6z M756.2,737.8
			c0,1.1,0.2,1.9,0.7,2.6c0.4,0.7,1.1,1,2,1c0.9,0,1.5-0.3,2-1c0.5-0.7,0.7-1.6,0.7-2.6v-0.2c0-1.1-0.2-1.9-0.7-2.6
			c-0.5-0.7-1.1-1-2-1c-0.9,0-1.5,0.3-2,1c-0.4,0.7-0.7,1.6-0.7,2.6V737.8z"/>
		<path class="st0" d="M764.8,741.6l1.5-0.3v-7.2l-1.5-0.3v-1.2h3.1l0.1,1.5c0.3-0.5,0.8-0.9,1.3-1.2c0.5-0.3,1.1-0.4,1.7-0.4
			c1.1,0,1.9,0.3,2.5,1s0.9,1.6,0.9,2.9v4.9l1.5,0.3v1.2h-4.9v-1.2l1.5-0.3v-4.9c0-0.9-0.2-1.5-0.5-1.9s-0.9-0.6-1.6-0.6
			c-0.5,0-1,0.1-1.4,0.4c-0.4,0.3-0.7,0.6-1,1v5.9l1.5,0.3v1.2h-4.9V741.6z"/>
		<path class="st0" d="M640.8,752.3v2.4h1.9v1.4h-1.9v6.1c0,0.5,0.1,0.8,0.3,1c0.2,0.2,0.5,0.3,0.8,0.3c0.2,0,0.3,0,0.5,0
			c0.2,0,0.4-0.1,0.5-0.1l0.3,1.3c-0.2,0.1-0.4,0.2-0.8,0.3c-0.3,0.1-0.7,0.1-1,0.1c-0.7,0-1.3-0.2-1.8-0.7
			c-0.4-0.4-0.7-1.2-0.7-2.1v-6.1h-1.6v-1.4h1.6v-2.4H640.8z"/>
		<path class="st0" d="M644.4,763.6l1.5-0.3v-11.6l-1.5-0.3v-1.2h3.3v5.8c0.3-0.5,0.8-0.9,1.3-1.1c0.5-0.3,1.1-0.4,1.7-0.4
			c1.1,0,1.9,0.3,2.5,1s0.9,1.6,0.9,3v4.9l1.5,0.3v1.2h-4.9v-1.2l1.5-0.3v-4.9c0-0.8-0.2-1.4-0.5-1.8c-0.4-0.4-0.9-0.6-1.6-0.6
			c-0.5,0-1,0.1-1.4,0.4c-0.4,0.2-0.8,0.6-1,1v6l1.5,0.3v1.2h-4.9V763.6z"/>
		<path class="st0" d="M661.4,765c-1.4,0-2.5-0.5-3.3-1.4c-0.8-0.9-1.2-2.1-1.2-3.6v-0.4c0-1.4,0.4-2.6,1.3-3.6
			c0.9-0.9,1.9-1.4,3-1.4c1.3,0,2.4,0.4,3.1,1.2c0.7,0.8,1,1.9,1,3.3v1.1h-6.5l0,0c0,1,0.3,1.8,0.7,2.4c0.5,0.6,1.1,0.9,2,0.9
			c0.6,0,1.2-0.1,1.6-0.3c0.5-0.2,0.9-0.4,1.2-0.7l0.7,1.2c-0.4,0.3-0.8,0.6-1.4,0.9C662.9,764.8,662.2,765,661.4,765z M661.1,756
			c-0.6,0-1.1,0.3-1.6,0.8s-0.7,1.2-0.8,1.9l0,0h4.6v-0.2c0-0.7-0.2-1.3-0.6-1.8C662.4,756.2,661.8,756,661.1,756z"/>
		<path class="st0" d="M666.6,763.6l1.5-0.3v-7.2l-1.5-0.3v-1.2h3.2l0.1,1.3c0.3-0.5,0.7-0.8,1.2-1.1c0.5-0.3,1.1-0.4,1.8-0.4
			s1.2,0.2,1.7,0.5c0.5,0.3,0.8,0.8,1.1,1.4c0.3-0.6,0.7-1,1.3-1.4s1.1-0.5,1.8-0.5c1,0,1.8,0.4,2.4,1.1s0.9,1.8,0.9,3.2v4.6
			l1.5,0.3v1.2h-4.9v-1.2l1.5-0.3v-4.6c0-1-0.2-1.7-0.5-2.1c-0.3-0.4-0.8-0.6-1.5-0.6c-0.6,0-1.1,0.2-1.5,0.7
			c-0.4,0.4-0.6,1-0.7,1.7v4.9l1.5,0.3v1.2h-4.9v-1.2l1.5-0.3v-4.6c0-0.9-0.2-1.6-0.5-2.1c-0.3-0.4-0.9-0.7-1.5-0.7
			c-0.6,0-1,0.1-1.4,0.3c-0.4,0.2-0.6,0.6-0.8,1v6l1.5,0.3v1.2h-4.9V763.6z"/>
		<path class="st0" d="M696.4,763.6c-0.3,0.5-0.7,0.8-1.2,1c-0.5,0.2-1,0.4-1.6,0.4c-1.2,0-2.2-0.4-2.9-1.3c-0.7-0.9-1-2.1-1-3.5
			v-0.2c0-1.6,0.3-2.9,1-3.9s1.7-1.5,2.9-1.5c0.6,0,1.1,0.1,1.6,0.3c0.5,0.2,0.8,0.5,1.2,1v-4.1l-1.5-0.3v-1.2h1.5h1.8v13l1.5,0.3
			v1.2h-3.1L696.4,763.6z M691.5,760.1c0,1,0.2,1.8,0.6,2.4s1.1,0.9,1.9,0.9c0.5,0,1-0.1,1.4-0.4c0.4-0.2,0.7-0.6,0.9-1v-4.7
			c-0.2-0.4-0.5-0.8-0.9-1c-0.4-0.2-0.8-0.4-1.4-0.4c-0.9,0-1.5,0.4-1.9,1.1c-0.4,0.7-0.6,1.7-0.6,2.8V760.1z"/>
		<path class="st0" d="M705.7,765c-1.4,0-2.5-0.5-3.3-1.4c-0.8-0.9-1.2-2.1-1.2-3.6v-0.4c0-1.4,0.4-2.6,1.3-3.6
			c0.9-0.9,1.9-1.4,3-1.4c1.3,0,2.4,0.4,3.1,1.2c0.7,0.8,1,1.9,1,3.3v1.1H703l0,0c0,1,0.3,1.8,0.7,2.4c0.5,0.6,1.1,0.9,2,0.9
			c0.6,0,1.2-0.1,1.6-0.3c0.5-0.2,0.9-0.4,1.2-0.7l0.7,1.2c-0.4,0.3-0.8,0.6-1.4,0.9C707.2,764.8,706.5,765,705.7,765z M705.4,756
			c-0.6,0-1.1,0.3-1.6,0.8s-0.7,1.2-0.8,1.9l0,0h4.6v-0.2c0-0.7-0.2-1.3-0.6-1.8C706.7,756.2,706.1,756,705.4,756z"/>
		<path class="st0" d="M711.1,767.4l1.5-0.3v-11l-1.5-0.3v-1.2h3.1l0.2,1.2c0.3-0.5,0.7-0.8,1.2-1c0.5-0.2,1-0.4,1.7-0.4
			c1.2,0,2.2,0.5,2.9,1.5c0.7,1,1,2.3,1,3.9v0.2c0,1.4-0.3,2.6-1,3.5c-0.7,0.9-1.6,1.3-2.9,1.3c-0.6,0-1.2-0.1-1.6-0.3
			c-0.5-0.2-0.9-0.5-1.2-0.9v3.5l1.5,0.3v1.2h-4.9V767.4z M719.3,759.9c0-1.1-0.2-2.1-0.7-2.8c-0.4-0.7-1.1-1.1-2-1.1
			c-0.5,0-1,0.1-1.3,0.4c-0.4,0.2-0.7,0.6-0.9,1v4.9c0.2,0.4,0.5,0.7,0.9,1c0.4,0.2,0.8,0.3,1.4,0.3c0.9,0,1.5-0.3,2-0.9
			s0.7-1.5,0.7-2.5V759.9z"/>
		<path class="st0" d="M726,752.3v2.4h1.9v1.4H726v6.1c0,0.5,0.1,0.8,0.3,1c0.2,0.2,0.5,0.3,0.8,0.3c0.2,0,0.3,0,0.5,0
			c0.2,0,0.4-0.1,0.5-0.1l0.3,1.3c-0.2,0.1-0.4,0.2-0.8,0.3c-0.3,0.1-0.7,0.1-1,0.1c-0.7,0-1.3-0.2-1.8-0.7
			c-0.4-0.4-0.7-1.2-0.7-2.1v-6.1h-1.6v-1.4h1.6v-2.4H726z"/>
		<path class="st0" d="M729.5,763.6l1.5-0.3v-11.6l-1.5-0.3v-1.2h3.3v5.8c0.3-0.5,0.8-0.9,1.3-1.1c0.5-0.3,1.1-0.4,1.7-0.4
			c1.1,0,1.9,0.3,2.5,1s0.9,1.6,0.9,3v4.9l1.5,0.3v1.2h-4.9v-1.2l1.5-0.3v-4.9c0-0.8-0.2-1.4-0.5-1.8c-0.4-0.4-0.9-0.6-1.6-0.6
			c-0.5,0-1,0.1-1.4,0.4c-0.4,0.2-0.8,0.6-1,1v6l1.5,0.3v1.2h-4.9V763.6z"/>
		<path class="st0" d="M749.7,757.9h-1.4l-0.3-1.2c-0.2-0.2-0.5-0.4-0.8-0.5c-0.3-0.1-0.7-0.2-1.1-0.2c-0.6,0-1.1,0.1-1.4,0.4
			c-0.3,0.3-0.5,0.6-0.5,1c0,0.4,0.1,0.7,0.4,0.9c0.3,0.2,0.8,0.4,1.7,0.6c1.3,0.3,2.2,0.6,2.8,1.1c0.6,0.5,0.9,1.1,0.9,1.9
			c0,0.9-0.4,1.6-1.1,2.2c-0.7,0.6-1.7,0.8-2.8,0.8c-0.8,0-1.4-0.1-2.1-0.3c-0.6-0.2-1.1-0.4-1.6-0.8l0-2.3h1.4l0.3,1.3
			c0.2,0.2,0.5,0.3,0.9,0.4c0.4,0.1,0.7,0.1,1.1,0.1c0.6,0,1.2-0.1,1.5-0.4c0.4-0.3,0.6-0.6,0.6-1c0-0.4-0.2-0.7-0.5-1
			c-0.3-0.3-0.9-0.5-1.7-0.7c-1.2-0.3-2.1-0.6-2.8-1.1c-0.6-0.5-0.9-1.1-0.9-1.9c0-0.8,0.3-1.5,1-2.1c0.7-0.6,1.6-0.9,2.7-0.9
			c0.8,0,1.4,0.1,2.1,0.3s1.1,0.5,1.5,0.8L749.7,757.9z"/>
		<path class="st0" d="M756.5,764.8v-1.3l4.4-4.9c0.8-0.9,1.3-1.6,1.6-2.1s0.4-1.1,0.4-1.6c0-0.7-0.2-1.2-0.6-1.7
			c-0.4-0.5-0.9-0.7-1.6-0.7c-0.9,0-1.6,0.2-2.1,0.7c-0.4,0.5-0.7,1.2-0.7,2h-1.8l0-0.1c0-1.2,0.4-2.1,1.2-2.9
			c0.8-0.8,1.9-1.2,3.3-1.2c1.2,0,2.2,0.4,2.9,1.1c0.7,0.7,1.1,1.6,1.1,2.7c0,0.7-0.2,1.5-0.7,2.2c-0.4,0.7-1,1.5-1.8,2.4l-3.6,3.9
			l0,0h4.8l0.1-1.5h1.5v3H756.5z"/>
	</g>
</g>
<g>
	<path d="M967.5,674.7h-5.1v-2.1h4v-4.1h2.1v5.1h-1.1V674.7z M957.3,674.7h-5.1v-2.1h5.1V674.7z M947.1,674.7h-5.1v-2.1h5.1V674.7z
		 M937,674.7h-5.1v-2.1h5.1V674.7z M926.8,674.7h-5.1v-2.1h5.1V674.7z M916.6,674.7h-5.1v-2.1h5.1V674.7z M906.5,674.7h-5.1v-2.1
		h5.1V674.7z M896.3,674.7h-5.1v-2.1h5.1V674.7z M886.2,674.7h-5.1v-2.1h5.1V674.7z M876,674.7h-5.1v-2.1h5.1V674.7z M865.8,674.7
		h-5.1v-2.1h5.1V674.7z M855.7,674.7h-5.1v-2.1h5.1V674.7z M845.5,674.7h-3.7v-3.5h2.1v1.4h1.6V674.7z M843.9,666.1h-2.1V661h2.1
		V666.1z M968.5,663.4h-2.1v-5.1h2.1V663.4z M843.9,656h-2.1v-5.1h2.1V656z M968.5,653.2h-2.1v-5.1h2.1V653.2z M843.9,645.8h-2.1
		v-5.1h2.1V645.8z M968.5,643h-2.1V638h2.1V643z M843.9,635.6h-2.1v-5.1h2.1V635.6z M968.5,632.9h-2.1v-5.1h2.1V632.9z M843.9,625.5
		h-2.1v-5.1h2.1V625.5z M968.5,622.7h-2.1v-5.1h2.1V622.7z M843.9,615.3h-2.1v-5.1h2.1V615.3z M968.5,612.6h-2.1v-5.1h2.1V612.6z
		 M843.9,605.2h-2.1v-5.1h2.1V605.2z M968.5,602.4h-2.1v-5.1h2.1V602.4z M843.9,595h-2.1v-5.1h2.1V595z M968.5,592.2h-2.1v-5.1h2.1
		V592.2z M843.9,584.8h-2.1v-5.1h2.1V584.8z M968.5,582.1h-2.1V577h2.1V582.1z M843.9,574.7h-2.1v-5.1h2.1V574.7z M968.5,571.9h-2.1
		v-5.1h2.1V571.9z M843.9,564.5h-2.1v-5.1h2.1V564.5z M968.5,561.7h-2.1v-5.1h2.1V561.7z M843.9,554.3h-2.1v-5.1h2.1V554.3z
		 M968.5,551.6h-2.1v-5.1h2.1V551.6z M843.9,544.2h-2.1v-3.7h3.5v2.1h-1.4V544.2z M967.3,542.6h-5.1v-2.1h5.1V542.6z M957.1,542.6
		h-5.1v-2.1h5.1V542.6z M947,542.6h-5.1v-2.1h5.1V542.6z M936.8,542.6h-5.1v-2.1h5.1V542.6z M926.7,542.6h-5.1v-2.1h5.1V542.6z
		 M916.5,542.6h-5.1v-2.1h5.1V542.6z M906.3,542.6h-5.1v-2.1h5.1V542.6z M896.2,542.6h-5.1v-2.1h5.1V542.6z M886,542.6h-5.1v-2.1
		h5.1V542.6z M875.8,542.6h-5.1v-2.1h5.1V542.6z M865.7,542.6h-5.1v-2.1h5.1V542.6z M855.5,542.6h-5.1v-2.1h5.1V542.6z"/>
</g>
<g>
	<g>
		<circle class="st1" cx="881.2" cy="576.2" r="4.9"/>
	</g>
	<g>
		<circle class="st1" cx="881.2" cy="598.6" r="4.9"/>
	</g>
	<g>
		<circle class="st1" cx="881.2" cy="621" r="4.9"/>
	</g>
	<g>
		<circle class="st1" cx="881.2" cy="643.4" r="4.9"/>
	</g>
	<g>
		<path class="st0" d="M896.8,582.9v-1.3l4.4-4.9c0.8-0.9,1.3-1.6,1.6-2.1s0.4-1.1,0.4-1.6c0-0.7-0.2-1.2-0.6-1.7
			c-0.4-0.5-0.9-0.7-1.6-0.7c-0.9,0-1.6,0.2-2.1,0.7c-0.4,0.5-0.7,1.2-0.7,2h-1.8l0-0.1c0-1.2,0.4-2.1,1.2-2.9
			c0.8-0.8,1.9-1.2,3.3-1.2c1.2,0,2.2,0.4,2.9,1.1c0.7,0.7,1.1,1.6,1.1,2.7c0,0.7-0.2,1.5-0.7,2.2c-0.4,0.7-1,1.5-1.8,2.4l-3.6,3.9
			l0,0h4.8l0.1-1.6h1.5v3H896.8z"/>
		<path class="st0" d="M916.2,577.7c0,1.7-0.4,3-1.2,4c-0.8,0.9-1.8,1.4-3.1,1.4c-1.3,0-2.4-0.5-3.1-1.4s-1.2-2.2-1.2-4v-3.2
			c0-1.7,0.4-3,1.2-4c0.8-0.9,1.8-1.4,3.1-1.4c1.3,0,2.4,0.5,3.2,1.4c0.8,0.9,1.2,2.2,1.2,4V577.7z M914.3,574.2
			c0-1.2-0.2-2-0.6-2.6c-0.4-0.6-1-0.9-1.9-0.9c-0.8,0-1.4,0.3-1.8,0.9c-0.4,0.6-0.6,1.5-0.6,2.6v4c0,1.2,0.2,2.1,0.6,2.6
			c0.4,0.6,1,0.9,1.8,0.9c0.8,0,1.4-0.3,1.8-0.9c0.4-0.6,0.6-1.5,0.6-2.7V574.2z"/>
		<path class="st0" d="M918.4,581.7l2.1-0.3v-10.1l-2.1,0v-1.1l4-0.9v12.1l2.1,0.3v1.2h-6V581.7z"/>
		<path class="st0" d="M928.5,575.3h1.6c0.8,0,1.4-0.2,1.7-0.6c0.3-0.4,0.5-1,0.5-1.7c0-0.8-0.2-1.4-0.6-1.8c-0.4-0.4-1-0.6-1.7-0.6
			c-0.7,0-1.3,0.2-1.7,0.6c-0.4,0.4-0.6,1-0.6,1.7h-1.8l0-0.1c0-1,0.3-1.9,1.1-2.6c0.8-0.7,1.8-1.1,3-1.1c1.2,0,2.2,0.3,3,1
			c0.7,0.7,1.1,1.6,1.1,2.8c0,0.6-0.2,1.1-0.5,1.7c-0.3,0.6-0.8,1-1.5,1.3c0.8,0.3,1.4,0.7,1.7,1.3c0.3,0.6,0.5,1.2,0.5,1.9
			c0,1.2-0.4,2.2-1.2,2.9c-0.8,0.7-1.8,1.1-3.1,1.1c-1.2,0-2.3-0.3-3.1-1c-0.8-0.7-1.2-1.6-1.2-2.7l0-0.1h1.7c0,0.7,0.2,1.3,0.7,1.7
			c0.4,0.4,1,0.6,1.8,0.6c0.8,0,1.4-0.2,1.8-0.6c0.4-0.4,0.7-1,0.7-1.9c0-0.8-0.2-1.5-0.6-1.8c-0.4-0.4-1-0.6-1.8-0.6h-1.6V575.3z"
			/>
		<path class="st0" d="M896.8,604.9v-1.3l4.4-4.9c0.8-0.9,1.3-1.6,1.6-2.1s0.4-1.1,0.4-1.6c0-0.7-0.2-1.2-0.6-1.7
			c-0.4-0.5-0.9-0.7-1.6-0.7c-0.9,0-1.6,0.2-2.1,0.7c-0.4,0.5-0.7,1.2-0.7,2h-1.8l0-0.1c0-1.2,0.4-2.1,1.2-2.9
			c0.8-0.8,1.9-1.2,3.3-1.2c1.2,0,2.2,0.4,2.9,1.1c0.7,0.7,1.1,1.6,1.1,2.7c0,0.7-0.2,1.5-0.7,2.2c-0.4,0.7-1,1.5-1.8,2.4l-3.6,3.9
			l0,0h4.8l0.1-1.6h1.5v3H896.8z"/>
		<path class="st0" d="M916.2,599.7c0,1.7-0.4,3-1.2,4c-0.8,0.9-1.8,1.4-3.1,1.4c-1.3,0-2.4-0.5-3.1-1.4s-1.2-2.2-1.2-4v-3.2
			c0-1.7,0.4-3,1.2-4c0.8-0.9,1.8-1.4,3.1-1.4c1.3,0,2.4,0.5,3.2,1.4c0.8,0.9,1.2,2.2,1.2,4V599.7z M914.3,596.2
			c0-1.2-0.2-2-0.6-2.6c-0.4-0.6-1-0.9-1.9-0.9c-0.8,0-1.4,0.3-1.8,0.9c-0.4,0.6-0.6,1.5-0.6,2.6v4c0,1.2,0.2,2.1,0.6,2.6
			c0.4,0.6,1,0.9,1.8,0.9c0.8,0,1.4-0.3,1.8-0.9c0.4-0.6,0.6-1.5,0.6-2.7V596.2z"/>
		<path class="st0" d="M918.4,603.7l2.1-0.3v-10.1l-2.1,0v-1.1l4-0.9v12.1l2.1,0.3v1.2h-6V603.7z"/>
		<path class="st0" d="M933.6,600.3h1.9v1.4h-1.9v1.7l1.5,0.3v1.2h-4.8v-1.2l1.5-0.3v-1.7h-6.1v-1l6-9.4h1.9V600.3z M927.6,600.3
			h4.1V594l-0.1,0l-0.2,0.5L927.6,600.3z"/>
		<path class="st0" d="M896.8,626.9v-1.3l4.4-4.9c0.8-0.9,1.3-1.6,1.6-2.1s0.4-1.1,0.4-1.6c0-0.7-0.2-1.2-0.6-1.7
			c-0.4-0.5-0.9-0.7-1.6-0.7c-0.9,0-1.6,0.2-2.1,0.7c-0.4,0.5-0.7,1.2-0.7,2h-1.8l0-0.1c0-1.2,0.4-2.1,1.2-2.9
			c0.8-0.8,1.9-1.2,3.3-1.2c1.2,0,2.2,0.4,2.9,1.1c0.7,0.7,1.1,1.6,1.1,2.7c0,0.7-0.2,1.5-0.7,2.2c-0.4,0.7-1,1.5-1.8,2.4l-3.6,3.9
			l0,0h4.8l0.1-1.6h1.5v3H896.8z"/>
		<path class="st0" d="M916.2,621.7c0,1.7-0.4,3-1.2,4c-0.8,0.9-1.8,1.4-3.1,1.4c-1.3,0-2.4-0.5-3.1-1.4s-1.2-2.2-1.2-4v-3.2
			c0-1.7,0.4-3,1.2-4c0.8-0.9,1.8-1.4,3.1-1.4c1.3,0,2.4,0.5,3.2,1.4c0.8,0.9,1.2,2.2,1.2,4V621.7z M914.3,618.2
			c0-1.2-0.2-2-0.6-2.6c-0.4-0.6-1-0.9-1.9-0.9c-0.8,0-1.4,0.3-1.8,0.9c-0.4,0.6-0.6,1.5-0.6,2.6v4c0,1.2,0.2,2.1,0.6,2.6
			c0.4,0.6,1,0.9,1.8,0.9c0.8,0,1.4-0.3,1.8-0.9c0.4-0.6,0.6-1.5,0.6-2.7V618.2z"/>
		<path class="st0" d="M918.4,625.7l2.1-0.3v-10.1l-2.1,0v-1.1l4-0.9v12.1l2.1,0.3v1.2h-6V625.7z"/>
		<path class="st0" d="M932.7,616.1l-0.2-1h-4l-0.4,3.8c0.3-0.2,0.6-0.4,0.9-0.5s0.8-0.2,1.2-0.2c1.2,0,2.2,0.4,2.9,1.2
			c0.7,0.8,1.1,1.9,1.1,3.3c0,1.4-0.4,2.4-1.1,3.3c-0.7,0.8-1.8,1.2-3.2,1.2c-1.1,0-2.1-0.3-2.9-0.9c-0.8-0.6-1.1-1.5-1.1-2.8l0-0.1
			h1.7c0,0.7,0.2,1.3,0.6,1.7s1,0.6,1.6,0.6c0.8,0,1.4-0.3,1.8-0.8c0.4-0.5,0.6-1.3,0.6-2.2c0-0.9-0.2-1.6-0.6-2.1s-1-0.8-1.8-0.8
			c-0.7,0-1.2,0.1-1.6,0.3c-0.3,0.2-0.6,0.5-0.7,1l-1.5-0.2l0.8-7.4h7.1v2.7H932.7z"/>
		<path class="st0" d="M896.8,648.9v-1.3l4.4-4.9c0.8-0.9,1.3-1.6,1.6-2.1s0.4-1.1,0.4-1.6c0-0.7-0.2-1.2-0.6-1.7
			c-0.4-0.5-0.9-0.7-1.6-0.7c-0.9,0-1.6,0.2-2.1,0.7c-0.4,0.5-0.7,1.2-0.7,2h-1.8l0-0.1c0-1.2,0.4-2.1,1.2-2.9
			c0.8-0.8,1.9-1.2,3.3-1.2c1.2,0,2.2,0.4,2.9,1.1c0.7,0.7,1.1,1.6,1.1,2.7c0,0.7-0.2,1.5-0.7,2.2c-0.4,0.7-1,1.5-1.8,2.4l-3.6,3.9
			l0,0h4.8l0.1-1.6h1.5v3H896.8z"/>
		<path class="st0" d="M916.2,643.7c0,1.7-0.4,3-1.2,4c-0.8,0.9-1.8,1.4-3.1,1.4c-1.3,0-2.4-0.5-3.1-1.4s-1.2-2.2-1.2-4v-3.2
			c0-1.7,0.4-3,1.2-4c0.8-0.9,1.8-1.4,3.1-1.4c1.3,0,2.4,0.5,3.2,1.4c0.8,0.9,1.2,2.2,1.2,4V643.7z M914.3,640.2
			c0-1.2-0.2-2-0.6-2.6c-0.4-0.6-1-0.9-1.9-0.9c-0.8,0-1.4,0.3-1.8,0.9c-0.4,0.6-0.6,1.5-0.6,2.6v4c0,1.2,0.2,2.1,0.6,2.6
			c0.4,0.6,1,0.9,1.8,0.9c0.8,0,1.4-0.3,1.8-0.9c0.4-0.6,0.6-1.5,0.6-2.7V640.2z"/>
		<path class="st0" d="M918.4,647.7l2.1-0.3v-10.1l-2.1,0v-1.1l4-0.9v12.1l2.1,0.3v1.2h-6V647.7z"/>
		<path class="st0" d="M931.3,635.2c0.5,0,0.9,0.1,1.4,0.2c0.5,0.1,0.8,0.2,1.1,0.4l-0.4,1.4c-0.3-0.1-0.6-0.3-1-0.3
			s-0.7-0.1-1.2-0.1c-0.9,0-1.7,0.4-2.3,1.1c-0.6,0.7-0.9,1.8-0.9,3.2l0,0c0.3-0.3,0.8-0.6,1.3-0.8c0.5-0.2,1-0.3,1.6-0.3
			c1.2,0,2.2,0.4,2.9,1.3c0.7,0.8,1.1,1.9,1.1,3.2c0,1.4-0.4,2.5-1.1,3.4s-1.8,1.3-3.1,1.3c-1.3,0-2.4-0.5-3.3-1.4
			c-0.9-1-1.3-2.3-1.3-4.1v-1.8c0-2.1,0.5-3.8,1.4-4.9C928.6,635.8,929.8,635.2,931.3,635.2z M930.6,641.3c-0.6,0-1.2,0.1-1.6,0.4
			c-0.4,0.3-0.8,0.6-1,1v1.1c0,1.3,0.3,2.2,0.8,2.9s1.2,1,2,1c0.7,0,1.3-0.3,1.7-0.9c0.4-0.6,0.6-1.4,0.6-2.4c0-0.9-0.2-1.6-0.7-2.2
			C932.1,641.6,931.4,641.3,930.6,641.3z"/>
	</g>
</g>
<g>
	<path d="M842.9,608.7h-5.1v-2.1h5.1V608.7z M832.7,608.7h-5.1v-2.1h5.1V608.7z M822.6,608.7h-5.1v-2.1h5.1V608.7z M812.4,608.7h-4
		v-2.1h4V608.7z"/>
</g>
<g>
	<path d="M702.5,822h-2.1v-4h2.1V822z M702.5,812.9h-2.1v-5.1h2.1V812.9z M702.5,802.7h-2.1v-5.1h2.1V802.7z M702.5,792.6h-2.1v-5.1
		h2.1V792.6z"/>
</g>
<g>
	<path d="M596.2,407.2h-5.1v-2.1h5.1V407.2z M586,407.2H581v-2.1h5.1V407.2z M575.9,407.2h-5.1v-2.1h5.1V407.2z M565.7,407.2h-5.1
		v-2.1h5.1V407.2z M555.6,407.2h-5.1v-2.1h5.1V407.2z M545.4,407.2h-2.5v-4.7h2.1v2.5h0.4V407.2z M545,397.5h-2.1v-5.1h2.1V397.5z
		 M545,387.3h-2.1v-5.1h2.1V387.3z M545,377.2h-2.1v-5.1h2.1V377.2z M545,367h-2.1v-5.1h2.1V367z M545,356.8h-2.1v-5.1h2.1V356.8z
		 M545,346.7h-2.1v-5.1h2.1V346.7z M545,336.5h-2.1v-5.1h2.1V336.5z M545,326.4h-2.1v-5.1h2.1V326.4z M545,316.2h-2.1v-5.1h2.1
		V316.2z M545,306h-2.1V301h2.1V306z M545,295.9h-2.1v-5.1h2.1V295.9z M545,285.7h-2.1v-5.1h2.1V285.7z M545,275.5h-2.1v-5.1h2.1
		V275.5z M545,265.4h-2.1v-5.1h2.1V265.4z M545,255.2h-2.1v-5.1h2.1V255.2z M545,245.1h-2.1V240h2.1V245.1z M545,234.9h-2.1v-5.1
		h2.1V234.9z M545,224.7h-2.1v-5.1h2.1V224.7z M545,214.6h-2.1v-5.1h2.1V214.6z M545,204.4h-2.1v-5.1h2.1V204.4z M545,194.2h-2.1
		v-5.1h2.1V194.2z M545,184.1h-2.1V179h2.1V184.1z M545,173.9h-2.1v-5.1h2.1V173.9z M545,163.8h-2.1v-5.1h2.1V163.8z M545,153.6
		h-2.1v-5.1h2.1V153.6z M545,143.4h-2.1v-5.1h2.1V143.4z M545,133.3h-2.1v-5.1h2.1V133.3z M545,123.1h-2.1V118h2.1V123.1z
		 M545,112.9h-2.1v-5.1h2.1V112.9z M545,102.8h-2.1v-5.1h2.1V102.8z M545,92.6h-2.1v-5.1h2.1V92.6z M545,82.5h-2.1v-5.1h2.1V82.5z
		 M545,72.3h-2.1v-5.1h2.1V72.3z M545,62.1h-2.1v-5.1h2.1V62.1z M545,52h-2.1v-5.1h2.1V52z M545,41.8h-2.1v-5.1h2.1V41.8z M545,31.7
		h-2.1v-5.1h2.1V31.7z M594.4,27.3h-5.1v-2.1h5.1V27.3z M584.3,27.3h-5.1v-2.1h5.1V27.3z M574.1,27.3H569v-2.1h5.1V27.3z
		 M563.9,27.3h-5.1v-2.1h5.1V27.3z M553.8,27.3h-5.1v-2.1h5.1V27.3z"/>
</g>
<g>
	<path d="M887.1,890.5H885v-5.1h2.1V890.5z M887.1,880.4H885v-5.1h2.1V880.4z M887.1,870.2H885v-5.1h2.1V870.2z M887.1,860H885V855
		h2.1V860z M887.1,849.9H885v-5.1h2.1V849.9z M887.1,839.7H885v-0.2h-2.8v-2.1h4.9V839.7z M877.1,839.5h-5.1v-2.1h5.1V839.5z
		 M867,839.5h-5.1v-2.1h5.1V839.5z M856.8,839.5h-5.1v-2.1h5.1V839.5z M846.7,839.5h-5.1v-2.1h5.1V839.5z"/>
</g>
<g>
	<path d="M507.2,890.8h-2.1v-5.1h2.1V890.8z M507.2,880.6h-2.1v-5.1h2.1V880.6z M507.2,870.5h-2.1v-5.1h2.1V870.5z M507.2,860.3
		h-2.1v-5.1h2.1V860.3z M507.2,850.1h-2.1V845h2.1V850.1z M507.2,840h-2.1v-2.5h4.7v2.1h-2.5V840z M560.6,839.5h-5.1v-2.1h5.1V839.5
		z M550.4,839.5h-5.1v-2.1h5.1V839.5z M540.3,839.5h-5.1v-2.1h5.1V839.5z M530.1,839.5H525v-2.1h5.1V839.5z M519.9,839.5h-5.1v-2.1
		h5.1V839.5z"/>
</g>
<g>
	<path d="M630,890.8h-2.1v-5.1h2.1V890.8z M630,880.6h-2.1v-5.1h2.1V880.6z M630,870.5h-2.1v-5.1h2.1V870.5z"/>
</g>
<g>
	<path class="st5" d="M759.4,838.5"/>
</g>
<g>
	<path d="M756.6,890.8h-2.1v-5.1h2.1V890.8z M756.6,880.6h-2.1v-5.1h2.1V880.6z M756.6,870.5h-2.1v-5.1h2.1V870.5z"/>
</g>
<g>
	<g>
		<path d="M487.8,978.6c-8.8,0-15.9-7.1-15.9-15.9s7.1-15.9,15.9-15.9s15.9,7.1,15.9,15.9S496.6,978.6,487.8,978.6z M487.8,949.6
			c-7.2,0-13.1,5.9-13.1,13.1s5.9,13.1,13.1,13.1s13.1-5.9,13.1-13.1S495,949.6,487.8,949.6z"/>
	</g>
	<g>
		<path d="M496.9,1022c-5.5,0-10.1-4.5-10.1-10.1s4.5-10.1,10.1-10.1s10.1,4.5,10.1,10.1S502.5,1022,496.9,1022z M496.9,1003.7
			c-4.5,0-8.2,3.7-8.2,8.2s3.7,8.2,8.2,8.2s8.2-3.7,8.2-8.2S501.5,1003.7,496.9,1003.7z"/>
	</g>
	<g>
		<path d="M529.9,972.7c-5.5,0-10.1-4.5-10.1-10.1s4.5-10.1,10.1-10.1s10.1,4.5,10.1,10.1S535.5,972.7,529.9,972.7z M529.9,954.4
			c-4.5,0-8.2,3.7-8.2,8.2s3.7,8.2,8.2,8.2s8.2-3.7,8.2-8.2S534.5,954.4,529.9,954.4z"/>
	</g>
	<g>
		<rect x="489.6" y="976.8" transform="matrix(0.9779 -0.2092 0.2092 0.9779 -196.2485 124.5214)" width="1.8" height="26.3"/>
	</g>
	<g>
		<rect x="502.3" y="961.7" width="18.5" height="1.8"/>
	</g>
	<g>
		<path class="st2" d="M483.3,926.9v-1.8l4.4-4.7c0.6-0.7,1.1-1.3,1.3-1.8c0.3-0.5,0.4-1,0.4-1.4c0-0.6-0.2-1-0.5-1.4
			c-0.3-0.4-0.7-0.5-1.3-0.5c-0.6,0-1.1,0.2-1.4,0.6s-0.5,1-0.5,1.7h-2.6l0-0.1c0-1.2,0.4-2.2,1.2-3.1c0.8-0.8,2-1.3,3.4-1.3
			c1.4,0,2.5,0.4,3.3,1.1c0.8,0.7,1.2,1.7,1.2,2.9c0,0.8-0.2,1.6-0.7,2.3s-1.2,1.6-2.2,2.7l-2.4,2.6l0,0h3.5l0.1-1.3h2.1v3.4H483.3z
			"/>
		<path class="st2" d="M503.2,921.6c0,1.8-0.4,3.1-1.2,4.1c-0.8,0.9-1.9,1.4-3.3,1.4c-1.4,0-2.5-0.5-3.3-1.4
			c-0.8-0.9-1.2-2.3-1.2-4.1v-3c0-1.8,0.4-3.1,1.2-4.1s1.9-1.4,3.3-1.4c1.4,0,2.5,0.5,3.3,1.4c0.8,0.9,1.2,2.3,1.2,4.1V921.6z
			 M500.5,918.3c0-1.1-0.2-1.9-0.5-2.4c-0.3-0.5-0.8-0.7-1.4-0.7c-0.6,0-1.1,0.2-1.4,0.7c-0.3,0.5-0.5,1.3-0.5,2.4v3.5
			c0,1.1,0.2,1.9,0.5,2.4c0.3,0.5,0.8,0.7,1.4,0.7c0.6,0,1.1-0.2,1.4-0.7c0.3-0.5,0.5-1.3,0.5-2.4V918.3z"/>
		<path class="st2" d="M504.6,925.2l2.3-0.3v-9.1h-2.3v-1.5l5-0.9V925l2.3,0.3v1.6h-7.3V925.2z"/>
		<path class="st2" d="M515.9,919h1.5c0.6,0,1.1-0.2,1.4-0.5c0.3-0.3,0.5-0.8,0.5-1.4c0-0.5-0.2-1-0.5-1.3c-0.3-0.3-0.8-0.5-1.3-0.5
			c-0.5,0-0.9,0.1-1.3,0.4s-0.5,0.7-0.5,1.2h-2.6l0-0.1c0-1.1,0.4-1.9,1.2-2.6s1.9-1,3.2-1c1.4,0,2.5,0.3,3.3,1
			c0.8,0.7,1.2,1.6,1.2,2.9c0,0.6-0.2,1.1-0.6,1.7c-0.4,0.5-0.9,0.9-1.5,1.2c0.7,0.3,1.3,0.7,1.7,1.2c0.4,0.6,0.6,1.2,0.6,1.9
			c0,1.2-0.5,2.2-1.3,2.9c-0.9,0.7-2.1,1.1-3.5,1.1c-1.3,0-2.3-0.3-3.2-1c-0.9-0.7-1.3-1.6-1.3-2.8l0-0.1h2.6c0,0.5,0.2,0.9,0.6,1.3
			s0.8,0.5,1.4,0.5c0.6,0,1.1-0.2,1.5-0.5c0.4-0.3,0.5-0.8,0.5-1.4c0-0.7-0.2-1.2-0.5-1.6c-0.4-0.3-0.9-0.5-1.6-0.5h-1.5V919z"/>
	</g>
</g>
<g>
	<g>
		<path d="M614.4,978.6c-8.8,0-15.9-7.1-15.9-15.9s7.1-15.9,15.9-15.9c8.8,0,15.9,7.1,15.9,15.9S623.2,978.6,614.4,978.6z
			 M614.4,949.6c-7.2,0-13.1,5.9-13.1,13.1s5.9,13.1,13.1,13.1c7.2,0,13.1-5.9,13.1-13.1S621.6,949.6,614.4,949.6z"/>
	</g>
	<g>
		<path d="M623.5,1022c-5.5,0-10.1-4.5-10.1-10.1s4.5-10.1,10.1-10.1s10.1,4.5,10.1,10.1S629.1,1022,623.5,1022z M623.5,1003.7
			c-4.5,0-8.2,3.7-8.2,8.2s3.7,8.2,8.2,8.2s8.2-3.7,8.2-8.2S628.1,1003.7,623.5,1003.7z"/>
	</g>
	<g>
		<path d="M656.6,972.7c-5.5,0-10.1-4.5-10.1-10.1s4.5-10.1,10.1-10.1c5.5,0,10,4.5,10,10.1S662.1,972.7,656.6,972.7z M656.6,954.4
			c-4.5,0-8.2,3.7-8.2,8.2s3.7,8.2,8.2,8.2c4.5,0,8.2-3.7,8.2-8.2S661.1,954.4,656.6,954.4z"/>
	</g>
	<g>
		<rect x="616.2" y="976.8" transform="matrix(0.9779 -0.2092 0.2092 0.9779 -193.4465 151.0126)" width="1.8" height="26.3"/>
	</g>
	<g>
		<rect x="628.9" y="961.7" width="18.5" height="1.8"/>
	</g>
	<g>
		<path class="st2" d="M609.9,926.9v-1.8l4.4-4.7c0.6-0.7,1.1-1.3,1.3-1.8c0.3-0.5,0.4-1,0.4-1.4c0-0.6-0.2-1-0.5-1.4
			c-0.3-0.4-0.7-0.5-1.3-0.5c-0.6,0-1.1,0.2-1.4,0.6s-0.5,1-0.5,1.7h-2.6l0-0.1c0-1.2,0.4-2.2,1.2-3.1c0.8-0.8,2-1.3,3.4-1.3
			c1.4,0,2.5,0.4,3.3,1.1c0.8,0.7,1.2,1.7,1.2,2.9c0,0.8-0.2,1.6-0.7,2.3s-1.2,1.6-2.2,2.7l-2.4,2.6l0,0h3.5l0.1-1.3h2.1v3.4H609.9z
			"/>
		<path class="st2" d="M629.8,921.6c0,1.8-0.4,3.1-1.2,4.1c-0.8,0.9-1.9,1.4-3.3,1.4c-1.4,0-2.5-0.5-3.3-1.4
			c-0.8-0.9-1.2-2.3-1.2-4.1v-3c0-1.8,0.4-3.1,1.2-4.1s1.9-1.4,3.3-1.4c1.4,0,2.5,0.5,3.3,1.4c0.8,0.9,1.2,2.3,1.2,4.1V921.6z
			 M627.1,918.3c0-1.1-0.2-1.9-0.5-2.4c-0.3-0.5-0.8-0.7-1.4-0.7c-0.6,0-1.1,0.2-1.4,0.7c-0.3,0.5-0.5,1.3-0.5,2.4v3.5
			c0,1.1,0.2,1.9,0.5,2.4c0.3,0.5,0.8,0.7,1.4,0.7c0.6,0,1.1-0.2,1.4-0.7c0.3-0.5,0.5-1.3,0.5-2.4V918.3z"/>
		<path class="st2" d="M631.2,925.2l2.3-0.3v-9.1h-2.3v-1.5l5-0.9V925l2.3,0.3v1.6h-7.3V925.2z"/>
		<path class="st2" d="M647.7,921.8h1.5v1.8h-1.5v1.3l1.4,0.3v1.6h-5.6v-1.6l1.4-0.3v-1.3h-5.5l-0.1-1.3l5.6-9h2.7V921.8z
			 M641.9,921.8h3.1V917l-0.1,0l-0.2,0.4L641.9,921.8z"/>
	</g>
</g>
<g>
	<g>
		<path d="M741,978.6c-8.8,0-15.9-7.1-15.9-15.9s7.1-15.9,15.9-15.9s15.9,7.1,15.9,15.9S749.8,978.6,741,978.6z M741,949.6
			c-7.2,0-13.1,5.9-13.1,13.1s5.9,13.1,13.1,13.1s13.1-5.9,13.1-13.1S748.2,949.6,741,949.6z"/>
	</g>
	<g>
		<path d="M750.2,1022c-5.5,0-10-4.5-10-10.1s4.5-10.1,10-10.1c5.5,0,10.1,4.5,10.1,10.1S755.7,1022,750.2,1022z M750.2,1003.7
			c-4.5,0-8.2,3.7-8.2,8.2s3.7,8.2,8.2,8.2c4.5,0,8.2-3.7,8.2-8.2S754.7,1003.7,750.2,1003.7z"/>
	</g>
	<g>
		<path d="M783.2,972.7c-5.5,0-10.1-4.5-10.1-10.1s4.5-10.1,10.1-10.1s10,4.5,10,10.1S788.7,972.7,783.2,972.7z M783.2,954.4
			c-4.5,0-8.2,3.7-8.2,8.2s3.7,8.2,8.2,8.2c4.5,0,8.2-3.7,8.2-8.2S787.7,954.4,783.2,954.4z"/>
	</g>
	<g>
		<rect x="742.9" y="976.8" transform="matrix(0.9779 -0.2092 0.2092 0.9779 -190.6445 177.5039)" width="1.8" height="26.3"/>
	</g>
	<g>
		<rect x="755.5" y="961.7" width="18.5" height="1.8"/>
	</g>
	<g>
		<path class="st2" d="M736.6,926.9v-1.8l4.4-4.7c0.6-0.7,1.1-1.3,1.3-1.8c0.3-0.5,0.4-1,0.4-1.4c0-0.6-0.2-1-0.5-1.4
			c-0.3-0.4-0.7-0.5-1.3-0.5c-0.6,0-1.1,0.2-1.4,0.6s-0.5,1-0.5,1.7h-2.6l0-0.1c0-1.2,0.4-2.2,1.2-3.1c0.8-0.8,2-1.3,3.4-1.3
			c1.4,0,2.5,0.4,3.3,1.1c0.8,0.7,1.2,1.7,1.2,2.9c0,0.8-0.2,1.6-0.7,2.3s-1.2,1.6-2.2,2.7l-2.4,2.6l0,0h3.5l0.1-1.3h2.1v3.4H736.6z
			"/>
		<path class="st2" d="M756.4,921.6c0,1.8-0.4,3.1-1.2,4.1c-0.8,0.9-1.9,1.4-3.3,1.4c-1.4,0-2.5-0.5-3.3-1.4
			c-0.8-0.9-1.2-2.3-1.2-4.1v-3c0-1.8,0.4-3.1,1.2-4.1s1.9-1.4,3.3-1.4c1.4,0,2.5,0.5,3.3,1.4c0.8,0.9,1.2,2.3,1.2,4.1V921.6z
			 M753.7,918.3c0-1.1-0.2-1.9-0.5-2.4c-0.3-0.5-0.8-0.7-1.4-0.7c-0.6,0-1.1,0.2-1.4,0.7c-0.3,0.5-0.5,1.3-0.5,2.4v3.5
			c0,1.1,0.2,1.9,0.5,2.4c0.3,0.5,0.8,0.7,1.4,0.7c0.6,0,1.1-0.2,1.4-0.7c0.3-0.5,0.5-1.3,0.5-2.4V918.3z"/>
		<path class="st2" d="M757.8,925.2l2.3-0.3v-9.1h-2.3v-1.5l5-0.9V925l2.3,0.3v1.6h-7.3V925.2z"/>
		<path class="st2" d="M773.4,916.4l-0.2-0.9h-3.6l-0.4,3.1c0.3-0.2,0.6-0.3,0.9-0.5c0.4-0.1,0.7-0.2,1.2-0.2c1.3,0,2.3,0.4,3,1.2
			c0.7,0.8,1.1,1.9,1.1,3.4c0,1.3-0.4,2.4-1.2,3.2c-0.8,0.9-1.9,1.3-3.4,1.3c-1.2,0-2.3-0.3-3.2-1c-0.9-0.7-1.3-1.6-1.3-2.8l0,0
			l2.6-0.1c0,0.6,0.2,1.1,0.5,1.4s0.8,0.5,1.3,0.5c0.6,0,1.1-0.2,1.4-0.7c0.3-0.5,0.5-1,0.5-1.8c0-0.8-0.2-1.4-0.5-1.9
			c-0.3-0.5-0.8-0.7-1.4-0.7c-0.5,0-0.9,0.1-1.2,0.3c-0.3,0.2-0.5,0.5-0.6,0.8l-2.4-0.2l0.8-7.5h7.8v3.1H773.4z"/>
	</g>
</g>
<g>
	<g>
		<path d="M867.7,978.6c-8.8,0-15.9-7.1-15.9-15.9s7.1-15.9,15.9-15.9s15.9,7.1,15.9,15.9S876.5,978.6,867.7,978.6z M867.7,949.6
			c-7.2,0-13.1,5.9-13.1,13.1s5.9,13.1,13.1,13.1s13.1-5.9,13.1-13.1S874.9,949.6,867.7,949.6z"/>
	</g>
	<g>
		<path d="M876.8,1022c-5.5,0-10-4.5-10-10.1s4.5-10.1,10-10.1c5.5,0,10.1,4.5,10.1,10.1S882.4,1022,876.8,1022z M876.8,1003.7
			c-4.5,0-8.2,3.7-8.2,8.2s3.7,8.2,8.2,8.2c4.5,0,8.2-3.7,8.2-8.2S881.4,1003.7,876.8,1003.7z"/>
	</g>
	<g>
		<path d="M909.8,972.7c-5.5,0-10.1-4.5-10.1-10.1s4.5-10.1,10.1-10.1s10,4.5,10,10.1S915.4,972.7,909.8,972.7z M909.8,954.4
			c-4.5,0-8.2,3.7-8.2,8.2s3.7,8.2,8.2,8.2c4.5,0,8.2-3.7,8.2-8.2S914.4,954.4,909.8,954.4z"/>
	</g>
	<g>
		<rect x="869.5" y="976.8" transform="matrix(0.9779 -0.2092 0.2092 0.9779 -187.8426 203.9952)" width="1.8" height="26.3"/>
	</g>
	<g>
		<rect x="882.2" y="961.7" width="18.5" height="1.8"/>
	</g>
	<g>
		<path class="st2" d="M863.2,926.9v-1.8l4.4-4.7c0.6-0.7,1.1-1.3,1.3-1.8c0.3-0.5,0.4-1,0.4-1.4c0-0.6-0.2-1-0.5-1.4
			c-0.3-0.4-0.7-0.5-1.3-0.5c-0.6,0-1.1,0.2-1.4,0.6s-0.5,1-0.5,1.7H863l0-0.1c0-1.2,0.4-2.2,1.2-3.1c0.8-0.8,2-1.3,3.4-1.3
			c1.4,0,2.5,0.4,3.3,1.1c0.8,0.7,1.2,1.7,1.2,2.9c0,0.8-0.2,1.6-0.7,2.3s-1.2,1.6-2.2,2.7l-2.4,2.6l0,0h3.5l0.1-1.3h2.1v3.4H863.2z
			"/>
		<path class="st2" d="M883.1,921.6c0,1.8-0.4,3.1-1.2,4.1c-0.8,0.9-1.9,1.4-3.3,1.4c-1.4,0-2.5-0.5-3.3-1.4
			c-0.8-0.9-1.2-2.3-1.2-4.1v-3c0-1.8,0.4-3.1,1.2-4.1c0.8-0.9,1.9-1.4,3.3-1.4c1.4,0,2.5,0.5,3.3,1.4c0.8,0.9,1.2,2.3,1.2,4.1
			V921.6z M880.4,918.3c0-1.1-0.2-1.9-0.5-2.4c-0.3-0.5-0.8-0.7-1.4-0.7c-0.6,0-1.1,0.2-1.4,0.7c-0.3,0.5-0.5,1.3-0.5,2.4v3.5
			c0,1.1,0.2,1.9,0.5,2.4c0.3,0.5,0.8,0.7,1.4,0.7c0.6,0,1.1-0.2,1.4-0.7c0.3-0.5,0.5-1.3,0.5-2.4V918.3z"/>
		<path class="st2" d="M884.5,925.2l2.3-0.3v-9.1h-2.3v-1.5l5-0.9V925l2.3,0.3v1.6h-7.3V925.2z"/>
		<path class="st2" d="M898.5,913.2c0.5,0,1,0,1.4,0.1c0.4,0.1,0.9,0.2,1.3,0.4l-0.5,2c-0.4-0.1-0.7-0.2-1.1-0.3
			c-0.3-0.1-0.7-0.1-1.1-0.1c-0.8,0-1.4,0.3-1.9,0.9c-0.5,0.6-0.7,1.5-0.7,2.6l0,0c0.3-0.3,0.7-0.6,1.2-0.7c0.5-0.2,1-0.3,1.6-0.3
			c1.2,0,2.2,0.4,2.8,1.3c0.7,0.9,1,2,1,3.3c0,1.4-0.4,2.5-1.3,3.4s-1.9,1.3-3.3,1.3c-1.4,0-2.6-0.5-3.5-1.5c-0.9-1-1.3-2.3-1.3-4
			v-2.4c0-1.9,0.5-3.4,1.5-4.5C895.6,913.7,896.9,913.2,898.5,913.2z M897.9,919.8c-0.5,0-0.9,0.1-1.3,0.2c-0.4,0.2-0.6,0.4-0.8,0.7
			v0.9c0,1.1,0.2,1.9,0.6,2.5c0.4,0.6,0.9,0.9,1.5,0.9c0.6,0,1-0.3,1.3-0.8c0.3-0.5,0.5-1.1,0.5-1.9c0-0.7-0.2-1.4-0.5-1.8
			C898.9,920.1,898.5,919.8,897.9,919.8z"/>
	</g>
</g>
</svg>
