<?xml version="1.0" encoding="utf-8"?>
<!-- Generator: Adobe Illustrator 21.0.0, SVG Export Plug-In . SVG Version: 6.00 Build 0)  -->
<svg version="1.1" id="Layer_1" xmlns="http://www.w3.org/2000/svg" xmlns:xlink="http://www.w3.org/1999/xlink" x="0px" y="0px"
	 viewBox="0 0 1142.6 345" style="enable-background:new 0 0 1142.6 345;" xml:space="preserve">
<style type="text/css">
	.st0{fill:#EFEFEF;}
	.st1{fill:#3C3C3B;}
	.st2{fill:#C7E8D9;}
	.st3{fill:#07291A;}
	.st4{fill:#25CE81;}
	.st5{fill:#FFFFFF;}
</style>
<g>
	<polyline class="st0" points="1110.3,110.4 42.2,110.4 42.2,294.8 1110.3,294.8 1110.3,110.4 	"/>
	<path class="st1" d="M64.8,321v-2.2h-1.3l-0.1,0.8h-2.2l0,0l1.5-1.7c0.7-0.7,1.1-1.3,1.4-1.7s0.4-0.9,0.4-1.4
		c0-0.8-0.3-1.4-0.8-1.8s-1.2-0.7-2.1-0.7c-0.9,0-1.6,0.3-2.1,0.8s-0.8,1.2-0.8,2l0,0h1.7c0-0.4,0.1-0.8,0.3-1.1s0.5-0.4,0.9-0.4
		c0.4,0,0.6,0.1,0.8,0.3s0.3,0.5,0.3,0.9c0,0.3-0.1,0.6-0.3,0.9s-0.5,0.7-0.8,1.2l-2.8,3v1.1H64.8z M53.6,321h4.6v-1l-1.4-0.2v-7.3
		l-3.2,0.6v1H55v5.8l-1.4,0.2V321z M51,317.8c0,0.7-0.1,1.2-0.3,1.5s-0.5,0.5-0.9,0.5c-0.4,0-0.7-0.2-0.9-0.5s-0.3-0.8-0.3-1.5v-2.2
		c0-0.7,0.1-1.2,0.3-1.5s0.5-0.5,0.9-0.5c0.4,0,0.7,0.2,0.9,0.5s0.3,0.8,0.3,1.5V317.8z M52.7,315.8c0-1.1-0.3-2-0.8-2.6
		s-1.2-0.9-2.1-0.9c-0.9,0-1.6,0.3-2.1,0.9s-0.8,1.4-0.8,2.6v1.9c0,1.1,0.3,2,0.8,2.6s1.2,0.9,2.1,0.9c0.9,0,1.6-0.3,2.1-0.9
		s0.8-1.4,0.8-2.6V315.8z M46,321v-2.2h-1.3l-0.1,0.8h-2.2l0,0l1.5-1.7c0.7-0.7,1.1-1.3,1.4-1.7s0.4-0.9,0.4-1.4
		c0-0.8-0.3-1.4-0.8-1.8s-1.2-0.7-2.1-0.7c-0.9,0-1.6,0.3-2.1,0.8s-0.8,1.2-0.8,2l0,0h1.7c0-0.4,0.1-0.8,0.3-1.1s0.5-0.4,0.9-0.4
		c0.4,0,0.6,0.1,0.8,0.3s0.3,0.5,0.3,0.9c0,0.3-0.1,0.6-0.3,0.9s-0.5,0.7-0.8,1.2l-2.8,3v1.1H46z M29.4,321h3.2v-1l-0.7-0.2v-3.4
		c0.1-0.2,0.3-0.3,0.5-0.4s0.4-0.1,0.6-0.1c0.3,0,0.6,0.1,0.8,0.3s0.3,0.5,0.3,0.9v2.8l-0.7,0.2v1h3.3v-1l-0.8-0.2V317
		c0-0.9-0.2-1.5-0.5-1.9s-0.9-0.6-1.5-0.6c-0.4,0-0.7,0.1-1,0.3s-0.6,0.4-0.8,0.8l-0.1-0.9h-2.5v1l0.9,0.2v3.9l-0.8,0.2V321z
		 M24.9,319.7c-0.1-0.1-0.2-0.3-0.2-0.5c0-0.2,0.1-0.4,0.3-0.6s0.5-0.3,0.8-0.3h0.9v1c-0.1,0.2-0.3,0.3-0.5,0.4s-0.4,0.2-0.7,0.2
		C25.2,319.9,25,319.8,24.9,319.7z M28.9,321v-1l-0.5-0.1l0-0.2c0-0.1,0-0.2,0-0.3v-2.6c0-0.7-0.2-1.3-0.7-1.6s-1.1-0.6-1.9-0.6
		c-0.5,0-0.9,0.1-1.3,0.2s-0.8,0.3-1.1,0.5l0,1.4h1.3l0.1-0.7c0.1-0.1,0.2-0.1,0.4-0.2s0.3-0.1,0.5-0.1c0.3,0,0.6,0.1,0.8,0.3
		s0.3,0.4,0.3,0.7v0.6h-0.9c-0.9,0-1.6,0.2-2.1,0.5s-0.7,0.8-0.7,1.4c0,0.6,0.2,1,0.5,1.4s0.9,0.5,1.5,0.5c0.4,0,0.7-0.1,1-0.2
		s0.5-0.3,0.7-0.6c0,0.1,0,0.2,0.1,0.3s0.1,0.2,0.1,0.3H28.9z M21.9,311.9h-1.7v1.3h1.7V311.9z M21.9,314.7h-2.6v1l0.9,0.2v5.4
		c0,0.3-0.1,0.6-0.2,0.7s-0.3,0.2-0.5,0.2c-0.1,0-0.2,0-0.3,0l-0.3-0.1l-0.1,1.3c0.1,0,0.3,0.1,0.4,0.1s0.3,0,0.4,0
		c0.7,0,1.2-0.2,1.6-0.6s0.6-1,0.6-1.7V314.7z"/>
	<path class="st1" d="M26.3,114c0,0.7-0.1,1.2-0.3,1.5s-0.5,0.5-0.9,0.5c-0.4,0-0.7-0.2-0.9-0.5s-0.3-0.8-0.3-1.5v-2.2
		c0-0.7,0.1-1.2,0.3-1.5s0.5-0.5,0.9-0.5c0.4,0,0.7,0.2,0.9,0.5s0.3,0.8,0.3,1.5V114z M28,112c0-1.1-0.3-2-0.8-2.6s-1.2-0.9-2.1-0.9
		c-0.9,0-1.6,0.3-2.1,0.9s-0.8,1.4-0.8,2.6v1.9c0,1.1,0.3,2,0.8,2.6s1.2,0.9,2.1,0.9c0.9,0,1.6-0.3,2.1-0.9s0.8-1.4,0.8-2.6V112z
		 M19.4,114c0,0.7-0.1,1.2-0.3,1.5s-0.5,0.5-0.9,0.5c-0.4,0-0.7-0.2-0.9-0.5S17,114.7,17,114v-2.2c0-0.7,0.1-1.2,0.3-1.5
		s0.5-0.5,0.9-0.5c0.4,0,0.7,0.2,0.9,0.5s0.3,0.8,0.3,1.5V114z M21.1,112c0-1.1-0.3-2-0.8-2.6s-1.2-0.9-2.1-0.9
		c-0.9,0-1.6,0.3-2.1,0.9s-0.8,1.4-0.8,2.6v1.9c0,1.1,0.3,2,0.8,2.6s1.2,0.9,2.1,0.9c0.9,0,1.6-0.3,2.1-0.9s0.8-1.4,0.8-2.6V112z
		 M9.8,117.2h4.6v-1L13,116v-7.3l-3.2,0.6v1h1.5v5.8l-1.4,0.2V117.2z"/>
	<path class="st1" d="M21.1,291.7c0,0.7-0.1,1.2-0.3,1.5s-0.5,0.5-0.9,0.5c-0.4,0-0.7-0.2-0.9-0.5s-0.3-0.8-0.3-1.5v-2.2
		c0-0.7,0.1-1.2,0.3-1.5s0.5-0.5,0.9-0.5c0.4,0,0.7,0.2,0.9,0.5s0.3,0.8,0.3,1.5V291.7z M22.8,289.6c0-1.1-0.3-2-0.8-2.6
		s-1.2-0.9-2.1-0.9c-0.9,0-1.6,0.3-2.1,0.9s-0.8,1.4-0.8,2.6v1.9c0,1.1,0.3,2,0.8,2.6s1.2,0.9,2.1,0.9c0.9,0,1.6-0.3,2.1-0.9
		s0.8-1.4,0.8-2.6V289.6z"/>
	<path class="st1" d="M274.4,317.3h1c0.4,0,0.8,0.1,1,0.3s0.3,0.5,0.3,1c0,0.4-0.1,0.7-0.3,0.9s-0.5,0.3-0.9,0.3
		c-0.4,0-0.7-0.1-0.9-0.3s-0.4-0.5-0.4-0.8h-1.7l0,0c0,0.8,0.3,1.4,0.8,1.8s1.2,0.6,2,0.6c0.9,0,1.6-0.2,2.2-0.7s0.9-1.1,0.9-1.8
		c0-0.5-0.1-0.9-0.4-1.2s-0.6-0.6-1.1-0.8c0.4-0.2,0.7-0.4,1-0.8s0.4-0.7,0.4-1.1c0-0.8-0.3-1.4-0.8-1.8s-1.2-0.6-2.1-0.6
		c-0.8,0-1.5,0.2-2,0.7s-0.8,1-0.8,1.7l0,0h1.7c0-0.3,0.1-0.6,0.3-0.7s0.5-0.3,0.8-0.3c0.4,0,0.7,0.1,0.8,0.3s0.3,0.5,0.3,0.8
		c0,0.4-0.1,0.7-0.3,0.9s-0.5,0.3-0.9,0.3h-1V317.3z M267.2,321h4.6v-1l-1.4-0.2v-7.3l-3.2,0.6v1h1.5v5.8l-1.4,0.2V321z
		 M264.6,317.8c0,0.7-0.1,1.2-0.3,1.5s-0.5,0.5-0.9,0.5c-0.4,0-0.7-0.2-0.9-0.5s-0.3-0.8-0.3-1.5v-2.2c0-0.7,0.1-1.2,0.3-1.5
		s0.5-0.5,0.9-0.5c0.4,0,0.7,0.2,0.9,0.5s0.3,0.8,0.3,1.5V317.8z M266.3,315.8c0-1.1-0.3-2-0.8-2.6s-1.2-0.9-2.1-0.9
		c-0.9,0-1.6,0.3-2.1,0.9s-0.8,1.4-0.8,2.6v1.9c0,1.1,0.3,2,0.8,2.6s1.2,0.9,2.1,0.9c0.9,0,1.6-0.3,2.1-0.9s0.8-1.4,0.8-2.6V315.8z
		 M259.6,321v-2.2h-1.3l-0.1,0.8H256l0,0l1.5-1.7c0.7-0.7,1.1-1.3,1.4-1.7s0.4-0.9,0.4-1.4c0-0.8-0.3-1.4-0.8-1.8s-1.2-0.7-2.1-0.7
		c-0.9,0-1.6,0.3-2.1,0.8s-0.8,1.2-0.8,2l0,0h1.7c0-0.4,0.1-0.8,0.3-1.1s0.5-0.4,0.9-0.4c0.4,0,0.6,0.1,0.8,0.3s0.3,0.5,0.3,0.9
		c0,0.3-0.1,0.6-0.3,0.9s-0.5,0.7-0.8,1.2l-2.8,3v1.1H259.6z M243.1,321h3.2v-1l-0.7-0.2v-3.4c0.1-0.2,0.3-0.3,0.5-0.4
		s0.4-0.1,0.6-0.1c0.3,0,0.6,0.1,0.8,0.3s0.3,0.5,0.3,0.9v2.8l-0.7,0.2v1h3.3v-1l-0.8-0.2V317c0-0.9-0.2-1.5-0.5-1.9
		s-0.9-0.6-1.5-0.6c-0.4,0-0.7,0.1-1,0.3s-0.6,0.4-0.8,0.8l-0.1-0.9H243v1l0.9,0.2v3.9l-0.8,0.2V321z M238.5,319.7
		c-0.1-0.1-0.2-0.3-0.2-0.5c0-0.2,0.1-0.4,0.3-0.6s0.5-0.3,0.8-0.3h0.9v1c-0.1,0.2-0.3,0.3-0.5,0.4s-0.4,0.2-0.7,0.2
		C238.9,319.9,238.7,319.8,238.5,319.7z M242.6,321v-1l-0.5-0.1l0-0.2c0-0.1,0-0.2,0-0.3v-2.6c0-0.7-0.2-1.3-0.7-1.6
		s-1.1-0.6-1.9-0.6c-0.5,0-0.9,0.1-1.3,0.2s-0.8,0.3-1.1,0.5l0,1.4h1.3l0.1-0.7c0.1-0.1,0.2-0.1,0.4-0.2s0.3-0.1,0.5-0.1
		c0.3,0,0.6,0.1,0.8,0.3s0.3,0.4,0.3,0.7v0.6h-0.9c-0.9,0-1.6,0.2-2.1,0.5s-0.7,0.8-0.7,1.4c0,0.6,0.2,1,0.5,1.4s0.9,0.5,1.5,0.5
		c0.4,0,0.7-0.1,1-0.2s0.5-0.3,0.7-0.6c0,0.1,0,0.2,0.1,0.3s0.1,0.2,0.1,0.3H242.6z M235.5,311.9h-1.7v1.3h1.7V311.9z M235.6,314.7
		h-2.6v1l0.9,0.2v5.4c0,0.3-0.1,0.6-0.2,0.7s-0.3,0.2-0.5,0.2c-0.1,0-0.2,0-0.3,0l-0.3-0.1l-0.1,1.3c0.1,0,0.3,0.1,0.4,0.1
		s0.3,0,0.4,0c0.7,0,1.2-0.2,1.6-0.6s0.6-1,0.6-1.7V314.7z"/>
	<path class="st1" d="M489.3,315l0.1-0.2l0,0v3.1h-2L489.3,315z M491.2,312.5h-1.7l-3.5,5.7l0.1,0.8h3.5v0.8l-0.9,0.2v1h3.5v-1
		l-0.9-0.2V319h1v-1.1h-1V312.5z M480.8,321h4.6v-1l-1.4-0.2v-7.3l-3.2,0.6v1h1.5v5.8l-1.4,0.2V321z M478.2,317.8
		c0,0.7-0.1,1.2-0.3,1.5s-0.5,0.5-0.9,0.5c-0.4,0-0.7-0.2-0.9-0.5s-0.3-0.8-0.3-1.5v-2.2c0-0.7,0.1-1.2,0.3-1.5s0.5-0.5,0.9-0.5
		c0.4,0,0.7,0.2,0.9,0.5s0.3,0.8,0.3,1.5V317.8z M479.9,315.8c0-1.1-0.3-2-0.8-2.6s-1.2-0.9-2.1-0.9c-0.9,0-1.6,0.3-2.1,0.9
		s-0.8,1.4-0.8,2.6v1.9c0,1.1,0.3,2,0.8,2.6s1.2,0.9,2.1,0.9c0.9,0,1.6-0.3,2.1-0.9s0.8-1.4,0.8-2.6V315.8z M473.2,321v-2.2h-1.3
		l-0.1,0.8h-2.2l0,0l1.5-1.7c0.7-0.7,1.1-1.3,1.4-1.7s0.4-0.9,0.4-1.4c0-0.8-0.3-1.4-0.8-1.8s-1.2-0.7-2.1-0.7
		c-0.9,0-1.6,0.3-2.1,0.8s-0.8,1.2-0.8,2l0,0h1.7c0-0.4,0.1-0.8,0.3-1.1s0.5-0.4,0.9-0.4c0.4,0,0.6,0.1,0.8,0.3s0.3,0.5,0.3,0.9
		c0,0.3-0.1,0.6-0.3,0.9s-0.5,0.7-0.8,1.2l-2.8,3v1.1H473.2z M456.7,321h3.2v-1l-0.7-0.2v-3.4c0.1-0.2,0.3-0.3,0.5-0.4
		s0.4-0.1,0.6-0.1c0.3,0,0.6,0.1,0.8,0.3s0.3,0.5,0.3,0.9v2.8l-0.7,0.2v1h3.3v-1l-0.8-0.2V317c0-0.9-0.2-1.5-0.5-1.9
		s-0.9-0.6-1.5-0.6c-0.4,0-0.7,0.1-1,0.3s-0.6,0.4-0.8,0.8l-0.1-0.9h-2.5v1l0.9,0.2v3.9l-0.8,0.2V321z M452.1,319.7
		c-0.1-0.1-0.2-0.3-0.2-0.5c0-0.2,0.1-0.4,0.3-0.6s0.5-0.3,0.8-0.3h0.9v1c-0.1,0.2-0.3,0.3-0.5,0.4s-0.4,0.2-0.7,0.2
		C452.5,319.9,452.3,319.8,452.1,319.7z M456.2,321v-1l-0.5-0.1l0-0.2c0-0.1,0-0.2,0-0.3v-2.6c0-0.7-0.2-1.3-0.7-1.6
		s-1.1-0.6-1.9-0.6c-0.5,0-0.9,0.1-1.3,0.2s-0.8,0.3-1.1,0.5l0,1.4h1.3l0.1-0.7c0.1-0.1,0.2-0.1,0.4-0.2s0.3-0.1,0.5-0.1
		c0.3,0,0.6,0.1,0.8,0.3s0.3,0.4,0.3,0.7v0.6H453c-0.9,0-1.6,0.2-2.1,0.5s-0.7,0.8-0.7,1.4c0,0.6,0.2,1,0.5,1.4s0.9,0.5,1.5,0.5
		c0.4,0,0.7-0.1,1-0.2s0.5-0.3,0.7-0.6c0,0.1,0,0.2,0.1,0.3s0.1,0.2,0.1,0.3H456.2z M449.1,311.9h-1.7v1.3h1.7V311.9z M449.2,314.7
		h-2.6v1l0.9,0.2v5.4c0,0.3-0.1,0.6-0.2,0.7s-0.3,0.2-0.5,0.2c-0.1,0-0.2,0-0.3,0l-0.3-0.1l-0.1,1.3c0.1,0,0.3,0.1,0.4,0.1
		s0.3,0,0.4,0c0.7,0,1.2-0.2,1.6-0.6s0.6-1,0.6-1.7V314.7z"/>
	<path class="st1" d="M705.3,314.4v-1.9h-4.9l-0.5,4.8l1.5,0.1c0.1-0.2,0.2-0.4,0.4-0.5s0.4-0.2,0.7-0.2c0.4,0,0.7,0.1,0.9,0.4
		s0.3,0.7,0.3,1.2c0,0.5-0.1,0.8-0.3,1.1s-0.5,0.4-0.9,0.4c-0.3,0-0.6-0.1-0.8-0.3s-0.3-0.5-0.3-0.9l-1.6,0.1l0,0
		c0,0.8,0.3,1.3,0.8,1.8s1.2,0.6,2,0.6c0.9,0,1.6-0.3,2.1-0.8s0.7-1.2,0.7-2c0-0.9-0.2-1.6-0.7-2.1s-1.1-0.8-1.9-0.7
		c-0.3,0-0.5,0-0.7,0.1s-0.4,0.2-0.6,0.3l0.2-2h2.3l0.2,0.6H705.3z M694.4,321h4.6v-1l-1.4-0.2v-7.3l-3.2,0.6v1h1.5v5.8l-1.4,0.2
		V321z M691.8,317.8c0,0.7-0.1,1.2-0.3,1.5s-0.5,0.5-0.9,0.5c-0.4,0-0.7-0.2-0.9-0.5s-0.3-0.8-0.3-1.5v-2.2c0-0.7,0.1-1.2,0.3-1.5
		s0.5-0.5,0.9-0.5c0.4,0,0.7,0.2,0.9,0.5s0.3,0.8,0.3,1.5V317.8z M693.5,315.8c0-1.1-0.3-2-0.8-2.6s-1.2-0.9-2.1-0.9
		c-0.9,0-1.6,0.3-2.1,0.9s-0.8,1.4-0.8,2.6v1.9c0,1.1,0.3,2,0.8,2.6s1.2,0.9,2.1,0.9c0.9,0,1.6-0.3,2.1-0.9s0.8-1.4,0.8-2.6V315.8z
		 M686.8,321v-2.2h-1.3l-0.1,0.8h-2.2l0,0l1.5-1.7c0.7-0.7,1.1-1.3,1.4-1.7s0.4-0.9,0.4-1.4c0-0.8-0.3-1.4-0.8-1.8s-1.2-0.7-2.1-0.7
		c-0.9,0-1.6,0.3-2.1,0.8s-0.8,1.2-0.8,2l0,0h1.7c0-0.4,0.1-0.8,0.3-1.1s0.5-0.4,0.9-0.4c0.4,0,0.6,0.1,0.8,0.3s0.3,0.5,0.3,0.9
		c0,0.3-0.1,0.6-0.3,0.9s-0.5,0.7-0.8,1.2l-2.8,3v1.1H686.8z M670.3,321h3.2v-1l-0.7-0.2v-3.4c0.1-0.2,0.3-0.3,0.5-0.4
		s0.4-0.1,0.6-0.1c0.3,0,0.6,0.1,0.8,0.3s0.3,0.5,0.3,0.9v2.8l-0.7,0.2v1h3.3v-1l-0.8-0.2V317c0-0.9-0.2-1.5-0.5-1.9
		s-0.9-0.6-1.5-0.6c-0.4,0-0.7,0.1-1,0.3s-0.6,0.4-0.8,0.8l-0.1-0.9h-2.5v1l0.9,0.2v3.9l-0.8,0.2V321z M665.8,319.7
		c-0.1-0.1-0.2-0.3-0.2-0.5c0-0.2,0.1-0.4,0.3-0.6s0.5-0.3,0.8-0.3h0.9v1c-0.1,0.2-0.3,0.3-0.5,0.4s-0.4,0.2-0.7,0.2
		C666.1,319.9,665.9,319.8,665.8,319.7z M669.8,321v-1l-0.5-0.1l0-0.2c0-0.1,0-0.2,0-0.3v-2.6c0-0.7-0.2-1.3-0.7-1.6
		s-1.1-0.6-1.9-0.6c-0.5,0-0.9,0.1-1.3,0.2s-0.8,0.3-1.1,0.5l0,1.4h1.3l0.1-0.7c0.1-0.1,0.2-0.1,0.4-0.2s0.3-0.1,0.5-0.1
		c0.3,0,0.6,0.1,0.8,0.3s0.3,0.4,0.3,0.7v0.6h-0.9c-0.9,0-1.6,0.2-2.1,0.5s-0.7,0.8-0.7,1.4c0,0.6,0.2,1,0.5,1.4s0.9,0.5,1.5,0.5
		c0.4,0,0.7-0.1,1-0.2s0.5-0.3,0.7-0.6c0,0.1,0,0.2,0.1,0.3s0.1,0.2,0.1,0.3H669.8z M662.8,311.9H661v1.3h1.7V311.9z M662.8,314.7
		h-2.6v1l0.9,0.2v5.4c0,0.3-0.1,0.6-0.2,0.7s-0.3,0.2-0.5,0.2c-0.1,0-0.2,0-0.3,0l-0.3-0.1l-0.1,1.3c0.1,0,0.3,0.1,0.4,0.1
		s0.3,0,0.4,0c0.7,0,1.2-0.2,1.6-0.6s0.6-1,0.6-1.7V314.7z"/>
	<path class="st1" d="M918,317c0.2,0.3,0.3,0.7,0.3,1.1c0,0.5-0.1,0.8-0.3,1.2s-0.5,0.5-0.8,0.5c-0.4,0-0.7-0.2-1-0.5
		s-0.4-0.9-0.4-1.6v-0.6c0.1-0.2,0.3-0.3,0.5-0.4s0.5-0.2,0.8-0.2C917.5,316.6,917.8,316.7,918,317z M915.1,313.4
		c-0.6,0.7-1,1.6-1,2.8v1.5c0,1.1,0.3,1.9,0.8,2.5s1.3,0.9,2.2,0.9c0.8,0,1.5-0.3,2.1-0.8s0.8-1.3,0.8-2.1c0-0.8-0.2-1.5-0.7-2.1
		s-1-0.8-1.8-0.8c-0.4,0-0.7,0.1-1,0.2s-0.5,0.3-0.7,0.5l0,0c0-0.7,0.2-1.3,0.5-1.6s0.7-0.6,1.2-0.6c0.3,0,0.5,0,0.7,0.1
		s0.4,0.1,0.7,0.2l0.3-1.2c-0.3-0.1-0.5-0.2-0.8-0.3s-0.6-0.1-0.9-0.1C916.5,312.4,915.7,312.7,915.1,313.4z M908.6,321h4.6v-1
		l-1.4-0.2v-7.3l-3.2,0.6v1h1.5v5.8l-1.4,0.2V321z M906,317.8c0,0.7-0.1,1.2-0.3,1.5s-0.5,0.5-0.9,0.5c-0.4,0-0.7-0.2-0.9-0.5
		s-0.3-0.8-0.3-1.5v-2.2c0-0.7,0.1-1.2,0.3-1.5s0.5-0.5,0.9-0.5c0.4,0,0.7,0.2,0.9,0.5s0.3,0.8,0.3,1.5V317.8z M907.7,315.8
		c0-1.1-0.3-2-0.8-2.6s-1.2-0.9-2.1-0.9c-0.9,0-1.6,0.3-2.1,0.9s-0.8,1.4-0.8,2.6v1.9c0,1.1,0.3,2,0.8,2.6s1.2,0.9,2.1,0.9
		c0.9,0,1.6-0.3,2.1-0.9s0.8-1.4,0.8-2.6V315.8z M901,321v-2.2h-1.3l-0.1,0.8h-2.2l0,0l1.5-1.7c0.7-0.7,1.1-1.3,1.4-1.7
		s0.4-0.9,0.4-1.4c0-0.8-0.3-1.4-0.8-1.8s-1.2-0.7-2.1-0.7c-0.9,0-1.6,0.3-2.1,0.8s-0.8,1.2-0.8,2l0,0h1.7c0-0.4,0.1-0.8,0.3-1.1
		s0.5-0.4,0.9-0.4c0.4,0,0.6,0.1,0.8,0.3s0.3,0.5,0.3,0.9c0,0.3-0.1,0.6-0.3,0.9s-0.5,0.7-0.8,1.2l-2.8,3v1.1H901z M884.5,321h3.2
		v-1l-0.7-0.2v-3.4c0.1-0.2,0.3-0.3,0.5-0.4s0.4-0.1,0.6-0.1c0.3,0,0.6,0.1,0.8,0.3s0.3,0.5,0.3,0.9v2.8l-0.7,0.2v1h3.3v-1l-0.8-0.2
		V317c0-0.9-0.2-1.5-0.5-1.9s-0.9-0.6-1.5-0.6c-0.4,0-0.7,0.1-1,0.3s-0.6,0.4-0.8,0.8l-0.1-0.9h-2.5v1l0.9,0.2v3.9l-0.8,0.2V321z
		 M880,319.7c-0.1-0.1-0.2-0.3-0.2-0.5c0-0.2,0.1-0.4,0.3-0.6s0.5-0.3,0.8-0.3h0.9v1c-0.1,0.2-0.3,0.3-0.5,0.4s-0.4,0.2-0.7,0.2
		C880.3,319.9,880.1,319.8,880,319.7z M884,321v-1l-0.5-0.1l0-0.2c0-0.1,0-0.2,0-0.3v-2.6c0-0.7-0.2-1.3-0.7-1.6s-1.1-0.6-1.9-0.6
		c-0.5,0-0.9,0.1-1.3,0.2s-0.8,0.3-1.1,0.5l0,1.4h1.3l0.1-0.7c0.1-0.1,0.2-0.1,0.4-0.2s0.3-0.1,0.5-0.1c0.3,0,0.6,0.1,0.8,0.3
		s0.3,0.4,0.3,0.7v0.6h-0.9c-0.9,0-1.6,0.2-2.1,0.5s-0.7,0.8-0.7,1.4c0,0.6,0.2,1,0.5,1.4s0.9,0.5,1.5,0.5c0.4,0,0.7-0.1,1-0.2
		s0.5-0.3,0.7-0.6c0,0.1,0,0.2,0.1,0.3s0.1,0.2,0.1,0.3H884z M877,311.9h-1.7v1.3h1.7V311.9z M877,314.7h-2.6v1l0.9,0.2v5.4
		c0,0.3-0.1,0.6-0.2,0.7s-0.3,0.2-0.5,0.2c-0.1,0-0.2,0-0.3,0l-0.3-0.1l-0.1,1.3c0.1,0,0.3,0.1,0.4,0.1s0.3,0,0.4,0
		c0.7,0,1.2-0.2,1.6-0.6s0.6-1,0.6-1.7V314.7z"/>
	<polyline points="41.7,110.4 41.7,294.8 42.7,294.8 42.7,110.4 	"/>
	<path class="st1" d="M1133.7,317c0.2,0.3,0.3,0.7,0.3,1.1c0,0.5-0.1,0.8-0.3,1.2s-0.5,0.5-0.8,0.5c-0.4,0-0.7-0.2-1-0.5
		s-0.4-0.9-0.4-1.6v-0.6c0.1-0.2,0.3-0.3,0.5-0.4s0.5-0.2,0.8-0.2C1133.2,316.6,1133.5,316.7,1133.7,317z M1130.8,313.4
		c-0.6,0.7-1,1.6-1,2.8v1.5c0,1.1,0.3,1.9,0.8,2.5s1.3,0.9,2.2,0.9c0.8,0,1.5-0.3,2.1-0.8s0.8-1.3,0.8-2.1c0-0.8-0.2-1.5-0.7-2.1
		s-1-0.8-1.8-0.8c-0.4,0-0.7,0.1-1,0.2s-0.5,0.3-0.7,0.5l0,0c0-0.7,0.2-1.3,0.5-1.6s0.7-0.6,1.2-0.6c0.3,0,0.5,0,0.7,0.1
		s0.4,0.1,0.7,0.2l0.3-1.2c-0.3-0.1-0.5-0.2-0.8-0.3s-0.6-0.1-0.9-0.1C1132.2,312.4,1131.4,312.7,1130.8,313.4z M1124.3,321h4.6v-1
		l-1.4-0.2v-7.3l-3.2,0.6v1h1.5v5.8l-1.4,0.2V321z M1121.7,317.8c0,0.7-0.1,1.2-0.3,1.5s-0.5,0.5-0.9,0.5c-0.4,0-0.7-0.2-0.9-0.5
		s-0.3-0.8-0.3-1.5v-2.2c0-0.7,0.1-1.2,0.3-1.5s0.5-0.5,0.9-0.5c0.4,0,0.7,0.2,0.9,0.5s0.3,0.8,0.3,1.5V317.8z M1123.4,315.8
		c0-1.1-0.3-2-0.8-2.6s-1.2-0.9-2.1-0.9c-0.9,0-1.6,0.3-2.1,0.9s-0.8,1.4-0.8,2.6v1.9c0,1.1,0.3,2,0.8,2.6s1.2,0.9,2.1,0.9
		c0.9,0,1.6-0.3,2.1-0.9s0.8-1.4,0.8-2.6V315.8z M1116.7,321v-2.2h-1.3l-0.1,0.8h-2.2l0,0l1.5-1.7c0.7-0.7,1.1-1.3,1.4-1.7
		s0.4-0.9,0.4-1.4c0-0.8-0.3-1.4-0.8-1.8s-1.2-0.7-2.1-0.7c-0.9,0-1.6,0.3-2.1,0.8s-0.8,1.2-0.8,2l0,0h1.7c0-0.4,0.1-0.8,0.3-1.1
		s0.5-0.4,0.9-0.4c0.4,0,0.6,0.1,0.8,0.3s0.3,0.5,0.3,0.9c0,0.3-0.1,0.6-0.3,0.9s-0.5,0.7-0.8,1.2l-2.8,3v1.1H1116.7z M1103.6,319.3
		c-0.2-0.3-0.3-0.8-0.3-1.4v-0.2c0-0.6,0.1-1,0.3-1.4s0.5-0.5,1-0.5c0.2,0,0.3,0,0.4,0.1s0.2,0.1,0.3,0.2l0.3,1h1.4l0-1.7
		c-0.3-0.3-0.6-0.5-1-0.6s-0.9-0.2-1.4-0.2c-1,0-1.7,0.3-2.2,0.9s-0.8,1.4-0.8,2.3v0.2c0,0.9,0.3,1.7,0.8,2.3s1.2,0.9,2.2,0.9
		c0.7,0,1.4-0.2,1.9-0.6s0.7-1,0.7-1.6l0,0h-1.5c0,0.3-0.1,0.5-0.3,0.7s-0.4,0.3-0.7,0.3C1104.1,319.8,1103.8,319.6,1103.6,319.3z
		 M1098.8,316.2c0.2,0.2,0.3,0.5,0.3,0.9v0.2h-2.1l0,0c0-0.4,0.2-0.7,0.3-1s0.4-0.4,0.8-0.4C1098.4,315.9,1098.7,316,1098.8,316.2z
		 M1099.6,320.9c0.4-0.1,0.8-0.3,1-0.5l-0.5-1.1c-0.3,0.2-0.6,0.3-0.8,0.4s-0.6,0.1-0.9,0.1c-0.4,0-0.8-0.1-1-0.4s-0.4-0.6-0.4-1
		l0,0h3.8v-0.9c0-0.9-0.2-1.6-0.7-2.1s-1.1-0.8-2-0.8c-0.9,0-1.6,0.3-2.1,0.9s-0.8,1.4-0.8,2.3v0.2c0,0.9,0.3,1.6,0.8,2.2
		s1.3,0.9,2.2,0.9C1098.7,321.1,1099.2,321.1,1099.6,320.9z M1089.8,317.9c0-0.6,0.1-1.1,0.3-1.5s0.5-0.6,0.9-0.6
		c0.2,0,0.5,0.1,0.6,0.2s0.3,0.3,0.4,0.5v2.7c-0.1,0.2-0.3,0.3-0.5,0.4s-0.4,0.2-0.7,0.2c-0.4,0-0.7-0.2-0.9-0.5s-0.3-0.8-0.3-1.3
		V317.9z M1092.3,321h2.3v-1l-0.8-0.2v-7.9h-1.7h-0.9v1l0.9,0.2v2.3c-0.2-0.3-0.4-0.5-0.7-0.6s-0.5-0.2-0.9-0.2
		c-0.8,0-1.4,0.3-1.8,0.9s-0.7,1.4-0.7,2.4v0.1c0,0.9,0.2,1.7,0.6,2.3s1,0.9,1.8,0.9c0.3,0,0.7-0.1,0.9-0.2s0.5-0.4,0.7-0.7
		L1092.3,321z"/>
	<polyline points="42.2,295.3 1110.9,295.3 1110.9,294.3 42.2,294.3 42.2,295.3 	"/>
	<path class="st1" d="M777.4,55.6c-0.3-0.1-0.7,0-1.2,0.1s-0.9,0.3-1.3,0.5c-0.7,0.4-1.1,0.9-1.3,1.4c-0.2,0.6-0.1,1.1,0.1,1.5
		c0.3,0.4,0.6,0.7,1.1,0.8s1.1,0,1.8-0.3c0.5-0.2,0.8-0.2,1.1-0.2c0.2,0,0.4,0.1,0.5,0.3c0.1,0.2,0.1,0.4,0,0.6
		c-0.1,0.2-0.3,0.4-0.6,0.6c-0.2,0.1-0.3,0.2-0.5,0.2s-0.3,0.1-0.5,0l-0.6-0.6l-1,0.6l0.7,1.2c0.4,0.1,0.8,0.1,1.2,0
		s0.8-0.2,1.3-0.5c0.7-0.4,1.2-0.9,1.4-1.4s0.2-1.1-0.1-1.6c-0.3-0.5-0.6-0.7-1.1-0.8s-1.1,0-1.9,0.3c-0.5,0.2-0.8,0.2-1,0.2
		s-0.4-0.1-0.5-0.3c-0.1-0.2-0.1-0.4,0-0.6s0.3-0.4,0.5-0.5c0.2-0.1,0.4-0.2,0.6-0.2c0.2,0,0.4,0,0.5,0l0.6,0.6l1-0.6L777.4,55.6z
		 M770,55.9l-1.5,0.9l0.6,1.1l1.5-0.9L770,55.9z M772.4,65.1l2.9-1.7l-0.5-0.9l-0.8,0.3l-2.6-4.5l-2.3,1.3l0.5,0.9l0.9-0.3l2,3.4
		l-0.6,0.6L772.4,65.1z M768.7,60.6c-0.3-0.1-0.7,0-1.2,0.1c-0.4,0.1-0.9,0.3-1.3,0.5c-0.7,0.4-1.1,0.9-1.3,1.4
		c-0.2,0.6-0.1,1.1,0.1,1.5c0.3,0.4,0.6,0.7,1.1,0.8s1.1,0,1.8-0.3c0.5-0.2,0.8-0.2,1.1-0.2c0.2,0,0.4,0.1,0.5,0.3
		c0.1,0.2,0.1,0.4,0,0.6c-0.1,0.2-0.3,0.4-0.6,0.6c-0.2,0.1-0.3,0.2-0.5,0.2s-0.3,0.1-0.5,0l-0.6-0.6l-1,0.6l0.7,1.2
		c0.4,0.1,0.8,0.1,1.2,0s0.8-0.2,1.3-0.5c0.7-0.4,1.2-0.9,1.4-1.4c0.2-0.6,0.2-1.1-0.1-1.6c-0.3-0.5-0.6-0.7-1.1-0.8s-1.1,0-1.9,0.3
		c-0.5,0.2-0.8,0.2-1,0.2c-0.2,0-0.4-0.1-0.5-0.3c-0.1-0.2-0.1-0.4,0-0.6s0.3-0.4,0.5-0.5c0.2-0.1,0.4-0.2,0.6-0.2
		c0.2,0,0.4,0,0.5,0l0.6,0.6l1-0.6L768.7,60.6z M762.3,65.3c0.3,0.1,0.5,0.3,0.7,0.6l0.1,0.1l-1.8,1l0,0c-0.2-0.4-0.2-0.7-0.2-1
		c0-0.3,0.2-0.5,0.5-0.7C761.8,65.3,762.1,65.2,762.3,65.3z M765.4,69c0.3-0.3,0.5-0.6,0.6-1l-0.9-0.7c-0.2,0.3-0.4,0.5-0.5,0.7
		s-0.4,0.4-0.8,0.6c-0.4,0.2-0.7,0.3-1.1,0.2c-0.3-0.1-0.6-0.3-0.9-0.7l0,0l3.3-1.9l-0.5-0.8c-0.4-0.8-1-1.2-1.7-1.5
		c-0.7-0.2-1.4-0.1-2.1,0.3c-0.8,0.4-1.2,1-1.4,1.8c-0.1,0.8,0,1.6,0.5,2.4l0.1,0.2c0.5,0.8,1.1,1.3,1.8,1.5
		c0.8,0.2,1.5,0.1,2.3-0.3C764.7,69.7,765.1,69.4,765.4,69z M754.9,75.2l2.8-1.6l-0.5-0.9l-0.7,0.2l-1.7-2.9c0-0.2,0.1-0.4,0.2-0.6
		c0.1-0.2,0.3-0.3,0.5-0.4c0.3-0.2,0.6-0.2,0.8-0.2c0.2,0.1,0.5,0.3,0.7,0.7l1.4,2.4l-0.5,0.5l0.5,0.9l2.8-1.6l-0.5-0.9l-0.8,0.3
		l-1.4-2.4c-0.4-0.7-0.9-1.2-1.4-1.4c-0.5-0.2-1-0.1-1.6,0.2c-0.3,0.2-0.6,0.4-0.8,0.8c-0.2,0.3-0.3,0.7-0.3,1l-0.5-0.7l-2.2,1.3
		l0.5,0.9l0.9-0.3l2,3.4l-0.6,0.6L754.9,75.2z M750.2,72.3c0.3,0.1,0.5,0.3,0.7,0.6l0.1,0.1l-1.8,1l0,0c-0.2-0.4-0.2-0.7-0.2-1
		c0-0.3,0.2-0.5,0.5-0.7C749.7,72.3,749.9,72.2,750.2,72.3z M753.2,76.1c0.3-0.3,0.5-0.6,0.6-1l-0.9-0.7c-0.2,0.3-0.4,0.5-0.5,0.7
		s-0.4,0.4-0.8,0.6c-0.4,0.2-0.7,0.3-1.1,0.2c-0.3-0.1-0.6-0.3-0.9-0.7l0,0l3.3-1.9l-0.5-0.8c-0.4-0.8-1-1.2-1.7-1.5
		c-0.7-0.2-1.4-0.1-2.1,0.3c-0.8,0.4-1.2,1-1.4,1.8c-0.1,0.8,0,1.6,0.5,2.4l0.1,0.2c0.5,0.8,1.1,1.3,1.8,1.5
		c0.8,0.2,1.5,0.1,2.3-0.3C752.6,76.7,752.9,76.4,753.2,76.1z M743.5,78.2c-0.3-0.5-0.5-1-0.5-1.4c0-0.4,0.2-0.7,0.5-0.9
		c0.2-0.1,0.4-0.2,0.6-0.2c0.2,0,0.4,0.1,0.6,0.2l1.4,2.4c0,0.2-0.1,0.4-0.2,0.6s-0.3,0.3-0.5,0.5c-0.4,0.2-0.7,0.2-1,0
		c-0.3-0.2-0.6-0.5-0.9-1L743.5,78.2z M742.1,79.1c0.5,0.8,1,1.4,1.7,1.6s1.3,0.2,2-0.2c0.3-0.2,0.5-0.4,0.7-0.6s0.3-0.5,0.3-0.8
		l0.2,0.4c0.2,0.4,0.3,0.8,0.3,1.1c-0.1,0.3-0.3,0.6-0.6,0.8c-0.3,0.2-0.5,0.3-0.8,0.3c-0.3,0.1-0.6,0.1-0.8,0.2l0.3,1.2
		c0.3,0,0.7-0.1,1-0.2c0.4-0.1,0.7-0.2,0.9-0.4c0.8-0.5,1.3-1,1.5-1.7c0.2-0.7,0.1-1.4-0.3-2.1l-3.1-5.3l-1.3,0.7l0.3,0.8
		c-0.3-0.2-0.6-0.2-0.9-0.2c-0.3,0-0.6,0.1-0.9,0.3c-0.7,0.4-1.1,1-1.1,1.7c-0.1,0.7,0.1,1.6,0.6,2.4L742.1,79.1z M737.3,78
		l-2.7,1.6l0.5,0.9l0.7-0.3l0.6,3.1l0,0l-0.3-0.4l-2-1.8l0.6-0.5l-0.5-0.9l-2.7,1.6l0.5,0.9l0.6-0.2l4.4,3.5l0.1,0.5
		c0,0.2,0,0.4,0,0.6c-0.1,0.2-0.2,0.4-0.5,0.5l-0.1,0.1l-0.2,0.1l0.5,1.2c0.2,0,0.3-0.1,0.4-0.1c0.1,0,0.2-0.1,0.4-0.2
		c0.5-0.3,0.9-0.7,1-1.1c0.1-0.4,0.1-0.9,0.1-1.4l-1.1-6.5l0.5-0.4L737.3,78z M730.5,89.3l2.9-1.7l-0.5-0.9l-0.8,0.3l-1.5-2.7
		c0-0.2,0-0.4,0.1-0.5c0.1-0.2,0.2-0.3,0.5-0.4l0.6-0.3l-0.6-1.4c-0.1,0-0.1,0-0.2,0.1s-0.2,0.1-0.3,0.1c-0.3,0.2-0.5,0.4-0.6,0.6
		c-0.1,0.3-0.1,0.6-0.1,1l-0.5-0.8l-2.2,1.3l0.5,0.9l0.9-0.3l2,3.4l-0.6,0.6L730.5,89.3z M725.8,90.5c-0.2,0-0.3-0.1-0.4-0.3
		c-0.1-0.2-0.1-0.4-0.1-0.7c0.1-0.2,0.3-0.5,0.6-0.6l0.8-0.4l0.5,0.8c0,0.2-0.1,0.4-0.2,0.6c-0.1,0.2-0.3,0.4-0.5,0.5
		C726.1,90.5,726,90.5,725.8,90.5z M729.9,89.6l-0.5-0.9l-0.5,0.2l-0.1-0.2l-0.1-0.2l-1.3-2.3c-0.4-0.6-0.8-1-1.5-1.1
		c-0.6-0.1-1.3,0.1-1.9,0.5c-0.4,0.2-0.8,0.5-1,0.8c-0.3,0.3-0.5,0.7-0.7,1l0.7,1.2L724,88l-0.2-0.6c0-0.1,0.1-0.2,0.2-0.3
		s0.2-0.2,0.4-0.3c0.3-0.2,0.6-0.2,0.8-0.2s0.4,0.2,0.6,0.5l0.3,0.5l-0.8,0.4c-0.8,0.5-1.3,1-1.6,1.5c-0.3,0.5-0.2,1,0.1,1.5
		c0.3,0.5,0.7,0.8,1.2,0.9c0.5,0.1,1,0,1.5-0.3c0.3-0.2,0.6-0.4,0.8-0.7c0.2-0.3,0.3-0.6,0.4-0.9l0.2,0.3c0.1,0.1,0.2,0.2,0.3,0.2
		L729.9,89.6z M720.5,95.1l2.9-1.7l-0.5-0.9l-0.8,0.3l-1.5-2.7c0-0.2,0-0.4,0.1-0.5c0.1-0.2,0.2-0.3,0.5-0.4l0.6-0.3l-0.6-1.4
		c-0.1,0-0.1,0-0.2,0.1s-0.2,0.1-0.3,0.1c-0.3,0.2-0.5,0.4-0.6,0.6c-0.1,0.3-0.1,0.6-0.1,1l-0.5-0.8l-2.2,1.3l0.5,0.9l0.9-0.3l2,3.4
		l-0.6,0.6L720.5,95.1z M716.7,93.8c0.3,0.5,0.4,0.9,0.4,1.3c0,0.4-0.2,0.6-0.6,0.9c-0.2,0.1-0.5,0.2-0.7,0.2
		c-0.2,0-0.4-0.1-0.6-0.2l-1.3-2.3c0-0.2,0-0.4,0.1-0.6c0.1-0.2,0.3-0.3,0.5-0.5c0.4-0.2,0.7-0.2,1.1,0s0.7,0.6,1,1.1L716.7,93.8z
		 M718.1,92.8c-0.5-0.9-1.1-1.5-1.8-1.8s-1.4-0.3-2,0.1c-0.3,0.2-0.5,0.4-0.7,0.6c-0.2,0.2-0.2,0.5-0.3,0.8l-1.7-3l-2.3,1.3l0.5,0.9
		l0.9-0.3l4,6.9l1.3-0.7l-0.3-0.7c0.3,0.2,0.6,0.2,0.9,0.2c0.3,0,0.6-0.1,1-0.3c0.7-0.4,1.1-0.9,1.2-1.6c0.1-0.7-0.1-1.5-0.6-2.3
		L718.1,92.8z M708.6,91.4l-1.5,0.9l0.6,1.1l1.5-0.9L708.6,91.4z M711,100.6l2.9-1.7l-0.5-0.9l-0.8,0.3l-2.6-4.5l-2.3,1.3l0.5,0.9
		l0.9-0.3l2,3.4l-0.6,0.6L711,100.6z M710.4,100.9l-1.2-2.1l-1.1,0.7l0.5,1l-2.1,1.2l-3-5.2l0.7-0.6l-0.5-0.9l-0.8,0.5l-1.5,0.9
		l-0.8,0.5l0.5,0.9l0.9-0.3l3.1,5.3l-0.7,0.6l0.5,0.9L710.4,100.9z"/>
	<path class="st1" d="M762.9,45.7l0.8,1.3l-0.8,0.5l0.6,1l0.8-0.5l1.6,2.8c0.4,0.6,0.7,1,1.2,1.1c0.4,0.1,0.9,0,1.4-0.3
		c0.2-0.1,0.4-0.2,0.5-0.3c0.1-0.1,0.3-0.3,0.4-0.4l-0.7-1l-0.2,0.2c-0.1,0.1-0.2,0.1-0.3,0.2c-0.1,0.1-0.3,0.1-0.4,0.1
		s-0.3-0.2-0.4-0.4l-1.6-2.8l1-0.6l-0.6-1l-1,0.6l-0.8-1.3L762.9,45.7z M762.4,48.4c-0.3-0.1-0.7,0-1.2,0.1
		c-0.4,0.1-0.9,0.3-1.3,0.5c-0.7,0.4-1.1,0.9-1.3,1.4c-0.2,0.6-0.1,1.1,0.1,1.5c0.3,0.4,0.6,0.7,1.1,0.8c0.5,0.1,1.1,0,1.8-0.3
		c0.5-0.2,0.8-0.2,1.1-0.2c0.2,0,0.4,0.1,0.5,0.3c0.1,0.2,0.1,0.4,0,0.6c-0.1,0.2-0.3,0.4-0.6,0.6c-0.2,0.1-0.3,0.2-0.5,0.2
		c-0.2,0.1-0.3,0.1-0.5,0l-0.6-0.6l-1,0.6l0.7,1.2c0.4,0.1,0.8,0.1,1.2,0c0.4-0.1,0.8-0.2,1.3-0.5c0.7-0.4,1.2-0.9,1.4-1.4
		s0.2-1.1-0.1-1.6c-0.3-0.5-0.6-0.7-1.1-0.8c-0.5-0.1-1.1,0-1.9,0.3c-0.5,0.2-0.8,0.2-1,0.2c-0.2,0-0.4-0.1-0.5-0.3
		c-0.1-0.2-0.1-0.4,0-0.6c0.1-0.2,0.3-0.4,0.5-0.5c0.2-0.1,0.4-0.2,0.6-0.2c0.2,0,0.4,0,0.5,0l0.6,0.6l1-0.6L762.4,48.4z
		 M758.3,57.5l2-1.1l-0.5-0.9l-0.8,0.2l-2.6-4.5l-1.5,0.9l-0.7,0.4l0.5,0.9l0.7-0.2l1.7,3c0,0.2-0.1,0.4-0.2,0.6s-0.3,0.3-0.5,0.5
		c-0.3,0.2-0.5,0.2-0.7,0.1c-0.2-0.1-0.5-0.3-0.7-0.7l-1.9-3.3l-1.5,0.9l-0.6,0.3l0.5,0.9l0.7-0.2l1.3,2.3c0.5,0.8,0.9,1.3,1.5,1.4
		s1.1,0.1,1.7-0.2c0.3-0.2,0.6-0.4,0.8-0.7s0.3-0.6,0.3-1L758.3,57.5z M745.8,56.3l1-0.6c0.4-0.2,0.8-0.3,1.1-0.2
		c0.3,0.1,0.6,0.3,0.8,0.6s0.2,0.6,0.1,0.9s-0.4,0.6-0.8,0.8l-1,0.6L745.8,56.3z M743.7,56l-0.8,0.5l0.5,0.9l0.9-0.3l3.1,5.3
		l-0.7,0.6l0.5,0.9l3.1-1.8l-0.5-0.9l-0.9,0.3l-1.1-1.9l1.2-0.7c0.4-0.2,0.7-0.2,1-0.1c0.3,0.1,0.6,0.3,0.8,0.7l0.2,0.4
		c0.2,0.4,0.5,0.7,0.9,0.8c0.3,0.1,0.8,0.1,1.2-0.2l0.8-0.4l-0.5-0.9l-0.2,0.1c-0.2,0.1-0.3,0.1-0.4,0c-0.1-0.1-0.2-0.2-0.3-0.3
		l-0.2-0.4c-0.3-0.4-0.6-0.8-0.9-0.9c-0.4-0.2-0.8-0.2-1.3-0.1c0.3-0.4,0.5-0.8,0.5-1.2c0-0.4,0-0.8-0.3-1.1
		c-0.4-0.7-0.9-1.1-1.6-1.2c-0.7-0.1-1.5,0.1-2.3,0.6L743.7,56z M744.1,60.7l-2.9,1.7l0.7,1.1l2.9-1.7L744.1,60.7z M739.4,61
		l-2.7,1.6l0.5,0.9l0.7-0.3l0.6,3.1l0,0l-0.3-0.4l-2-1.8l0.6-0.5l-0.5-0.9l-2.7,1.6l0.5,0.9l0.6-0.2l4.4,3.5l0.1,0.5
		c0,0.2,0,0.4,0,0.6s-0.2,0.4-0.5,0.5l-0.1,0.1l-0.2,0.1l0.5,1.2c0.2,0,0.3-0.1,0.4-0.1c0.1,0,0.2-0.1,0.4-0.2
		c0.5-0.3,0.9-0.7,1-1.1c0.1-0.4,0.1-0.9,0.1-1.4l-1.1-6.5l0.5-0.4L739.4,61z M732.3,71c-0.2,0-0.3-0.1-0.4-0.3
		c-0.1-0.2-0.1-0.4-0.1-0.7c0.1-0.2,0.3-0.5,0.6-0.6l0.8-0.4l0.5,0.8c0,0.2-0.1,0.4-0.2,0.6c-0.1,0.2-0.3,0.4-0.5,0.5
		C732.6,71,732.4,71,732.3,71z M736.4,70.1l-0.5-0.9l-0.5,0.2l-0.1-0.2l-0.1-0.2l-1.3-2.3c-0.4-0.6-0.8-1-1.5-1.1s-1.3,0.1-1.9,0.5
		c-0.4,0.2-0.8,0.5-1,0.8s-0.5,0.7-0.7,1l0.7,1.2l1.1-0.6l-0.2-0.6c0.1-0.1,0.1-0.2,0.2-0.3c0.1-0.1,0.2-0.2,0.4-0.3
		c0.3-0.2,0.6-0.2,0.8-0.2c0.2,0.1,0.4,0.2,0.6,0.5l0.3,0.5l-0.8,0.4c-0.8,0.5-1.3,1-1.6,1.5c-0.3,0.5-0.2,1,0.1,1.6
		c0.3,0.5,0.7,0.8,1.2,0.9s1,0,1.5-0.3c0.3-0.2,0.6-0.4,0.8-0.7c0.2-0.3,0.3-0.6,0.4-0.9l0.2,0.3c0.1,0.1,0.2,0.2,0.3,0.2
		L736.4,70.1z M726.9,75.6l2.9-1.7l-0.5-0.9l-0.8,0.3l-1.5-2.7c0-0.2,0-0.4,0.1-0.5s0.2-0.3,0.5-0.4l0.6-0.3l-0.6-1.4
		c-0.1,0-0.1,0-0.2,0.1s-0.2,0.1-0.3,0.1c-0.3,0.2-0.5,0.4-0.6,0.6c-0.1,0.3-0.1,0.6-0.1,1l-0.5-0.8l-2.2,1.3l0.5,0.9l0.9-0.3l2,3.4
		l-0.6,0.6L726.9,75.6z M722.6,78.1l2.9-1.7l-0.5-0.9l-0.8,0.3l-1.5-2.7c0-0.2,0-0.4,0.1-0.5s0.2-0.3,0.5-0.4l0.6-0.3l-0.6-1.4
		c-0.1,0-0.1,0-0.2,0.1s-0.2,0.1-0.3,0.1c-0.3,0.2-0.5,0.4-0.6,0.6c-0.1,0.3-0.1,0.6-0.1,1l-0.5-0.8l-2.2,1.3l0.5,0.9l0.9-0.3l2,3.4
		l-0.6,0.6L722.6,78.1z M719.9,79.6l2-1.1l-0.5-0.9l-0.8,0.2l-2.6-4.5l-1.5,0.9l-0.7,0.4l0.5,0.9l0.7-0.2l1.7,3
		c0,0.2-0.1,0.4-0.2,0.6s-0.3,0.3-0.5,0.5c-0.3,0.2-0.5,0.2-0.7,0.1c-0.2-0.1-0.5-0.3-0.7-0.7l-1.9-3.3l-1.5,0.9l-0.6,0.3l0.5,0.9
		l0.7-0.2l1.3,2.3c0.5,0.8,0.9,1.3,1.5,1.4c0.5,0.2,1.1,0.1,1.7-0.2c0.3-0.2,0.6-0.4,0.8-0.7c0.2-0.3,0.3-0.6,0.3-1L719.9,79.6z
		 M711.9,81.3l0.7,1.2l-0.7,0.6l0.5,0.9l3.1-1.8l-0.5-0.9l-0.9,0.3l-3.1-5.3l0.7-0.6l-0.5-0.9l-2.7,1.6l1.2,6.5l0,0l-5-4.4l-1.9,1.1
		l-0.8,0.5l0.5,0.9l0.9-0.3l3.1,5.3l-0.7,0.6l0.5,0.9l3.1-1.8l-0.5-0.9l-0.9,0.3l-0.7-1.2l-2-3.2l0,0l5.1,4.3l1-0.6l-1.2-6.6l0,0
		L711.9,81.3z M699.4,91.5l2.9-1.7l-0.5-0.9l-0.8,0.3l-1.5-2.7c0-0.2,0-0.4,0.1-0.5c0.1-0.2,0.2-0.3,0.5-0.4l0.6-0.3l-0.6-1.4
		c-0.1,0-0.1,0-0.2,0.1c-0.1,0-0.2,0.1-0.3,0.1c-0.3,0.2-0.5,0.4-0.6,0.6c-0.1,0.3-0.1,0.6-0.1,1l-0.5-0.8l-2.2,1.3l0.5,0.9l0.9-0.3
		l2,3.4l-0.6,0.6L699.4,91.5z M694.5,88.7c0.3,0.1,0.5,0.3,0.7,0.6l0.1,0.1l-1.8,1l0,0c-0.2-0.4-0.2-0.7-0.2-1s0.2-0.5,0.5-0.7
		C694,88.7,694.2,88.6,694.5,88.7z M697.5,92.4c0.3-0.3,0.5-0.6,0.6-1l-0.9-0.7c-0.2,0.3-0.4,0.5-0.5,0.7c-0.2,0.2-0.4,0.4-0.8,0.6
		c-0.4,0.2-0.7,0.3-1.1,0.2s-0.6-0.3-0.9-0.7l0,0l3.3-1.9l-0.5-0.8c-0.4-0.8-1-1.2-1.7-1.5c-0.7-0.2-1.4-0.1-2.1,0.3
		c-0.8,0.4-1.2,1-1.3,1.8s0,1.6,0.5,2.4l0.1,0.2c0.5,0.8,1.1,1.3,1.8,1.5s1.5,0.1,2.3-0.3C696.9,93.1,697.2,92.8,697.5,92.4z
		 M686.6,89.7l0.8,1.3l-0.8,0.5l0.6,1l0.8-0.5l1.6,2.8c0.4,0.6,0.7,1,1.2,1.1s0.9,0,1.4-0.3c0.2-0.1,0.4-0.2,0.5-0.3
		c0.1-0.1,0.3-0.3,0.4-0.4l-0.7-1l-0.2,0.2c-0.1,0.1-0.2,0.1-0.3,0.2c-0.1,0.1-0.3,0.1-0.4,0.1s-0.3-0.2-0.4-0.4l-1.6-2.8l1-0.6
		l-0.6-1l-1,0.6l-0.8-1.3L686.6,89.7z M685.1,94.2c0.3,0.1,0.5,0.3,0.7,0.6l0.1,0.1l-1.8,1l0,0c-0.2-0.4-0.2-0.7-0.2-1
		c0-0.3,0.2-0.5,0.5-0.7C684.5,94.1,684.8,94.1,685.1,94.2z M688.1,97.9c0.3-0.3,0.5-0.6,0.6-1l-0.9-0.7c-0.2,0.3-0.4,0.5-0.5,0.7
		c-0.2,0.2-0.4,0.4-0.8,0.6c-0.4,0.2-0.7,0.3-1.1,0.2s-0.6-0.3-0.9-0.7l0,0l3.3-1.9l-0.5-0.8c-0.4-0.8-1-1.2-1.7-1.5
		c-0.7-0.2-1.4-0.1-2.1,0.3c-0.8,0.4-1.2,1-1.3,1.8s0,1.6,0.5,2.4l0.1,0.2c0.5,0.8,1.1,1.3,1.8,1.5s1.5,0.1,2.3-0.3
		C687.4,98.5,687.8,98.2,688.1,97.9z M676.2,96.5l1.2-0.7c0.4-0.2,0.8-0.3,1.1-0.2c0.3,0.1,0.6,0.3,0.8,0.7c0.2,0.3,0.3,0.7,0.2,1
		c-0.1,0.3-0.3,0.6-0.7,0.9l-1.2,0.7L676.2,96.5z M674.1,96.2l-0.8,0.5l0.5,0.9l0.9-0.3l3.1,5.3l-0.7,0.6l0.5,0.9l3.1-1.8l-0.5-0.9
		l-0.9,0.3l-0.9-1.6l1.2-0.7c0.8-0.5,1.4-1.1,1.6-1.8c0.2-0.7,0.2-1.4-0.3-2.1c-0.4-0.7-1-1.1-1.7-1.3c-0.7-0.2-1.5,0-2.4,0.5
		L674.1,96.2z"/>
	<path class="st1" d="M913.1,56.6c-0.3-0.5-0.5-1-0.5-1.4c0-0.4,0.2-0.7,0.5-0.9c0.2-0.1,0.4-0.2,0.6-0.2c0.2,0,0.4,0.1,0.6,0.2
		l1.4,2.4c0,0.2-0.1,0.4-0.2,0.6s-0.3,0.3-0.5,0.5c-0.4,0.2-0.7,0.2-1,0c-0.3-0.2-0.6-0.5-0.9-1L913.1,56.6z M911.7,57.6
		c0.5,0.8,1,1.4,1.7,1.6c0.7,0.3,1.3,0.2,2-0.2c0.3-0.2,0.5-0.4,0.7-0.6c0.2-0.2,0.3-0.5,0.3-0.8l0.2,0.4c0.2,0.4,0.3,0.8,0.3,1.1
		c-0.1,0.3-0.3,0.6-0.6,0.8c-0.3,0.2-0.5,0.3-0.8,0.3s-0.6,0.1-0.8,0.2l0.3,1.2c0.3,0,0.7-0.1,1-0.2s0.7-0.2,0.9-0.4
		c0.8-0.5,1.3-1,1.5-1.7c0.2-0.7,0.1-1.4-0.3-2.1l-3.1-5.3l-1.3,0.7l0.3,0.8c-0.3-0.2-0.6-0.2-0.9-0.2s-0.6,0.1-0.9,0.3
		c-0.7,0.4-1.1,1-1.1,1.7c-0.1,0.7,0.1,1.6,0.6,2.4L911.7,57.6z M907.3,53l-1.5,0.9l0.6,1.1l1.5-0.9L907.3,53z M909.7,62.2l2.9-1.7
		l-0.5-0.9l-0.8,0.3l-2.6-4.5l-2.3,1.3l0.5,0.9l0.9-0.3l2,3.4l-0.6,0.6L909.7,62.2z M906,57.7c-0.3-0.1-0.7,0-1.2,0.1
		c-0.4,0.1-0.9,0.3-1.3,0.5c-0.7,0.4-1.1,0.9-1.3,1.4c-0.2,0.6-0.1,1.1,0.1,1.5c0.3,0.4,0.6,0.7,1.1,0.8c0.5,0.1,1.1,0,1.8-0.3
		c0.5-0.2,0.8-0.2,1.1-0.2c0.2,0,0.4,0.1,0.5,0.3c0.1,0.2,0.1,0.4,0,0.6c-0.1,0.2-0.3,0.4-0.6,0.6c-0.2,0.1-0.3,0.2-0.5,0.2
		c-0.2,0.1-0.3,0.1-0.5,0l-0.6-0.6l-1,0.6l0.7,1.2c0.4,0.1,0.8,0.1,1.2,0c0.4-0.1,0.8-0.2,1.3-0.5c0.7-0.4,1.2-0.9,1.4-1.4
		c0.2-0.6,0.2-1.1-0.1-1.6c-0.3-0.5-0.6-0.7-1.1-0.8s-1.1,0-1.9,0.3c-0.5,0.2-0.8,0.2-1,0.2c-0.2,0-0.4-0.1-0.5-0.3
		c-0.1-0.2-0.1-0.4,0-0.6c0.1-0.2,0.3-0.4,0.5-0.5c0.2-0.1,0.4-0.2,0.6-0.2s0.4,0,0.5,0l0.6,0.6l1-0.6L906,57.7z M900.6,60.8
		c-0.3-0.1-0.7,0-1.2,0.1c-0.4,0.1-0.9,0.3-1.3,0.5c-0.7,0.4-1.1,0.9-1.3,1.4c-0.2,0.6-0.1,1.1,0.1,1.5c0.3,0.4,0.6,0.7,1.1,0.8
		c0.5,0.1,1.1,0,1.8-0.3c0.5-0.2,0.8-0.2,1.1-0.2s0.4,0.1,0.5,0.3c0.1,0.2,0.1,0.4,0,0.6c-0.1,0.2-0.3,0.4-0.6,0.6
		c-0.2,0.1-0.3,0.2-0.5,0.2c-0.2,0.1-0.3,0.1-0.5,0l-0.6-0.6l-1,0.6l0.7,1.2c0.4,0.1,0.8,0.1,1.2,0c0.4-0.1,0.8-0.2,1.3-0.5
		c0.7-0.4,1.2-0.9,1.4-1.4c0.2-0.6,0.2-1.1-0.1-1.6c-0.3-0.5-0.6-0.7-1.1-0.8c-0.5-0.1-1.1,0-1.9,0.3c-0.5,0.2-0.8,0.2-1,0.2
		c-0.2,0-0.4-0.1-0.5-0.3c-0.1-0.2-0.1-0.4,0-0.6c0.1-0.2,0.3-0.4,0.5-0.5c0.2-0.1,0.4-0.2,0.6-0.2s0.4,0,0.5,0l0.6,0.6l1-0.6
		L900.6,60.8z M894.2,65.6c0.3,0.1,0.5,0.3,0.7,0.6l0.1,0.1l-1.8,1l0,0c-0.2-0.4-0.2-0.7-0.2-1c0-0.3,0.2-0.5,0.5-0.7
		C893.7,65.5,894,65.5,894.2,65.6z M897.3,69.3c0.3-0.3,0.5-0.6,0.6-1l-0.9-0.7c-0.2,0.3-0.4,0.5-0.5,0.7c-0.2,0.2-0.4,0.4-0.8,0.6
		c-0.4,0.2-0.7,0.3-1.1,0.2s-0.6-0.3-0.9-0.7l0,0l3.3-1.9l-0.5-0.8c-0.4-0.8-1-1.2-1.7-1.5c-0.7-0.2-1.4-0.1-2.1,0.3
		c-0.8,0.4-1.2,1-1.3,1.8s0,1.6,0.5,2.4L892,69c0.5,0.8,1.1,1.3,1.8,1.5s1.5,0.1,2.3-0.3C896.6,69.9,897,69.6,897.3,69.3z
		 M892.9,71.9l-1.2-2.1l-1.1,0.7l0.5,1l-2.1,1.2l-3-5.2l0.7-0.6l-0.5-0.9l-0.8,0.5l-1.5,0.9l-0.8,0.5l0.5,0.9l0.9-0.3l3.1,5.3
		l-0.7,0.6l0.5,0.9L892.9,71.9z M880.1,73.7c0.3,0.1,0.5,0.3,0.7,0.6l0.1,0.1l-1.8,1l0,0c-0.2-0.4-0.2-0.7-0.2-1
		c0-0.3,0.2-0.5,0.5-0.7C879.5,73.7,879.8,73.6,880.1,73.7z M883.1,77.5c0.3-0.3,0.5-0.6,0.6-1l-0.9-0.7c-0.2,0.3-0.4,0.5-0.5,0.7
		c-0.2,0.2-0.4,0.4-0.8,0.6c-0.4,0.2-0.7,0.3-1.1,0.2s-0.6-0.3-0.9-0.7l0,0l3.3-1.9l-0.5-0.8c-0.4-0.8-1-1.2-1.7-1.5
		c-0.7-0.2-1.4-0.1-2.1,0.3c-0.8,0.4-1.2,1-1.4,1.8s0,1.6,0.5,2.4l0.1,0.2c0.5,0.8,1.1,1.3,1.8,1.5s1.5,0.1,2.3-0.3
		C882.4,78.1,882.8,77.8,883.1,77.5z M874.7,80.4c-0.3-0.2-0.6-0.6-0.9-1l-0.1-0.2c-0.3-0.5-0.4-0.9-0.4-1.3c0-0.4,0.2-0.7,0.6-1
		c0.1-0.1,0.3-0.1,0.4-0.2c0.1,0,0.3,0,0.4,0l0.7,0.7l1.2-0.7l-0.9-1.5c-0.4-0.1-0.8-0.1-1.2-0.1c-0.4,0.1-0.9,0.2-1.3,0.5
		c-0.8,0.5-1.3,1.1-1.5,1.9c-0.2,0.8,0,1.6,0.5,2.4l0.1,0.2c0.5,0.8,1.1,1.3,1.8,1.6s1.5,0.2,2.3-0.3c0.6-0.4,1.1-0.9,1.3-1.5
		c0.2-0.6,0.2-1.2-0.2-1.8l0,0l-1.3,0.8c0.1,0.3,0.2,0.5,0.1,0.8s-0.2,0.4-0.5,0.6C875.4,80.6,875,80.6,874.7,80.4z M867.2,86.8
		l2.8-1.6l-0.5-0.9l-0.7,0.2l-1.7-2.9c0-0.2,0.1-0.4,0.2-0.6c0.1-0.2,0.3-0.3,0.5-0.4c0.3-0.2,0.6-0.2,0.8-0.2
		c0.2,0.1,0.5,0.3,0.7,0.7l1.4,2.4l-0.5,0.5l0.5,0.9l2.8-1.6l-0.5-0.9l-0.8,0.3l-1.4-2.4c-0.4-0.7-0.9-1.2-1.4-1.4
		c-0.5-0.2-1-0.1-1.6,0.2c-0.3,0.2-0.6,0.4-0.8,0.8c-0.2,0.3-0.3,0.7-0.3,1l-0.5-0.7l-2.2,1.3l0.5,0.9l0.9-0.3l2,3.4l-0.6,0.6
		L867.2,86.8z M862.5,83.9c0.3,0.1,0.5,0.3,0.7,0.6l0.1,0.1l-1.8,1l0,0c-0.2-0.4-0.2-0.7-0.2-1c0-0.3,0.2-0.5,0.5-0.7
		C861.9,83.8,862.2,83.8,862.5,83.9z M865.5,87.6c0.3-0.3,0.5-0.6,0.6-1l-0.9-0.7c-0.2,0.3-0.4,0.5-0.5,0.7
		c-0.2,0.2-0.4,0.4-0.8,0.6c-0.4,0.2-0.7,0.3-1.1,0.2s-0.6-0.3-0.9-0.7l0,0l3.3-1.9l-0.5-0.8c-0.4-0.8-1-1.2-1.7-1.5
		c-0.7-0.2-1.4-0.1-2.1,0.3c-0.8,0.4-1.2,1-1.3,1.8c-0.1,0.8,0,1.6,0.5,2.4l0.1,0.2c0.5,0.8,1.1,1.3,1.8,1.5
		c0.8,0.2,1.5,0.1,2.3-0.3C864.8,88.2,865.2,87.9,865.5,87.6z M857.4,92.4l2.9-1.7l-0.5-0.9l-0.8,0.3l-1.5-2.7c0-0.2,0-0.4,0.1-0.5
		c0.1-0.2,0.2-0.3,0.5-0.4l0.6-0.3l-0.6-1.4c-0.1,0-0.1,0-0.2,0.1c-0.1,0-0.2,0.1-0.3,0.1c-0.3,0.2-0.5,0.4-0.6,0.6
		c-0.1,0.3-0.1,0.6-0.1,1l-0.5-0.8l-2.2,1.3l0.5,0.9l0.9-0.3l2,3.4l-0.6,0.6L857.4,92.4z M853.6,87.2l-2.5,1.4l0.5,0.9l0.7-0.2
		l0.9,2.8l0,0l-3.1-2.9l-1,0.6l1,4.1l0,0l-2-2.2l0.5-0.4l-0.5-0.9l-2.5,1.4l0.5,0.9l0.6-0.2l3.8,3.9l1.2-0.7l-0.9-3.9l0,0l2.9,2.7
		l1.2-0.7l-1.5-5.2l0.5-0.4L853.6,87.2z M844.3,98.4c-0.2,0-0.3-0.1-0.4-0.3c-0.1-0.2-0.1-0.4-0.1-0.7c0.1-0.2,0.3-0.5,0.6-0.6
		l0.8-0.4l0.5,0.8c0,0.2-0.1,0.4-0.2,0.6c-0.1,0.2-0.3,0.4-0.5,0.5C844.7,98.4,844.5,98.4,844.3,98.4z M848.5,97.5l-0.5-0.9
		l-0.5,0.2l-0.1-0.2l-0.1-0.2l-1.3-2.3c-0.4-0.6-0.8-1-1.5-1.1c-0.6-0.1-1.3,0.1-1.9,0.5c-0.4,0.2-0.8,0.5-1,0.8
		c-0.3,0.3-0.5,0.7-0.7,1l0.7,1.2l1.1-0.6l-0.2-0.6c0-0.1,0.1-0.2,0.2-0.3c0.1-0.1,0.2-0.2,0.4-0.3c0.3-0.2,0.6-0.2,0.8-0.2
		c0.2,0.1,0.4,0.2,0.6,0.5l0.3,0.5L844,96c-0.8,0.5-1.3,1-1.6,1.5c-0.3,0.5-0.2,1,0.1,1.5c0.3,0.5,0.7,0.8,1.2,0.9
		c0.5,0.1,1,0,1.5-0.3c0.3-0.2,0.6-0.4,0.8-0.7c0.2-0.3,0.3-0.6,0.4-0.9l0.2,0.3c0.1,0.1,0.2,0.2,0.3,0.2L848.5,97.5z M842.7,100.9
		l-1.2-2.1l-1.1,0.7l0.5,1l-2.1,1.2l-3-5.2l0.7-0.6l-0.5-0.9l-0.8,0.5l-1.5,0.9l-0.8,0.5l0.5,0.9l0.9-0.3l3.1,5.3l-0.7,0.6l0.5,0.9
		L842.7,100.9z"/>
	<path class="st1" d="M998.7,36.1c0.3,0.1,0.5,0.3,0.7,0.6l0.1,0.1l-1.8,1l0,0c-0.2-0.4-0.2-0.7-0.2-1c0-0.3,0.2-0.5,0.5-0.7
		C998.2,36,998.5,36,998.7,36.1z M1001.8,39.8c0.3-0.3,0.5-0.6,0.6-1l-0.9-0.7c-0.2,0.3-0.4,0.5-0.5,0.7c-0.2,0.2-0.4,0.4-0.8,0.6
		c-0.4,0.2-0.7,0.3-1.1,0.2s-0.6-0.3-0.9-0.7l0,0l3.3-1.9l-0.5-0.8c-0.4-0.8-1-1.2-1.7-1.5c-0.7-0.2-1.4-0.1-2.1,0.3
		c-0.8,0.4-1.2,1-1.3,1.8c-0.1,0.8,0,1.6,0.5,2.4l0.1,0.2c0.5,0.8,1.1,1.3,1.8,1.5c0.8,0.2,1.5,0.1,2.3-0.3
		C1001.1,40.4,1001.5,40.1,1001.8,39.8z M992,41.9c-0.3-0.5-0.5-1-0.5-1.4c0-0.4,0.2-0.7,0.5-0.9c0.2-0.1,0.4-0.2,0.6-0.2
		c0.2,0,0.4,0.1,0.6,0.2l1.4,2.4c0,0.2-0.1,0.4-0.2,0.6c-0.1,0.2-0.3,0.3-0.5,0.5c-0.4,0.2-0.7,0.2-1,0c-0.3-0.2-0.6-0.5-0.9-1
		L992,41.9z M990.6,42.8c0.5,0.8,1,1.4,1.7,1.6c0.7,0.3,1.3,0.2,2-0.2c0.3-0.2,0.5-0.4,0.7-0.6c0.2-0.2,0.3-0.5,0.3-0.8l0.2,0.4
		c0.2,0.4,0.3,0.8,0.3,1.1c-0.1,0.3-0.3,0.6-0.6,0.8c-0.3,0.2-0.5,0.3-0.8,0.3c-0.3,0.1-0.6,0.1-0.8,0.2l0.3,1.2
		c0.3,0,0.7-0.1,1-0.2c0.4-0.1,0.7-0.2,0.9-0.4c0.8-0.5,1.3-1,1.5-1.7c0.2-0.7,0.1-1.4-0.3-2.1l-3.1-5.3l-1.3,0.7l0.3,0.8
		c-0.3-0.2-0.6-0.2-0.9-0.2c-0.3,0-0.6,0.1-0.9,0.3c-0.7,0.4-1.1,1-1.1,1.7c-0.1,0.7,0.1,1.6,0.6,2.4L990.6,42.8z M985.8,45.5
		c-0.3-0.5-0.5-1-0.5-1.4c0-0.4,0.2-0.7,0.5-0.9c0.2-0.1,0.4-0.2,0.6-0.2c0.2,0,0.4,0.1,0.6,0.2l1.3,2.3c0,0.2-0.1,0.4-0.2,0.6
		c-0.1,0.2-0.3,0.3-0.5,0.5c-0.4,0.2-0.7,0.2-1,0s-0.6-0.5-0.9-1L985.8,45.5z M989.6,46.9l2-1.2l-0.5-0.9l-0.8,0.3l-4-6.9l-1.5,0.9
		l-0.8,0.5l0.5,0.9l0.9-0.3l1.1,2c-0.3-0.1-0.6-0.2-0.9-0.2s-0.6,0.1-0.8,0.2c-0.7,0.4-1.1,1-1.1,1.7c-0.1,0.7,0.1,1.6,0.6,2.4
		l0.1,0.1c0.5,0.8,1,1.4,1.7,1.6c0.7,0.3,1.3,0.2,2-0.2c0.3-0.2,0.5-0.4,0.7-0.7c0.2-0.3,0.3-0.6,0.3-0.9L989.6,46.9z M981.1,46.2
		c0.3,0.1,0.5,0.3,0.7,0.6l0.1,0.1l-1.8,1l0,0c-0.2-0.4-0.2-0.7-0.2-1s0.2-0.5,0.5-0.7C980.6,46.2,980.8,46.1,981.1,46.2z
		 M984.1,49.9c0.3-0.3,0.5-0.6,0.6-1l-0.9-0.7c-0.2,0.3-0.4,0.5-0.5,0.7c-0.2,0.2-0.4,0.4-0.8,0.6c-0.4,0.2-0.7,0.3-1.1,0.2
		s-0.6-0.3-0.9-0.7l0,0l3.3-1.9l-0.5-0.8c-0.4-0.8-1-1.2-1.7-1.5c-0.7-0.2-1.4-0.1-2.1,0.3c-0.8,0.4-1.2,1-1.4,1.8s0,1.6,0.5,2.4
		l0.1,0.2c0.5,0.8,1.1,1.3,1.8,1.5s1.5,0.1,2.3-0.3C983.5,50.6,983.8,50.3,984.1,49.9z M973.7,46.9l3.4,5.8l-0.6,0.6l0.5,0.9
		l2.9-1.7l-0.5-0.9l-0.8,0.3l-4-6.9l-2.3,1.3l0.5,0.9L973.7,46.9z M973.3,49l-2.5,1.4l0.5,0.9l0.7-0.2l0.9,2.8l0,0l-3.1-2.9l-1,0.6
		l1,4.1l0,0l-2-2.2l0.5-0.4l-0.5-0.9l-2.5,1.4l0.5,0.9l0.6-0.2l3.8,3.9l1.2-0.7l-0.9-3.9l0,0l2.9,2.7l1.2-0.7l-1.5-5.2l0.5-0.4
		L973.3,49z M962.7,58.7c-0.3-0.5-0.4-0.9-0.4-1.3c0-0.4,0.2-0.7,0.6-0.9c0.4-0.2,0.8-0.2,1.1,0c0.4,0.2,0.7,0.6,1,1l0.1,0.1
		c0.3,0.5,0.4,0.9,0.4,1.4c0,0.4-0.2,0.7-0.6,0.9c-0.4,0.2-0.8,0.2-1.1,0c-0.4-0.2-0.7-0.6-1-1.1L962.7,58.7z M961.3,59.6
		c0.5,0.8,1.1,1.4,1.9,1.6c0.8,0.3,1.5,0.1,2.4-0.3c0.8-0.5,1.3-1.1,1.4-1.9c0.2-0.8,0-1.6-0.5-2.4l-0.1-0.1
		c-0.5-0.8-1.1-1.4-1.8-1.6c-0.8-0.3-1.5-0.2-2.4,0.3c-0.8,0.5-1.3,1.1-1.4,1.9s0,1.6,0.5,2.4L961.3,59.6z M956.2,66.2l2.8-1.6
		l-0.5-0.9l-0.7,0.2l-1.7-2.9c0-0.2,0.1-0.4,0.2-0.6c0.1-0.2,0.3-0.3,0.5-0.4c0.3-0.2,0.6-0.2,0.8-0.2c0.2,0.1,0.5,0.3,0.7,0.7
		l1.4,2.4l-0.5,0.5l0.5,0.9l2.8-1.6l-0.5-0.9l-0.8,0.3l-1.4-2.4c-0.4-0.7-0.9-1.2-1.4-1.4c-0.5-0.2-1-0.1-1.6,0.2
		c-0.3,0.2-0.6,0.4-0.8,0.8c-0.2,0.3-0.3,0.7-0.3,1l-0.5-0.7l-2.2,1.3l0.5,0.9l0.9-0.3l2,3.4l-0.6,0.6L956.2,66.2z M948.8,70.4
		l3-1.7l-0.5-0.9l-0.8,0.3l-1.2-2l0.8-0.5l2.7,1.3l-0.4,0.3l0.5,0.9l2.9-1.7l-0.5-0.9l-0.8,0.3l-3.7-1.7l0.4-3.5l0.7-0.6l-0.5-0.9
		l-2.9,1.7l0.5,0.9l0.5-0.2l-0.2,2.9l-0.6,0.4l-1.1-2l0.7-0.6l-0.5-0.9l-3,1.7l0.5,0.9l0.9-0.3l3.1,5.3l-0.7,0.6L948.8,70.4z
		 M942.5,74.1l2.9-1.7l-0.5-0.9l-0.8,0.3l-2-3.4l1.1-0.6l-0.6-1l-1.1,0.6l-0.4-0.6c-0.1-0.2-0.2-0.5-0.1-0.7s0.2-0.4,0.4-0.5
		c0.1-0.1,0.2-0.1,0.3-0.1l0.3-0.1l-0.5-1.2c-0.2,0.1-0.3,0.1-0.5,0.2c-0.1,0.1-0.3,0.1-0.4,0.2c-0.6,0.4-1,0.8-1.2,1.4
		c-0.2,0.5-0.1,1.1,0.3,1.7l0.4,0.6l-0.8,0.5l0.6,1l0.8-0.5l2,3.4l-0.6,0.6L942.5,74.1z M936.5,73.8c-0.3-0.5-0.4-0.9-0.4-1.3
		c0-0.4,0.2-0.7,0.6-0.9s0.8-0.2,1.1,0c0.4,0.2,0.7,0.6,1,1l0.1,0.1c0.3,0.5,0.4,0.9,0.4,1.4c0,0.4-0.2,0.7-0.6,0.9
		c-0.4,0.2-0.8,0.2-1.1,0s-0.7-0.6-1-1.1L936.5,73.8z M935.1,74.8c0.5,0.8,1.1,1.4,1.9,1.6c0.8,0.3,1.5,0.1,2.4-0.3
		c0.8-0.5,1.3-1.1,1.4-1.9c0.2-0.8,0-1.6-0.5-2.4l-0.1-0.1c-0.5-0.8-1.1-1.4-1.9-1.6s-1.5-0.2-2.4,0.3c-0.8,0.5-1.3,1.1-1.4,1.9
		c-0.2,0.8,0,1.6,0.5,2.4L935.1,74.8z M926.9,74l0.8,1.3l-0.8,0.5l0.6,1l0.8-0.5l1.6,2.8c0.4,0.6,0.7,1,1.2,1.1
		c0.4,0.1,0.9,0,1.4-0.3c0.2-0.1,0.4-0.2,0.5-0.3c0.1-0.1,0.3-0.3,0.4-0.4l-0.7-1l-0.2,0.2c-0.1,0.1-0.2,0.1-0.3,0.2
		c-0.1,0.1-0.3,0.1-0.4,0.1c-0.1,0-0.3-0.2-0.4-0.4l-1.6-2.8l1-0.6l-0.6-1l-1,0.6l-0.8-1.3L926.9,74z M926.4,76.7
		c-0.3-0.1-0.7,0-1.2,0.1c-0.4,0.1-0.9,0.3-1.3,0.5c-0.7,0.4-1.1,0.9-1.3,1.4c-0.2,0.6-0.1,1.1,0.1,1.5c0.3,0.4,0.6,0.7,1.1,0.8
		c0.5,0.1,1.1,0,1.8-0.3c0.5-0.2,0.8-0.2,1.1-0.2c0.2,0,0.4,0.1,0.5,0.3c0.1,0.2,0.1,0.4,0,0.6c-0.1,0.2-0.3,0.4-0.6,0.6
		c-0.2,0.1-0.3,0.2-0.5,0.2c-0.2,0.1-0.3,0.1-0.5,0l-0.6-0.6l-1,0.6l0.7,1.2c0.4,0.1,0.8,0.1,1.2,0c0.4-0.1,0.8-0.2,1.3-0.5
		c0.7-0.4,1.2-0.9,1.4-1.4c0.2-0.6,0.2-1.1-0.1-1.6c-0.3-0.5-0.6-0.7-1.1-0.8c-0.5-0.1-1.1,0-1.9,0.3c-0.5,0.2-0.8,0.2-1,0.2
		s-0.4-0.1-0.5-0.3c-0.1-0.2-0.1-0.4,0-0.6c0.1-0.2,0.3-0.4,0.5-0.5c0.2-0.1,0.4-0.2,0.6-0.2c0.2,0,0.4,0,0.5,0l0.6,0.6l1-0.6
		L926.4,76.7z M918.9,84c-0.3-0.5-0.4-0.9-0.4-1.3c0-0.4,0.2-0.7,0.6-0.9c0.4-0.2,0.8-0.2,1.1,0c0.4,0.2,0.7,0.6,1,1l0.1,0.1
		c0.3,0.5,0.4,0.9,0.4,1.4c0,0.4-0.2,0.7-0.6,0.9c-0.4,0.2-0.8,0.2-1.1,0c-0.3-0.2-0.7-0.6-1-1.1L918.9,84z M917.5,85
		c0.5,0.8,1.1,1.4,1.9,1.6c0.8,0.3,1.5,0.1,2.4-0.3c0.8-0.5,1.3-1.1,1.4-1.9c0.2-0.8,0-1.6-0.5-2.4l-0.1-0.1
		c-0.5-0.8-1.1-1.4-1.9-1.6c-0.8-0.3-1.5-0.2-2.4,0.3c-0.8,0.5-1.3,1.1-1.4,1.9s0,1.6,0.5,2.4L917.5,85z M914.6,81.7
		c-0.5-0.2-1-0.2-1.6-0.2s-1.2,0.3-1.7,0.6c-1,0.6-1.6,1.4-1.8,2.4c-0.2,1.1,0,2.1,0.6,3.2l0.1,0.2c0.6,1.1,1.4,1.8,2.5,2.1
		c1,0.3,2,0.2,3-0.4c0.6-0.3,1-0.7,1.4-1.2c0.3-0.5,0.6-1,0.7-1.5l-0.8-1.5l-1.1,0.6l0.4,1.1c0,0.2-0.2,0.4-0.4,0.7
		c-0.2,0.2-0.4,0.4-0.7,0.6c-0.6,0.4-1.3,0.4-1.9,0.1c-0.6-0.3-1.1-0.8-1.6-1.5l-0.1-0.3c-0.4-0.8-0.6-1.5-0.5-2.1s0.4-1.2,1.1-1.6
		c0.3-0.2,0.6-0.3,0.9-0.3c0.3,0,0.5,0,0.8,0l0.7,0.9l1.1-0.6L914.6,81.7z M904.9,90.2c0.3,0.1,0.5,0.3,0.7,0.6l0.1,0.1l-1.8,1l0,0
		c-0.2-0.4-0.2-0.7-0.2-1c0-0.3,0.2-0.5,0.5-0.7C904.4,90.1,904.7,90.1,904.9,90.2z M908,93.9c0.3-0.3,0.5-0.6,0.6-1l-0.9-0.7
		c-0.2,0.3-0.4,0.5-0.5,0.7c-0.2,0.2-0.4,0.4-0.8,0.6c-0.4,0.2-0.7,0.3-1.1,0.2s-0.6-0.3-0.9-0.7l0,0l3.3-1.9l-0.5-0.8
		c-0.4-0.8-1-1.2-1.7-1.5c-0.7-0.2-1.4-0.1-2.1,0.3c-0.8,0.4-1.2,1-1.3,1.8s0,1.6,0.5,2.4l0.1,0.2c0.5,0.8,1.1,1.3,1.8,1.5
		s1.5,0.1,2.3-0.3C907.3,94.5,907.7,94.2,908,93.9z M897.5,100.1l2.8-1.6l-0.5-0.9l-0.7,0.2l-1.7-3c0-0.2,0.1-0.4,0.2-0.5
		c0.1-0.2,0.3-0.3,0.5-0.4c0.3-0.2,0.6-0.2,0.8-0.1c0.3,0.1,0.5,0.3,0.7,0.8l1.3,2.2l-0.6,0.5l0.5,0.9l2.8-1.6l-0.5-0.9l-0.8,0.3
		l-1.3-2.2c-0.5-0.8-1-1.3-1.5-1.5c-0.5-0.2-1.1-0.1-1.7,0.2c-0.3,0.2-0.5,0.4-0.7,0.7c-0.2,0.3-0.3,0.6-0.3,1l-1.8-3.1l-2.3,1.3
		l0.5,0.9l0.9-0.3l3.4,5.8l-0.6,0.6L897.5,100.1z M886.2,96.7l1.1,2l1.1-0.7l-0.4-0.9l1.4-0.8l3,5.2l-0.7,0.6l0.5,0.9l3.1-1.8
		l-0.5-0.9l-0.9,0.3l-3-5.2l1.4-0.8l0.5,0.8l1.1-0.7l-1.1-2L886.2,96.7z"/>
	<path class="st1" d="M336.2,61.5l-0.5-0.8l-4.4,2.5l1.1,1.9l1.1-0.7l-0.4-0.8l1.3-0.8l-0.6,5l0.5,0.9l4.6-2.6l-1.1-1.9l-1.1,0.7
		l0.4,0.8l-1.5,0.9L336.2,61.5z M327.1,63.8l0.8,1.3l-0.8,0.5l0.6,1l0.8-0.5l1.6,2.8c0.4,0.6,0.7,1,1.2,1.1s0.9,0,1.4-0.3
		c0.2-0.1,0.4-0.2,0.5-0.3c0.1-0.1,0.3-0.3,0.4-0.4l-0.7-1l-0.2,0.2c-0.1,0.1-0.2,0.1-0.3,0.2c-0.1,0.1-0.3,0.1-0.4,0.1
		s-0.3-0.2-0.4-0.4l-1.6-2.8l1-0.6l-0.6-1l-1,0.6l-0.8-1.3L327.1,63.8z M326.1,73.5l2.9-1.7l-0.5-0.9l-0.8,0.3l-1.5-2.7
		c0-0.2,0-0.4,0.1-0.5s0.2-0.3,0.5-0.4l0.6-0.3l-0.6-1.4c-0.1,0-0.1,0-0.2,0.1s-0.2,0.1-0.3,0.1c-0.3,0.2-0.5,0.4-0.6,0.6
		c-0.1,0.3-0.1,0.6-0.1,1l-0.5-0.8l-2.2,1.3l0.5,0.9l0.9-0.3l2,3.4l-0.6,0.6L326.1,73.5z M321.3,74.7c-0.2,0-0.3-0.1-0.4-0.3
		c-0.1-0.2-0.1-0.4-0.1-0.7c0.1-0.2,0.3-0.5,0.6-0.6l0.8-0.4l0.5,0.8c0,0.2-0.1,0.4-0.2,0.6c-0.1,0.2-0.3,0.4-0.5,0.5
		C321.7,74.7,321.5,74.7,321.3,74.7z M325.5,73.8l-0.5-0.9l-0.5,0.2l-0.1-0.2l-0.1-0.2l-1.3-2.3c-0.4-0.6-0.8-1-1.5-1.1
		c-0.6-0.1-1.3,0.1-1.9,0.5c-0.4,0.2-0.8,0.5-1,0.8s-0.5,0.7-0.7,1l0.7,1.2l1.1-0.6l-0.2-0.6c0-0.1,0.1-0.2,0.2-0.3
		c0.1-0.1,0.2-0.2,0.4-0.3c0.3-0.2,0.6-0.2,0.8-0.2s0.4,0.2,0.6,0.5l0.3,0.5l-0.8,0.4c-0.8,0.5-1.3,1-1.6,1.5
		c-0.3,0.5-0.2,1,0.1,1.5c0.3,0.5,0.7,0.8,1.2,0.9c0.5,0.1,1,0,1.5-0.3c0.3-0.2,0.6-0.4,0.8-0.7c0.2-0.3,0.3-0.6,0.4-0.9l0.2,0.3
		c0.1,0.1,0.2,0.2,0.3,0.2L325.5,73.8z M316.6,71.6l-2.5,1.4l0.5,0.9l0.7-0.2l0.9,2.8l0,0l-3.1-2.9l-1,0.6l1,4.1l0,0l-2-2.2l0.5-0.4
		l-0.5-0.9l-2.5,1.4l0.5,0.9l0.6-0.2l3.8,3.9l1.2-0.7l-0.9-3.9l0,0l2.9,2.7l1.2-0.7l-1.5-5.2l0.5-0.4L316.6,71.6z M307.5,75.5
		c-0.5-0.1-1-0.1-1.6,0s-1.1,0.3-1.7,0.6c-0.8,0.5-1.3,1-1.6,1.7c-0.3,0.7-0.3,1.3,0.1,1.9c0.3,0.6,0.9,1,1.5,1
		c0.7,0.1,1.5,0,2.5-0.2c0.6-0.1,1-0.2,1.3-0.1s0.5,0.2,0.7,0.5c0.2,0.3,0.2,0.6,0.1,0.8c-0.1,0.3-0.4,0.5-0.8,0.8
		c-0.3,0.2-0.6,0.3-0.9,0.4s-0.6,0.1-0.8,0l-0.8-1l-1.1,0.7l0.9,1.5c0.5,0.1,1,0.2,1.6,0.1s1.2-0.3,1.7-0.6c0.8-0.5,1.4-1,1.7-1.7
		c0.3-0.7,0.3-1.3-0.1-1.9c-0.3-0.6-0.8-1-1.5-1.1c-0.6-0.1-1.4-0.1-2.4,0.2c-0.7,0.1-1.2,0.2-1.5,0.2s-0.6-0.2-0.7-0.4
		c-0.2-0.3-0.2-0.6-0.1-0.9s0.4-0.6,0.8-0.8c0.3-0.2,0.6-0.3,0.8-0.4c0.3-0.1,0.5-0.1,0.7-0.1l0.8,0.9l1.1-0.6L307.5,75.5z
		 M296.4,90.6l2.8-1.6l-0.5-0.9l-0.7,0.2l-1.7-2.9c0-0.2,0.1-0.4,0.2-0.6c0.1-0.2,0.3-0.3,0.5-0.4c0.3-0.2,0.6-0.2,0.8-0.2
		c0.2,0.1,0.5,0.3,0.7,0.7l1.4,2.4l-0.5,0.5l0.5,0.9l2.8-1.6l-0.5-0.9l-0.8,0.3l-1.4-2.4c-0.4-0.7-0.9-1.2-1.4-1.4
		c-0.5-0.2-1-0.1-1.6,0.2c-0.3,0.2-0.6,0.4-0.8,0.8c-0.2,0.3-0.3,0.7-0.3,1l-0.5-0.7l-2.2,1.3l0.5,0.9l0.9-0.3l2,3.4l-0.6,0.6
		L296.4,90.6z M290.6,90.3c-0.3-0.5-0.4-0.9-0.4-1.3c0-0.4,0.2-0.7,0.6-0.9s0.8-0.2,1.1,0c0.4,0.2,0.7,0.5,1,1l0.1,0.1
		c0.3,0.5,0.4,0.9,0.4,1.4s-0.2,0.7-0.6,0.9c-0.4,0.2-0.8,0.2-1.1,0s-0.7-0.6-1-1.1L290.6,90.3z M289.1,91.2
		c0.5,0.8,1.1,1.4,1.9,1.6c0.8,0.3,1.5,0.1,2.4-0.3c0.8-0.5,1.3-1.1,1.4-1.9c0.2-0.8,0-1.6-0.5-2.4l-0.1-0.1
		c-0.5-0.8-1.1-1.4-1.8-1.6c-0.8-0.3-1.5-0.1-2.4,0.3c-0.8,0.5-1.3,1.1-1.4,1.9c-0.2,0.8,0,1.6,0.5,2.4L289.1,91.2z M286.4,96.4
		l2.9-1.7l-0.5-0.9l-0.8,0.3l-1.5-2.7c0-0.2,0-0.4,0.1-0.5c0.1-0.2,0.2-0.3,0.5-0.4l0.6-0.3l-0.6-1.4c-0.1,0-0.1,0-0.2,0.1
		c-0.1,0-0.2,0.1-0.3,0.1c-0.3,0.2-0.5,0.4-0.6,0.6s-0.1,0.6-0.1,1l-0.5-0.8l-2.2,1.3l0.5,0.9l0.9-0.3l2,3.4l-0.6,0.6L286.4,96.4z
		 M281.7,97.6c-0.2,0-0.3-0.1-0.4-0.3c-0.1-0.2-0.1-0.4-0.1-0.7c0.1-0.2,0.3-0.5,0.6-0.6l0.8-0.4l0.5,0.8c0,0.2-0.1,0.4-0.2,0.6
		c-0.1,0.2-0.3,0.4-0.5,0.5C282,97.6,281.8,97.6,281.7,97.6z M285.8,96.7l-0.5-0.9l-0.5,0.2l-0.1-0.2l-0.1-0.2l-1.3-2.3
		c-0.4-0.6-0.8-1-1.5-1.1c-0.6-0.1-1.3,0.1-1.9,0.5c-0.4,0.2-0.8,0.5-1,0.8s-0.5,0.7-0.7,1l0.7,1.2l1.1-0.6l-0.2-0.6
		c0-0.1,0.1-0.2,0.2-0.3c0.1-0.1,0.2-0.2,0.4-0.3c0.3-0.2,0.6-0.2,0.8-0.2s0.4,0.2,0.6,0.5l0.3,0.5l-0.8,0.4c-0.8,0.5-1.3,1-1.6,1.5
		c-0.3,0.5-0.2,1,0.1,1.5c0.3,0.5,0.7,0.8,1.2,0.9c0.5,0.1,1,0,1.5-0.3c0.3-0.2,0.6-0.4,0.8-0.7c0.2-0.3,0.3-0.6,0.4-0.9l0.2,0.3
		c0.1,0.1,0.2,0.2,0.3,0.2L285.8,96.7z M273.3,96.4L273.3,96.4l2.4,2.1l-1.7,1L273.3,96.4z M273,104.1l2.5-1.5l-0.5-0.9l-0.6,0.2
		l-0.3-1.2l2.4-1.4l0.9,0.8l-0.5,0.4l0.5,0.9l2.5-1.5l-0.5-0.9l-0.6,0.2l-5.9-5.1l-1.5,0.9l1.5,7.7l-0.5,0.4L273,104.1z"/>
	<path class="st1" d="M486.5,68.1c0.3,0.1,0.5,0.3,0.7,0.6l0.1,0.1l-1.8,1l0,0c-0.2-0.4-0.2-0.7-0.2-1c0-0.3,0.2-0.5,0.5-0.7
		C486,68,486.3,68,486.5,68.1z M489.6,71.8c0.3-0.3,0.5-0.6,0.6-1l-0.9-0.7c-0.2,0.3-0.4,0.5-0.5,0.7s-0.4,0.4-0.8,0.6
		c-0.4,0.2-0.7,0.3-1.1,0.2c-0.3-0.1-0.6-0.3-0.9-0.7l0,0l3.3-1.9l-0.5-0.8c-0.4-0.8-1-1.2-1.7-1.5c-0.7-0.2-1.4-0.1-2.1,0.3
		c-0.8,0.4-1.2,1-1.4,1.8c-0.1,0.8,0,1.6,0.5,2.4l0.1,0.2c0.5,0.8,1.1,1.3,1.8,1.5c0.8,0.2,1.5,0.1,2.3-0.3
		C488.9,72.4,489.3,72.1,489.6,71.8z M481.5,76.6l2.9-1.7l-0.5-0.9l-0.8,0.3l-1.5-2.7c0-0.2,0-0.4,0.1-0.5c0.1-0.2,0.2-0.3,0.5-0.4
		l0.6-0.3l-0.6-1.4c-0.1,0-0.1,0-0.2,0.1c-0.1,0-0.2,0.1-0.3,0.1c-0.3,0.2-0.5,0.4-0.6,0.6c-0.1,0.3-0.1,0.6-0.1,1l-0.5-0.8
		l-2.2,1.3l0.5,0.9l0.9-0.3l2,3.4l-0.6,0.6L481.5,76.6z M478.9,78.1l2-1.1l-0.5-0.9l-0.8,0.2l-2.6-4.5l-1.5,0.9l-0.6,0.4l0.5,0.9
		l0.7-0.2l1.7,3c0,0.2-0.1,0.4-0.2,0.6c-0.1,0.2-0.3,0.3-0.5,0.5c-0.3,0.2-0.5,0.2-0.7,0.1s-0.5-0.3-0.7-0.7l-1.9-3.3l-1.5,0.9
		l-0.6,0.3l0.5,0.9l0.7-0.2l1.3,2.3c0.5,0.8,0.9,1.3,1.5,1.4c0.5,0.2,1.1,0.1,1.7-0.2c0.3-0.2,0.6-0.4,0.8-0.7s0.3-0.6,0.3-1
		L478.9,78.1z M467.8,75.4l0.8,1.3l-0.8,0.5l0.6,1l0.8-0.5l1.6,2.8c0.4,0.6,0.7,1,1.2,1.1c0.4,0.1,0.9,0,1.4-0.3
		c0.2-0.1,0.4-0.2,0.5-0.3c0.1-0.1,0.3-0.3,0.4-0.4l-0.7-1l-0.2,0.2c-0.1,0.1-0.2,0.1-0.3,0.2c-0.1,0.1-0.3,0.1-0.4,0.1
		s-0.3-0.2-0.4-0.4l-1.6-2.8l1-0.6l-0.6-1l-1,0.6l-0.8-1.3L467.8,75.4z M464.4,77.3l3.4,5.8l-0.6,0.6l0.5,0.9l2.9-1.7L470,82
		l-0.8,0.3l-4-6.9l-2.3,1.3l0.5,0.9L464.4,77.3z M465.2,86l2-1.1l-0.5-0.9l-0.8,0.2l-2.6-4.5l-1.5,0.9l-0.6,0.4l0.5,0.9l0.7-0.2
		l1.7,3c0,0.2-0.1,0.4-0.2,0.6c-0.1,0.2-0.3,0.3-0.5,0.5c-0.3,0.2-0.5,0.2-0.7,0.1s-0.5-0.3-0.7-0.7l-1.9-3.3l-1.5,0.9l-0.6,0.3
		l0.5,0.9l0.7-0.2l1.3,2.3c0.5,0.8,0.9,1.3,1.5,1.4c0.5,0.2,1.1,0.1,1.7-0.2c0.3-0.2,0.6-0.4,0.8-0.7s0.3-0.6,0.3-1L465.2,86z
		 M456.6,88.9c-0.3-0.2-0.6-0.6-0.9-1l-0.1-0.2c-0.3-0.5-0.4-0.9-0.4-1.3c0-0.4,0.2-0.7,0.6-1c0.1-0.1,0.3-0.1,0.4-0.2s0.3,0,0.4,0
		l0.7,0.7l1.2-0.7l-0.9-1.5c-0.4-0.1-0.8-0.1-1.2-0.1c-0.4,0.1-0.9,0.2-1.3,0.5c-0.8,0.5-1.3,1.1-1.5,1.9s0,1.6,0.5,2.4l0.1,0.2
		c0.5,0.8,1.1,1.3,1.8,1.6c0.7,0.3,1.5,0.2,2.3-0.3c0.6-0.4,1.1-0.9,1.3-1.5s0.2-1.2-0.2-1.8l0,0l-1.3,0.8c0.1,0.3,0.2,0.5,0.1,0.8
		c-0.1,0.2-0.2,0.4-0.5,0.6C457.3,89.1,457,89.2,456.6,88.9z M451,88.6c0.3,0.1,0.5,0.3,0.7,0.6l0.1,0.1l-1.8,1l0,0
		c-0.2-0.4-0.2-0.7-0.2-1c0-0.3,0.2-0.5,0.5-0.7C450.5,88.6,450.7,88.5,451,88.6z M454,92.3c0.3-0.3,0.5-0.6,0.6-1l-0.9-0.7
		c-0.2,0.3-0.4,0.5-0.5,0.7c-0.2,0.2-0.4,0.4-0.8,0.6c-0.4,0.2-0.7,0.3-1.1,0.2s-0.6-0.3-0.9-0.7l0,0l3.3-1.9l-0.5-0.8
		c-0.4-0.8-1-1.2-1.7-1.5c-0.7-0.2-1.4-0.1-2.1,0.3c-0.8,0.4-1.2,1-1.3,1.8c-0.1,0.8,0,1.6,0.5,2.4l0.1,0.2c0.5,0.8,1.1,1.3,1.8,1.5
		c0.8,0.2,1.5,0.1,2.3-0.3C453.4,93,453.7,92.7,454,92.3z M445.4,91.8c0.3,0.1,0.5,0.3,0.7,0.6l0.1,0.1l-1.8,1l0,0
		c-0.2-0.4-0.2-0.7-0.2-1c0-0.3,0.2-0.5,0.5-0.7C444.9,91.8,445.2,91.7,445.4,91.8z M448.5,95.5c0.3-0.3,0.5-0.6,0.6-1l-0.9-0.7
		c-0.2,0.3-0.4,0.5-0.5,0.7c-0.2,0.2-0.4,0.4-0.8,0.6c-0.4,0.2-0.7,0.3-1.1,0.2s-0.6-0.3-0.9-0.7l0,0l3.3-1.9l-0.5-0.8
		c-0.4-0.8-1-1.2-1.7-1.5c-0.7-0.2-1.4-0.1-2.1,0.3c-0.8,0.4-1.2,1-1.3,1.8c-0.1,0.8,0,1.6,0.5,2.4l0.1,0.2c0.5,0.8,1.1,1.3,1.8,1.5
		c0.8,0.2,1.5,0.1,2.3-0.3C447.8,96.2,448.2,95.9,448.5,95.5z M440.4,100.3l2.9-1.7l-0.5-0.9L442,98l-1.5-2.7c0-0.2,0-0.4,0.1-0.5
		c0.1-0.2,0.2-0.3,0.5-0.4l0.6-0.3l-0.6-1.4c-0.1,0-0.1,0-0.2,0.1c-0.1,0-0.2,0.1-0.3,0.1c-0.3,0.2-0.5,0.4-0.6,0.6
		c-0.1,0.3-0.1,0.6-0.1,1l-0.5-0.8l-2.2,1.3l0.5,0.9l0.9-0.3l2,3.4l-0.6,0.6L440.4,100.3z M433.9,104.1l3.1-1.8l-0.5-0.9l-0.9,0.3
		l-1.2-2l2.6-1.5l-0.7-1.1l-2.6,1.5l-1.2-2l2.4-1.4l0.6,0.8l1.1-0.7l-1.2-2l-5.9,3.4l0.5,0.9l0.9-0.3l3.1,5.3l-0.7,0.6L433.9,104.1z
		"/>
	<path class="st1" d="M402.7,55.5l2.9-1.7l-0.5-0.9l-0.8,0.3l-2-3.4l1.1-0.6l-0.6-1l-1.1,0.6l-0.4-0.6c-0.1-0.2-0.2-0.5-0.1-0.7
		c0-0.2,0.2-0.4,0.4-0.5c0.1-0.1,0.2-0.1,0.3-0.1l0.3-0.1l-0.5-1.2c-0.2,0.1-0.3,0.1-0.5,0.2s-0.3,0.1-0.4,0.2
		c-0.6,0.4-1,0.8-1.2,1.4c-0.2,0.5-0.1,1.1,0.3,1.7l0.4,0.6l-0.8,0.5l0.6,1l0.8-0.5l2,3.4l-0.6,0.6L402.7,55.5z M398.8,57.8l2.9-1.7
		l-0.5-0.9l-0.8,0.3l-2-3.4l1.1-0.6l-0.6-1l-1.1,0.6l-0.4-0.6c-0.1-0.2-0.2-0.5-0.1-0.7c0-0.2,0.2-0.4,0.4-0.5
		c0.1-0.1,0.2-0.1,0.3-0.1l0.3-0.1l-0.5-1.2c-0.2,0.1-0.3,0.1-0.5,0.2c-0.1,0.1-0.3,0.1-0.4,0.2c-0.6,0.4-1,0.8-1.2,1.4
		c-0.2,0.5-0.1,1.1,0.3,1.7l0.4,0.6l-0.8,0.5l0.6,1l0.8-0.5l2,3.4l-0.6,0.6L398.8,57.8z M392.8,57.5c-0.3-0.5-0.4-0.9-0.4-1.3
		c0-0.4,0.2-0.7,0.6-0.9s0.8-0.2,1.1,0c0.4,0.2,0.7,0.5,1,1l0.1,0.1c0.3,0.5,0.4,0.9,0.4,1.4s-0.2,0.7-0.6,0.9
		c-0.4,0.2-0.8,0.2-1.1,0c-0.4-0.2-0.7-0.6-1-1.1L392.8,57.5z M391.3,58.5c0.5,0.8,1.1,1.4,1.9,1.6c0.8,0.3,1.5,0.1,2.4-0.3
		c0.8-0.5,1.3-1.1,1.4-1.9c0.2-0.8,0-1.6-0.5-2.4l-0.1-0.1c-0.5-0.8-1.1-1.4-1.8-1.6c-0.8-0.3-1.5-0.1-2.4,0.3
		c-0.8,0.5-1.3,1.1-1.4,1.9c-0.2,0.8,0,1.6,0.5,2.4L391.3,58.5z M383.2,57.6l3.4,5.8L386,64l0.5,0.9l2.8-1.6l-0.5-0.9l-0.7,0.2
		l-0.7-1.3L388,61l1.6,0.9l-0.3,0.2l0.5,0.9l2.5-1.5l-0.5-0.9l-0.6,0.2l-2.6-1.3l0.2-1.9l0.6-0.5l-0.5-0.9l-2.7,1.6l0.5,0.9l0.5-0.2
		l-0.2,1.7l-0.3,0.2l-2.6-4.6l-2.3,1.3l0.5,0.9L383.2,57.6z M379.9,68.7l2.8-1.6l-0.5-0.9l-0.7,0.2l-1.7-3c0-0.2,0.1-0.4,0.2-0.5
		c0.1-0.2,0.3-0.3,0.5-0.4c0.3-0.2,0.6-0.2,0.8-0.1c0.3,0.1,0.5,0.3,0.7,0.8l1.3,2.2l-0.6,0.5l0.5,0.9l2.8-1.6l-0.5-0.9l-0.8,0.3
		l-1.3-2.2c-0.5-0.8-1-1.3-1.5-1.5c-0.5-0.2-1.1-0.1-1.7,0.2c-0.3,0.2-0.5,0.4-0.7,0.7c-0.2,0.3-0.3,0.6-0.3,1l-1.8-3.1l-2.3,1.3
		l0.5,0.9l0.9-0.3l3.4,5.8l-0.6,0.6L379.9,68.7z M376.2,64.2c-0.3-0.1-0.7,0-1.2,0.1c-0.4,0.1-0.9,0.3-1.3,0.5
		c-0.7,0.4-1.1,0.9-1.3,1.4s-0.1,1.1,0.1,1.5c0.3,0.4,0.6,0.7,1.1,0.8c0.5,0.1,1.1,0,1.8-0.3c0.5-0.2,0.8-0.2,1.1-0.2
		c0.2,0,0.4,0.1,0.5,0.3c0.1,0.2,0.1,0.4,0,0.6s-0.3,0.4-0.6,0.6c-0.2,0.1-0.3,0.2-0.5,0.2c-0.2,0.1-0.3,0.1-0.5,0l-0.6-0.6l-1,0.6
		l0.7,1.2c0.4,0.1,0.8,0.1,1.2,0c0.4-0.1,0.8-0.2,1.3-0.5c0.7-0.4,1.2-0.9,1.4-1.4c0.2-0.6,0.2-1.1-0.1-1.6
		c-0.3-0.5-0.6-0.7-1.1-0.8c-0.5-0.1-1.1,0-1.9,0.3c-0.5,0.2-0.8,0.2-1,0.2s-0.4-0.1-0.5-0.3c-0.1-0.2-0.1-0.4,0-0.6
		c0.1-0.2,0.3-0.4,0.5-0.5c0.2-0.1,0.4-0.2,0.6-0.2c0.2,0,0.4,0,0.5,0l0.6,0.6l1-0.6L376.2,64.2z M372,73.2l2-1.1l-0.5-0.9l-0.8,0.2
		l-2.6-4.5l-1.5,0.9l-0.6,0.4l0.5,0.9l0.7-0.2l1.7,3c0,0.2-0.1,0.4-0.2,0.6s-0.3,0.3-0.5,0.5c-0.3,0.2-0.5,0.2-0.7,0.1
		s-0.5-0.3-0.7-0.7l-1.9-3.3l-1.5,0.9l-0.6,0.3l0.5,0.9l0.7-0.2l1.3,2.3c0.5,0.8,0.9,1.3,1.5,1.4c0.5,0.2,1.1,0.1,1.7-0.2
		c0.3-0.2,0.6-0.4,0.8-0.7s0.3-0.6,0.3-1L372,73.2z M359.6,72.1l1.1-0.6c0.4-0.2,0.8-0.3,1.1-0.2s0.6,0.3,0.8,0.6s0.2,0.6,0.1,0.9
		c-0.1,0.3-0.4,0.6-0.8,0.8l-1,0.6L359.6,72.1z M357.5,71.8l-0.8,0.5l0.5,0.9l0.9-0.3l3.1,5.3l-0.7,0.6l0.5,0.9l3.1-1.8l-0.5-0.9
		l-0.9,0.3l-1.1-1.9l1.2-0.7c0.4-0.2,0.7-0.2,1-0.1c0.3,0.1,0.6,0.3,0.8,0.7l0.2,0.4c0.2,0.4,0.5,0.7,0.9,0.8
		c0.3,0.1,0.8,0.1,1.2-0.2l0.8-0.4l-0.5-0.9l-0.2,0.1c-0.2,0.1-0.3,0.1-0.4,0c-0.1-0.1-0.2-0.2-0.3-0.3l-0.2-0.4
		c-0.3-0.4-0.6-0.8-0.9-0.9c-0.4-0.2-0.8-0.2-1.3-0.1c0.3-0.4,0.5-0.8,0.5-1.2s0-0.8-0.3-1.1c-0.4-0.7-0.9-1.1-1.6-1.2
		c-0.7-0.1-1.5,0.1-2.3,0.6L357.5,71.8z M354.7,76.6c-0.3-0.1-0.7,0-1.2,0.1c-0.4,0.1-0.9,0.3-1.3,0.5c-0.7,0.4-1.1,0.9-1.3,1.4
		s-0.1,1.1,0.1,1.5c0.3,0.4,0.6,0.7,1.1,0.8c0.5,0.1,1.1,0,1.8-0.3c0.5-0.2,0.8-0.2,1.1-0.2c0.2,0,0.4,0.1,0.5,0.3
		c0.1,0.2,0.1,0.4,0,0.6c-0.1,0.2-0.3,0.4-0.6,0.6c-0.2,0.1-0.3,0.2-0.5,0.2c-0.2,0.1-0.3,0.1-0.5,0l-0.6-0.6l-1,0.6l0.7,1.2
		c0.4,0.1,0.8,0.1,1.2,0c0.4-0.1,0.8-0.2,1.3-0.5c0.7-0.4,1.2-0.9,1.4-1.4c0.2-0.6,0.2-1.1-0.1-1.6c-0.3-0.5-0.6-0.7-1.1-0.8
		c-0.5-0.1-1.1,0-1.9,0.3c-0.5,0.2-0.8,0.2-1,0.2s-0.4-0.1-0.5-0.3c-0.1-0.2-0.1-0.4,0-0.6c0.1-0.2,0.3-0.4,0.5-0.5
		c0.2-0.1,0.4-0.2,0.6-0.2c0.2,0,0.4,0,0.5,0l0.6,0.6l1-0.6L354.7,76.6z M348.4,85.3c-0.2,0-0.3-0.1-0.4-0.3
		c-0.1-0.2-0.1-0.4-0.1-0.7c0.1-0.2,0.3-0.5,0.6-0.6l0.8-0.4l0.5,0.8c0,0.2-0.1,0.4-0.2,0.6c-0.1,0.2-0.3,0.4-0.5,0.5
		C348.8,85.3,348.6,85.4,348.4,85.3z M352.6,84.5l-0.5-0.9l-0.5,0.2l-0.1-0.2l-0.1-0.2l-1.3-2.3c-0.4-0.6-0.8-1-1.5-1.1
		c-0.6-0.1-1.3,0.1-1.9,0.5c-0.4,0.2-0.8,0.5-1,0.8c-0.3,0.3-0.5,0.7-0.7,1l0.7,1.2l1.1-0.6l-0.2-0.6c0-0.1,0.1-0.2,0.2-0.3
		c0.1-0.1,0.2-0.2,0.4-0.3c0.3-0.2,0.6-0.2,0.8-0.2s0.4,0.2,0.6,0.5l0.3,0.5l-0.8,0.4c-0.8,0.5-1.3,1-1.6,1.5s-0.2,1,0.1,1.5
		c0.3,0.5,0.7,0.8,1.2,0.9c0.5,0.1,1,0,1.5-0.3c0.3-0.2,0.6-0.4,0.8-0.7c0.2-0.3,0.3-0.6,0.4-0.9l0.2,0.3c0.1,0.1,0.2,0.2,0.3,0.2
		L352.6,84.5z M340.7,82.1l3.4,5.8l-0.6,0.6l0.5,0.9l2.9-1.7l-0.5-0.9l-0.8,0.3l-4-6.9l-2.3,1.3l0.5,0.9L340.7,82.1z M338.1,89.2
		c-0.3-0.5-0.5-1-0.5-1.4c0-0.4,0.2-0.7,0.5-0.9c0.2-0.1,0.4-0.2,0.6-0.2s0.4,0.1,0.6,0.2l1.4,2.4c0,0.2-0.1,0.4-0.2,0.6
		c-0.1,0.2-0.3,0.3-0.5,0.5c-0.4,0.2-0.7,0.2-1,0c-0.3-0.2-0.6-0.5-0.9-1L338.1,89.2z M336.7,90.2c0.5,0.8,1,1.4,1.7,1.6
		c0.7,0.3,1.3,0.2,2-0.2c0.3-0.2,0.5-0.4,0.7-0.6c0.2-0.2,0.3-0.5,0.3-0.8l0.2,0.4c0.2,0.4,0.3,0.8,0.3,1.1s-0.3,0.6-0.6,0.8
		c-0.3,0.2-0.5,0.3-0.8,0.3c-0.3,0.1-0.6,0.1-0.8,0.2l0.3,1.2c0.3,0,0.7-0.1,1-0.2c0.4-0.1,0.7-0.2,0.9-0.4c0.8-0.5,1.3-1,1.5-1.7
		c0.2-0.7,0.1-1.4-0.3-2.1l-3.1-5.3l-1.3,0.7l0.3,0.8c-0.3-0.2-0.6-0.2-0.9-0.2c-0.3,0-0.6,0.1-0.9,0.3c-0.7,0.4-1.1,1-1.1,1.7
		c-0.1,0.7,0.1,1.6,0.6,2.4L336.7,90.2z M335.6,94.3l2-1.1l-0.5-0.9l-0.8,0.2l-2.6-4.5l-1.5,0.9l-0.6,0.4l0.5,0.9l0.7-0.2l1.7,3
		c0,0.2-0.1,0.4-0.2,0.6s-0.3,0.3-0.5,0.5c-0.3,0.2-0.5,0.2-0.7,0.1c-0.2-0.1-0.5-0.3-0.7-0.7l-1.9-3.3l-1.5,0.9l-0.6,0.3l0.5,0.9
		l0.7-0.2l1.3,2.3c0.5,0.8,0.9,1.3,1.5,1.4c0.5,0.2,1.1,0.1,1.7-0.2c0.3-0.2,0.6-0.4,0.8-0.7c0.2-0.3,0.3-0.6,0.3-1L335.6,94.3z
		 M325.7,96.3c-0.3-0.5-0.4-0.9-0.4-1.3c0-0.4,0.2-0.7,0.6-0.9c0.4-0.2,0.8-0.2,1.1,0c0.4,0.2,0.7,0.5,1,1l0.1,0.1
		c0.3,0.5,0.4,0.9,0.4,1.4s-0.2,0.7-0.6,0.9c-0.4,0.2-0.8,0.2-1.1,0c-0.4-0.2-0.7-0.6-1-1.1L325.7,96.3z M324.2,97.2
		c0.5,0.8,1.1,1.4,1.9,1.6c0.8,0.3,1.5,0.1,2.4-0.3c0.8-0.5,1.3-1.1,1.4-1.9c0.2-0.8,0-1.6-0.5-2.4l-0.1-0.1
		c-0.5-0.8-1.1-1.4-1.9-1.6c-0.8-0.3-1.5-0.1-2.4,0.3c-0.8,0.5-1.3,1.1-1.4,1.9c-0.2,0.8,0,1.6,0.5,2.4L324.2,97.2z M318.2,96
		c0.5-0.3,1.1-0.4,1.6-0.2c0.5,0.2,0.9,0.6,1.3,1.1l0.7,1.2c0.3,0.6,0.5,1.1,0.4,1.7c-0.1,0.5-0.4,1-0.9,1.3l-1,0.6l-3-5.1L318.2,96
		z M315.1,96.2l-0.8,0.5l0.5,0.9l0.9-0.3l3.1,5.3l-0.7,0.6l0.5,0.9l3.3-1.9c0.9-0.5,1.5-1.2,1.7-2.1c0.3-0.9,0.1-1.8-0.4-2.7
		l-0.7-1.2c-0.5-0.9-1.2-1.5-2.2-1.7c-0.9-0.2-1.8-0.1-2.7,0.4L315.1,96.2z"/>
	<path class="st1" d="M1013,79.7c0.3,0.5,0.4,0.9,0.4,1.3c0,0.4-0.2,0.6-0.6,0.9c-0.2,0.1-0.5,0.2-0.7,0.2c-0.2,0-0.4-0.1-0.6-0.2
		l-1.3-2.3c0-0.2,0-0.4,0.1-0.6c0.1-0.2,0.3-0.3,0.5-0.5c0.4-0.2,0.7-0.2,1.1,0s0.7,0.6,1,1.1L1013,79.7z M1014.4,78.7
		c-0.5-0.9-1.1-1.5-1.8-1.8c-0.7-0.3-1.4-0.3-2,0.1c-0.3,0.2-0.5,0.4-0.7,0.6c-0.2,0.2-0.2,0.5-0.3,0.8l-1.7-3l-2.3,1.3l0.5,0.9
		l0.9-0.3l4,6.9l1.3-0.7l-0.3-0.7c0.3,0.2,0.6,0.2,0.9,0.2c0.3,0,0.6-0.1,1-0.3c0.7-0.4,1.1-0.9,1.2-1.6c0.1-0.7-0.1-1.5-0.6-2.3
		L1014.4,78.7z M1008.1,86l2-1.1l-0.5-0.9l-0.8,0.2l-2.6-4.5l-1.5,0.9l-0.6,0.4l0.5,0.9l0.7-0.2l1.7,3c0,0.2-0.1,0.4-0.2,0.6
		s-0.3,0.3-0.5,0.5c-0.3,0.2-0.5,0.2-0.7,0.1c-0.2-0.1-0.5-0.3-0.7-0.7l-1.9-3.3l-1.5,0.9l-0.6,0.3l0.5,0.9l0.7-0.2l1.3,2.3
		c0.5,0.8,0.9,1.3,1.5,1.4c0.5,0.2,1.1,0.1,1.7-0.2c0.3-0.2,0.6-0.4,0.8-0.7c0.2-0.3,0.3-0.6,0.3-1L1008.1,86z M993.2,86.2l3.1,5.3
		l-0.7,0.6l0.5,0.9l3.1-1.8l-0.5-0.9l-0.9,0.3l-1.2-2l3-1.7l1.2,2l-0.7,0.6l0.5,0.9l3.1-1.8l-0.5-0.9l-0.9,0.3l-3.1-5.3l0.7-0.6
		l-0.5-0.9l-0.8,0.5l-1.5,0.9l-0.8,0.5l0.5,0.9l0.9-0.3l1.2,2.1l-3,1.7l-1.2-2.1l0.7-0.6l-0.5-0.9l-3.1,1.8l0.5,0.9L993.2,86.2z
		 M993,89.7l-2.9,1.7l0.7,1.1l2.9-1.7L993,89.7z M986.2,88.1l-1.5,0.9l0.6,1.1l1.5-0.9L986.2,88.1z M988.6,97.3l2.9-1.7l-0.5-0.9
		l-0.8,0.3l-2.6-4.5l-2.3,1.3l0.5,0.9l0.9-0.3l2,3.4l-0.6,0.6L988.6,97.3z M984,97.9c-0.3-0.2-0.6-0.6-0.9-1l-0.1-0.2
		c-0.3-0.5-0.4-0.9-0.4-1.3c0-0.4,0.2-0.7,0.6-1c0.1-0.1,0.3-0.1,0.4-0.2c0.1,0,0.3,0,0.4,0l0.7,0.7l1.2-0.7l-0.9-1.5
		c-0.4-0.1-0.8-0.1-1.2-0.1c-0.4,0.1-0.9,0.2-1.3,0.5c-0.8,0.5-1.3,1.1-1.5,1.9s0,1.6,0.5,2.4l0.1,0.2c0.5,0.8,1.1,1.3,1.8,1.6
		c0.7,0.3,1.5,0.2,2.3-0.3c0.6-0.4,1.1-0.9,1.3-1.5c0.2-0.6,0.2-1.2-0.2-1.8l0,0l-1.3,0.8c0.1,0.3,0.2,0.5,0.1,0.8s-0.2,0.4-0.5,0.6
		C984.7,98.1,984.3,98.1,984,97.9z M978.6,94.3c-0.5-0.1-1-0.1-1.6,0c-0.6,0.1-1.1,0.3-1.7,0.6c-0.8,0.5-1.3,1-1.6,1.7
		c-0.3,0.7-0.3,1.3,0.1,1.9c0.3,0.6,0.9,1,1.5,1c0.7,0.1,1.5,0,2.5-0.2c0.6-0.1,1-0.2,1.3-0.1c0.3,0.1,0.5,0.2,0.7,0.5
		c0.2,0.3,0.2,0.6,0.1,0.8c-0.1,0.3-0.4,0.5-0.8,0.8c-0.3,0.2-0.6,0.3-0.9,0.4c-0.3,0.1-0.6,0.1-0.8,0l-0.8-1l-1.1,0.7l0.9,1.5
		c0.5,0.1,1,0.2,1.6,0.1s1.2-0.3,1.7-0.6c0.8-0.5,1.4-1,1.7-1.7s0.3-1.3-0.1-1.9c-0.3-0.6-0.8-1-1.5-1.1c-0.6-0.1-1.4-0.1-2.4,0.2
		c-0.7,0.1-1.2,0.2-1.5,0.2c-0.3,0-0.6-0.2-0.7-0.4c-0.2-0.3-0.2-0.6,0-0.9s0.4-0.6,0.8-0.8c0.3-0.2,0.6-0.3,0.8-0.4
		c0.3-0.1,0.5-0.1,0.7-0.1l0.8,0.9l1.1-0.6L978.6,94.3z"/>
	<path class="st1" d="M1022.3,50.2l2.8-1.6l-0.5-0.9l-0.7,0.2l-1.7-2.9c0-0.2,0.1-0.4,0.2-0.6c0.1-0.2,0.3-0.3,0.5-0.4
		c0.3-0.2,0.6-0.2,0.8-0.2c0.2,0.1,0.5,0.3,0.7,0.7l1.4,2.4l-0.5,0.5l0.5,0.9l2.8-1.6l-0.5-0.9l-0.8,0.3l-1.4-2.4
		c-0.4-0.7-0.9-1.2-1.4-1.4c-0.5-0.2-1-0.1-1.6,0.2c-0.3,0.2-0.6,0.4-0.8,0.8c-0.2,0.3-0.3,0.7-0.3,1l-0.5-0.7l-2.2,1.3l0.5,0.9
		l0.9-0.3l2,3.4l-0.6,0.6L1022.3,50.2z M1017.7,51.3c-0.2,0-0.3-0.1-0.4-0.3c-0.1-0.2-0.1-0.4-0.1-0.7c0.1-0.2,0.3-0.5,0.6-0.6
		l0.8-0.4l0.5,0.8c0,0.2-0.1,0.4-0.2,0.6c-0.1,0.2-0.3,0.4-0.5,0.5C1018.1,51.3,1017.9,51.4,1017.7,51.3z M1021.9,50.5l-0.5-0.9
		l-0.5,0.2l-0.1-0.2l-0.1-0.2l-1.3-2.3c-0.4-0.6-0.8-1-1.5-1.1c-0.6-0.1-1.3,0.1-1.9,0.5c-0.4,0.2-0.8,0.5-1,0.8
		c-0.3,0.3-0.5,0.7-0.7,1l0.7,1.2l1.1-0.6l-0.2-0.6c0-0.1,0.1-0.2,0.2-0.3c0.1-0.1,0.2-0.2,0.4-0.3c0.3-0.2,0.6-0.2,0.8-0.2
		s0.4,0.2,0.6,0.5l0.3,0.5l-0.8,0.4c-0.8,0.5-1.3,1-1.6,1.5s-0.2,1,0.1,1.6c0.3,0.5,0.7,0.8,1.2,0.9c0.5,0.1,1,0,1.5-0.3
		c0.3-0.2,0.6-0.4,0.8-0.7c0.2-0.3,0.3-0.6,0.4-0.9l0.2,0.3c0.1,0.1,0.2,0.2,0.3,0.2L1021.9,50.5z M1013,48.3l-2.7,1.6l0.5,0.9
		l0.7-0.3l0.6,3.1l0,0l-0.3-0.4l-2-1.8l0.6-0.5l-0.5-0.9l-2.7,1.6l0.5,0.9l0.6-0.2l4.4,3.5l0.1,0.5c0,0.2,0,0.4,0,0.6
		s-0.2,0.4-0.5,0.5l-0.1,0.1l-0.2,0.1l0.5,1.2c0.2,0,0.3-0.1,0.4-0.1c0.1,0,0.2-0.1,0.4-0.2c0.5-0.3,0.9-0.7,1-1.1s0.1-0.9,0.1-1.4
		l-1.1-6.5l0.5-0.4L1013,48.3z M1000.8,53.5l3.4,5.8l-0.6,0.6l0.5,0.9l2.8-1.6l-0.5-0.9l-0.7,0.2l-0.7-1.3l0.6-0.4l1.6,0.9l-0.3,0.2
		l0.5,0.9l2.5-1.5l-0.5-0.9l-0.6,0.2l-2.6-1.3l0.2-1.9l0.6-0.5l-0.5-0.9l-2.7,1.6l0.5,0.9l0.5-0.2l-0.2,1.7l-0.3,0.2l-2.6-4.6
		l-2.3,1.3l0.5,0.9L1000.8,53.5z M999.5,61.9c-0.2,0-0.3-0.1-0.4-0.3c-0.1-0.2-0.1-0.4-0.1-0.7c0.1-0.2,0.3-0.5,0.6-0.6l0.8-0.4
		l0.5,0.8c0,0.2-0.1,0.4-0.2,0.6s-0.3,0.4-0.5,0.5C999.9,61.8,999.7,61.9,999.5,61.9z M1003.7,61l-0.5-0.9l-0.5,0.2l-0.1-0.2
		l-0.1-0.2l-1.3-2.3c-0.4-0.6-0.8-1-1.5-1.1s-1.3,0.1-1.9,0.5c-0.4,0.2-0.8,0.5-1,0.8c-0.3,0.3-0.5,0.7-0.7,1l0.7,1.2l1.1-0.6
		l-0.2-0.6c0-0.1,0.1-0.2,0.2-0.3c0.1-0.1,0.2-0.2,0.4-0.3c0.3-0.2,0.6-0.2,0.8-0.2s0.4,0.2,0.6,0.5l0.3,0.5l-0.8,0.4
		c-0.8,0.5-1.3,1-1.6,1.5c-0.3,0.5-0.2,1,0.1,1.6c0.3,0.5,0.7,0.8,1.2,0.9s1,0,1.5-0.3c0.3-0.2,0.6-0.4,0.8-0.7
		c0.2-0.3,0.3-0.6,0.4-0.9l0.2,0.3c0.1,0.1,0.2,0.2,0.3,0.2L1003.7,61z M994.8,62.6c0.3,0.5,0.4,0.9,0.4,1.3c0,0.4-0.2,0.6-0.6,0.9
		c-0.2,0.1-0.5,0.2-0.7,0.2c-0.2,0-0.4-0.1-0.6-0.2l-1.3-2.3c0-0.2,0-0.4,0.1-0.6c0.1-0.2,0.3-0.3,0.5-0.5c0.4-0.2,0.7-0.2,1.1,0
		s0.7,0.6,1,1.1L994.8,62.6z M996.2,61.7c-0.5-0.9-1.1-1.5-1.8-1.8c-0.7-0.3-1.4-0.3-2,0.1c-0.3,0.2-0.5,0.4-0.7,0.6
		c-0.2,0.2-0.2,0.5-0.3,0.8l-1.7-3l-2.3,1.3l0.5,0.9l0.9-0.3l4,6.9l1.3-0.7l-0.3-0.7c0.3,0.2,0.6,0.2,0.9,0.2c0.3,0,0.6-0.1,1-0.3
		c0.7-0.4,1.1-0.9,1.2-1.6c0.1-0.7-0.1-1.5-0.6-2.3L996.2,61.7z M985.8,62.1l3.4,5.8l-0.6,0.6l0.5,0.9l2.9-1.7l-0.5-0.9l-0.8,0.3
		l-4-6.9l-2.3,1.3l0.5,0.9L985.8,62.1z M984.7,66.1l-2.5,1.4l-1.1-1.9l2.4-1.4l0.6,0.8l1.1-0.7l-1.2-2l-5,2.9l-0.8,0.5l0.5,0.9
		l0.9-0.3l3.1,5.3l-0.7,0.6l0.5,0.9l5.8-3.4l-1.2-2l-1.1,0.7l0.4,0.9l-2.4,1.4l-1.2-2.1l2.5-1.4L984.7,66.1z M975.3,75.8
		c-0.2,0-0.3-0.1-0.4-0.3c-0.1-0.2-0.1-0.4-0.1-0.7c0.1-0.2,0.3-0.5,0.6-0.6l0.8-0.4l0.5,0.8c0,0.2-0.1,0.4-0.2,0.6
		s-0.3,0.4-0.5,0.5C975.7,75.8,975.5,75.9,975.3,75.8z M979.5,75l-0.5-0.9l-0.5,0.2l-0.1-0.2l-0.1-0.2l-1.3-2.3
		c-0.4-0.6-0.8-1-1.5-1.1s-1.3,0.1-1.9,0.5c-0.4,0.2-0.8,0.5-1,0.8c-0.3,0.3-0.5,0.7-0.7,1l0.7,1.2l1.1-0.6l-0.2-0.6
		c0-0.1,0.1-0.2,0.2-0.3c0.1-0.1,0.2-0.2,0.4-0.3c0.3-0.2,0.6-0.2,0.8-0.2c0.2,0.1,0.4,0.2,0.6,0.5l0.3,0.5l-0.8,0.4
		c-0.8,0.5-1.3,1-1.6,1.5s-0.2,1,0.1,1.6c0.3,0.5,0.7,0.8,1.2,0.9s1,0,1.5-0.3c0.3-0.2,0.6-0.4,0.8-0.7c0.2-0.3,0.3-0.6,0.4-0.9
		l0.2,0.3c0.1,0.1,0.2,0.2,0.3,0.2L979.5,75z M970,80.4l2.9-1.7l-0.5-0.9l-0.8,0.3l-1.5-2.7c0-0.2,0-0.4,0.1-0.5
		c0.1-0.2,0.2-0.3,0.5-0.4l0.6-0.3l-0.6-1.4c-0.1,0-0.1,0-0.2,0.1c-0.1,0-0.2,0.1-0.3,0.1c-0.3,0.2-0.5,0.4-0.6,0.6
		c-0.1,0.3-0.1,0.6-0.1,1l-0.5-0.8l-2.2,1.3l0.5,0.9l0.9-0.3l2,3.4l-0.6,0.6L970,80.4z M963.7,80.5c-0.3-0.5-0.5-1-0.5-1.4
		c0-0.4,0.2-0.7,0.5-0.9c0.2-0.1,0.4-0.2,0.6-0.2c0.2,0,0.4,0.1,0.6,0.2l1.3,2.3c0,0.2-0.1,0.4-0.2,0.6c-0.1,0.2-0.3,0.3-0.5,0.5
		c-0.4,0.2-0.7,0.2-1,0c-0.3-0.2-0.6-0.5-0.9-1L963.7,80.5z M967.4,81.9l2-1.2l-0.5-0.9l-0.8,0.3l-4-6.9l-1.5,0.9l-0.8,0.5l0.5,0.9
		l0.9-0.3l1.1,2c-0.3-0.1-0.6-0.2-0.9-0.2s-0.6,0.1-0.8,0.2c-0.7,0.4-1.1,1-1.1,1.7c-0.1,0.7,0.1,1.6,0.6,2.4l0.1,0.1
		c0.5,0.8,1,1.4,1.7,1.6c0.7,0.3,1.3,0.2,2-0.2c0.3-0.2,0.5-0.4,0.7-0.7c0.2-0.3,0.3-0.6,0.3-0.9L967.4,81.9z M957.1,87.9l2.8-1.6
		l-0.5-0.9l-0.7,0.2l-1.7-2.9c0-0.2,0.1-0.4,0.2-0.6c0.1-0.2,0.3-0.3,0.5-0.4c0.3-0.2,0.6-0.2,0.8-0.2c0.2,0.1,0.5,0.3,0.7,0.7
		l1.4,2.4l-0.5,0.5l0.5,0.9l2.8-1.6l-0.5-0.9l-0.8,0.3l-1.4-2.4c-0.4-0.7-0.9-1.2-1.4-1.4c-0.5-0.2-1-0.1-1.6,0.2
		c-0.3,0.2-0.6,0.4-0.8,0.8c-0.2,0.3-0.3,0.7-0.3,1l-0.5-0.7l-2.2,1.3l0.5,0.9l0.9-0.3l2,3.4l-0.6,0.6L957.1,87.9z M952.5,89
		c-0.2,0-0.3-0.1-0.4-0.3c-0.1-0.2-0.1-0.4-0.1-0.7c0.1-0.2,0.3-0.5,0.6-0.6l0.8-0.4l0.5,0.8c0,0.2-0.1,0.4-0.2,0.6
		s-0.3,0.4-0.5,0.5C952.9,89,952.7,89,952.5,89z M956.6,88.1l-0.5-0.9l-0.5,0.2l-0.1-0.2l-0.1-0.2l-1.3-2.3c-0.4-0.6-0.8-1-1.5-1.1
		c-0.6-0.1-1.3,0.1-1.9,0.5c-0.4,0.2-0.8,0.5-1,0.8c-0.3,0.3-0.5,0.7-0.7,1l0.7,1.2l1.1-0.6l-0.2-0.6c0-0.1,0.1-0.2,0.2-0.3
		c0.1-0.1,0.2-0.2,0.4-0.3c0.3-0.2,0.6-0.2,0.8-0.2s0.4,0.2,0.6,0.5l0.3,0.5l-0.8,0.4c-0.8,0.5-1.3,1-1.6,1.5
		c-0.3,0.5-0.2,1,0.1,1.6c0.3,0.5,0.7,0.8,1.2,0.9s1,0,1.5-0.3c0.3-0.2,0.6-0.4,0.8-0.7c0.2-0.3,0.3-0.6,0.4-0.9l0.2,0.3
		c0.1,0.1,0.2,0.2,0.3,0.2L956.6,88.1z M945.2,94.7l2.4-1.4l-0.5-0.9l-0.5,0.2l0.2-1.6l1.5,0.6L948,92l0.5,0.9l2.5-1.5l-0.5-0.9
		l-0.6,0.2l-2.5-0.9l0.4-2.5l0.4-0.4l-0.5-0.9l-2.5,1.4l0.5,0.9l0.5-0.2l-0.2,1.5l-1.4-0.6l0.5-0.4l-0.5-0.9l-2.5,1.4l0.5,0.9
		l0.6-0.2l2.4,0.9l-0.4,2.7l-0.5,0.4L945.2,94.7z M940.6,91.8c0.3,0.1,0.5,0.3,0.7,0.6l0.1,0.1l-1.8,1l0,0c-0.2-0.4-0.2-0.7-0.2-1
		c0-0.3,0.2-0.5,0.5-0.7C940.1,91.8,940.4,91.7,940.6,91.8z M943.6,95.5c0.3-0.3,0.5-0.6,0.6-1l-0.9-0.7c-0.2,0.3-0.4,0.5-0.5,0.7
		c-0.2,0.2-0.4,0.4-0.8,0.6c-0.4,0.2-0.7,0.3-1.1,0.2s-0.6-0.3-0.9-0.7l0,0l3.3-1.9l-0.5-0.8c-0.4-0.8-1-1.2-1.7-1.5
		c-0.7-0.2-1.4-0.1-2.1,0.3c-0.8,0.4-1.2,1-1.3,1.8s0,1.6,0.5,2.4l0.1,0.2c0.5,0.8,1.1,1.3,1.8,1.5s1.5,0.1,2.3-0.3
		C943,96.2,943.3,95.9,943.6,95.5z M933.2,92.5l3.4,5.8l-0.6,0.6l0.5,0.9l2.9-1.7l-0.5-0.9l-0.8,0.3l-4-6.9l-2.3,1.3l0.5,0.9
		L933.2,92.5z M929.2,96.4L929.2,96.4l2.4,2.1l-1.7,1L929.2,96.4z M929,104.1l2.5-1.5l-0.5-0.9l-0.6,0.2l-0.3-1.2l2.4-1.4l0.9,0.8
		l-0.5,0.4l0.5,0.9l2.5-1.5l-0.5-0.9l-0.6,0.2l-5.9-5.1l-1.5,0.9l1.5,7.7l-0.5,0.4L929,104.1z"/>
	<polyline points="148.5,294.8 148.5,301.2 149.5,301.2 149.5,294.8 	"/>
	<polyline points="41.7,294.8 41.7,301.2 42.7,301.2 42.7,294.8 	"/>
	<polyline points="255.3,294.8 255.3,301.2 256.3,301.2 256.3,294.8 	"/>
	<polyline points="362.1,294.8 362.1,301.2 363.1,301.2 363.1,294.8 362.1,294.8 	"/>
	<polyline points="468.9,294.8 468.9,301.2 469.9,301.2 469.9,294.8 468.9,294.8 	"/>
	<polyline points="575.7,294.8 575.7,301.2 576.7,301.2 576.7,294.8 575.7,294.8 	"/>
	<polyline points="682.5,294.8 682.5,301.2 683.5,301.2 683.5,294.8 682.5,294.8 	"/>
	<polyline points="789.3,294.8 789.3,301.2 790.3,301.2 790.3,294.8 789.3,294.8 	"/>
	<polyline points="896.2,294.8 896.2,301.2 897.2,301.2 897.2,294.8 896.2,294.8 	"/>
	<polyline points="1003,294.8 1003,301.2 1004,301.2 1004,294.8 1003,294.8 	"/>
	<polyline points="1109.8,294.8 1109.8,301.2 1110.8,301.2 1110.8,294.8 1109.8,294.8 	"/>
	<polyline class="st2" points="1110.3,110.4 272.8,110.4 272.8,294.3 1110.3,294.3 1110.3,110.4 	"/>
	<polyline class="st3" points="1110.3,294.3 1110.3,294.3 272.8,294.3 272.8,294.8 362.1,294.8 362.1,294.8 363.1,294.8 
		363.1,294.8 468.9,294.8 468.9,294.8 469.9,294.8 469.9,294.8 575.7,294.8 575.7,294.8 576.7,294.8 576.7,294.8 682.5,294.8 
		682.5,294.8 683.5,294.8 683.5,294.8 789.3,294.8 789.3,294.8 790.3,294.8 790.3,294.8 896.2,294.8 896.2,294.8 897.2,294.8 
		897.2,294.8 1003,294.8 1003,294.8 1004,294.8 1004,294.8 1109.8,294.8 1109.8,294.8 1110.3,294.8 1110.3,294.3 	"/>
	<polyline class="st3" points="363.1,294.8 362.1,294.8 362.1,294.8 363.1,294.8 363.1,294.8 	"/>
	<polyline class="st3" points="469.9,294.8 468.9,294.8 468.9,294.8 469.9,294.8 469.9,294.8 	"/>
	<polyline class="st3" points="576.7,294.8 575.7,294.8 575.7,294.8 576.7,294.8 576.7,294.8 	"/>
	<polyline class="st3" points="683.5,294.8 682.5,294.8 682.5,294.8 683.5,294.8 683.5,294.8 	"/>
	<polyline class="st3" points="790.3,294.8 789.3,294.8 789.3,294.8 790.3,294.8 790.3,294.8 	"/>
	<polyline class="st3" points="897.2,294.8 896.2,294.8 896.2,294.8 897.2,294.8 897.2,294.8 	"/>
	<polyline class="st3" points="1004,294.8 1003,294.8 1003,294.8 1004,294.8 1004,294.8 	"/>
	<polyline class="st3" points="1110.3,294.8 1109.8,294.8 1109.8,294.8 1110.3,294.8 	"/>
	<line x1="272.8" y1="110.4" x2="272.8" y2="294.8"/>
	<polyline class="st4" points="271.3,110.4 271.3,294.8 274.3,294.8 274.3,110.4 	"/>
	<line x1="318.3" y1="110.4" x2="318.3" y2="294.8"/>
	<polyline class="st4" points="316.8,110.4 316.8,294.8 319.8,294.8 319.8,110.4 	"/>
	<line x1="433.5" y1="110.4" x2="433.5" y2="294.8"/>
	<polyline class="st4" points="432,110.4 432,294.8 435,294.8 435,110.4 	"/>
	<line x1="694.6" y1="110.4" x2="694.6" y2="294.8"/>
	<polyline class="st4" points="693.1,110.4 693.1,294.8 696.1,294.8 696.1,110.4 	"/>
	<line x1="682.6" y1="110.4" x2="682.6" y2="294.8"/>
	<polyline class="st4" points="681.1,110.4 681.1,294.8 684.1,294.8 684.1,110.4 	"/>
	<line x1="976.5" y1="110.4" x2="976.5" y2="294.8"/>
	<polyline class="st4" points="975,110.4 975,294.8 978,294.8 978,110.4 	"/>
	<line x1="928.7" y1="110.4" x2="928.7" y2="294.8"/>
	<polyline class="st4" points="927.2,110.4 927.2,294.8 930.2,294.8 930.2,110.4 	"/>
	<line x1="890.2" y1="110.4" x2="890.2" y2="294.8"/>
	<polyline class="st4" points="888.7,110.4 888.7,294.8 891.7,294.8 891.7,110.4 	"/>
	<line x1="836.8" y1="110.4" x2="836.8" y2="294.8"/>
	<polyline class="st4" points="835.3,110.4 835.3,294.8 838.3,294.8 838.3,110.4 	"/>
	<polygon class="st5" points="260.9,301.2 272.8,283.5 284.7,301.2 	"/>
	<polygon points="260.9,301.2 261.3,301.5 272.8,284.4 283.8,300.7 260.9,300.7 260.9,301.2 261.3,301.5 260.9,301.2 260.9,301.7 
		285.7,301.7 272.8,282.7 259.9,301.7 260.9,301.7 	"/>
	<polygon class="st5" points="306.4,301.2 318.3,283.5 330.2,301.2 	"/>
	<polygon points="306.4,301.2 306.8,301.5 318.3,284.4 329.3,300.7 306.4,300.7 306.4,301.2 306.8,301.5 306.4,301.2 306.4,301.7 
		331.2,301.7 318.3,282.7 305.4,301.7 306.4,301.7 	"/>
	<polygon class="st5" points="421.6,301.2 433.5,283.5 445.5,301.2 	"/>
	<polygon points="421.6,301.2 422,301.5 433.5,284.4 444.5,300.7 421.6,300.7 421.6,301.2 422,301.5 421.6,301.2 421.6,301.7 
		446.4,301.7 433.5,282.7 420.7,301.7 421.6,301.7 	"/>
	<polygon class="st5" points="671.1,301.2 683,283.5 695,301.2 	"/>
	<polygon points="671.1,301.2 671.5,301.5 683,284.4 694,300.7 671.1,300.7 671.1,301.2 671.5,301.5 671.1,301.2 671.1,301.7 
		695.9,301.7 683,282.7 670.2,301.7 671.1,301.7 	"/>
	<polygon class="st5" points="683,301.2 695,283.5 706.9,301.2 	"/>
	<polygon points="683,301.2 683.5,301.5 695,284.4 706,300.7 683,300.7 683,301.2 683.5,301.5 683,301.2 683,301.7 707.8,301.7 
		695,282.7 682.1,301.7 683,301.7 	"/>
	<polygon class="st5" points="824.9,301.2 836.8,283.5 848.8,301.2 	"/>
	<polygon points="824.9,301.2 825.3,301.5 836.8,284.4 847.8,300.7 824.9,300.7 824.9,301.2 825.3,301.5 824.9,301.2 824.9,301.7 
		849.7,301.7 836.8,282.7 824,301.7 824.9,301.7 	"/>
	<polygon class="st5" points="878.3,301.2 890.2,283.5 902.2,301.2 	"/>
	<polygon points="878.3,301.2 878.7,301.5 890.2,284.4 901.2,300.7 878.3,300.7 878.3,301.2 878.7,301.5 878.3,301.2 878.3,301.7 
		903.1,301.7 890.2,282.7 877.4,301.7 878.3,301.7 	"/>
	<polygon class="st5" points="916.8,301.2 928.7,283.5 940.6,301.2 	"/>
	<polygon points="916.8,301.2 917.2,301.5 928.7,284.4 939.7,300.7 916.8,300.7 916.8,301.2 917.2,301.5 916.8,301.2 916.8,301.7 
		941.6,301.7 928.7,282.7 915.8,301.7 916.8,301.7 	"/>
	<polygon class="st5" points="964.5,301.2 976.5,283.5 988.4,301.2 	"/>
	<polygon points="964.5,301.2 965,301.5 976.5,284.4 987.5,300.7 964.5,300.7 964.5,301.2 965,301.5 964.5,301.2 964.5,301.7 
		989.3,301.7 976.5,282.7 963.6,301.7 964.5,301.7 	"/>
	<path d="M268.1,18.4c-0.5-0.4-1.1-0.7-1.9-0.9s-1.7-0.4-2.6-0.4c-1.5,0-2.6,0.4-3.4,1.1c-0.8,0.7-1.2,1.5-1.2,2.5
		c0,0.9,0.3,1.7,1,2.2c0.7,0.5,1.7,1,3.1,1.2c0.9,0.2,1.5,0.4,1.9,0.7c0.3,0.3,0.5,0.5,0.5,0.9c0,0.4-0.2,0.7-0.5,0.9
		s-0.8,0.3-1.5,0.3c-0.4,0-0.7,0-1-0.1c-0.3-0.1-0.6-0.2-0.8-0.3l-0.4-1.5h-2.2l0,2.6c0.6,0.5,1.2,0.9,2,1.1
		c0.7,0.3,1.6,0.4,2.5,0.4c1.5,0,2.7-0.3,3.6-1c0.9-0.7,1.3-1.5,1.3-2.6c0-1-0.3-1.7-1-2.3c-0.7-0.6-1.8-1-3.2-1.3
		c-0.9-0.2-1.5-0.4-1.8-0.6c-0.3-0.2-0.5-0.5-0.5-0.9c0-0.4,0.2-0.7,0.5-0.9c0.3-0.2,0.8-0.4,1.3-0.4c0.4,0,0.8,0.1,1.1,0.2
		c0.3,0.1,0.6,0.3,0.8,0.4l0.3,1.5h2.1L268.1,18.4z M246,14.4v12.3l-1.5,0.3v1.9h6v-1.9l-1.4-0.3v-2.7h1.3l1.8,2.9l-0.6,0.1v1.9h5.4
		v-1.9l-1.2-0.2l-2.9-4.4l2.1-2.9l1.4-0.3v-1.9h-5.7v1.9l1,0.1l-1.8,2.5h-0.7v-9.7h-4.8v1.9L246,14.4z M235.7,26.5
		c-0.3-0.2-0.4-0.5-0.4-0.9c0-0.4,0.2-0.8,0.5-1.1c0.3-0.3,0.8-0.5,1.5-0.5h1.6v1.8c-0.2,0.3-0.5,0.6-0.9,0.8
		c-0.4,0.2-0.8,0.3-1.3,0.3C236.3,26.9,236,26.7,235.7,26.5z M243.1,28.9v-1.9l-1-0.1c0-0.1,0-0.3,0-0.5c0-0.2,0-0.3,0-0.5v-4.8
		c0-1.3-0.4-2.3-1.3-3c-0.9-0.7-2.1-1.1-3.5-1.1c-0.9,0-1.7,0.1-2.4,0.4s-1.4,0.6-2,1l0,2.6h2.4l0.2-1.2c0.2-0.1,0.4-0.2,0.7-0.3
		c0.3-0.1,0.6-0.1,1-0.1c0.6,0,1.1,0.2,1.4,0.5s0.5,0.7,0.5,1.3v1.1h-1.6c-1.7,0-3,0.3-3.8,0.9c-0.9,0.6-1.3,1.4-1.3,2.5
		c0,1.1,0.3,1.9,1,2.5c0.7,0.6,1.6,0.9,2.7,0.9c0.7,0,1.3-0.1,1.8-0.4c0.5-0.3,1-0.6,1.4-1c0,0.2,0.1,0.4,0.2,0.6
		c0.1,0.2,0.1,0.4,0.2,0.6H243.1z M226.5,20.1c0.3,0.4,0.5,0.9,0.5,1.6V22h-3.8l0-0.1c0.1-0.7,0.3-1.3,0.6-1.8
		c0.3-0.4,0.8-0.7,1.4-0.7C225.7,19.5,226.2,19.7,226.5,20.1z M227.9,28.8c0.8-0.3,1.4-0.6,1.9-1l-0.8-1.9c-0.5,0.3-1,0.5-1.5,0.7
		c-0.5,0.1-1,0.2-1.7,0.2c-0.8,0-1.4-0.2-1.9-0.7c-0.5-0.5-0.7-1.1-0.8-1.9l0-0.1h6.9v-1.7c0-1.6-0.4-2.9-1.3-3.8
		c-0.9-0.9-2.1-1.4-3.7-1.4c-1.6,0-2.9,0.5-3.8,1.7c-0.9,1.1-1.4,2.5-1.4,4.3v0.4c0,1.7,0.5,3,1.5,4.1c1,1.1,2.3,1.6,4,1.6
		C226.3,29.2,227.2,29,227.9,28.8z M214.7,23.5c0,1-0.2,1.8-0.5,2.4s-0.9,0.9-1.7,0.9c-0.5,0-0.9-0.1-1.2-0.3s-0.6-0.4-0.8-0.8v-5.1
		c0.2-0.4,0.5-0.6,0.8-0.8s0.7-0.3,1.2-0.3c0.8,0,1.3,0.3,1.7,1s0.5,1.6,0.5,2.7V23.5z M207.4,19.5v11.7l-1.5,0.3v1.9h6.2v-1.9
		l-1.5-0.3v-3.4c0.3,0.4,0.7,0.8,1.2,1c0.5,0.2,1,0.3,1.6,0.3c1.4,0,2.5-0.5,3.3-1.6s1.2-2.4,1.2-4.1v-0.2c0-1.8-0.4-3.3-1.2-4.4
		s-1.9-1.7-3.4-1.7c-0.6,0-1.2,0.1-1.7,0.4c-0.5,0.3-0.9,0.7-1.2,1.2l-0.2-1.4h-4.6v1.9L207.4,19.5z M197.6,18.4
		c-0.5-0.4-1.1-0.7-1.9-0.9s-1.7-0.4-2.6-0.4c-1.5,0-2.6,0.4-3.4,1.1c-0.8,0.7-1.2,1.5-1.2,2.5c0,0.9,0.3,1.7,1,2.2
		c0.7,0.5,1.7,1,3.1,1.2c0.9,0.2,1.5,0.4,1.9,0.7c0.3,0.3,0.5,0.5,0.5,0.9c0,0.4-0.2,0.7-0.5,0.9S193.7,27,193,27
		c-0.4,0-0.7,0-1-0.1c-0.3-0.1-0.6-0.2-0.8-0.3l-0.4-1.5h-2.2l0,2.6c0.6,0.5,1.2,0.9,2,1.1c0.7,0.3,1.6,0.4,2.5,0.4
		c1.5,0,2.7-0.3,3.6-1c0.9-0.7,1.3-1.5,1.3-2.6c0-1-0.3-1.7-1-2.3c-0.7-0.6-1.8-1-3.2-1.3c-0.9-0.2-1.5-0.4-1.8-0.6
		c-0.3-0.2-0.5-0.5-0.5-0.9c0-0.4,0.2-0.7,0.5-0.9c0.3-0.2,0.8-0.4,1.3-0.4c0.4,0,0.8,0.1,1.1,0.2c0.3,0.1,0.6,0.3,0.8,0.4l0.3,1.5
		h2.1L197.6,18.4z M177.7,23.2c0-1.1,0.2-2,0.5-2.7c0.4-0.7,0.9-1,1.7-1c0.5,0,0.8,0.1,1.2,0.3c0.3,0.2,0.6,0.5,0.8,0.9v4.9
		c-0.2,0.4-0.5,0.6-0.8,0.8c-0.3,0.2-0.7,0.3-1.2,0.3c-0.8,0-1.3-0.3-1.7-0.9c-0.3-0.6-0.5-1.4-0.5-2.4V23.2z M182.3,28.9h4.2v-1.9
		l-1.5-0.3V12.2h-3.1h-1.7v1.9l1.7,0.3v4.2c-0.4-0.5-0.8-0.8-1.2-1.1c-0.5-0.3-1-0.4-1.6-0.4c-1.4,0-2.6,0.6-3.4,1.7
		s-1.2,2.6-1.2,4.4v0.2c0,1.7,0.4,3.1,1.2,4.1c0.8,1,1.9,1.6,3.3,1.6c0.6,0,1.2-0.1,1.7-0.4c0.5-0.3,0.9-0.7,1.3-1.2L182.3,28.9z
		 M159.9,28.9h5.9v-1.9l-1.3-0.3v-6.2c0.2-0.3,0.5-0.5,0.8-0.7c0.3-0.2,0.7-0.3,1.1-0.3c0.6,0,1.1,0.2,1.4,0.5
		c0.3,0.3,0.5,0.9,0.5,1.7v5l-1.3,0.3v1.9h6v-1.9l-1.5-0.3v-5.1c0-1.6-0.3-2.7-1-3.5c-0.7-0.7-1.6-1.1-2.8-1.1
		c-0.7,0-1.3,0.2-1.9,0.5c-0.6,0.3-1,0.8-1.4,1.4l-0.1-1.7h-4.6v1.9l1.7,0.3v7.2l-1.5,0.3V28.9z M154.5,20.1
		c0.3,0.4,0.5,0.9,0.5,1.6V22h-3.8l0-0.1c0.1-0.7,0.3-1.3,0.6-1.8c0.3-0.4,0.8-0.7,1.4-0.7C153.7,19.5,154.1,19.7,154.5,20.1z
		 M155.9,28.8c0.8-0.3,1.4-0.6,1.9-1l-0.8-1.9c-0.5,0.3-1,0.5-1.5,0.7c-0.5,0.1-1,0.2-1.7,0.2c-0.8,0-1.4-0.2-1.9-0.7
		c-0.5-0.5-0.7-1.1-0.8-1.9l0-0.1h6.9v-1.7c0-1.6-0.4-2.9-1.3-3.8c-0.9-0.9-2.1-1.4-3.7-1.4c-1.6,0-2.9,0.5-3.8,1.7
		c-0.9,1.1-1.4,2.5-1.4,4.3v0.4c0,1.7,0.5,3,1.5,4.1c1,1.1,2.3,1.6,4,1.6C154.3,29.2,155.1,29,155.9,28.8z M138.2,28.9h6.1v-1.9
		l-1.5-0.3v-5.7c0.2-0.3,0.4-0.6,0.7-0.8s0.7-0.3,1.1-0.3l1.3,0l0.3-2.9c-0.1,0-0.3-0.1-0.5-0.1c-0.2,0-0.4,0-0.5,0
		c-0.6,0-1.1,0.2-1.5,0.5s-0.8,0.8-1.1,1.4l-0.1-1.7H138v1.9l1.7,0.3v7.2l-1.5,0.3V28.9z M122.4,13.3v4.2h2.4l0.1-1.8h2.9v11
		l-1.7,0.3v1.9h6.5v-1.9l-1.7-0.3v-11h2.9l0.1,1.8h2.4v-4.2H122.4z M111.1,20.1c0.3,0.4,0.5,0.9,0.5,1.6V22h-3.8l0-0.1
		c0.1-0.7,0.3-1.3,0.6-1.8c0.3-0.4,0.8-0.7,1.4-0.7C110.3,19.5,110.8,19.7,111.1,20.1z M112.5,28.8c0.8-0.3,1.4-0.6,1.9-1l-0.8-1.9
		c-0.5,0.3-1,0.5-1.5,0.7c-0.5,0.1-1,0.2-1.7,0.2c-0.8,0-1.4-0.2-1.9-0.7c-0.5-0.5-0.7-1.1-0.8-1.9l0-0.1h6.9v-1.7
		c0-1.6-0.4-2.9-1.3-3.8c-0.9-0.9-2.1-1.4-3.7-1.4c-1.6,0-2.9,0.5-3.8,1.7c-0.9,1.1-1.4,2.5-1.4,4.3v0.4c0,1.7,0.5,3,1.5,4.1
		c1,1.1,2.3,1.6,4,1.6C110.9,29.2,111.8,29,112.5,28.8z M98.2,14.4v12.3l-1.5,0.3v1.9h6.2v-1.9l-1.5-0.3V12.2h-4.8v1.9L98.2,14.4z
		 M87,23.2c0-1.1,0.2-2,0.5-2.7s0.9-1,1.7-1c0.5,0,0.9,0.1,1.2,0.3s0.6,0.5,0.8,0.8v5c-0.2,0.3-0.5,0.6-0.8,0.8
		c-0.3,0.2-0.7,0.3-1.2,0.3c-0.8,0-1.3-0.3-1.7-0.9c-0.3-0.6-0.5-1.4-0.5-2.4V23.2z M83.9,23.5c0,1.7,0.4,3.1,1.2,4.1
		c0.8,1,1.9,1.6,3.3,1.6c0.6,0,1.1-0.1,1.6-0.3c0.5-0.2,0.9-0.6,1.2-1v0.8c0,0.8-0.2,1.5-0.6,1.9c-0.4,0.5-1,0.7-1.7,0.7
		c-0.6,0-1.1-0.1-1.6-0.2c-0.5-0.1-1-0.3-1.5-0.5l-0.6,2.2c0.6,0.3,1.2,0.5,1.8,0.7c0.7,0.2,1.3,0.2,1.9,0.2c1.7,0,3-0.5,4-1.4
		c1-0.9,1.4-2.1,1.4-3.7V17.3h-2.7l-0.2,1.5c-0.4-0.5-0.8-1-1.3-1.2c-0.5-0.3-1.1-0.4-1.7-0.4c-1.4,0-2.6,0.6-3.4,1.7
		c-0.8,1.1-1.2,2.6-1.2,4.4V23.5z M74,23c0-1,0.2-1.9,0.6-2.5c0.4-0.7,1-1,1.8-1s1.4,0.3,1.8,1c0.4,0.7,0.6,1.5,0.6,2.5v0.2
		c0,1.1-0.2,1.9-0.6,2.5s-1,1-1.8,1c-0.8,0-1.4-0.3-1.8-1c-0.4-0.6-0.6-1.5-0.6-2.6V23z M70.8,23.3c0,1.7,0.5,3.2,1.5,4.3
		c1,1.1,2.3,1.6,4,1.6c1.7,0,3-0.5,4-1.6c1-1.1,1.5-2.5,1.5-4.3V23c0-1.7-0.5-3.2-1.5-4.3c-1-1.1-2.3-1.7-4-1.7
		c-1.7,0-3.1,0.6-4,1.7c-1,1.1-1.5,2.5-1.5,4.3V23.3z M61.1,23c0-1,0.2-1.9,0.6-2.5c0.4-0.7,1-1,1.8-1s1.4,0.3,1.8,1
		c0.4,0.7,0.6,1.5,0.6,2.5v0.2c0,1.1-0.2,1.9-0.6,2.5s-1,1-1.8,1c-0.8,0-1.4-0.3-1.8-1c-0.4-0.6-0.6-1.5-0.6-2.6V23z M58,23.3
		c0,1.7,0.5,3.2,1.5,4.3c1,1.1,2.3,1.6,4,1.6c1.7,0,3-0.5,4-1.6c1-1.1,1.5-2.5,1.5-4.3V23c0-1.7-0.5-3.2-1.5-4.3
		c-1-1.1-2.3-1.7-4-1.7c-1.7,0-3.1,0.6-4,1.7c-1,1.1-1.5,2.5-1.5,4.3V23.3z M55.8,21.2h-5.4v2.2l2.2,0.2v2.7
		c-0.2,0.1-0.5,0.3-0.9,0.4c-0.4,0.1-0.9,0.2-1.5,0.2c-1.4,0-2.5-0.5-3.2-1.4c-0.7-0.9-1.1-2.2-1.1-3.8V21c0-1.6,0.4-3,1.1-4
		c0.8-1,1.8-1.5,3.2-1.5c0.6,0,1.1,0.1,1.6,0.2c0.5,0.1,0.8,0.3,1.1,0.6l0.4,2.1h2.3v-3.1c-0.7-0.7-1.5-1.2-2.5-1.6
		c-1-0.4-2.1-0.6-3.4-0.6c-2.1,0-3.8,0.7-5.1,2.2c-1.3,1.5-2,3.4-2,5.7v0.5c0,2.3,0.7,4.1,2,5.5c1.3,1.4,3,2.1,5.2,2.1
		c1.5,0,2.7-0.2,3.7-0.6c1-0.4,1.7-0.9,2.2-1.4V21.2z"/>
</g>
</svg>
