<?xml version="1.0" encoding="utf-8"?>
<!-- Generator: Adobe Illustrator 19.1.0, SVG Export Plug-In . SVG Version: 6.00 Build 0)  -->
<svg version="1.1" id="Livello_1" xmlns="http://www.w3.org/2000/svg" xmlns:xlink="http://www.w3.org/1999/xlink" x="0px" y="0px"
	 viewBox="-126 312 770.4 146" style="enable-background:new -126 312 770.4 146;" xml:space="preserve">
<style type="text/css">
	.st0{fill:#007CA8;stroke:#F5F5F5;stroke-width:4;stroke-miterlimit:10;}
	.st1{font-family:'CrimsonText-Roman';}
	.st2{font-size:28px;}
	.st3{font-family:'Poppins-Regular';}
	.st4{font-size:24px;}
	.st5{display:none;}
	.st6{display:inline;}
	.st7{font-family:'MyriadPro-Regular';}
	.st8{font-size:12px;}
	.st9{fill:#5B5B5B;stroke:#F5F5F5;stroke-width:4;stroke-miterlimit:10;}
	.st10{opacity:0.5;}
</style>
<g>
	<g>
		<rect x="-126" y="362.2" class="st0" width="48.1" height="45.6"/>
	</g>
</g>
<text transform="matrix(1 0 0 1 -125.9998 347.9636)" class="st1 st2">Total</text>
<text transform="matrix(1 0 0 1 283.0002 347.9636)" class="st1 st2">Providers</text>
<text transform="matrix(1 0 0 1 -125.9998 439.9998)" class="st3 st4">0:27</text>
<text transform="matrix(1 0 0 1 486.5411 439.9994)" class="st3 st4">WP</text>
<g>
	<text transform="matrix(1 0 0 1 590.458 439.9998)" class="st3 st4">TIME</text>
</g>
<g id="Livello_2" class="st5">
	<text transform="matrix(1 0 0 1 573.4706 350.3943)" class="st6 st7 st8">work</text>
	<text transform="matrix(1 0 0 1 535.5532 350.3943)" class="st6 st7 st8">Trump</text>
	<text transform="matrix(1 0 0 1 463.4968 350.3943)" class="st6 st7 st8">renewable</text>
	<text transform="matrix(1 0 0 1 616.1768 350.3938)" class="st6 st7 st8">protest</text>
	<text transform="matrix(1 0 0 1 272.3204 350.394)" class="st6 st7 st8">politics</text>
	<text transform="matrix(1 0 0 1 204.1866 350.394)" class="st6 st7 st8">meeting</text>
	<text transform="matrix(1 0 0 1 88.8833 350.394)" class="st6 st7 st8">graphics</text>
	<text transform="matrix(1 0 0 1 -125.9997 350.394)" class="st6 st7 st8">anchors</text>
	<text transform="matrix(1 0 0 1 253.1031 325.3865)" class="st6 st7 st8">nature</text>
	<text transform="matrix(1 0 0 1 176.2343 325.3865)" class="st6 st7 st8">industries</text>
</g>
<g>
	<g>
		<rect x="283" y="364" class="st9" width="240.9" height="41.9"/>
	</g>
</g>
<g class="st10">
	<g>
		<rect x="523.9" y="364" class="st9" width="120.5" height="41.9"/>
	</g>
</g>
</svg>
