<?xml version="1.0" encoding="utf-8"?>
<!-- Generator: Adobe Illustrator 19.1.0, SVG Export Plug-In . SVG Version: 6.00 Build 0)  -->
<svg version="1.1" id="Livello_1" xmlns="http://www.w3.org/2000/svg" xmlns:xlink="http://www.w3.org/1999/xlink" x="0px" y="0px"
	 viewBox="0 0 770.4 146" style="enable-background:new 0 0 770.4 146;" xml:space="preserve">
<style type="text/css">
	.st0{fill:#D5D5D5;stroke:#F5F5F5;stroke-width:2;stroke-miterlimit:10;}
	.st1{fill:#007CA8;stroke:#F5F5F5;stroke-width:4;stroke-miterlimit:10;}
	.st2{font-family:'CrimsonText-Roman';}
	.st3{font-size:28px;}
	.st4{font-family:'Poppins-Regular';}
	.st5{font-size:24px;}
	.st6{display:none;}
	.st7{display:inline;}
	.st8{font-family:'MyriadPro-Regular';}
	.st9{font-size:12px;}
	.st10{opacity:0.8;}
	.st11{opacity:0.4;}
	.st12{fill:#5B5B5B;stroke:#F5F5F5;stroke-width:4;stroke-miterlimit:10;}
	.st13{opacity:0.5;}
	.st14{enable-background:new    ;}
</style>
<g>
	<g>
		<rect x="0" y="50.2" class="st1" width="19.6" height="45.6"/>
	</g>
</g>
<text transform="matrix(1 0 0 1 2.136230e-04 35.9636)" class="st2 st3">Total</text>
<text transform="matrix(1 0 0 1 409.0002 35.9636)" class="st2 st3">Providers</text>
<text transform="matrix(1 0 0 1 2.136230e-04 127.9998)" class="st4 st5">0:11</text>
<text transform="matrix(1 0 0 1 525.8513 127.9994)" class="st4 st5">CBS</text>
<g>
	<text transform="matrix(1 0 0 1 716.458 127.9998)" class="st4 st5">TIME</text>
</g>
<g id="Livello_2" class="st6">
	<text transform="matrix(1 0 0 1 699.4706 38.3943)" class="st7 st8 st9">work</text>
	<text transform="matrix(1 0 0 1 661.5532 38.3943)" class="st7 st8 st9">Trump</text>
	<text transform="matrix(1 0 0 1 589.4968 38.3943)" class="st7 st8 st9">renewable</text>
	<text transform="matrix(1 0 0 1 742.1768 38.3938)" class="st7 st8 st9">protest</text>
	<text transform="matrix(1 0 0 1 398.3204 38.394)" class="st7 st8 st9">politics</text>
	<text transform="matrix(1 0 0 1 330.1866 38.394)" class="st7 st8 st9">meeting</text>
	<text transform="matrix(1 0 0 1 214.8833 38.394)" class="st7 st8 st9">graphics</text>
	<text transform="matrix(1 0 0 1 3.356934e-04 38.394)" class="st7 st8 st9">anchors</text>
	<text transform="matrix(1 0 0 1 379.1031 13.3865)" class="st7 st8 st9">nature</text>
	<text transform="matrix(1 0 0 1 302.2343 13.3865)" class="st7 st8 st9">industries</text>
</g>
<g>
	<g>
		<rect x="409" y="52" class="st12" width="164.3" height="41.9"/>
	</g>
</g>
<g class="st13">
	<g>
		<rect x="573.3" y="52" class="st12" width="197.1" height="41.9"/>
	</g>
</g>
</svg>
