<?xml version="1.0" encoding="utf-8"?>
<!-- Generator: Adobe Illustrator 19.2.1, SVG Export Plug-In . SVG Version: 6.00 Build 0)  -->
<svg version="1.1" id="Livello_1" xmlns="http://www.w3.org/2000/svg" xmlns:xlink="http://www.w3.org/1999/xlink" x="0px" y="0px"
	 viewBox="0 0 1366 586.8" style="enable-background:new 0 0 1366 586.8;" xml:space="preserve">
<style type="text/css">
	.st0{fill:none;stroke:#000000;stroke-width:0.4;stroke-miterlimit:10;stroke-dasharray:4;}
	.st1{fill:none;stroke:#141414;stroke-width:0.4;stroke-miterlimit:10;}
	.st2{fill:#C6006B;}
	.st3{font-family:'Lekton-Bold';}
	.st4{font-size:14.4477px;}
	.st5{fill:#141414;}
	.st6{font-family:'Lekton-Regular';}
	.st7{fill:#FFFFFF;}
</style>
<line class="st0" x1="527.5" y1="163.8" x2="527.5" y2="241.2"/>
<line class="st0" x1="452.1" y1="147.2" x2="363.4" y2="147.2"/>
<line class="st0" x1="673.4" y1="147.2" x2="603.1" y2="147.2"/>
<polygon class="st1" points="364.3,89.6 222.2,89.6 80.3,89.6 80.3,41.5 364.3,41.5 "/>
<g>
	<text transform="matrix(1 0 0 1 95.8433 62.0205)" class="st2 st3 st4">What do we talk about when we talk </text>
</g>
<g>
	<text transform="matrix(1 0 0 1 131.9951 79.3159)" class="st2 st3 st4">about drugs legalization?</text>
</g>
<polygon class="st1" points="364.3,173.9 222.2,173.9 80.3,173.9 80.3,123.6 364.3,123.6 "/>
<text transform="matrix(1 0 0 1 92.2314 144.1338)" class="st5 st6 st4">Is there a drug on which the debate </text>
<text transform="matrix(1 0 0 1 153.6011 161.4287)" class="st5 st6 st4">is more focused on?</text>
<polygon class="st1" points="957.3,173.9 815.4,173.9 673.4,173.9 673.4,123.6 957.3,123.6 "/>
<text transform="matrix(1 0 0 1 696.1514 144.1338)" class="st5 st6 st4">Can music influence the perception</text>
<text transform="matrix(1 0 0 1 768.3438 161.4287)" class="st5 st6 st4">of marijuana?</text>
<polygon class="st2" points="603.1,163.8 527.5,163.8 452.1,163.8 452.1,130.4 603.1,130.4 "/>
<g>
	<text transform="matrix(1 0 0 1 498.6646 151.084)" class="st7 st3 st4">Marijuana</text>
</g>
<polygon class="st2" points="1225.9,163.8 1150.3,163.8 1074.9,163.8 1074.9,130.4 1225.9,130.4 "/>
<g>
	<text transform="matrix(1 0 0 1 1088.9974 151.084)" class="st7 st3 st4">Videos on YouTube</text>
</g>
<polygon class="st2" points="1225.9,426.4 1150.3,426.4 1074.9,426.4 1074.9,393 1225.9,393 "/>
<g>
	<text transform="matrix(1 0 0 1 1099.8335 413.684)" class="st7 st3 st4">Marijuana beat</text>
</g>
<line class="st0" x1="452.1" y1="207.5" x2="363.4" y2="207.5"/>
<polygon class="st2" points="603.1,224.3 527.5,224.3 452.1,224.3 452.1,190.9 603.1,190.9 "/>
<g>
	<text transform="matrix(1 0 0 1 484.2168 211.54)" class="st7 st3 st4">United States</text>
</g>
<line class="st0" x1="222.2" y1="89.6" x2="222.2" y2="123.6"/>
<line class="st0" x1="1074.9" y1="216.1" x2="957.3" y2="216.1"/>
<line class="st0" x1="414.7" y1="258.2" x2="397.7" y2="258.2"/>
<line class="st0" x1="381.2" y1="258.2" x2="364.3" y2="258.2"/>
<polygon class="st1" points="364.3,274.6 222.2,274.6 80.3,274.6 80.3,241.2 364.3,241.2 "/>
<text transform="matrix(1 0 0 1 92.2314 261.8027)" class="st5 st6 st4">What are the arguments pro and cons?</text>
<polygon class="st1" points="640.4,274.6 527.5,274.6 414.7,274.6 414.7,241.2 640.4,241.2 "/>
<text transform="matrix(1 0 0 1 437.2715 261.8027)" class="st5 st6 st4">What are the main topics?</text>
<polygon class="st1" points="640.4,324.9 527.5,324.9 414.7,324.9 414.7,291.6 640.4,291.6 "/>
<text transform="matrix(1 0 0 1 451.7192 312.1436)" class="st5 st6 st4">Who talks about them?</text>
<text transform="matrix(1 0 0 1 385.4312 261.8027)" class="st5 st6 st4">X</text>
<line class="st0" x1="1008.4" y1="283.7" x2="991.5" y2="283.7"/>
<line class="st0" x1="975" y1="283.7" x2="958" y2="283.7"/>
<text transform="matrix(1 0 0 1 979.167 287.2822)" class="st5 st6 st4">X</text>
<line class="st0" x1="222.2" y1="173.9" x2="222.2" y2="190.9"/>
<line class="st0" x1="222.2" y1="224.3" x2="222.2" y2="241.2"/>
<line class="st0" x1="527.5" y1="274.6" x2="527.5" y2="291.6"/>
<polygon class="st2" points="603.1,392.4 527.5,392.4 452.1,392.4 452.1,342.1 603.1,342.1 "/>
<g>
	<g>
		<text transform="matrix(1 0 0 1 477.0331 362.5657)" class="st7 st3 st4">New geography </text>
		<text transform="matrix(1 0 0 1 480.6035 379.8607)" class="st7 st3 st4">of the U.S.A.</text>
	</g>
</g>
<line class="st0" x1="527.5" y1="325.1" x2="527.5" y2="342.1"/>
<polygon class="st2" points="603.1,526.6 527.5,526.6 452.1,526.6 452.1,476.3 603.1,476.3 "/>
<g>
	<g>
		<text transform="matrix(1 0 0 1 482.4718 496.8333)" class="st7 st3 st4">Perspectives</text>
		<text transform="matrix(1 0 0 1 486.0422 514.1284)" class="st7 st3 st4">on marijuana</text>
	</g>
</g>
<line class="st0" x1="527.5" y1="459.3" x2="527.5" y2="476.3"/>
<line class="st0" x1="1150.3" y1="375.6" x2="1150.3" y2="392.6"/>
<polygon class="st1" points="640.4,459.7 527.5,459.7 414.7,459.7 414.7,409.3 640.4,409.3 "/>
<text transform="matrix(1 0 0 1 458.9424 429.9025)" class="st5 st6 st4">Is there a pattern </text>
<text transform="matrix(1 0 0 1 477.0186 447.1975)" class="st5 st6 st4">in the debate?</text>
<line class="st0" x1="527.5" y1="392.4" x2="527.5" y2="409.3"/>
<polygon class="st1" points="364.3,224.3 222.2,224.3 80.3,224.3 80.3,190.9 364.3,190.9 "/>
<text transform="matrix(1 0 0 1 117.5156 211.4614)" class="st5 st6 st4">Where is the debate more hot?</text>
<line class="st0" x1="815.4" y1="173.9" x2="815.4" y2="190.9"/>
<line class="st0" x1="815.4" y1="241.2" x2="815.4" y2="258.2"/>
<polygon class="st1" points="957.3,241.2 815.4,241.2 673.4,241.2 673.4,190.9 957.3,190.9 "/>
<text transform="matrix(1 0 0 1 717.8232 211.4614)" class="st5 st6 st4">Which songs are associated </text>
<text transform="matrix(1 0 0 1 768.3701 228.7563)" class="st5 st6 st4">to marijuana?</text>
<polygon class="st2" points="1225.9,241.2 1150.4,241.2 1074.9,241.2 1074.9,190.9 1225.9,190.9 "/>
<g>
	<g>
		<text transform="matrix(1 0 0 1 1117.9033 211.4614)" class="st7 st3 st4">Playlists</text>
		<text transform="matrix(1 0 0 1 1103.5088 228.7563)" class="st7 st3 st4">made by users</text>
	</g>
</g>
<line class="st0" x1="1074.9" y1="147.2" x2="957.3" y2="147.2"/>
<polygon class="st1" points="957.3,308.6 815.4,308.6 673.4,308.6 673.4,258.2 957.3,258.2 "/>
<text transform="matrix(1 0 0 1 732.2715 278.7891)" class="st5 st6 st4">Which is the imaginary </text>
<text transform="matrix(1 0 0 1 753.918 296.084)" class="st5 st6 st4">around marijuana?</text>
<line class="st0" x1="1150.4" y1="308.6" x2="1150.4" y2="325.6"/>
<line class="st0" x1="1150.4" y1="241.2" x2="1150.4" y2="258.2"/>
<polygon class="st1" points="1292.4,375.9 1150.4,375.9 1008.4,375.9 1008.4,325.6 1292.4,325.6 "/>
<text transform="matrix(1 0 0 1 1078.1719 346.1172)" class="st5 st6 st4">Which are the genres</text>
<text transform="matrix(1 0 0 1 1045.7021 363.4121)" class="st5 st6 st4">most associated to marijuana?</text>
<polygon class="st1" points="1292.4,308.6 1150.4,308.6 1008.4,308.6 1008.4,258.2 1292.4,258.2 "/>
<text transform="matrix(1 0 0 1 1020.3818 278.7891)" class="st5 st6 st4">Do the songs associated to marijuana</text>
<text transform="matrix(1 0 0 1 1067.3564 296.084)" class="st5 st6 st4">actually talk about it?</text>
</svg>
