<?xml version="1.0" encoding="utf-8"?>
<!-- Generator: Adobe Illustrator 21.0.0, SVG Export Plug-In . SVG Version: 6.00 Build 0)  -->
<svg version="1.1" id="Livello_1" xmlns="http://www.w3.org/2000/svg" xmlns:xlink="http://www.w3.org/1999/xlink" x="0px" y="0px"
	 width="465.3px" height="194.9px" viewBox="0 0 465.3 194.9" style="enable-background:new 0 0 465.3 194.9;" xml:space="preserve"
	>
<style type="text/css">
	.st0{enable-background:new    ;}
	.st1{font-family:'Poppins-Regular';}
	.st2{font-size:10px;}
	.st3{fill:#FF4A60;}
	.st4{font-size:5.5622px;}
	.st5{fill:#1357CA;}
	.st6{fill:#345BBE;}
	.st7{fill:#5D58AF;}
	.st8{fill:#8053A1;}
	.st9{fill:#49B7D9;}
	.st10{fill:#73B3D6;}
	.st11{fill:#94B0D3;}
	.st12{fill:#B3AACE;}
	.st13{fill:#3DA6D8;}
	.st14{fill:#4CBDDD;}
	.st15{fill:#45A1D2;}
	.st16{fill:#6B9DCC;}
	.st17{fill:#8D98C6;}
	.st18{fill:#AE93BF;}
	.st19{fill:#2D8ED4;}
	.st20{fill:#408BCC;}
	.st21{fill:#6586C3;}
	.st22{fill:#8B85BB;}
	.st23{fill:#AC7AAF;}
	.st24{fill:#1775CF;}
	.st25{fill:#3973C5;}
	.st26{fill:#626FB9;}
	.st27{fill:#866AAD;}
	.st28{fill:#A964A0;}
	.st29{fill:#A64C93;}
	.st30{fill:#CC4481;}
	.st31{fill:#ED4B72;}
	.st32{fill:#ED495E;}
	.st33{fill:#D1A5CA;}
	.st34{fill:#EF9DC4;}
	.st35{fill:#F195BE;}
	.st36{fill:#FF96BF;}
	.st37{fill:#CE8CB7;}
	.st38{fill:#EF85B0;}
	.st39{fill:#EF79A5;}
	.st40{fill:#FF79A5;}
	.st41{fill:#66EAEA;}
	.st42{fill:#84E7EC;}
	.st43{fill:#A4E3F0;}
	.st44{fill:#BFDFF2;}
	.st45{fill:#5AD4E0;}
	.st46{fill:#6CF3E6;}
	.st47{fill:#57CFE0;}
	.st48{fill:#77CADF;}
	.st49{fill:#99C5DF;}
	.st50{fill:#B6C0DD;}
	.st51{fill:#DADAF6;}
	.st52{fill:#F4D7F9;}
	.st53{fill:#F7D1FC;}
	.st54{fill:#FFD1FC;}
	.st55{fill:#D5BADB;}
	.st56{fill:#F0B6DB;}
	.st57{fill:#F3AED7;}
	.st58{fill:#FFB1DB;}
	.st59{fill:#CC75A6;}
	.st60{fill:#EE6C9B;}
	.st61{fill:#ED5D8D;}
	.st62{fill:#FF5D8D;}
	.st63{fill:#CC5C94;}
	.st64{fill:#ED5285;}
	.st65{fill:#ED4C74;}
	.st66{fill:#FF4B74;}
	.st67{fill:#FF495D;}
	.st68{fill:none;stroke:#333333;stroke-miterlimit:10;}
	.st69{opacity:0.6;fill:none;stroke:#303030;stroke-width:0.3;stroke-miterlimit:10;enable-background:new    ;}
	.st70{fill:none;stroke:#303030;stroke-width:1.4;stroke-miterlimit:10;}
</style>
<g>
	<g id="_x31__1_">
		<g class="st0">
			<path d="M45.6,130.5h0.9v6.2h2.4v0.7h-3.3V130.5z"/>
			<path d="M52.2,137.5c-0.8,0-1.4-0.3-1.9-0.8c-0.5-0.5-0.7-1.2-0.7-2.1s0.2-1.5,0.8-2.1s1.1-0.8,1.9-0.8c0.8,0,1.4,0.2,1.9,0.7
				c0.5,0.5,0.7,1.1,0.7,1.9c0,0.2,0,0.4,0,0.5h-4.4c0,0.5,0.2,1,0.5,1.3c0.3,0.3,0.7,0.5,1.2,0.5c0.4,0,0.7-0.1,0.9-0.2
				c0.3-0.2,0.4-0.4,0.6-0.7h1c-0.2,0.5-0.5,0.9-0.9,1.2S52.8,137.5,52.2,137.5z M53.4,133c-0.3-0.3-0.7-0.5-1.2-0.5
				s-0.9,0.2-1.2,0.5c-0.3,0.3-0.5,0.7-0.5,1.3h3.4C53.9,133.8,53.7,133.4,53.4,133z"/>
			<path d="M55.8,133.5c0-0.5,0.2-0.8,0.6-1.2c0.4-0.3,0.9-0.5,1.5-0.5c0.6,0,1.1,0.2,1.4,0.5c0.3,0.3,0.5,0.7,0.6,1.3h-0.9
				c0-0.3-0.1-0.6-0.3-0.7s-0.5-0.3-0.8-0.3s-0.6,0.1-0.8,0.2c-0.2,0.2-0.3,0.4-0.3,0.6c0,0.3,0.1,0.5,0.3,0.6
				c0.2,0.1,0.5,0.2,0.8,0.3c0.3,0.1,0.6,0.1,1,0.2c0.3,0.1,0.6,0.2,0.8,0.5c0.2,0.2,0.3,0.6,0.3,1c0,0.4-0.2,0.8-0.6,1.1
				s-0.9,0.4-1.5,0.4s-1.1-0.2-1.5-0.5c-0.4-0.3-0.6-0.7-0.6-1.3h0.9c0,0.3,0.1,0.6,0.3,0.7c0.2,0.2,0.5,0.3,0.8,0.3
				c0.4,0,0.6-0.1,0.8-0.2c0.2-0.2,0.3-0.3,0.3-0.6c0-0.2-0.1-0.4-0.2-0.6c-0.2-0.1-0.4-0.2-0.6-0.3c-0.2-0.1-0.5-0.1-0.8-0.2
				c-0.3-0.1-0.5-0.2-0.8-0.2c-0.2-0.1-0.4-0.2-0.6-0.4C55.9,134,55.8,133.8,55.8,133.5z"/>
			<path d="M61.1,133.5c0-0.5,0.2-0.8,0.6-1.2c0.4-0.3,0.9-0.5,1.5-0.5c0.6,0,1.1,0.2,1.4,0.5c0.3,0.3,0.5,0.7,0.6,1.3h-0.9
				c0-0.3-0.1-0.6-0.3-0.7s-0.5-0.3-0.8-0.3s-0.6,0.1-0.8,0.2c-0.2,0.2-0.3,0.4-0.3,0.6c0,0.3,0.1,0.5,0.3,0.6
				c0.2,0.1,0.5,0.2,0.8,0.3c0.3,0.1,0.6,0.1,1,0.2c0.3,0.1,0.6,0.2,0.8,0.5c0.2,0.2,0.3,0.6,0.3,1c0,0.4-0.2,0.8-0.6,1.1
				s-0.9,0.4-1.5,0.4s-1.1-0.2-1.5-0.5c-0.4-0.3-0.6-0.7-0.6-1.3H62c0,0.3,0.1,0.6,0.3,0.7c0.2,0.2,0.5,0.3,0.8,0.3
				c0.4,0,0.6-0.1,0.8-0.2c0.2-0.2,0.3-0.3,0.3-0.6c0-0.2-0.1-0.4-0.2-0.6c-0.2-0.1-0.4-0.2-0.6-0.3c-0.2-0.1-0.5-0.1-0.8-0.2
				c-0.3-0.1-0.5-0.2-0.8-0.2c-0.2-0.1-0.4-0.2-0.6-0.4C61.1,134,61.1,133.8,61.1,133.5z"/>
			<path d="M68.9,131.9h1l1.7,4.6l1.7-4.6h1l-2.1,5.5h-1L68.9,131.9z"/>
			<path d="M78.9,131.9h0.9v5.5h-0.9v-0.9c-0.4,0.6-1,1-1.8,1c-0.6,0-1.1-0.2-1.5-0.6s-0.6-1-0.6-1.7v-3.3h0.9v3.1
				c0,0.5,0.1,1,0.4,1.3s0.6,0.4,1.1,0.4s0.8-0.1,1.1-0.4s0.4-0.7,0.4-1.3V131.9z"/>
			<path d="M81.4,137.4V130h0.9v7.4H81.4z"/>
			<path d="M84.7,131.9v0.9c0.4-0.7,1-1,1.8-1c0.6,0,1.1,0.2,1.5,0.6c0.4,0.4,0.6,1,0.6,1.7v3.2h-0.9v-3.1c0-0.6-0.1-1-0.4-1.3
				c-0.3-0.3-0.6-0.4-1.1-0.4c-0.5,0-0.8,0.1-1.1,0.4c-0.3,0.3-0.4,0.7-0.4,1.3v3.1h-0.9v-5.5H84.7z"/>
			<path d="M92.3,137.5c-0.8,0-1.4-0.3-1.9-0.8c-0.5-0.5-0.7-1.2-0.7-2.1s0.2-1.5,0.8-2.1s1.1-0.8,1.9-0.8c0.8,0,1.4,0.2,1.9,0.7
				c0.5,0.5,0.7,1.1,0.7,1.9c0,0.2,0,0.4,0,0.5h-4.4c0,0.5,0.2,1,0.5,1.3c0.3,0.3,0.7,0.5,1.2,0.5c0.4,0,0.7-0.1,0.9-0.2
				c0.3-0.2,0.4-0.4,0.6-0.7h1c-0.2,0.5-0.5,0.9-0.9,1.2S93,137.5,92.3,137.5z M93.6,133c-0.3-0.3-0.7-0.5-1.2-0.5s-0.9,0.2-1.2,0.5
				c-0.3,0.3-0.5,0.7-0.5,1.3h3.4C94.1,133.8,93.9,133.4,93.6,133z"/>
			<path d="M97.1,131.9v0.9c0.3-0.7,0.9-1,1.7-1v1h-0.2c-0.5,0-0.8,0.1-1.1,0.4s-0.4,0.7-0.4,1.3v3h-0.9v-5.5H97.1z"/>
			<path d="M100.2,136.7c-0.5-0.5-0.8-1.2-0.8-2.1c0-0.8,0.2-1.5,0.7-2s1.1-0.8,1.9-0.8c0.5,0,0.9,0.1,1.2,0.3s0.6,0.5,0.8,0.9v-1.1
				h0.9v5.5h-0.9v-1.1c-0.2,0.4-0.4,0.7-0.8,0.9s-0.8,0.3-1.2,0.3C101.3,137.5,100.7,137.2,100.2,136.7z M103.6,136.2
				c0.4-0.4,0.5-0.9,0.5-1.5s-0.2-1.1-0.5-1.5c-0.4-0.4-0.8-0.6-1.3-0.6c-0.5,0-0.9,0.2-1.3,0.5c-0.4,0.4-0.5,0.8-0.5,1.5
				s0.2,1.1,0.6,1.5c0.4,0.4,0.8,0.6,1.3,0.6C102.8,136.7,103.2,136.5,103.6,136.2z"/>
			<path d="M109.5,131.8c0.8,0,1.4,0.3,1.9,0.8s0.7,1.2,0.7,2c0,0.8-0.2,1.5-0.8,2.1c-0.5,0.5-1.1,0.8-1.9,0.8
				c-0.5,0-0.9-0.1-1.2-0.3c-0.3-0.2-0.6-0.5-0.8-0.9v1.1h-0.9V130h0.9v3c0.2-0.4,0.5-0.6,0.8-0.9
				C108.6,131.9,109,131.8,109.5,131.8z M109.3,136.7c0.5,0,0.9-0.2,1.3-0.6c0.4-0.4,0.5-0.9,0.5-1.5c0-0.6-0.2-1.1-0.5-1.5
				c-0.4-0.4-0.8-0.5-1.3-0.5c-0.5,0-0.9,0.2-1.3,0.6c-0.4,0.4-0.5,0.9-0.5,1.5c0,0.6,0.2,1.1,0.5,1.5S108.8,136.7,109.3,136.7z"/>
			<path d="M113.2,137.4V130h0.9v7.4H113.2z"/>
			<path d="M117.9,137.5c-0.8,0-1.4-0.3-1.9-0.8c-0.5-0.5-0.7-1.2-0.7-2.1s0.2-1.5,0.8-2.1s1.1-0.8,1.9-0.8c0.8,0,1.4,0.2,1.9,0.7
				c0.5,0.5,0.7,1.1,0.7,1.9c0,0.2,0,0.4,0,0.5h-4.4c0,0.5,0.2,1,0.5,1.3c0.3,0.3,0.7,0.5,1.2,0.5c0.4,0,0.7-0.1,0.9-0.2
				c0.3-0.2,0.4-0.4,0.6-0.7h1c-0.2,0.5-0.5,0.9-0.9,1.2S118.6,137.5,117.9,137.5z M119.2,133c-0.3-0.3-0.7-0.5-1.2-0.5
				s-0.9,0.2-1.2,0.5c-0.3,0.3-0.5,0.7-0.5,1.3h3.4C119.7,133.8,119.5,133.4,119.2,133z"/>
		</g>
		<g class="st0">
			<path d="M15.8,91.4h6.9v0.9h-5l5,2.3v0.6l-5,2.3h5v0.9h-6.9v-0.9l5.7-2.6l-5.7-2.6V91.4z"/>
			<path d="M22.1,89.5c-0.5,0.5-1.2,0.8-2,0.8S18.5,90,18,89.5c-0.5-0.5-0.8-1.2-0.8-2c0-0.8,0.3-1.5,0.8-2c0.5-0.5,1.2-0.8,2-0.8
				c0.8,0,1.5,0.3,2,0.8s0.8,1.2,0.8,2S22.6,89,22.1,89.5z M22.1,87.6c0-0.5-0.2-1-0.6-1.3c-0.4-0.4-0.9-0.6-1.5-0.6
				s-1.2,0.2-1.5,0.5c-0.4,0.4-0.5,0.8-0.5,1.3s0.2,0.9,0.5,1.3c0.4,0.3,0.9,0.5,1.5,0.5c0.7,0,1.2-0.2,1.5-0.5S22.1,88.1,22.1,87.6
				z"/>
			<path d="M17.3,82.7h0.9c-0.7-0.3-1-0.9-1-1.7h1v0.2c0,0.5,0.1,0.8,0.4,1.1s0.7,0.4,1.3,0.4h3v0.9h-5.5V82.7z"/>
			<path d="M22.9,77.6c0,0.8-0.3,1.4-0.8,1.9c-0.5,0.5-1.2,0.7-2.1,0.7s-1.5-0.2-2.1-0.8s-0.8-1.1-0.8-1.9c0-0.8,0.2-1.4,0.7-1.9
				c0.5-0.5,1.1-0.7,1.9-0.7c0.2,0,0.4,0,0.5,0v4.4c0.5,0,1-0.2,1.3-0.5c0.3-0.3,0.5-0.7,0.5-1.2c0-0.4-0.1-0.7-0.2-0.9
				c-0.2-0.3-0.4-0.4-0.7-0.6v-1c0.5,0.2,0.9,0.5,1.2,0.9S22.9,77,22.9,77.6z M18.4,76.4c-0.3,0.3-0.5,0.7-0.5,1.2s0.2,0.9,0.5,1.2
				c0.3,0.3,0.7,0.5,1.3,0.5v-3.4C19.1,75.9,18.7,76.1,18.4,76.4z"/>
			<path d="M17.3,69.9h0.9c-0.7-0.3-1-0.9-1-1.7h1v0.2c0,0.5,0.1,0.8,0.4,1.1s0.7,0.4,1.3,0.4h3v0.9h-5.5V69.9z"/>
			<path d="M22.9,64.9c0,0.8-0.3,1.4-0.8,1.9c-0.5,0.5-1.2,0.7-2.1,0.7s-1.5-0.2-2.1-0.8s-0.8-1.1-0.8-1.9c0-0.8,0.2-1.4,0.7-1.9
				c0.5-0.5,1.1-0.7,1.9-0.7c0.2,0,0.4,0,0.5,0v4.4c0.5,0,1-0.2,1.3-0.5c0.3-0.3,0.5-0.7,0.5-1.2c0-0.4-0.1-0.7-0.2-0.9
				c-0.2-0.3-0.4-0.4-0.7-0.6v-1c0.5,0.2,0.9,0.5,1.2,0.9S22.9,64.2,22.9,64.9z M18.4,63.6c-0.3,0.3-0.5,0.7-0.5,1.2
				s0.2,0.9,0.5,1.2c0.3,0.3,0.7,0.5,1.3,0.5v-3.4C19.1,63.1,18.7,63.3,18.4,63.6z"/>
			<path d="M22,60.7c-0.5,0.5-1.2,0.8-2.1,0.8c-0.8,0-1.5-0.2-2-0.7s-0.8-1.1-0.8-1.9c0-0.5,0.1-0.9,0.3-1.2s0.5-0.6,0.9-0.8h-1.1
				v-0.9h5.5v0.9h-1.1c0.4,0.2,0.7,0.4,0.9,0.8s0.3,0.8,0.3,1.2C22.9,59.5,22.6,60.2,22,60.7z M21.5,57.3c-0.4-0.4-0.9-0.5-1.5-0.5
				s-1.1,0.2-1.5,0.5c-0.4,0.4-0.6,0.8-0.6,1.3c0,0.5,0.2,0.9,0.5,1.3c0.4,0.4,0.8,0.5,1.5,0.5s1.1-0.2,1.5-0.6
				c0.4-0.4,0.6-0.8,0.6-1.3C22.1,58.1,21.9,57.7,21.5,57.3z"/>
			<path d="M22,54c-0.5,0.5-1.2,0.8-2.1,0.8c-0.8,0-1.5-0.2-2-0.7s-0.8-1.1-0.8-1.9c0-0.5,0.1-0.9,0.3-1.2s0.5-0.6,0.9-0.8h-3v-0.9
				h7.4v0.9h-1.1c0.4,0.2,0.7,0.4,0.9,0.8s0.3,0.8,0.3,1.2C22.9,52.8,22.6,53.5,22,54z M21.5,50.6c-0.4-0.4-0.9-0.5-1.5-0.5
				s-1.1,0.2-1.5,0.5C18.2,51,18,51.4,18,51.9c0,0.5,0.2,0.9,0.5,1.3c0.4,0.4,0.8,0.5,1.5,0.5s1.1-0.2,1.5-0.6
				c0.4-0.4,0.6-0.8,0.6-1.3C22.1,51.4,21.9,51,21.5,50.6z"/>
			<path d="M22.7,46.1l-5.4,2.2v-1l4.4-1.7l-4.4-1.7v-0.9l8.1,3.3v0.9L22.7,46.1z"/>
		</g>
		<g class="st0">
			<path d="M28.9,119.5c0.2-0.2,0.4-0.4,0.7-0.5c0.3-0.1,0.7-0.2,1.1-0.2s0.8,0.1,1.2,0.3c0.3,0.2,0.6,0.4,0.8,0.8
				c0.3,0.6,0.5,1.5,0.5,2.6c0,1.4-0.2,2.4-0.7,3c-0.4,0.5-1,0.7-1.8,0.7c-1.4,0-2.2-0.8-2.4-2.5c0-0.3-0.1-0.7-0.1-1.2
				s0-0.8,0.1-1.2c0-0.3,0.1-0.7,0.2-1C28.5,119.9,28.7,119.7,28.9,119.5z M32,120.5c-0.1-0.3-0.3-0.5-0.5-0.7
				c-0.2-0.1-0.5-0.2-0.8-0.2c-0.3,0-0.6,0.1-0.8,0.2c-0.2,0.1-0.4,0.2-0.5,0.4c-0.1,0.2-0.2,0.4-0.3,0.6c-0.1,0.3-0.1,0.5-0.1,0.8
				c0,0.2,0,0.5,0,0.9c0,0.3,0,0.6,0,0.9c0,0.2,0.1,0.5,0.1,0.8c0.1,0.3,0.2,0.5,0.3,0.6c0.1,0.2,0.3,0.3,0.5,0.4
				c0.2,0.1,0.4,0.2,0.7,0.2c0.3,0,0.5-0.1,0.7-0.2c0.2-0.1,0.4-0.2,0.5-0.4c0.1-0.2,0.2-0.4,0.3-0.7c0.1-0.4,0.2-0.9,0.2-1.5
				s0-1-0.1-1.2C32.2,121,32.1,120.8,32,120.5z"/>
		</g>
		<text transform="matrix(1 0 0 1 29.7901 49.325)" class="st1 st2">1</text>
		<g class="st0">
			<path class="st3" d="M40.2,11.2c0.3,0,0.5,0,0.8,0.1s0.6,0.2,0.9,0.3s0.5,0.3,0.7,0.6s0.3,0.6,0.3,0.9c0,0.5-0.2,1-0.5,1.4
				s-0.6,0.6-1,0.8c-0.1,0-0.1,0.1,0,0.1c0.2,0.3,0.3,0.5,0.4,0.7s0.3,0.4,0.4,0.6s0.3,0.4,0.4,0.6c0.2,0.3,0.5,0.6,0.8,0.8
				s0.6,0.4,0.9,0.4c0,0,0,0.1,0,0.2c0,0.1,0,0.2,0,0.2c-0.1,0-0.2,0-0.4,0c-0.4,0-0.7,0-1-0.1s-0.6-0.2-0.8-0.3s-0.4-0.2-0.6-0.4
				s-0.3-0.3-0.4-0.5s-0.2-0.3-0.4-0.6c-0.1-0.1-0.2-0.3-0.3-0.5s-0.2-0.3-0.3-0.5S40,16,40,15.9s-0.2-0.2-0.2-0.3s-0.1-0.1-0.1-0.1
				c0,0-0.1,0-0.1,0c-0.1,0-0.1,0.1-0.1,0.2v1.6c0,0.4,0,0.7,0.1,1c0,0.1,0.2,0.2,0.4,0.2s0.4,0.1,0.5,0.1c0,0,0,0.1,0,0.2
				c0,0.1,0,0.2,0,0.2c-0.9,0-1.5-0.1-1.8-0.1l-1.7,0.1c0,0,0-0.1,0-0.2c0-0.2,0-0.2,0-0.2c0.1,0,0.2,0,0.4-0.1s0.3-0.1,0.3-0.2
				c0-0.2,0.1-0.5,0.1-1v-4.4c0-0.4,0-0.7-0.1-0.9c0-0.1-0.1-0.1-0.3-0.2s-0.4-0.1-0.4-0.1c0,0,0-0.1,0-0.2c0-0.1,0-0.2,0-0.2
				c0.7,0,1.3,0.1,1.7,0.1c0.2,0,0.5,0,0.8,0S40,11.2,40.2,11.2z M40,11.8c-0.3,0-0.5,0-0.5,0.1s-0.1,0.4-0.1,1.1v1.3
				c0,0.1,0,0.2,0,0.3s0.1,0.1,0.1,0.2s0.1,0.1,0.2,0.1s0.1,0,0.2,0h0.3c0.3,0,0.5-0.1,0.7-0.4s0.3-0.6,0.3-1.1
				C41.1,12.3,40.8,11.8,40,11.8z"/>
			<path class="st3" d="M47.7,13.7c0.7,0,1.3,0.2,1.7,0.7s0.6,1,0.6,1.5c0,0.2,0,0.3-0.1,0.4s-0.2,0.1-0.4,0.1h-2.6
				c0,0-0.1,0-0.1,0.1c0,0.4,0.1,0.8,0.4,1.1s0.6,0.5,1,0.5c0.3,0,0.5,0,0.7-0.1s0.4-0.1,0.5-0.2s0.2-0.1,0.4-0.3
				c0.1,0,0.1,0.1,0.1,0.2c0,0.1,0,0.2,0,0.2c-0.1,0.2-0.3,0.4-0.7,0.7S48.2,19,47.8,19c-0.7,0-1.3-0.3-1.9-0.8s-0.8-1.2-0.8-1.9
				c0-0.8,0.2-1.4,0.7-1.9S46.9,13.7,47.7,13.7z M47.6,14.3c-0.3,0-0.5,0.1-0.7,0.4s-0.2,0.6-0.2,0.9c0,0,0,0.1,0.1,0.1h1.5
				c0.1,0,0.2-0.1,0.2-0.2c0-0.3-0.1-0.6-0.2-0.8S47.9,14.3,47.6,14.3z"/>
			<path class="st3" d="M53.2,13.6c0.5,0,1,0.2,1.3,0.5s0.4,0.8,0.4,1.6v1.9c0,0.3,0.1,0.4,0.3,0.4c0.1,0,0.3-0.1,0.4-0.2
				c0.1,0,0.1,0.1,0.1,0.2c0,0.2,0,0.3-0.1,0.4c-0.1,0.1-0.3,0.2-0.5,0.3S54.5,19,54.3,19c-0.2,0-0.4-0.1-0.5-0.2s-0.3-0.2-0.3-0.4
				c0,0,0,0-0.1,0.1s-0.1,0.1-0.2,0.1s-0.2,0.1-0.3,0.2s-0.2,0.1-0.4,0.1S52.1,19,52,19c-0.4,0-0.8-0.1-1-0.4s-0.4-0.5-0.4-0.9
				c0-0.2,0-0.4,0.1-0.6s0.2-0.3,0.3-0.4s0.3-0.2,0.5-0.3s0.4-0.2,0.6-0.2s0.4-0.1,0.6-0.2s0.4-0.1,0.5-0.1c0.1,0,0.1-0.1,0.1-0.2
				v-0.4c0-0.6-0.2-1-0.6-1c-0.5,0-0.7,0.3-0.7,0.8c0,0.2-0.1,0.3-0.2,0.4s-0.3,0.1-0.5,0.1c-0.4,0-0.6-0.1-0.7-0.4
				c0-0.4,0.3-0.8,0.8-1.1S52.6,13.6,53.2,13.6z M52.7,18.1c0.2,0,0.4,0,0.5-0.1s0.2-0.2,0.2-0.4v-1.2c0,0-0.1,0-0.2,0.1
				s-0.2,0.1-0.3,0.1s-0.1,0-0.2,0.1s-0.2,0.1-0.2,0.1s-0.1,0.1-0.2,0.1s-0.1,0.1-0.1,0.2s0,0.1,0,0.2c0,0.3,0.1,0.5,0.2,0.6
				S52.5,18.1,52.7,18.1z"/>
			<path class="st3" d="M58.9,13.7c0.3,0,0.6,0,0.8,0.1c0,0,0-0.1,0-0.2v-0.9c0-0.3,0-0.6-0.1-0.8c0-0.1-0.2-0.2-0.6-0.2H59
				c0,0-0.1-0.1-0.1-0.2c0-0.1,0-0.2,0.1-0.2c0.2,0,0.5-0.1,0.7-0.1s0.5-0.1,0.6-0.1s0.3-0.1,0.5-0.1s0.2-0.1,0.3-0.1l0.1,0h0
				c0,0,0.1,0,0.1,0.1s0.1,0.1,0.1,0.1c-0.1,0.4-0.1,0.7-0.1,1.2v5c0,0.3,0,0.6,0.1,0.8c0,0.1,0.1,0.1,0.1,0.1s0.1,0.1,0.2,0.1
				s0.2,0,0.2,0l0.1,0c0,0,0,0.1,0,0.1c0,0.2,0,0.3-0.1,0.3c-0.1,0-0.3,0-0.5,0s-0.4,0-0.6,0.1s-0.4,0.1-0.5,0.1s-0.3,0.1-0.4,0.1
				l-0.2,0c0,0-0.1-0.1-0.1-0.2v-0.2c0,0,0-0.1,0-0.1s0,0,0,0C59.4,18.8,59,19,58.6,19c-0.6,0-1.2-0.2-1.7-0.7s-0.7-1.1-0.7-1.8
				c0-0.8,0.3-1.4,0.8-2S58.1,13.7,58.9,13.7z M58.9,14.3c-0.4,0-0.6,0.1-0.8,0.4s-0.3,0.8-0.3,1.4c0,1.4,0.4,2.1,1.1,2.1
				c0.3,0,0.5-0.1,0.7-0.2s0.3-0.3,0.3-0.6v-2.1c0-0.1,0-0.2,0-0.3s-0.1-0.2-0.1-0.3s-0.2-0.2-0.3-0.3S59.1,14.3,58.9,14.3z"/>
			<path class="st3" d="M65.1,17.2c0,0.5,0,0.9,0.1,1.1c0,0.1,0.1,0.1,0.3,0.2s0.3,0.1,0.4,0.1c0,0,0,0.1,0,0.2s0,0.2,0,0.2
				c-0.1,0-0.3,0-0.7-0.1s-0.7,0-0.9,0c-0.2,0-0.5,0-0.9,0s-0.6,0-0.7,0.1c0,0,0-0.1,0-0.2s0-0.2,0-0.2c0.1,0,0.2,0,0.4-0.1
				s0.3-0.1,0.3-0.2c0.1-0.2,0.1-0.5,0.1-0.9v-1.6c0-0.4-0.1-0.7-0.2-0.9c-0.1-0.1-0.1-0.1-0.2-0.2s-0.2-0.1-0.3-0.1s-0.1,0-0.1,0
				c0-0.3,0-0.4,0.1-0.4c0.2,0,0.5-0.1,1-0.2s0.9-0.2,1.1-0.3c0,0,0.1,0,0.1,0c0,0,0.1,0,0.1,0.1s0.1,0.1,0.1,0.1c0,0.1,0,0.2,0,0.4
				s0,0.3-0.1,0.5s0,0.3,0,0.4V17.2z M63.7,12.3c-0.2-0.2-0.3-0.4-0.3-0.6s0.1-0.4,0.3-0.6s0.4-0.3,0.6-0.3s0.4,0.1,0.6,0.3
				s0.3,0.4,0.3,0.6s-0.1,0.4-0.3,0.6s-0.4,0.3-0.6,0.3S63.8,12.5,63.7,12.3z"/>
			<path class="st3" d="M70.8,13.7c0.5,0,0.8,0.2,1.1,0.6s0.4,1,0.4,1.7v1.2c0,0.5,0,0.9,0.1,1.1c0,0.1,0.1,0.1,0.3,0.2
				s0.3,0.1,0.4,0.1c0,0,0,0.1,0,0.2s0,0.2,0,0.2c-0.1,0-0.3,0-0.7-0.1s-0.7,0-0.9,0c-0.2,0-0.5,0-0.8,0s-0.6,0-0.7,0.1
				c0,0,0-0.1,0-0.2s0-0.2,0-0.2c0.1,0,0.2,0,0.4-0.1s0.3-0.1,0.3-0.2c0.1-0.2,0.1-0.5,0.1-0.9v-1.1c0-0.6-0.1-1-0.2-1.2
				s-0.4-0.4-0.8-0.4c-0.2,0-0.4,0-0.6,0.1S69,15,69,15.2v2c0,0.5,0,0.9,0.1,1.1c0,0.1,0.1,0.1,0.3,0.2s0.3,0.1,0.4,0.1
				c0,0,0,0.1,0,0.2s0,0.2,0,0.2c-0.1,0-0.3,0-0.7-0.1s-0.7,0-0.8,0c-0.2,0-0.5,0-0.9,0s-0.6,0-0.7,0.1c0,0,0-0.1,0-0.2s0-0.2,0-0.2
				c0.1,0,0.2,0,0.4-0.1s0.3-0.1,0.3-0.2c0.1-0.2,0.1-0.5,0.1-0.9v-1.6c0-0.4-0.1-0.7-0.2-0.9c-0.1-0.1-0.1-0.1-0.2-0.2
				s-0.2-0.1-0.3-0.1s-0.1,0-0.1,0c0-0.3,0-0.4,0.1-0.4c0.1,0,0.2,0,0.5-0.1s0.5-0.1,0.9-0.2s0.6-0.1,0.8-0.2c0,0,0,0,0.1,0
				s0,0,0.1,0l0,0c0,0,0.1,0,0.1,0.1s0.1,0.1,0.1,0.1c0,0.2,0,0.3,0,0.4c0,0,0,0.1,0,0.1c0,0,0,0,0.1-0.1
				C69.6,13.9,70.1,13.7,70.8,13.7z"/>
			<path class="st3" d="M76.4,13.7c0.7,0,1.3,0.2,1.7,0.7s0.6,1,0.6,1.5c0,0.2,0,0.3-0.1,0.4s-0.2,0.1-0.4,0.1h-2.6
				c0,0-0.1,0-0.1,0.1c0,0.4,0.1,0.8,0.4,1.1s0.6,0.5,1,0.5c0.3,0,0.5,0,0.7-0.1s0.4-0.1,0.5-0.2s0.2-0.1,0.4-0.3
				c0.1,0,0.1,0.1,0.1,0.2c0,0.1,0,0.2,0,0.2c-0.1,0.2-0.3,0.4-0.7,0.7S77,19,76.5,19c-0.7,0-1.3-0.3-1.9-0.8s-0.8-1.2-0.8-1.9
				c0-0.8,0.2-1.4,0.7-1.9S75.6,13.7,76.4,13.7z M76.3,14.3c-0.3,0-0.5,0.1-0.7,0.4s-0.2,0.6-0.2,0.9c0,0,0,0.1,0.1,0.1H77
				c0.1,0,0.2-0.1,0.2-0.2c0-0.3-0.1-0.6-0.2-0.8S76.6,14.3,76.3,14.3z"/>
			<path class="st3" d="M81.3,13.6c0.7,0,1.2,0.1,1.5,0.2c0.1,0.4,0.1,0.8,0.1,1.5c0,0.1-0.1,0.1-0.2,0.1c-0.2,0-0.4,0-0.4-0.1
				c-0.1-0.3-0.2-0.6-0.4-0.8s-0.4-0.3-0.8-0.3c-0.2,0-0.3,0-0.4,0.1s-0.2,0.2-0.2,0.4c0,0.2,0.1,0.3,0.2,0.5s0.4,0.3,0.7,0.4
				c0.2,0.1,0.4,0.2,0.5,0.3s0.3,0.2,0.5,0.3s0.3,0.3,0.4,0.5s0.1,0.4,0.1,0.7c0,0.5-0.2,0.9-0.6,1.2S81.6,19,81,19
				c-0.3,0-0.6,0-0.9-0.1s-0.6-0.2-0.7-0.3c-0.1-0.5-0.1-1-0.1-1.4c0,0,0.1,0,0.2,0c0.2,0,0.4,0,0.4,0.1c0.1,0.8,0.6,1.2,1.3,1.2
				c0.2,0,0.3,0,0.5-0.1s0.2-0.2,0.2-0.4c0-0.2-0.1-0.4-0.3-0.5s-0.5-0.3-0.9-0.5c-0.5-0.2-0.8-0.5-1-0.7s-0.3-0.6-0.3-1
				c0-0.5,0.2-0.9,0.6-1.2S80.7,13.6,81.3,13.6z"/>
			<path class="st3" d="M85.8,13.6c0.7,0,1.2,0.1,1.5,0.2c0.1,0.4,0.1,0.8,0.1,1.5c0,0.1-0.1,0.1-0.2,0.1c-0.2,0-0.4,0-0.4-0.1
				c-0.1-0.3-0.2-0.6-0.4-0.8s-0.4-0.3-0.8-0.3c-0.2,0-0.3,0-0.4,0.1s-0.2,0.2-0.2,0.4c0,0.2,0.1,0.3,0.2,0.5s0.4,0.3,0.7,0.4
				c0.2,0.1,0.4,0.2,0.5,0.3s0.3,0.2,0.5,0.3s0.3,0.3,0.4,0.5s0.1,0.4,0.1,0.7c0,0.5-0.2,0.9-0.6,1.2S86.1,19,85.5,19
				c-0.3,0-0.6,0-0.9-0.1s-0.6-0.2-0.7-0.3c-0.1-0.5-0.1-1-0.1-1.4c0,0,0.1,0,0.2,0c0.2,0,0.4,0,0.4,0.1c0.1,0.8,0.6,1.2,1.3,1.2
				c0.2,0,0.3,0,0.5-0.1s0.2-0.2,0.2-0.4c0-0.2-0.1-0.4-0.3-0.5s-0.5-0.3-0.9-0.5c-0.5-0.2-0.8-0.5-1-0.7s-0.3-0.6-0.3-1
				c0-0.5,0.2-0.9,0.6-1.2S85.2,13.6,85.8,13.6z"/>
			<path class="st3" d="M88.3,16.5c0-0.2,0-0.3,0-0.4s0-0.2,0.1-0.2s0-0.1,0.1-0.1h0l2.8-0.1h0c0,0,0.1,0,0.1,0.1c0,0.2,0,0.3,0,0.5
				s-0.1,0.2-0.1,0.3l0,0.1l-2.8,0.1c0,0,0,0,0,0S88.3,16.6,88.3,16.5C88.3,16.6,88.3,16.6,88.3,16.5z"/>
			<path class="st3" d="M96.5,14.4c-0.2-0.2-0.4-0.2-0.8-0.2c0,0,0-0.1,0-0.2s0-0.2,0-0.2c0.1,0,0.3,0,0.6,0.1s0.5,0,0.7,0
				c0.2,0,0.4,0,0.7,0s0.5,0,0.6-0.1c0,0,0,0.1,0,0.2c0,0.2,0,0.2,0,0.2c-0.1,0-0.3,0-0.5,0.1s-0.4,0.2-0.4,0.3l-2.1,4.1
				C95.3,18.9,95.2,19,95,19c-0.1,0-0.2,0-0.2-0.1l-1.9-4.4c-0.1-0.1-0.2-0.3-0.4-0.3s-0.3-0.1-0.5-0.1c0,0,0-0.1,0-0.2
				c0-0.1,0-0.2,0-0.2c0.1,0,0.3,0,0.7,0.1s0.7,0,0.9,0c0.2,0,0.5,0,0.9,0s0.7,0,0.7,0c0,0,0,0.1,0,0.2s0,0.2,0,0.2
				c-0.1,0-0.3,0-0.5,0.1s-0.3,0.1-0.3,0.2l0,0.2l0.9,2.2l0.9-1.9C96.6,14.7,96.6,14.5,96.5,14.4z"/>
			<path class="st3" d="M104.7,15.1v2.3c0,0.4,0,0.7,0.1,0.7c0,0,0.1,0.1,0.2,0.1s0.2,0,0.3,0h0.1c0,0,0,0,0,0.1
				c0,0.2,0,0.3-0.1,0.3c-0.1,0-0.3,0-0.5,0s-0.4,0-0.6,0.1s-0.4,0.1-0.5,0.1s-0.3,0-0.4,0.1l-0.2,0c0,0-0.1-0.1-0.1-0.2v-0.4
				c0,0,0-0.1,0-0.1s0,0,0,0c-0.2,0.2-0.4,0.3-0.7,0.5s-0.7,0.2-1,0.2c-0.5,0-0.8-0.2-1.1-0.6s-0.4-0.9-0.4-1.5v-1.1
				c0-0.4-0.1-0.7-0.2-0.9c-0.1-0.1-0.1-0.1-0.2-0.2s-0.2-0.1-0.3-0.1s-0.1,0-0.1,0c0-0.3,0-0.4,0.1-0.4c0.1,0,0.5-0.1,1-0.2
				s0.9-0.2,1.1-0.3l0.1,0c0,0,0.1,0,0.1,0c0,0,0.1,0,0.1,0.1s0.1,0.1,0.1,0.1c-0.1,0.7-0.1,1.1-0.1,1.2v1.3c0,0.6,0.1,1,0.2,1.3
				s0.4,0.4,0.8,0.4c0.3,0,0.5-0.1,0.6-0.2s0.2-0.3,0.2-0.4v-1.7c0-0.4-0.1-0.7-0.2-0.9c-0.1-0.1-0.1-0.1-0.2-0.2s-0.2-0.1-0.3-0.1
				s-0.1,0-0.1,0c0-0.3,0-0.4,0.1-0.4c0.1,0,0.5-0.1,1-0.2s0.9-0.2,1.1-0.3c0,0,0,0,0.1,0l0.1,0c0,0,0.1,0,0.1,0.1s0.1,0.1,0.1,0.1
				C104.8,14.6,104.7,15,104.7,15.1z"/>
			<path class="st3" d="M107,12.7c0-0.4,0-0.6-0.1-0.8c0-0.1-0.2-0.2-0.6-0.2h-0.1c0,0-0.1-0.1-0.1-0.2c0-0.1,0-0.2,0.1-0.2
				c0.2,0,0.5-0.1,0.7-0.1s0.5-0.1,0.6-0.1s0.3-0.1,0.5-0.1s0.2-0.1,0.3-0.1l0.1,0h0c0,0,0.1,0,0.1,0.1s0.1,0.1,0.1,0.1
				c-0.1,0.4-0.1,0.7-0.1,1.2l0,5c0,0.5,0,0.9,0.1,1.1c0,0.1,0.1,0.1,0.3,0.2s0.3,0.1,0.4,0.1c0,0,0,0.1,0,0.2s0,0.2,0,0.2
				c-0.1,0-0.3,0-0.7-0.1s-0.7,0-0.9,0c-0.2,0-0.5,0-0.9,0s-0.6,0-0.7,0.1c0,0,0-0.1,0-0.2s0-0.2,0-0.2c0.1,0,0.2,0,0.4-0.1
				s0.3-0.1,0.3-0.2c0.1-0.2,0.1-0.5,0.1-0.9V12.7z"/>
			<path class="st3" d="M114.2,13.7c0.5,0,0.8,0.2,1.1,0.6s0.4,1,0.4,1.7v1.2c0,0.5,0,0.9,0.1,1.1c0,0.1,0.1,0.1,0.3,0.2
				s0.3,0.1,0.4,0.1c0,0,0,0.1,0,0.2s0,0.2,0,0.2c-0.1,0-0.3,0-0.7-0.1s-0.7,0-0.9,0c-0.2,0-0.5,0-0.8,0s-0.6,0-0.7,0.1
				c0,0,0-0.1,0-0.2s0-0.2,0-0.2c0.1,0,0.2,0,0.4-0.1s0.3-0.1,0.3-0.2c0.1-0.2,0.1-0.5,0.1-0.9v-1.1c0-0.6-0.1-1-0.2-1.2
				s-0.4-0.4-0.8-0.4c-0.2,0-0.4,0-0.6,0.1s-0.2,0.2-0.2,0.4v2c0,0.5,0,0.9,0.1,1.1c0,0.1,0.1,0.1,0.3,0.2s0.3,0.1,0.4,0.1
				c0,0,0,0.1,0,0.2s0,0.2,0,0.2c-0.1,0-0.3,0-0.7-0.1s-0.7,0-0.8,0c-0.2,0-0.5,0-0.9,0s-0.6,0-0.7,0.1c0,0,0-0.1,0-0.2s0-0.2,0-0.2
				c0.1,0,0.2,0,0.4-0.1s0.3-0.1,0.3-0.2c0.1-0.2,0.1-0.5,0.1-0.9v-1.6c0-0.4-0.1-0.7-0.2-0.9c-0.1-0.1-0.1-0.1-0.2-0.2
				s-0.2-0.1-0.3-0.1s-0.1,0-0.1,0c0-0.3,0-0.4,0.1-0.4c0.1,0,0.2,0,0.5-0.1s0.5-0.1,0.9-0.2s0.6-0.1,0.8-0.2c0,0,0,0,0.1,0
				s0,0,0.1,0l0,0c0,0,0.1,0,0.1,0.1s0.1,0.1,0.1,0.1c0,0.2,0,0.3,0,0.4c0,0,0,0.1,0,0.1c0,0,0,0,0.1-0.1
				C113,13.9,113.6,13.7,114.2,13.7z"/>
			<path class="st3" d="M119.8,13.7c0.7,0,1.3,0.2,1.7,0.7s0.6,1,0.6,1.5c0,0.2,0,0.3-0.1,0.4s-0.2,0.1-0.4,0.1h-2.6
				c0,0-0.1,0-0.1,0.1c0,0.4,0.1,0.8,0.4,1.1s0.6,0.5,1,0.5c0.3,0,0.5,0,0.7-0.1s0.4-0.1,0.5-0.2s0.2-0.1,0.4-0.3
				c0.1,0,0.1,0.1,0.1,0.2c0,0.1,0,0.2,0,0.2c-0.1,0.2-0.3,0.4-0.7,0.7s-0.8,0.4-1.3,0.4c-0.7,0-1.3-0.3-1.9-0.8s-0.8-1.2-0.8-1.9
				c0-0.8,0.2-1.4,0.7-1.9S119.1,13.7,119.8,13.7z M119.8,14.3c-0.3,0-0.5,0.1-0.7,0.4s-0.2,0.6-0.2,0.9c0,0,0,0.1,0.1,0.1h1.5
				c0.1,0,0.2-0.1,0.2-0.2c0-0.3-0.1-0.6-0.2-0.8S120,14.3,119.8,14.3z"/>
			<path class="st3" d="M126.5,13.7c0.3,0,0.7,0.1,1,0.4c0,0.4,0,0.7-0.1,0.9s-0.3,0.3-0.5,0.3c-0.2,0-0.3-0.1-0.5-0.3
				s-0.4-0.3-0.5-0.3c-0.2,0-0.4,0.1-0.5,0.4s-0.1,0.5-0.1,0.8v1.2c0,0.5,0,0.8,0.1,1.1c0,0.1,0.1,0.1,0.3,0.2s0.3,0.1,0.4,0.1
				c0,0,0,0.1,0,0.2s0,0.2,0,0.2c-0.1,0-0.3,0-0.7-0.1s-0.7,0-0.8,0c-0.2,0-0.5,0-0.9,0s-0.6,0-0.7,0.1c0,0,0-0.1,0-0.2s0-0.2,0-0.2
				c0.1,0,0.2,0,0.4-0.1s0.3-0.1,0.3-0.2c0.1-0.2,0.1-0.5,0.1-0.9v-1.6c0-0.4-0.1-0.7-0.2-0.9c-0.1-0.1-0.1-0.1-0.2-0.2
				s-0.2-0.1-0.3-0.1s-0.1,0-0.1,0c0-0.3,0-0.4,0.1-0.4c0.1,0,0.2,0,0.5-0.1s0.5-0.1,0.9-0.2s0.6-0.1,0.8-0.2c0.1,0,0.1,0,0.1,0
				c0,0,0.1,0,0.1,0.1s0.1,0.1,0.1,0.1c0,0.1,0,0.2,0,0.3s0,0.2,0,0.2C125.6,13.9,126,13.7,126.5,13.7z"/>
			<path class="st3" d="M130.8,13.6c0.5,0,1,0.2,1.3,0.5s0.4,0.8,0.4,1.6v1.9c0,0.3,0.1,0.4,0.3,0.4c0.1,0,0.3-0.1,0.4-0.2
				c0.1,0,0.1,0.1,0.1,0.2c0,0.2,0,0.3-0.1,0.4c-0.1,0.1-0.3,0.2-0.5,0.3s-0.5,0.2-0.7,0.2c-0.2,0-0.4-0.1-0.5-0.2s-0.3-0.2-0.3-0.4
				c0,0,0,0-0.1,0.1s-0.1,0.1-0.2,0.1s-0.2,0.1-0.3,0.2s-0.2,0.1-0.4,0.1s-0.3,0.1-0.5,0.1c-0.4,0-0.8-0.1-1-0.4s-0.4-0.5-0.4-0.9
				c0-0.2,0-0.4,0.1-0.6s0.2-0.3,0.3-0.4s0.3-0.2,0.5-0.3s0.4-0.2,0.6-0.2s0.4-0.1,0.6-0.2s0.4-0.1,0.5-0.1c0.1,0,0.1-0.1,0.1-0.2
				v-0.4c0-0.6-0.2-1-0.6-1c-0.5,0-0.7,0.3-0.7,0.8c0,0.2-0.1,0.3-0.2,0.4s-0.3,0.1-0.5,0.1c-0.4,0-0.6-0.1-0.7-0.4
				c0-0.4,0.3-0.8,0.8-1.1S130.2,13.6,130.8,13.6z M130.3,18.1c0.2,0,0.4,0,0.5-0.1s0.2-0.2,0.2-0.4v-1.2c0,0-0.1,0-0.2,0.1
				s-0.2,0.1-0.3,0.1s-0.1,0-0.2,0.1s-0.2,0.1-0.2,0.1s-0.1,0.1-0.2,0.1s-0.1,0.1-0.1,0.2s0,0.1,0,0.2c0,0.3,0.1,0.5,0.2,0.6
				S130.1,18.1,130.3,18.1z"/>
			<path class="st3" d="M137.3,13.7c0.7,0,1.3,0.3,1.8,0.8s0.8,1.1,0.8,1.8c0,0.8-0.3,1.4-0.8,2s-1.2,0.8-2,0.8
				c-0.4,0-0.7,0-0.9-0.1s-0.4-0.1-0.6-0.1c-0.1,0-0.2,0-0.4,0.1S135,19,134.9,19s-0.1,0-0.2-0.1s-0.2-0.1-0.2-0.2c0,0,0-0.1,0-0.2
				s0-0.3,0-0.5s0-0.4,0-0.6v-4.7c0-0.3,0-0.6-0.1-0.8c0-0.1-0.2-0.2-0.6-0.2h-0.1c0,0-0.1-0.1-0.1-0.2c0-0.1,0-0.2,0.1-0.2
				c0.2,0,0.5-0.1,0.7-0.1s0.5-0.1,0.6-0.1s0.3-0.1,0.5-0.1s0.2-0.1,0.3-0.1l0.1,0h0c0,0,0.1,0,0.1,0.1s0.1,0.1,0.1,0.1
				c-0.1,0.4-0.1,0.7-0.1,1.2v1.7c0,0,0,0,0,0.1s0,0,0,0.1s0,0,0,0s0,0,0,0C136.5,13.8,136.9,13.7,137.3,13.7z M137.1,14.4
				c-0.3,0-0.5,0.1-0.7,0.3s-0.3,0.4-0.3,0.5v2.2c0,0.3,0.1,0.6,0.3,0.7s0.4,0.3,0.7,0.3c0.4,0,0.6-0.2,0.8-0.5s0.3-0.7,0.3-1.2
				C138.2,15.1,137.8,14.4,137.1,14.4z"/>
			<path class="st3" d="M142.9,17.2c0,0.5,0,0.9,0.1,1.1c0,0.1,0.1,0.1,0.3,0.2s0.3,0.1,0.4,0.1c0,0,0,0.1,0,0.2s0,0.2,0,0.2
				c-0.1,0-0.3,0-0.7-0.1s-0.7,0-0.9,0c-0.2,0-0.5,0-0.9,0s-0.6,0-0.7,0.1c0,0,0-0.1,0-0.2s0-0.2,0-0.2c0.1,0,0.2,0,0.4-0.1
				s0.3-0.1,0.3-0.2c0.1-0.2,0.1-0.5,0.1-0.9v-1.6c0-0.4-0.1-0.7-0.2-0.9c-0.1-0.1-0.1-0.1-0.2-0.2s-0.2-0.1-0.3-0.1s-0.1,0-0.1,0
				c0-0.3,0-0.4,0.1-0.4c0.2,0,0.5-0.1,1-0.2s0.9-0.2,1.1-0.3c0,0,0.1,0,0.1,0c0,0,0.1,0,0.1,0.1s0.1,0.1,0.1,0.1c0,0.1,0,0.2,0,0.4
				s0,0.3-0.1,0.5s0,0.3,0,0.4V17.2z M141.4,12.3c-0.2-0.2-0.3-0.4-0.3-0.6s0.1-0.4,0.3-0.6s0.4-0.3,0.6-0.3s0.4,0.1,0.6,0.3
				s0.3,0.4,0.3,0.6s-0.1,0.4-0.3,0.6s-0.4,0.3-0.6,0.3S141.5,12.5,141.4,12.3z"/>
			<path class="st3" d="M145.2,12.7c0-0.4,0-0.6-0.1-0.8c0-0.1-0.2-0.2-0.6-0.2h-0.1c0,0-0.1-0.1-0.1-0.2c0-0.1,0-0.2,0.1-0.2
				c0.2,0,0.5-0.1,0.7-0.1s0.5-0.1,0.6-0.1s0.3-0.1,0.5-0.1s0.2-0.1,0.3-0.1l0.1,0h0c0,0,0.1,0,0.1,0.1s0.1,0.1,0.1,0.1
				c-0.1,0.4-0.1,0.7-0.1,1.2l0,5c0,0.5,0,0.9,0.1,1.1c0,0.1,0.1,0.1,0.3,0.2s0.3,0.1,0.4,0.1c0,0,0,0.1,0,0.2s0,0.2,0,0.2
				c-0.1,0-0.3,0-0.7-0.1s-0.7,0-0.9,0c-0.2,0-0.5,0-0.9,0s-0.6,0-0.7,0.1c0,0,0-0.1,0-0.2s0-0.2,0-0.2c0.1,0,0.2,0,0.4-0.1
				s0.3-0.1,0.3-0.2c0.1-0.2,0.1-0.5,0.1-0.9V12.7z"/>
			<path class="st3" d="M150.6,17.2c0,0.5,0,0.9,0.1,1.1c0,0.1,0.1,0.1,0.3,0.2s0.3,0.1,0.4,0.1c0,0,0,0.1,0,0.2s0,0.2,0,0.2
				c-0.1,0-0.3,0-0.7-0.1s-0.7,0-0.9,0c-0.2,0-0.5,0-0.9,0s-0.6,0-0.7,0.1c0,0,0-0.1,0-0.2s0-0.2,0-0.2c0.1,0,0.2,0,0.4-0.1
				s0.3-0.1,0.3-0.2c0.1-0.2,0.1-0.5,0.1-0.9v-1.6c0-0.4-0.1-0.7-0.2-0.9c-0.1-0.1-0.1-0.1-0.2-0.2s-0.2-0.1-0.3-0.1s-0.1,0-0.1,0
				c0-0.3,0-0.4,0.1-0.4c0.2,0,0.5-0.1,1-0.2s0.9-0.2,1.1-0.3c0,0,0.1,0,0.1,0c0,0,0.1,0,0.1,0.1s0.1,0.1,0.1,0.1c0,0.1,0,0.2,0,0.4
				s0,0.3-0.1,0.5s0,0.3,0,0.4V17.2z M149.1,12.3c-0.2-0.2-0.3-0.4-0.3-0.6s0.1-0.4,0.3-0.6s0.4-0.3,0.6-0.3s0.4,0.1,0.6,0.3
				s0.3,0.4,0.3,0.6s-0.1,0.4-0.3,0.6s-0.4,0.3-0.6,0.3S149.3,12.5,149.1,12.3z"/>
			<path class="st3" d="M152.8,14.6h-0.8c-0.1,0-0.1-0.1-0.1-0.4c0-0.1,0-0.1,0-0.1c0.4-0.2,0.8-0.4,1.1-0.6
				c0.1-0.1,0.3-0.2,0.4-0.3s0.3-0.3,0.4-0.4s0.2-0.2,0.2-0.2c0.1,0,0.1,0,0.2,0s0.1,0.1,0.1,0.1v1.1h1.3c0.1,0,0.1,0,0.1,0.1
				c0,0.2,0,0.4-0.1,0.6h-1.2v2.8c0,0.6,0.2,0.9,0.6,0.9c0.1,0,0.2,0,0.3,0s0.2-0.1,0.2-0.1s0.1,0,0.1,0c0,0,0.1,0,0.1,0.1
				s0.1,0.1,0.1,0.2c0,0.1-0.2,0.2-0.5,0.4s-0.6,0.2-0.9,0.2c-0.4,0-0.8-0.1-1.1-0.4s-0.5-0.7-0.5-1.3V14.6z"/>
			<path class="st3" d="M157.8,13.8c0.2,0,0.4,0,0.8,0s0.6,0,0.7-0.1c0,0.1,0,0.2,0,0.2c0,0.1,0,0.2,0,0.2c-0.1,0-0.2,0-0.4,0.1
				s-0.3,0.1-0.3,0.2l0,0.1c0,0.1,0.3,0.9,0.9,2.3c0.5-1.1,0.8-1.8,0.9-1.9c0-0.1,0.1-0.2,0.1-0.4c0,0,0-0.1-0.1-0.2
				s-0.1-0.1-0.3-0.2s-0.3-0.1-0.5-0.1c0,0,0-0.1,0-0.2c0-0.1,0-0.2,0-0.2c0.1,0,0.3,0,0.7,0.1s0.7,0,0.8,0c0.2,0,0.4,0,0.7,0
				s0.5,0,0.6-0.1c0,0.1,0,0.1,0,0.2c0,0.2,0,0.2,0,0.2c-0.1,0-0.3,0-0.5,0.1s-0.4,0.2-0.5,0.4l-2.2,4.7c-0.6,1.4-1.4,2.1-2.3,2.1
				c-0.2,0-0.4-0.1-0.6-0.2s-0.2-0.3-0.2-0.4c0-0.2,0.1-0.4,0.3-0.6c1,0,1.6-0.3,1.9-0.9c0.2-0.4,0.3-0.6,0.4-0.8l-1.7-3.9l-0.1-0.1
				c-0.1-0.2-0.2-0.3-0.4-0.3s-0.3-0.1-0.4-0.1c0,0,0-0.1,0-0.2c0-0.2,0-0.2,0-0.3c0.1,0,0.3,0,0.7,0S157.6,13.8,157.8,13.8z"/>
			<path class="st3" d="M169.4,13.7c0.6,0,1,0.3,1.2,0.8c0.5-0.5,1.2-0.8,2.1-0.8c0.5,0,0.8,0.2,1.1,0.6s0.4,1,0.4,1.7v1.2
				c0,0.5,0,0.9,0.1,1.1c0,0.1,0.1,0.1,0.3,0.2s0.3,0.1,0.4,0.1c0,0,0,0.1,0,0.2s0,0.2,0,0.2c-0.1,0-0.3,0-0.7-0.1s-0.7,0-0.9,0
				c-0.2,0-0.5,0-0.9,0s-0.6,0-0.7,0.1c0,0,0-0.1,0-0.2s0-0.2,0-0.2c0.1,0,0.2,0,0.4-0.1s0.3-0.1,0.3-0.2c0.1-0.2,0.1-0.5,0.1-0.9
				v-1.1c0-0.5-0.1-0.9-0.2-1.2s-0.4-0.4-0.8-0.4c-0.4,0-0.7,0.1-0.8,0.4c0,0.1,0,0.1,0,0.2c0,0.1,0,0.4,0,0.6v1.2
				c0,0.5,0,0.9,0.1,1.1c0,0.1,0.1,0.1,0.3,0.2s0.3,0.1,0.4,0.1c0,0,0,0.1,0,0.2s0,0.2,0,0.2c-0.1,0-0.3,0-0.7-0.1s-0.7,0-0.9,0
				c-0.2,0-0.5,0-0.9,0s-0.6,0-0.7,0.1c0,0,0-0.1,0-0.2s0-0.2,0-0.2c0.1,0,0.2,0,0.4-0.1s0.3-0.1,0.3-0.2c0.1-0.2,0.1-0.5,0.1-0.9
				v-1.1c0-0.6-0.1-1-0.2-1.2s-0.4-0.4-0.8-0.4c-0.2,0-0.4,0-0.6,0.1s-0.2,0.2-0.2,0.4v2c0,0.5,0,0.9,0.1,1.1c0,0.1,0.1,0.1,0.3,0.2
				s0.3,0.1,0.4,0.1c0,0,0,0.1,0,0.2s0,0.2,0,0.2c-0.1,0-0.3,0-0.7-0.1s-0.7,0-0.8,0c-0.2,0-0.5,0-0.9,0s-0.6,0-0.7,0.1
				c0,0,0-0.1,0-0.2s0-0.2,0-0.2c0.1,0,0.2,0,0.4-0.1s0.3-0.1,0.3-0.2c0.1-0.2,0.1-0.5,0.1-0.9v-1.6c0-0.4-0.1-0.7-0.2-0.9
				c-0.1-0.1-0.1-0.1-0.2-0.2s-0.2-0.1-0.3-0.1s-0.1,0-0.1,0c0-0.3,0-0.4,0.1-0.4c0.1,0,0.2,0,0.5-0.1s0.5-0.1,0.9-0.2
				s0.6-0.1,0.8-0.2c0,0,0,0,0.1,0s0,0,0.1,0l0,0c0,0,0.1,0,0.1,0.1s0.1,0.1,0.1,0.1c0,0.2,0,0.3,0,0.4c0,0,0,0.1,0,0.1
				c0,0,0,0,0.1-0.1C168.2,13.9,168.8,13.7,169.4,13.7z"/>
			<path class="st3" d="M178.2,13.6c0.5,0,1,0.2,1.3,0.5s0.4,0.8,0.4,1.6v1.9c0,0.3,0.1,0.4,0.3,0.4c0.1,0,0.3-0.1,0.4-0.2
				c0.1,0,0.1,0.1,0.1,0.2c0,0.2,0,0.3-0.1,0.4c-0.1,0.1-0.3,0.2-0.5,0.3s-0.5,0.2-0.7,0.2c-0.2,0-0.4-0.1-0.5-0.2s-0.3-0.2-0.3-0.4
				c0,0,0,0-0.1,0.1s-0.1,0.1-0.2,0.1s-0.2,0.1-0.3,0.2s-0.2,0.1-0.4,0.1S177.2,19,177,19c-0.4,0-0.8-0.1-1-0.4s-0.4-0.5-0.4-0.9
				c0-0.2,0-0.4,0.1-0.6s0.2-0.3,0.3-0.4s0.3-0.2,0.5-0.3s0.4-0.2,0.6-0.2s0.4-0.1,0.6-0.2s0.4-0.1,0.5-0.1c0.1,0,0.1-0.1,0.1-0.2
				v-0.4c0-0.6-0.2-1-0.6-1c-0.5,0-0.7,0.3-0.7,0.8c0,0.2-0.1,0.3-0.2,0.4s-0.3,0.1-0.5,0.1c-0.4,0-0.6-0.1-0.7-0.4
				c0-0.4,0.3-0.8,0.8-1.1S177.6,13.6,178.2,13.6z M177.8,18.1c0.2,0,0.4,0,0.5-0.1s0.2-0.2,0.2-0.4v-1.2c0,0-0.1,0-0.2,0.1
				s-0.2,0.1-0.3,0.1s-0.1,0-0.2,0.1s-0.2,0.1-0.2,0.1s-0.1,0.1-0.2,0.1s-0.1,0.1-0.1,0.2s0,0.1,0,0.2c0,0.3,0.1,0.5,0.2,0.6
				S177.6,18.1,177.8,18.1z"/>
			<path class="st3" d="M182.1,14.6h-0.8c-0.1,0-0.1-0.1-0.1-0.4c0-0.1,0-0.1,0-0.1c0.4-0.2,0.8-0.4,1.1-0.6
				c0.1-0.1,0.3-0.2,0.4-0.3s0.3-0.3,0.4-0.4s0.2-0.2,0.2-0.2c0.1,0,0.1,0,0.2,0s0.1,0.1,0.1,0.1v1.1h1.3c0.1,0,0.1,0,0.1,0.1
				c0,0.2,0,0.4-0.1,0.6h-1.2v2.8c0,0.6,0.2,0.9,0.6,0.9c0.1,0,0.2,0,0.3,0s0.2-0.1,0.2-0.1s0.1,0,0.1,0c0,0,0.1,0,0.1,0.1
				s0.1,0.1,0.1,0.2c0,0.1-0.2,0.2-0.5,0.4S184,19,183.7,19c-0.4,0-0.8-0.1-1.1-0.4s-0.5-0.7-0.5-1.3V14.6z"/>
			<path class="st3" d="M189.5,13.7c0.3,0,0.7,0.1,1,0.4c0,0.4,0,0.7-0.1,0.9s-0.3,0.3-0.5,0.3c-0.2,0-0.3-0.1-0.5-0.3
				s-0.4-0.3-0.5-0.3c-0.2,0-0.4,0.1-0.5,0.4s-0.1,0.5-0.1,0.8v1.2c0,0.5,0,0.8,0.1,1.1c0,0.1,0.1,0.1,0.3,0.2s0.3,0.1,0.4,0.1
				c0,0,0,0.1,0,0.2s0,0.2,0,0.2c-0.1,0-0.3,0-0.7-0.1s-0.7,0-0.8,0c-0.2,0-0.5,0-0.9,0s-0.6,0-0.7,0.1c0,0,0-0.1,0-0.2s0-0.2,0-0.2
				c0.1,0,0.2,0,0.4-0.1s0.3-0.1,0.3-0.2c0.1-0.2,0.1-0.5,0.1-0.9v-1.6c0-0.4-0.1-0.7-0.2-0.9c-0.1-0.1-0.1-0.1-0.2-0.2
				s-0.2-0.1-0.3-0.1s-0.1,0-0.1,0c0-0.3,0-0.4,0.1-0.4c0.1,0,0.2,0,0.5-0.1s0.5-0.1,0.9-0.2s0.6-0.1,0.8-0.2c0.1,0,0.1,0,0.1,0
				c0,0,0.1,0,0.1,0.1s0.1,0.1,0.1,0.1c0,0.1,0,0.2,0,0.3s0,0.2,0,0.2C188.6,13.9,189,13.7,189.5,13.7z"/>
			<path class="st3" d="M193.5,17.2c0,0.5,0,0.9,0.1,1.1c0,0.1,0.1,0.1,0.3,0.2s0.3,0.1,0.4,0.1c0,0,0,0.1,0,0.2s0,0.2,0,0.2
				c-0.1,0-0.3,0-0.7-0.1s-0.7,0-0.9,0c-0.2,0-0.5,0-0.9,0s-0.6,0-0.7,0.1c0,0,0-0.1,0-0.2s0-0.2,0-0.2c0.1,0,0.2,0,0.4-0.1
				s0.3-0.1,0.3-0.2c0.1-0.2,0.1-0.5,0.1-0.9v-1.6c0-0.4-0.1-0.7-0.2-0.9c-0.1-0.1-0.1-0.1-0.2-0.2s-0.2-0.1-0.3-0.1s-0.1,0-0.1,0
				c0-0.3,0-0.4,0.1-0.4c0.2,0,0.5-0.1,1-0.2s0.9-0.2,1.1-0.3c0,0,0.1,0,0.1,0c0,0,0.1,0,0.1,0.1s0.1,0.1,0.1,0.1c0,0.1,0,0.2,0,0.4
				s0,0.3-0.1,0.5s0,0.3,0,0.4V17.2z M192.1,12.3c-0.2-0.2-0.3-0.4-0.3-0.6s0.1-0.4,0.3-0.6s0.4-0.3,0.6-0.3s0.4,0.1,0.6,0.3
				s0.3,0.4,0.3,0.6s-0.1,0.4-0.3,0.6s-0.4,0.3-0.6,0.3S192.2,12.5,192.1,12.3z"/>
			<path class="st3" d="M195,13.9c0-0.1,0-0.2,0-0.2c1,0.1,1.5,0.1,1.6,0.1c0.1,0,0.6,0,1.6-0.1c0,0,0,0.1,0,0.2
				c0,0.1,0,0.2-0.1,0.2c-0.1,0-0.2,0-0.3,0.1s-0.2,0.1-0.2,0.2c0,0,0,0.1,0.1,0.1l0.7,0.9c0.1-0.1,0.2-0.2,0.3-0.4s0.3-0.3,0.3-0.4
				s0.1-0.2,0.1-0.2c0-0.2-0.2-0.2-0.7-0.2c0,0,0-0.1,0-0.2c0-0.1,0-0.2,0-0.2c0.9,0.1,1.4,0.1,1.5,0.1c0.1,0,0.5,0,1.4-0.1
				c0,0,0,0.1,0,0.2c0,0.1,0,0.2,0,0.2c-0.6,0.1-0.9,0.2-1,0.3l-1.3,1.5c0,0,0,0.1,0,0.1c0,0,0,0.1,0,0.1l1.4,1.8
				c0.3,0.3,0.6,0.6,0.9,0.6c0,0,0,0.1,0,0.2c0,0.1,0,0.1,0,0.2c-0.1,0-0.3,0-0.5,0s-0.4,0-0.5,0s-0.3,0-0.5,0c-0.2,0-0.4,0-0.5,0
				s-0.4,0-0.6,0s-0.4,0-0.5,0c0-0.1,0-0.1,0-0.1c0-0.2,0-0.3,0-0.3c0.1,0,0.2,0,0.3-0.1s0.2-0.2,0.2-0.3c0,0,0,0,0-0.1l-0.8-0.9
				l-0.7,0.8c-0.1,0.1-0.1,0.1-0.1,0.2c0,0,0,0.1,0.1,0.1s0.1,0.1,0.1,0.1s0.1,0,0.2,0.1s0.1,0,0.2,0s0.1,0,0.2,0c0,0,0,0.1,0,0.2
				c0,0.1,0,0.2,0,0.2c-0.1,0-0.3,0-0.6-0.1s-0.6,0-0.8,0c-0.2,0-0.3,0-0.5,0s-0.3,0-0.5,0s-0.3,0-0.5,0c0-0.1,0-0.1,0-0.2
				c0-0.1,0-0.2,0-0.2c0.2,0,0.4-0.1,0.6-0.2s0.3-0.2,0.4-0.2l1.3-1.4c0,0,0-0.1,0-0.1s0-0.1,0-0.1l-1.5-1.9
				c-0.1-0.1-0.2-0.2-0.4-0.3s-0.3-0.1-0.4-0.1C195,14.2,195,14.1,195,13.9z"/>
		</g>
		<g class="st0">
			<path d="M113.8,122.8V122h4v0.8H113.8z"/>
			<path d="M120.1,126.1v-6.3h-0.8V119h1.7v7.1H120.1z"/>
		</g>
		<g class="st0">
			<path d="M39.6,158.6l-0.2,1.5l1.2-0.9L41,160l-1.4,0.5L41,161l-0.4,0.7l-1.2-0.9l0.2,1.5h-0.8l0.2-1.5l-1.2,0.9l-0.4-0.8l1.4-0.5
				l-1.4-0.5l0.4-0.7l1.2,0.9l-0.2-1.5H39.6z"/>
			<path d="M45.1,159.8V159h4.6v0.7h-1.8v6.2H47v-6.2H45.1z"/>
			<path d="M51.8,158.6v2.8c0.4-0.7,1-1,1.8-1c0.6,0,1.1,0.2,1.5,0.6c0.4,0.4,0.6,1,0.6,1.7v3.2h-0.9v-3.1c0-0.6-0.1-1-0.4-1.3
				c-0.3-0.3-0.6-0.4-1.1-0.4c-0.5,0-0.8,0.1-1.1,0.4c-0.3,0.3-0.4,0.7-0.4,1.3v3.1h-0.9v-7.4H51.8z"/>
			<path d="M59.5,166.1c-0.8,0-1.4-0.3-1.9-0.8c-0.5-0.5-0.7-1.2-0.7-2.1s0.2-1.5,0.8-2.1s1.1-0.8,1.9-0.8c0.8,0,1.4,0.2,1.9,0.7
				c0.5,0.5,0.7,1.1,0.7,1.9c0,0.2,0,0.4,0,0.5h-4.4c0,0.5,0.2,1,0.5,1.3c0.3,0.3,0.7,0.5,1.2,0.5c0.4,0,0.7-0.1,0.9-0.2
				c0.3-0.2,0.4-0.4,0.6-0.7h1c-0.2,0.5-0.5,0.9-0.9,1.2S60.1,166.1,59.5,166.1z M60.7,161.6c-0.3-0.3-0.7-0.5-1.2-0.5
				s-0.9,0.2-1.2,0.5c-0.3,0.3-0.5,0.7-0.5,1.3h3.4C61.2,162.3,61,161.9,60.7,161.6z"/>
			<path d="M66.1,162c0-0.5,0.2-0.8,0.6-1.2c0.4-0.3,0.9-0.5,1.5-0.5c0.6,0,1.1,0.2,1.4,0.5c0.3,0.3,0.5,0.7,0.6,1.3h-0.9
				c0-0.3-0.1-0.6-0.3-0.7s-0.5-0.3-0.8-0.3s-0.6,0.1-0.8,0.2c-0.2,0.2-0.3,0.4-0.3,0.6c0,0.3,0.1,0.5,0.3,0.6
				c0.2,0.1,0.5,0.2,0.8,0.3c0.3,0.1,0.6,0.1,1,0.2c0.3,0.1,0.6,0.2,0.8,0.5c0.2,0.2,0.3,0.6,0.3,1c0,0.4-0.2,0.8-0.6,1.1
				s-0.9,0.4-1.5,0.4s-1.1-0.2-1.5-0.5c-0.4-0.3-0.6-0.7-0.6-1.3H67c0,0.3,0.1,0.6,0.3,0.7c0.2,0.2,0.5,0.3,0.8,0.3
				c0.4,0,0.6-0.1,0.8-0.2c0.2-0.2,0.3-0.3,0.3-0.6c0-0.2-0.1-0.4-0.2-0.6c-0.2-0.1-0.4-0.2-0.6-0.3c-0.2-0.1-0.5-0.1-0.8-0.2
				c-0.3-0.1-0.5-0.2-0.8-0.2c-0.2-0.1-0.4-0.2-0.6-0.4C66.2,162.6,66.1,162.3,66.1,162z"/>
			<path d="M73.8,166.1c-0.8,0-1.4-0.3-1.9-0.8c-0.5-0.5-0.7-1.2-0.7-2.1s0.2-1.5,0.8-2.1s1.1-0.8,1.9-0.8c0.8,0,1.4,0.2,1.9,0.7
				c0.5,0.5,0.7,1.1,0.7,1.9c0,0.2,0,0.4,0,0.5h-4.4c0,0.5,0.2,1,0.5,1.3c0.3,0.3,0.7,0.5,1.2,0.5c0.4,0,0.7-0.1,0.9-0.2
				c0.3-0.2,0.4-0.4,0.6-0.7h1c-0.2,0.5-0.5,0.9-0.9,1.2S74.5,166.1,73.8,166.1z M75.1,161.6c-0.3-0.3-0.7-0.5-1.2-0.5
				s-0.9,0.2-1.2,0.5c-0.3,0.3-0.5,0.7-0.5,1.3h3.4C75.6,162.3,75.4,161.9,75.1,161.6z"/>
			<path d="M77.7,166v-7.4h0.9v7.4H77.7z"/>
			<path d="M82.4,166.1c-0.8,0-1.4-0.3-1.9-0.8c-0.5-0.5-0.7-1.2-0.7-2.1s0.2-1.5,0.8-2.1s1.1-0.8,1.9-0.8c0.8,0,1.4,0.2,1.9,0.7
				c0.5,0.5,0.7,1.1,0.7,1.9c0,0.2,0,0.4,0,0.5h-4.4c0,0.5,0.2,1,0.5,1.3c0.3,0.3,0.7,0.5,1.2,0.5c0.4,0,0.7-0.1,0.9-0.2
				c0.3-0.2,0.4-0.4,0.6-0.7h1c-0.2,0.5-0.5,0.9-0.9,1.2S83,166.1,82.4,166.1z M83.6,161.6c-0.3-0.3-0.7-0.5-1.2-0.5
				s-0.9,0.2-1.2,0.5c-0.3,0.3-0.5,0.7-0.5,1.3h3.4C84.1,162.3,83.9,161.9,83.6,161.6z"/>
			<path d="M86.6,165.3c-0.5-0.5-0.7-1.2-0.7-2.1c0-0.8,0.2-1.5,0.7-2.1c0.5-0.5,1.1-0.8,1.9-0.8c0.7,0,1.2,0.2,1.6,0.5
				c0.4,0.3,0.7,0.7,0.9,1.3h-1c-0.1-0.3-0.3-0.6-0.6-0.8c-0.3-0.2-0.6-0.3-1-0.3c-0.5,0-0.9,0.2-1.3,0.5s-0.5,0.9-0.5,1.5
				s0.2,1.2,0.5,1.5s0.7,0.5,1.3,0.5c0.8,0,1.3-0.3,1.5-1h1c-0.2,0.5-0.5,1-0.9,1.3c-0.4,0.3-1,0.5-1.6,0.5
				C87.7,166.1,87,165.8,86.6,165.3z"/>
			<path d="M94,165.2h0.8v0.7h-0.9c-1,0-1.4-0.5-1.4-1.4v-3.3h-0.7v-0.7h0.7v-1.4h0.9v1.4h1.4v0.7h-1.4v3.3c0,0.2,0,0.4,0.1,0.5
				C93.5,165.2,93.7,165.2,94,165.2z"/>
			<path d="M98,166.1c-0.8,0-1.4-0.3-1.9-0.8c-0.5-0.5-0.7-1.2-0.7-2.1s0.2-1.5,0.8-2.1s1.1-0.8,1.9-0.8c0.8,0,1.4,0.2,1.9,0.7
				c0.5,0.5,0.7,1.1,0.7,1.9c0,0.2,0,0.4,0,0.5h-4.4c0,0.5,0.2,1,0.5,1.3c0.3,0.3,0.7,0.5,1.2,0.5c0.4,0,0.7-0.1,0.9-0.2
				c0.3-0.2,0.4-0.4,0.6-0.7h1c-0.2,0.5-0.5,0.9-0.9,1.2S98.7,166.1,98,166.1z M99.3,161.6c-0.3-0.3-0.7-0.5-1.2-0.5
				s-0.9,0.2-1.2,0.5c-0.3,0.3-0.5,0.7-0.5,1.3h3.4C99.7,162.3,99.6,161.9,99.3,161.6z"/>
			<path d="M102.2,165.2c-0.5-0.5-0.8-1.2-0.8-2.1c0-0.8,0.2-1.5,0.7-2s1.1-0.8,1.9-0.8c0.5,0,0.9,0.1,1.2,0.3s0.6,0.5,0.8,0.9v-3
				h0.9v7.4h-0.9v-1.1c-0.2,0.4-0.4,0.7-0.8,0.9s-0.8,0.3-1.2,0.3C103.3,166.1,102.7,165.8,102.2,165.2z M105.6,164.7
				c0.4-0.4,0.5-0.9,0.5-1.5s-0.2-1.1-0.5-1.5c-0.4-0.4-0.8-0.6-1.3-0.6c-0.5,0-0.9,0.2-1.3,0.5c-0.4,0.4-0.5,0.8-0.5,1.5
				s0.2,1.1,0.6,1.5c0.4,0.4,0.8,0.6,1.3,0.6C104.8,165.3,105.2,165.1,105.6,164.7z"/>
			<path d="M111.9,165.2c-0.5-0.5-0.8-1.2-0.8-2.1c0-0.8,0.2-1.5,0.7-2s1.1-0.8,1.9-0.8c0.5,0,0.9,0.1,1.2,0.3s0.6,0.5,0.8,0.9v-1.1
				h0.9v5.5h-0.9v-1.1c-0.2,0.4-0.4,0.7-0.8,0.9s-0.8,0.3-1.2,0.3C113,166.1,112.4,165.8,111.9,165.2z M115.3,164.7
				c0.4-0.4,0.5-0.9,0.5-1.5s-0.2-1.1-0.5-1.5c-0.4-0.4-0.8-0.6-1.3-0.6c-0.5,0-0.9,0.2-1.3,0.5c-0.4,0.4-0.5,0.8-0.5,1.5
				s0.2,1.1,0.6,1.5c0.4,0.4,0.8,0.6,1.3,0.6C114.5,165.3,114.9,165.1,115.3,164.7z"/>
			<path d="M119.1,160.5v0.9c0.3-0.7,0.9-1,1.7-1v1h-0.2c-0.5,0-0.8,0.1-1.1,0.4s-0.4,0.7-0.4,1.3v3h-0.9v-5.5H119.1z"/>
			<path d="M124.2,166.1c-0.8,0-1.4-0.3-1.9-0.8c-0.5-0.5-0.7-1.2-0.7-2.1s0.2-1.5,0.8-2.1s1.1-0.8,1.9-0.8c0.8,0,1.4,0.2,1.9,0.7
				c0.5,0.5,0.7,1.1,0.7,1.9c0,0.2,0,0.4,0,0.5h-4.4c0,0.5,0.2,1,0.5,1.3c0.3,0.3,0.7,0.5,1.2,0.5c0.4,0,0.7-0.1,0.9-0.2
				c0.3-0.2,0.4-0.4,0.6-0.7h1c-0.2,0.5-0.5,0.9-0.9,1.2S124.9,166.1,124.2,166.1z M125.4,161.6c-0.3-0.3-0.7-0.5-1.2-0.5
				s-0.9,0.2-1.2,0.5c-0.3,0.3-0.5,0.7-0.5,1.3h3.4C125.9,162.3,125.8,161.9,125.4,161.6z"/>
			<path d="M128.4,165.2c-0.5-0.5-0.8-1.2-0.8-2.1c0-0.8,0.2-1.5,0.7-2s1.1-0.8,1.9-0.8c0.5,0,0.9,0.1,1.2,0.3s0.6,0.5,0.8,0.9v-1.1
				h0.9v5.5h-0.9v-1.1c-0.2,0.4-0.4,0.7-0.8,0.9s-0.8,0.3-1.2,0.3C129.5,166.1,128.9,165.8,128.4,165.2z M131.8,164.7
				c0.4-0.4,0.5-0.9,0.5-1.5s-0.2-1.1-0.5-1.5c-0.4-0.4-0.8-0.6-1.3-0.6c-0.5,0-0.9,0.2-1.3,0.5c-0.4,0.4-0.5,0.8-0.5,1.5
				s0.2,1.1,0.6,1.5c0.4,0.4,0.8,0.6,1.3,0.6C131,165.3,131.4,165.1,131.8,164.7z"/>
			<path d="M138.6,160.5v0.9c0.3-0.7,0.9-1,1.7-1v1h-0.2c-0.5,0-0.8,0.1-1.1,0.4s-0.4,0.7-0.4,1.3v3h-0.9v-5.5H138.6z"/>
			<path d="M143.7,166.1c-0.8,0-1.4-0.3-1.9-0.8c-0.5-0.5-0.7-1.2-0.7-2.1s0.2-1.5,0.8-2.1s1.1-0.8,1.9-0.8c0.8,0,1.4,0.2,1.9,0.7
				c0.5,0.5,0.7,1.1,0.7,1.9c0,0.2,0,0.4,0,0.5H142c0,0.5,0.2,1,0.5,1.3c0.3,0.3,0.7,0.5,1.2,0.5c0.4,0,0.7-0.1,0.9-0.2
				c0.3-0.2,0.4-0.4,0.6-0.7h1c-0.2,0.5-0.5,0.9-0.9,1.2S144.3,166.1,143.7,166.1z M144.9,161.6c-0.3-0.3-0.7-0.5-1.2-0.5
				s-0.9,0.2-1.2,0.5c-0.3,0.3-0.5,0.7-0.5,1.3h3.4C145.4,162.3,145.3,161.9,144.9,161.6z"/>
			<path d="M149.8,160.5v0.7h-1.1v4.8h-0.9v-4.8H147v-0.7h0.7V160c0-0.6,0.2-1,0.5-1.3c0.3-0.3,0.8-0.4,1.5-0.4v0.7
				c-0.4,0-0.7,0.1-0.8,0.2c-0.2,0.2-0.2,0.4-0.2,0.8v0.5H149.8z"/>
			<path d="M153.1,166.1c-0.8,0-1.4-0.3-1.9-0.8c-0.5-0.5-0.7-1.2-0.7-2.1s0.2-1.5,0.8-2.1s1.1-0.8,1.9-0.8c0.8,0,1.4,0.2,1.9,0.7
				c0.5,0.5,0.7,1.1,0.7,1.9c0,0.2,0,0.4,0,0.5h-4.4c0,0.5,0.2,1,0.5,1.3c0.3,0.3,0.7,0.5,1.2,0.5c0.4,0,0.7-0.1,0.9-0.2
				c0.3-0.2,0.4-0.4,0.6-0.7h1c-0.2,0.5-0.5,0.9-0.9,1.2S153.8,166.1,153.1,166.1z M154.3,161.6c-0.3-0.3-0.7-0.5-1.2-0.5
				s-0.9,0.2-1.2,0.5c-0.3,0.3-0.5,0.7-0.5,1.3h3.4C154.8,162.3,154.7,161.9,154.3,161.6z"/>
			<path d="M157.8,160.5v0.9c0.3-0.7,0.9-1,1.7-1v1h-0.2c-0.5,0-0.8,0.1-1.1,0.4s-0.4,0.7-0.4,1.3v3h-0.9v-5.5H157.8z"/>
			<path d="M160.4,162c0-0.5,0.2-0.8,0.6-1.2c0.4-0.3,0.9-0.5,1.5-0.5c0.6,0,1.1,0.2,1.4,0.5c0.3,0.3,0.5,0.7,0.6,1.3h-0.9
				c0-0.3-0.1-0.6-0.3-0.7s-0.5-0.3-0.8-0.3s-0.6,0.1-0.8,0.2c-0.2,0.2-0.3,0.4-0.3,0.6c0,0.3,0.1,0.5,0.3,0.6
				c0.2,0.1,0.5,0.2,0.8,0.3c0.3,0.1,0.6,0.1,1,0.2c0.3,0.1,0.6,0.2,0.8,0.5c0.2,0.2,0.3,0.6,0.3,1c0,0.4-0.2,0.8-0.6,1.1
				s-0.9,0.4-1.5,0.4s-1.1-0.2-1.5-0.5c-0.4-0.3-0.6-0.7-0.6-1.3h0.9c0,0.3,0.1,0.6,0.3,0.7c0.2,0.2,0.5,0.3,0.8,0.3
				c0.4,0,0.6-0.1,0.8-0.2c0.2-0.2,0.3-0.3,0.3-0.6c0-0.2-0.1-0.4-0.2-0.6c-0.2-0.1-0.4-0.2-0.6-0.3c-0.2-0.1-0.5-0.1-0.8-0.2
				c-0.3-0.1-0.5-0.2-0.8-0.2c-0.2-0.1-0.4-0.2-0.6-0.4C160.5,162.6,160.4,162.3,160.4,162z"/>
		</g>
		<g class="st0">
			<path d="M39.3,179.2h0.8v0.7h-0.9c-1,0-1.4-0.5-1.4-1.4v-3.3H37v-0.7h0.7v-1.4h0.9v1.4h1.4v0.7h-1.4v3.3c0,0.2,0,0.4,0.1,0.5
				C38.9,179.2,39.1,179.2,39.3,179.2z"/>
			<path d="M41.5,179.3c-0.5-0.5-0.8-1.2-0.8-2s0.3-1.5,0.8-2.1c0.5-0.5,1.2-0.8,2-0.8c0.8,0,1.5,0.3,2,0.8c0.5,0.5,0.8,1.2,0.8,2
				c0,0.8-0.3,1.5-0.8,2s-1.2,0.8-2,0.8S42,179.8,41.5,179.3z M43.4,179.3c0.5,0,1-0.2,1.3-0.6c0.4-0.4,0.6-0.9,0.6-1.5
				s-0.2-1.2-0.5-1.5c-0.4-0.4-0.8-0.5-1.3-0.5s-0.9,0.2-1.3,0.5c-0.3,0.4-0.5,0.9-0.5,1.5c0,0.7,0.2,1.2,0.5,1.5
				S42.9,179.3,43.4,179.3z"/>
			<path d="M52.2,179.2h0.8v0.7H52c-1,0-1.4-0.5-1.4-1.4v-3.3h-0.7v-0.7h0.7v-1.4h0.9v1.4h1.4v0.7h-1.4v3.3c0,0.2,0,0.4,0.1,0.5
				C51.8,179.2,51.9,179.2,52.2,179.2z"/>
			<path d="M54.8,172.6v2.8c0.4-0.7,1-1,1.8-1c0.6,0,1.1,0.2,1.5,0.6c0.4,0.4,0.6,1,0.6,1.7v3.2h-0.9v-3.1c0-0.6-0.1-1-0.4-1.3
				c-0.3-0.3-0.6-0.4-1.1-0.4c-0.5,0-0.8,0.1-1.1,0.4c-0.3,0.3-0.4,0.7-0.4,1.3v3.1h-0.9v-7.4H54.8z"/>
			<path d="M62.5,180.1c-0.8,0-1.4-0.3-1.9-0.8c-0.5-0.5-0.7-1.2-0.7-2.1s0.2-1.5,0.8-2.1s1.1-0.8,1.9-0.8c0.8,0,1.4,0.2,1.9,0.7
				c0.5,0.5,0.7,1.1,0.7,1.9c0,0.2,0,0.4,0,0.5h-4.4c0,0.5,0.2,1,0.5,1.3c0.3,0.3,0.7,0.5,1.2,0.5c0.4,0,0.7-0.1,0.9-0.2
				c0.3-0.2,0.4-0.4,0.6-0.7h1c-0.2,0.5-0.5,0.9-0.9,1.2S63.2,180.1,62.5,180.1z M63.7,175.6c-0.3-0.3-0.7-0.5-1.2-0.5
				s-0.9,0.2-1.2,0.5c-0.3,0.3-0.5,0.7-0.5,1.3h3.4C64.2,176.3,64.1,175.9,63.7,175.6z"/>
			<path d="M69.1,176c0-0.5,0.2-0.8,0.6-1.2c0.4-0.3,0.9-0.5,1.5-0.5c0.6,0,1.1,0.2,1.4,0.5c0.3,0.3,0.5,0.7,0.6,1.3h-0.9
				c0-0.3-0.1-0.6-0.3-0.7s-0.5-0.3-0.8-0.3s-0.6,0.1-0.8,0.2c-0.2,0.2-0.3,0.4-0.3,0.6c0,0.3,0.1,0.5,0.3,0.6
				c0.2,0.1,0.5,0.2,0.8,0.3c0.3,0.1,0.6,0.1,1,0.2c0.3,0.1,0.6,0.2,0.8,0.5c0.2,0.2,0.3,0.6,0.3,1c0,0.4-0.2,0.8-0.6,1.1
				s-0.9,0.4-1.5,0.4s-1.1-0.2-1.5-0.5c-0.4-0.3-0.6-0.7-0.6-1.3h0.9c0,0.3,0.1,0.6,0.3,0.7c0.2,0.2,0.5,0.3,0.8,0.3
				c0.4,0,0.6-0.1,0.8-0.2c0.2-0.2,0.3-0.3,0.3-0.6c0-0.2-0.1-0.4-0.2-0.6c-0.2-0.1-0.4-0.2-0.6-0.3c-0.2-0.1-0.5-0.1-0.8-0.2
				c-0.3-0.1-0.5-0.2-0.8-0.2c-0.2-0.1-0.4-0.2-0.6-0.4C69.2,176.6,69.1,176.3,69.1,176z"/>
			<path d="M75.5,172.6v2.8c0.4-0.7,1-1,1.8-1c0.6,0,1.1,0.2,1.5,0.6c0.4,0.4,0.6,1,0.6,1.7v3.2h-0.9v-3.1c0-0.6-0.1-1-0.4-1.3
				c-0.3-0.3-0.6-0.4-1.1-0.4c-0.5,0-0.8,0.1-1.1,0.4c-0.3,0.3-0.4,0.7-0.4,1.3v3.1h-0.9v-7.4H75.5z"/>
			<path d="M81.3,179.3c-0.5-0.5-0.8-1.2-0.8-2s0.3-1.5,0.8-2.1c0.5-0.5,1.2-0.8,2-0.8c0.8,0,1.5,0.3,2,0.8c0.5,0.5,0.8,1.2,0.8,2
				c0,0.8-0.3,1.5-0.8,2s-1.2,0.8-2,0.8S81.8,179.8,81.3,179.3z M83.2,179.3c0.5,0,1-0.2,1.3-0.6c0.4-0.4,0.6-0.9,0.6-1.5
				s-0.2-1.2-0.5-1.5c-0.4-0.4-0.8-0.5-1.3-0.5s-0.9,0.2-1.3,0.5c-0.3,0.4-0.5,0.9-0.5,1.5c0,0.7,0.2,1.2,0.5,1.5
				S82.7,179.3,83.2,179.3z"/>
			<path d="M93.5,174.5h0.9l-1.7,5.5h-0.9l-1.2-4.4l-1.2,4.4h-1l-1.7-5.5h0.9l1.3,4.6l1.3-4.6H91l1.2,4.6L93.5,174.5z"/>
			<path d="M97.6,180.1c-0.8,0-1.4-0.3-1.9-0.8c-0.5-0.5-0.7-1.2-0.7-2.1s0.2-1.5,0.8-2.1s1.1-0.8,1.9-0.8c0.8,0,1.4,0.2,1.9,0.7
				c0.5,0.5,0.7,1.1,0.7,1.9c0,0.2,0,0.4,0,0.5h-4.4c0,0.5,0.2,1,0.5,1.3c0.3,0.3,0.7,0.5,1.2,0.5c0.4,0,0.7-0.1,0.9-0.2
				c0.3-0.2,0.4-0.4,0.6-0.7h1c-0.2,0.5-0.5,0.9-0.9,1.2S98.2,180.1,97.6,180.1z M98.8,175.6c-0.3-0.3-0.7-0.5-1.2-0.5
				s-0.9,0.2-1.2,0.5c-0.3,0.3-0.5,0.7-0.5,1.3h3.4C99.3,176.3,99.1,175.9,98.8,175.6z"/>
			<path d="M101.8,179.2c-0.5-0.5-0.8-1.2-0.8-2.1c0-0.8,0.2-1.5,0.7-2s1.1-0.8,1.9-0.8c0.5,0,0.9,0.1,1.2,0.3s0.6,0.5,0.8,0.9v-3
				h0.9v7.4h-0.9v-1.1c-0.2,0.4-0.4,0.7-0.8,0.9s-0.8,0.3-1.2,0.3C102.9,180.1,102.3,179.8,101.8,179.2z M105.1,178.7
				c0.4-0.4,0.5-0.9,0.5-1.5s-0.2-1.1-0.5-1.5c-0.4-0.4-0.8-0.6-1.3-0.6c-0.5,0-0.9,0.2-1.3,0.5c-0.4,0.4-0.5,0.8-0.5,1.5
				s0.2,1.1,0.6,1.5c0.4,0.4,0.8,0.6,1.3,0.6C104.3,179.3,104.7,179.1,105.1,178.7z"/>
			<path d="M111.5,179.3c-0.5-0.5-0.7-1.2-0.7-2.1c0-0.8,0.2-1.5,0.7-2.1c0.5-0.5,1.1-0.8,1.9-0.8c0.7,0,1.2,0.2,1.6,0.5
				c0.4,0.3,0.7,0.7,0.9,1.3h-1c-0.1-0.3-0.3-0.6-0.6-0.8c-0.3-0.2-0.6-0.3-1-0.3c-0.5,0-0.9,0.2-1.3,0.5s-0.5,0.9-0.5,1.5
				s0.2,1.2,0.5,1.5s0.7,0.5,1.3,0.5c0.8,0,1.3-0.3,1.5-1h1c-0.2,0.5-0.5,1-0.9,1.3c-0.4,0.3-1,0.5-1.6,0.5
				C112.6,180.1,111.9,179.8,111.5,179.3z"/>
			<path d="M117.5,179.3c-0.5-0.5-0.8-1.2-0.8-2s0.3-1.5,0.8-2.1c0.5-0.5,1.2-0.8,2-0.8c0.8,0,1.5,0.3,2,0.8c0.5,0.5,0.8,1.2,0.8,2
				c0,0.8-0.3,1.5-0.8,2s-1.2,0.8-2,0.8S118,179.8,117.5,179.3z M119.4,179.3c0.5,0,1-0.2,1.3-0.6c0.4-0.4,0.6-0.9,0.6-1.5
				s-0.2-1.2-0.5-1.5c-0.4-0.4-0.8-0.5-1.3-0.5s-0.9,0.2-1.3,0.5c-0.3,0.4-0.5,0.9-0.5,1.5c0,0.7,0.2,1.2,0.5,1.5
				S118.9,179.3,119.4,179.3z"/>
			<path d="M127.3,174.5h0.9v5.5h-0.9v-0.9c-0.4,0.6-1,1-1.8,1c-0.6,0-1.1-0.2-1.5-0.6s-0.6-1-0.6-1.7v-3.3h0.9v3.1
				c0,0.5,0.1,1,0.4,1.3s0.6,0.4,1.1,0.4s0.8-0.1,1.1-0.4s0.4-0.7,0.4-1.3V174.5z"/>
			<path d="M130.6,174.5v0.9c0.4-0.7,1-1,1.8-1c0.6,0,1.1,0.2,1.5,0.6c0.4,0.4,0.6,1,0.6,1.7v3.2h-0.9v-3.1c0-0.6-0.1-1-0.4-1.3
				c-0.3-0.3-0.6-0.4-1.1-0.4c-0.5,0-0.8,0.1-1.1,0.4c-0.3,0.3-0.4,0.7-0.4,1.3v3.1h-0.9v-5.5H130.6z"/>
			<path d="M137.8,179.2h0.8v0.7h-0.9c-1,0-1.4-0.5-1.4-1.4v-3.3h-0.7v-0.7h0.7v-1.4h0.9v1.4h1.4v0.7h-1.4v3.3c0,0.2,0,0.4,0.1,0.5
				C137.3,179.2,137.5,179.2,137.8,179.2z"/>
			<path d="M140.4,174.5v0.9c0.3-0.7,0.9-1,1.7-1v1h-0.2c-0.5,0-0.8,0.1-1.1,0.4s-0.4,0.7-0.4,1.3v3h-0.9v-5.5H140.4z"/>
			<path d="M144.1,173.4c-0.1,0.1-0.3,0.2-0.4,0.2s-0.3-0.1-0.4-0.2s-0.2-0.3-0.2-0.4c0-0.2,0.1-0.3,0.2-0.4
				c0.1-0.1,0.3-0.2,0.4-0.2s0.3,0.1,0.4,0.2s0.2,0.3,0.2,0.4C144.3,173.1,144.2,173.3,144.1,173.4z M143.2,180v-5.5h0.9v5.5H143.2z
				"/>
			<path d="M147.9,180.1c-0.8,0-1.4-0.3-1.9-0.8c-0.5-0.5-0.7-1.2-0.7-2.1s0.2-1.5,0.8-2.1s1.1-0.8,1.9-0.8c0.8,0,1.4,0.2,1.9,0.7
				c0.5,0.5,0.7,1.1,0.7,1.9c0,0.2,0,0.4,0,0.5h-4.4c0,0.5,0.2,1,0.5,1.3c0.3,0.3,0.7,0.5,1.2,0.5c0.4,0,0.7-0.1,0.9-0.2
				c0.3-0.2,0.4-0.4,0.6-0.7h1c-0.2,0.5-0.5,0.9-0.9,1.2S148.5,180.1,147.9,180.1z M149.1,175.6c-0.3-0.3-0.7-0.5-1.2-0.5
				s-0.9,0.2-1.2,0.5c-0.3,0.3-0.5,0.7-0.5,1.3h3.4C149.6,176.3,149.4,175.9,149.1,175.6z"/>
			<path d="M151.5,176c0-0.5,0.2-0.8,0.6-1.2c0.4-0.3,0.9-0.5,1.5-0.5c0.6,0,1.1,0.2,1.4,0.5c0.3,0.3,0.5,0.7,0.6,1.3h-0.9
				c0-0.3-0.1-0.6-0.3-0.7s-0.5-0.3-0.8-0.3s-0.6,0.1-0.8,0.2c-0.2,0.2-0.3,0.4-0.3,0.6c0,0.3,0.1,0.5,0.3,0.6
				c0.2,0.1,0.5,0.2,0.8,0.3c0.3,0.1,0.6,0.1,1,0.2c0.3,0.1,0.6,0.2,0.8,0.5c0.2,0.2,0.3,0.6,0.3,1c0,0.4-0.2,0.8-0.6,1.1
				s-0.9,0.4-1.5,0.4s-1.1-0.2-1.5-0.5c-0.4-0.3-0.6-0.7-0.6-1.3h0.9c0,0.3,0.1,0.6,0.3,0.7c0.2,0.2,0.5,0.3,0.8,0.3
				c0.4,0,0.6-0.1,0.8-0.2c0.2-0.2,0.3-0.3,0.3-0.6c0-0.2-0.1-0.4-0.2-0.6c-0.2-0.1-0.4-0.2-0.6-0.3c-0.2-0.1-0.5-0.1-0.8-0.2
				c-0.3-0.1-0.5-0.2-0.8-0.2c-0.2-0.1-0.4-0.2-0.6-0.4C151.6,176.6,151.5,176.3,151.5,176z"/>
		</g>
		<g>
			<text transform="matrix(1 0 0 1 98.6495 112.3273)" class="st1 st4">-1</text>
			<rect x="36.8" y="42.2" class="st5" width="12.2" height="8.1"/>
			<rect x="36.8" y="50.3" class="st6" width="12.2" height="8.1"/>
			<rect x="36.8" y="58.5" class="st7" width="12.2" height="8.1"/>
			<rect x="36.8" y="66.6" class="st8" width="12.2" height="8.1"/>
			<rect x="85.2" y="50.3" class="st9" width="12.3" height="8.1"/>
			<rect x="85.2" y="58.5" class="st10" width="12.3" height="8.1"/>
			<rect x="85.2" y="66.6" class="st11" width="12.4" height="8.1"/>
			<rect x="85.2" y="74.7" class="st12" width="12.3" height="8.2"/>
			<rect x="73.1" y="42.2" class="st13" width="12.2" height="8.1"/>
			<rect x="85.2" y="42.2" class="st14" width="12.3" height="8.1"/>
			<rect x="73.1" y="50.3" class="st15" width="12.2" height="8.1"/>
			<rect x="73.1" y="58.5" class="st16" width="12.2" height="8.1"/>
			<rect x="73.1" y="66.6" class="st17" width="12.2" height="8.1"/>
			<rect x="73.1" y="74.7" class="st18" width="12.2" height="8.2"/>
			<rect x="61.1" y="42.2" class="st19" width="12" height="8.1"/>
			<rect x="61.1" y="50.3" class="st20" width="12" height="8.1"/>
			<rect x="61.1" y="58.5" class="st21" width="12" height="8.1"/>
			<rect x="61.1" y="66.6" class="st22" width="12" height="8.1"/>
			<rect x="61.1" y="74.7" class="st23" width="12" height="8.2"/>
			<rect x="48.9" y="42.2" class="st24" width="12.2" height="8.1"/>
			<rect x="48.9" y="50.3" class="st25" width="12.2" height="8.1"/>
			<rect x="48.9" y="58.5" class="st26" width="12.2" height="8.1"/>
			<rect x="48.9" y="66.6" class="st27" width="12.2" height="8.1"/>
			<rect x="48.9" y="74.7" class="st28" width="12.2" height="8.2"/>
			<rect x="36.8" y="74.7" class="st29" width="12.2" height="8.2"/>
			<rect x="36.8" y="83" class="st30" width="12.2" height="8.1"/>
			<rect x="36.8" y="91.1" class="st31" width="12.2" height="8.1"/>
			<rect x="36.8" y="99.2" class="st32" width="12.2" height="8.1"/>
			<rect x="85.2" y="83" class="st33" width="12.3" height="8.1"/>
			<rect x="85.2" y="91.1" class="st34" width="12.3" height="8.1"/>
			<rect x="85.2" y="99.2" class="st35" width="12.3" height="8.1"/>
			<rect x="85.2" y="107.4" class="st36" width="12.3" height="8.1"/>
			<rect x="73.1" y="83" class="st37" width="12.2" height="8.1"/>
			<rect x="73.1" y="91.1" class="st38" width="12.2" height="8.1"/>
			<rect x="73.1" y="99.2" class="st39" width="12.2" height="8.1"/>
			<rect x="73.1" y="107.4" class="st40" width="12.2" height="8.1"/>
			<rect x="109.2" y="50.3" class="st41" width="11.7" height="8.1"/>
			<rect x="109.2" y="58.5" class="st42" width="11.7" height="8.1"/>
			<rect x="109.2" y="66.6" class="st43" width="11.7" height="8.1"/>
			<rect x="109.2" y="74.7" class="st44" width="11.7" height="8.2"/>
			<rect x="97.6" y="42.2" class="st45" width="11.7" height="8.1"/>
			<rect x="109.2" y="42.2" class="st46" width="11.7" height="8.1"/>
			<rect x="97.6" y="50.3" class="st47" width="11.7" height="8.1"/>
			<rect x="97.6" y="58.5" class="st48" width="11.7" height="8.1"/>
			<rect x="97.6" y="66.6" class="st49" width="11.7" height="8.1"/>
			<rect x="97.6" y="74.7" class="st50" width="11.7" height="8.2"/>
			<rect x="109.2" y="83" class="st51" width="11.7" height="8.1"/>
			<rect x="109.2" y="91.1" class="st52" width="11.7" height="8.1"/>
			<rect x="109.2" y="99.2" class="st53" width="11.7" height="8.1"/>
			<rect x="109.2" y="107.4" class="st54" width="11.7" height="8.1"/>
			<rect x="97.6" y="83" class="st55" width="11.7" height="8.1"/>
			<rect x="97.6" y="91.1" class="st56" width="11.7" height="8.1"/>
			<rect x="97.6" y="99.2" class="st57" width="11.7" height="8.1"/>
			<rect x="97.6" y="107.4" class="st58" width="11.7" height="8.1"/>
			<rect x="61.1" y="83" class="st59" width="12" height="8.1"/>
			<rect x="61.1" y="91.1" class="st60" width="12" height="8.1"/>
			<rect x="61.1" y="99.2" class="st61" width="12" height="8.1"/>
			<rect x="61.1" y="107.4" class="st62" width="12" height="8.1"/>
			<rect x="48.9" y="83" class="st63" width="12.2" height="8.1"/>
			<rect x="48.9" y="91.1" class="st64" width="12.2" height="8.1"/>
			<rect x="48.9" y="99.2" class="st65" width="12.2" height="8.1"/>
			<rect x="48.9" y="107.4" class="st66" width="12.2" height="8.1"/>
			<rect x="36.8" y="107.4" class="st67" width="12.2" height="8.1"/>
		</g>
		<polygon class="st68" points="60.9,99.2 60.9,107.4 48.8,107.4 36.9,107.4 37.3,74.8 48.8,74.7 60.9,74.7 		"/>
	</g>
	<g>
		<g class="st0">
			<path class="st3" d="M263.1,20.2c0.2,0,0.3,0,0.5-0.1s0.3-0.2,0.3-0.3c0,0-0.1-0.3-0.3-0.8l-0.4-0.9c0,0-0.1,0-0.1,0
				c-0.1,0-0.5,0-1.1,0c-0.5,0-0.9,0-1.2,0c0,0-0.1,0-0.1,0.1l-0.4,0.9c-0.2,0.4-0.2,0.6-0.2,0.7s0.1,0.2,0.2,0.3s0.3,0.1,0.4,0.1
				s0.2,0,0.3,0c0,0,0,0.1,0,0.2s0,0.2,0,0.2c-0.1,0-0.3,0-0.6-0.1s-0.6,0-0.8,0s-0.4,0-0.7,0s-0.5,0-0.6,0.1c0,0,0-0.1,0-0.2
				c0-0.2,0-0.2,0-0.2c0.1,0,0.2,0,0.5-0.1s0.4-0.2,0.4-0.3c0.1-0.1,0.1-0.2,0.2-0.3s0.1-0.2,0.2-0.3l0.1-0.1l2.6-6
				c0.1-0.2,0.2-0.3,0.4-0.3c0.1,0,0.2,0.1,0.3,0.2l2.4,5.9c0.1,0.4,0.3,0.7,0.4,1c0,0.1,0.2,0.2,0.4,0.3s0.4,0.1,0.5,0.1
				c0,0,0,0.1,0,0.2s0,0.2,0,0.2c0,0-0.3,0-0.7,0s-0.8,0-1,0c-0.1,0-0.6,0-1.8,0.1c0,0,0-0.1,0-0.2S263,20.2,263.1,20.2z
				 M261.2,17.4c0.2,0,0.5,0,0.9,0c0.3,0,0.6,0,0.8,0l0-0.1l-0.8-2.1L261.2,17.4C261.1,17.3,261.1,17.4,261.2,17.4z"/>
			<path class="st3" d="M271.1,15.4c0.6,0,1,0.3,1.2,0.8c0.5-0.5,1.2-0.8,2.1-0.8c0.5,0,0.8,0.2,1.1,0.6s0.4,1,0.4,1.7v1.2
				c0,0.5,0,0.9,0.1,1.1c0,0.1,0.1,0.1,0.3,0.2s0.3,0.1,0.4,0.1c0,0,0,0.1,0,0.2s0,0.2,0,0.2c-0.1,0-0.3,0-0.7-0.1s-0.7,0-0.9,0
				c-0.2,0-0.5,0-0.9,0s-0.6,0-0.7,0.1c0,0,0-0.1,0-0.2s0-0.2,0-0.2c0.1,0,0.2,0,0.4-0.1s0.3-0.1,0.3-0.2c0.1-0.2,0.1-0.5,0.1-0.9
				V18c0-0.5-0.1-0.9-0.2-1.2s-0.4-0.4-0.8-0.4c-0.4,0-0.7,0.1-0.8,0.4c0,0.1,0,0.1,0,0.2c0,0.1,0,0.4,0,0.6v1.2
				c0,0.5,0,0.9,0.1,1.1c0,0.1,0.1,0.1,0.3,0.2s0.3,0.1,0.4,0.1c0,0,0,0.1,0,0.2s0,0.2,0,0.2c-0.1,0-0.3,0-0.7-0.1s-0.7,0-0.9,0
				c-0.2,0-0.5,0-0.9,0s-0.6,0-0.7,0.1c0,0,0-0.1,0-0.2s0-0.2,0-0.2c0.1,0,0.2,0,0.4-0.1s0.3-0.1,0.3-0.2c0.1-0.2,0.1-0.5,0.1-0.9
				V18c0-0.6-0.1-1-0.2-1.2s-0.4-0.4-0.8-0.4c-0.2,0-0.4,0-0.6,0.1s-0.2,0.2-0.2,0.4v2c0,0.5,0,0.9,0.1,1.1c0,0.1,0.1,0.1,0.3,0.2
				s0.3,0.1,0.4,0.1c0,0,0,0.1,0,0.2s0,0.2,0,0.2c-0.1,0-0.3,0-0.7-0.1s-0.7,0-0.8,0c-0.2,0-0.5,0-0.9,0s-0.6,0-0.7,0.1
				c0,0,0-0.1,0-0.2s0-0.2,0-0.2c0.1,0,0.2,0,0.4-0.1s0.3-0.1,0.3-0.2c0.1-0.2,0.1-0.5,0.1-0.9v-1.6c0-0.4-0.1-0.7-0.2-0.9
				c-0.1-0.1-0.1-0.1-0.2-0.2s-0.2-0.1-0.3-0.1s-0.1,0-0.1,0c0-0.3,0-0.4,0.1-0.4c0.1,0,0.2,0,0.5-0.1s0.5-0.1,0.9-0.2
				s0.6-0.1,0.8-0.2c0,0,0,0,0.1,0s0,0,0.1,0l0,0c0,0,0.1,0,0.1,0.1s0.1,0.1,0.1,0.1c0,0.2,0,0.3,0,0.4c0,0,0,0.1,0,0.1
				c0,0,0,0,0.1-0.1C269.9,15.6,270.4,15.4,271.1,15.4z"/>
			<path class="st3" d="M278.1,16.1c0.5-0.5,1.2-0.8,2-0.8s1.4,0.3,2,0.8s0.8,1.1,0.8,1.9s-0.3,1.4-0.8,1.9s-1.2,0.8-2,0.8
				c-0.8,0-1.4-0.3-2-0.8s-0.8-1.1-0.8-1.9S277.5,16.6,278.1,16.1z M279.9,16c-0.2,0-0.4,0.1-0.6,0.3s-0.2,0.4-0.3,0.6
				s-0.1,0.5-0.1,0.8c0,1.6,0.4,2.4,1.2,2.4c0.3,0,0.6-0.2,0.7-0.5s0.2-0.7,0.2-1.1C281.1,16.8,280.7,16,279.9,16z"/>
			<path class="st3" d="M289.1,16.8v2.3c0,0.4,0,0.7,0.1,0.7c0,0,0.1,0.1,0.2,0.1s0.2,0,0.3,0h0.1c0,0,0,0,0,0.1
				c0,0.2,0,0.3-0.1,0.3c-0.1,0-0.3,0-0.5,0s-0.4,0-0.6,0.1s-0.4,0.1-0.5,0.1s-0.3,0-0.4,0.1l-0.2,0c0,0-0.1-0.1-0.1-0.2V20
				c0,0,0-0.1,0-0.1s0,0,0,0c-0.2,0.2-0.4,0.3-0.7,0.5s-0.7,0.2-1,0.2c-0.5,0-0.8-0.2-1.1-0.6s-0.4-0.9-0.4-1.5v-1.1
				c0-0.4-0.1-0.7-0.2-0.9c-0.1-0.1-0.1-0.1-0.2-0.2s-0.2-0.1-0.3-0.1s-0.1,0-0.1,0c0-0.3,0-0.4,0.1-0.4c0.1,0,0.5-0.1,1-0.2
				s0.9-0.2,1.1-0.3l0.1,0c0,0,0.1,0,0.1,0c0,0,0.1,0,0.1,0.1s0.1,0.1,0.1,0.1c-0.1,0.7-0.1,1.1-0.1,1.2V18c0,0.6,0.1,1,0.2,1.3
				s0.4,0.4,0.8,0.4c0.3,0,0.5-0.1,0.6-0.2s0.2-0.3,0.2-0.4v-1.7c0-0.4-0.1-0.7-0.2-0.9c-0.1-0.1-0.1-0.1-0.2-0.2s-0.2-0.1-0.3-0.1
				s-0.1,0-0.1,0c0-0.3,0-0.4,0.1-0.4c0.1,0,0.5-0.1,1-0.2s0.9-0.2,1.1-0.3c0,0,0,0,0.1,0l0.1,0c0,0,0.1,0,0.1,0.1s0.1,0.1,0.1,0.1
				C289.1,16.3,289.1,16.7,289.1,16.8z"/>
			<path class="st3" d="M294.6,15.4c0.5,0,0.8,0.2,1.1,0.6s0.4,1,0.4,1.7v1.2c0,0.5,0,0.9,0.1,1.1c0,0.1,0.1,0.1,0.3,0.2
				s0.3,0.1,0.4,0.1c0,0,0,0.1,0,0.2s0,0.2,0,0.2c-0.1,0-0.3,0-0.7-0.1s-0.7,0-0.9,0c-0.2,0-0.5,0-0.8,0s-0.6,0-0.7,0.1
				c0,0,0-0.1,0-0.2s0-0.2,0-0.2c0.1,0,0.2,0,0.4-0.1s0.3-0.1,0.3-0.2c0.1-0.2,0.1-0.5,0.1-0.9V18c0-0.6-0.1-1-0.2-1.2
				s-0.4-0.4-0.8-0.4c-0.2,0-0.4,0-0.6,0.1s-0.2,0.2-0.2,0.4v2c0,0.5,0,0.9,0.1,1.1c0,0.1,0.1,0.1,0.3,0.2s0.3,0.1,0.4,0.1
				c0,0,0,0.1,0,0.2s0,0.2,0,0.2c-0.1,0-0.3,0-0.7-0.1s-0.7,0-0.8,0c-0.2,0-0.5,0-0.9,0s-0.6,0-0.7,0.1c0,0,0-0.1,0-0.2s0-0.2,0-0.2
				c0.1,0,0.2,0,0.4-0.1s0.3-0.1,0.3-0.2c0.1-0.2,0.1-0.5,0.1-0.9v-1.6c0-0.4-0.1-0.7-0.2-0.9c-0.1-0.1-0.1-0.1-0.2-0.2
				s-0.2-0.1-0.3-0.1s-0.1,0-0.1,0c0-0.3,0-0.4,0.1-0.4c0.1,0,0.2,0,0.5-0.1s0.5-0.1,0.9-0.2s0.6-0.1,0.8-0.2c0,0,0,0,0.1,0
				s0,0,0.1,0l0,0c0,0,0.1,0,0.1,0.1s0.1,0.1,0.1,0.1c0,0.2,0,0.3,0,0.4c0,0,0,0.1,0,0.1c0,0,0,0,0.1-0.1
				C293.5,15.6,294,15.4,294.6,15.4z"/>
			<path class="st3" d="M298.5,16.3h-0.8c-0.1,0-0.1-0.1-0.1-0.4c0-0.1,0-0.1,0-0.1c0.4-0.2,0.8-0.4,1.1-0.6
				c0.1-0.1,0.3-0.2,0.4-0.3s0.3-0.3,0.4-0.4s0.2-0.2,0.2-0.2c0.1,0,0.1,0,0.2,0s0.1,0.1,0.1,0.1v1.1h1.3c0.1,0,0.1,0,0.1,0.1
				c0,0.2,0,0.4-0.1,0.6h-1.2V19c0,0.6,0.2,0.9,0.6,0.9c0.1,0,0.2,0,0.3,0s0.2-0.1,0.2-0.1s0.1,0,0.1,0c0,0,0.1,0,0.1,0.1
				s0.1,0.1,0.1,0.2c0,0.1-0.2,0.2-0.5,0.4s-0.6,0.2-0.9,0.2c-0.4,0-0.8-0.1-1.1-0.4s-0.5-0.7-0.5-1.3V16.3z"/>
			<path class="st3" d="M305.3,16.1c0.5-0.5,1.2-0.8,2-0.8s1.4,0.3,2,0.8s0.8,1.1,0.8,1.9s-0.3,1.4-0.8,1.9s-1.2,0.8-2,0.8
				c-0.8,0-1.4-0.3-2-0.8s-0.8-1.1-0.8-1.9S304.8,16.6,305.3,16.1z M307.1,16c-0.2,0-0.4,0.1-0.6,0.3s-0.2,0.4-0.3,0.6
				s-0.1,0.5-0.1,0.8c0,1.6,0.4,2.4,1.2,2.4c0.3,0,0.6-0.2,0.7-0.5s0.2-0.7,0.2-1.1C308.4,16.8,307.9,16,307.1,16z"/>
			<path class="st3" d="M314.3,12.4c0.3,0,0.6,0,0.9,0.1s0.4,0.2,0.5,0.3c0,0.1,0,0.3,0,0.5s-0.1,0.3-0.2,0.5s-0.2,0.2-0.4,0.2
				c-0.2,0-0.3-0.1-0.4-0.2s-0.2-0.3-0.4-0.4s-0.2-0.2-0.4-0.2c-0.2,0-0.4,0.2-0.6,0.5s-0.2,0.8-0.2,1.3v0.5c0,0,0,0.1,0.1,0.1h1.3
				c0,0,0.1,0,0.1,0.1c0,0.2,0,0.4-0.1,0.6h-1.2c0,0-0.1,0-0.1,0.1v2.5c0,0.5,0,0.9,0.1,1.1c0,0.1,0.1,0.1,0.3,0.2s0.3,0.1,0.4,0.1
				c0,0,0,0.1,0,0.2s0,0.2,0,0.2c-0.1,0-0.3,0-0.7-0.1s-0.7,0-0.9,0c-0.2,0-0.5,0-0.9,0s-0.6,0-0.7,0.1c0,0,0-0.1,0-0.2s0-0.2,0-0.2
				c0.1,0,0.2,0,0.4-0.1s0.3-0.1,0.3-0.2c0.1-0.2,0.1-0.5,0.1-0.9v-2.7c0-0.1,0-0.1-0.1-0.1h-0.8c0,0,0,0,0-0.1c0-0.1,0-0.2,0.1-0.4
				s0.2-0.2,0.3-0.2h0.3c0,0,0.1,0,0.1-0.1v-0.1c0-0.8,0.2-1.5,0.7-2.1S313.6,12.4,314.3,12.4z"/>
			<path class="st3" d="M320.2,15.3c0.5,0,1,0.2,1.3,0.5s0.4,0.8,0.4,1.6v1.9c0,0.3,0.1,0.4,0.3,0.4c0.1,0,0.3-0.1,0.4-0.2
				c0.1,0,0.1,0.1,0.1,0.2c0,0.2,0,0.3-0.1,0.4c-0.1,0.1-0.3,0.2-0.5,0.3s-0.5,0.2-0.7,0.2c-0.2,0-0.4-0.1-0.5-0.2s-0.3-0.2-0.3-0.4
				c0,0,0,0-0.1,0.1s-0.1,0.1-0.2,0.1s-0.2,0.1-0.3,0.2s-0.2,0.1-0.4,0.1s-0.3,0.1-0.5,0.1c-0.4,0-0.8-0.1-1-0.4s-0.4-0.5-0.4-0.9
				c0-0.2,0-0.4,0.1-0.6s0.2-0.3,0.3-0.4s0.3-0.2,0.5-0.3s0.4-0.2,0.6-0.2s0.4-0.1,0.6-0.2s0.4-0.1,0.5-0.1c0.1,0,0.1-0.1,0.1-0.2
				v-0.4c0-0.6-0.2-1-0.6-1c-0.5,0-0.7,0.3-0.7,0.8c0,0.2-0.1,0.3-0.2,0.4s-0.3,0.1-0.5,0.1c-0.4,0-0.6-0.1-0.7-0.4
				c0-0.4,0.3-0.8,0.8-1.1S319.6,15.3,320.2,15.3z M319.7,19.8c0.2,0,0.4,0,0.5-0.1s0.2-0.2,0.2-0.4v-1.2c0,0-0.1,0-0.2,0.1
				s-0.2,0.1-0.3,0.1s-0.1,0-0.2,0.1s-0.2,0.1-0.2,0.1s-0.1,0.1-0.2,0.1s-0.1,0.1-0.1,0.2s0,0.1,0,0.2c0,0.3,0.1,0.5,0.2,0.6
				S319.6,19.8,319.7,19.8z"/>
			<path class="st3" d="M326.7,15.4c0.7,0,1.4,0.3,1.8,0.8s0.7,1.1,0.7,1.8c0,0.9-0.3,1.5-0.8,2s-1.3,0.7-2.1,0.7
				c-0.1,0-0.2,0-0.3,0s-0.2,0-0.3-0.1s-0.1,0-0.1,0c0,0,0,0.1,0,0.2v0.6c0,0.5,0,0.9,0.1,1.1c0,0.1,0.1,0.1,0.3,0.2
				s0.3,0.1,0.4,0.1c0,0,0,0.1,0,0.2s0,0.2,0,0.2c-0.1,0-0.3,0-0.7-0.1s-0.7,0-0.9,0c-0.2,0-0.5,0-0.9,0s-0.6,0-0.7,0.1
				c0,0,0-0.1,0-0.2s0-0.2,0-0.2c0.1,0,0.2,0,0.4-0.1s0.3-0.1,0.3-0.2c0.1-0.2,0.1-0.5,0.1-0.9v-4.1c0-0.4-0.1-0.7-0.2-0.9
				c-0.1-0.1-0.1-0.1-0.2-0.2s-0.2-0.1-0.3-0.1s-0.1,0-0.1,0c0-0.3,0-0.4,0.1-0.4c0.5,0,1.1-0.1,1.9-0.3c0.2-0.1,0.4-0.1,0.4-0.1
				c0,0,0.1,0.1,0.1,0.2c0,0,0,0.1,0,0.2C326,15.5,326.4,15.4,326.7,15.4z M326.6,16c-0.3,0-0.5,0.1-0.7,0.2s-0.2,0.4-0.2,0.6v2.2
				c0,0.3,0.1,0.5,0.3,0.7s0.4,0.2,0.6,0.2c0.7,0,1.1-0.6,1.1-1.7C327.6,16.8,327.3,16,326.6,16z"/>
			<path class="st3" d="M333.4,15.4c0.7,0,1.4,0.3,1.8,0.8s0.7,1.1,0.7,1.8c0,0.9-0.3,1.5-0.8,2s-1.3,0.7-2.1,0.7
				c-0.1,0-0.2,0-0.3,0s-0.2,0-0.3-0.1s-0.1,0-0.1,0c0,0,0,0.1,0,0.2v0.6c0,0.5,0,0.9,0.1,1.1c0,0.1,0.1,0.1,0.3,0.2
				s0.3,0.1,0.4,0.1c0,0,0,0.1,0,0.2s0,0.2,0,0.2c-0.1,0-0.3,0-0.7-0.1s-0.7,0-0.9,0c-0.2,0-0.5,0-0.9,0s-0.6,0-0.7,0.1
				c0,0,0-0.1,0-0.2s0-0.2,0-0.2c0.1,0,0.2,0,0.4-0.1s0.3-0.1,0.3-0.2c0.1-0.2,0.1-0.5,0.1-0.9v-4.1c0-0.4-0.1-0.7-0.2-0.9
				c-0.1-0.1-0.1-0.1-0.2-0.2s-0.2-0.1-0.3-0.1s-0.1,0-0.1,0c0-0.3,0-0.4,0.1-0.4c0.5,0,1.1-0.1,1.9-0.3c0.2-0.1,0.4-0.1,0.4-0.1
				c0,0,0.1,0.1,0.1,0.2c0,0,0,0.1,0,0.2C332.6,15.5,333,15.4,333.4,15.4z M333.2,16c-0.3,0-0.5,0.1-0.7,0.2s-0.2,0.4-0.2,0.6v2.2
				c0,0.3,0.1,0.5,0.3,0.7s0.4,0.2,0.6,0.2c0.7,0,1.1-0.6,1.1-1.7C334.3,16.8,333.9,16,333.2,16z"/>
			<path class="st3" d="M340.4,15.4c0.3,0,0.7,0.1,1,0.4c0,0.4,0,0.7-0.1,0.9S341,17,340.7,17c-0.2,0-0.3-0.1-0.5-0.3
				s-0.4-0.3-0.5-0.3c-0.2,0-0.4,0.1-0.5,0.4s-0.1,0.5-0.1,0.8v1.2c0,0.5,0,0.8,0.1,1.1c0,0.1,0.1,0.1,0.3,0.2s0.3,0.1,0.4,0.1
				c0,0,0,0.1,0,0.2s0,0.2,0,0.2c-0.1,0-0.3,0-0.7-0.1s-0.7,0-0.8,0c-0.2,0-0.5,0-0.9,0s-0.6,0-0.7,0.1c0,0,0-0.1,0-0.2s0-0.2,0-0.2
				c0.1,0,0.2,0,0.4-0.1s0.3-0.1,0.3-0.2c0.1-0.2,0.1-0.5,0.1-0.9v-1.6c0-0.4-0.1-0.7-0.2-0.9c-0.1-0.1-0.1-0.1-0.2-0.2
				s-0.2-0.1-0.3-0.1s-0.1,0-0.1,0c0-0.3,0-0.4,0.1-0.4c0.1,0,0.2,0,0.5-0.1s0.5-0.1,0.9-0.2s0.6-0.1,0.8-0.2c0.1,0,0.1,0,0.1,0
				c0,0,0.1,0,0.1,0.1s0.1,0.1,0.1,0.1c0,0.1,0,0.2,0,0.3s0,0.2,0,0.2C339.4,15.6,339.9,15.4,340.4,15.4z"/>
			<path class="st3" d="M342.8,16.1c0.5-0.5,1.2-0.8,2-0.8s1.4,0.3,2,0.8s0.8,1.1,0.8,1.9s-0.3,1.4-0.8,1.9s-1.2,0.8-2,0.8
				c-0.8,0-1.4-0.3-2-0.8S342,18.8,342,18S342.3,16.6,342.8,16.1z M344.6,16c-0.2,0-0.4,0.1-0.6,0.3s-0.2,0.4-0.3,0.6
				s-0.1,0.5-0.1,0.8c0,1.6,0.4,2.4,1.2,2.4c0.3,0,0.6-0.2,0.7-0.5s0.2-0.7,0.2-1.1C345.8,16.8,345.4,16,344.6,16z"/>
			<path class="st3" d="M352.5,16.1c-0.2-0.2-0.4-0.2-0.8-0.2c0,0,0-0.1,0-0.2s0-0.2,0-0.2c0.1,0,0.3,0,0.6,0.1s0.5,0,0.7,0
				c0.2,0,0.4,0,0.7,0s0.5,0,0.6-0.1c0,0,0,0.1,0,0.2c0,0.2,0,0.2,0,0.2c-0.1,0-0.3,0-0.5,0.1s-0.4,0.2-0.4,0.3l-2.1,4.1
				c-0.1,0.2-0.2,0.3-0.4,0.3c-0.1,0-0.2,0-0.2-0.1l-1.9-4.4c-0.1-0.1-0.2-0.3-0.4-0.3s-0.3-0.1-0.5-0.1c0,0,0-0.1,0-0.2
				c0-0.1,0-0.2,0-0.2c0.1,0,0.3,0,0.7,0.1s0.7,0,0.9,0c0.2,0,0.5,0,0.9,0s0.7,0,0.7,0c0,0,0,0.1,0,0.2s0,0.2,0,0.2
				c-0.1,0-0.3,0-0.5,0.1s-0.3,0.1-0.3,0.2l0,0.2l0.9,2.2l0.9-1.9C352.6,16.4,352.6,16.2,352.5,16.1z"/>
			<path class="st3" d="M357.7,15.4c0.7,0,1.3,0.2,1.7,0.7s0.6,1,0.6,1.5c0,0.2,0,0.3-0.1,0.4s-0.2,0.1-0.4,0.1h-2.6
				c0,0-0.1,0-0.1,0.1c0,0.4,0.1,0.8,0.4,1.1s0.6,0.5,1,0.5c0.3,0,0.5,0,0.7-0.1s0.4-0.1,0.5-0.2s0.2-0.1,0.4-0.3
				c0.1,0,0.1,0.1,0.1,0.2c0,0.1,0,0.2,0,0.2c-0.1,0.2-0.3,0.4-0.7,0.7s-0.8,0.4-1.3,0.4c-0.7,0-1.3-0.3-1.9-0.8s-0.8-1.2-0.8-1.9
				c0-0.8,0.2-1.4,0.7-1.9S356.9,15.4,357.7,15.4z M357.6,16c-0.3,0-0.5,0.1-0.7,0.4s-0.2,0.6-0.2,0.9c0,0,0,0.1,0.1,0.1h1.5
				c0.1,0,0.2-0.1,0.2-0.2c0-0.3-0.1-0.6-0.2-0.8S357.9,16,357.6,16z"/>
			<path class="st3" d="M363.3,15.4c0.3,0,0.6,0,0.8,0.1c0,0,0-0.1,0-0.2v-0.9c0-0.3,0-0.6-0.1-0.8c0-0.1-0.2-0.2-0.6-0.2h-0.1
				c0,0-0.1-0.1-0.1-0.2c0-0.1,0-0.2,0.1-0.2c0.2,0,0.5-0.1,0.7-0.1s0.5-0.1,0.6-0.1s0.3-0.1,0.5-0.1s0.2-0.1,0.3-0.1l0.1,0h0
				c0,0,0.1,0,0.1,0.1s0.1,0.1,0.1,0.1c-0.1,0.4-0.1,0.7-0.1,1.2v5c0,0.3,0,0.6,0.1,0.8c0,0.1,0.1,0.1,0.1,0.1s0.1,0.1,0.2,0.1
				s0.2,0,0.2,0l0.1,0c0,0,0,0.1,0,0.1c0,0.2,0,0.3-0.1,0.3c-0.1,0-0.3,0-0.5,0s-0.4,0-0.6,0.1s-0.4,0.1-0.5,0.1s-0.3,0.1-0.4,0.1
				l-0.2,0c0,0-0.1-0.1-0.1-0.2v-0.2c0,0,0-0.1,0-0.1s0,0,0,0c-0.3,0.3-0.7,0.5-1.2,0.5c-0.6,0-1.2-0.2-1.7-0.7s-0.7-1.1-0.7-1.8
				c0-0.8,0.3-1.4,0.8-2S362.5,15.4,363.3,15.4z M363.2,16c-0.4,0-0.6,0.1-0.8,0.4s-0.3,0.8-0.3,1.4c0,1.4,0.4,2.1,1.1,2.1
				c0.3,0,0.5-0.1,0.7-0.2s0.3-0.3,0.3-0.6V17c0-0.1,0-0.2,0-0.3s-0.1-0.2-0.1-0.3s-0.2-0.2-0.3-0.3S363.4,16,363.2,16z"/>
			<path class="st3" d="M373.1,12.4c0.3,0,0.6,0,0.9,0.1s0.4,0.2,0.5,0.3c0,0.1,0,0.3,0,0.5s-0.1,0.3-0.2,0.5s-0.2,0.2-0.4,0.2
				c-0.2,0-0.3-0.1-0.4-0.2s-0.2-0.3-0.4-0.4s-0.2-0.2-0.4-0.2c-0.2,0-0.4,0.2-0.6,0.5S372,14.5,372,15v0.5c0,0,0,0.1,0.1,0.1h1.3
				c0,0,0.1,0,0.1,0.1c0,0.2,0,0.4-0.1,0.6h-1.2c0,0-0.1,0-0.1,0.1v2.5c0,0.5,0,0.9,0.1,1.1c0,0.1,0.1,0.1,0.3,0.2s0.3,0.1,0.4,0.1
				c0,0,0,0.1,0,0.2s0,0.2,0,0.2c-0.1,0-0.3,0-0.7-0.1s-0.7,0-0.9,0c-0.2,0-0.5,0-0.9,0s-0.6,0-0.7,0.1c0,0,0-0.1,0-0.2s0-0.2,0-0.2
				c0.1,0,0.2,0,0.4-0.1s0.3-0.1,0.3-0.2c0.1-0.2,0.1-0.5,0.1-0.9v-2.7c0-0.1,0-0.1-0.1-0.1h-0.8c0,0,0,0,0-0.1c0-0.1,0-0.2,0.1-0.4
				s0.2-0.2,0.3-0.2h0.3c0,0,0.1,0,0.1-0.1v-0.1c0-0.8,0.2-1.5,0.7-2.1S372.4,12.4,373.1,12.4z"/>
			<path class="st3" d="M379.6,16.8v2.3c0,0.4,0,0.7,0.1,0.7c0,0,0.1,0.1,0.2,0.1s0.2,0,0.3,0h0.1c0,0,0,0,0,0.1
				c0,0.2,0,0.3-0.1,0.3c-0.1,0-0.3,0-0.5,0s-0.4,0-0.6,0.1s-0.4,0.1-0.5,0.1s-0.3,0-0.4,0.1l-0.2,0c0,0-0.1-0.1-0.1-0.2V20
				c0,0,0-0.1,0-0.1s0,0,0,0c-0.2,0.2-0.4,0.3-0.7,0.5s-0.7,0.2-1,0.2c-0.5,0-0.8-0.2-1.1-0.6s-0.4-0.9-0.4-1.5v-1.1
				c0-0.4-0.1-0.7-0.2-0.9c-0.1-0.1-0.1-0.1-0.2-0.2s-0.2-0.1-0.3-0.1s-0.1,0-0.1,0c0-0.3,0-0.4,0.1-0.4c0.1,0,0.5-0.1,1-0.2
				s0.9-0.2,1.1-0.3l0.1,0c0,0,0.1,0,0.1,0c0,0,0.1,0,0.1,0.1s0.1,0.1,0.1,0.1c-0.1,0.7-0.1,1.1-0.1,1.2V18c0,0.6,0.1,1,0.2,1.3
				s0.4,0.4,0.8,0.4c0.3,0,0.5-0.1,0.6-0.2s0.2-0.3,0.2-0.4v-1.7c0-0.4-0.1-0.7-0.2-0.9c-0.1-0.1-0.1-0.1-0.2-0.2s-0.2-0.1-0.3-0.1
				s-0.1,0-0.1,0c0-0.3,0-0.4,0.1-0.4c0.1,0,0.5-0.1,1-0.2s0.9-0.2,1.1-0.3c0,0,0,0,0.1,0l0.1,0c0,0,0.1,0,0.1,0.1s0.1,0.1,0.1,0.1
				C379.7,16.3,379.6,16.7,379.6,16.8z"/>
			<path class="st3" d="M385.2,15.4c0.5,0,0.8,0.2,1.1,0.6s0.4,1,0.4,1.7v1.2c0,0.5,0,0.9,0.1,1.1c0,0.1,0.1,0.1,0.3,0.2
				s0.3,0.1,0.4,0.1c0,0,0,0.1,0,0.2s0,0.2,0,0.2c-0.1,0-0.3,0-0.7-0.1s-0.7,0-0.9,0c-0.2,0-0.5,0-0.8,0s-0.6,0-0.7,0.1
				c0,0,0-0.1,0-0.2s0-0.2,0-0.2c0.1,0,0.2,0,0.4-0.1s0.3-0.1,0.3-0.2c0.1-0.2,0.1-0.5,0.1-0.9V18c0-0.6-0.1-1-0.2-1.2
				s-0.4-0.4-0.8-0.4c-0.2,0-0.4,0-0.6,0.1s-0.2,0.2-0.2,0.4v2c0,0.5,0,0.9,0.1,1.1c0,0.1,0.1,0.1,0.3,0.2s0.3,0.1,0.4,0.1
				c0,0,0,0.1,0,0.2s0,0.2,0,0.2c-0.1,0-0.3,0-0.7-0.1s-0.7,0-0.8,0c-0.2,0-0.5,0-0.9,0s-0.6,0-0.7,0.1c0,0,0-0.1,0-0.2s0-0.2,0-0.2
				c0.1,0,0.2,0,0.4-0.1s0.3-0.1,0.3-0.2c0.1-0.2,0.1-0.5,0.1-0.9v-1.6c0-0.4-0.1-0.7-0.2-0.9c-0.1-0.1-0.1-0.1-0.2-0.2
				s-0.2-0.1-0.3-0.1s-0.1,0-0.1,0c0-0.3,0-0.4,0.1-0.4c0.1,0,0.2,0,0.5-0.1s0.5-0.1,0.9-0.2s0.6-0.1,0.8-0.2c0,0,0,0,0.1,0
				s0,0,0.1,0l0,0c0,0,0.1,0,0.1,0.1s0.1,0.1,0.1,0.1c0,0.2,0,0.3,0,0.4c0,0,0,0.1,0,0.1c0,0,0,0,0.1-0.1
				C384,15.6,384.5,15.4,385.2,15.4z"/>
			<path class="st3" d="M391,15.4c0.3,0,0.6,0,0.8,0.1c0,0,0-0.1,0-0.2v-0.9c0-0.3,0-0.6-0.1-0.8c0-0.1-0.2-0.2-0.6-0.2H391
				c0,0-0.1-0.1-0.1-0.2c0-0.1,0-0.2,0.1-0.2c0.2,0,0.5-0.1,0.7-0.1s0.5-0.1,0.6-0.1s0.3-0.1,0.5-0.1s0.2-0.1,0.3-0.1l0.1,0h0
				c0,0,0.1,0,0.1,0.1s0.1,0.1,0.1,0.1c-0.1,0.4-0.1,0.7-0.1,1.2v5c0,0.3,0,0.6,0.1,0.8c0,0.1,0.1,0.1,0.1,0.1s0.1,0.1,0.2,0.1
				s0.2,0,0.2,0l0.1,0c0,0,0,0.1,0,0.1c0,0.2,0,0.3-0.1,0.3c-0.1,0-0.3,0-0.5,0s-0.4,0-0.6,0.1s-0.4,0.1-0.5,0.1s-0.3,0.1-0.4,0.1
				l-0.2,0c0,0-0.1-0.1-0.1-0.2v-0.2c0,0,0-0.1,0-0.1s0,0,0,0c-0.3,0.3-0.7,0.5-1.2,0.5c-0.6,0-1.2-0.2-1.7-0.7s-0.7-1.1-0.7-1.8
				c0-0.8,0.3-1.4,0.8-2S390.2,15.4,391,15.4z M390.9,16c-0.4,0-0.6,0.1-0.8,0.4s-0.3,0.8-0.3,1.4c0,1.4,0.4,2.1,1.1,2.1
				c0.3,0,0.5-0.1,0.7-0.2s0.3-0.3,0.3-0.6V17c0-0.1,0-0.2,0-0.3s-0.1-0.2-0.1-0.3s-0.2-0.2-0.3-0.3S391.1,16,390.9,16z"/>
			<path class="st3" d="M396.8,15.3c0.7,0,1.2,0.1,1.5,0.2c0.1,0.4,0.1,0.8,0.1,1.5c0,0.1-0.1,0.1-0.2,0.1c-0.2,0-0.4,0-0.4-0.1
				c-0.1-0.3-0.2-0.6-0.4-0.8s-0.4-0.3-0.8-0.3c-0.2,0-0.3,0-0.4,0.1s-0.2,0.2-0.2,0.4c0,0.2,0.1,0.3,0.2,0.5s0.4,0.3,0.7,0.4
				c0.2,0.1,0.4,0.2,0.5,0.3s0.3,0.2,0.5,0.3s0.3,0.3,0.4,0.5s0.1,0.4,0.1,0.7c0,0.5-0.2,0.9-0.6,1.2s-0.9,0.4-1.5,0.4
				c-0.3,0-0.6,0-0.9-0.1s-0.6-0.2-0.7-0.3c-0.1-0.5-0.1-1-0.1-1.4c0,0,0.1,0,0.2,0c0.2,0,0.4,0,0.4,0.1c0.1,0.8,0.6,1.2,1.3,1.2
				c0.2,0,0.3,0,0.5-0.1s0.2-0.2,0.2-0.4c0-0.2-0.1-0.4-0.3-0.5s-0.5-0.3-0.9-0.5c-0.5-0.2-0.8-0.5-1-0.7s-0.3-0.6-0.3-1
				c0-0.5,0.2-0.9,0.6-1.2S396.2,15.3,396.8,15.3z"/>
		</g>
		<line class="st69" x1="289.4" y1="112.2" x2="358.1" y2="112.2"/>
		<line class="st69" x1="280.2" y1="102.2" x2="357.2" y2="102.2"/>
		<line class="st69" x1="270.2" y1="92.2" x2="357.2" y2="92.2"/>
		<line class="st69" x1="260" y1="82.2" x2="357.2" y2="82.2"/>
		<line class="st69" x1="260.5" y1="72.2" x2="357.2" y2="72.2"/>
		<line class="st69" x1="270.2" y1="62.2" x2="357.2" y2="62.2"/>
		<line class="st69" x1="280.2" y1="52.2" x2="357.2" y2="52.2"/>
		<line class="st69" x1="290.2" y1="42.2" x2="357.2" y2="42.2"/>
		<g class="st0">
			<path d="M373.4,52.5v-6.3h-0.8v-0.8h1.7v7.1H373.4z"/>
			<path d="M375.8,52.4v-0.7c0.2-0.1,0.4-0.4,0.8-0.7c0.3-0.3,0.6-0.5,0.8-0.7c0.2-0.1,0.4-0.4,0.7-0.6c0.3-0.3,0.5-0.5,0.6-0.6
				c0.1-0.2,0.3-0.4,0.4-0.6c0.3-0.4,0.4-0.8,0.4-1.3c0-0.4-0.1-0.8-0.3-1c-0.2-0.3-0.6-0.4-1-0.4c-0.5,0-0.8,0.1-1.1,0.4
				c-0.2,0.3-0.4,0.7-0.4,1.1h-0.9c0-0.7,0.3-1.3,0.7-1.7c0.4-0.4,1-0.6,1.7-0.6s1.2,0.2,1.6,0.6c0.4,0.4,0.6,0.9,0.6,1.6
				c0,0.8-0.4,1.6-1.2,2.5c-0.3,0.3-0.5,0.5-0.7,0.7c-0.4,0.4-0.9,0.8-1.4,1.2h3.4v0.8H375.8z"/>
			<path d="M382.4,45.9c0.2-0.2,0.4-0.4,0.7-0.5c0.3-0.1,0.7-0.2,1.1-0.2s0.8,0.1,1.2,0.3c0.3,0.2,0.6,0.4,0.8,0.8
				c0.3,0.6,0.5,1.5,0.5,2.6c0,1.4-0.2,2.4-0.7,3c-0.4,0.5-1,0.7-1.8,0.7c-1.4,0-2.2-0.8-2.5-2.5c0-0.3-0.1-0.7-0.1-1.2
				s0-0.8,0.1-1.2c0-0.3,0.1-0.7,0.2-1C382.1,46.4,382.3,46.1,382.4,45.9z M385.6,46.9c-0.1-0.3-0.3-0.5-0.5-0.7
				c-0.2-0.1-0.5-0.2-0.8-0.2s-0.6,0.1-0.8,0.2c-0.2,0.1-0.4,0.2-0.5,0.4c-0.1,0.2-0.2,0.4-0.3,0.6c-0.1,0.3-0.1,0.5-0.1,0.8
				c0,0.2,0,0.5,0,0.9c0,0.3,0,0.6,0,0.9c0,0.2,0.1,0.5,0.1,0.8c0.1,0.3,0.2,0.5,0.3,0.6c0.1,0.2,0.3,0.3,0.5,0.4
				c0.2,0.1,0.4,0.2,0.7,0.2s0.5-0.1,0.7-0.2c0.2-0.1,0.4-0.2,0.5-0.4c0.1-0.2,0.2-0.4,0.3-0.7c0.1-0.4,0.2-0.9,0.2-1.5s0-1-0.1-1.2
				C385.7,47.5,385.7,47.2,385.6,46.9z"/>
			<path d="M391.3,49.3v-0.8h4v0.8H391.3z"/>
			<path d="M400.6,52.5v-6.3h-0.8v-0.8h1.7v7.1H400.6z"/>
			<path d="M406.6,52.5v-1.6h-3.7v-0.6l3.4-4.9h1.2v4.8h1v0.8h-1v1.6H406.6z M406.7,50.1v-4l-2.7,4H406.7z"/>
			<path d="M409.7,45.2h4.3V46h-3.5v2.3c0.1-0.2,0.4-0.4,0.7-0.5c0.3-0.1,0.6-0.2,1-0.2c0.4,0,0.7,0.1,1,0.2
				c0.3,0.1,0.6,0.3,0.7,0.6c0.3,0.5,0.5,1,0.5,1.6c0,0.8-0.2,1.4-0.6,1.8s-1,0.7-1.8,0.7s-1.3-0.2-1.8-0.5
				c-0.4-0.4-0.7-0.8-0.8-1.4h0.9c0.1,0.4,0.3,0.6,0.6,0.8c0.3,0.2,0.7,0.3,1.2,0.3c0.5,0,0.8-0.2,1.1-0.5c0.3-0.3,0.4-0.8,0.4-1.3
				s-0.1-1-0.4-1.2c-0.3-0.3-0.7-0.4-1.2-0.4c-0.4,0-0.7,0.1-0.9,0.3c-0.3,0.2-0.5,0.4-0.6,0.8h-0.8V45.2z"/>
			<path d="M423.4,50.6c0,0.5-0.2,0.9-0.5,1.3s-0.9,0.6-1.5,0.7v0.8h-0.6v-0.8c-0.6,0-1.1-0.2-1.5-0.5c-0.4-0.3-0.6-0.7-0.6-1.2h1
				c0,0.3,0.1,0.5,0.3,0.7c0.2,0.2,0.4,0.3,0.8,0.3v-2.5c-0.7-0.2-1.2-0.3-1.4-0.5c-0.3-0.2-0.5-0.5-0.6-0.8
				c-0.1-0.2-0.1-0.4-0.1-0.6c0-0.5,0.2-1,0.5-1.3c0.4-0.4,0.9-0.6,1.5-0.6v-0.8h0.6v0.8c0.6,0,1,0.2,1.4,0.5s0.5,0.7,0.6,1.2h-1
				c0-0.2-0.1-0.4-0.3-0.6c-0.2-0.2-0.4-0.3-0.7-0.4v2.4c0.8,0.2,1.4,0.4,1.6,0.7C423.3,49.7,423.4,50.1,423.4,50.6z M419.9,46.7
				c-0.2,0.2-0.3,0.5-0.3,0.8c0,0.3,0.1,0.6,0.3,0.7c0.2,0.2,0.5,0.3,0.9,0.4v-2.3C420.4,46.3,420.2,46.5,419.9,46.7z M422.2,51.5
				c0.2-0.2,0.3-0.5,0.3-0.8c0-0.3-0.1-0.6-0.3-0.7c-0.2-0.2-0.5-0.3-0.9-0.4v2.3C421.7,51.8,422,51.7,422.2,51.5z"/>
			<path d="M429.3,47.1v0.9c0.4-0.7,1-1,1.8-1c0.4,0,0.8,0.1,1.1,0.3c0.3,0.2,0.6,0.5,0.8,0.9c0.2-0.4,0.5-0.7,0.8-0.9
				c0.3-0.2,0.7-0.3,1.2-0.3c0.6,0,1.1,0.2,1.5,0.6s0.6,1,0.6,1.7v3.2h-0.9v-3.1c0-0.6-0.1-1-0.4-1.3c-0.3-0.3-0.6-0.4-1.1-0.4
				s-0.8,0.1-1.1,0.4c-0.3,0.3-0.4,0.7-0.4,1.3v3.1h-0.9v-3.1c0-0.6-0.1-1-0.4-1.3c-0.3-0.3-0.6-0.4-1.1-0.4s-0.8,0.1-1.1,0.4
				c-0.3,0.3-0.4,0.7-0.4,1.3v3.1h-0.9v-5.5H429.3z"/>
			<path d="M438.6,52.5v-7.4h0.9v7.4H438.6z"/>
			<path d="M441.9,47.1v0.9c0.4-0.7,1-1,1.8-1c0.6,0,1.1,0.2,1.5,0.6c0.4,0.4,0.6,1,0.6,1.7v3.2H445v-3.1c0-0.6-0.1-1-0.4-1.3
				c-0.3-0.3-0.6-0.4-1.1-0.4c-0.5,0-0.8,0.1-1.1,0.4c-0.3,0.3-0.4,0.7-0.4,1.3v3.1H441v-5.5H441.9z"/>
		</g>
		<g class="st0">
			<path d="M375.4,75.5c-0.6,0-1,0.2-1.3,0.7c-0.3,0.4-0.4,1.2-0.5,2.2c0.2-0.3,0.4-0.6,0.8-0.8c0.4-0.2,0.7-0.3,1.2-0.3
				c0.7,0,1.2,0.2,1.6,0.6c0.4,0.4,0.6,1,0.6,1.7c0,0.7-0.2,1.3-0.6,1.8c-0.4,0.5-1,0.7-1.8,0.7c-1.2,0-2-0.5-2.3-1.5
				c-0.2-0.6-0.3-1.4-0.3-2.5c0-1.1,0.2-1.9,0.6-2.5c0.4-0.6,1.1-1,1.9-1c0.6,0,1.1,0.2,1.5,0.5c0.4,0.3,0.6,0.8,0.7,1.3h-0.8
				c-0.1-0.3-0.2-0.6-0.5-0.8C376.1,75.6,375.8,75.5,375.4,75.5z M376.9,79.8c0-0.5-0.1-0.9-0.4-1.2c-0.3-0.3-0.6-0.4-1.1-0.4
				s-0.9,0.1-1.2,0.4c-0.3,0.3-0.5,0.7-0.5,1.2c0,0.5,0.1,0.9,0.4,1.2c0.3,0.3,0.7,0.5,1.2,0.5c0.5,0,0.9-0.1,1.2-0.4
				S376.9,80.3,376.9,79.8z"/>
			<path d="M379.9,75.6c0.2-0.2,0.4-0.4,0.7-0.5c0.3-0.1,0.7-0.2,1.1-0.2s0.8,0.1,1.2,0.3s0.6,0.4,0.8,0.8c0.3,0.6,0.5,1.5,0.5,2.6
				c0,1.4-0.2,2.4-0.7,3c-0.4,0.5-1,0.7-1.8,0.7c-1.4,0-2.2-0.8-2.4-2.5c0-0.3-0.1-0.7-0.1-1.2s0-0.8,0.1-1.2c0-0.3,0.1-0.7,0.2-1
				C379.5,76.1,379.7,75.8,379.9,75.6z M383,76.6c-0.1-0.3-0.3-0.5-0.5-0.7c-0.2-0.1-0.5-0.2-0.8-0.2c-0.3,0-0.6,0.1-0.8,0.2
				s-0.4,0.2-0.5,0.4c-0.1,0.2-0.2,0.4-0.3,0.6c-0.1,0.3-0.1,0.5-0.1,0.8c0,0.2,0,0.5,0,0.9c0,0.3,0,0.6,0,0.9s0.1,0.5,0.1,0.8
				c0.1,0.3,0.2,0.5,0.3,0.6c0.1,0.2,0.3,0.3,0.5,0.4c0.2,0.1,0.4,0.2,0.7,0.2c0.3,0,0.5-0.1,0.7-0.2c0.2-0.1,0.4-0.2,0.5-0.4
				c0.1-0.2,0.2-0.4,0.3-0.7c0.1-0.4,0.2-0.9,0.2-1.5s0-1-0.1-1.2C383.2,77.2,383.1,76.9,383,76.6z"/>
			<path d="M388.8,78.9v-0.8h4v0.8H388.8z"/>
			<path d="M397.5,76.7c0-0.6,0.2-1,0.6-1.4s1-0.6,1.7-0.6s1.3,0.2,1.7,0.6s0.6,0.8,0.6,1.4c0,0.4-0.1,0.7-0.3,1
				c-0.2,0.3-0.5,0.5-0.8,0.6c0.4,0.1,0.7,0.4,0.9,0.7s0.3,0.7,0.3,1.2c0,0.7-0.2,1.2-0.7,1.6c-0.5,0.4-1.1,0.6-1.8,0.6
				c-0.8,0-1.4-0.2-1.8-0.6s-0.7-0.9-0.7-1.6c0-0.5,0.1-0.9,0.4-1.2s0.5-0.6,0.9-0.7C397.9,78,397.5,77.4,397.5,76.7z M401.5,80.1
				c0-0.5-0.2-0.8-0.5-1.1s-0.7-0.4-1.2-0.4c-0.5,0-0.9,0.1-1.2,0.4s-0.5,0.6-0.5,1.1c0,0.5,0.2,0.8,0.5,1.1
				c0.3,0.3,0.7,0.4,1.2,0.4c0.5,0,0.9-0.1,1.2-0.4C401.4,81,401.5,80.6,401.5,80.1z M401.4,76.7c0-0.4-0.1-0.7-0.4-0.9
				c-0.3-0.2-0.6-0.3-1.1-0.3c-0.5,0-0.8,0.1-1.1,0.3s-0.4,0.5-0.4,0.9s0.1,0.7,0.4,0.9c0.3,0.2,0.6,0.4,1.1,0.4
				c0.4,0,0.8-0.1,1.1-0.4C401.2,77.4,401.4,77.1,401.4,76.7z"/>
			<path d="M403.9,74.9h4.3v0.8h-3.5V78c0.1-0.2,0.4-0.4,0.7-0.5c0.3-0.1,0.6-0.2,1-0.2c0.4,0,0.7,0.1,1,0.2
				c0.3,0.1,0.6,0.3,0.7,0.6c0.3,0.5,0.5,1,0.5,1.6c0,0.8-0.2,1.4-0.6,1.8s-1,0.7-1.8,0.7s-1.3-0.2-1.8-0.5
				c-0.4-0.4-0.7-0.8-0.8-1.4h0.9c0.1,0.4,0.3,0.6,0.6,0.8c0.3,0.2,0.7,0.3,1.2,0.3c0.5,0,0.8-0.2,1.1-0.5c0.3-0.3,0.4-0.8,0.4-1.3
				s-0.1-1-0.4-1.2c-0.3-0.3-0.7-0.4-1.2-0.4c-0.4,0-0.7,0.1-0.9,0.3c-0.3,0.2-0.5,0.4-0.6,0.8h-0.8V74.9z"/>
			<path d="M417.7,80.3c0,0.5-0.2,0.9-0.5,1.3s-0.9,0.6-1.5,0.7v0.8H415v-0.8c-0.6,0-1.1-0.2-1.5-0.5c-0.4-0.3-0.6-0.7-0.6-1.2h1
				c0,0.3,0.1,0.5,0.3,0.7c0.2,0.2,0.4,0.3,0.8,0.3v-2.5c-0.7-0.2-1.2-0.3-1.4-0.5c-0.3-0.2-0.5-0.5-0.6-0.8
				c-0.1-0.2-0.1-0.4-0.1-0.6c0-0.5,0.2-1,0.5-1.3c0.4-0.4,0.9-0.6,1.5-0.6v-0.8h0.6v0.8c0.6,0,1,0.2,1.4,0.5s0.5,0.7,0.6,1.2h-1
				c0-0.2-0.1-0.4-0.3-0.6c-0.2-0.2-0.4-0.3-0.7-0.4v2.4c0.8,0.2,1.4,0.4,1.6,0.7C417.5,79.4,417.7,79.8,417.7,80.3z M414.2,76.3
				c-0.2,0.2-0.3,0.5-0.3,0.8c0,0.3,0.1,0.6,0.3,0.7c0.2,0.2,0.5,0.3,0.9,0.4V76C414.7,76,414.4,76.1,414.2,76.3z M416.4,81.1
				c0.2-0.2,0.3-0.5,0.3-0.8c0-0.3-0.1-0.6-0.3-0.7c-0.2-0.2-0.5-0.3-0.9-0.4v2.3C416,81.5,416.2,81.3,416.4,81.1z"/>
			<path d="M423.6,76.7v0.9c0.4-0.7,1-1,1.8-1c0.4,0,0.8,0.1,1.1,0.3c0.3,0.2,0.6,0.5,0.8,0.9c0.2-0.4,0.5-0.7,0.8-0.9
				c0.3-0.2,0.7-0.3,1.2-0.3c0.6,0,1.1,0.2,1.5,0.6s0.6,1,0.6,1.7v3.2h-0.9v-3.1c0-0.6-0.1-1-0.4-1.3c-0.3-0.3-0.6-0.4-1.1-0.4
				s-0.8,0.1-1.1,0.4c-0.3,0.3-0.4,0.7-0.4,1.3v3.1h-0.9v-3.1c0-0.6-0.1-1-0.4-1.3c-0.3-0.3-0.6-0.4-1.1-0.4s-0.8,0.1-1.1,0.4
				c-0.3,0.3-0.4,0.7-0.4,1.3v3.1h-0.9v-5.5H423.6z"/>
			<path d="M432.9,82.2v-7.4h0.9v7.4H432.9z"/>
			<path d="M436.2,76.7v0.9c0.4-0.7,1-1,1.8-1c0.6,0,1.1,0.2,1.5,0.6c0.4,0.4,0.6,1,0.6,1.7v3.2h-0.9v-3.1c0-0.6-0.1-1-0.4-1.3
				c-0.3-0.3-0.6-0.4-1.1-0.4c-0.5,0-0.8,0.1-1.1,0.4c-0.3,0.3-0.4,0.7-0.4,1.3v3.1h-0.9v-5.5H436.2z"/>
		</g>
		<g class="st0">
			<path d="M373.4,106.7c0.2-0.2,0.4-0.4,0.7-0.5c0.3-0.1,0.7-0.2,1.1-0.2s0.8,0.1,1.2,0.3c0.3,0.2,0.6,0.4,0.8,0.8
				c0.3,0.6,0.5,1.5,0.5,2.6c0,1.4-0.2,2.4-0.7,3c-0.4,0.5-1,0.7-1.8,0.7c-1.4,0-2.2-0.8-2.5-2.5c0-0.3-0.1-0.7-0.1-1.2
				s0-0.8,0.1-1.2c0-0.3,0.1-0.7,0.2-1C373.1,107.2,373.3,106.9,373.4,106.7z M376.6,107.7c-0.1-0.3-0.3-0.5-0.5-0.7
				c-0.2-0.1-0.5-0.2-0.8-0.2s-0.6,0.1-0.8,0.2c-0.2,0.1-0.4,0.2-0.5,0.4c-0.1,0.2-0.2,0.4-0.3,0.6c-0.1,0.3-0.1,0.5-0.1,0.8
				c0,0.2,0,0.5,0,0.9c0,0.3,0,0.6,0,0.9c0,0.2,0.1,0.5,0.1,0.8c0.1,0.3,0.2,0.5,0.3,0.6c0.1,0.2,0.3,0.3,0.5,0.4
				c0.2,0.1,0.4,0.2,0.7,0.2s0.5-0.1,0.7-0.2c0.2-0.1,0.4-0.2,0.5-0.4c0.1-0.2,0.2-0.4,0.3-0.7c0.1-0.4,0.2-0.9,0.2-1.5s0-1-0.1-1.2
				C376.7,108.3,376.7,108,376.6,107.7z"/>
			<path d="M382.3,110.1v-0.8h4v0.8H382.3z"/>
			<path d="M390.8,113.2v-0.7c0.2-0.1,0.4-0.4,0.8-0.7c0.3-0.3,0.6-0.5,0.8-0.7c0.2-0.1,0.4-0.4,0.7-0.6c0.3-0.3,0.5-0.5,0.6-0.6
				c0.1-0.2,0.3-0.4,0.4-0.6c0.3-0.4,0.4-0.8,0.4-1.3c0-0.4-0.1-0.8-0.3-1c-0.2-0.3-0.6-0.4-1-0.4c-0.5,0-0.8,0.1-1.1,0.4
				c-0.2,0.3-0.4,0.7-0.4,1.1h-0.9c0-0.7,0.3-1.3,0.7-1.7c0.4-0.4,1-0.6,1.7-0.6s1.2,0.2,1.6,0.6c0.4,0.4,0.6,0.9,0.6,1.6
				c0,0.8-0.4,1.6-1.2,2.5c-0.3,0.3-0.5,0.5-0.7,0.7c-0.4,0.4-0.9,0.8-1.4,1.2h3.4v0.8H390.8z"/>
			<path d="M396.9,106h4.3v0.8h-3.5v2.3c0.1-0.2,0.4-0.4,0.7-0.5c0.3-0.1,0.6-0.2,1-0.2c0.4,0,0.7,0.1,1,0.2
				c0.3,0.1,0.6,0.3,0.7,0.6c0.3,0.5,0.5,1,0.5,1.6c0,0.8-0.2,1.4-0.6,1.8s-1,0.7-1.8,0.7s-1.3-0.2-1.8-0.5
				c-0.4-0.4-0.7-0.8-0.8-1.4h0.9c0.1,0.4,0.3,0.6,0.6,0.8c0.3,0.2,0.7,0.3,1.2,0.3c0.5,0,0.8-0.2,1.1-0.5c0.3-0.3,0.4-0.8,0.4-1.3
				s-0.1-1-0.4-1.2c-0.3-0.3-0.7-0.4-1.2-0.4c-0.4,0-0.7,0.1-0.9,0.3c-0.3,0.2-0.5,0.4-0.6,0.8h-0.8V106z"/>
			<path d="M410.7,111.4c0,0.5-0.2,0.9-0.5,1.3s-0.9,0.6-1.5,0.7v0.8H408v-0.8c-0.6,0-1.1-0.2-1.5-0.5c-0.4-0.3-0.6-0.7-0.6-1.2h1
				c0,0.3,0.1,0.5,0.3,0.7c0.2,0.2,0.4,0.3,0.8,0.3v-2.5c-0.7-0.2-1.2-0.3-1.4-0.5c-0.3-0.2-0.5-0.5-0.6-0.8
				c-0.1-0.2-0.1-0.4-0.1-0.6c0-0.5,0.2-1,0.5-1.3c0.4-0.4,0.9-0.6,1.5-0.6v-0.8h0.6v0.8c0.6,0,1,0.2,1.4,0.5s0.5,0.7,0.6,1.2h-1
				c0-0.2-0.1-0.4-0.3-0.6c-0.2-0.2-0.4-0.3-0.7-0.4v2.4c0.8,0.2,1.4,0.4,1.6,0.7C410.5,110.5,410.7,110.9,410.7,111.4z
				 M407.2,107.4c-0.2,0.2-0.3,0.5-0.3,0.8c0,0.3,0.1,0.6,0.3,0.7c0.2,0.2,0.5,0.3,0.9,0.4v-2.3
				C407.7,107.1,407.4,107.2,407.2,107.4z M409.4,112.2c0.2-0.2,0.3-0.5,0.3-0.8c0-0.3-0.1-0.6-0.3-0.7c-0.2-0.2-0.5-0.3-0.9-0.4
				v2.3C409,112.6,409.2,112.4,409.4,112.2z"/>
			<path d="M416.6,107.8v0.9c0.4-0.7,1-1,1.8-1c0.4,0,0.8,0.1,1.1,0.3c0.3,0.2,0.6,0.5,0.8,0.9c0.2-0.4,0.5-0.7,0.8-0.9
				c0.3-0.2,0.7-0.3,1.2-0.3c0.6,0,1.1,0.2,1.5,0.6s0.6,1,0.6,1.7v3.2h-0.9v-3.1c0-0.6-0.1-1-0.4-1.3c-0.3-0.3-0.6-0.4-1.1-0.4
				s-0.8,0.1-1.1,0.4c-0.3,0.3-0.4,0.7-0.4,1.3v3.1h-0.9v-3.1c0-0.6-0.1-1-0.4-1.3c-0.3-0.3-0.6-0.4-1.1-0.4s-0.8,0.1-1.1,0.4
				c-0.3,0.3-0.4,0.7-0.4,1.3v3.1h-0.9v-5.5H416.6z"/>
			<path d="M425.9,113.3v-7.4h0.9v7.4H425.9z"/>
			<path d="M429.2,107.8v0.9c0.4-0.7,1-1,1.8-1c0.6,0,1.1,0.2,1.5,0.6c0.4,0.4,0.6,1,0.6,1.7v3.2h-0.9v-3.1c0-0.6-0.1-1-0.4-1.3
				c-0.3-0.3-0.6-0.4-1.1-0.4c-0.5,0-0.8,0.1-1.1,0.4c-0.3,0.3-0.4,0.7-0.4,1.3v3.1h-0.9v-5.5H429.2z"/>
		</g>
		<polygon id="Niger_4_" class="st70" points="290.2,42.2 324.7,76.6 289.5,111.7 255.1,77.3 		"/>
		<polygon id="Niger_3_" class="st70" points="353.6,102.7 358.1,107.2 353.5,111.8 349,107.2 		"/>
	</g>
</g>
</svg>
