<?xml version="1.0" encoding="utf-8"?>
<!-- Generator: Adobe Illustrator 21.0.1, SVG Export Plug-In . SVG Version: 6.00 Build 0)  -->
<svg version="1.1" id="Livello_1" xmlns="http://www.w3.org/2000/svg" xmlns:xlink="http://www.w3.org/1999/xlink" x="0px" y="0px"
	 viewBox="0 0 1280 676" style="enable-background:new 0 0 1280 676;" xml:space="preserve">
<style type="text/css">
	.st0{fill:#272724;}
</style>
<path class="st0" d="M699.3,481.9c1.8,2.2,4,5.5,6.7,9.7l6.5,11l6.9-6.9l-12-7.5C704.7,486.5,701.3,483.9,699.3,481.9z"/>
<path class="st0" d="M1011.9,348.2l6.9-6.9l-12-7.5c-2.7-1.7-6.1-4.3-8.2-6.3c1.8,2.2,4,5.5,6.7,9.7L1011.9,348.2z"/>
<path class="st0" d="M740.7,431.8l-3.8,3.8l10.8,11l3.9-3.9c4.7-4.7,4.1-8.5,0.5-12.2C748.2,426.7,744.9,427.5,740.7,431.8z"/>
<path class="st0" d="M920.7,316.4c5.8-5.8,4.9-11.8-8.7-25.7c-13.3-13.5-19.1-14.1-25-8.2c-6.2,6.2-2.3,15.4,7.8,25.7
	C908.4,322,915,322.1,920.7,316.4z"/>
<path class="st0" d="M810.4,504.1c-6.2,6.2-2.4,15.4,7.8,25.7c13.6,13.8,20.2,13.9,25.9,8.2c5.8-5.8,4.9-11.8-8.7-25.7
	C822.1,498.9,816.3,498.2,810.4,504.1z"/>
<polygon class="st0" points="1142.3,359.5 1153.8,371.2 1175.6,371.2 1153.3,348.6 "/>
<polygon class="st0" points="1166.1,90.7 1166.1,90.7 1166.1,90.7 "/>
<path class="st0" d="M879.6,579.9c-6.2,6.2-2.4,15.4,7.8,25.7c13.6,13.8,20.2,13.9,25.9,8.2c5.8-5.8,4.9-11.8-8.7-25.7
	C891.4,574.6,885.6,574,879.6,579.9z"/>
<path class="st0" d="M1100.3,72.2l-3.8,3.8l10.8,11l3.9-3.9c4.7-4.7,4.1-8.5,0.5-12.2C1107.9,67,1104.6,67.9,1100.3,72.2z"/>
<path class="st0" d="M1117.3,97.2l9.3,9.4l23.7,0l-20.5-9.5C1122.2,93.7,1120.3,94.2,1117.3,97.2z"/>
<polygon class="st0" points="1048.2,454 1059,465 1077.3,446.7 1055.7,446.6 "/>
<path class="st0" d="M1274.6,247.7l-6.8-0.1l-7.2,7.2c-2-1.4-3.7-2.8-5.1-4.3c-6.2-6.3-7.3-12.8-6-20.7c0.9-5.5,1-8.1-1.3-10.4
	c-2.8-2.9-6-1.9-9.2,1.2c-3.8,3.8-4.1,8.5-3.9,10.7l-14.1-2.4c0.3-7.5,2.3-14.8,9.3-21.8c4.7-4.7,10.3-7.8,15.8-8.3h-146.9l-1.6-1.7
	l9.7,13.1l-12.4,12.4l41.8,42.5l-13.9,13.9l-41.8-42.5l-12.4,12.4l-11.3-11.4l40.4-40.4l-42-0.1c-1.8,5.7-5.5,11.4-10.8,16.7
	c-8.1,8.1-16.3,12.3-24.5,14.9l-5.8-15.7c6-1.6,13.9-5.3,19.3-10.7c5.4-5.4,5.5-9.5,2.6-12.5c-2.4-2.4-5.1-1.8-9.7,1l-7.9,4.7
	c-9.7,5.7-19.3,6.7-28.4-2.6c-10.5-10.7-8.8-26.5,3.2-38.5c7.4-7.4,16.3-12.4,24.3-13.9l3.1,16.4c-6,1.2-12.1,4.6-15.8,8.3
	c-3.5,3.5-3.8,7.1-1.6,9.3c1.8,1.8,4.7,2.3,9.7-0.7l6.8-4.1c7.2-4.3,18.1-9.9,28.7,0.9c1.1,1.1,2,2.2,2.9,3.3l21.3,0
	c-0.5,0-1-0.1-1.5-0.2c-4.9-0.8-6.8-1.6-13.9-8.8l-36.1-36.7l13.8-13.8l34.7,35.2c4.9,4.9,9.7,6.7,14.5,1.9
	c4.9-4.9,3.6-9.1-1.6-14.3l-34.9-35.4l13.7-13.7l36.7,37.3c3,3.1,4.9,5.2,6.1,7.1l19.9-0.1l-53.1-53.9l18.4-18.4
	c15.7-15.7,27.1-14.4,36-5.4c9.1,9.3,9,18.8,3.7,26.2c2.4-1.3,7-1.1,11.1,0.4c2.3,0.8,6.1,2.2,10.3,3.8l20.9,0l-53.1-53.9L1149.9,0
	H0v676h870.9l-41.8-42.5L816.6,646l-11.3-11.4l40.4-40.4l9.7,13.1l-12.4,12.4l15.5,15.7l35.9-0.5c-7.1-1.6-14.1-5.8-20.7-12.4
	c-18.9-19.2-18.4-39.7-4.2-53.8c18.2-18.2,37.3-9.5,48.9,2.3c1.5,1.5,3,3.1,4.3,4.7l-0.1-0.5l41.1,0.1l-5.8-15.7
	c6-1.6,13.9-5.3,19.3-10.7c5.4-5.4,5.5-9.5,2.6-12.5c-2.4-2.4-5.1-1.8-9.7,1l-7.9,4.7c-9.7,5.7-19.3,6.7-28.4-2.6
	c-10.5-10.7-8.8-26.5,3.2-38.5c7.4-7.4,16.3-12.4,24.3-13.9l3.1,16.4c-6,1.2-12.1,4.6-15.8,8.3c-3.5,3.5-3.8,7.2-1.6,9.3
	c1.8,1.8,4.7,2.3,9.7-0.7l6.8-4.1c7.2-4.3,18.1-9.9,28.7,0.9c3.3,3.4,5.6,6.9,6.8,10.7l18.6,1.2l-53.1-53.9l31.1-31.1l10.2,12.4
	L989.5,473l8.9,9l13.4-13.4l10.8,11l-13.4,13.4l10.8,11l18.3-18.3l4.8,4.6l13.5,0l-53.1-53.9l31.1-31.1l10.2,12.4l-16.3,16.3l8.9,9
	l13.4-13.4l-17.9,0l1.9-1.9l84.5-0.1l-41.8-42.5l-12.4,12.4l-11.3-11.4l40.4-40.4l9.7,13.1l-12.4,12.4l24.1,24.5l35.6,0.1
	l-53.1-53.9l13.7-13.7l19.5,19.8l11-11l-19.5-19.8l13.7-13.7l43.2,43.9l19.8,0l-53.1-53.9l14-14l42,42.6l14.5,0l-5.8-15.7
	c6-1.6,13.9-5.3,19.3-10.7c5.4-5.4,5.5-9.5,2.6-12.5c-2.4-2.4-5.1-1.8-9.7,1l-7.9,4.7c-9.7,5.7-19.3,6.7-28.4-2.6
	c-10.5-10.7-8.8-26.5,3.2-38.5c7.4-7.4,16.3-12.4,24.3-13.8l3.1,16.4c-6,1.2-12.1,4.6-15.8,8.3c-3.5,3.5-3.8,7.2-1.6,9.3
	c1.8,1.8,4.7,2.3,9.7-0.7l6.8-4.1c7.2-4.3,18.1-9.9,28.7,0.9c1.5,1.5,2.7,3,3.8,4.6l25.2-0.2c-1.9-0.4-3.8-1.4-5.3-3
	c-4.1-4.2-4.1-11,0.1-15.1C1270.5,249,1272.5,248.1,1274.6,247.7z M922.2,227.6l34.7,35.2c4.9,4.9,9.7,6.7,14.5,1.9
	c4.9-4.9,3.6-9.1-1.6-14.3L934.9,215l13.7-13.7l36.7,37.3c4.6,4.6,6.4,7,7.5,10.2c2.1,6.8,0.3,16.9-10.3,27.5
	c-8.4,8.4-16.6,12.1-24.1,10.8c-4.9-0.8-6.8-1.6-13.9-8.8l-36.1-36.7L922.2,227.6z M876.7,271.3c18.2-18.2,37.3-9.5,48.9,2.3
	c15.2,15.5,24.6,34.8,5.5,53.9c-15.5,15.5-34.3,13.7-50.2-2.4C862.1,305.9,862.6,285.4,876.7,271.3z M823.4,326.5l16,6.8
	c4,1.7,5.7,2.6,10.1,4.8c-1.5-3.5-3-6.9-4.3-10.1l-6.8-16.4l16.3-16.3l13.5,48.2l22.5,22.8l-14,14l-22.2-22.5L807,342.9L823.4,326.5
	z M790.2,359.6l10.2,12.4l-16.3,16.3l8.9,9l13.4-13.4l10.8,11l-13.4,13.4l10.8,11L833,401l11.3,11.5l-32.1,32.1l-53.1-53.9
	L790.2,359.6z M730.3,419.6c15.7-15.7,27.1-14.4,36-5.4c9.1,9.3,9,18.8,3.7,26.2c2.4-1.3,7-1.1,11.1,0.4c5.3,1.9,19.7,7.3,25.4,9.6
	l-15.9,15.9l-20.5-9.5c-7.6-3.5-9.5-3-12.5,0l21,21.3L765,491.9L711.9,438L730.3,419.6z M712.9,544L677,472.9l14.3-14.3l69.3,37.7
	l-14.9,14.9l-13-7.6L720,516.3l7.3,13.3L712.9,544z M799.9,601.9l-22.2-22.5l-47.4-14.9l16.4-16.4l16,6.8c4,1.7,5.7,2.6,10.1,4.8
	c-1.5-3.5-3-6.9-4.3-10.1l-6.8-16.4l16.3-16.3l13.5,48.2l22.5,22.8L799.9,601.9z M854.6,549.2c-15.5,15.5-34.3,13.7-50.2-2.4
	c-18.9-19.2-18.4-39.7-4.2-53.8c18.2-18.2,37.3-9.5,48.9,2.3C864.3,510.7,873.7,530,854.6,549.2z M905.9,497.8
	c-8.4,8.4-16.6,12.1-24.1,10.8c-4.9-0.8-6.8-1.6-13.9-8.8l-36.1-36.7l13.8-13.8l34.7,35.2c4.9,4.9,9.7,6.7,14.5,1.9
	c4.9-4.9,3.6-9.1-1.6-14.3l-34.9-35.4l13.7-13.7l36.7,37.3c4.6,4.6,6.4,7,7.5,10.2C918.3,477.1,916.5,487.2,905.9,497.8z M985,416.8
	L966.9,404c-7.5-5.3-16.5-11.9-20-15.1c2.4,2.9,9.1,12.1,14.8,20.4l12.5,18.5l-15,15l-66.1-40.9l14.5-14.5l17.3,11.5
	c14.5,9.6,20.9,15.2,22.9,17.1c-3.9-4.7-10.3-13.1-16.7-22.6l-11.9-17.7l15.3-15.3l21.2,14.6c4.8,3.3,11.7,8.2,18.5,14.5
	c-4.3-5.2-13.8-18-17.9-24.3L945.8,349l14.7-14.7l39.2,67.8L985,416.8z M1045.1,356.8l-13-7.6l-12.7,12.7l7.3,13.3l-14.4,14.4
	l-35.9-71.1l14.3-14.3l69.3,37.7L1045.1,356.8z M1090.3,311.6l-27.9-9.3c-4.1-1.4-9.5-3.7-14.1-6c2.4,1.8,7.7,6.3,14.2,12.9
	l14.9,15.2l-13,13l-53.1-53.9l13.2-13.2l28,8.7c4.4,1.3,9.7,3.5,14.6,5.8c-3.5-2.8-8.8-8-12.3-11.6l-16.5-16.7l13-13l53.1,53.9
	L1090.3,311.6z"/>
<polygon class="st0" points="1174.3,59.7 1192.6,41.4 1170.9,41.3 1163.5,48.7 "/>
<polygon class="st0" points="1143.7,28.7 1152.6,37.8 1166,24.4 1148.1,24.4 "/>
</svg>
