<?xml version="1.0" encoding="utf-8"?>
<!-- Generator: Adobe Illustrator 21.0.0, SVG Export Plug-In . SVG Version: 6.00 Build 0)  -->
<svg version="1.1" id="Livello_1" xmlns="http://www.w3.org/2000/svg" xmlns:xlink="http://www.w3.org/1999/xlink" x="0px" y="0px"
	 viewBox="0 0 992 676" style="enable-background:new 0 0 992 676;" xml:space="preserve">
<style type="text/css">
	.st0{fill:#231F20;}
</style>
<path class="st0" d="M416.7,481.9c1.8,2.2,4,5.5,6.7,9.7l6.5,11l6.9-6.9l-12-7.5C422.1,486.5,418.8,483.9,416.7,481.9z"/>
<path class="st0" d="M729.4,348.2l6.9-6.9l-12-7.5c-2.7-1.7-6.1-4.3-8.2-6.3c1.8,2.2,4,5.5,6.7,9.7L729.4,348.2z"/>
<path class="st0" d="M458.1,431.8l-3.8,3.8l10.8,11l3.9-3.9c4.7-4.7,4.1-8.5,0.5-12.2C465.7,426.7,462.4,427.5,458.1,431.8z"/>
<path class="st0" d="M638.2,316.4c5.8-5.8,4.9-11.8-8.7-25.7c-13.3-13.5-19.1-14.1-25-8.2c-6.2,6.2-2.3,15.4,7.8,25.7
	C625.8,322,632.5,322.1,638.2,316.4z"/>
<path class="st0" d="M527.9,504.1c-6.2,6.2-2.4,15.4,7.8,25.7c13.6,13.8,20.2,13.9,25.9,8.2c5.8-5.8,4.9-11.8-8.7-25.7
	C539.6,498.9,533.8,498.2,527.9,504.1z"/>
<polygon class="st0" points="859.8,359.5 871.3,371.2 893.1,371.2 870.8,348.6 "/>
<path class="st0" d="M883.6,90.7L883.6,90.7L883.6,90.7z"/>
<path class="st0" d="M597.1,579.9c-6.2,6.2-2.4,15.4,7.8,25.7c13.6,13.8,20.2,13.9,25.9,8.2c5.8-5.8,4.9-11.8-8.7-25.7
	C608.8,574.6,603,574,597.1,579.9z"/>
<path class="st0" d="M817.8,72.2L814,76l10.8,11l3.9-3.9c4.7-4.7,4.1-8.5,0.5-12.2C825.4,67,822.1,67.9,817.8,72.2z"/>
<path class="st0" d="M834.8,97.2l9.3,9.4h23.7l-20.5-9.5C839.7,93.7,837.8,94.2,834.8,97.2z"/>
<polygon class="st0" points="765.6,454 776.5,465 794.8,446.7 773.2,446.6 "/>
<polygon class="st0" points="745.9,434 754.8,443 768.2,429.7 750.3,429.7 "/>
<polygon class="st0" points="891.8,59.7 910.1,41.4 888.3,41.3 880.9,48.7 "/>
<polygon class="st0" points="861.2,28.7 870.1,37.8 883.5,24.4 865.5,24.4 "/>
<g>
	<path class="st0" d="M986.6,250.5c1.4-1.5,3.4-2.4,5.4-2.8l-6.8-0.1l-7.2,7.2c-2-1.4-3.7-2.8-5.1-4.3c-6.2-6.3-7.3-12.8-6-20.7
		c0.9-5.5,1-8.1-1.3-10.4c-2.8-2.9-6-1.9-9.2,1.2c-3.8,3.8-4.1,8.5-3.9,10.7l-14.1-2.4c0.3-7.5,2.3-14.8,9.3-21.8
		c4.7-4.7,10.3-7.8,15.8-8.3H816.9l-1.6-1.6l0.1-0.1l-42-0.1c-1.8,5.7-5.5,11.4-10.8,16.7c-8.1,8.1-16.3,12.3-24.5,14.9l-5.8-15.7
		c6-1.6,13.9-5.3,19.3-10.7c5.4-5.4,5.5-9.5,2.6-12.5c-2.4-2.4-5.1-1.8-9.7,1l-7.9,4.7c-9.7,5.7-19.3,6.7-28.4-2.6
		c-10.5-10.7-8.8-26.5,3.2-38.5c7.4-7.4,16.3-12.4,24.3-13.9l3.1,16.4c-6,1.2-12.1,4.6-15.8,8.3c-3.5,3.5-3.8,7.1-1.6,9.3
		c1.8,1.8,4.7,2.3,9.7-0.7l6.8-4.1c7.2-4.3,18.1-9.9,28.7,0.9c1.1,1.1,2,2.2,2.9,3.3h21.3c-0.5,0-1-0.1-1.5-0.2
		c-4.9-0.8-6.8-1.6-13.9-8.8l-36.1-36.7l13.8-13.8l34.7,35.2c4.9,4.9,9.7,6.7,14.5,1.9c4.9-4.9,3.6-9.1-1.6-14.3l-34.9-35.4
		L779.4,88l36.7,37.3c3,3.1,4.9,5.2,6.1,7.1l19.9-0.1L789,78.4L807.4,60c15.7-15.7,27.1-14.4,36-5.4c9.1,9.3,9,18.8,3.7,26.2
		c2.4-1.3,7-1.1,11.1,0.4c2.3,0.8,6.1,2.2,10.3,3.8h20.9l-53.1-53.9L867.4,0H0v676h588.3l-41.8-42.5L534.1,646l-11.3-11.5l40.4-40.4
		l9.7,13.1l-12.4,12.4l15.5,15.7l35.9-0.5c-7.1-1.6-14.1-5.8-20.7-12.4c-18.9-19.2-18.4-39.7-4.2-53.8c18.2-18.2,37.3-9.5,48.9,2.3
		c1.5,1.5,3,3.1,4.3,4.7l-0.1-0.5l41.1,0.1l-5.8-15.7c6-1.6,13.9-5.3,19.3-10.7c5.4-5.4,5.5-9.5,2.6-12.5c-2.4-2.4-5.1-1.8-9.7,1
		l-7.9,4.7c-9.7,5.7-19.3,6.7-28.4-2.6c-10.5-10.7-8.8-26.5,3.2-38.5c7.4-7.4,16.3-12.4,24.3-13.9l3.1,16.4
		c-6,1.2-12.1,4.6-15.8,8.3c-3.5,3.5-3.8,7.2-1.6,9.3c1.8,1.8,4.7,2.3,9.7-0.7l6.8-4.1c7.2-4.3,18.1-9.9,28.7,0.9
		c3.3,3.4,5.6,6.9,6.8,10.7l18.6,1.2L682,475.1l31.1-31.1l10.2,12.4L706.9,473l8.9,9l13.4-13.4l10.8,11L726.7,493l10.8,11l18.3-18.3
		l4.8,4.6h13.5L721,436.4l31.1-31.1l10.2,12.4l-10.1,10.1l84.5-0.1l-41.9-42.4l-12.4,12.4l-11.3-11.4l40.4-40.4l9.7,13.1l-12.4,12.4
		l24.1,24.5l35.6,0.1l-53.2-54l13.7-13.7l19.5,19.8l11-11L840,317.3l13.7-13.7l43.2,43.9h19.8l-53.1-53.9l14-14l42,42.6h14.5
		l-5.8-15.7c6-1.6,13.9-5.3,19.3-10.7c5.4-5.4,5.5-9.5,2.6-12.5c-2.4-2.4-5.1-1.8-9.7,1l-7.7,4.7c-9.7,5.7-19.3,6.7-28.4-2.6
		c-10.5-10.7-8.8-26.5,3.2-38.5c7.4-7.4,16.3-12.4,24.3-13.8l3.1,16.4c-6,1.2-12.1,4.6-15.8,8.3c-3.5,3.5-3.8,7.2-1.6,9.3
		c1.8,1.8,4.7,2.3,9.7-0.7l6.8-4.1c7.2-4.3,18.1-9.9,28.7,0.9c1.5,1.5,2.7,3,3.8,4.6l25.2-0.2c-1.9-0.4-3.8-1.4-5.3-3
		C982.4,261.4,982.4,254.6,986.6,250.5z M639.7,227.6l34.7,35.2c4.9,4.9,9.7,6.7,14.5,1.9c4.9-4.9,3.6-9.1-1.6-14.3L652.4,215
		l13.7-13.7l36.7,37.3c4.6,4.6,6.4,7,7.5,10.2c2.1,6.8,0.3,16.9-10.3,27.5c-8.4,8.4-16.6,12.1-24.1,10.8c-4.9-0.8-6.8-1.6-13.9-8.8
		l-36.1-36.7L639.7,227.6z M594.2,271.3c18.2-18.2,37.3-9.5,48.9,2.3c15.2,15.5,24.6,34.8,5.5,53.9c-15.5,15.5-34.3,13.7-50.2-2.4
		C579.6,305.9,580.1,285.4,594.2,271.3z M540.9,326.5l16,6.8c4,1.7,5.7,2.6,10.1,4.8c-1.5-3.5-3-6.9-4.3-10.1l-6.8-16.4l16.3-16.3
		l13.5,48.2l22.5,22.8l-14,14L572,357.8l-47.4-14.9L540.9,326.5z M507.7,359.6l10.2,12.4l-16.3,16.3l8.9,9l13.4-13.4l10.8,11
		l-13.4,13.4l10.8,11l18.3-18.3l11.3,11.5l-32.1,32.1l-53.1-53.9L507.7,359.6z M447.8,419.6c15.7-15.7,27.1-14.4,36-5.4
		c9.1,9.3,9,18.8,3.7,26.2c2.4-1.3,7-1.1,11.1,0.4c5.3,1.9,19.7,7.3,25.4,9.6l-15.9,15.9l-20.5-9.5c-7.6-3.5-9.5-3-12.5,0l21,21.3
		l-13.7,13.7l-53-53.8L447.8,419.6z M430.3,544l-35.9-71.1l14.3-14.3l69.3,37.7l-14.9,14.9l-13-7.6l-12.7,12.7l7.3,13.3L430.3,544z
		 M517.4,601.9l-22.2-22.5l-47.4-14.9l16.4-16.4l16,6.8c4,1.7,5.7,2.6,10.1,4.8c-1.5-3.5-3-6.9-4.3-10.1l-6.8-16.4l16.3-16.3
		l13.5,48.2l22.5,22.8L517.4,601.9z M572,549.2c-15.5,15.5-34.3,13.7-50.2-2.4c-18.9-19.2-18.4-39.7-4.2-53.8
		c18.2-18.2,37.3-9.5,48.9,2.3C581.7,510.7,591.1,530,572,549.2z M623.4,497.8c-8.4,8.4-16.6,12.1-24.1,10.8
		c-4.9-0.8-6.8-1.6-13.9-8.8l-36.1-36.7l13.8-13.8l34.7,35.2c4.9,4.9,9.7,6.7,14.5,1.9c4.9-4.9,3.6-9.1-1.6-14.3l-34.9-35.4
		l13.7-13.7l36.7,37.3c4.6,4.6,6.4,7,7.5,10.2C635.8,477.1,634,487.2,623.4,497.8z M702.5,416.8L684.4,404
		c-7.5-5.3-16.5-11.9-20-15.1c2.4,2.9,9.1,12.1,14.8,20.4l12.5,18.5l-15,15l-66.1-40.9l14.5-14.5l17.3,11.5
		c14.5,9.6,20.9,15.2,22.9,17.1c-3.9-4.7-10.3-13.1-16.7-22.6l-11.9-17.7l15.3-15.3l21.2,14.6c4.8,3.3,11.7,8.2,18.5,14.5
		c-4.3-5.2-13.8-18-17.9-24.3L663.3,349l14.7-14.7l39.2,67.8L702.5,416.8z M762.5,356.8l-13-7.6l-12.7,12.7l7.3,13.3l-14.3,14.4
		l-35.9-71.1l14.3-14.3l69.3,37.7L762.5,356.8z M807.7,311.6l-27.9-9.3c-4.1-1.4-9.5-3.7-14.1-6c2.4,1.8,7.7,6.3,14.2,12.9
		l14.9,15.2l-13,13l-53-53.8l13.2-13.2l28,8.7c4.4,1.3,9.7,3.5,14.6,5.8c-3.5-2.8-8.8-8-12.3-11.6l-16.5-16.7l13-13l53.1,53.9
		L807.7,311.6z M840.5,279l-41.8-42.5l-12.4,12.4L775,237.5l40.3-40.3l9.7,13l-12.4,12.4l41.8,42.5L840.5,279z"/>
</g>
</svg>
