<?xml version="1.0" encoding="utf-8"?>
<!-- Generator: Adobe Illustrator 21.0.0, SVG Export Plug-In . SVG Version: 6.00 Build 0)  -->
<svg version="1.1" id="Livello_1" xmlns="http://www.w3.org/2000/svg" xmlns:xlink="http://www.w3.org/1999/xlink" x="0px" y="0px"
	 viewBox="0 0 1303.8 676" style="enable-background:new 0 0 1303.8 676;" xml:space="preserve">
<style type="text/css">
	.st0{fill:#FFFFFF;}
	.st1{fill:#272724;}
</style>
<g id="Livello_2">
	<rect x="701.2" class="st0" width="602.6" height="676"/>
</g>
<g id="Livello_1_1_">
	<path class="st1" d="M728.5,481.9c1.8,2.2,4,5.5,6.7,9.7l6.5,11l6.9-6.9l-12-7.5C733.9,486.5,730.5,483.9,728.5,481.9z"/>
	<path class="st1" d="M1041.1,348.2l6.9-6.9l-12-7.5c-2.7-1.7-6.1-4.3-8.2-6.3c1.8,2.2,4,5.5,6.7,9.7L1041.1,348.2z"/>
	<path class="st1" d="M769.9,431.8l-3.8,3.8l10.8,11l3.9-3.9c4.7-4.7,4.1-8.5,0.5-12.2C777.4,426.7,774.1,427.5,769.9,431.8z"/>
	<path class="st1" d="M949.9,316.4c5.8-5.8,4.9-11.8-8.7-25.7c-13.3-13.5-19.1-14.1-25-8.2c-6.2,6.2-2.3,15.4,7.8,25.7
		C937.6,322,944.2,322.1,949.9,316.4z"/>
	<path class="st1" d="M839.6,504.1c-6.2,6.2-2.4,15.4,7.8,25.7c13.6,13.8,20.2,13.9,25.9,8.2c5.8-5.8,4.9-11.8-8.7-25.7
		C851.3,498.9,845.5,498.2,839.6,504.1z"/>
	<polygon class="st1" points="1171.5,359.5 1183,371.2 1204.8,371.2 1182.5,348.6 	"/>
	<path class="st1" d="M1195.3,90.7L1195.3,90.7L1195.3,90.7z"/>
	<path class="st1" d="M908.8,579.9c-6.2,6.2-2.4,15.4,7.8,25.7c13.6,13.8,20.2,13.9,25.9,8.2c5.8-5.8,4.9-11.8-8.7-25.7
		C920.6,574.6,914.8,574,908.8,579.9z"/>
	<path class="st1" d="M1129.5,72.2l-3.8,3.8l10.8,11l3.9-3.9c4.7-4.7,4.1-8.5,0.5-12.2C1137.1,67,1133.8,67.9,1129.5,72.2z"/>
	<path class="st1" d="M1146.5,97.2l9.3,9.4h23.7l-20.5-9.5C1151.4,93.7,1149.5,94.2,1146.5,97.2z"/>
	<polygon class="st1" points="1077.4,454 1088.2,465 1106.5,446.7 1084.9,446.6 	"/>
	<path class="st1" d="M1303.8,247.7l-6.8-0.1l-7.2,7.2c-2-1.4-3.7-2.8-5.1-4.3c-6.2-6.3-7.3-12.8-6-20.7c0.9-5.5,1-8.1-1.3-10.4
		c-2.8-2.9-6-1.9-9.2,1.2c-3.8,3.8-4.1,8.5-3.9,10.7l-14.1-2.4c0.3-7.5,2.3-14.8,9.3-21.8c4.7-4.7,10.3-7.8,15.8-8.3h-146.9
		l-1.6-1.7l9.7,13.1l-12.4,12.4l41.8,42.5L1152,279l-41.8-42.5l-12.4,12.4l-11.3-11.4l40.4-40.4l-42-0.1
		c-1.8,5.7-5.5,11.4-10.8,16.7c-8.1,8.1-16.3,12.3-24.5,14.9l-5.8-15.7c6-1.6,13.9-5.3,19.3-10.7c5.4-5.4,5.5-9.5,2.6-12.5
		c-2.4-2.4-5.1-1.8-9.7,1l-7.9,4.7c-9.7,5.7-19.3,6.7-28.4-2.6c-10.5-10.7-8.8-26.5,3.2-38.5c7.4-7.4,16.3-12.4,24.3-13.9l3.1,16.4
		c-6,1.2-12.1,4.6-15.8,8.3c-3.5,3.5-3.8,7.1-1.6,9.3c1.8,1.8,4.7,2.3,9.7-0.7l6.8-4.1c7.2-4.3,18.1-9.9,28.7,0.9
		c1.1,1.1,2,2.2,2.9,3.3h21.3c-0.5,0-1-0.1-1.5-0.2c-4.9-0.8-6.8-1.6-13.9-8.8l-36.1-36.7l13.8-13.8l34.7,35.2
		c4.9,4.9,9.7,6.7,14.5,1.9c4.9-4.9,3.6-9.1-1.6-14.3l-34.9-35.4L1091,88l36.7,37.3c3,3.1,4.9,5.2,6.1,7.1l19.9-0.1l-53.1-53.9
		L1119,60c15.7-15.7,27.1-14.4,36-5.4c9.1,9.3,9,18.8,3.7,26.2c2.4-1.3,7-1.1,11.1,0.4c2.3,0.8,6.1,2.2,10.3,3.8h20.9l-53.1-53.9
		L1179.1,0H0v676h900.1l-41.8-42.5L845.8,646l-11.3-11.4l40.4-40.4l9.7,13.1l-12.4,12.4l15.5,15.7l35.9-0.5
		c-7.1-1.6-14.1-5.8-20.7-12.4c-18.9-19.2-18.4-39.7-4.2-53.8c18.2-18.2,37.3-9.5,48.9,2.3c1.5,1.5,3,3.1,4.3,4.7l-0.1-0.5l41.1,0.1
		l-5.8-15.7c6-1.6,13.9-5.3,19.3-10.7c5.4-5.4,5.5-9.5,2.6-12.5c-2.4-2.4-5.1-1.8-9.7,1l-7.9,4.7c-9.7,5.7-19.3,6.7-28.4-2.6
		c-10.5-10.7-8.8-26.5,3.2-38.5c7.4-7.4,16.3-12.4,24.3-13.9l3.1,16.4c-6,1.2-12.1,4.6-15.8,8.3c-3.5,3.5-3.8,7.2-1.6,9.3
		c1.8,1.8,4.7,2.3,9.7-0.7l6.8-4.1c7.2-4.3,18.1-9.9,28.7,0.9c3.3,3.4,5.6,6.9,6.8,10.7l18.6,1.2l-53.1-53.9l31.1-31.1l10.2,12.4
		l-16.3,16.5l8.9,9l13.4-13.4l10.8,11l-13.4,13.4l10.8,11l18.3-18.3l4.8,4.6h13.5l-53.1-53.9l31.1-31.1l10.2,12.4l-16.3,16.3l8.9,9
		l13.4-13.4h-17.9l1.9-1.9l84.5-0.1l-41.8-42.5l-12.4,12.4l-11.3-11.4l40.4-40.4l9.7,13.1l-12.4,12.4l24.1,24.5l35.6,0.1l-53.1-53.9
		l13.7-13.7l19.5,19.8l11-11l-19.5-19.8l13.7-13.7l43.2,43.9h19.8l-53.1-53.9l14-14l42,42.6h14.5l-5.8-15.7
		c6-1.6,13.9-5.3,19.3-10.7c5.4-5.4,5.5-9.5,2.6-12.5c-2.4-2.4-5.1-1.8-9.7,1l-7.9,4.7c-9.7,5.7-19.3,6.7-28.4-2.6
		c-10.5-10.7-8.8-26.5,3.2-38.5c7.4-7.4,16.3-12.4,24.3-13.8l3.1,16.4c-6,1.2-12.1,4.6-15.8,8.3c-3.5,3.5-3.8,7.2-1.6,9.3
		c1.8,1.8,4.7,2.3,9.7-0.7l6.8-4.1c7.2-4.3,18.1-9.9,28.7,0.9c1.5,1.5,2.7,3,3.8,4.6l25.2-0.2c-1.9-0.4-3.8-1.4-5.3-3
		c-4.1-4.2-4.1-11,0.1-15.1C1299.7,249,1301.7,248.1,1303.8,247.7z M951.4,227.6l34.7,35.2c4.9,4.9,9.7,6.7,14.5,1.9
		c4.9-4.9,3.6-9.1-1.6-14.3L964.1,215l13.7-13.7l36.7,37.3c4.6,4.6,6.4,7,7.5,10.2c2.1,6.8,0.3,16.9-10.3,27.5
		c-8.4,8.4-16.6,12.1-24.1,10.8c-4.9-0.8-6.8-1.6-13.9-8.8l-36.1-36.7L951.4,227.6z M905.9,271.3c18.2-18.2,37.3-9.5,48.9,2.3
		c15.2,15.5,24.6,34.8,5.5,53.9c-15.5,15.5-34.3,13.7-50.2-2.4C891.3,305.9,891.8,285.4,905.9,271.3z M852.6,326.5l16,6.8
		c4,1.7,5.7,2.6,10.1,4.8c-1.5-3.5-3-6.9-4.3-10.1l-6.8-16.4l16.3-16.3l13.5,48.2l22.5,22.8l-14,14l-22.2-22.5l-47.5-14.9
		L852.6,326.5z M819.4,359.6l10.2,12.4l-16.3,16.3l8.9,9l13.4-13.4l10.8,11L833,408.3l10.8,11l18.4-18.3l11.3,11.5l-32.1,32.1
		l-53.1-53.9L819.4,359.6z M759.5,419.6c15.7-15.7,27.1-14.4,36-5.4c9.1,9.3,9,18.8,3.7,26.2c2.4-1.3,7-1.1,11.1,0.4
		c5.3,1.9,19.7,7.3,25.4,9.6l-15.9,15.9l-20.5-9.5c-7.6-3.5-9.5-3-12.5,0l21,21.3l-13.6,13.8L741.1,438L759.5,419.6z M742.1,544
		l-35.9-71.1l14.3-14.3l69.3,37.7l-14.9,14.9l-13-7.6l-12.7,12.7l7.3,13.3L742.1,544z M829.1,601.9l-22.2-22.5l-47.4-14.9l16.4-16.4
		l16,6.8c4,1.7,5.7,2.6,10.1,4.8c-1.5-3.5-3-6.9-4.3-10.1l-6.8-16.4l16.3-16.3l13.5,48.2l22.5,22.8L829.1,601.9z M883.8,549.2
		c-15.5,15.5-34.3,13.7-50.2-2.4c-18.9-19.2-18.4-39.7-4.2-53.8c18.2-18.2,37.3-9.5,48.9,2.3C893.5,510.7,902.9,530,883.8,549.2z
		 M935.1,497.8c-8.4,8.4-16.6,12.1-24.1,10.8c-4.9-0.8-6.8-1.6-13.9-8.8L861,463.1l13.8-13.8l34.7,35.2c4.9,4.9,9.7,6.7,14.5,1.9
		c4.9-4.9,3.6-9.1-1.6-14.3l-34.9-35.4l13.7-13.7l36.7,37.3c4.6,4.6,6.4,7,7.5,10.2C947.5,477.1,945.7,487.2,935.1,497.8z
		 M1014.2,416.8L996.1,404c-7.5-5.3-16.5-11.9-20-15.1c2.4,2.9,9.1,12.1,14.8,20.4l12.5,18.5l-15,15l-66.1-40.9l14.5-14.5l17.3,11.5
		c14.5,9.6,20.9,15.2,22.9,17.1c-3.9-4.7-10.3-13.1-16.7-22.6l-11.9-17.7l15.3-15.3l21.2,14.6c4.8,3.3,11.7,8.2,18.5,14.5
		c-4.3-5.2-13.8-18-17.9-24.3L975,349l14.7-14.7l39.2,67.8L1014.2,416.8z M1074.3,356.8l-13-7.6l-12.7,12.7l7.3,13.3l-14.4,14.4
		l-35.9-71.1l14.3-14.3l69.3,37.7L1074.3,356.8z M1119.5,311.6l-27.9-9.3c-4.1-1.4-9.5-3.7-14.1-6c2.4,1.8,7.7,6.3,14.2,12.9
		l14.9,15.2l-13,13l-53.1-53.9l13.2-13.2l28,8.7c4.4,1.3,9.7,3.5,14.6,5.8c-3.5-2.8-8.8-8-12.3-11.6l-16.5-16.7l13-13l53.1,53.9
		L1119.5,311.6z"/>
	<polygon class="st1" points="1203.5,59.7 1221.8,41.4 1200.1,41.3 1192.7,48.7 	"/>
	<polygon class="st1" points="1172.9,28.7 1181.8,37.8 1195.2,24.4 1177.3,24.4 	"/>
</g>
</svg>
