<?xml version="1.0" encoding="utf-8"?>
<!-- Generator: Adobe Illustrator 19.2.1, SVG Export Plug-In . SVG Version: 6.00 Build 0)  -->
<svg version="1.1" id="Livello_1" xmlns="http://www.w3.org/2000/svg" xmlns:xlink="http://www.w3.org/1999/xlink" x="0px" y="0px"
	 viewBox="0 0 1421 1080" style="enable-background:new 0 0 1421 1080;" xml:space="preserve">
<style type="text/css">
	.st0{fill:#302E2D;}
	.st1{fill:#F5F5F5;}
	.st2{opacity:0.4;fill:#007CA8;enable-background:new    ;}
	.st3{fill:#302E2D;stroke:url(#SVGID_1_);stroke-width:0.5;stroke-miterlimit:10;stroke-dasharray:3;}
	.st4{fill:none;stroke:url(#SVGID_2_);stroke-width:0.5;stroke-miterlimit:10;}
	.st5{fill:none;stroke:url(#SVGID_3_);stroke-width:0.5;stroke-miterlimit:10;stroke-dasharray:2.9978,2.9978;}
	.st6{fill:none;stroke:url(#SVGID_4_);stroke-width:0.5;stroke-miterlimit:10;}
	.st7{fill:none;stroke:url(#SVGID_5_);stroke-width:0.5;stroke-miterlimit:10;}
	.st8{fill:none;stroke:url(#SVGID_6_);stroke-width:0.5;stroke-miterlimit:10;stroke-dasharray:2.9993,2.9993;}
	.st9{fill:none;stroke:url(#SVGID_7_);stroke-width:0.5;stroke-miterlimit:10;}
	.st10{fill:none;stroke:url(#SVGID_8_);stroke-width:0.5;stroke-miterlimit:10;}
	.st11{fill:none;stroke:url(#SVGID_9_);stroke-width:0.5;stroke-miterlimit:10;stroke-dasharray:2.9993,2.9993;}
	.st12{fill:none;stroke:url(#SVGID_10_);stroke-width:0.5;stroke-miterlimit:10;}
	.st13{fill:none;stroke:#302E2D;stroke-width:0.5;stroke-miterlimit:10;}
	.st14{opacity:0.4;fill:#918F8D;enable-background:new    ;}
	.st15{fill:none;stroke:#302E2D;stroke-miterlimit:10;}
	.st16{opacity:0.8;enable-background:new    ;}
	.st17{font-family:'CrimsonText-Semibold';}
	.st18{font-size:15px;}
	.st19{font-family:'CrimsonText-Bold';}
	.st20{font-size:17px;}
	.st21{display:none;}
	.st22{display:inline;}
	.st23{font-family:'Poppins-Light';}
	.st24{font-size:11px;}
	.st25{enable-background:new    ;}
	.st26{opacity:0.77;fill:#D1D1D1;enable-background:new    ;}
	.st27{clip-path:url(#SVGID_12_);}
	.st28{fill:none;stroke:#666362;stroke-miterlimit:10;}
	.st29{opacity:0.3;fill:none;stroke:url(#SVGID_13_);stroke-miterlimit:10;enable-background:new    ;}
	.st30{opacity:0.3;fill:none;stroke:url(#SVGID_14_);stroke-miterlimit:10;enable-background:new    ;}
	.st31{opacity:0.3;fill:none;stroke:url(#SVGID_15_);stroke-miterlimit:10;enable-background:new    ;}
	.st32{opacity:0.3;fill:none;stroke:url(#SVGID_16_);stroke-miterlimit:10;enable-background:new    ;}
	.st33{opacity:0.3;fill:none;stroke:url(#SVGID_17_);stroke-miterlimit:10;enable-background:new    ;}
	.st34{opacity:0.3;fill:none;stroke:url(#SVGID_18_);stroke-miterlimit:10;enable-background:new    ;}
	.st35{opacity:0.3;fill:none;stroke:url(#SVGID_19_);stroke-miterlimit:10;enable-background:new    ;}
	.st36{opacity:0.3;fill:none;stroke:url(#SVGID_20_);stroke-miterlimit:10;enable-background:new    ;}
	.st37{opacity:0.3;fill:none;stroke:url(#SVGID_21_);stroke-miterlimit:10;enable-background:new    ;}
	.st38{opacity:0.3;fill:none;stroke:url(#SVGID_22_);stroke-miterlimit:10;enable-background:new    ;}
	.st39{opacity:0.3;fill:none;stroke:url(#SVGID_23_);stroke-miterlimit:10;enable-background:new    ;}
	.st40{opacity:0.3;fill:none;stroke:url(#SVGID_24_);stroke-miterlimit:10;enable-background:new    ;}
	.st41{opacity:0.3;fill:none;stroke:url(#SVGID_25_);stroke-miterlimit:10;enable-background:new    ;}
	.st42{opacity:0.3;fill:none;stroke:url(#SVGID_26_);stroke-miterlimit:10;enable-background:new    ;}
	.st43{opacity:0.3;fill:none;stroke:url(#SVGID_27_);stroke-miterlimit:10;enable-background:new    ;}
	.st44{opacity:0.3;fill:none;stroke:url(#SVGID_28_);stroke-miterlimit:10;enable-background:new    ;}
	.st45{opacity:0.3;fill:none;stroke:url(#SVGID_29_);stroke-miterlimit:10;enable-background:new    ;}
	.st46{opacity:0.3;fill:none;stroke:url(#SVGID_30_);stroke-miterlimit:10;enable-background:new    ;}
	.st47{opacity:0.3;fill:none;stroke:url(#SVGID_31_);stroke-miterlimit:10;enable-background:new    ;}
	.st48{opacity:0.3;fill:none;stroke:url(#SVGID_32_);stroke-miterlimit:10;enable-background:new    ;}
</style>
<circle class="st0" cx="1143.4" cy="489.4" r="2"/>
<rect x="-57.1" y="-6.8" class="st1" width="1513.6" height="1092.7"/>
<circle class="st2" cx="710.5" cy="863" r="13.5"/>
<circle class="st2" cx="710.5" cy="892.1" r="12"/>
<linearGradient id="SVGID_1_" gradientUnits="userSpaceOnUse" x1="68.9367" y1="207.8417" x2="1346.65" y2="207.8417">
	<stop  offset="0.4431" style="stop-color:#302E2D"/>
	<stop  offset="0.9222" style="stop-color:#302E2D;stop-opacity:0.1397"/>
	<stop  offset="1" style="stop-color:#302E2D;stop-opacity:0"/>
</linearGradient>
<line class="st3" x1="68.9" y1="207.8" x2="1346.7" y2="207.8"/>
<g>
	<line class="st0" x1="68.6" y1="970.4" x2="1345.6" y2="970.4"/>
	<g>
		<linearGradient id="SVGID_2_" gradientUnits="userSpaceOnUse" x1="68.576" y1="970.3514" x2="1345.6224" y2="974.0441">
			<stop  offset="0.4431" style="stop-color:#302E2D"/>
			<stop  offset="0.9222" style="stop-color:#302E2D;stop-opacity:0.1397"/>
			<stop  offset="1" style="stop-color:#302E2D;stop-opacity:0"/>
		</linearGradient>
		<line class="st4" x1="68.6" y1="970.4" x2="70.1" y2="970.4"/>
		<linearGradient id="SVGID_3_" gradientUnits="userSpaceOnUse" x1="68.5813" y1="968.505" x2="1345.6278" y2="972.1977">
			<stop  offset="0.4431" style="stop-color:#302E2D"/>
			<stop  offset="0.9222" style="stop-color:#302E2D;stop-opacity:0.1397"/>
			<stop  offset="1" style="stop-color:#302E2D;stop-opacity:0"/>
		</linearGradient>
		<line class="st5" x1="73.1" y1="970.4" x2="1342.6" y2="970.4"/>
		<linearGradient id="SVGID_4_" gradientUnits="userSpaceOnUse" x1="68.5866" y1="966.663" x2="1345.6331" y2="970.3557">
			<stop  offset="0.4431" style="stop-color:#302E2D"/>
			<stop  offset="0.9222" style="stop-color:#302E2D;stop-opacity:0.1397"/>
			<stop  offset="1" style="stop-color:#302E2D;stop-opacity:0"/>
		</linearGradient>
		<line class="st6" x1="1344.1" y1="970.4" x2="1345.6" y2="970.4"/>
	</g>
</g>
<g>
	<line class="st0" x1="68.9" y1="613.7" x2="1346.7" y2="613.7"/>
	<g>
		<linearGradient id="SVGID_5_" gradientUnits="userSpaceOnUse" x1="68.9347" y1="613.6608" x2="1346.65" y2="613.6608">
			<stop  offset="0.4431" style="stop-color:#302E2D"/>
			<stop  offset="0.9222" style="stop-color:#302E2D;stop-opacity:0.1397"/>
			<stop  offset="1" style="stop-color:#302E2D;stop-opacity:0"/>
		</linearGradient>
		<line class="st7" x1="68.9" y1="613.7" x2="70.4" y2="613.7"/>
		<linearGradient id="SVGID_6_" gradientUnits="userSpaceOnUse" x1="68.9347" y1="613.6608" x2="1346.65" y2="613.6608">
			<stop  offset="0.4431" style="stop-color:#302E2D"/>
			<stop  offset="0.9222" style="stop-color:#302E2D;stop-opacity:0.1397"/>
			<stop  offset="1" style="stop-color:#302E2D;stop-opacity:0"/>
		</linearGradient>
		<line class="st8" x1="73.4" y1="613.7" x2="1343.7" y2="613.7"/>
		<linearGradient id="SVGID_7_" gradientUnits="userSpaceOnUse" x1="68.9347" y1="613.6608" x2="1346.65" y2="613.6608">
			<stop  offset="0.4431" style="stop-color:#302E2D"/>
			<stop  offset="0.9222" style="stop-color:#302E2D;stop-opacity:0.1397"/>
			<stop  offset="1" style="stop-color:#302E2D;stop-opacity:0"/>
		</linearGradient>
		<line class="st9" x1="1345.2" y1="613.7" x2="1346.7" y2="613.7"/>
	</g>
</g>
<g>
	<line class="st0" x1="68.9" y1="349.1" x2="1346.7" y2="349.1"/>
	<g>
		<linearGradient id="SVGID_8_" gradientUnits="userSpaceOnUse" x1="68.9347" y1="349.0914" x2="1346.65" y2="349.0914">
			<stop  offset="0.4431" style="stop-color:#302E2D"/>
			<stop  offset="0.9222" style="stop-color:#302E2D;stop-opacity:0.1397"/>
			<stop  offset="1" style="stop-color:#302E2D;stop-opacity:0"/>
		</linearGradient>
		<line class="st10" x1="68.9" y1="349.1" x2="70.4" y2="349.1"/>
		<linearGradient id="SVGID_9_" gradientUnits="userSpaceOnUse" x1="68.9347" y1="349.0914" x2="1346.65" y2="349.0914">
			<stop  offset="0.4431" style="stop-color:#302E2D"/>
			<stop  offset="0.9222" style="stop-color:#302E2D;stop-opacity:0.1397"/>
			<stop  offset="1" style="stop-color:#302E2D;stop-opacity:0"/>
		</linearGradient>
		<line class="st11" x1="73.4" y1="349.1" x2="1343.7" y2="349.1"/>
		<linearGradient id="SVGID_10_" gradientUnits="userSpaceOnUse" x1="68.9347" y1="349.0914" x2="1346.65" y2="349.0914">
			<stop  offset="0.4431" style="stop-color:#302E2D"/>
			<stop  offset="0.9222" style="stop-color:#302E2D;stop-opacity:0.1397"/>
			<stop  offset="1" style="stop-color:#302E2D;stop-opacity:0"/>
		</linearGradient>
		<line class="st12" x1="1345.2" y1="349.1" x2="1346.7" y2="349.1"/>
	</g>
</g>
<line class="st13" x1="719.3" y1="208" x2="710.5" y2="208"/>
<circle class="st2" cx="278.6" cy="212.3" r="60"/>
<line class="st13" x1="68.9" y1="207.8" x2="60.2" y2="207.8"/>
<line class="st13" x1="68.6" y1="125" x2="68.6" y2="970.4"/>
<circle class="st2" cx="278.6" cy="571.9" r="19.5"/>
<circle class="st2" cx="278.6" cy="596.2" r="24"/>
<circle class="st2" cx="278.6" cy="722.3" r="15"/>
<circle class="st2" cx="278.6" cy="727.2" r="16.5"/>
<circle class="st2" cx="278.6" cy="732" r="15"/>
<circle class="st2" cx="278.6" cy="814.5" r="13.5"/>
<circle class="st2" cx="278.6" cy="824.2" r="13.5"/>
<circle class="st2" cx="278.6" cy="819.3" r="12"/>
<circle class="st2" cx="278.6" cy="863" r="12"/>
<circle class="st14" cx="710.5" cy="208" r="63"/>
<circle class="st14" cx="710.5" cy="502" r="25.5"/>
<circle class="st2" cx="710.5" cy="736.9" r="15"/>
<circle class="st2" cx="710.5" cy="751.4" r="15"/>
<circle class="st14" cx="710.5" cy="824.2" r="16.5"/>
<circle class="st2" cx="710.5" cy="906.7" r="12"/>
<circle class="st2" cx="710.5" cy="912.2" r="10.5"/>
<circle class="st14" cx="1143.4" cy="387.5" r="34.5"/>
<circle class="st14" cx="1143.4" cy="501.1" r="30"/>
<circle class="st2" cx="1143.4" cy="586" r="21"/>
<circle class="st14" cx="1143.4" cy="712.6" r="18"/>
<circle class="st14" cx="1143.4" cy="732" r="18"/>
<circle class="st14" cx="1143.4" cy="770.8" r="13.5"/>
<circle class="st2" cx="1143.4" cy="809.6" r="12"/>
<circle class="st2" cx="1143.4" cy="824.2" r="12"/>
<circle class="st2" cx="1143.4" cy="829" r="12"/>
<circle class="st14" cx="1143.4" cy="858.2" r="10.5"/>
<path class="st15" d="M208,969.1"/>
<path class="st15" d="M208,208"/>
<path class="st15" d="M710.5,969.1"/>
<path class="st15" d="M710.5,208"/>
<text transform="matrix(1 0 0 1 18.4749 976.2586)" class="st16 st17 st18">100 pt</text>
<text transform="matrix(1 0 0 1 262.7762 994.3798)" class="st16 st19 st20">2014</text>
<text transform="matrix(1 0 0 1 695.6918 994.3798)" class="st16 st19 st20">2015</text>
<text transform="matrix(1 0 0 1 1129.5613 994.3798)" class="st16 st19 st20">2016</text>
<text transform="matrix(1 0 0 1 17.7278 619.6684)" class="st16 st17 st18">500 pt</text>
<text transform="matrix(1 0 0 1 11.1068 355.015)" class="st16 st17 st18">1000 pt</text>
<text transform="matrix(1 0 0 1 13.011 214.8211)" class="st16 st17 st18">1435 pt</text>
<g class="st21">
	<text transform="matrix(1 0 0 1 99.882 210.0106)" class="st22 st23 st24">The Guardian</text>
	<text transform="matrix(1 0 0 1 129.714 575.9013)" class="st22 st23 st24">New York Times</text>
	<text transform="matrix(1 0 0 1 655.63 739.5317)" class="st22 st23 st24">time</text>
	<text transform="matrix(1 0 0 1 1177.9215 584.605)" class="st22 st23 st24">washington post</text>
	<text transform="matrix(1 0 0 1 1169.9215 812.1995)" class="st22 st23 st24">christian science monitor</text>
	<text transform="matrix(1 0 0 1 1169.9215 825.903)" class="st22 st23 st24">scientific american</text>
	<text transform="matrix(1 0 0 1 1088.4865 833.0513)" class="st22 st23 st24">cnn</text>
	<text transform="matrix(1 0 0 1 528.2736 755.4206)" class="st22 st23 st24">wall street journal</text>
	<text transform="matrix(1 0 0 1 568.7423 873.514)" class="st22 st23 st24">financial times</text>
	<text transform="matrix(1 0 0 1 583.6691 895.1255)" class="st22 st23 st24">climate home</text>
	<text transform="matrix(1 0 0 1 471.5363 911.617)" class="st22 st23 st24">international business time</text>
	<text transform="matrix(1 0 0 1 134.6417 600.1606)" class="st22 st23 st24">thinkprogress</text>
	<text transform="matrix(1 0 0 1 81.5059 707.3095)" class="st22 st23 st24">national geographic</text>
	<text transform="matrix(1 0 0 1 118.5532 748.0128)" class="st22 st23 st24">los angeles time</text>
	<text transform="matrix(1 0 0 1 299.0161 809.4954)" class="st22 st23 st24">sydney morning herald</text>
	<text transform="matrix(1 0 0 1 98.9693 823.1993)" class="st22 st23 st24">scientific american</text>
	<text transform="matrix(1 0 0 1 299.0162 836.9955)" class="st22 st23 st24">mother jones</text>
	<text transform="matrix(1 0 0 1 118.0649 866.8511)" class="st22 st23 st24">washington post</text>
	<text transform="matrix(1 0 0 1 119.4228 727.1614)" class="st22 st23 st24">huffington post</text>
	<text transform="matrix(1 0 0 1 734.988 911.6173)" class="st22 st23 st24">the indian post</text>
</g>
<g class="st25">
	<path d="M106.9,196.8v-0.6h4.7v0.6h-2v7h-0.8v-7H106.9z"/>
	<path d="M119.9,196.2h0.8v7.6h-0.8v-3.5h-4.1v3.5H115v-7.6h0.8v3.5h4.1V196.2z"/>
	<path d="M128.1,196.2v0.6H125v2.8h2.8v0.6H125v2.9h3.1v0.6h-3.9v-7.6L128.1,196.2L128.1,196.2z"/>
	<path d="M137.6,202.8c-0.7-0.7-1.1-1.6-1.1-2.8s0.4-2,1.1-2.8c0.7-0.7,1.7-1.1,2.7-1.1c0.8,0,1.5,0.2,2.1,0.5
		c0.6,0.4,1.1,0.9,1.4,1.5h-0.9c-0.2-0.4-0.6-0.8-1-1s-0.9-0.4-1.5-0.4c-0.9,0-1.6,0.3-2.2,0.9c-0.6,0.6-0.9,1.4-0.9,2.3
		s0.3,1.7,0.9,2.3c0.6,0.6,1.3,0.9,2.2,0.9s1.6-0.3,2.1-0.8s0.9-1.2,0.9-2.1H140v-0.6h4.2v0.6c-0.1,1.1-0.5,1.9-1.2,2.6
		c-0.7,0.6-1.6,1-2.7,1C139.3,203.9,138.4,203.5,137.6,202.8z"/>
	<path d="M147.5,201.3v-5h0.8v5c0,0.7,0.2,1.2,0.5,1.5c0.4,0.3,0.9,0.5,1.5,0.5s1.1-0.2,1.5-0.5s0.5-0.8,0.5-1.5v-5h0.8v5
		c0,0.9-0.3,1.5-0.8,2c-0.5,0.4-1.2,0.7-2,0.7s-1.5-0.2-2-0.7C147.7,202.8,147.5,202.1,147.5,201.3z"/>
	<path d="M162.1,203.8l-0.6-1.8H158l-0.6,1.8h-0.9l2.8-7.6h0.8l2.8,7.6H162.1z M158.1,201.4h3.1l-1.5-4.2L158.1,201.4z"/>
	<path d="M167,200.6v3.2h-0.8v-7.6h2.3c0.9,0,1.5,0.2,1.9,0.6s0.7,0.9,0.7,1.5s-0.2,1.1-0.5,1.5s-0.9,0.6-1.5,0.7l2.2,3.2h-1
		l-2.1-3.2H167L167,200.6L167,200.6z M167,196.8v3.2h1.6c1.2,0,1.8-0.5,1.8-1.6s-0.6-1.6-1.8-1.6L167,196.8L167,196.8z"/>
	<path d="M177.2,196.2c1.2,0,2.2,0.3,2.9,1s1,1.6,1,2.8s-0.3,2.1-1,2.8c-0.7,0.6-1.6,1-2.9,1h-2.3v-7.6H177.2z M175.6,203.2h1.6
		c1,0,1.8-0.3,2.3-0.8s0.8-1.3,0.8-2.3s-0.3-1.8-0.8-2.3s-1.3-0.8-2.3-0.8h-1.6V203.2z"/>
	<path d="M184.4,203.8v-7.6h0.8v7.6H184.4z"/>
	<path d="M194.2,203.8l-0.6-1.8h-3.5l-0.6,1.8h-0.8l2.8-7.6h0.8l2.8,7.6H194.2z M190.2,201.4h3.1l-1.5-4.2L190.2,201.4z"/>
	<path d="M203.3,196.2h0.8v7.6h-0.8l-4.3-6.4v6.4h-0.8v-7.6h0.8l4.3,6.4V196.2z"/>
</g>
<g class="st25">
	<path d="M135.6,568.3h0.8v7.6h-0.8l-4.3-6.4v6.4h-0.8v-7.6h0.8l4.3,6.4V568.3z"/>
	<path d="M143.8,568.3v0.6h-3.1v2.8h2.8v0.6h-2.8v2.9h3.1v0.6H140v-7.6h3.8V568.3z"/>
	<path d="M156,568.3h0.8l-2.4,7.6h-0.8l-1.8-6.5l-2,6.5H149l-2.1-7.6h0.8l1.8,6.7l2-6.7h0.8l1.8,6.7L156,568.3z"/>
	<path d="M167.7,575.9H167v-3l-2.4-4.6h0.8l2,3.9l2-3.9h0.8l-2.4,4.6v3H167.7z"/>
	<path d="M173.9,574.9c-0.7-0.7-1.1-1.7-1.1-2.8s0.4-2,1.1-2.8c0.7-0.7,1.7-1.1,2.8-1.1s2,0.4,2.7,1.1s1.1,1.7,1.1,2.8
		s-0.4,2-1.1,2.8s-1.7,1.1-2.7,1.1C175.5,576,174.6,575.6,173.9,574.9z M178.8,574.4c0.6-0.6,0.9-1.4,0.9-2.3s-0.3-1.7-0.9-2.3
		c-0.6-0.6-1.3-0.9-2.2-0.9s-1.6,0.3-2.2,0.9c-0.6,0.6-0.9,1.4-0.9,2.3s0.3,1.7,0.9,2.3c0.6,0.6,1.3,0.9,2.2,0.9
		S178.2,575,178.8,574.4z"/>
	<path d="M184.5,572.7v3.2h-0.8v-7.6h2.3c0.9,0,1.5,0.2,1.9,0.6s0.7,0.9,0.7,1.5s-0.2,1.1-0.5,1.5s-0.9,0.6-1.5,0.7l2.2,3.2h-1
		l-2.1-3.2L184.5,572.7L184.5,572.7z M184.5,568.9v3.2h1.6c1.2,0,1.8-0.5,1.8-1.6s-0.6-1.6-1.8-1.6L184.5,568.9L184.5,568.9z"/>
	<path d="M193.1,575.9h-0.8v-7.6h0.8v3.6l3.3-3.6h1l-3.7,3.8l3.7,3.7h-1l-3.2-3.4v3.5H193.1z"/>
	<path d="M205.6,568.9v-0.6h4.7v0.6h-2v7h-0.8v-7H205.6z"/>
	<path d="M213.7,575.9v-7.6h0.8v7.6H213.7z"/>
	<path d="M225.6,568.3v7.6h-0.8v-5.8l-2.8,5.8h-0.5l-2.8-5.8v5.8h-0.8v-7.6h0.7l3,6.5l3-6.5H225.6z"/>
	<path d="M233.1,568.3v0.6H230v2.8h2.8v0.6H230v2.9h3.1v0.6h-3.9v-7.6h3.9V568.3z"/>
	<path d="M237.1,570.3c0,0.3,0.1,0.5,0.2,0.7c0.2,0.2,0.4,0.3,0.6,0.4c0.2,0.1,0.5,0.2,0.8,0.2c0.3,0.1,0.6,0.1,0.9,0.2
		c0.3,0.1,0.6,0.2,0.8,0.3s0.5,0.3,0.6,0.6c0.2,0.3,0.2,0.6,0.2,1c0,0.6-0.2,1.1-0.6,1.5c-0.4,0.4-1,0.6-1.8,0.6s-1.4-0.2-1.8-0.5
		c-0.5-0.3-0.7-0.8-0.7-1.4h0.8c0,0.4,0.2,0.6,0.5,0.9c0.3,0.2,0.7,0.3,1.2,0.3s1-0.1,1.3-0.4c0.3-0.3,0.5-0.6,0.5-1
		s-0.1-0.7-0.4-0.9c-0.3-0.2-0.6-0.4-1.1-0.4c-0.4-0.1-0.8-0.2-1.2-0.3s-0.8-0.3-1.1-0.6s-0.4-0.8-0.4-1.3c0-0.6,0.2-1.1,0.7-1.5
		c0.4-0.4,1-0.6,1.7-0.6s1.3,0.2,1.7,0.5s0.7,0.8,0.7,1.3h-0.9c0-0.3-0.2-0.6-0.5-0.8s-0.7-0.3-1.1-0.3s-0.9,0.1-1.2,0.4
		C237.3,569.5,237.1,569.9,237.1,570.3z"/>
</g>
<g class="st25">
	<path d="M656.2,732.6V732h4.7v0.6h-2v7h-0.8v-7H656.2z"/>
	<path d="M664.3,739.5v-7.6h0.8v7.6H664.3z"/>
	<path d="M676.2,731.9v7.6h-0.8v-5.8l-2.8,5.8h-0.5l-2.8-5.8v5.8h-0.8v-7.6h0.7l3,6.5l3-6.5H676.2z"/>
	<path d="M683.7,731.9v0.6h-3.1v2.8h2.8v0.6h-2.8v2.9h3.1v0.6h-3.9v-7.6h3.9V731.9z"/>
</g>
<g class="st25">
	<path d="M1187.4,577h0.8l-2.4,7.6h-0.8l-1.8-6.5l-2,6.5h-0.8l-2.1-7.6h0.8l1.8,6.7l2-6.7h0.8l1.8,6.7L1187.4,577z"/>
	<path d="M1196.7,584.6l-0.6-1.8h-3.5l-0.6,1.8h-0.8l2.8-7.6h0.8l2.8,7.6H1196.7z M1192.7,582.2h3.1l-1.5-4.2L1192.7,582.2z"/>
	<path d="M1201.4,579c0,0.3,0.1,0.5,0.2,0.7c0.2,0.2,0.4,0.3,0.6,0.4c0.2,0.1,0.5,0.2,0.8,0.2s0.6,0.1,0.9,0.2
		c0.3,0.1,0.6,0.2,0.8,0.3c0.2,0.1,0.5,0.3,0.6,0.6c0.2,0.3,0.2,0.6,0.2,1c0,0.6-0.2,1.1-0.6,1.5s-1,0.6-1.8,0.6s-1.4-0.2-1.8-0.5
		c-0.5-0.3-0.7-0.8-0.7-1.4h0.8c0,0.4,0.2,0.6,0.5,0.9c0.3,0.2,0.7,0.3,1.2,0.3s1-0.1,1.3-0.4s0.5-0.6,0.5-1s-0.1-0.7-0.4-0.9
		s-0.6-0.4-1.1-0.4c-0.4-0.1-0.8-0.2-1.2-0.3c-0.4-0.1-0.8-0.3-1.1-0.6c-0.3-0.3-0.4-0.8-0.4-1.3c0-0.6,0.2-1.1,0.7-1.5
		s1-0.6,1.7-0.6s1.3,0.2,1.7,0.5c0.4,0.3,0.7,0.8,0.7,1.3h-0.9c0-0.3-0.2-0.6-0.5-0.8s-0.7-0.3-1.1-0.3c-0.5,0-0.9,0.1-1.2,0.4
		S1201.4,578.6,1201.4,579z"/>
	<path d="M1214,577h0.8v7.6h-0.8v-3.5h-4.1v3.5h-0.8V577h0.8v3.5h4.1V577z"/>
	<path d="M1218.4,584.6V577h0.8v7.6H1218.4z"/>
	<path d="M1227.8,577h0.8v7.6h-0.8l-4.3-6.4v6.4h-0.8V577h0.8l4.3,6.4V577z"/>
	<path d="M1233,583.6c-0.7-0.7-1.1-1.7-1.1-2.8s0.4-2,1.1-2.8c0.7-0.7,1.7-1.1,2.7-1.1c0.8,0,1.5,0.2,2.1,0.5
		c0.6,0.4,1.1,0.9,1.4,1.5h-0.9c-0.2-0.4-0.6-0.8-1-1s-0.9-0.4-1.5-0.4c-0.9,0-1.6,0.3-2.2,0.9c-0.6,0.6-0.9,1.4-0.9,2.3
		s0.3,1.7,0.9,2.3s1.3,0.9,2.2,0.9s1.6-0.3,2.1-0.8s0.9-1.2,0.9-2.1h-3.4v-0.6h4.2v0.6c-0.1,1.1-0.5,1.9-1.2,2.6s-1.6,1-2.7,1
		S1233.7,584.3,1233,583.6z"/>
	<path d="M1242.5,577.6V577h4.7v0.6h-2v7h-0.8v-7H1242.5z"/>
	<path d="M1251.3,583.6c-0.7-0.7-1.1-1.7-1.1-2.8s0.4-2,1.1-2.8c0.7-0.7,1.7-1.1,2.8-1.1c1.1,0,2,0.4,2.7,1.1
		c0.7,0.7,1.1,1.7,1.1,2.8s-0.4,2-1.1,2.8c-0.7,0.7-1.7,1.1-2.7,1.1C1253,584.7,1252.1,584.3,1251.3,583.6z M1256.3,583.1
		c0.6-0.6,0.9-1.4,0.9-2.3s-0.3-1.7-0.9-2.3s-1.3-0.9-2.2-0.9c-0.9,0-1.6,0.3-2.2,0.9c-0.6,0.6-0.9,1.4-0.9,2.3s0.3,1.7,0.9,2.3
		s1.3,0.9,2.2,0.9S1255.7,583.7,1256.3,583.1z"/>
	<path d="M1266.2,577h0.8v7.6h-0.8l-4.3-6.4v6.4h-0.8V577h0.8l4.3,6.4V577z"/>
	<path d="M1280.2,577.6c0.4,0.4,0.7,0.9,0.7,1.6s-0.2,1.2-0.7,1.6c-0.4,0.4-1.1,0.6-1.9,0.6h-1.6v3.2h-0.8V577h2.3
		C1279.1,577,1279.7,577.2,1280.2,577.6z M1276.7,580.8h1.6c1.2,0,1.8-0.5,1.8-1.6s-0.6-1.6-1.8-1.6h-1.6V580.8z"/>
	<path d="M1284.8,583.6c-0.7-0.7-1.1-1.7-1.1-2.8s0.4-2,1.1-2.8c0.7-0.7,1.7-1.1,2.8-1.1s2,0.4,2.7,1.1c0.7,0.7,1.1,1.7,1.1,2.8
		s-0.4,2-1.1,2.8c-0.7,0.7-1.7,1.1-2.7,1.1S1285.6,584.3,1284.8,583.6z M1289.8,583.1c0.6-0.6,0.9-1.4,0.9-2.3s-0.3-1.7-0.9-2.3
		s-1.3-0.9-2.2-0.9c-0.9,0-1.6,0.3-2.2,0.9c-0.6,0.6-0.9,1.4-0.9,2.3s0.3,1.7,0.9,2.3s1.3,0.9,2.2,0.9S1289.2,583.7,1289.8,583.1z"
		/>
	<path d="M1295.2,579c0,0.3,0.1,0.5,0.2,0.7c0.2,0.2,0.4,0.3,0.6,0.4s0.5,0.2,0.8,0.2s0.6,0.1,0.9,0.2c0.3,0.1,0.6,0.2,0.8,0.3
		c0.2,0.1,0.5,0.3,0.6,0.6c0.2,0.3,0.2,0.6,0.2,1c0,0.6-0.2,1.1-0.6,1.5s-1,0.6-1.8,0.6s-1.4-0.2-1.8-0.5c-0.5-0.3-0.7-0.8-0.7-1.4
		h0.8c0,0.4,0.2,0.6,0.5,0.9c0.3,0.2,0.7,0.3,1.2,0.3s1-0.1,1.3-0.4c0.3-0.3,0.5-0.6,0.5-1s-0.1-0.7-0.4-0.9s-0.6-0.4-1.1-0.4
		c-0.4-0.1-0.8-0.2-1.2-0.3c-0.4-0.1-0.8-0.3-1.1-0.6c-0.3-0.3-0.4-0.8-0.4-1.3c0-0.6,0.2-1.1,0.7-1.5c0.4-0.4,1-0.6,1.7-0.6
		s1.3,0.2,1.7,0.5c0.4,0.3,0.7,0.8,0.7,1.3h-0.9c0-0.3-0.2-0.6-0.5-0.8s-0.7-0.3-1.1-0.3c-0.5,0-0.9,0.1-1.2,0.4
		C1295.4,578.2,1295.2,578.6,1295.2,579z"/>
	<path d="M1302.7,577.6V577h4.7v0.6h-2v7h-0.8v-7H1302.7z"/>
</g>
<g class="st25">
	<path d="M1171.5,811.2c-0.7-0.7-1.1-1.6-1.1-2.8s0.4-2,1.1-2.8c0.7-0.7,1.7-1.1,2.7-1.1c0.8,0,1.5,0.2,2.1,0.5
		c0.6,0.4,1.1,0.9,1.4,1.5h-0.9c-0.2-0.4-0.6-0.8-1-1s-0.9-0.4-1.5-0.4c-0.9,0-1.6,0.3-2.2,0.9c-0.6,0.6-0.9,1.4-0.9,2.3
		s0.3,1.7,0.9,2.3s1.3,0.9,2.2,0.9c0.6,0,1.1-0.1,1.5-0.4c0.4-0.2,0.8-0.6,1-1h0.9c-0.3,0.7-0.8,1.2-1.4,1.5
		c-0.6,0.4-1.3,0.5-2.1,0.5C1173.1,812.3,1172.2,811.9,1171.5,811.2z"/>
	<path d="M1186.2,804.6h0.8v7.6h-0.8v-3.5h-4.1v3.5h-0.8v-7.6h0.8v3.5h4.1V804.6z"/>
	<path d="M1191.3,809v3.2h-0.8v-7.6h2.3c0.9,0,1.5,0.2,1.9,0.6c0.4,0.4,0.7,0.9,0.7,1.5s-0.2,1.1-0.5,1.5s-0.9,0.6-1.5,0.7l2.2,3.2
		h-1l-2.1-3.2L1191.3,809L1191.3,809z M1191.3,805.2v3.2h1.6c1.2,0,1.8-0.5,1.8-1.6s-0.6-1.6-1.8-1.6L1191.3,805.2L1191.3,805.2z"/>
	<path d="M1199.2,812.2v-7.6h0.8v7.6H1199.2z"/>
	<path d="M1204.2,806.6c0,0.3,0.1,0.5,0.2,0.7c0.2,0.2,0.4,0.3,0.6,0.4s0.5,0.2,0.8,0.2c0.3,0.1,0.6,0.1,0.9,0.2
		c0.3,0.1,0.6,0.2,0.8,0.3c0.2,0.1,0.5,0.3,0.6,0.6c0.2,0.3,0.2,0.6,0.2,1c0,0.6-0.2,1.1-0.6,1.5s-1,0.6-1.8,0.6s-1.4-0.2-1.8-0.5
		c-0.5-0.3-0.7-0.8-0.7-1.4h0.8c0,0.4,0.2,0.6,0.5,0.9c0.3,0.2,0.7,0.3,1.2,0.3s1-0.1,1.3-0.4c0.3-0.3,0.5-0.6,0.5-1
		s-0.1-0.7-0.4-0.9s-0.6-0.4-1.1-0.4c-0.4-0.1-0.8-0.2-1.2-0.3s-0.8-0.3-1.1-0.6c-0.3-0.3-0.4-0.8-0.4-1.3c0-0.6,0.2-1.1,0.7-1.5
		c0.4-0.4,1-0.6,1.7-0.6s1.3,0.2,1.7,0.5c0.4,0.3,0.7,0.8,0.7,1.3h-0.9c0-0.3-0.2-0.6-0.5-0.8s-0.7-0.3-1.1-0.3
		c-0.5,0-0.9,0.1-1.2,0.4C1204.3,805.8,1204.2,806.1,1204.2,806.6z"/>
	<path d="M1211.6,805.2v-0.6h4.7v0.6h-2v7h-0.8v-7H1211.6z"/>
	<path d="M1219.7,812.2v-7.6h0.8v7.6H1219.7z"/>
	<path d="M1229.5,812.2l-0.6-1.8h-3.5l-0.6,1.8h-0.8l2.8-7.6h0.8l2.8,7.6H1229.5z M1225.5,809.8h3.1l-1.5-4.2L1225.5,809.8z"/>
	<path d="M1238.6,804.6h0.8v7.6h-0.8l-4.3-6.4v6.4h-0.8v-7.6h0.8l4.3,6.4V804.6z"/>
	<path d="M1248.9,806.6c0,0.3,0.1,0.5,0.2,0.7c0.2,0.2,0.4,0.3,0.6,0.4c0.2,0.1,0.5,0.2,0.8,0.2c0.3,0.1,0.6,0.1,0.9,0.2
		c0.3,0.1,0.6,0.2,0.8,0.3c0.2,0.1,0.5,0.3,0.6,0.6c0.2,0.3,0.2,0.6,0.2,1c0,0.6-0.2,1.1-0.6,1.5s-1,0.6-1.8,0.6s-1.4-0.2-1.8-0.5
		c-0.5-0.3-0.7-0.8-0.7-1.4h0.8c0,0.4,0.2,0.6,0.5,0.9c0.3,0.2,0.7,0.3,1.2,0.3s1-0.1,1.3-0.4c0.3-0.3,0.5-0.6,0.5-1
		s-0.1-0.7-0.4-0.9s-0.6-0.4-1.1-0.4c-0.4-0.1-0.8-0.2-1.2-0.3c-0.4-0.1-0.8-0.3-1.1-0.6c-0.3-0.3-0.4-0.8-0.4-1.3
		c0-0.6,0.2-1.1,0.7-1.5c0.4-0.4,1-0.6,1.7-0.6s1.3,0.2,1.7,0.5c0.4,0.3,0.7,0.8,0.7,1.3h-0.9c0-0.3-0.2-0.6-0.5-0.8
		s-0.7-0.3-1.1-0.3c-0.5,0-0.9,0.1-1.2,0.4C1249.1,805.8,1248.9,806.1,1248.9,806.6z"/>
	<path d="M1257.4,811.2c-0.7-0.7-1.1-1.6-1.1-2.8s0.4-2,1.1-2.8c0.7-0.7,1.7-1.1,2.7-1.1c0.8,0,1.5,0.2,2.1,0.5
		c0.6,0.4,1.1,0.9,1.4,1.5h-0.9c-0.2-0.4-0.6-0.8-1-1s-0.9-0.4-1.5-0.4c-0.9,0-1.6,0.3-2.2,0.9c-0.6,0.6-0.9,1.4-0.9,2.3
		s0.3,1.7,0.9,2.3s1.3,0.9,2.2,0.9c0.6,0,1.1-0.1,1.5-0.4c0.4-0.2,0.8-0.6,1-1h0.9c-0.3,0.7-0.8,1.2-1.4,1.5
		c-0.6,0.4-1.3,0.5-2.1,0.5C1259,812.3,1258.1,811.9,1257.4,811.2z"/>
	<path d="M1267.2,812.2v-7.6h0.8v7.6H1267.2z"/>
	<path d="M1275.5,804.6v0.6h-3.1v2.8h2.8v0.6h-2.8v2.9h3.1v0.6h-3.9v-7.6h3.9V804.6z"/>
	<path d="M1284,804.6h0.8v7.6h-0.8l-4.3-6.4v6.4h-0.8v-7.6h0.8l4.3,6.4V804.6z"/>
	<path d="M1289.1,811.2c-0.7-0.7-1.1-1.6-1.1-2.8s0.4-2,1.1-2.8c0.7-0.7,1.7-1.1,2.7-1.1c0.8,0,1.5,0.2,2.1,0.5
		c0.6,0.4,1.1,0.9,1.4,1.5h-0.9c-0.2-0.4-0.6-0.8-1-1s-0.9-0.4-1.5-0.4c-0.9,0-1.6,0.3-2.2,0.9c-0.6,0.6-0.9,1.4-0.9,2.3
		s0.3,1.7,0.9,2.3s1.3,0.9,2.2,0.9c0.6,0,1.1-0.1,1.5-0.4c0.4-0.2,0.8-0.6,1-1h0.9c-0.3,0.7-0.8,1.2-1.4,1.5
		c-0.6,0.4-1.3,0.5-2.1,0.5C1290.8,812.3,1289.9,811.9,1289.1,811.2z"/>
	<path d="M1302.8,804.6v0.6h-3.1v2.8h2.8v0.6h-2.8v2.9h3.1v0.6h-3.9v-7.6h3.9V804.6z"/>
	<path d="M1319.1,804.6v7.6h-0.8v-5.8l-2.8,5.8h-0.5l-2.8-5.8v5.8h-0.8v-7.6h0.7l3,6.5l3-6.5H1319.1z"/>
	<path d="M1323.5,811.2c-0.7-0.7-1.1-1.7-1.1-2.8s0.4-2,1.1-2.8s1.7-1.1,2.8-1.1s2,0.4,2.7,1.1c0.7,0.7,1.1,1.7,1.1,2.8
		s-0.4,2-1.1,2.8c-0.7,0.7-1.7,1.1-2.7,1.1S1324.2,811.9,1323.5,811.2z M1328.4,810.7c0.6-0.6,0.9-1.4,0.9-2.3s-0.3-1.7-0.9-2.3
		s-1.3-0.9-2.2-0.9c-0.9,0-1.6,0.3-2.2,0.9c-0.6,0.6-0.9,1.4-0.9,2.3s0.3,1.7,0.9,2.3s1.3,0.9,2.2,0.9S1327.8,811.3,1328.4,810.7z"
		/>
	<path d="M1338.4,804.6h0.8v7.6h-0.8l-4.3-6.4v6.4h-0.8v-7.6h0.8l4.3,6.4V804.6z"/>
	<path d="M1342.8,812.2v-7.6h0.8v7.6H1342.8z"/>
	<path d="M1346.9,805.2v-0.6h4.7v0.6h-2v7h-0.8v-7H1346.9z"/>
	<path d="M1355.7,811.2c-0.7-0.7-1.1-1.7-1.1-2.8s0.4-2,1.1-2.8c0.7-0.7,1.7-1.1,2.8-1.1c1.1,0,2,0.4,2.7,1.1
		c0.7,0.7,1.1,1.7,1.1,2.8s-0.4,2-1.1,2.8c-0.7,0.7-1.7,1.1-2.7,1.1C1357.4,812.3,1356.5,811.9,1355.7,811.2z M1360.7,810.7
		c0.6-0.6,0.9-1.4,0.9-2.3s-0.3-1.7-0.9-2.3s-1.3-0.9-2.2-0.9c-0.9,0-1.6,0.3-2.2,0.9c-0.6,0.6-0.9,1.4-0.9,2.3s0.3,1.7,0.9,2.3
		s1.3,0.9,2.2,0.9S1360.1,811.3,1360.7,810.7z"/>
	<path d="M1366.3,809v3.2h-0.8v-7.6h2.3c0.9,0,1.5,0.2,1.9,0.6c0.4,0.4,0.7,0.9,0.7,1.5s-0.2,1.1-0.5,1.5s-0.9,0.6-1.5,0.7l2.2,3.2
		h-1l-2.1-3.2L1366.3,809L1366.3,809z M1366.3,805.2v3.2h1.6c1.2,0,1.8-0.5,1.8-1.6s-0.6-1.6-1.8-1.6L1366.3,805.2L1366.3,805.2z"/>
</g>
<g class="st25">
	<path d="M1171.3,820.3c0,0.3,0.1,0.5,0.2,0.7c0.2,0.2,0.4,0.3,0.6,0.4s0.5,0.2,0.8,0.2c0.3,0.1,0.6,0.1,0.9,0.2
		c0.3,0.1,0.6,0.2,0.8,0.3c0.2,0.1,0.5,0.3,0.6,0.6c0.2,0.3,0.2,0.6,0.2,1c0,0.6-0.2,1.1-0.6,1.5s-1,0.6-1.8,0.6s-1.4-0.2-1.8-0.5
		c-0.5-0.3-0.7-0.8-0.7-1.4h0.8c0,0.4,0.2,0.6,0.5,0.9c0.3,0.2,0.7,0.3,1.2,0.3s1-0.1,1.3-0.4c0.3-0.3,0.5-0.6,0.5-1
		s-0.1-0.7-0.4-0.9s-0.6-0.4-1.1-0.4c-0.4-0.1-0.8-0.2-1.2-0.3s-0.8-0.3-1.1-0.6c-0.3-0.3-0.4-0.8-0.4-1.3c0-0.6,0.2-1.1,0.7-1.5
		c0.4-0.4,1-0.6,1.7-0.6s1.3,0.2,1.7,0.5c0.4,0.3,0.7,0.8,0.7,1.3h-0.9c0-0.3-0.2-0.6-0.5-0.8s-0.7-0.3-1.1-0.3
		c-0.5,0-0.9,0.1-1.2,0.4C1171.4,819.5,1171.3,819.9,1171.3,820.3z"/>
	<path d="M1179.8,824.9c-0.7-0.7-1.1-1.6-1.1-2.8s0.4-2,1.1-2.8s1.7-1.1,2.7-1.1c0.8,0,1.5,0.2,2.1,0.5c0.6,0.4,1.1,0.9,1.4,1.5
		h-0.9c-0.2-0.4-0.6-0.8-1-1s-0.9-0.4-1.5-0.4c-0.9,0-1.6,0.3-2.2,0.9c-0.6,0.6-0.9,1.4-0.9,2.3s0.3,1.7,0.9,2.3s1.3,0.9,2.2,0.9
		c0.6,0,1.1-0.1,1.5-0.4c0.4-0.2,0.8-0.6,1-1h0.9c-0.3,0.7-0.8,1.2-1.4,1.5c-0.6,0.4-1.3,0.5-2.1,0.5
		C1181.4,826,1180.5,825.6,1179.8,824.9z"/>
	<path d="M1189.6,825.9v-7.6h0.8v7.6H1189.6z"/>
	<path d="M1197.9,818.3v0.6h-3.1v2.8h2.8v0.6h-2.8v2.9h3.1v0.6h-3.9v-7.6h3.9V818.3z"/>
	<path d="M1206.4,818.3h0.8v7.6h-0.8l-4.3-6.4v6.4h-0.8v-7.6h0.8l4.3,6.4V818.3z"/>
	<path d="M1210.5,818.9v-0.6h4.7v0.6h-2v7h-0.8v-7H1210.5z"/>
	<path d="M1218.6,825.9v-7.6h0.8v7.6H1218.6z"/>
	<path d="M1223,825.9v-7.6h4.1v0.6h-3.3v2.8h2.7v0.6h-2.7v3.5h-0.8L1223,825.9L1223,825.9z"/>
	<path d="M1230.1,825.9v-7.6h0.8v7.6H1230.1z"/>
	<path d="M1235.3,824.9c-0.7-0.7-1.1-1.6-1.1-2.8s0.4-2,1.1-2.8s1.7-1.1,2.7-1.1c0.8,0,1.5,0.2,2.1,0.5c0.6,0.4,1.1,0.9,1.4,1.5
		h-0.9c-0.2-0.4-0.6-0.8-1-1s-0.9-0.4-1.5-0.4c-0.9,0-1.6,0.3-2.2,0.9c-0.6,0.6-0.9,1.4-0.9,2.3s0.3,1.7,0.9,2.3s1.3,0.9,2.2,0.9
		c0.6,0,1.1-0.1,1.5-0.4c0.4-0.2,0.8-0.6,1-1h0.9c-0.3,0.7-0.8,1.2-1.4,1.5c-0.6,0.4-1.3,0.5-2.1,0.5
		C1236.9,826,1236,825.6,1235.3,824.9z"/>
	<path d="M1255.8,825.9l-0.6-1.8h-3.5l-0.6,1.8h-0.8l2.8-7.6h0.8l2.8,7.6H1255.8z M1251.8,823.5h3.1l-1.5-4.2L1251.8,823.5z"/>
	<path d="M1267.5,818.3v7.6h-0.8v-5.8l-2.8,5.8h-0.5l-2.8-5.8v5.8h-0.8v-7.6h0.7l3,6.5l3-6.5H1267.5z"/>
	<path d="M1275,818.3v0.6h-3.1v2.8h2.8v0.6h-2.8v2.9h3.1v0.6h-3.9v-7.6h3.9V818.3z"/>
	<path d="M1279.2,822.7v3.2h-0.8v-7.6h2.3c0.9,0,1.5,0.2,1.9,0.6c0.4,0.4,0.7,0.9,0.7,1.5s-0.2,1.1-0.5,1.5s-0.9,0.6-1.5,0.7
		l2.2,3.2h-1l-2.1-3.2L1279.2,822.7L1279.2,822.7z M1279.2,818.9v3.2h1.6c1.2,0,1.8-0.5,1.8-1.6s-0.6-1.6-1.8-1.6L1279.2,818.9
		L1279.2,818.9z"/>
	<path d="M1287.1,825.9v-7.6h0.8v7.6H1287.1z"/>
	<path d="M1292.2,824.9c-0.7-0.7-1.1-1.6-1.1-2.8s0.4-2,1.1-2.8s1.7-1.1,2.7-1.1c0.8,0,1.5,0.2,2.1,0.5c0.6,0.4,1.1,0.9,1.4,1.5
		h-0.9c-0.2-0.4-0.6-0.8-1-1s-0.9-0.4-1.5-0.4c-0.9,0-1.6,0.3-2.2,0.9c-0.6,0.6-0.9,1.4-0.9,2.3s0.3,1.7,0.9,2.3s1.3,0.9,2.2,0.9
		c0.6,0,1.1-0.1,1.5-0.4c0.4-0.2,0.8-0.6,1-1h0.9c-0.3,0.7-0.8,1.2-1.4,1.5c-0.6,0.4-1.3,0.5-2.1,0.5
		C1293.9,826,1293,825.6,1292.2,824.9z"/>
	<path d="M1307.4,825.9l-0.6-1.8h-3.5l-0.6,1.8h-0.8l2.8-7.6h0.8l2.8,7.6H1307.4z M1303.4,823.5h3.1l-1.5-4.2L1303.4,823.5z"/>
	<path d="M1316.6,818.3h0.8v7.6h-0.8l-4.3-6.4v6.4h-0.8v-7.6h0.8l4.3,6.4V818.3z"/>
</g>
<g class="st25">
	<path d="M1090,832c-0.7-0.7-1.1-1.6-1.1-2.8c0-1.1,0.4-2,1.1-2.8c0.7-0.7,1.7-1.1,2.7-1.1c0.8,0,1.5,0.2,2.1,0.5
		c0.6,0.4,1.1,0.9,1.4,1.5h-0.9c-0.2-0.4-0.6-0.8-1-1s-0.9-0.4-1.5-0.4c-0.9,0-1.6,0.3-2.2,0.9c-0.6,0.6-0.9,1.4-0.9,2.3
		s0.3,1.7,0.9,2.3s1.3,0.9,2.2,0.9c0.6,0,1.1-0.1,1.5-0.4c0.4-0.2,0.8-0.6,1-1h0.9c-0.3,0.7-0.8,1.2-1.4,1.5
		c-0.6,0.4-1.3,0.5-2.1,0.5C1091.7,833.1,1090.8,832.8,1090,832z"/>
	<path d="M1104.9,825.5h0.8v7.6h-0.8l-4.3-6.4v6.4h-0.8v-7.6h0.8l4.3,6.4V825.5z"/>
	<path d="M1114.3,825.5h0.8v7.6h-0.8l-4.3-6.4v6.4h-0.8v-7.6h0.8l4.3,6.4V825.5z"/>
</g>
<g class="st25">
	<path d="M537.7,747.8h0.8l-2.4,7.6h-0.8l-1.8-6.5l-2,6.5h-0.8l-2.1-7.6h0.8l1.8,6.7l2-6.7h0.8l1.8,6.7L537.7,747.8z"/>
	<path d="M547,755.4l-0.6-1.8h-3.5l-0.6,1.8h-0.8l2.8-7.6h0.8l2.8,7.6H547z M543.1,753h3.1l-1.5-4.2L543.1,753z"/>
	<path d="M551.2,747.8h0.8v7h2.8v0.6h-3.5L551.2,747.8L551.2,747.8z"/>
	<path d="M557.8,747.8h0.8v7h2.8v0.6h-3.5L557.8,747.8L557.8,747.8z"/>
	<path d="M570.2,749.8c0,0.3,0.1,0.5,0.2,0.7c0.2,0.2,0.4,0.3,0.6,0.4c0.2,0.1,0.5,0.2,0.8,0.2c0.3,0.1,0.6,0.1,0.9,0.2
		c0.3,0.1,0.6,0.2,0.8,0.3s0.5,0.3,0.6,0.6c0.2,0.3,0.2,0.6,0.2,1c0,0.6-0.2,1.1-0.6,1.5c-0.4,0.4-1,0.6-1.8,0.6s-1.4-0.2-1.8-0.5
		c-0.5-0.3-0.7-0.8-0.7-1.4h0.8c0,0.4,0.2,0.6,0.5,0.9c0.3,0.2,0.7,0.3,1.2,0.3s1-0.1,1.3-0.4c0.3-0.3,0.5-0.6,0.5-1
		s-0.1-0.7-0.4-0.9c-0.3-0.2-0.6-0.4-1.1-0.4c-0.4-0.1-0.8-0.2-1.2-0.3s-0.8-0.3-1.1-0.6s-0.4-0.8-0.4-1.3c0-0.6,0.2-1.1,0.7-1.5
		c0.4-0.4,1-0.6,1.7-0.6s1.3,0.2,1.7,0.5s0.7,0.8,0.7,1.3h-0.9c0-0.3-0.2-0.6-0.5-0.8s-0.7-0.3-1.1-0.3s-0.9,0.1-1.2,0.4
		C570.3,749,570.2,749.4,570.2,749.8z"/>
	<path d="M577.6,748.5v-0.6h4.7v0.6h-2v7h-0.8v-7H577.6z"/>
	<path d="M586.5,752.2v3.2h-0.8v-7.6h2.3c0.9,0,1.5,0.2,1.9,0.6s0.7,0.9,0.7,1.5s-0.2,1.1-0.5,1.5s-0.9,0.6-1.5,0.7l2.2,3.2h-1
		l-2.1-3.2L586.5,752.2L586.5,752.2z M586.5,748.5v3.2h1.6c1.2,0,1.8-0.5,1.8-1.6s-0.6-1.6-1.8-1.6L586.5,748.5L586.5,748.5z"/>
	<path d="M598.2,747.8v0.6h-3.1v2.8h2.8v0.6h-2.8v2.9h3.1v0.6h-3.9v-7.6h3.9V747.8z"/>
	<path d="M605.5,747.8v0.6h-3.1v2.8h2.8v0.6h-2.8v2.9h3.1v0.6h-3.9v-7.6h3.9V747.8z"/>
	<path d="M608.7,748.5v-0.6h4.7v0.6h-2v7h-0.8v-7H608.7z"/>
	<path d="M625.2,753.6v-5.7h0.8v5.7c0,0.6-0.2,1.1-0.5,1.4c-0.4,0.4-0.9,0.5-1.5,0.5s-1.1-0.2-1.5-0.5c-0.4-0.4-0.5-0.8-0.5-1.4h0.8
		c0,0.4,0.1,0.7,0.3,0.9s0.5,0.4,0.9,0.4s0.7-0.1,0.9-0.4C625.1,754.2,625.2,753.9,625.2,753.6z"/>
	<path d="M630.8,754.4c-0.7-0.7-1.1-1.7-1.1-2.8s0.4-2,1.1-2.8c0.7-0.7,1.7-1.1,2.8-1.1s2,0.4,2.7,1.1s1.1,1.7,1.1,2.8
		s-0.4,2-1.1,2.8s-1.7,1.1-2.7,1.1C632.5,755.5,631.6,755.1,630.8,754.4z M635.7,754c0.6-0.6,0.9-1.4,0.9-2.3s-0.3-1.7-0.9-2.3
		c-0.6-0.6-1.3-0.9-2.2-0.9s-1.6,0.3-2.2,0.9c-0.6,0.6-0.9,1.4-0.9,2.3s0.3,1.7,0.9,2.3c0.6,0.6,1.3,0.9,2.2,0.9
		S635.2,754.5,635.7,754z"/>
	<path d="M640.7,752.9v-5h0.8v5c0,0.7,0.2,1.2,0.5,1.5c0.4,0.3,0.9,0.5,1.5,0.5s1.1-0.2,1.5-0.5s0.5-0.8,0.5-1.5v-5h0.8v5
		c0,0.9-0.3,1.5-0.8,2c-0.5,0.4-1.2,0.7-2,0.7s-1.5-0.2-2-0.7C640.9,754.4,640.7,753.7,640.7,752.9z"/>
	<path d="M650.7,752.2v3.2h-0.8v-7.6h2.3c0.9,0,1.5,0.2,1.9,0.6s0.7,0.9,0.7,1.5s-0.2,1.1-0.5,1.5s-0.9,0.6-1.5,0.7l2.2,3.2h-1
		l-2.1-3.2L650.7,752.2L650.7,752.2z M650.7,748.5v3.2h1.6c1.2,0,1.8-0.5,1.8-1.6s-0.6-1.6-1.8-1.6L650.7,748.5L650.7,748.5z"/>
	<path d="M663.5,747.8h0.8v7.6h-0.8l-4.3-6.4v6.4h-0.8v-7.6h0.8l4.3,6.4V747.8z"/>
	<path d="M673.3,755.4l-0.6-1.8h-3.5l-0.6,1.8h-0.8l2.8-7.6h0.8l2.8,7.6H673.3z M669.3,753h3.1l-1.5-4.2L669.3,753z"/>
	<path d="M677.5,747.8h0.8v7h2.8v0.6h-3.5L677.5,747.8L677.5,747.8z"/>
</g>
<g class="st25">
	<path d="M569.6,873.5v-7.6h4.1v0.6h-3.3v2.8h2.7v0.6h-2.7v3.5h-0.8V873.5z"/>
	<path d="M576.7,873.5v-7.6h0.8v7.6H576.7z"/>
	<path d="M586.1,865.9h0.8v7.6h-0.8l-4.3-6.4v6.4H581v-7.6h0.8l4.3,6.4V865.9z"/>
	<path d="M595.9,873.5l-0.6-1.8h-3.5l-0.6,1.8h-0.8l2.8-7.6h0.8l2.8,7.6H595.9z M592,871.1h3.1l-1.5-4.2L592,871.1z"/>
	<path d="M605.1,865.9h0.8v7.6h-0.8l-4.3-6.4v6.4H600v-7.6h0.8l4.3,6.4V865.9z"/>
	<path d="M610.2,872.5c-0.7-0.7-1.1-1.6-1.1-2.8s0.4-2,1.1-2.8c0.7-0.7,1.7-1.1,2.7-1.1c0.8,0,1.5,0.2,2.1,0.5
		c0.6,0.4,1.1,0.9,1.4,1.5h-0.9c-0.2-0.4-0.6-0.8-1-1s-0.9-0.4-1.5-0.4c-0.9,0-1.6,0.3-2.2,0.9c-0.6,0.6-0.9,1.4-0.9,2.3
		s0.3,1.7,0.9,2.3c0.6,0.6,1.3,0.9,2.2,0.9c0.6,0,1.1-0.1,1.5-0.4c0.4-0.2,0.8-0.6,1-1h0.9c-0.3,0.7-0.8,1.2-1.4,1.5
		c-0.6,0.4-1.3,0.5-2.1,0.5C611.9,873.6,611,873.2,610.2,872.5z"/>
	<path d="M620.1,873.5v-7.6h0.8v7.6H620.1z"/>
	<path d="M629.9,873.5l-0.6-1.8h-3.5l-0.6,1.8h-0.8l2.8-7.6h0.8l2.8,7.6H629.9z M625.9,871.1h3.1l-1.5-4.2L625.9,871.1z"/>
	<path d="M634,865.9h0.8v7h2.8v0.6H634V865.9z"/>
	<path d="M645.6,866.6V866h4.7v0.6h-2v7h-0.8v-7H645.6z"/>
	<path d="M653.7,873.5v-7.6h0.8v7.6H653.7z"/>
	<path d="M665.6,865.9v7.6h-0.8v-5.8l-2.8,5.8h-0.5l-2.8-5.8v5.8h-0.8v-7.6h0.7l3,6.5l3-6.5H665.6z"/>
	<path d="M673.1,865.9v0.6H670v2.8h2.8v0.6H670v2.9h3.1v0.6h-3.9v-7.6h3.9V865.9z"/>
	<path d="M677.2,867.9c0,0.3,0.1,0.5,0.2,0.7c0.2,0.2,0.4,0.3,0.6,0.4c0.2,0.1,0.5,0.2,0.8,0.2c0.3,0.1,0.6,0.1,0.9,0.2
		c0.3,0.1,0.6,0.2,0.8,0.3s0.5,0.3,0.6,0.6c0.2,0.3,0.2,0.6,0.2,1c0,0.6-0.2,1.1-0.6,1.5c-0.4,0.4-1,0.6-1.8,0.6s-1.4-0.2-1.8-0.5
		c-0.5-0.3-0.7-0.8-0.7-1.4h0.8c0,0.4,0.2,0.6,0.5,0.9c0.3,0.2,0.7,0.3,1.2,0.3s1-0.1,1.3-0.4c0.3-0.3,0.5-0.6,0.5-1
		s-0.1-0.7-0.4-0.9c-0.3-0.2-0.6-0.4-1.1-0.4c-0.4-0.1-0.8-0.2-1.2-0.3s-0.8-0.3-1.1-0.6s-0.4-0.8-0.4-1.3c0-0.6,0.2-1.1,0.7-1.5
		c0.4-0.4,1-0.6,1.7-0.6s1.3,0.2,1.7,0.5s0.7,0.8,0.7,1.3h-0.9c0-0.3-0.2-0.6-0.5-0.8s-0.7-0.3-1.1-0.3s-0.9,0.1-1.2,0.4
		C677.3,867.1,677.2,867.5,677.2,867.9z"/>
</g>
<g class="st25">
	<path d="M585.2,894.1c-0.7-0.7-1.1-1.6-1.1-2.8c0-1.1,0.4-2,1.1-2.8c0.7-0.7,1.7-1.1,2.7-1.1c0.8,0,1.5,0.2,2.1,0.5
		s1.1,0.9,1.4,1.5h-0.9c-0.2-0.4-0.6-0.8-1-1s-0.9-0.4-1.5-0.4c-0.9,0-1.6,0.3-2.2,0.9c-0.6,0.6-0.9,1.4-0.9,2.3s0.3,1.7,0.9,2.3
		c0.6,0.6,1.3,0.9,2.2,0.9c0.6,0,1.1-0.1,1.5-0.4c0.4-0.2,0.8-0.6,1-1h0.9c-0.3,0.7-0.8,1.2-1.4,1.5c-0.6,0.4-1.3,0.5-2.1,0.5
		C586.9,895.2,586,894.8,585.2,894.1z"/>
	<path d="M595.1,887.5h0.8v7h2.8v0.6h-3.5L595.1,887.5L595.1,887.5z"/>
	<path d="M601.6,895.1v-7.6h0.8v7.6H601.6z"/>
	<path d="M613.6,887.5v7.6h-0.8v-5.8l-2.8,5.8h-0.5l-2.8-5.8v5.8H606v-7.6h0.7l3,6.5l3-6.5H613.6z"/>
	<path d="M622.6,895.1l-0.6-1.8h-3.5l-0.6,1.8H617l2.8-7.6h0.8l2.8,7.6H622.6z M618.6,892.7h3.1l-1.5-4.2L618.6,892.7z"/>
	<path d="M626.4,888.2v-0.6h4.7v0.6h-2v7h-0.8v-7H626.4z"/>
	<path d="M638.4,887.5v0.6h-3.1v2.8h2.8v0.6h-2.8v2.9h3.1v0.6h-3.9v-7.6h3.9V887.5z"/>
	<path d="M652,887.5h0.8v7.6H652v-3.5h-4.1v3.5h-0.8v-7.6h0.8v3.5h4.1V887.5z"/>
	<path d="M657.2,894.1c-0.7-0.7-1.1-1.7-1.1-2.8s0.4-2,1.1-2.8c0.7-0.7,1.7-1.1,2.8-1.1s2,0.4,2.7,1.1c0.7,0.7,1.1,1.7,1.1,2.8
		s-0.4,2-1.1,2.8c-0.7,0.7-1.7,1.1-2.7,1.1C658.8,895.2,657.9,894.8,657.2,894.1z M662.1,893.7c0.6-0.6,0.9-1.4,0.9-2.3
		s-0.3-1.7-0.9-2.3c-0.6-0.6-1.3-0.9-2.2-0.9s-1.6,0.3-2.2,0.9s-0.9,1.4-0.9,2.3s0.3,1.7,0.9,2.3c0.6,0.6,1.3,0.9,2.2,0.9
		S661.5,894.2,662.1,893.7z"/>
	<path d="M674.5,887.5v7.6h-0.8v-5.8l-2.8,5.8h-0.5l-2.8-5.8v5.8H667v-7.6h0.7l3,6.5l3-6.5H674.5z"/>
	<path d="M682,887.5v0.6h-3.1v2.8h2.8v0.6h-2.8v2.9h3.1v0.6h-3.9v-7.6h3.9V887.5z"/>
</g>
<g class="st25">
	<path d="M472.4,911.6V904h0.8v7.6H472.4z"/>
	<path d="M481.8,904h0.8v7.6h-0.8l-4.3-6.4v6.4h-0.8V904h0.8l4.3,6.4V904z"/>
	<path d="M485.9,904.7V904h4.7v0.6h-2v7h-0.8v-7h-1.9L485.9,904.7L485.9,904.7z"/>
	<path d="M497.9,904v0.6h-3.1v2.8h2.8v0.6h-2.8v2.9h3.1v0.6H494V904H497.9z"/>
	<path d="M502.1,908.4v3.2h-0.8V904h2.3c0.9,0,1.5,0.2,1.9,0.6s0.7,0.9,0.7,1.5s-0.2,1.1-0.5,1.5s-0.9,0.6-1.5,0.7l2.2,3.2h-1
		l-2.1-3.2h-1.2V908.4z M502.1,904.7v3.2h1.6c1.2,0,1.8-0.5,1.8-1.6s-0.6-1.6-1.8-1.6L502.1,904.7L502.1,904.7z"/>
	<path d="M515,904h0.8v7.6H515l-4.3-6.4v6.4H510V904h0.8l4.3,6.4L515,904L515,904z"/>
	<path d="M524.8,911.6l-0.6-1.8h-3.5l-0.6,1.8h-0.8l2.8-7.6h0.8l2.8,7.6H524.8z M520.8,909.2h3.1l-1.5-4.2L520.8,909.2z"/>
	<path d="M528.7,904.7V904h4.7v0.6h-2v7h-0.8v-7h-1.9V904.7z"/>
	<path d="M536.8,911.6V904h0.8v7.6H536.8z"/>
	<path d="M541.9,910.6c-0.7-0.7-1.1-1.7-1.1-2.8s0.4-2,1.1-2.8c0.7-0.7,1.7-1.1,2.8-1.1s2,0.4,2.7,1.1s1.1,1.7,1.1,2.8
		s-0.4,2-1.1,2.8s-1.7,1.1-2.7,1.1C543.6,911.7,542.7,911.3,541.9,910.6z M546.8,910.1c0.6-0.6,0.9-1.4,0.9-2.3s-0.3-1.7-0.9-2.3
		c-0.6-0.6-1.3-0.9-2.2-0.9s-1.6,0.3-2.2,0.9c-0.6,0.6-0.9,1.4-0.9,2.3s0.3,1.7,0.9,2.3c0.6,0.6,1.3,0.9,2.2,0.9
		S546.3,910.7,546.8,910.1z"/>
	<path d="M556.8,904h0.8v7.6h-0.8l-4.3-6.4v6.4h-0.8V904h0.8l4.3,6.4V904z"/>
	<path d="M566.6,911.6l-0.6-1.8h-3.5l-0.6,1.8H561l2.8-7.6h0.8l2.8,7.6H566.6z M562.6,909.2h3.1l-1.5-4.2L562.6,909.2z"/>
	<path d="M570.7,904h0.8v7h2.8v0.6h-3.5L570.7,904L570.7,904z"/>
	<path d="M582.6,904h2.6c0.8,0,1.4,0.2,1.8,0.6c0.4,0.4,0.6,0.9,0.6,1.5c0,0.8-0.5,1.4-1.5,1.7c0.5,0.1,0.9,0.3,1.2,0.7
		s0.5,0.8,0.5,1.3s-0.2,1-0.7,1.4s-1,0.6-1.8,0.6h-2.7L582.6,904L582.6,904z M583.4,904.7v2.7h1.8c0.5,0,0.9-0.1,1.2-0.4
		c0.3-0.2,0.4-0.6,0.4-1s-0.1-0.8-0.4-1s-0.7-0.4-1.2-0.4h-1.8V904.7z M583.4,911h1.9c0.5,0,1-0.1,1.3-0.4c0.3-0.3,0.5-0.6,0.5-1.1
		s-0.2-0.8-0.5-1.1s-0.8-0.4-1.3-0.4h-1.8v3H583.4z"/>
	<path d="M591.1,909.1v-5h0.8v5c0,0.7,0.2,1.2,0.5,1.5c0.4,0.3,0.9,0.5,1.5,0.5s1.1-0.2,1.5-0.5s0.5-0.8,0.5-1.5v-5h0.8v5
		c0,0.9-0.3,1.5-0.8,2c-0.5,0.4-1.2,0.7-2,0.7s-1.5-0.2-2-0.7C591.4,910.6,591.1,909.9,591.1,909.1z"/>
	<path d="M600.9,906c0,0.3,0.1,0.5,0.2,0.7c0.2,0.2,0.4,0.3,0.6,0.4c0.2,0.1,0.5,0.2,0.8,0.2c0.3,0.1,0.6,0.1,0.9,0.2
		c0.3,0.1,0.6,0.2,0.8,0.3s0.5,0.3,0.6,0.6c0.2,0.3,0.2,0.6,0.2,1c0,0.6-0.2,1.1-0.6,1.5c-0.4,0.4-1,0.6-1.8,0.6s-1.4-0.2-1.8-0.5
		c-0.5-0.3-0.7-0.8-0.7-1.4h0.8c0,0.4,0.2,0.6,0.5,0.9c0.3,0.2,0.7,0.3,1.2,0.3s1-0.1,1.3-0.4c0.3-0.3,0.5-0.6,0.5-1
		s-0.1-0.7-0.4-0.9c-0.3-0.2-0.6-0.4-1.1-0.4c-0.4-0.1-0.8-0.2-1.2-0.3s-0.8-0.3-1.1-0.6s-0.4-0.8-0.4-1.3c0-0.6,0.2-1.1,0.7-1.5
		c0.4-0.4,1-0.6,1.7-0.6s1.3,0.2,1.7,0.5s0.7,0.8,0.7,1.3h-0.9c0-0.3-0.2-0.6-0.5-0.8s-0.7-0.3-1.1-0.3s-0.9,0.1-1.2,0.4
		C601,905.2,600.9,905.6,600.9,906z"/>
	<path d="M608.6,911.6V904h0.8v7.6H608.6z"/>
	<path d="M618.1,904h0.8v7.6h-0.8l-4.3-6.4v6.4H613V904h0.8l4.3,6.4V904z"/>
	<path d="M626.3,904v0.6h-3.1v2.8h2.8v0.6h-2.8v2.9h3.1v0.6h-3.9V904H626.3z"/>
	<path d="M630.4,906c0,0.3,0.1,0.5,0.2,0.7c0.2,0.2,0.4,0.3,0.6,0.4c0.2,0.1,0.5,0.2,0.8,0.2c0.3,0.1,0.6,0.1,0.9,0.2
		c0.3,0.1,0.6,0.2,0.8,0.3s0.5,0.3,0.6,0.6c0.2,0.3,0.2,0.6,0.2,1c0,0.6-0.2,1.1-0.6,1.5c-0.4,0.4-1,0.6-1.8,0.6s-1.4-0.2-1.8-0.5
		c-0.5-0.3-0.7-0.8-0.7-1.4h0.8c0,0.4,0.2,0.6,0.5,0.9c0.3,0.2,0.7,0.3,1.2,0.3s1-0.1,1.3-0.4c0.3-0.3,0.5-0.6,0.5-1
		s-0.1-0.7-0.4-0.9c-0.3-0.2-0.6-0.4-1.1-0.4c-0.4-0.1-0.8-0.2-1.2-0.3s-0.8-0.3-1.1-0.6s-0.4-0.8-0.4-1.3c0-0.6,0.2-1.1,0.7-1.5
		c0.4-0.4,1-0.6,1.7-0.6s1.3,0.2,1.7,0.5s0.7,0.8,0.7,1.3h-0.9c0-0.3-0.2-0.6-0.5-0.8s-0.7-0.3-1.1-0.3s-0.9,0.1-1.2,0.4
		C630.5,905.2,630.4,905.6,630.4,906z"/>
	<path d="M638.6,906c0,0.3,0.1,0.5,0.2,0.7c0.2,0.2,0.4,0.3,0.6,0.4c0.2,0.1,0.5,0.2,0.8,0.2c0.3,0.1,0.6,0.1,0.9,0.2
		c0.3,0.1,0.6,0.2,0.8,0.3s0.5,0.3,0.6,0.6c0.2,0.3,0.2,0.6,0.2,1c0,0.6-0.2,1.1-0.6,1.5c-0.4,0.4-1,0.6-1.8,0.6s-1.4-0.2-1.8-0.5
		c-0.5-0.3-0.7-0.8-0.7-1.4h0.8c0,0.4,0.2,0.6,0.5,0.9c0.3,0.2,0.7,0.3,1.2,0.3s1-0.1,1.3-0.4c0.3-0.3,0.5-0.6,0.5-1
		s-0.1-0.7-0.4-0.9c-0.3-0.2-0.6-0.4-1.1-0.4c-0.4-0.1-0.8-0.2-1.2-0.3s-0.8-0.3-1.1-0.6s-0.4-0.8-0.4-1.3c0-0.6,0.2-1.1,0.7-1.5
		c0.4-0.4,1-0.6,1.7-0.6s1.3,0.2,1.7,0.5s0.7,0.8,0.7,1.3h-0.9c0-0.3-0.2-0.6-0.5-0.8s-0.7-0.3-1.1-0.3s-0.9,0.1-1.2,0.4
		C638.8,905.2,638.6,905.6,638.6,906z"/>
	<path d="M651.4,904.7V904h4.7v0.6h-2v7h-0.8v-7h-1.9V904.7z"/>
	<path d="M659.5,911.6V904h0.8v7.6H659.5z"/>
	<path d="M671.4,904v7.6h-0.8v-5.8l-2.8,5.8h-0.5l-2.8-5.8v5.8h-0.8V904h0.7l3,6.5l3-6.5H671.4z"/>
	<path d="M678.9,904v0.6h-3.1v2.8h2.8v0.6h-2.8v2.9h3.1v0.6H675V904H678.9z"/>
</g>
<g class="st25">
	<path d="M135.2,593.2v-0.6h4.7v0.6h-2v7h-0.8v-7H135.2z"/>
	<path d="M148.1,592.6h0.8v7.6h-0.8v-3.5H144v3.5h-0.8v-7.6h0.8v3.5h4.1V592.6z"/>
	<path d="M152.5,600.2v-7.6h0.8v7.6H152.5z"/>
	<path d="M162,592.6h0.8v7.6H162l-4.3-6.4v6.4h-0.8v-7.6h0.8l4.3,6.4V592.6z"/>
	<path d="M167.1,600.2h-0.8v-7.6h0.8v3.6l3.3-3.6h1l-3.7,3.8l3.7,3.7h-1l-3.2-3.4v3.5H167.1z"/>
	<path d="M178.8,593.2c0.4,0.4,0.7,0.9,0.7,1.6s-0.2,1.2-0.7,1.6s-1.1,0.6-1.9,0.6h-1.6v3.2h-0.8v-7.6h2.3
		C177.8,592.6,178.4,592.8,178.8,593.2z M175.4,596.4h1.6c1.2,0,1.8-0.5,1.8-1.6s-0.6-1.6-1.8-1.6h-1.6V596.4z"/>
	<path d="M183.5,597v3.2h-0.8v-7.6h2.3c0.9,0,1.5,0.2,1.9,0.6s0.7,0.9,0.7,1.5s-0.2,1.1-0.5,1.5s-0.9,0.6-1.5,0.7l2.2,3.2h-1
		l-2.1-3.2L183.5,597L183.5,597z M183.5,593.2v3.2h1.6c1.2,0,1.8-0.5,1.8-1.6s-0.6-1.6-1.8-1.6L183.5,593.2L183.5,593.2z"/>
	<path d="M192.1,599.1c-0.7-0.7-1.1-1.7-1.1-2.8s0.4-2,1.1-2.8c0.7-0.7,1.7-1.1,2.8-1.1s2,0.4,2.7,1.1s1.1,1.7,1.1,2.8
		s-0.4,2-1.1,2.8s-1.7,1.1-2.7,1.1C193.8,600.2,192.9,599.9,192.1,599.1z M197,598.7c0.6-0.6,0.9-1.4,0.9-2.3s-0.3-1.7-0.9-2.3
		c-0.6-0.6-1.3-0.9-2.2-0.9s-1.6,0.3-2.2,0.9c-0.6,0.6-0.9,1.4-0.9,2.3s0.3,1.7,0.9,2.3c0.6,0.6,1.3,0.9,2.2,0.9
		S196.5,599.3,197,598.7z"/>
	<path d="M202.7,599.1c-0.7-0.7-1.1-1.6-1.1-2.8s0.4-2,1.1-2.8c0.7-0.7,1.7-1.1,2.7-1.1c0.8,0,1.5,0.2,2.1,0.5
		c0.6,0.4,1.1,0.9,1.4,1.5H208c-0.2-0.4-0.6-0.8-1-1s-0.9-0.4-1.5-0.4c-0.9,0-1.6,0.3-2.2,0.9c-0.6,0.6-0.9,1.4-0.9,2.3
		s0.3,1.7,0.9,2.3c0.6,0.6,1.3,0.9,2.2,0.9s1.6-0.3,2.1-0.8s0.9-1.2,0.9-2.1h-3.4v-0.6h4.2v0.6c-0.1,1.1-0.5,1.9-1.2,2.6
		c-0.7,0.6-1.6,1-2.7,1C204.3,600.2,203.4,599.9,202.7,599.1z"/>
	<path d="M213.3,597v3.2h-0.8v-7.6h2.3c0.9,0,1.5,0.2,1.9,0.6s0.7,0.9,0.7,1.5s-0.2,1.1-0.5,1.5s-0.9,0.6-1.5,0.7l2.2,3.2h-1
		l-2.1-3.2L213.3,597L213.3,597z M213.3,593.2v3.2h1.6c1.2,0,1.8-0.5,1.8-1.6s-0.6-1.6-1.8-1.6L213.3,593.2L213.3,593.2z"/>
	<path d="M225,592.6v0.6h-3.1v2.8h2.8v0.6h-2.8v2.9h3.1v0.6h-3.9v-7.6h3.9V592.6z"/>
	<path d="M229.1,594.6c0,0.3,0.1,0.5,0.2,0.7c0.2,0.2,0.4,0.3,0.6,0.4c0.2,0.1,0.5,0.2,0.8,0.2c0.3,0.1,0.6,0.1,0.9,0.2
		c0.3,0.1,0.6,0.2,0.8,0.3s0.5,0.3,0.6,0.6c0.2,0.3,0.2,0.6,0.2,1c0,0.6-0.2,1.1-0.6,1.5c-0.4,0.4-1,0.6-1.8,0.6s-1.4-0.2-1.8-0.5
		c-0.5-0.3-0.7-0.8-0.7-1.4h0.8c0,0.4,0.2,0.6,0.5,0.9c0.3,0.2,0.7,0.3,1.2,0.3s1-0.1,1.3-0.4c0.3-0.3,0.5-0.6,0.5-1
		s-0.1-0.7-0.4-0.9c-0.3-0.2-0.6-0.4-1.1-0.4c-0.4-0.1-0.8-0.2-1.2-0.3s-0.8-0.3-1.1-0.6s-0.4-0.8-0.4-1.3c0-0.6,0.2-1.1,0.7-1.5
		c0.4-0.4,1-0.6,1.7-0.6s1.3,0.2,1.7,0.5s0.7,0.8,0.7,1.3h-0.9c0-0.3-0.2-0.6-0.5-0.8s-0.7-0.3-1.1-0.3s-0.9,0.1-1.2,0.4
		C229.2,593.8,229.1,594.1,229.1,594.6z"/>
	<path d="M237.3,594.6c0,0.3,0.1,0.5,0.2,0.7c0.2,0.2,0.4,0.3,0.6,0.4c0.2,0.1,0.5,0.2,0.8,0.2c0.3,0.1,0.6,0.1,0.9,0.2
		c0.3,0.1,0.6,0.2,0.8,0.3s0.5,0.3,0.6,0.6c0.2,0.3,0.2,0.6,0.2,1c0,0.6-0.2,1.1-0.6,1.5c-0.4,0.4-1,0.6-1.8,0.6s-1.4-0.2-1.8-0.5
		c-0.5-0.3-0.7-0.8-0.7-1.4h0.8c0,0.4,0.2,0.6,0.5,0.9c0.3,0.2,0.7,0.3,1.2,0.3s1-0.1,1.3-0.4c0.3-0.3,0.5-0.6,0.5-1
		s-0.1-0.7-0.4-0.9c-0.3-0.2-0.6-0.4-1.1-0.4c-0.4-0.1-0.8-0.2-1.2-0.3s-0.8-0.3-1.1-0.6s-0.4-0.8-0.4-1.3c0-0.6,0.2-1.1,0.7-1.5
		c0.4-0.4,1-0.6,1.7-0.6s1.3,0.2,1.7,0.5s0.7,0.8,0.7,1.3h-0.9c0-0.3-0.2-0.6-0.5-0.8s-0.7-0.3-1.1-0.3s-0.9,0.1-1.2,0.4
		C237.5,593.8,237.3,594.1,237.3,594.6z"/>
</g>
<g class="st25">
	<path d="M87.4,699.7h0.8v7.6h-0.8l-4.3-6.4v6.4h-0.8v-7.6h0.8l4.3,6.4V699.7z"/>
	<path d="M97.1,707.3l-0.6-1.8H93l-0.6,1.8h-0.8l2.8-7.6h0.8l2.8,7.6H97.1z M93.2,704.9h3.1l-1.5-4.2L93.2,704.9z"/>
	<path d="M101,700.3v-0.6h4.7v0.6h-2v7H103v-7H101z"/>
	<path d="M109.1,707.3v-7.6h0.8v7.6H109.1z"/>
	<path d="M114.2,706.3c-0.7-0.7-1.1-1.7-1.1-2.8s0.4-2,1.1-2.8c0.7-0.7,1.7-1.1,2.8-1.1c1.1,0,2,0.4,2.7,1.1s1.1,1.7,1.1,2.8
		s-0.4,2-1.1,2.8s-1.7,1.1-2.7,1.1C115.9,707.4,115,707,114.2,706.3z M119.2,705.8c0.6-0.6,0.9-1.4,0.9-2.3s-0.3-1.7-0.9-2.3
		s-1.3-0.9-2.2-0.9s-1.6,0.3-2.2,0.9c-0.6,0.6-0.9,1.4-0.9,2.3s0.3,1.7,0.9,2.3s1.3,0.9,2.2,0.9S118.6,706.4,119.2,705.8z"/>
	<path d="M129.1,699.7h0.8v7.6h-0.8l-4.3-6.4v6.4H124v-7.6h0.8l4.3,6.4V699.7z"/>
	<path d="M138.9,707.3l-0.6-1.8h-3.5l-0.6,1.8h-0.8l2.8-7.6h0.8l2.8,7.6H138.9z M134.9,704.9h3.1l-1.5-4.2L134.9,704.9z"/>
	<path d="M143.1,699.7h0.8v7h2.8v0.6h-3.5v-7.6H143.1z"/>
	<path d="M155.7,706.3c-0.7-0.7-1.1-1.6-1.1-2.8s0.4-2,1.1-2.8c0.7-0.7,1.7-1.1,2.7-1.1c0.8,0,1.5,0.2,2.1,0.5
		c0.6,0.4,1.1,0.9,1.4,1.5H161c-0.2-0.4-0.6-0.8-1-1s-0.9-0.4-1.5-0.4c-0.9,0-1.6,0.3-2.2,0.9c-0.6,0.6-0.9,1.4-0.9,2.3
		s0.3,1.7,0.9,2.3c0.6,0.6,1.3,0.9,2.2,0.9s1.6-0.3,2.1-0.8s0.9-1.2,0.9-2.1H158v-0.6h4.2v0.6c-0.1,1.1-0.5,1.9-1.2,2.6
		c-0.7,0.6-1.6,1-2.7,1C157.3,707.4,156.4,707,155.7,706.3z"/>
	<path d="M169.4,699.7v0.6h-3.1v2.8h2.8v0.6h-2.8v2.9h3.1v0.6h-3.9v-7.6h3.9V699.7z"/>
	<path d="M173.6,706.3c-0.7-0.7-1.1-1.7-1.1-2.8s0.4-2,1.1-2.8c0.7-0.7,1.7-1.1,2.8-1.1s2,0.4,2.7,1.1s1.1,1.7,1.1,2.8
		s-0.4,2-1.1,2.8s-1.7,1.1-2.7,1.1C175.2,707.4,174.3,707,173.6,706.3z M178.5,705.8c0.6-0.6,0.9-1.4,0.9-2.3s-0.3-1.7-0.9-2.3
		c-0.6-0.6-1.3-0.9-2.2-0.9s-1.6,0.3-2.2,0.9c-0.6,0.6-0.9,1.4-0.9,2.3s0.3,1.7,0.9,2.3c0.6,0.6,1.3,0.9,2.2,0.9
		S177.9,706.4,178.5,705.8z"/>
	<path d="M184.2,706.3c-0.7-0.7-1.1-1.6-1.1-2.8s0.4-2,1.1-2.8c0.7-0.7,1.7-1.1,2.7-1.1c0.8,0,1.5,0.2,2.1,0.5
		c0.6,0.4,1.1,0.9,1.4,1.5h-0.9c-0.2-0.4-0.6-0.8-1-1s-0.9-0.4-1.5-0.4c-0.9,0-1.6,0.3-2.2,0.9c-0.6,0.6-0.9,1.4-0.9,2.3
		s0.3,1.7,0.9,2.3c0.6,0.6,1.3,0.9,2.2,0.9s1.6-0.3,2.1-0.8s0.9-1.2,0.9-2.1h-3.4v-0.6h4.2v0.6c-0.1,1.1-0.5,1.9-1.2,2.6
		c-0.7,0.6-1.6,1-2.7,1C185.8,707.4,184.9,707,184.2,706.3z"/>
	<path d="M194.8,704.1v3.2H194v-7.6h2.3c0.9,0,1.5,0.2,1.9,0.6s0.7,0.9,0.7,1.5s-0.2,1.1-0.5,1.5s-0.9,0.6-1.5,0.7l2.2,3.2h-1
		L196,704L194.8,704.1L194.8,704.1z M194.8,700.3v3.2h1.6c1.2,0,1.8-0.5,1.8-1.6s-0.6-1.6-1.8-1.6L194.8,700.3L194.8,700.3z"/>
	<path d="M208,707.3l-0.6-1.8h-3.5l-0.6,1.8h-0.8l2.8-7.6h0.8l2.8,7.6H208z M204,704.9h3.1l-1.5-4.2L204,704.9z"/>
	<path d="M216.4,700.3c0.4,0.4,0.7,0.9,0.7,1.6s-0.2,1.2-0.7,1.6s-1.1,0.6-1.9,0.6h-1.6v3.2h-0.8v-7.6h2.3
		C215.3,699.7,216,699.9,216.4,700.3z M212.9,703.5h1.6c1.2,0,1.8-0.5,1.8-1.6s-0.6-1.6-1.8-1.6h-1.6V703.5z"/>
	<path d="M225.2,699.7h0.8v7.6h-0.8v-3.5h-4.1v3.5h-0.8v-7.6h0.8v3.5h4.1V699.7z"/>
	<path d="M229.6,707.3v-7.6h0.8v7.6H229.6z"/>
	<path d="M234.7,706.3c-0.7-0.7-1.1-1.6-1.1-2.8s0.4-2,1.1-2.8c0.7-0.7,1.7-1.1,2.7-1.1c0.8,0,1.5,0.2,2.1,0.5
		c0.6,0.4,1.1,0.9,1.4,1.5H240c-0.2-0.4-0.6-0.8-1-1s-0.9-0.4-1.5-0.4c-0.9,0-1.6,0.3-2.2,0.9c-0.6,0.6-0.9,1.4-0.9,2.3
		s0.3,1.7,0.9,2.3c0.6,0.6,1.3,0.9,2.2,0.9c0.6,0,1.1-0.1,1.5-0.4c0.4-0.2,0.8-0.6,1-1h0.9c-0.3,0.7-0.8,1.2-1.4,1.5
		c-0.6,0.4-1.3,0.5-2.1,0.5C236.4,707.4,235.5,707,234.7,706.3z"/>
</g>
<g class="st25">
	<path d="M119.4,740.4h0.8v7h2.8v0.6h-3.5v-7.6H119.4z"/>
	<path d="M126.7,747c-0.7-0.7-1.1-1.7-1.1-2.8s0.4-2,1.1-2.8c0.7-0.7,1.7-1.1,2.8-1.1s2,0.4,2.7,1.1s1.1,1.7,1.1,2.8s-0.4,2-1.1,2.8
		s-1.7,1.1-2.7,1.1C128.3,748.1,127.4,747.7,126.7,747z M131.6,746.5c0.6-0.6,0.9-1.4,0.9-2.3s-0.3-1.7-0.9-2.3
		c-0.6-0.6-1.3-0.9-2.2-0.9s-1.6,0.3-2.2,0.9c-0.6,0.6-0.9,1.4-0.9,2.3s0.3,1.7,0.9,2.3s1.3,0.9,2.2,0.9S131,747.1,131.6,746.5z"/>
	<path d="M137.1,742.4c0,0.3,0.1,0.5,0.2,0.7c0.2,0.2,0.4,0.3,0.6,0.4c0.2,0.1,0.5,0.2,0.8,0.2c0.3,0.1,0.6,0.1,0.9,0.2
		c0.3,0.1,0.6,0.2,0.8,0.3s0.5,0.3,0.6,0.6c0.2,0.3,0.2,0.6,0.2,1c0,0.6-0.2,1.1-0.6,1.5c-0.4,0.4-1,0.6-1.8,0.6s-1.4-0.2-1.8-0.5
		c-0.5-0.3-0.7-0.8-0.7-1.4h0.8c0,0.4,0.2,0.6,0.5,0.9c0.3,0.2,0.7,0.3,1.2,0.3s1-0.1,1.3-0.4c0.3-0.3,0.5-0.6,0.5-1
		s-0.1-0.7-0.4-0.9c-0.3-0.2-0.6-0.4-1.1-0.4c-0.4-0.1-0.8-0.2-1.2-0.3s-0.8-0.3-1.1-0.6s-0.4-0.8-0.4-1.3c0-0.6,0.2-1.1,0.7-1.5
		c0.4-0.4,1-0.6,1.7-0.6s1.3,0.2,1.7,0.5s0.7,0.8,0.7,1.3h-0.9c0-0.3-0.2-0.6-0.5-0.8s-0.7-0.3-1.1-0.3s-0.9,0.1-1.2,0.4
		C137.2,741.6,137.1,742,137.1,742.4z"/>
	<path d="M155.4,748l-0.6-1.8h-3.5l-0.6,1.8h-0.8l2.8-7.6h0.8l2.8,7.6H155.4z M151.5,745.6h3.1l-1.5-4.2L151.5,745.6z"/>
	<path d="M164.6,740.4h0.8v7.6h-0.8l-4.3-6.4v6.4h-0.8v-7.6h0.8l4.3,6.4V740.4z"/>
	<path d="M169.8,747c-0.7-0.7-1.1-1.6-1.1-2.8s0.4-2,1.1-2.8c0.7-0.7,1.7-1.1,2.7-1.1c0.8,0,1.5,0.2,2.1,0.5
		c0.6,0.4,1.1,0.9,1.4,1.5h-1c-0.2-0.4-0.6-0.8-1-1s-0.9-0.4-1.5-0.4c-0.9,0-1.6,0.3-2.2,0.9c-0.6,0.6-0.9,1.4-0.9,2.3
		s0.3,1.7,0.9,2.3c0.6,0.6,1.3,0.9,2.2,0.9s1.6-0.3,2.1-0.8s0.9-1.2,0.9-2.1h-3.4v-0.6h4.2v0.6c-0.1,1.1-0.5,1.9-1.2,2.6
		c-0.7,0.6-1.6,1-2.7,1C171.4,748.1,170.5,747.7,169.8,747z"/>
	<path d="M183.5,740.4v0.6h-3.1v2.8h2.8v0.6h-2.8v2.9h3.1v0.6h-3.9v-7.6h3.9V740.4z"/>
	<path d="M187,740.4h0.8v7h2.8v0.6H187V740.4z"/>
	<path d="M197.4,740.4v0.6h-3.1v2.8h2.8v0.6h-2.8v2.9h3.1v0.6h-3.9v-7.6h3.9V740.4z"/>
	<path d="M201.4,742.4c0,0.3,0.1,0.5,0.2,0.7c0.2,0.2,0.4,0.3,0.6,0.4c0.2,0.1,0.5,0.2,0.8,0.2c0.3,0.1,0.6,0.1,0.9,0.2
		c0.3,0.1,0.6,0.2,0.8,0.3s0.5,0.3,0.6,0.6c0.2,0.3,0.2,0.6,0.2,1c0,0.6-0.2,1.1-0.6,1.5c-0.4,0.4-1,0.6-1.8,0.6s-1.4-0.2-1.8-0.5
		c-0.5-0.3-0.7-0.8-0.7-1.4h0.8c0,0.4,0.2,0.6,0.5,0.9c0.3,0.2,0.7,0.3,1.2,0.3s1-0.1,1.3-0.4c0.3-0.3,0.5-0.6,0.5-1
		s-0.1-0.7-0.4-0.9c-0.3-0.2-0.6-0.4-1.1-0.4c-0.4-0.1-0.8-0.2-1.2-0.3s-0.8-0.3-1.1-0.6s-0.4-0.8-0.4-1.3c0-0.6,0.2-1.1,0.7-1.5
		c0.4-0.4,1-0.6,1.7-0.6s1.3,0.2,1.7,0.5s0.7,0.8,0.7,1.3h-0.9c0-0.3-0.2-0.6-0.5-0.8s-0.7-0.3-1.1-0.3s-0.9,0.1-1.2,0.4
		C201.6,741.6,201.4,742,201.4,742.4z"/>
	<path d="M214.2,741v-0.6h4.7v0.6h-2v7h-0.8v-7H214.2z"/>
	<path d="M222.3,748v-7.6h0.8v7.6H222.3z"/>
	<path d="M234.2,740.4v7.6h-0.8v-5.8l-2.8,5.8h-0.5l-2.8-5.8v5.8h-0.8v-7.6h0.7l3,6.5l3-6.5H234.2z"/>
	<path d="M241.7,740.4v0.6h-3.1v2.8h2.8v0.6h-2.8v2.9h3.1v0.6h-3.9v-7.6h3.9V740.4z"/>
</g>
<g class="st25">
	<path d="M300.4,803.9c0,0.3,0.1,0.5,0.2,0.7c0.2,0.2,0.4,0.3,0.6,0.4c0.2,0.1,0.5,0.2,0.8,0.2c0.3,0.1,0.6,0.1,0.9,0.2
		c0.3,0.1,0.6,0.2,0.8,0.3c0.2,0.1,0.5,0.3,0.6,0.6c0.2,0.3,0.2,0.6,0.2,1c0,0.6-0.2,1.1-0.6,1.5s-1,0.6-1.8,0.6s-1.4-0.2-1.8-0.5
		c-0.5-0.3-0.7-0.8-0.7-1.4h0.8c0,0.4,0.2,0.6,0.5,0.9c0.3,0.2,0.7,0.3,1.2,0.3s1-0.1,1.3-0.4c0.3-0.3,0.5-0.6,0.5-1
		s-0.1-0.7-0.4-0.9s-0.6-0.4-1.1-0.4c-0.4-0.1-0.8-0.2-1.2-0.3c-0.4-0.1-0.8-0.3-1.1-0.6c-0.3-0.3-0.4-0.8-0.4-1.3
		c0-0.6,0.2-1.1,0.7-1.5c0.4-0.4,1-0.6,1.7-0.6s1.3,0.2,1.7,0.5s0.7,0.8,0.7,1.3h-0.9c0-0.3-0.2-0.6-0.5-0.8s-0.7-0.3-1.1-0.3
		s-0.9,0.1-1.2,0.4C300.5,803.1,300.4,803.4,300.4,803.9z"/>
	<path d="M310.7,809.5h-0.8v-3l-2.4-4.6h0.8l2,3.9l2-3.9h0.8l-2.4,4.6V809.5z"/>
	<path d="M318.4,801.9c1.2,0,2.2,0.3,2.9,1c0.7,0.7,1,1.6,1,2.8s-0.3,2.1-1,2.8c-0.7,0.6-1.6,1-2.9,1h-2.3v-7.6H318.4z M316.8,808.9
		h1.6c1,0,1.8-0.3,2.3-0.8s0.8-1.3,0.8-2.3s-0.3-1.8-0.8-2.3s-1.3-0.8-2.3-0.8h-1.6V808.9z"/>
	<path d="M330.6,801.9h0.8v7.6h-0.8l-4.3-6.4v6.4h-0.8v-7.6h0.8l4.3,6.4V801.9z"/>
	<path d="M338.9,801.9v0.6h-3.1v2.8h2.8v0.6h-2.8v2.9h3.1v0.6H335v-7.6h3.9V801.9z"/>
	<path d="M344.9,809.5h-0.8v-3l-2.4-4.6h0.8l2,3.9l2-3.9h0.8l-2.4,4.6V809.5z"/>
	<path d="M363.1,801.9v7.6h-0.8v-5.8l-2.8,5.8H359l-2.8-5.8v5.8h-0.8v-7.6h0.7l3,6.5l3-6.5H363.1z"/>
	<path d="M367.5,808.5c-0.7-0.7-1.1-1.7-1.1-2.8s0.4-2,1.1-2.8c0.7-0.7,1.7-1.1,2.8-1.1c1.1,0,2,0.4,2.7,1.1s1.1,1.7,1.1,2.8
		s-0.4,2-1.1,2.8s-1.7,1.1-2.7,1.1C369.1,809.6,368.2,809.2,367.5,808.5z M372.4,808c0.6-0.6,0.9-1.4,0.9-2.3s-0.3-1.7-0.9-2.3
		s-1.3-0.9-2.2-0.9s-1.6,0.3-2.2,0.9c-0.6,0.6-0.9,1.4-0.9,2.3s0.3,1.7,0.9,2.3s1.3,0.9,2.2,0.9S371.8,808.6,372.4,808z"/>
	<path d="M378.1,806.3v3.2h-0.8v-7.6h2.3c0.9,0,1.5,0.2,1.9,0.6s0.7,0.9,0.7,1.5s-0.2,1.1-0.5,1.5s-0.9,0.6-1.5,0.7l2.2,3.2h-1
		l-2.1-3.2L378.1,806.3L378.1,806.3z M378.1,802.5v3.2h1.6c1.2,0,1.8-0.5,1.8-1.6s-0.6-1.6-1.8-1.6L378.1,802.5L378.1,802.5z"/>
	<path d="M391,801.9h0.8v7.6H391l-4.3-6.4v6.4H386v-7.6h0.8l4.3,6.4L391,801.9L391,801.9z"/>
	<path d="M395.4,809.5v-7.6h0.8v7.6H395.4z"/>
	<path d="M404.8,801.9h0.8v7.6h-0.8l-4.3-6.4v6.4h-0.8v-7.6h0.8l4.3,6.4V801.9z"/>
	<path d="M410,808.5c-0.7-0.7-1.1-1.6-1.1-2.8s0.4-2,1.1-2.8c0.7-0.7,1.7-1.1,2.7-1.1c0.8,0,1.5,0.2,2.1,0.5
		c0.6,0.4,1.1,0.9,1.4,1.5h-0.9c-0.2-0.4-0.6-0.8-1-1s-0.9-0.4-1.5-0.4c-0.9,0-1.6,0.3-2.2,0.9c-0.6,0.6-0.9,1.4-0.9,2.3
		s0.3,1.7,0.9,2.3s1.3,0.9,2.2,0.9c0.9,0,1.6-0.3,2.1-0.8s0.9-1.2,0.9-2.1h-3.4v-0.6h4.2v0.6c-0.1,1.1-0.5,1.9-1.2,2.6
		c-0.7,0.6-1.6,1-2.7,1C411.6,809.6,410.7,809.2,410,808.5z"/>
	<path d="M429.9,801.9h0.8v7.6h-0.8V806h-4.1v3.5H425v-7.6h0.8v3.5h4.1V801.9z"/>
	<path d="M438.2,801.9v0.6h-3.1v2.8h2.8v0.6h-2.8v2.9h3.1v0.6h-3.9v-7.6h3.9V801.9z"/>
	<path d="M442.5,806.3v3.2h-0.8v-7.6h2.3c0.9,0,1.5,0.2,1.9,0.6s0.7,0.9,0.7,1.5s-0.2,1.1-0.5,1.5s-0.9,0.6-1.5,0.7l2.2,3.2h-1
		l-2.1-3.2L442.5,806.3L442.5,806.3z M442.5,802.5v3.2h1.6c1.2,0,1.8-0.5,1.8-1.6s-0.6-1.6-1.8-1.6L442.5,802.5L442.5,802.5z"/>
	<path d="M455.7,809.5l-0.6-1.8h-3.5l-0.6,1.8h-0.8l2.8-7.6h0.8l2.8,7.6H455.7z M451.7,807.1h3.1l-1.5-4.2L451.7,807.1z"/>
	<path d="M459.9,801.9h0.8v7h2.8v0.6H460L459.9,801.9L459.9,801.9z"/>
	<path d="M468.8,801.9c1.2,0,2.2,0.3,2.9,1c0.7,0.7,1,1.6,1,2.8s-0.3,2.1-1,2.8c-0.7,0.6-1.6,1-2.9,1h-2.3v-7.6H468.8z M467.2,808.9
		h1.6c1,0,1.8-0.3,2.3-0.8s0.8-1.3,0.8-2.3s-0.3-1.8-0.8-2.3s-1.3-0.8-2.3-0.8h-1.6V808.9z"/>
</g>
<g class="st25">
	<path d="M100.3,817.6c0,0.3,0.1,0.5,0.2,0.7c0.2,0.2,0.4,0.3,0.6,0.4c0.2,0.1,0.5,0.2,0.8,0.2c0.3,0.1,0.6,0.1,0.9,0.2
		c0.3,0.1,0.6,0.2,0.8,0.3c0.2,0.1,0.5,0.3,0.6,0.6c0.2,0.3,0.2,0.6,0.2,1c0,0.6-0.2,1.1-0.6,1.5s-1,0.6-1.8,0.6s-1.4-0.2-1.8-0.5
		c-0.5-0.3-0.7-0.8-0.7-1.4h0.8c0,0.4,0.2,0.6,0.5,0.9c0.3,0.2,0.7,0.3,1.2,0.3s1-0.1,1.3-0.4c0.3-0.3,0.5-0.6,0.5-1
		s-0.1-0.7-0.4-0.9s-0.6-0.4-1.1-0.4c-0.4-0.1-0.8-0.2-1.2-0.3c-0.4-0.1-0.8-0.3-1.1-0.6c-0.3-0.3-0.4-0.8-0.4-1.3
		c0-0.6,0.2-1.1,0.7-1.5c0.4-0.4,1-0.6,1.7-0.6s1.3,0.2,1.7,0.5s0.7,0.8,0.7,1.3h-0.9c0-0.3-0.2-0.6-0.5-0.8s-0.7-0.3-1.1-0.3
		s-0.9,0.1-1.2,0.4C100.5,816.8,100.3,817.1,100.3,817.6z"/>
	<path d="M108.8,822.2c-0.7-0.7-1.1-1.6-1.1-2.8s0.4-2,1.1-2.8c0.7-0.7,1.7-1.1,2.7-1.1c0.8,0,1.5,0.2,2.1,0.5
		c0.6,0.4,1.1,0.9,1.4,1.5h-0.9c-0.2-0.4-0.6-0.8-1-1s-0.9-0.4-1.5-0.4c-0.9,0-1.6,0.3-2.2,0.9c-0.6,0.6-0.9,1.4-0.9,2.3
		s0.3,1.7,0.9,2.3s1.3,0.9,2.2,0.9c0.6,0,1.1-0.1,1.5-0.4c0.4-0.2,0.8-0.6,1-1h0.9c-0.3,0.7-0.8,1.2-1.4,1.5
		c-0.6,0.4-1.3,0.5-2.1,0.5C110.5,823.3,109.5,822.9,108.8,822.2z"/>
	<path d="M118.6,823.2v-7.6h0.8v7.6H118.6z"/>
	<path d="M126.9,815.6v0.6h-3.1v2.8h2.8v0.6h-2.8v2.9h3.1v0.6H123v-7.6h3.9V815.6z"/>
	<path d="M135.4,815.6h0.8v7.6h-0.8l-4.3-6.4v6.4h-0.8v-7.6h0.8l4.3,6.4V815.6z"/>
	<path d="M139.5,816.2v-0.6h4.7v0.6h-2v7h-0.8v-7H139.5z"/>
	<path d="M147.6,823.2v-7.6h0.8v7.6H147.6z"/>
	<path d="M152.1,823.2v-7.6h4.1v0.6h-3.3v2.8h2.7v0.6h-2.7v3.5h-0.8V823.2z"/>
	<path d="M159.2,823.2v-7.6h0.8v7.6H159.2z"/>
	<path d="M164.3,822.2c-0.7-0.7-1.1-1.6-1.1-2.8s0.4-2,1.1-2.8c0.7-0.7,1.7-1.1,2.7-1.1c0.8,0,1.5,0.2,2.1,0.5
		c0.6,0.4,1.1,0.9,1.4,1.5h-0.9c-0.2-0.4-0.6-0.8-1-1s-0.9-0.4-1.5-0.4c-0.9,0-1.6,0.3-2.2,0.9c-0.6,0.6-0.9,1.4-0.9,2.3
		s0.3,1.7,0.9,2.3c0.6,0.6,1.3,0.9,2.2,0.9c0.6,0,1.1-0.1,1.5-0.4c0.4-0.2,0.8-0.6,1-1h0.9c-0.3,0.7-0.8,1.2-1.4,1.5
		c-0.6,0.4-1.3,0.5-2.1,0.5C166,823.3,165.1,822.9,164.3,822.2z"/>
	<path d="M184.8,823.2l-0.6-1.8h-3.5l-0.6,1.8h-0.8l2.8-7.6h0.8l2.8,7.6H184.8z M180.9,820.8h3.1l-1.5-4.2L180.9,820.8z"/>
	<path d="M196.5,815.6v7.6h-0.8v-5.8l-2.8,5.8h-0.5l-2.8-5.8v5.8H189v-7.6h0.7l3,6.5l3-6.5H196.5z"/>
	<path d="M204,815.6v0.6h-3.1v2.8h2.8v0.6h-2.8v2.9h3.1v0.6h-3.9v-7.6h3.9V815.6z"/>
	<path d="M208.3,820v3.2h-0.8v-7.6h2.3c0.9,0,1.5,0.2,1.9,0.6s0.7,0.9,0.7,1.5s-0.2,1.1-0.5,1.5s-0.9,0.6-1.5,0.7l2.2,3.2h-1
		l-2.1-3.2L208.3,820L208.3,820z M208.3,816.2v3.2h1.6c1.2,0,1.8-0.5,1.8-1.6s-0.6-1.6-1.8-1.6L208.3,816.2L208.3,816.2z"/>
	<path d="M216.1,823.2v-7.6h0.8v7.6H216.1z"/>
	<path d="M221.3,822.2c-0.7-0.7-1.1-1.6-1.1-2.8s0.4-2,1.1-2.8c0.7-0.7,1.7-1.1,2.7-1.1c0.8,0,1.5,0.2,2.1,0.5
		c0.6,0.4,1.1,0.9,1.4,1.5h-0.9c-0.2-0.4-0.6-0.8-1-1s-0.9-0.4-1.5-0.4c-0.9,0-1.6,0.3-2.2,0.9c-0.6,0.6-0.9,1.4-0.9,2.3
		s0.3,1.7,0.9,2.3c0.6,0.6,1.3,0.9,2.2,0.9c0.6,0,1.1-0.1,1.5-0.4c0.4-0.2,0.8-0.6,1-1h0.9c-0.3,0.7-0.8,1.2-1.4,1.5
		c-0.6,0.4-1.3,0.5-2.1,0.5C222.9,823.3,222,822.9,221.3,822.2z"/>
	<path d="M236.5,823.2l-0.6-1.8h-3.5l-0.6,1.8H231l2.8-7.6h0.8l2.8,7.6H236.5z M232.5,820.8h3.1l-1.5-4.2L232.5,820.8z"/>
	<path d="M245.7,815.6h0.8v7.6h-0.8l-4.3-6.4v6.4h-0.8v-7.6h0.8l4.3,6.4V815.6z"/>
</g>
<g class="st25">
	<path d="M307.4,829.4v7.6h-0.8v-5.8l-2.8,5.8h-0.5l-2.8-5.8v5.8h-0.8v-7.6h0.7l3,6.5l3-6.5H307.4z"/>
	<path d="M311.7,836c-0.7-0.7-1.1-1.7-1.1-2.8s0.4-2,1.1-2.8c0.7-0.7,1.7-1.1,2.8-1.1c1.1,0,2,0.4,2.7,1.1s1.1,1.7,1.1,2.8
		s-0.4,2-1.1,2.8s-1.7,1.1-2.7,1.1C313.4,837.1,312.5,836.7,311.7,836z M316.7,835.5c0.6-0.6,0.9-1.4,0.9-2.3s-0.3-1.7-0.9-2.3
		s-1.3-0.9-2.2-0.9s-1.6,0.3-2.2,0.9c-0.6,0.6-0.9,1.4-0.9,2.3s0.3,1.7,0.9,2.3s1.3,0.9,2.2,0.9S316.1,836.1,316.7,835.5z"/>
	<path d="M321.3,830v-0.6h4.7v0.6h-2v7h-0.8v-7H321.3z"/>
	<path d="M334.2,829.4h0.8v7.6h-0.8v-3.5h-4.1v3.5h-0.8v-7.6h0.8v3.5h4.1V829.4z"/>
	<path d="M342.5,829.4v0.6h-3.1v2.8h2.8v0.6h-2.8v2.9h3.1v0.6h-3.9v-7.6h3.9V829.4z"/>
	<path d="M346.8,833.8v3.2H346v-7.6h2.3c0.9,0,1.5,0.2,1.9,0.6s0.7,0.9,0.7,1.5s-0.2,1.1-0.5,1.5s-0.9,0.6-1.5,0.7l2.2,3.2h-1
		l-2.1-3.2L346.8,833.8L346.8,833.8z M346.8,830v3.2h1.6c1.2,0,1.8-0.5,1.8-1.6s-0.6-1.6-1.8-1.6L346.8,830L346.8,830z"/>
	<path d="M362.9,835.1v-5.7h0.8v5.7c0,0.6-0.2,1.1-0.5,1.4c-0.4,0.4-0.9,0.5-1.5,0.5s-1.1-0.2-1.5-0.5c-0.4-0.4-0.5-0.8-0.5-1.4h0.8
		c0,0.4,0.1,0.7,0.3,0.9c0.2,0.2,0.5,0.4,0.9,0.4s0.7-0.1,0.9-0.4C362.8,835.8,362.9,835.5,362.9,835.1z"/>
	<path d="M368.6,836c-0.7-0.7-1.1-1.7-1.1-2.8s0.4-2,1.1-2.8c0.7-0.7,1.7-1.1,2.8-1.1c1.1,0,2,0.4,2.7,1.1s1.1,1.7,1.1,2.8
		s-0.4,2-1.1,2.8s-1.7,1.1-2.7,1.1C370.2,837.1,369.3,836.7,368.6,836z M373.5,835.5c0.6-0.6,0.9-1.4,0.9-2.3s-0.3-1.7-0.9-2.3
		s-1.3-0.9-2.2-0.9s-1.6,0.3-2.2,0.9c-0.6,0.6-0.9,1.4-0.9,2.3s0.3,1.7,0.9,2.3s1.3,0.9,2.2,0.9S372.9,836.1,373.5,835.5z"/>
	<path d="M383.5,829.4h0.8v7.6h-0.8l-4.3-6.4v6.4h-0.8v-7.6h0.8l4.3,6.4V829.4z"/>
	<path d="M391.7,829.4v0.6h-3.1v2.8h2.8v0.6h-2.8v2.9h3.1v0.6h-3.9v-7.6h3.9V829.4z"/>
	<path d="M395.8,831.4c0,0.3,0.1,0.5,0.2,0.7c0.2,0.2,0.4,0.3,0.6,0.4c0.2,0.1,0.5,0.2,0.8,0.2c0.3,0.1,0.6,0.1,0.9,0.2
		c0.3,0.1,0.6,0.2,0.8,0.3c0.2,0.1,0.5,0.3,0.6,0.6c0.2,0.3,0.2,0.6,0.2,1c0,0.6-0.2,1.1-0.6,1.5s-1,0.6-1.8,0.6s-1.4-0.2-1.8-0.5
		c-0.5-0.3-0.7-0.8-0.7-1.4h0.8c0,0.4,0.2,0.6,0.5,0.9c0.3,0.2,0.7,0.3,1.2,0.3s1-0.1,1.3-0.4c0.3-0.3,0.5-0.6,0.5-1
		s-0.1-0.7-0.4-0.9s-0.6-0.4-1.1-0.4c-0.4-0.1-0.8-0.2-1.2-0.3c-0.4-0.1-0.8-0.3-1.1-0.6c-0.3-0.3-0.4-0.8-0.4-1.3
		c0-0.6,0.2-1.1,0.7-1.5c0.4-0.4,1-0.6,1.7-0.6s1.3,0.2,1.7,0.5s0.7,0.8,0.7,1.3H399c0-0.3-0.2-0.6-0.5-0.8s-0.7-0.3-1.1-0.3
		s-0.9,0.1-1.2,0.4C395.9,830.6,395.8,830.9,395.8,831.4z"/>
</g>
<g class="st25">
	<path d="M127.5,859.3h0.8l-2.4,7.6h-0.8l-1.8-6.5l-2,6.5h-0.8l-2.1-7.6h0.8l1.8,6.7l2-6.7h0.8l1.8,6.7L127.5,859.3z"/>
	<path d="M136.8,866.9l-0.6-1.8h-3.5l-0.6,1.8h-0.8l2.8-7.6h0.8l2.8,7.6H136.8z M132.9,864.5h3.1l-1.5-4.2L132.9,864.5z"/>
	<path d="M141.5,861.3c0,0.3,0.1,0.5,0.2,0.7s0.4,0.3,0.6,0.4c0.2,0.1,0.5,0.2,0.8,0.2s0.6,0.1,0.9,0.2c0.3,0.1,0.6,0.2,0.8,0.3
		s0.5,0.3,0.6,0.6c0.2,0.3,0.2,0.6,0.2,1c0,0.6-0.2,1.1-0.6,1.5c-0.4,0.4-1,0.6-1.8,0.6s-1.4-0.2-1.8-0.5s-0.7-0.8-0.7-1.4h0.8
		c0,0.4,0.2,0.6,0.5,0.9c0.3,0.2,0.7,0.3,1.2,0.3s1-0.1,1.3-0.4c0.3-0.3,0.5-0.6,0.5-1s-0.1-0.7-0.4-0.9c-0.3-0.2-0.6-0.4-1.1-0.4
		c-0.4-0.1-0.8-0.2-1.2-0.3s-0.8-0.3-1.1-0.6s-0.4-0.8-0.4-1.3c0-0.6,0.2-1.1,0.7-1.5c0.4-0.4,1-0.6,1.7-0.6s1.3,0.2,1.7,0.5
		s0.7,0.8,0.7,1.3h-0.9c0-0.3-0.2-0.6-0.5-0.8s-0.7-0.3-1.1-0.3s-0.9,0.1-1.2,0.4C141.7,860.4,141.5,860.8,141.5,861.3z"/>
	<path d="M154.1,859.3h0.8v7.6h-0.8v-3.5H150v3.5h-0.8v-7.6h0.8v3.5h4.1V859.3z"/>
	<path d="M158.5,866.9v-7.6h0.8v7.6H158.5z"/>
	<path d="M168,859.3h0.8v7.6H168l-4.3-6.4v6.4h-0.8v-7.6h0.8l4.3,6.4V859.3z"/>
	<path d="M173.1,865.8c-0.7-0.7-1.1-1.7-1.1-2.8s0.4-2,1.1-2.8c0.7-0.7,1.7-1.1,2.7-1.1c0.8,0,1.5,0.2,2.1,0.5
		c0.6,0.4,1.1,0.9,1.4,1.5h-0.9c-0.2-0.4-0.6-0.8-1-1s-0.9-0.4-1.5-0.4c-0.9,0-1.6,0.3-2.2,0.9c-0.6,0.6-0.9,1.4-0.9,2.3
		s0.3,1.7,0.9,2.3c0.6,0.6,1.3,0.9,2.2,0.9s1.6-0.3,2.1-0.8s0.9-1.2,0.9-2.1h-3.4v-0.6h4.2v0.6c-0.1,1.1-0.5,1.9-1.2,2.6
		s-1.6,1-2.7,1C174.7,866.9,173.8,866.6,173.1,865.8z"/>
	<path d="M182.7,859.9v-0.6h4.7v0.6h-2v7h-0.8v-7H182.7z"/>
	<path d="M191.5,865.8c-0.7-0.7-1.1-1.7-1.1-2.8s0.4-2,1.1-2.8c0.7-0.7,1.7-1.1,2.8-1.1s2,0.4,2.7,1.1c0.7,0.7,1.1,1.7,1.1,2.8
		s-0.4,2-1.1,2.8c-0.7,0.7-1.7,1.1-2.7,1.1C193.1,866.9,192.2,866.6,191.5,865.8z M196.4,865.4c0.6-0.6,0.9-1.4,0.9-2.3
		s-0.3-1.7-0.9-2.3c-0.6-0.6-1.3-0.9-2.2-0.9s-1.6,0.3-2.2,0.9c-0.6,0.6-0.9,1.4-0.9,2.3s0.3,1.7,0.9,2.3s1.3,0.9,2.2,0.9
		S195.8,866,196.4,865.4z"/>
	<path d="M206.4,859.3h0.8v7.6h-0.8l-4.3-6.4v6.4h-0.8v-7.6h0.8l4.3,6.4V859.3z"/>
	<path d="M220.3,859.9c0.4,0.4,0.7,0.9,0.7,1.6s-0.2,1.2-0.7,1.6c-0.4,0.4-1.1,0.6-1.9,0.6h-1.6v3.2H216v-7.6h2.3
		C219.2,859.3,219.9,859.5,220.3,859.9z M216.8,863h1.6c1.2,0,1.8-0.5,1.8-1.6s-0.6-1.6-1.8-1.6h-1.6V863z"/>
	<path d="M225,865.8c-0.7-0.7-1.1-1.7-1.1-2.8s0.4-2,1.1-2.8c0.7-0.7,1.7-1.1,2.8-1.1s2,0.4,2.7,1.1c0.7,0.7,1.1,1.7,1.1,2.8
		s-0.4,2-1.1,2.8c-0.7,0.7-1.7,1.1-2.7,1.1C226.6,866.9,225.7,866.6,225,865.8z M229.9,865.4c0.6-0.6,0.9-1.4,0.9-2.3
		s-0.3-1.7-0.9-2.3c-0.6-0.6-1.3-0.9-2.2-0.9s-1.6,0.3-2.2,0.9c-0.6,0.6-0.9,1.4-0.9,2.3s0.3,1.7,0.9,2.3s1.3,0.9,2.2,0.9
		S229.3,866,229.9,865.4z"/>
	<path d="M235.4,861.3c0,0.3,0.1,0.5,0.2,0.7s0.4,0.3,0.6,0.4c0.2,0.1,0.5,0.2,0.8,0.2s0.6,0.1,0.9,0.2c0.3,0.1,0.6,0.2,0.8,0.3
		s0.5,0.3,0.6,0.6c0.2,0.3,0.2,0.6,0.2,1c0,0.6-0.2,1.1-0.6,1.5c-0.4,0.4-1,0.6-1.8,0.6s-1.4-0.2-1.8-0.5s-0.7-0.8-0.7-1.4h0.8
		c0,0.4,0.2,0.6,0.5,0.9c0.3,0.2,0.7,0.3,1.2,0.3s1-0.1,1.3-0.4c0.3-0.3,0.5-0.6,0.5-1s-0.1-0.7-0.4-0.9c-0.3-0.2-0.6-0.4-1.1-0.4
		c-0.4-0.1-0.8-0.2-1.2-0.3s-0.8-0.3-1.1-0.6s-0.4-0.8-0.4-1.3c0-0.6,0.2-1.1,0.7-1.5c0.4-0.4,1-0.6,1.7-0.6s1.3,0.2,1.7,0.5
		s0.7,0.8,0.7,1.3h-0.9c0-0.3-0.2-0.6-0.5-0.8s-0.7-0.3-1.1-0.3s-0.9,0.1-1.2,0.4C235.5,860.4,235.4,860.8,235.4,861.3z"/>
	<path d="M242.8,859.9v-0.6h4.7v0.6h-2v7h-0.8v-7H242.8z"/>
</g>
<g class="st25">
	<path d="M125.1,719.6h0.8v7.6h-0.8v-3.5H121v3.5h-0.8v-7.6h0.8v3.5h4.1V719.6z"/>
	<path d="M129.5,724.6v-5h0.8v5c0,0.7,0.2,1.2,0.5,1.5c0.4,0.3,0.9,0.5,1.5,0.5s1.1-0.2,1.5-0.5s0.5-0.8,0.5-1.5v-5h0.8v5
		c0,0.9-0.3,1.5-0.8,2c-0.5,0.4-1.2,0.7-2,0.7s-1.5-0.2-2-0.7S129.5,725.5,129.5,724.6z"/>
	<path d="M138.7,727.2v-7.6h4.1v0.6h-3.3v2.8h2.7v0.6h-2.7v3.5h-0.8V727.2z"/>
	<path d="M145.9,727.2v-7.6h4.1v0.6h-3.3v2.8h2.7v0.6h-2.7v3.5h-0.8V727.2z"/>
	<path d="M153,727.2v-7.6h0.8v7.6H153z"/>
	<path d="M162.4,719.6h0.8v7.6h-0.8l-4.3-6.4v6.4h-0.8v-7.6h0.8l4.3,6.4V719.6z"/>
	<path d="M167.6,726.1c-0.7-0.7-1.1-1.6-1.1-2.8s0.4-2,1.1-2.8c0.7-0.7,1.7-1.1,2.7-1.1c0.8,0,1.5,0.2,2.1,0.5
		c0.6,0.4,1.1,0.9,1.4,1.5h-0.9c-0.2-0.4-0.6-0.8-1-1s-0.9-0.4-1.5-0.4c-0.9,0-1.6,0.3-2.2,0.9c-0.6,0.6-0.9,1.4-0.9,2.3
		s0.3,1.7,0.9,2.3c0.6,0.6,1.3,0.9,2.2,0.9s1.6-0.3,2.1-0.8s0.9-1.2,0.9-2.1H170v-0.6h4.2v0.6c-0.1,1.1-0.5,1.9-1.2,2.6
		c-0.7,0.6-1.6,1-2.7,1C169.2,727.2,168.3,726.9,167.6,726.1z"/>
	<path d="M177.1,720.2v-0.6h4.7v0.6h-2v7H179v-7H177.1z"/>
	<path d="M186,726.1c-0.7-0.7-1.1-1.7-1.1-2.8s0.4-2,1.1-2.8c0.7-0.7,1.7-1.1,2.8-1.1s2,0.4,2.7,1.1s1.1,1.7,1.1,2.8s-0.4,2-1.1,2.8
		s-1.7,1.1-2.7,1.1C187.6,727.2,186.7,726.9,186,726.1z M190.9,725.7c0.6-0.6,0.9-1.4,0.9-2.3s-0.3-1.7-0.9-2.3
		c-0.6-0.6-1.3-0.9-2.2-0.9s-1.6,0.3-2.2,0.9c-0.6,0.6-0.9,1.4-0.9,2.3s0.3,1.7,0.9,2.3c0.6,0.6,1.3,0.9,2.2,0.9
		S190.3,726.3,190.9,725.7z"/>
	<path d="M200.8,719.6h0.8v7.6h-0.8l-4.3-6.4v6.4h-0.8v-7.6h0.8l4.3,6.4V719.6z"/>
	<path d="M214.8,720.2c0.4,0.4,0.7,0.9,0.7,1.6s-0.2,1.2-0.7,1.6s-1.1,0.6-1.9,0.6h-1.6v3.2h-0.8v-7.6h2.3
		C213.7,719.6,214.4,719.8,214.8,720.2z M211.3,723.4h1.6c1.2,0,1.8-0.5,1.8-1.6s-0.6-1.6-1.8-1.6h-1.6V723.4z"/>
	<path d="M219.5,726.1c-0.7-0.7-1.1-1.7-1.1-2.8s0.4-2,1.1-2.8c0.7-0.7,1.7-1.1,2.8-1.1s2,0.4,2.7,1.1s1.1,1.7,1.1,2.8
		s-0.4,2-1.1,2.8s-1.7,1.1-2.7,1.1C221.1,727.2,220.2,726.9,219.5,726.1z M224.4,725.7c0.6-0.6,0.9-1.4,0.9-2.3s-0.3-1.7-0.9-2.3
		c-0.6-0.6-1.3-0.9-2.2-0.9s-1.6,0.3-2.2,0.9c-0.6,0.6-0.9,1.4-0.9,2.3s0.3,1.7,0.9,2.3c0.6,0.6,1.3,0.9,2.2,0.9
		S223.8,726.3,224.4,725.7z"/>
	<path d="M229.9,721.6c0,0.3,0.1,0.5,0.2,0.7c0.2,0.2,0.4,0.3,0.6,0.4c0.2,0.1,0.5,0.2,0.8,0.2c0.3,0.1,0.6,0.1,0.9,0.2
		c0.3,0.1,0.6,0.2,0.8,0.3s0.5,0.3,0.6,0.6c0.2,0.3,0.2,0.6,0.2,1c0,0.6-0.2,1.1-0.6,1.5c-0.4,0.4-1,0.6-1.8,0.6s-1.4-0.2-1.8-0.5
		c-0.5-0.3-0.7-0.8-0.7-1.4h0.8c0,0.4,0.2,0.6,0.5,0.9c0.3,0.2,0.7,0.3,1.2,0.3s1-0.1,1.3-0.4c0.3-0.3,0.5-0.6,0.5-1
		s-0.1-0.7-0.4-0.9c-0.3-0.2-0.6-0.4-1.1-0.4c-0.4-0.1-0.8-0.2-1.2-0.3s-0.8-0.3-1.1-0.6s-0.4-0.8-0.4-1.3c0-0.6,0.2-1.1,0.7-1.5
		c0.4-0.4,1-0.6,1.7-0.6s1.3,0.2,1.7,0.5s0.7,0.8,0.7,1.3h-0.9c0-0.3-0.2-0.6-0.5-0.8s-0.7-0.3-1.1-0.3s-0.9,0.1-1.2,0.4
		C230,720.8,229.9,721.1,229.9,721.6z"/>
	<path d="M237.3,720.2v-0.6h4.7v0.6h-2v7h-0.8v-7H237.3z"/>
</g>
<g class="st25">
	<path d="M735.5,904.7V904h4.7v0.6h-2v7h-0.8v-7h-1.9V904.7z"/>
	<path d="M748.5,904h0.8v7.6h-0.8v-3.5h-4.1v3.5h-0.8V904h0.8v3.5h4.1V904z"/>
	<path d="M756.7,904v0.6h-3.1v2.8h2.8v0.6h-2.8v2.9h3.1v0.6h-3.9V904H756.7z"/>
	<path d="M765.5,911.6V904h0.8v7.6H765.5z"/>
	<path d="M775,904h0.8v7.6H775l-4.3-6.4v6.4h-0.8V904h0.8l4.3,6.4V904z"/>
	<path d="M781.7,904c1.2,0,2.2,0.3,2.9,1s1,1.6,1,2.8s-0.3,2.1-1,2.8c-0.7,0.6-1.6,1-2.9,1h-2.3V904H781.7z M780.1,911h1.6
		c1,0,1.8-0.3,2.3-0.8c0.5-0.6,0.8-1.3,0.8-2.3s-0.3-1.8-0.8-2.3c-0.5-0.6-1.3-0.8-2.3-0.8h-1.6V911z"/>
	<path d="M788.9,911.6V904h0.8v7.6H788.9z"/>
	<path d="M798.7,911.6l-0.6-1.8h-3.5l-0.6,1.8h-0.8l2.8-7.6h0.8l2.8,7.6H798.7z M794.7,909.2h3.1l-1.5-4.2L794.7,909.2z"/>
	<path d="M807.9,904h0.8v7.6h-0.8l-4.3-6.4v6.4h-0.8V904h0.8l4.3,6.4V904z"/>
	<path d="M821.8,904.6c0.4,0.4,0.7,0.9,0.7,1.6s-0.2,1.2-0.7,1.6s-1.1,0.6-1.9,0.6h-1.6v3.2h-0.8V904h2.3
		C820.7,904,821.4,904.2,821.8,904.6z M818.3,907.8h1.6c1.2,0,1.8-0.5,1.8-1.6s-0.6-1.6-1.8-1.6h-1.6V907.8z"/>
	<path d="M826.5,910.6c-0.7-0.7-1.1-1.7-1.1-2.8s0.4-2,1.1-2.8s1.7-1.1,2.8-1.1s2,0.4,2.7,1.1c0.7,0.7,1.1,1.7,1.1,2.8
		s-0.4,2-1.1,2.8c-0.7,0.7-1.7,1.1-2.7,1.1S827.2,911.3,826.5,910.6z M831.4,910.1c0.6-0.6,0.9-1.4,0.9-2.3s-0.3-1.7-0.9-2.3
		c-0.6-0.6-1.3-0.9-2.2-0.9s-1.6,0.3-2.2,0.9c-0.6,0.6-0.9,1.4-0.9,2.3s0.3,1.7,0.9,2.3c0.6,0.6,1.3,0.9,2.2,0.9
		S830.8,910.7,831.4,910.1z"/>
	<path d="M836.9,906c0,0.3,0.1,0.5,0.2,0.7c0.2,0.2,0.4,0.3,0.6,0.4c0.2,0.1,0.5,0.2,0.8,0.2c0.3,0.1,0.6,0.1,0.9,0.2
		c0.3,0.1,0.6,0.2,0.8,0.3s0.5,0.3,0.6,0.6c0.2,0.3,0.2,0.6,0.2,1c0,0.6-0.2,1.1-0.6,1.5c-0.4,0.4-1,0.6-1.8,0.6s-1.4-0.2-1.8-0.5
		c-0.5-0.3-0.7-0.8-0.7-1.4h0.8c0,0.4,0.2,0.6,0.5,0.9c0.3,0.2,0.7,0.3,1.2,0.3s1-0.1,1.3-0.4c0.3-0.3,0.5-0.6,0.5-1
		s-0.1-0.7-0.4-0.9c-0.3-0.2-0.6-0.4-1.1-0.4c-0.4-0.1-0.8-0.2-1.2-0.3s-0.8-0.3-1.1-0.6s-0.4-0.8-0.4-1.3c0-0.6,0.2-1.1,0.7-1.5
		c0.4-0.4,1-0.6,1.7-0.6s1.3,0.2,1.7,0.5s0.7,0.8,0.7,1.3h-0.9c0-0.3-0.2-0.6-0.5-0.8s-0.7-0.3-1.1-0.3c-0.5,0-0.9,0.1-1.2,0.4
		C837,905.2,836.9,905.6,836.9,906z"/>
	<path d="M844.3,904.7V904h4.7v0.6h-2v7h-0.8v-7h-1.9V904.7z"/>
</g>
<circle class="st26" cx="710.5" cy="865.7" r="12"/>
<g>
	<defs>
		<polyline id="SVGID_11_" points="1143.5,970.6 276.6,970.6 276.6,184.5 1143.5,184.5 		"/>
	</defs>
	<clipPath id="SVGID_12_">
		<use xlink:href="#SVGID_11_"  style="overflow:visible;"/>
	</clipPath>
	<g id="Livello_2" class="st27">
		<path class="st28" d="M710.5,865.8c216,0,217-94.9,432.9-94.9"/>
		<path class="st28" d="M278.6,212.4L717,208c217.3,0,197,179.5,426.5,179.5"/>
		<path class="st28" d="M278.6,572.2c223.5,0,231.8-70,431.9-70"/>
		
			<linearGradient id="SVGID_13_" gradientUnits="userSpaceOnUse" x1="494.55" y1="284.2" x2="494.55" y2="768.5" gradientTransform="matrix(1 0 0 1 0 312)">
			<stop  offset="0" style="stop-color:#666362"/>
			<stop  offset="0.1413" style="stop-color:#666362;stop-opacity:0.8587"/>
			<stop  offset="1" style="stop-color:#666362;stop-opacity:0"/>
		</linearGradient>
		<path class="st29" d="M278.6,596.7c223.5,0,231.8,483.3,431.9,483.3"/>
		
			<linearGradient id="SVGID_14_" gradientUnits="userSpaceOnUse" x1="926.45" y1="594.1829" x2="926.45" y2="1078.4829" gradientTransform="matrix(1 0 0 1 0 312)">
			<stop  offset="0" style="stop-color:#666362"/>
			<stop  offset="0.1413" style="stop-color:#666362;stop-opacity:0.8587"/>
			<stop  offset="1" style="stop-color:#666362;stop-opacity:0"/>
		</linearGradient>
		<path class="st30" d="M710.5,906.7c223.5,0,231.8,483.3,431.9,483.3"/>
		
			<linearGradient id="SVGID_15_" gradientUnits="userSpaceOnUse" x1="926.45" y1="599.6859" x2="926.45" y2="1083.986" gradientTransform="matrix(1 0 0 1 0 312)">
			<stop  offset="0" style="stop-color:#666362"/>
			<stop  offset="0.1413" style="stop-color:#666362;stop-opacity:0.8587"/>
			<stop  offset="1" style="stop-color:#666362;stop-opacity:0"/>
		</linearGradient>
		<path class="st31" d="M710.5,912.2c223.5,0,231.8,483.3,431.9,483.3"/>
		
			<linearGradient id="SVGID_16_" gradientUnits="userSpaceOnUse" x1="926.45" y1="550.5" x2="926.45" y2="1034.8" gradientTransform="matrix(1 0 0 1 0 312)">
			<stop  offset="0" style="stop-color:#666362"/>
			<stop  offset="0.1413" style="stop-color:#666362;stop-opacity:0.8587"/>
			<stop  offset="1" style="stop-color:#666362;stop-opacity:0"/>
		</linearGradient>
		<path class="st32" d="M710.5,863c223.5,0,231.8,483.3,431.9,483.3"/>
		
			<linearGradient id="SVGID_17_" gradientUnits="userSpaceOnUse" x1="926.715" y1="439" x2="926.715" y2="923.5" gradientTransform="matrix(1 0 0 1 0 312)">
			<stop  offset="0" style="stop-color:#666362"/>
			<stop  offset="0.1413" style="stop-color:#666362;stop-opacity:0.8587"/>
			<stop  offset="1" style="stop-color:#666362;stop-opacity:0"/>
		</linearGradient>
		<path class="st33" d="M710.5,751.5c223.5,0,232.3,483.5,432.4,483.5"/>
		
			<linearGradient id="SVGID_18_" gradientUnits="userSpaceOnUse" x1="494.55" y1="409.8" x2="494.55" y2="800" gradientTransform="matrix(1 0 0 1 0 312)">
			<stop  offset="0" style="stop-color:#666362"/>
			<stop  offset="0.1413" style="stop-color:#666362;stop-opacity:0.8587"/>
			<stop  offset="1" style="stop-color:#666362;stop-opacity:0"/>
		</linearGradient>
		<path class="st34" d="M278.6,722.3c223.5,0,231.8,389.2,431.9,389.2"/>
		
			<linearGradient id="SVGID_19_" gradientUnits="userSpaceOnUse" x1="494.55" y1="502" x2="494.55" y2="831.6" gradientTransform="matrix(1 0 0 1 0 312)">
			<stop  offset="0" style="stop-color:#666362"/>
			<stop  offset="0.1413" style="stop-color:#666362;stop-opacity:0.8587"/>
			<stop  offset="1" style="stop-color:#666362;stop-opacity:0"/>
		</linearGradient>
		<path class="st35" d="M278.6,814.5c223.5,0,231.8,328.6,431.9,328.6"/>
		
			<linearGradient id="SVGID_20_" gradientUnits="userSpaceOnUse" x1="494.55" y1="506.8" x2="494.55" y2="863.1" gradientTransform="matrix(1 0 0 1 0 312)">
			<stop  offset="0" style="stop-color:#666362"/>
			<stop  offset="0.1413" style="stop-color:#666362;stop-opacity:0.8587"/>
			<stop  offset="1" style="stop-color:#666362;stop-opacity:0"/>
		</linearGradient>
		<path class="st36" d="M278.6,819.3c223.5,0,231.8,355.3,431.9,355.3"/>
		
			<linearGradient id="SVGID_21_" gradientUnits="userSpaceOnUse" x1="494.55" y1="511.7" x2="494.55" y2="894.7" gradientTransform="matrix(1 0 0 1 0 312)">
			<stop  offset="0" style="stop-color:#666362"/>
			<stop  offset="0.1413" style="stop-color:#666362;stop-opacity:0.8587"/>
			<stop  offset="1" style="stop-color:#666362;stop-opacity:0"/>
		</linearGradient>
		<path class="st37" d="M278.6,824.2c223.5,0,231.8,382,431.9,382"/>
		
			<linearGradient id="SVGID_22_" gradientUnits="userSpaceOnUse" x1="494.55" y1="550.5" x2="494.55" y2="926.2" gradientTransform="matrix(1 0 0 1 0 312)">
			<stop  offset="0" style="stop-color:#666362"/>
			<stop  offset="0.1413" style="stop-color:#666362;stop-opacity:0.8587"/>
			<stop  offset="1" style="stop-color:#666362;stop-opacity:0"/>
		</linearGradient>
		<path class="st38" d="M278.6,863c223.5,0,231.8,374.7,431.9,374.7"/>
		<path class="st28" d="M710.5,502.1c213.1,0,206.2,0.4,432.9,0.4"/>
		<path class="st28" d="M710.5,736.9c213.1,0,206.2,121.3,432.9,121.3"/>
		<path class="st28" d="M278.6,727.2c216,0,216,97,431.9,97"/>
		<path class="st28" d="M278.6,727.2c216,0,216,97,431.9,97"/>
		
			<linearGradient id="SVGID_23_" gradientUnits="userSpaceOnUse" x1="494.55" y1="769.5" x2="494.55" y2="424.3" gradientTransform="matrix(1 0 0 1 0 312)">
			<stop  offset="0" style="stop-color:#007CA8;stop-opacity:0"/>
			<stop  offset="0.8587" style="stop-color:#007CA8;stop-opacity:0.8587"/>
			<stop  offset="1" style="stop-color:#007CA8"/>
		</linearGradient>
		<path class="st39" d="M278.6,1081c216,0,216-344.2,431.9-344.2"/>
		
			<linearGradient id="SVGID_24_" gradientUnits="userSpaceOnUse" x1="494.48" y1="804.4" x2="494.48" y2="439.06" gradientTransform="matrix(1 0 0 1 0 312)">
			<stop  offset="0" style="stop-color:#007CA8;stop-opacity:0"/>
			<stop  offset="0.8587" style="stop-color:#007CA8;stop-opacity:0.8587"/>
			<stop  offset="1" style="stop-color:#007CA8"/>
		</linearGradient>
		<path class="st40" d="M278.6,1115.9c216,0,215.9-364.3,431.8-364.3"/>
		
			<linearGradient id="SVGID_25_" gradientUnits="userSpaceOnUse" x1="494.55" y1="839.3" x2="494.55" y2="550.5" gradientTransform="matrix(1 0 0 1 0 312)">
			<stop  offset="0" style="stop-color:#007CA8;stop-opacity:0"/>
			<stop  offset="0.8587" style="stop-color:#007CA8;stop-opacity:0.8587"/>
			<stop  offset="1" style="stop-color:#007CA8"/>
		</linearGradient>
		<path class="st41" d="M278.6,1150.8c216,0,216-287.8,431.9-287.8"/>
		
			<linearGradient id="SVGID_26_" gradientUnits="userSpaceOnUse" x1="494.55" y1="874.2" x2="494.55" y2="579.7" gradientTransform="matrix(1 0 0 1 0 312)">
			<stop  offset="0" style="stop-color:#007CA8;stop-opacity:0"/>
			<stop  offset="0.8587" style="stop-color:#007CA8;stop-opacity:0.8587"/>
			<stop  offset="1" style="stop-color:#007CA8"/>
		</linearGradient>
		<path class="st42" d="M278.6,1185.7c216,0,216-293.5,431.9-293.5"/>
		
			<linearGradient id="SVGID_27_" gradientUnits="userSpaceOnUse" x1="494.55" y1="909" x2="494.55" y2="594.2" gradientTransform="matrix(1 0 0 1 0 312)">
			<stop  offset="0" style="stop-color:#007CA8;stop-opacity:0"/>
			<stop  offset="0.8587" style="stop-color:#007CA8;stop-opacity:0.8587"/>
			<stop  offset="1" style="stop-color:#007CA8"/>
		</linearGradient>
		<path class="st43" d="M278.6,1220.5c216,0,216-313.8,431.9-313.8"/>
		
			<linearGradient id="SVGID_28_" gradientUnits="userSpaceOnUse" x1="494.55" y1="914.4859" x2="494.55" y2="599.6859" gradientTransform="matrix(1 0 0 1 0 312)">
			<stop  offset="0" style="stop-color:#007CA8;stop-opacity:0"/>
			<stop  offset="0.8587" style="stop-color:#007CA8;stop-opacity:0.8587"/>
			<stop  offset="1" style="stop-color:#007CA8"/>
		</linearGradient>
		<path class="st44" d="M278.6,1226c216,0,216-313.8,431.9-313.8"/>
		<path class="st28" d="M710.5,824.2c216,0,217-92.2,432.9-92.2"/>
		<path class="st28" d="M710.5,892.2c216,0,217-179.6,432.9-179.6"/>
		<path class="st28" d="M278.6,732c216,0,216,133.8,431.9,133.8"/>
		
			<linearGradient id="SVGID_29_" gradientUnits="userSpaceOnUse" x1="929.45" y1="793.8" x2="929.45" y2="273.33" gradientTransform="matrix(1 0 0 1 0 312)">
			<stop  offset="0" style="stop-color:#007CA8;stop-opacity:0"/>
			<stop  offset="0.8587" style="stop-color:#007CA8;stop-opacity:0.8587"/>
			<stop  offset="1" style="stop-color:#007CA8"/>
		</linearGradient>
		<path class="st45" d="M716,1105.3c216,0,211-519.5,426.9-519.5"/>
		
			<linearGradient id="SVGID_30_" gradientUnits="userSpaceOnUse" x1="929.45" y1="838" x2="929.45" y2="497.2" gradientTransform="matrix(1 0 0 1 0 312)">
			<stop  offset="0" style="stop-color:#007CA8;stop-opacity:0"/>
			<stop  offset="0.8587" style="stop-color:#007CA8;stop-opacity:0.8587"/>
			<stop  offset="1" style="stop-color:#007CA8"/>
		</linearGradient>
		<path class="st46" d="M716,1149.5c216,0,211-339.8,426.9-339.8"/>
		
			<linearGradient id="SVGID_31_" gradientUnits="userSpaceOnUse" x1="929.45" y1="882.1" x2="929.45" y2="511.7" gradientTransform="matrix(1 0 0 1 0 312)">
			<stop  offset="0" style="stop-color:#007CA8;stop-opacity:0"/>
			<stop  offset="0.8587" style="stop-color:#007CA8;stop-opacity:0.8587"/>
			<stop  offset="1" style="stop-color:#007CA8"/>
		</linearGradient>
		<path class="st47" d="M716,1193.6c216,0,211-369.4,426.9-369.4"/>
		
			<linearGradient id="SVGID_32_" gradientUnits="userSpaceOnUse" x1="929.45" y1="926.2" x2="929.45" y2="515.9999" gradientTransform="matrix(1 0 0 1 0 312)">
			<stop  offset="0" style="stop-color:#007CA8;stop-opacity:0"/>
			<stop  offset="0.8587" style="stop-color:#007CA8;stop-opacity:0.8587"/>
			<stop  offset="1" style="stop-color:#007CA8"/>
		</linearGradient>
		<path class="st48" d="M716,1237.7c216,0,211-409.2,426.9-409.2"/>
	</g>
</g>
<circle class="st0" cx="278.6" cy="814.5" r="2"/>
<circle class="st0" cx="710.5" cy="863" r="2"/>
<line class="st13" x1="68.8" y1="970.4" x2="60.1" y2="970.4"/>
<line class="st13" x1="68.9" y1="613.7" x2="60.2" y2="613.7"/>
<line class="st13" x1="68.9" y1="349.1" x2="60.2" y2="349.1"/>
<circle class="st0" cx="710.5" cy="865.8" r="2"/>
<circle class="st0" cx="278.6" cy="571.9" r="2"/>
<circle class="st0" cx="278.6" cy="596.8" r="2"/>
<circle class="st0" cx="710.5" cy="502" r="2"/>
<circle class="st0" cx="1143.4" cy="502.4" r="2"/>
<circle class="st0" cx="1143.4" cy="585.9" r="2"/>
<circle class="st0" cx="278.6" cy="212.3" r="2"/>
<circle class="st0" cx="710.7" cy="208" r="2"/>
<circle class="st0" cx="1143.4" cy="387.5" r="2"/>
<circle class="st0" cx="278.6" cy="722.3" r="2"/>
<circle class="st0" cx="278.6" cy="727.2" r="2"/>
<circle class="st0" cx="278.6" cy="732" r="2"/>
<circle class="st0" cx="710.5" cy="736.9" r="2"/>
<circle class="st0" cx="710.5" cy="751.4" r="2"/>
<circle class="st0" cx="1143.4" cy="712.6" r="2"/>
<circle class="st0" cx="1143.4" cy="732" r="2"/>
<circle class="st0" cx="1143.4" cy="770.8" r="2"/>
<circle class="st0" cx="1143.4" cy="858.2" r="2"/>
<circle class="st0" cx="1143.4" cy="809.6" r="2"/>
<circle class="st0" cx="1143.4" cy="824.2" r="2"/>
<circle class="st0" cx="1143.4" cy="829" r="2"/>
<circle class="st0" cx="710.5" cy="912.2" r="2"/>
<circle class="st0" cx="710.5" cy="906.7" r="2"/>
<circle class="st0" cx="710.5" cy="892.1" r="2"/>
<circle class="st0" cx="710.5" cy="824.2" r="2"/>
<circle class="st0" cx="278.6" cy="863" r="2"/>
<circle class="st0" cx="278.6" cy="819.3" r="2"/>
<circle class="st0" cx="278.6" cy="824.2" r="2"/>
</svg>
