<?xml version="1.0" encoding="utf-8"?>
<!-- Generator: Adobe Illustrator 21.0.0, SVG Export Plug-In . SVG Version: 6.00 Build 0)  -->
<svg version="1.1" id="Livello_1" xmlns="http://www.w3.org/2000/svg" xmlns:xlink="http://www.w3.org/1999/xlink" x="0px" y="0px"
	 width="512.9px" height="175.4px" viewBox="0 0 512.9 175.4" style="enable-background:new 0 0 512.9 175.4;" xml:space="preserve"
	>
<style type="text/css">
	.st0{fill:#E5C67A;stroke:#FFFFFF;stroke-miterlimit:10;}
	.st1{fill:#D3D3D3;stroke:#F5F5F5;stroke-miterlimit:10;}
	.st2{font-family:'CrimsonText-Roman';}
	.st3{font-size:14px;}
	.st4{fill:#007CA8;stroke:#F5F5F5;stroke-miterlimit:10;}
	.st5{fill:none;stroke:#000000;stroke-width:0.75;stroke-miterlimit:10;}
	.st6{fill:none;stroke:#000000;stroke-miterlimit:10;}
	.st7{font-size:12px;}
</style>
<rect x="147.1" y="57.2" transform="matrix(-1 -4.489976e-11 4.489976e-11 -1 390.0768 132.5759)" class="st0" width="96" height="18.2"/>
<rect x="147.1" y="33.5" transform="matrix(-1 -4.489976e-11 4.489976e-11 -1 390.0768 85.141)" class="st1" width="96" height="18.2"/>
<text transform="matrix(1 0 0 1 252.7376 47.9429)" class="st2 st3">1 article</text>
<rect x="147.1" y="80.9" transform="matrix(-1 -4.489044e-11 4.489044e-11 -1 390.0764 180.0107)" class="st4" width="96" height="18.2"/>
<text transform="matrix(1 0 0 1 252.7374 93.5736)" class="st2 st3">article from one of the top ten providers</text>
<text transform="matrix(1 0 0 1 252.7375 70.7583)" class="st2 st3">first article of the week</text>
<rect x="0" y="33.5" class="st5" width="26.4" height="92.8"/>
<rect x="31.8" y="33.5" class="st5" width="26.4" height="114.4"/>
<rect x="63.5" y="33.5" class="st5" width="26.4" height="76.3"/>
<line class="st6" x1="0" y1="28.7" x2="90" y2="28.7"/>
<text transform="matrix(1 0 0 1 2.136230e-04 21.4734)" class="st2 st3">Month</text>
<text transform="matrix(1 0 0 1 0.9659 137.155)" class="st2 st7">week</text>
<text transform="matrix(1 0 0 1 32.7313 159.3766)" class="st2 st7">week</text>
<text transform="matrix(1 0 0 1 64.4968 120.6188)" class="st2 st7">week</text>
</svg>
