<?xml version="1.0" encoding="utf-8"?>
<!-- Generator: Adobe Illustrator 21.0.0, SVG Export Plug-In . SVG Version: 6.00 Build 0)  -->
<svg version="1.1" id="Layer_1" xmlns="http://www.w3.org/2000/svg" xmlns:xlink="http://www.w3.org/1999/xlink" x="0px" y="0px"
	 viewBox="0 0 1390 864" style="enable-background:new 0 0 1390 864;" xml:space="preserve">
<style type="text/css">
	.st0{fill:#FFFFFF;}
	.st1{fill:#85DDA8;}
	.st2{fill:#1D1D1B;}
	.st3{fill:#737370;}
</style>
<g>
	<rect x="572.5" y="368.5" class="st0" width="257.9" height="81.9"/>
	<polygon class="st1" points="830.4,450.4 830.4,448.8 574.1,448.8 574.1,370.2 828.8,370.2 828.8,450.4 830.4,450.4 830.4,448.8 
		830.4,450.4 832.1,450.4 832.1,366.9 570.9,366.9 570.9,452.1 832.1,452.1 832.1,450.4 	"/>
	<path class="st2" d="M789.3,404.9c-0.3-0.2-0.4-0.6-0.4-1c0-0.5,0.2-0.9,0.7-1.3c0.4-0.3,1-0.5,1.8-0.5h1.9v1.7
		c-0.2,0.4-0.6,0.8-1.1,1c-0.5,0.3-1.1,0.4-1.7,0.4C790,405.2,789.5,405.1,789.3,404.9z M795.8,406.6v-1.2l-0.7-0.1
		c0-0.1,0-0.2,0-0.4c0-0.1,0-0.3,0-0.4v-4.8c0-1.1-0.4-1.9-1.1-2.5c-0.7-0.6-1.6-0.9-2.8-0.9c-0.8,0-1.5,0.1-2.1,0.3
		c-0.6,0.2-1.2,0.5-1.7,0.9v1.9h1.4l0.2-1.1c0.2-0.2,0.5-0.4,0.8-0.5c0.3-0.1,0.8-0.2,1.2-0.2c0.7,0,1.2,0.2,1.5,0.5
		c0.4,0.3,0.6,0.8,0.6,1.4v1.2h-1.9c-1.3,0-2.4,0.3-3.2,0.8c-0.8,0.5-1.2,1.3-1.2,2.2c0,0.9,0.3,1.6,0.8,2.2
		c0.5,0.5,1.3,0.8,2.4,0.8c0.6,0,1.2-0.1,1.7-0.4c0.5-0.3,1-0.7,1.3-1.1c0,0.2,0,0.4,0.1,0.6c0,0.2,0.1,0.5,0.1,0.7H795.8z
		 M784,392.1h-1.8v1.9h1.8V392.1z M780.7,406.6h4.9v-1.2l-1.5-0.3v-8.6h-3.3v1.2l1.5,0.3v7.2l-1.5,0.3V406.6z M771.1,401.7
		c0-1.2,0.2-2.1,0.6-2.8c0.4-0.7,1.1-1.1,1.9-1.1c0.5,0,1,0.1,1.4,0.4c0.4,0.2,0.7,0.6,0.9,1v4.7c-0.2,0.5-0.5,0.8-0.9,1
		c-0.4,0.2-0.8,0.4-1.4,0.4c-0.9,0-1.5-0.3-1.9-0.9s-0.6-1.4-0.6-2.4V401.7z M776.2,406.6h3.1v-1.2l-1.5-0.3v-13h-1.8h-1.5v1.2
		l1.5,0.3v4.1c-0.3-0.4-0.7-0.7-1.2-1c-0.5-0.2-1-0.3-1.6-0.3c-1.2,0-2.2,0.5-2.9,1.5c-0.7,1-1,2.3-1,3.9v0.2c0,1.4,0.3,2.6,1,3.5
		c0.7,0.9,1.6,1.3,2.9,1.3c0.6,0,1.2-0.1,1.6-0.4c0.5-0.2,0.9-0.6,1.2-1L776.2,406.6z M765,398.5c0.4,0.5,0.6,1.1,0.6,1.8v0.2H761
		l0,0c0.1-0.8,0.4-1.4,0.8-1.9c0.4-0.5,1-0.8,1.6-0.8C764.1,397.8,764.7,398,765,398.5z M765.7,406.4c0.6-0.2,1.1-0.5,1.4-0.9
		l-0.7-1.2c-0.3,0.3-0.7,0.6-1.2,0.7c-0.5,0.2-1,0.3-1.6,0.3c-0.8,0-1.5-0.3-2-0.9c-0.5-0.6-0.7-1.4-0.7-2.4l0,0h6.5v-1.1
		c0-1.4-0.3-2.4-1-3.3c-0.7-0.8-1.7-1.2-3.1-1.2c-1.2,0-2.2,0.5-3,1.4c-0.9,0.9-1.3,2.1-1.3,3.6v0.4c0,1.5,0.4,2.7,1.2,3.6
		c0.8,0.9,1.9,1.4,3.3,1.4C764.4,406.8,765.2,406.7,765.7,406.4z M755.5,401.9c0,1-0.2,1.8-0.7,2.5s-1.1,0.9-2,0.9
		c-0.5,0-1-0.1-1.4-0.3c-0.4-0.2-0.7-0.5-0.9-1v-4.9c0.2-0.4,0.5-0.7,0.9-1c0.4-0.2,0.8-0.4,1.3-0.4c0.9,0,1.5,0.4,2,1.1
		c0.4,0.7,0.7,1.7,0.7,2.8V401.9z M747.3,410.4h4.9v-1.2l-1.5-0.3v-3.5c0.3,0.4,0.7,0.7,1.2,0.9c0.5,0.2,1,0.3,1.6,0.3
		c1.2,0,2.2-0.4,2.9-1.3c0.7-0.9,1-2.1,1-3.5v-0.2c0-1.6-0.3-2.9-1-3.9c-0.7-1-1.7-1.5-2.9-1.5c-0.6,0-1.2,0.1-1.7,0.4
		c-0.5,0.2-0.9,0.6-1.2,1l-0.2-1.2h-3.1v1.2l1.5,0.3v11l-1.5,0.3V410.4z M744.6,392.1h-1.8v1.9h1.8V392.1z M741.3,406.6h4.9v-1.2
		l-1.5-0.3v-8.6h-3.3v1.2l1.5,0.3v7.2l-1.5,0.3V406.6z M731,393.5v11.6l-1.5,0.3v1.2h4.9v-1.2l-1.5-0.3v-3.2h1.2l2.7,3.3l-0.9,0.1
		v1.2h4.2v-1.2l-1.1-0.2l-3.2-4.1l2.6-3.2l1.2-0.2v-1.2h-4.2v1.2l0.9,0.1l-2.1,2.7h-1.2v-8.4h-3.3v1.2L731,393.5z M726.8,392.1H725
		v1.9h1.8V392.1z M723.5,406.6h4.9v-1.2l-1.5-0.3v-8.6h-3.3v1.2l1.5,0.3v7.2l-1.5,0.3V406.6z M709.5,393.1h-4.3v1.2l1.1,0.1
		l2.9,12.2h1.6l2.7-9.4l0.2-1.2h0.1l0.2,1.2l2.7,9.4h1.6l2.9-12.2l1.1-0.1v-1.2h-4.3v1.2l1.4,0.2l-1.7,7.4l-0.3,1.7h-0.1l-0.4-1.7
		l-2.5-8.8H713l-2.5,8.8l-0.4,1.7l-0.1,0l-0.3-1.7l-1.7-7.4l1.4-0.2V393.1z M694.7,398v7.2l-1.5,0.3v1.2h4.9v-1.2l-1.5-0.3v-5.8
		c0.2-0.4,0.4-0.7,0.8-1c0.3-0.2,0.7-0.3,1.2-0.3l1,0.1l0.2-1.7c-0.1,0-0.2,0-0.3-0.1c-0.2,0-0.3,0-0.4,0c-0.5,0-1,0.1-1.4,0.4
		c-0.4,0.3-0.8,0.7-1.1,1.2l-0.2-1.5h-3.1v1.2L694.7,398z M690.3,392.1h-1.8v1.9h1.8V392.1z M687,406.6h4.9v-1.2l-1.5-0.3v-8.6H687
		v1.2l1.5,0.3v7.2l-1.5,0.3V406.6z M682.7,398.5c0.4,0.5,0.6,1.1,0.6,1.8v0.2h-4.6l0,0c0.1-0.8,0.4-1.4,0.8-1.9
		c0.4-0.5,1-0.8,1.6-0.8C681.8,397.8,682.4,398,682.7,398.5z M683.4,406.4c0.6-0.2,1.1-0.5,1.4-0.9l-0.7-1.2
		c-0.3,0.3-0.7,0.6-1.2,0.7c-0.5,0.2-1,0.3-1.6,0.3c-0.8,0-1.5-0.3-2-0.9c-0.5-0.6-0.7-1.4-0.7-2.4l0,0h6.5v-1.1
		c0-1.4-0.3-2.4-1-3.3c-0.7-0.8-1.7-1.2-3.1-1.2c-1.2,0-2.2,0.5-3,1.4c-0.9,0.9-1.3,2.1-1.3,3.6v0.4c0,1.5,0.4,2.7,1.2,3.6
		c0.8,0.9,1.9,1.4,3.3,1.4C682.1,406.8,682.9,406.7,683.4,406.4z M664.3,406.6h4.9v-1.2l-1.5-0.3v-6c0.3-0.4,0.6-0.7,1-1
		c0.4-0.2,0.9-0.4,1.4-0.4c0.7,0,1.2,0.2,1.6,0.6c0.4,0.4,0.5,1,0.5,1.8v4.9l-1.5,0.3v1.2h4.9v-1.2l-1.5-0.3v-4.9
		c0-1.3-0.3-2.3-0.9-3c-0.6-0.6-1.4-1-2.5-1c-0.6,0-1.2,0.1-1.7,0.4c-0.5,0.3-0.9,0.6-1.3,1.1v-5.8h-3.3v1.2l1.5,0.3v11.6l-1.5,0.3
		V406.6z M659,394.1v2.4h-1.6v1.4h1.6v6.1c0,1,0.2,1.7,0.7,2.1c0.4,0.4,1,0.7,1.8,0.7c0.3,0,0.7,0,1-0.1c0.3-0.1,0.6-0.2,0.8-0.3
		l-0.3-1.3c-0.1,0-0.3,0.1-0.5,0.1c-0.2,0-0.4,0-0.5,0c-0.3,0-0.6-0.1-0.8-0.3c-0.2-0.2-0.3-0.5-0.3-1v-6.1h1.9v-1.4h-1.9v-2.4H659z
		 M644.1,401.5c0-1.1,0.2-1.9,0.7-2.6c0.4-0.7,1.1-1,2-1c0.9,0,1.5,0.3,2,1c0.5,0.7,0.7,1.6,0.7,2.6v0.2c0,1.1-0.2,1.9-0.7,2.6
		c-0.5,0.7-1.1,1-2,1c-0.9,0-1.6-0.3-2-1c-0.4-0.7-0.7-1.6-0.7-2.6V401.5z M642.2,401.7c0,1.5,0.4,2.7,1.2,3.7
		c0.8,1,1.9,1.4,3.3,1.4c1.4,0,2.5-0.5,3.3-1.4c0.8-1,1.2-2.2,1.2-3.7v-0.2c0-1.5-0.4-2.7-1.2-3.7c-0.8-1-1.9-1.4-3.3-1.4
		c-1.4,0-2.5,0.5-3.3,1.4c-0.8,1-1.2,2.2-1.2,3.7V401.7z M636.8,394.1v2.4h-1.6v1.4h1.6v6.1c0,1,0.2,1.7,0.7,2.1
		c0.4,0.4,1,0.7,1.8,0.7c0.3,0,0.7,0,1-0.1c0.3-0.1,0.6-0.2,0.8-0.3l-0.3-1.3c-0.1,0-0.3,0.1-0.5,0.1c-0.2,0-0.4,0-0.5,0
		c-0.3,0-0.6-0.1-0.8-0.3c-0.2-0.2-0.3-0.5-0.3-1v-6.1h1.9v-1.4h-1.9v-2.4H636.8z M621.9,401.5c0-1.1,0.2-1.9,0.7-2.6
		c0.4-0.7,1.1-1,2-1c0.9,0,1.5,0.3,2,1c0.5,0.7,0.7,1.6,0.7,2.6v0.2c0,1.1-0.2,1.9-0.7,2.6c-0.5,0.7-1.1,1-2,1c-0.9,0-1.6-0.3-2-1
		c-0.4-0.7-0.7-1.6-0.7-2.6V401.5z M620.1,401.7c0,1.5,0.4,2.7,1.2,3.7c0.8,1,1.9,1.4,3.3,1.4c1.4,0,2.5-0.5,3.3-1.4
		c0.8-1,1.2-2.2,1.2-3.7v-0.2c0-1.5-0.4-2.7-1.2-3.7c-0.8-1-1.9-1.4-3.3-1.4c-1.4,0-2.5,0.5-3.3,1.4c-0.8,1-1.2,2.2-1.2,3.7V401.7z
		 M617.8,400.2h-4v1.3l2.2,0.1v3c-0.3,0.2-0.7,0.4-1.1,0.5c-0.5,0.2-1.1,0.2-1.8,0.2c-1.3,0-2.4-0.5-3.2-1.5c-0.8-1-1.1-2.3-1.1-3.9
		v-0.2c0-1.6,0.4-2.9,1.2-3.9c0.8-1,1.9-1.5,3.4-1.5c0.6,0,1.1,0.1,1.5,0.2c0.4,0.2,0.8,0.4,1.1,0.6l0.4,1.9h1.3v-2.4
		c-0.5-0.5-1.2-0.9-1.9-1.2c-0.8-0.3-1.6-0.5-2.6-0.5c-1.9,0-3.4,0.6-4.5,1.9s-1.7,2.9-1.7,4.9v0.2c0,2,0.6,3.7,1.7,4.9
		c1.1,1.3,2.6,1.9,4.4,1.9c1.2,0,2.2-0.2,3-0.6c0.8-0.4,1.4-0.8,1.8-1.2V400.2z"/>
	<path class="st2" d="M744.7,428.6h4.9v-1.2l-1.5-0.3v-5.9c0.2-0.4,0.6-0.8,1-1c0.4-0.3,0.9-0.4,1.4-0.4c0.7,0,1.3,0.2,1.6,0.6
		s0.5,1,0.5,1.9v4.9l-1.5,0.3v1.2h4.9v-1.2l-1.5-0.3v-4.9c0-1.3-0.3-2.3-0.9-2.9c-0.6-0.6-1.4-1-2.5-1c-0.6,0-1.2,0.1-1.7,0.4
		c-0.5,0.3-0.9,0.7-1.3,1.2l-0.1-1.5h-3.1v1.2l1.5,0.3v7.2l-1.5,0.3V428.6z M736.1,423.5c0-1.1,0.2-1.9,0.7-2.6c0.4-0.7,1.1-1,2-1
		c0.9,0,1.5,0.3,2,1c0.5,0.7,0.7,1.6,0.7,2.6v0.2c0,1.1-0.2,1.9-0.7,2.6c-0.5,0.7-1.1,1-2,1c-0.9,0-1.6-0.3-2-1
		c-0.4-0.7-0.7-1.6-0.7-2.6V423.5z M734.3,423.7c0,1.5,0.4,2.7,1.2,3.7c0.8,1,1.9,1.4,3.3,1.4c1.4,0,2.5-0.5,3.3-1.4
		c0.8-1,1.2-2.2,1.2-3.7v-0.2c0-1.5-0.4-2.7-1.2-3.7c-0.8-1-1.9-1.4-3.3-1.4c-1.4,0-2.5,0.5-3.3,1.4c-0.8,1-1.2,2.2-1.2,3.7V423.7z
		 M731.4,414.1h-1.8v1.9h1.8V414.1z M728.1,428.6h4.9v-1.2l-1.5-0.3v-8.6h-3.3v1.2l1.5,0.3v7.2l-1.5,0.3V428.6z M722.5,416.1v2.4
		h-1.6v1.4h1.6v6.1c0,1,0.2,1.7,0.7,2.1c0.4,0.4,1,0.7,1.8,0.7c0.3,0,0.7,0,1-0.1c0.3-0.1,0.6-0.2,0.8-0.3l-0.3-1.3
		c-0.1,0-0.3,0.1-0.5,0.1c-0.2,0-0.4,0-0.5,0c-0.3,0-0.6-0.1-0.8-0.3c-0.2-0.2-0.3-0.5-0.3-1v-6.1h1.9v-1.4h-1.9v-2.4H722.5z
		 M713.3,426.3c-0.4-0.7-0.6-1.5-0.6-2.6v-0.4c0-1,0.2-1.8,0.6-2.5c0.4-0.7,1.1-1,2.1-1c0.4,0,0.8,0.1,1.2,0.2
		c0.3,0.1,0.6,0.3,0.8,0.5l0.4,1.6h1.5l-0.1-2.2c-0.4-0.5-1-0.8-1.6-1.1c-0.6-0.3-1.4-0.4-2.2-0.4c-1.5,0-2.6,0.5-3.3,1.4
		c-0.8,1-1.2,2.1-1.2,3.6v0.4c0,1.4,0.4,2.6,1.2,3.6c0.8,1,1.9,1.4,3.3,1.4c1.1,0,2-0.3,2.8-1c0.8-0.7,1.2-1.4,1.2-2.3l0-0.1h-1.6
		c0,0.5-0.2,1-0.7,1.4c-0.5,0.4-1,0.6-1.6,0.6C714.4,427.3,713.7,427,713.3,426.3z M706.7,420.5c0.4,0.5,0.6,1.1,0.6,1.8v0.2h-4.6
		l0,0c0.1-0.8,0.4-1.4,0.8-1.9c0.4-0.5,1-0.8,1.6-0.8C705.7,419.8,706.3,420,706.7,420.5z M707.4,428.4c0.6-0.2,1.1-0.5,1.4-0.9
		l-0.7-1.2c-0.3,0.3-0.7,0.6-1.2,0.7c-0.5,0.2-1,0.3-1.6,0.3c-0.8,0-1.5-0.3-2-0.9c-0.5-0.6-0.7-1.4-0.7-2.4l0,0h6.5v-1.1
		c0-1.4-0.3-2.4-1-3.3c-0.7-0.8-1.7-1.2-3.1-1.2c-1.2,0-2.2,0.5-3,1.4c-0.9,0.9-1.3,2.1-1.3,3.6v0.4c0,1.5,0.4,2.7,1.2,3.6
		c0.8,0.9,1.9,1.4,3.3,1.4C706.1,428.8,706.8,428.7,707.4,428.4z M698.5,419.5c-0.4-0.4-0.9-0.6-1.5-0.8c-0.6-0.2-1.3-0.3-2.1-0.3
		c-1.1,0-2,0.3-2.7,0.9c-0.7,0.6-1,1.3-1,2.1c0,0.8,0.3,1.4,0.9,1.9c0.6,0.5,1.5,0.8,2.8,1.1c0.9,0.2,1.4,0.4,1.7,0.7
		c0.3,0.3,0.5,0.6,0.5,1c0,0.4-0.2,0.8-0.6,1c-0.4,0.3-0.9,0.4-1.5,0.4c-0.4,0-0.7,0-1.1-0.1c-0.4-0.1-0.6-0.2-0.9-0.4l-0.3-1.3
		h-1.4l0,2.3c0.5,0.3,1,0.6,1.6,0.8c0.6,0.2,1.3,0.3,2.1,0.3c1.2,0,2.1-0.3,2.8-0.8c0.7-0.6,1.1-1.3,1.1-2.2c0-0.8-0.3-1.4-0.9-1.9
		c-0.6-0.5-1.6-0.8-2.8-1.1c-0.9-0.2-1.4-0.4-1.7-0.6c-0.3-0.2-0.4-0.5-0.4-0.9c0-0.4,0.2-0.7,0.5-1c0.3-0.3,0.8-0.4,1.4-0.4
		c0.4,0,0.8,0.1,1.1,0.2c0.3,0.1,0.6,0.3,0.8,0.5l0.3,1.2h1.4L698.5,419.5z M675.9,415.5v11.6l-1.5,0.3v1.2h4.9v-1.2l-1.5-0.3v-3.2
		h1.2l2.7,3.3l-0.9,0.1v1.2h4.2v-1.2l-1.1-0.2l-3.2-4.1l2.6-3.2l1.2-0.2v-1.2h-4.2v1.2l0.9,0.1l-2.1,2.7h-1.2v-8.4h-3.3v1.2
		L675.9,415.5z M670,415.5v11.6l-1.5,0.3v1.2h4.9v-1.2l-1.5-0.3v-13h-3.3v1.2L670,415.5z M660.6,426.9c-0.3-0.2-0.4-0.6-0.4-1
		c0-0.5,0.2-0.9,0.7-1.3c0.4-0.3,1-0.5,1.8-0.5h1.9v1.7c-0.2,0.4-0.6,0.8-1.1,1c-0.5,0.3-1.1,0.4-1.7,0.4
		C661.3,427.2,660.9,427.1,660.6,426.9z M667.2,428.6v-1.2l-0.7-0.1c0-0.1,0-0.2,0-0.4c0-0.1,0-0.3,0-0.4v-4.8
		c0-1.1-0.4-1.9-1.1-2.5c-0.7-0.6-1.6-0.9-2.8-0.9c-0.8,0-1.5,0.1-2.1,0.3c-0.6,0.2-1.2,0.5-1.7,0.9v1.9h1.4l0.2-1.1
		c0.2-0.2,0.5-0.4,0.8-0.5c0.3-0.1,0.8-0.2,1.2-0.2c0.7,0,1.2,0.2,1.5,0.5c0.4,0.3,0.6,0.8,0.6,1.4v1.2h-1.9c-1.3,0-2.4,0.3-3.2,0.8
		c-0.8,0.5-1.2,1.3-1.2,2.2c0,0.9,0.3,1.6,0.8,2.2c0.5,0.5,1.3,0.8,2.4,0.8c0.6,0,1.2-0.1,1.7-0.4c0.5-0.3,1-0.7,1.3-1.1
		c0,0.2,0,0.4,0.1,0.6c0,0.2,0.1,0.5,0.1,0.7H667.2z M646.9,415.1v3h1.6l0.1-1.5h3v10.6l-1.5,0.3v1.2h4.9v-1.2l-1.5-0.3v-10.6h3
		l0.1,1.5h1.6v-3H646.9z"/>
	<rect x="572.5" y="492.6" class="st0" width="257.9" height="81.9"/>
	<polygon class="st1" points="830.4,574.6 830.4,572.9 574.1,572.9 574.1,494.3 828.8,494.3 828.8,574.6 830.4,574.6 830.4,572.9 
		830.4,574.6 832.1,574.6 832.1,491 570.9,491 570.9,576.2 832.1,576.2 832.1,574.6 	"/>
	<path class="st2" d="M744,517.6v11.6l-1.5,0.3v1.2h4.9v-1.2l-1.5-0.3v-13h-3.3v1.2L744,517.6z M738,517.6v11.6l-1.5,0.3v1.2h4.9
		v-1.2l-1.5-0.3v-13h-3.3v1.2L738,517.6z M728.6,529c-0.3-0.2-0.4-0.6-0.4-1c0-0.5,0.2-0.9,0.7-1.3c0.4-0.3,1-0.5,1.8-0.5h1.9v1.7
		c-0.2,0.4-0.6,0.8-1.1,1c-0.5,0.3-1.1,0.4-1.7,0.4C729.3,529.3,728.9,529.2,728.6,529z M735.2,530.7v-1.2l-0.7-0.1
		c0-0.1,0-0.2,0-0.4c0-0.1,0-0.3,0-0.4v-4.8c0-1.1-0.4-1.9-1.1-2.5c-0.7-0.6-1.6-0.9-2.8-0.9c-0.8,0-1.5,0.1-2.1,0.3
		c-0.6,0.2-1.2,0.5-1.7,0.9v1.9h1.4l0.2-1.1c0.2-0.2,0.5-0.4,0.8-0.5c0.3-0.1,0.8-0.2,1.2-0.2c0.7,0,1.2,0.2,1.5,0.5
		c0.4,0.3,0.6,0.8,0.6,1.4v1.2h-1.9c-1.3,0-2.4,0.3-3.2,0.8c-0.8,0.5-1.2,1.3-1.2,2.2c0,0.9,0.3,1.6,0.8,2.2
		c0.5,0.5,1.3,0.8,2.4,0.8c0.6,0,1.2-0.1,1.7-0.4c0.5-0.3,1-0.7,1.3-1.1c0,0.2,0,0.4,0.1,0.6c0,0.2,0.1,0.5,0.1,0.7H735.2z
		 M715.9,518.2v2.4h-1.6v1.4h1.6v6.1c0,1,0.2,1.7,0.7,2.1c0.4,0.4,1,0.7,1.8,0.7c0.3,0,0.7,0,1-0.1c0.3-0.1,0.6-0.2,0.8-0.3
		l-0.3-1.3c-0.1,0-0.3,0.1-0.5,0.1c-0.2,0-0.4,0-0.5,0c-0.3,0-0.6-0.1-0.8-0.3c-0.2-0.2-0.3-0.5-0.3-1V522h1.9v-1.4h-1.9v-2.4H715.9
		z M706.8,528.4c-0.4-0.7-0.6-1.5-0.6-2.6v-0.4c0-1,0.2-1.8,0.6-2.5c0.4-0.7,1.1-1,2.1-1c0.4,0,0.8,0.1,1.2,0.2
		c0.3,0.1,0.6,0.3,0.8,0.5l0.4,1.6h1.5l-0.1-2.2c-0.4-0.5-1-0.8-1.6-1.1c-0.6-0.3-1.4-0.4-2.2-0.4c-1.5,0-2.6,0.5-3.3,1.4
		c-0.8,1-1.2,2.1-1.2,3.6v0.4c0,1.4,0.4,2.6,1.2,3.6c0.8,1,1.9,1.4,3.3,1.4c1.1,0,2-0.3,2.8-1c0.8-0.7,1.2-1.4,1.2-2.3l0-0.1h-1.6
		c0,0.5-0.2,1-0.7,1.4c-0.5,0.4-1,0.6-1.6,0.6C707.9,529.4,707.2,529.1,706.8,528.4z M696.2,529c-0.3-0.2-0.4-0.6-0.4-1
		c0-0.5,0.2-0.9,0.7-1.3c0.4-0.3,1-0.5,1.8-0.5h1.9v1.7c-0.2,0.4-0.6,0.8-1.1,1c-0.5,0.3-1.1,0.4-1.7,0.4
		C696.9,529.3,696.5,529.2,696.2,529z M702.8,530.7v-1.2l-0.7-0.1c0-0.1,0-0.2,0-0.4c0-0.1,0-0.3,0-0.4v-4.8c0-1.1-0.4-1.9-1.1-2.5
		c-0.7-0.6-1.6-0.9-2.8-0.9c-0.8,0-1.5,0.1-2.1,0.3c-0.6,0.2-1.2,0.5-1.7,0.9v1.9h1.4l0.2-1.1c0.2-0.2,0.5-0.4,0.8-0.5
		c0.3-0.1,0.8-0.2,1.2-0.2c0.7,0,1.2,0.2,1.5,0.5c0.4,0.3,0.6,0.8,0.6,1.4v1.2h-1.9c-1.3,0-2.4,0.3-3.2,0.8
		c-0.8,0.5-1.2,1.3-1.2,2.2c0,0.9,0.3,1.6,0.8,2.2c0.5,0.5,1.3,0.8,2.4,0.8c0.6,0,1.2-0.1,1.7-0.4c0.5-0.3,1-0.7,1.3-1.1
		c0,0.2,0,0.4,0.1,0.6c0,0.2,0.1,0.5,0.1,0.7H702.8z M687.5,522.1v7.2l-1.5,0.3v1.2h4.9v-1.2l-1.5-0.3v-5.8c0.2-0.4,0.4-0.7,0.8-1
		c0.3-0.2,0.7-0.3,1.2-0.3l1,0.1l0.2-1.7c-0.1,0-0.2,0-0.3-0.1c-0.2,0-0.3,0-0.4,0c-0.5,0-1,0.1-1.4,0.4c-0.4,0.3-0.8,0.7-1.1,1.2
		l-0.2-1.5H686v1.2L687.5,522.1z M680.4,518.2v2.4h-1.6v1.4h1.6v6.1c0,1,0.2,1.7,0.7,2.1c0.4,0.4,1,0.7,1.8,0.7c0.3,0,0.7,0,1-0.1
		c0.3-0.1,0.6-0.2,0.8-0.3l-0.3-1.3c-0.1,0-0.3,0.1-0.5,0.1c-0.2,0-0.4,0-0.5,0c-0.3,0-0.6-0.1-0.8-0.3c-0.2-0.2-0.3-0.5-0.3-1V522
		h1.9v-1.4h-1.9v-2.4H680.4z M667.7,530.7h4v-1.2l-0.9-0.1l2-2.5l2,2.5l-0.9,0.1v1.2h3.9v-1.2l-1.1-0.2l-3-3.7l2.9-3.6l1.1-0.2v-1.2
		h-4v1.2l0.9,0.1l-1.9,2.4l-1.9-2.4l0.9-0.1v-1.2h-3.9v1.2l1.1,0.2l2.9,3.6l-3,3.7l-1.1,0.2V530.7z M666.2,530.7v-3.2h-1.6l-0.1,1.8
		H659v-4.8h5.2V523H659v-4.4h5.3l0.1,1.8h1.6v-3.2h-10.4v1.2l1.5,0.3v10.6l-1.5,0.3v1.2H666.2z"/>
	<path class="st2" d="M759.7,543.6c-0.4-0.4-0.9-0.6-1.5-0.8c-0.6-0.2-1.3-0.3-2.1-0.3c-1.1,0-2,0.3-2.7,0.9c-0.7,0.6-1,1.3-1,2.1
		c0,0.8,0.3,1.4,0.9,1.9c0.6,0.5,1.5,0.8,2.8,1.1c0.9,0.2,1.4,0.4,1.7,0.7c0.3,0.3,0.5,0.6,0.5,1c0,0.4-0.2,0.8-0.6,1
		c-0.4,0.3-0.9,0.4-1.5,0.4c-0.4,0-0.7,0-1.1-0.1c-0.4-0.1-0.6-0.2-0.9-0.4l-0.3-1.3h-1.4l0,2.3c0.5,0.3,1,0.6,1.6,0.8
		c0.6,0.2,1.3,0.3,2.1,0.3c1.2,0,2.1-0.3,2.8-0.8c0.7-0.6,1.1-1.3,1.1-2.2c0-0.8-0.3-1.4-0.9-1.9c-0.6-0.5-1.6-0.8-2.8-1.1
		c-0.9-0.2-1.4-0.4-1.7-0.6c-0.3-0.2-0.4-0.5-0.4-0.9c0-0.4,0.2-0.7,0.5-1c0.3-0.3,0.8-0.4,1.4-0.4c0.4,0,0.8,0.1,1.1,0.2
		c0.3,0.1,0.6,0.3,0.8,0.5l0.3,1.2h1.4L759.7,543.6z M746.5,540.2v2.4H745v1.4h1.6v6.1c0,1,0.2,1.7,0.7,2.1c0.4,0.4,1,0.7,1.8,0.7
		c0.3,0,0.7,0,1-0.1c0.3-0.1,0.6-0.2,0.8-0.3l-0.3-1.3c-0.1,0-0.3,0.1-0.5,0.1c-0.2,0-0.4,0-0.5,0c-0.3,0-0.6-0.1-0.8-0.3
		c-0.2-0.2-0.3-0.5-0.3-1V544h1.9v-1.4h-1.9v-2.4H746.5z M732.7,552.7h4.9v-1.2l-1.5-0.3v-5.9c0.2-0.4,0.6-0.8,1-1
		c0.4-0.3,0.9-0.4,1.4-0.4c0.7,0,1.3,0.2,1.6,0.6s0.5,1,0.5,1.9v4.9l-1.5,0.3v1.2h4.9v-1.2l-1.5-0.3v-4.9c0-1.3-0.3-2.3-0.9-2.9
		c-0.6-0.6-1.4-1-2.5-1c-0.6,0-1.2,0.1-1.7,0.4c-0.5,0.3-0.9,0.7-1.3,1.2l-0.1-1.5h-3.1v1.2l1.5,0.3v7.2l-1.5,0.3V552.7z
		 M728.7,544.6c0.4,0.5,0.6,1.1,0.6,1.8v0.2h-4.6l0,0c0.1-0.8,0.4-1.4,0.8-1.9c0.4-0.5,1-0.8,1.6-0.8
		C727.8,543.9,728.4,544.1,728.7,544.6z M729.4,552.5c0.6-0.2,1.1-0.5,1.4-0.9l-0.7-1.2c-0.3,0.3-0.7,0.6-1.2,0.7
		c-0.5,0.2-1,0.3-1.6,0.3c-0.8,0-1.5-0.3-2-0.9c-0.5-0.6-0.7-1.4-0.7-2.4l0,0h6.5V547c0-1.4-0.3-2.4-1-3.3c-0.7-0.8-1.7-1.2-3.1-1.2
		c-1.2,0-2.2,0.5-3,1.4c-0.9,0.9-1.3,2.1-1.3,3.6v0.4c0,1.5,0.4,2.7,1.2,3.6c0.8,0.9,1.9,1.4,3.3,1.4
		C728.1,552.9,728.9,552.8,729.4,552.5z M717.1,540.2v2.4h-1.6v1.4h1.6v6.1c0,1,0.2,1.7,0.7,2.1c0.4,0.4,1,0.7,1.8,0.7
		c0.3,0,0.7,0,1-0.1c0.3-0.1,0.6-0.2,0.8-0.3l-0.3-1.3c-0.1,0-0.3,0.1-0.5,0.1c-0.2,0-0.4,0-0.5,0c-0.3,0-0.6-0.1-0.8-0.3
		c-0.2-0.2-0.3-0.5-0.3-1V544h1.9v-1.4H719v-2.4H717.1z M703.3,552.7h4.9v-1.2l-1.5-0.3v-5.9c0.2-0.4,0.6-0.8,1-1
		c0.4-0.3,0.9-0.4,1.4-0.4c0.7,0,1.3,0.2,1.6,0.6s0.5,1,0.5,1.9v4.9l-1.5,0.3v1.2h4.9v-1.2l-1.5-0.3v-4.9c0-1.3-0.3-2.3-0.9-2.9
		c-0.6-0.6-1.4-1-2.5-1c-0.6,0-1.2,0.1-1.7,0.4c-0.5,0.3-0.9,0.7-1.3,1.2l-0.1-1.5h-3.1v1.2l1.5,0.3v7.2l-1.5,0.3V552.7z
		 M694.7,547.6c0-1.1,0.2-1.9,0.7-2.6c0.4-0.7,1.1-1,2-1c0.9,0,1.5,0.3,2,1c0.5,0.7,0.7,1.6,0.7,2.6v0.2c0,1.1-0.2,1.9-0.7,2.6
		c-0.5,0.7-1.1,1-2,1c-0.9,0-1.6-0.3-2-1c-0.4-0.7-0.7-1.6-0.7-2.6V547.6z M692.9,547.8c0,1.5,0.4,2.7,1.2,3.7
		c0.8,1,1.9,1.4,3.3,1.4c1.4,0,2.5-0.5,3.3-1.4c0.8-1,1.2-2.2,1.2-3.7v-0.2c0-1.5-0.4-2.7-1.2-3.7c-0.8-1-1.9-1.4-3.3-1.4
		c-1.4,0-2.5,0.5-3.3,1.4c-0.8,1-1.2,2.2-1.2,3.7V547.8z M685.1,550.4c-0.4-0.7-0.6-1.5-0.6-2.6v-0.4c0-1,0.2-1.8,0.6-2.5
		c0.4-0.7,1.1-1,2.1-1c0.4,0,0.8,0.1,1.2,0.2c0.3,0.1,0.6,0.3,0.8,0.5l0.4,1.6h1.5l-0.1-2.2c-0.4-0.5-1-0.8-1.6-1.1
		c-0.6-0.3-1.4-0.4-2.2-0.4c-1.5,0-2.6,0.5-3.3,1.4c-0.8,1-1.2,2.1-1.2,3.6v0.4c0,1.4,0.4,2.6,1.2,3.6c0.8,1,1.9,1.4,3.3,1.4
		c1.1,0,2-0.3,2.8-1c0.8-0.7,1.2-1.4,1.2-2.3l0-0.1h-1.6c0,0.5-0.2,1-0.7,1.4c-0.5,0.4-1,0.6-1.6,0.6
		C686.2,551.4,685.5,551.1,685.1,550.4z M672.3,540.2v2.4h-1.6v1.4h1.6v6.1c0,1,0.2,1.7,0.7,2.1c0.4,0.4,1,0.7,1.8,0.7
		c0.3,0,0.7,0,1-0.1c0.3-0.1,0.6-0.2,0.8-0.3l-0.3-1.3c-0.1,0-0.3,0.1-0.5,0.1c-0.2,0-0.4,0-0.5,0c-0.3,0-0.6-0.1-0.8-0.3
		c-0.2-0.2-0.3-0.5-0.3-1V544h1.9v-1.4h-1.9v-2.4H672.3z M659.7,552.7h4v-1.2l-0.9-0.1l2-2.5l2,2.5l-0.9,0.1v1.2h3.9v-1.2l-1.1-0.2
		l-3-3.7l2.9-3.6l1.1-0.2v-1.2h-4v1.2l0.9,0.1l-1.9,2.4l-1.9-2.4l0.9-0.1v-1.2h-3.9v1.2l1.1,0.2l2.9,3.6l-3,3.7l-1.1,0.2V552.7z
		 M655.7,544.6c0.4,0.5,0.6,1.1,0.6,1.8v0.2h-4.6l0,0c0.1-0.8,0.4-1.4,0.8-1.9c0.4-0.5,1-0.8,1.6-0.8
		C654.8,543.9,655.3,544.1,655.7,544.6z M656.4,552.5c0.6-0.2,1.1-0.5,1.4-0.9l-0.7-1.2c-0.3,0.3-0.7,0.6-1.2,0.7
		c-0.5,0.2-1,0.3-1.6,0.3c-0.8,0-1.5-0.3-2-0.9c-0.5-0.6-0.7-1.4-0.7-2.4l0,0h6.5V547c0-1.4-0.3-2.4-1-3.3c-0.7-0.8-1.7-1.2-3.1-1.2
		c-1.2,0-2.2,0.5-3,1.4c-0.9,0.9-1.3,2.1-1.3,3.6v0.4c0,1.5,0.4,2.7,1.2,3.6c0.8,0.9,1.9,1.4,3.3,1.4
		C655.1,552.9,655.8,552.8,656.4,552.5z M644.1,540.2v2.4h-1.6v1.4h1.6v6.1c0,1,0.2,1.7,0.7,2.1c0.4,0.4,1,0.7,1.8,0.7
		c0.3,0,0.7,0,1-0.1c0.3-0.1,0.6-0.2,0.8-0.3l-0.3-1.3c-0.1,0-0.3,0.1-0.5,0.1c-0.2,0-0.4,0-0.5,0c-0.3,0-0.6-0.1-0.8-0.3
		c-0.2-0.2-0.3-0.5-0.3-1V544h1.9v-1.4h-1.9v-2.4H644.1z"/>
	<polyline class="st1" points="700,450.4 700,452.8 702.9,452.8 702.9,450.4 	"/>
	<path class="st1" d="M700,473.4v4.1h2.9v-4.1H700z M700,465.2v4.1h2.9v-4.1H700z M700,456.9v4.1h2.9v-4.1H700z"/>
	<polyline class="st1" points="700,481.6 700,484 702.9,484 702.9,481.6 	"/>
	<path class="st1" d="M701.5,492.6c-1.5-4.1-4.1-9.1-6.8-12.3l6.8,2.5l6.8-2.5C705.5,483.5,703,488.5,701.5,492.6z"/>
	<rect x="572.5" y="764.4" class="st0" width="257.9" height="81.9"/>
	<polygon class="st1" points="830.4,846.4 830.4,844.7 574.1,844.7 574.1,766.1 828.8,766.1 828.8,846.4 830.4,846.4 830.4,844.7 
		830.4,846.4 832.1,846.4 832.1,762.8 570.9,762.8 570.9,848 832.1,848 832.1,846.4 	"/>
	<path class="st2" d="M793,790v2.4h-1.6v1.4h1.6v6.1c0,1,0.2,1.7,0.7,2.1c0.4,0.4,1,0.7,1.8,0.7c0.3,0,0.7,0,1-0.1
		c0.3-0.1,0.6-0.2,0.8-0.3l-0.3-1.3c-0.1,0-0.3,0.1-0.5,0.1c-0.2,0-0.4,0-0.5,0c-0.3,0-0.6-0.1-0.8-0.3c-0.2-0.2-0.3-0.5-0.3-1v-6.1
		h1.9v-1.4h-1.9V790H793z M784.9,793.9v7.2l-1.5,0.3v1.2h4.9v-1.2l-1.5-0.3v-5.8c0.2-0.4,0.4-0.7,0.8-1c0.3-0.2,0.7-0.3,1.2-0.3
		l1,0.1l0.2-1.7c-0.1,0-0.2,0-0.3-0.1c-0.2,0-0.3,0-0.4,0c-0.5,0-1,0.1-1.4,0.4c-0.4,0.3-0.8,0.7-1.1,1.2l-0.2-1.5h-3.1v1.2
		L784.9,793.9z M775.3,800.8c-0.3-0.2-0.4-0.6-0.4-1c0-0.5,0.2-0.9,0.7-1.3c0.4-0.3,1-0.5,1.8-0.5h1.9v1.7c-0.2,0.4-0.6,0.8-1.1,1
		c-0.5,0.3-1.1,0.4-1.7,0.4C776,801.1,775.6,801,775.3,800.8z M781.9,802.5v-1.2l-0.7-0.1c0-0.1,0-0.2,0-0.4c0-0.1,0-0.3,0-0.4v-4.8
		c0-1.1-0.4-1.9-1.1-2.5c-0.7-0.6-1.6-0.9-2.8-0.9c-0.8,0-1.5,0.1-2.1,0.3c-0.6,0.2-1.2,0.5-1.7,0.9v1.9h1.4l0.2-1.1
		c0.2-0.2,0.5-0.4,0.8-0.5c0.3-0.1,0.8-0.2,1.2-0.2c0.7,0,1.2,0.2,1.5,0.5c0.4,0.3,0.6,0.8,0.6,1.4v1.2h-1.9c-1.3,0-2.4,0.3-3.2,0.8
		c-0.8,0.5-1.2,1.3-1.2,2.2c0,0.9,0.3,1.6,0.8,2.2c0.5,0.5,1.3,0.8,2.4,0.8c0.6,0,1.2-0.1,1.7-0.4c0.5-0.3,1-0.7,1.3-1.1
		c0,0.2,0,0.4,0.1,0.6c0,0.2,0.1,0.5,0.1,0.7H781.9z M760.5,802.5h4.9v-1.2l-1.5-0.3v-6c0.3-0.4,0.6-0.7,1-1
		c0.4-0.2,0.9-0.4,1.4-0.4c0.7,0,1.2,0.2,1.6,0.6c0.4,0.4,0.5,1,0.5,1.8v4.9l-1.5,0.3v1.2h4.9v-1.2l-1.5-0.3v-4.9
		c0-1.3-0.3-2.3-0.9-3c-0.6-0.6-1.4-1-2.5-1c-0.6,0-1.2,0.1-1.7,0.4c-0.5,0.3-0.9,0.6-1.3,1.1V788h-3.3v1.2l1.5,0.3v11.6l-1.5,0.3
		V802.5z M752.9,800.2c-0.4-0.7-0.6-1.5-0.6-2.6v-0.4c0-1,0.2-1.8,0.6-2.5c0.4-0.7,1.1-1,2.1-1c0.4,0,0.8,0.1,1.2,0.2
		c0.3,0.1,0.6,0.3,0.8,0.5l0.4,1.6h1.5l-0.1-2.2c-0.4-0.5-1-0.8-1.6-1.1c-0.6-0.3-1.4-0.4-2.2-0.4c-1.5,0-2.6,0.5-3.3,1.4
		c-0.8,1-1.2,2.1-1.2,3.6v0.4c0,1.4,0.4,2.6,1.2,3.6c0.8,1,1.9,1.4,3.3,1.4c1.1,0,2-0.3,2.8-1c0.8-0.7,1.2-1.4,1.2-2.3l0-0.1h-1.6
		c0,0.5-0.2,1-0.7,1.4c-0.5,0.4-1,0.6-1.6,0.6C754,801.3,753.3,800.9,752.9,800.2z M733.6,792.4h-3.8v1.2l0.9,0.1l2.5,8.7h1.5
		l1.9-6.1l0.4-1.7l0.1,0l0.4,1.7l1.9,6.1h1.5l2.5-8.7l0.9-0.1v-1.2h-3.8v1.2l1.2,0.2l-1.2,5l-0.3,1.4h-0.1l-0.3-1.4l-2-6.4h-1.5
		l-2,6.4L734,800H734l-0.2-1.2l-1.3-5l1.2-0.2V792.4z M721.2,797.4c0-1.1,0.2-1.9,0.7-2.6c0.4-0.7,1.1-1,2-1c0.9,0,1.5,0.3,2,1
		c0.5,0.7,0.7,1.6,0.7,2.6v0.2c0,1.1-0.2,1.9-0.7,2.6c-0.5,0.7-1.1,1-2,1c-0.9,0-1.6-0.3-2-1c-0.4-0.7-0.7-1.6-0.7-2.6V797.4z
		 M719.4,797.6c0,1.5,0.4,2.7,1.2,3.7c0.8,1,1.9,1.4,3.3,1.4c1.4,0,2.5-0.5,3.3-1.4c0.8-1,1.2-2.2,1.2-3.7v-0.2
		c0-1.5-0.4-2.7-1.2-3.7c-0.8-1-1.9-1.4-3.3-1.4c-1.4,0-2.5,0.5-3.3,1.4c-0.8,1-1.2,2.2-1.2,3.7V797.6z M713,802.5h4.9v-1.2
		l-1.5-0.3v-12.7h-0.8c-0.7-0.2-1.3-0.3-1.8-0.4c-0.5-0.1-1-0.1-1.6-0.1c-1.3,0-2.3,0.3-3,1c-0.7,0.7-1.1,1.6-1.1,2.9v0.7h-1.3v1.4
		h1.3v7.3l-1.5,0.3v1.2h4.9v-1.2l-1.5-0.3v-7.3h2.3v-1.4h-2.3v-0.7c0-0.8,0.2-1.4,0.6-1.8c0.4-0.4,1-0.6,1.9-0.6
		c0.4,0,0.8,0,1.1,0.1c0.4,0.1,0.7,0.1,1.1,0.2v11.4l-1.5,0.3V802.5z M694,800.8c-0.3-0.2-0.4-0.6-0.4-1c0-0.5,0.2-0.9,0.7-1.3
		c0.4-0.3,1-0.5,1.8-0.5h1.9v1.7c-0.2,0.4-0.6,0.8-1.1,1c-0.5,0.3-1.1,0.4-1.7,0.4C694.7,801.1,694.3,801,694,800.8z M700.6,802.5
		v-1.2l-0.7-0.1c0-0.1,0-0.2,0-0.4c0-0.1,0-0.3,0-0.4v-4.8c0-1.1-0.4-1.9-1.1-2.5c-0.7-0.6-1.6-0.9-2.8-0.9c-0.8,0-1.5,0.1-2.1,0.3
		c-0.6,0.2-1.2,0.5-1.7,0.9v1.9h1.4l0.2-1.1c0.2-0.2,0.5-0.4,0.8-0.5c0.3-0.1,0.8-0.2,1.2-0.2c0.7,0,1.2,0.2,1.5,0.5
		c0.4,0.3,0.6,0.8,0.6,1.4v1.2h-1.9c-1.3,0-2.4,0.3-3.2,0.8c-0.8,0.5-1.2,1.3-1.2,2.2c0,0.9,0.3,1.6,0.8,2.2
		c0.5,0.5,1.3,0.8,2.4,0.8c0.6,0,1.2-0.1,1.7-0.4c0.5-0.3,1-0.7,1.3-1.1c0,0.2,0,0.4,0.1,0.6c0,0.2,0.1,0.5,0.1,0.7H700.6z
		 M682.7,794.4c0.4,0.5,0.6,1.1,0.6,1.8v0.2h-4.6l0,0c0.1-0.8,0.4-1.4,0.8-1.9c0.4-0.5,1-0.8,1.6-0.8
		C681.8,793.7,682.4,793.9,682.7,794.4z M683.4,802.3c0.6-0.2,1.1-0.5,1.4-0.9l-0.7-1.2c-0.3,0.3-0.7,0.6-1.2,0.7
		c-0.5,0.2-1,0.3-1.6,0.3c-0.8,0-1.5-0.3-2-0.9c-0.5-0.6-0.7-1.4-0.7-2.4l0,0h6.5v-1.1c0-1.4-0.3-2.4-1-3.3
		c-0.7-0.8-1.7-1.2-3.1-1.2c-1.2,0-2.2,0.5-3,1.4c-0.9,0.9-1.3,2.1-1.3,3.6v0.4c0,1.5,0.4,2.7,1.2,3.6c0.8,0.9,1.9,1.4,3.3,1.4
		C682.1,802.7,682.8,802.6,683.4,802.3z M671.1,790v2.4h-1.6v1.4h1.6v6.1c0,1,0.2,1.7,0.7,2.1c0.4,0.4,1,0.7,1.8,0.7
		c0.3,0,0.7,0,1-0.1c0.3-0.1,0.6-0.2,0.8-0.3l-0.3-1.3c-0.1,0-0.3,0.1-0.5,0.1c-0.2,0-0.4,0-0.5,0c-0.3,0-0.6-0.1-0.8-0.3
		c-0.2-0.2-0.3-0.5-0.3-1v-6.1h1.9v-1.4H673V790H671.1z M661.7,800.8c-0.3-0.2-0.4-0.6-0.4-1c0-0.5,0.2-0.9,0.7-1.3
		c0.4-0.3,1-0.5,1.8-0.5h1.9v1.7c-0.2,0.4-0.6,0.8-1.1,1c-0.5,0.3-1.1,0.4-1.7,0.4C662.4,801.1,661.9,801,661.7,800.8z M668.2,802.5
		v-1.2l-0.7-0.1c0-0.1,0-0.2,0-0.4c0-0.1,0-0.3,0-0.4v-4.8c0-1.1-0.4-1.9-1.1-2.5c-0.7-0.6-1.6-0.9-2.8-0.9c-0.8,0-1.5,0.1-2.1,0.3
		c-0.6,0.2-1.2,0.5-1.7,0.9v1.9h1.4l0.2-1.1c0.2-0.2,0.5-0.4,0.8-0.5c0.3-0.1,0.8-0.2,1.2-0.2c0.7,0,1.2,0.2,1.5,0.5
		c0.4,0.3,0.6,0.8,0.6,1.4v1.2h-1.9c-1.3,0-2.4,0.3-3.2,0.8c-0.8,0.5-1.2,1.3-1.2,2.2c0,0.9,0.3,1.6,0.8,2.2
		c0.5,0.5,1.3,0.8,2.4,0.8c0.6,0,1.2-0.1,1.7-0.4c0.5-0.3,1-0.7,1.3-1.1c0,0.2,0,0.4,0.1,0.6c0,0.2,0.1,0.5,0.1,0.7H668.2z
		 M653,793.9v7.2l-1.5,0.3v1.2h4.9v-1.2l-1.5-0.3v-5.8c0.2-0.4,0.4-0.7,0.8-1c0.3-0.2,0.7-0.3,1.2-0.3l1,0.1l0.2-1.7
		c-0.1,0-0.2,0-0.3-0.1c-0.2,0-0.3,0-0.4,0c-0.5,0-1,0.1-1.4,0.4c-0.4,0.3-0.8,0.7-1.1,1.2l-0.2-1.5h-3.1v1.2L653,793.9z
		 M647.2,794.4c0.4,0.5,0.6,1.1,0.6,1.8v0.2h-4.6l0,0c0.1-0.8,0.4-1.4,0.8-1.9c0.4-0.5,1-0.8,1.6-0.8
		C646.3,793.7,646.9,793.9,647.2,794.4z M647.9,802.3c0.6-0.2,1.1-0.5,1.4-0.9l-0.7-1.2c-0.3,0.3-0.7,0.6-1.2,0.7
		c-0.5,0.2-1,0.3-1.6,0.3c-0.8,0-1.5-0.3-2-0.9c-0.5-0.6-0.7-1.4-0.7-2.4l0,0h6.5v-1.1c0-1.4-0.3-2.4-1-3.3
		c-0.7-0.8-1.7-1.2-3.1-1.2c-1.2,0-2.2,0.5-3,1.4c-0.9,0.9-1.3,2.1-1.3,3.6v0.4c0,1.5,0.4,2.7,1.2,3.6c0.8,0.9,1.9,1.4,3.3,1.4
		C646.6,802.7,647.4,802.6,647.9,802.3z M628.8,802.5h4.9v-1.2l-1.5-0.3v-5.9c0.2-0.4,0.6-0.8,1-1c0.4-0.3,0.9-0.4,1.4-0.4
		c0.7,0,1.3,0.2,1.6,0.6s0.5,1,0.5,1.9v4.9l-1.5,0.3v1.2h4.9v-1.2l-1.5-0.3v-4.9c0-1.3-0.3-2.3-0.9-2.9c-0.6-0.6-1.4-1-2.5-1
		c-0.6,0-1.2,0.1-1.7,0.4c-0.5,0.3-0.9,0.7-1.3,1.2l-0.1-1.5h-3.1v1.2l1.5,0.3v7.2l-1.5,0.3V802.5z M624.9,794.4
		c0.4,0.5,0.6,1.1,0.6,1.8v0.2h-4.6l0,0c0.1-0.8,0.4-1.4,0.8-1.9c0.4-0.5,1-0.8,1.6-0.8C623.9,793.7,624.5,793.9,624.9,794.4z
		 M625.6,802.3c0.6-0.2,1.1-0.5,1.4-0.9l-0.7-1.2c-0.3,0.3-0.7,0.6-1.2,0.7c-0.5,0.2-1,0.3-1.6,0.3c-0.8,0-1.5-0.3-2-0.9
		c-0.5-0.6-0.7-1.4-0.7-2.4l0,0h6.5v-1.1c0-1.4-0.3-2.4-1-3.3c-0.7-0.8-1.7-1.2-3.1-1.2c-1.2,0-2.2,0.5-3,1.4
		c-0.9,0.9-1.3,2.1-1.3,3.6v0.4c0,1.5,0.4,2.7,1.2,3.6c0.8,0.9,1.9,1.4,3.3,1.4C624.3,802.7,625,802.6,625.6,802.3z M616.6,796.1h-4
		v1.3l2.2,0.1v3c-0.3,0.2-0.7,0.4-1.1,0.5c-0.5,0.2-1.1,0.2-1.8,0.2c-1.3,0-2.4-0.5-3.2-1.5c-0.8-1-1.1-2.3-1.1-3.9v-0.2
		c0-1.6,0.4-2.9,1.2-3.9c0.8-1,1.9-1.5,3.4-1.5c0.6,0,1.1,0.1,1.5,0.2c0.4,0.2,0.8,0.4,1.1,0.6l0.4,1.9h1.3v-2.4
		c-0.5-0.5-1.2-0.9-1.9-1.2c-0.8-0.3-1.6-0.5-2.6-0.5c-1.9,0-3.4,0.6-4.5,1.9s-1.7,2.9-1.7,4.9v0.2c0,2,0.6,3.7,1.7,4.9
		c1.1,1.3,2.6,1.9,4.4,1.9c1.2,0,2.2-0.2,3-0.6c0.8-0.4,1.4-0.8,1.8-1.2V796.1z"/>
	<path class="st2" d="M764.1,815.4c-0.4-0.4-0.9-0.6-1.5-0.8c-0.6-0.2-1.3-0.3-2.1-0.3c-1.1,0-2,0.3-2.7,0.9c-0.7,0.6-1,1.3-1,2.1
		c0,0.8,0.3,1.4,0.9,1.9c0.6,0.5,1.5,0.8,2.8,1.1c0.9,0.2,1.4,0.4,1.7,0.7c0.3,0.3,0.5,0.6,0.5,1c0,0.4-0.2,0.8-0.6,1
		c-0.4,0.3-0.9,0.4-1.5,0.4c-0.4,0-0.7,0-1.1-0.1c-0.4-0.1-0.6-0.2-0.9-0.4l-0.3-1.3h-1.4l0,2.3c0.5,0.3,1,0.6,1.6,0.8
		c0.6,0.2,1.3,0.3,2.1,0.3c1.2,0,2.1-0.3,2.8-0.8c0.7-0.6,1.1-1.3,1.1-2.2c0-0.8-0.3-1.4-0.9-1.9c-0.6-0.5-1.6-0.8-2.8-1.1
		c-0.9-0.2-1.4-0.4-1.7-0.6c-0.3-0.2-0.4-0.5-0.4-0.9c0-0.4,0.2-0.7,0.5-1c0.3-0.3,0.8-0.4,1.4-0.4c0.4,0,0.8,0.1,1.1,0.2
		c0.3,0.1,0.6,0.3,0.8,0.5l0.3,1.2h1.4L764.1,815.4z M752.3,816.4c0.4,0.5,0.6,1.1,0.6,1.8v0.2h-4.6l0,0c0.1-0.8,0.4-1.4,0.8-1.9
		c0.4-0.5,1-0.8,1.6-0.8C751.3,815.7,751.9,815.9,752.3,816.4z M753,824.3c0.6-0.2,1.1-0.5,1.4-0.9l-0.7-1.2
		c-0.3,0.3-0.7,0.6-1.2,0.7c-0.5,0.2-1,0.3-1.6,0.3c-0.8,0-1.5-0.3-2-0.9c-0.5-0.6-0.7-1.4-0.7-2.4l0,0h6.5v-1.1
		c0-1.4-0.3-2.4-1-3.3c-0.7-0.8-1.7-1.2-3.1-1.2c-1.2,0-2.2,0.5-3,1.4c-0.9,0.9-1.3,2.1-1.3,3.6v0.4c0,1.5,0.4,2.7,1.2,3.6
		c0.8,0.9,1.9,1.4,3.3,1.4C751.7,824.7,752.4,824.6,753,824.3z M743.4,810h-1.8v1.9h1.8V810z M740,824.5h4.9v-1.2l-1.5-0.3v-8.6H740
		v1.2l1.5,0.3v7.2l-1.5,0.3V824.5z M732.2,822.2c-0.4-0.7-0.6-1.5-0.6-2.6v-0.4c0-1,0.2-1.8,0.6-2.5c0.4-0.7,1.1-1,2.1-1
		c0.4,0,0.8,0.1,1.2,0.2c0.3,0.1,0.6,0.3,0.8,0.5l0.4,1.6h1.5l-0.1-2.2c-0.4-0.5-1-0.8-1.6-1.1c-0.6-0.3-1.4-0.4-2.2-0.4
		c-1.5,0-2.6,0.5-3.3,1.4c-0.8,1-1.2,2.1-1.2,3.6v0.4c0,1.4,0.4,2.6,1.2,3.6c0.8,1,1.9,1.4,3.3,1.4c1.1,0,2-0.3,2.8-1
		c0.8-0.7,1.2-1.4,1.2-2.3l0-0.1h-1.6c0,0.5-0.2,1-0.7,1.4c-0.5,0.4-1,0.6-1.6,0.6C733.3,823.3,732.6,822.9,732.2,822.2z
		 M717.4,824.5h4.9v-1.2l-1.5-0.3v-5.9c0.2-0.4,0.6-0.8,1-1c0.4-0.3,0.9-0.4,1.4-0.4c0.7,0,1.3,0.2,1.6,0.6s0.5,1,0.5,1.9v4.9
		l-1.5,0.3v1.2h4.9v-1.2l-1.5-0.3v-4.9c0-1.3-0.3-2.3-0.9-2.9c-0.6-0.6-1.4-1-2.5-1c-0.6,0-1.2,0.1-1.7,0.4
		c-0.5,0.3-0.9,0.7-1.3,1.2l-0.1-1.5h-3.1v1.2l1.5,0.3v7.2l-1.5,0.3V824.5z M713.4,816.4c0.4,0.5,0.6,1.1,0.6,1.8v0.2h-4.6l0,0
		c0.1-0.8,0.4-1.4,0.8-1.9c0.4-0.5,1-0.8,1.6-0.8C712.5,815.7,713.1,815.9,713.4,816.4z M714.1,824.3c0.6-0.2,1.1-0.5,1.4-0.9
		l-0.7-1.2c-0.3,0.3-0.7,0.6-1.2,0.7c-0.5,0.2-1,0.3-1.6,0.3c-0.8,0-1.5-0.3-2-0.9c-0.5-0.6-0.7-1.4-0.7-2.4l0,0h6.5v-1.1
		c0-1.4-0.3-2.4-1-3.3c-0.7-0.8-1.7-1.2-3.1-1.2c-1.2,0-2.2,0.5-3,1.4c-0.9,0.9-1.3,2.1-1.3,3.6v0.4c0,1.5,0.4,2.7,1.2,3.6
		c0.8,0.9,1.9,1.4,3.3,1.4C712.8,824.7,713.6,824.6,714.1,824.3z M703.2,824.5h2.8v-1.2l-1.2-0.3v-8.6H703h-1.3v1.2l1.3,0.3v5.8
		c-0.2,0.5-0.5,0.9-1,1.1c-0.4,0.3-1,0.4-1.6,0.4c-0.7,0-1.2-0.2-1.5-0.6c-0.3-0.4-0.5-1.1-0.5-2.2v-5.9h-1.8h-1.2v1.2l1.2,0.3v4.5
		c0,1.5,0.3,2.6,0.9,3.3c0.6,0.7,1.5,1,2.6,1c0.6,0,1.2-0.1,1.7-0.4s0.9-0.7,1.2-1.2L703.2,824.5z M687,819.7c0-1.2,0.2-2.1,0.6-2.8
		c0.4-0.7,1.1-1.1,1.9-1.1c0.5,0,0.9,0.1,1.3,0.3s0.7,0.5,0.9,0.9v5c-0.2,0.4-0.5,0.7-0.9,0.9c-0.4,0.2-0.8,0.3-1.3,0.3
		c-0.9,0-1.5-0.3-1.9-0.9c-0.4-0.6-0.6-1.4-0.6-2.5V819.7z M685.2,819.8c0,1.4,0.3,2.6,1,3.5c0.7,0.9,1.6,1.3,2.9,1.3
		c0.6,0,1.1-0.1,1.5-0.3s0.8-0.5,1.1-0.9v3.4l-1.5,0.3v1.2h4.9v-1.2l-1.5-0.3v-12.5H692l-0.1,1.1c-0.3-0.4-0.7-0.7-1.2-1
		c-0.5-0.2-1-0.3-1.6-0.3c-1.2,0-2.2,0.5-2.9,1.5c-0.7,1-1,2.3-1,3.9V819.8z M681,816.4c0.4,0.5,0.6,1.1,0.6,1.8v0.2h-4.6l0,0
		c0.1-0.8,0.4-1.4,0.8-1.9c0.4-0.5,1-0.8,1.6-0.8C680,815.7,680.6,815.9,681,816.4z M681.7,824.3c0.6-0.2,1.1-0.5,1.4-0.9l-0.7-1.2
		c-0.3,0.3-0.7,0.6-1.2,0.7c-0.5,0.2-1,0.3-1.6,0.3c-0.8,0-1.5-0.3-2-0.9c-0.5-0.6-0.7-1.4-0.7-2.4l0,0h6.5v-1.1
		c0-1.4-0.3-2.4-1-3.3c-0.7-0.8-1.7-1.2-3.1-1.2c-1.2,0-2.2,0.5-3,1.4c-0.9,0.9-1.3,2.1-1.3,3.6v0.4c0,1.5,0.4,2.7,1.2,3.6
		c0.8,0.9,1.9,1.4,3.3,1.4C680.4,824.7,681.1,824.6,681.7,824.3z M668.8,815.9v7.2l-1.5,0.3v1.2h4.9v-1.2l-1.5-0.3v-5.8
		c0.2-0.4,0.4-0.7,0.8-1c0.3-0.2,0.7-0.3,1.2-0.3l1,0.1l0.2-1.7c-0.1,0-0.2,0-0.3-0.1c-0.2,0-0.3,0-0.4,0c-0.5,0-1,0.1-1.4,0.4
		c-0.4,0.3-0.8,0.7-1.1,1.2l-0.2-1.5h-3.1v1.2L668.8,815.9z M661.9,815.8v7.3l-1.5,0.3v1.2h4.9v-1.2l-1.5-0.3v-7.3h2.1v-1.4h-2.1
		v-1.3c0-0.6,0.1-1.1,0.4-1.4c0.3-0.3,0.7-0.5,1.2-0.5c0.2,0,0.3,0,0.5,0c0.2,0,0.3,0,0.4,0.1l0.2-1.4c-0.3-0.1-0.5-0.1-0.7-0.1
		c-0.2,0-0.4-0.1-0.6-0.1c-1,0-1.8,0.3-2.3,0.9c-0.6,0.6-0.8,1.4-0.8,2.5v1.3h-1.6v1.4H661.9z M650.4,815.8v7.3l-1.5,0.3v1.2h4.9
		v-1.2l-1.5-0.3v-7.3h2.1v-1.4h-2.1v-1.3c0-0.6,0.1-1.1,0.4-1.4c0.3-0.3,0.7-0.5,1.2-0.5c0.2,0,0.3,0,0.5,0c0.2,0,0.3,0,0.4,0.1
		l0.2-1.4c-0.3-0.1-0.5-0.1-0.7-0.1c-0.2,0-0.4-0.1-0.6-0.1c-1,0-1.8,0.3-2.3,0.9c-0.6,0.6-0.8,1.4-0.8,2.5v1.3h-1.6v1.4H650.4z
		 M640.2,819.4c0-1.1,0.2-1.9,0.7-2.6c0.4-0.7,1.1-1,2-1c0.9,0,1.5,0.3,2,1c0.5,0.7,0.7,1.6,0.7,2.6v0.2c0,1.1-0.2,1.9-0.7,2.6
		c-0.5,0.7-1.1,1-2,1c-0.9,0-1.6-0.3-2-1c-0.4-0.7-0.7-1.6-0.7-2.6V819.4z M638.4,819.6c0,1.5,0.4,2.7,1.2,3.7
		c0.8,1,1.9,1.4,3.3,1.4c1.4,0,2.5-0.5,3.3-1.4c0.8-1,1.2-2.2,1.2-3.7v-0.2c0-1.5-0.4-2.7-1.2-3.7c-0.8-1-1.9-1.4-3.3-1.4
		c-1.4,0-2.5,0.5-3.3,1.4c-0.8,1-1.2,2.2-1.2,3.7V819.6z"/>
	<polyline class="st1" points="700,722.3 700,724.6 702.9,724.6 702.9,722.3 	"/>
	<path class="st1" d="M700,745.2v4.1h2.9v-4.1H700z M700,737v4.1h2.9V737H700z M700,728.7v4.1h2.9v-4.1H700z"/>
	<polyline class="st1" points="700,753.4 700,755.8 702.9,755.8 702.9,753.4 	"/>
	<path class="st1" d="M701.5,764.4c-1.5-4.1-4.1-9.1-6.8-12.3l6.8,2.5l6.8-2.5C705.5,755.3,703,760.4,701.5,764.4z"/>
	<rect x="572.5" y="640.3" class="st0" width="257.9" height="81.9"/>
	<polygon class="st1" points="830.4,722.3 830.4,720.6 574.1,720.6 574.1,642 828.8,642 828.8,722.3 830.4,722.3 830.4,720.6 
		830.4,722.3 832.1,722.3 832.1,638.7 570.9,638.7 570.9,723.9 832.1,723.9 832.1,722.3 	"/>
	<path class="st2" d="M761.7,665.9v2.4h-1.6v1.4h1.6v6.1c0,1,0.2,1.7,0.7,2.1c0.4,0.4,1,0.7,1.8,0.7c0.3,0,0.7,0,1-0.1
		c0.3-0.1,0.6-0.2,0.8-0.3l-0.3-1.3c-0.1,0-0.3,0.1-0.5,0.1c-0.2,0-0.4,0-0.5,0c-0.3,0-0.6-0.1-0.8-0.3c-0.2-0.2-0.3-0.5-0.3-1v-6.1
		h1.9v-1.4h-1.9v-2.4H761.7z M758.2,669.3c-0.4-0.4-0.9-0.6-1.5-0.8c-0.6-0.2-1.3-0.3-2.1-0.3c-1.1,0-2,0.3-2.7,0.9
		c-0.7,0.6-1,1.3-1,2.1c0,0.8,0.3,1.4,0.9,1.9c0.6,0.5,1.5,0.8,2.8,1.1c0.9,0.2,1.4,0.4,1.7,0.7c0.3,0.3,0.5,0.6,0.5,1
		c0,0.4-0.2,0.8-0.6,1c-0.4,0.3-0.9,0.4-1.5,0.4c-0.4,0-0.7,0-1.1-0.1c-0.4-0.1-0.6-0.2-0.9-0.4l-0.3-1.3H751l0,2.3
		c0.5,0.3,1,0.6,1.6,0.8c0.6,0.2,1.3,0.3,2.1,0.3c1.2,0,2.1-0.3,2.8-0.8c0.7-0.6,1.1-1.3,1.1-2.2c0-0.8-0.3-1.4-0.9-1.9
		c-0.6-0.5-1.6-0.8-2.8-1.1c-0.9-0.2-1.4-0.4-1.7-0.6c-0.3-0.2-0.4-0.5-0.4-0.9c0-0.4,0.2-0.7,0.5-1c0.3-0.3,0.8-0.4,1.4-0.4
		c0.4,0,0.8,0.1,1.1,0.2c0.3,0.1,0.6,0.3,0.8,0.5l0.3,1.2h1.4L758.2,669.3z M744.3,669.8v7.2l-1.5,0.3v1.2h4.9v-1.2l-1.5-0.3v-5.8
		c0.2-0.4,0.4-0.7,0.8-1c0.3-0.2,0.7-0.3,1.2-0.3l1,0.1l0.2-1.7c-0.1,0-0.2,0-0.3-0.1c-0.2,0-0.3,0-0.4,0c-0.5,0-1,0.1-1.4,0.4
		c-0.4,0.3-0.8,0.7-1.1,1.2l-0.2-1.5h-3.1v1.2L744.3,669.8z M732.4,669.7v7.3l-1.5,0.3v1.2h4.9v-1.2l-1.5-0.3v-7.3h3.9v7.3l-1.5,0.3
		v1.2h4.9v-1.2l-1.5-0.3v-8.6h-5.7v-1.1c0-0.7,0.2-1.2,0.5-1.5c0.3-0.3,0.8-0.5,1.6-0.5c0.4,0,0.8,0,1.1,0.1s0.7,0.2,1,0.3l0.3-1.5
		c-0.5-0.2-1-0.3-1.4-0.4c-0.4-0.1-0.8-0.1-1.2-0.1c-1.2,0-2.1,0.3-2.7,0.9c-0.7,0.6-1,1.5-1,2.6v1.1h-1.6v1.4H732.4z M722.3,670.3
		c0.4,0.5,0.6,1.1,0.6,1.8v0.2h-4.6l0,0c0.1-0.8,0.4-1.4,0.8-1.9c0.4-0.5,1-0.8,1.6-0.8C721.4,669.6,722,669.8,722.3,670.3z
		 M723,678.2c0.6-0.2,1.1-0.5,1.4-0.9l-0.7-1.2c-0.3,0.3-0.7,0.6-1.2,0.7c-0.5,0.2-1,0.3-1.6,0.3c-0.8,0-1.5-0.3-2-0.9
		c-0.5-0.6-0.7-1.4-0.7-2.4l0,0h6.5v-1.1c0-1.4-0.3-2.4-1-3.3c-0.7-0.8-1.7-1.2-3.1-1.2c-1.2,0-2.2,0.5-3,1.4
		c-0.9,0.9-1.3,2.1-1.3,3.6v0.4c0,1.5,0.4,2.7,1.2,3.6c0.8,0.9,1.9,1.4,3.3,1.4C721.7,678.6,722.5,678.5,723,678.2z M703.9,678.4
		h4.9v-1.2l-1.5-0.3v-6c0.3-0.4,0.6-0.7,1-1c0.4-0.2,0.9-0.4,1.4-0.4c0.7,0,1.2,0.2,1.6,0.6c0.4,0.4,0.5,1,0.5,1.8v4.9l-1.5,0.3v1.2
		h4.9v-1.2l-1.5-0.3v-4.9c0-1.3-0.3-2.3-0.9-3c-0.6-0.6-1.4-1-2.5-1c-0.6,0-1.2,0.1-1.7,0.4c-0.5,0.3-0.9,0.6-1.3,1.1v-5.8h-3.3v1.2
		l1.5,0.3v11.6l-1.5,0.3V678.4z M698.6,665.9v2.4H697v1.4h1.6v6.1c0,1,0.2,1.7,0.7,2.1c0.4,0.4,1,0.7,1.8,0.7c0.3,0,0.7,0,1-0.1
		c0.3-0.1,0.6-0.2,0.8-0.3l-0.3-1.3c-0.1,0-0.3,0.1-0.5,0.1c-0.2,0-0.4,0-0.5,0c-0.3,0-0.6-0.1-0.8-0.3c-0.2-0.2-0.3-0.5-0.3-1v-6.1
		h1.9v-1.4h-1.9v-2.4H698.6z M686.9,665.9v2.4h-1.6v1.4h1.6v6.1c0,1,0.2,1.7,0.7,2.1c0.4,0.4,1,0.7,1.8,0.7c0.3,0,0.7,0,1-0.1
		c0.3-0.1,0.6-0.2,0.8-0.3l-0.3-1.3c-0.1,0-0.3,0.1-0.5,0.1c-0.2,0-0.4,0-0.5,0c-0.3,0-0.6-0.1-0.8-0.3c-0.2-0.2-0.3-0.5-0.3-1v-6.1
		h1.9v-1.4h-1.9v-2.4H686.9z M677.7,676.1c-0.4-0.7-0.6-1.5-0.6-2.6v-0.4c0-1,0.2-1.8,0.6-2.5c0.4-0.7,1.1-1,2.1-1
		c0.4,0,0.8,0.1,1.2,0.2c0.3,0.1,0.6,0.3,0.8,0.5l0.4,1.6h1.5l-0.1-2.2c-0.4-0.5-1-0.8-1.6-1.1c-0.6-0.3-1.4-0.4-2.2-0.4
		c-1.5,0-2.6,0.5-3.3,1.4c-0.8,1-1.2,2.1-1.2,3.6v0.4c0,1.4,0.4,2.6,1.2,3.6c0.8,1,1.9,1.4,3.3,1.4c1.1,0,2-0.3,2.8-1
		c0.8-0.7,1.2-1.4,1.2-2.3l0-0.1h-1.6c0,0.5-0.2,1-0.7,1.4c-0.5,0.4-1,0.6-1.6,0.6C678.8,677.1,678.1,676.8,677.7,676.1z
		 M671.1,670.3c0.4,0.5,0.6,1.1,0.6,1.8v0.2H667l0,0c0.1-0.8,0.4-1.4,0.8-1.9c0.4-0.5,1-0.8,1.6-0.8
		C670.1,669.6,670.7,669.8,671.1,670.3z M671.8,678.2c0.6-0.2,1.1-0.5,1.4-0.9l-0.7-1.2c-0.3,0.3-0.7,0.6-1.2,0.7
		c-0.5,0.2-1,0.3-1.6,0.3c-0.8,0-1.5-0.3-2-0.9c-0.5-0.6-0.7-1.4-0.7-2.4l0,0h6.5v-1.1c0-1.4-0.3-2.4-1-3.3
		c-0.7-0.8-1.7-1.2-3.1-1.2c-1.2,0-2.2,0.5-3,1.4c-0.9,0.9-1.3,2.1-1.3,3.6v0.4c0,1.5,0.4,2.7,1.2,3.6c0.8,0.9,1.9,1.4,3.3,1.4
		C670.5,678.6,671.2,678.5,671.8,678.2z M660.3,665.3v11.6l-1.5,0.3v1.2h4.9v-1.2l-1.5-0.3v-13h-3.3v1.2L660.3,665.3z M654.9,670.3
		c0.4,0.5,0.6,1.1,0.6,1.8v0.2h-4.6l0,0c0.1-0.8,0.4-1.4,0.8-1.9c0.4-0.5,1-0.8,1.6-0.8C653.9,669.6,654.5,669.8,654.9,670.3z
		 M655.6,678.2c0.6-0.2,1.1-0.5,1.4-0.9l-0.7-1.2c-0.3,0.3-0.7,0.6-1.2,0.7c-0.5,0.2-1,0.3-1.6,0.3c-0.8,0-1.5-0.3-2-0.9
		c-0.5-0.6-0.7-1.4-0.7-2.4l0,0h6.5v-1.1c0-1.4-0.3-2.4-1-3.3c-0.7-0.8-1.7-1.2-3.1-1.2c-1.2,0-2.2,0.5-3,1.4
		c-0.9,0.9-1.3,2.1-1.3,3.6v0.4c0,1.5,0.4,2.7,1.2,3.6c0.8,0.9,1.9,1.4,3.3,1.4C654.3,678.6,655,678.5,655.6,678.2z M646.9,666.3
		c-0.5-0.5-1.1-0.9-1.9-1.2c-0.8-0.3-1.6-0.5-2.6-0.5c-1.4,0-2.6,0.4-3.5,1.1c-0.9,0.7-1.3,1.6-1.3,2.6c0,1,0.4,1.8,1.2,2.5
		c0.8,0.7,1.9,1.2,3.3,1.5c1.2,0.3,2,0.6,2.5,1.1c0.5,0.4,0.7,0.9,0.7,1.6c0,0.7-0.3,1.2-0.8,1.6s-1.3,0.6-2.2,0.6
		c-0.7,0-1.3-0.1-1.8-0.3c-0.5-0.2-0.9-0.4-1.3-0.7l-0.4-1.9h-1.4v2.5c0.5,0.6,1.2,1,2,1.3c0.8,0.3,1.7,0.5,2.8,0.5
		c1.4,0,2.6-0.3,3.5-1c0.9-0.7,1.3-1.5,1.3-2.6c0-1-0.4-1.9-1.1-2.6s-1.8-1.2-3.2-1.6c-1.2-0.3-2-0.6-2.6-1
		c-0.5-0.4-0.8-0.9-0.8-1.5c0-0.7,0.3-1.2,0.8-1.6c0.5-0.4,1.3-0.6,2.2-0.6c0.6,0,1.2,0.1,1.6,0.2c0.5,0.2,0.8,0.3,1.1,0.6l0.3,1.9
		h1.4V666.3z"/>
	<path class="st2" d="M755.2,691.3c-0.4-0.4-0.9-0.6-1.5-0.8c-0.6-0.2-1.3-0.3-2.1-0.3c-1.1,0-2,0.3-2.7,0.9c-0.7,0.6-1,1.3-1,2.1
		c0,0.8,0.3,1.4,0.9,1.9c0.6,0.5,1.5,0.8,2.8,1.1c0.9,0.2,1.4,0.4,1.7,0.7c0.3,0.3,0.5,0.6,0.5,1c0,0.4-0.2,0.8-0.6,1
		c-0.4,0.3-0.9,0.4-1.5,0.4c-0.4,0-0.7,0-1.1-0.1c-0.4-0.1-0.6-0.2-0.9-0.4l-0.3-1.3H748l0,2.3c0.5,0.3,1,0.6,1.6,0.8
		c0.6,0.2,1.3,0.3,2.1,0.3c1.2,0,2.1-0.3,2.8-0.8c0.7-0.6,1.1-1.3,1.1-2.2c0-0.8-0.3-1.4-0.9-1.9c-0.6-0.5-1.6-0.8-2.8-1.1
		c-0.9-0.2-1.4-0.4-1.7-0.6c-0.3-0.2-0.4-0.5-0.4-0.9c0-0.4,0.2-0.7,0.5-1c0.3-0.3,0.8-0.4,1.4-0.4c0.4,0,0.8,0.1,1.1,0.2
		c0.3,0.1,0.6,0.3,0.8,0.5l0.3,1.2h1.4L755.2,691.3z M738,695.5c0-1.2,0.2-2.1,0.6-2.8c0.4-0.7,1.1-1.1,1.9-1.1c0.5,0,1,0.1,1.4,0.4
		c0.4,0.2,0.7,0.6,0.9,1v4.7c-0.2,0.5-0.5,0.8-0.9,1c-0.4,0.2-0.8,0.4-1.4,0.4c-0.9,0-1.5-0.3-1.9-0.9s-0.6-1.4-0.6-2.4V695.5z
		 M743.1,700.4h3.1v-1.2l-1.5-0.3v-13h-1.8h-1.5v1.2l1.5,0.3v4.1c-0.3-0.4-0.7-0.7-1.2-1c-0.5-0.2-1-0.3-1.6-0.3
		c-1.2,0-2.2,0.5-2.9,1.5c-0.7,1-1,2.3-1,3.9v0.2c0,1.4,0.3,2.6,1,3.5c0.7,0.9,1.6,1.3,2.9,1.3c0.6,0,1.2-0.1,1.6-0.4
		c0.5-0.2,0.9-0.6,1.2-1L743.1,700.4z M730,691.8v7.2l-1.5,0.3v1.2h4.9v-1.2l-1.5-0.3v-5.8c0.2-0.4,0.4-0.7,0.8-1
		c0.3-0.2,0.7-0.3,1.2-0.3l1,0.1l0.2-1.7c-0.1,0-0.2,0-0.3-0.1c-0.2,0-0.3,0-0.4,0c-0.5,0-1,0.1-1.4,0.4c-0.4,0.3-0.8,0.7-1.1,1.2
		l-0.2-1.5h-3.1v1.2L730,691.8z M719.7,695.3c0-1.1,0.2-1.9,0.7-2.6c0.4-0.7,1.1-1,2-1c0.9,0,1.5,0.3,2,1c0.5,0.7,0.7,1.6,0.7,2.6
		v0.2c0,1.1-0.2,1.9-0.7,2.6c-0.5,0.7-1.1,1-2,1c-0.9,0-1.6-0.3-2-1c-0.4-0.7-0.7-1.6-0.7-2.6V695.3z M717.8,695.5
		c0,1.5,0.4,2.7,1.2,3.7c0.8,1,1.9,1.4,3.3,1.4c1.4,0,2.5-0.5,3.3-1.4c0.8-1,1.2-2.2,1.2-3.7v-0.2c0-1.5-0.4-2.7-1.2-3.7
		c-0.8-1-1.9-1.4-3.3-1.4c-1.4,0-2.5,0.5-3.3,1.4c-0.8,1-1.2,2.2-1.2,3.7V695.5z M705.7,690.3h-3.8v1.2l0.9,0.1l2.5,8.7h1.5l1.9-6.1
		l0.4-1.7l0.1,0l0.4,1.7l1.9,6.1h1.5l2.5-8.7l0.9-0.1v-1.2h-3.8v1.2l1.2,0.2l-1.2,5l-0.3,1.4h-0.1l-0.3-1.4l-2-6.4h-1.5l-2,6.4
		l-0.3,1.2h-0.1l-0.2-1.2l-1.3-5l1.2-0.2V690.3z M700.9,690.3h-4v1.2l1.1,0.2l-2.1,6.2h-0.1l-0.3-1.3l-1.7-5l1.1-0.2v-1.2h-4.1v1.2
		l0.9,0.1l3.3,8.5l-0.4,1c-0.2,0.4-0.4,0.8-0.6,1.2c-0.2,0.3-0.6,0.5-0.9,0.5c-0.1,0-0.2,0-0.5,0s-0.4,0-0.3,0l-0.2,1.4
		c0.1,0,0.3,0.1,0.5,0.1c0.2,0,0.4,0.1,0.6,0.1c0.8,0,1.4-0.3,1.9-0.8s0.8-1.1,1.1-1.8l3.8-10.3l0.9-0.1V690.3z M687.3,692.3
		c0.4,0.5,0.6,1.1,0.6,1.8v0.2h-4.6l0,0c0.1-0.8,0.4-1.4,0.8-1.9c0.4-0.5,1-0.8,1.6-0.8C686.3,691.6,686.9,691.8,687.3,692.3z
		 M688,700.2c0.6-0.2,1.1-0.5,1.4-0.9l-0.7-1.2c-0.3,0.3-0.7,0.6-1.2,0.7c-0.5,0.2-1,0.3-1.6,0.3c-0.8,0-1.5-0.3-2-0.9
		c-0.5-0.6-0.7-1.4-0.7-2.4l0,0h6.5v-1.1c0-1.4-0.3-2.4-1-3.3c-0.7-0.8-1.7-1.2-3.1-1.2c-1.2,0-2.2,0.5-3,1.4
		c-0.9,0.9-1.3,2.1-1.3,3.6v0.4c0,1.5,0.4,2.7,1.2,3.6c0.8,0.9,1.9,1.4,3.3,1.4C686.7,700.6,687.4,700.5,688,700.2z M671.1,687.3
		v11.6l-1.5,0.3v1.2h4.9v-1.2l-1.5-0.3v-3.2h1.2l2.7,3.3l-0.9,0.1v1.2h4.2v-1.2l-1.1-0.2l-3.2-4.1l2.6-3.2l1.2-0.2v-1.2h-4.2v1.2
		l0.9,0.1l-2.1,2.7H673v-8.4h-3.3v1.2L671.1,687.3z M663.3,689.5v-2.7h-7.1l-0.8,7.4l1.5,0.2c0.1-0.4,0.4-0.8,0.7-1
		c0.3-0.2,0.8-0.3,1.6-0.3c0.8,0,1.4,0.3,1.8,0.8c0.4,0.6,0.6,1.3,0.6,2.1c0,0.9-0.2,1.7-0.6,2.2c-0.4,0.5-1,0.8-1.8,0.8
		c-0.7,0-1.2-0.2-1.6-0.6s-0.6-1-0.6-1.7h-1.7l0,0.1c0,1.2,0.3,2.1,1.1,2.8c0.8,0.6,1.7,0.9,2.9,0.9c1.4,0,2.5-0.4,3.2-1.2
		c0.7-0.8,1.1-1.9,1.1-3.3c0-1.4-0.4-2.5-1.1-3.3c-0.7-0.8-1.7-1.2-2.9-1.2c-0.5,0-0.9,0.1-1.2,0.2c-0.3,0.1-0.7,0.3-0.9,0.5
		l0.4-3.8h4l0.2,1H663.3z M647.6,700.4h6v-1.2l-2.1-0.3v-12.1l-4,0.9v1.1l2.1,0v10.1l-2.1,0.3V700.4z"/>
	<polyline class="st1" points="500.8,177.7 500.8,180.1 503.7,180.1 503.7,177.7 	"/>
	<path class="st1" d="M500.8,322.3v4.9h2.9v-4.9H500.8z M500.8,312.5v4.9h2.9v-4.9H500.8z M500.8,302.7v4.9h2.9v-4.9H500.8z
		 M500.8,292.9v4.9h2.9v-4.9H500.8z M500.8,283.1v4.9h2.9v-4.9H500.8z M500.8,273.3v4.9h2.9v-4.9H500.8z M500.8,263.5v4.9h2.9v-4.9
		H500.8z M500.8,253.6v4.9h2.9v-4.9H500.8z M500.8,243.8v4.9h2.9v-4.9H500.8z M500.8,234v4.9h2.9V234H500.8z M500.8,224.2v4.9h2.9
		v-4.9H500.8z M500.8,214.4v4.9h2.9v-4.9H500.8z M500.8,204.6v4.9h2.9v-4.9H500.8z M500.8,194.8v4.9h2.9v-4.9H500.8z M500.8,185v4.9
		h2.9V185H500.8z"/>
	<polygon class="st1" points="500.8,332.1 500.8,335.4 503.8,336.9 505,334.3 503.7,333.6 503.7,332.1 500.8,332.1 	"/>
	<path class="st1" d="M553,360.7l4.5,2.2l1.3-2.6l-4.5-2.2L553,360.7z M544,356.3l4.5,2.2l1.3-2.6l-4.5-2.2L544,356.3z M535.1,352
		l4.5,2.2l1.3-2.6l-4.5-2.2L535.1,352z M526.1,347.7l4.5,2.2l1.3-2.6l-4.5-2.2L526.1,347.7z M517.2,343.3l4.5,2.2l1.3-2.6l-4.5-2.2
		L517.2,343.3z M508.3,339l4.5,2.2l1.3-2.6l-4.5-2.2L508.3,339z"/>
	<polyline class="st1" points="561.9,365 564.1,366 565.3,363.5 563.2,362.4 	"/>
	<path class="st1" d="M572.5,368.5c-4.3-0.4-10-0.3-14,0.8l5.2-5.1l0.8-7.2C566.1,360.9,569.5,365.4,572.5,368.5z"/>
	<polyline class="st1" points="629.2,177.7 629.2,180.1 632.1,180.1 632.1,177.7 	"/>
	<path class="st1" d="M629.2,347.9v4.8h2.9v-4.8H629.2z M629.2,338.3v4.8h2.9v-4.8H629.2z M629.2,328.7v4.8h2.9v-4.8H629.2z
		 M629.2,319.1v4.8h2.9v-4.8H629.2z M629.2,309.5v4.8h2.9v-4.8H629.2z M629.2,299.9v4.8h2.9v-4.8H629.2z M629.2,290.3v4.8h2.9v-4.8
		H629.2z M629.2,280.7v4.8h2.9v-4.8H629.2z M629.2,271.2v4.8h2.9v-4.8H629.2z M629.2,261.6v4.8h2.9v-4.8H629.2z M629.2,252v4.8h2.9
		V252H629.2z M629.2,242.4v4.8h2.9v-4.8H629.2z M629.2,232.8v4.8h2.9v-4.8H629.2z M629.2,223.2v4.8h2.9v-4.8H629.2z M629.2,213.6
		v4.8h2.9v-4.8H629.2z M629.2,204v4.8h2.9V204H629.2z M629.2,194.4v4.8h2.9v-4.8H629.2z M629.2,184.9v4.8h2.9v-4.8H629.2z"/>
	<polyline class="st1" points="629.2,357.5 629.2,359.9 632.1,359.9 632.1,357.5 	"/>
	<path class="st1" d="M630.7,368.5c-1.5-4.1-4.1-9.1-6.8-12.3l6.8,2.5l6.8-2.5C634.8,359.4,632.2,364.4,630.7,368.5z"/>
	<polyline class="st1" points="757.6,177.7 757.6,180.1 760.5,180.1 760.5,177.7 	"/>
	<path class="st1" d="M757.6,347.9v4.8h2.9v-4.8H757.6z M757.6,338.3v4.8h2.9v-4.8H757.6z M757.6,328.7v4.8h2.9v-4.8H757.6z
		 M757.6,319.1v4.8h2.9v-4.8H757.6z M757.6,309.5v4.8h2.9v-4.8H757.6z M757.6,299.9v4.8h2.9v-4.8H757.6z M757.6,290.3v4.8h2.9v-4.8
		H757.6z M757.6,280.7v4.8h2.9v-4.8H757.6z M757.6,271.2v4.8h2.9v-4.8H757.6z M757.6,261.6v4.8h2.9v-4.8H757.6z M757.6,252v4.8h2.9
		V252H757.6z M757.6,242.4v4.8h2.9v-4.8H757.6z M757.6,232.8v4.8h2.9v-4.8H757.6z M757.6,223.2v4.8h2.9v-4.8H757.6z M757.6,213.6
		v4.8h2.9v-4.8H757.6z M757.6,204v4.8h2.9V204H757.6z M757.6,194.4v4.8h2.9v-4.8H757.6z M757.6,184.9v4.8h2.9v-4.8H757.6z"/>
	<polyline class="st1" points="757.6,357.5 757.6,359.9 760.5,359.9 760.5,357.5 	"/>
	<path class="st1" d="M759.1,368.5c-1.5-4.1-4.1-9.1-6.8-12.3l6.8,2.5l6.8-2.5C763.2,359.4,760.6,364.4,759.1,368.5z"/>
	<polyline class="st1" points="886.1,177.7 886.1,180.1 888.9,180.1 888.9,177.7 	"/>
	<path class="st1" d="M886.1,321.7v4.9h2.9v-4.9H886.1z M886.1,311.9v4.9h2.9v-4.9H886.1z M886.1,302.2v4.9h2.9v-4.9H886.1z
		 M886.1,292.4v4.9h2.9v-4.9H886.1z M886.1,282.6v4.9h2.9v-4.9H886.1z M886.1,272.9v4.9h2.9v-4.9H886.1z M886.1,263.1v4.9h2.9v-4.9
		H886.1z M886.1,253.3v4.9h2.9v-4.9H886.1z M886.1,243.5v4.9h2.9v-4.9H886.1z M886.1,233.8v4.9h2.9v-4.9H886.1z M886.1,224v4.9h2.9
		V224H886.1z M886.1,214.2v4.9h2.9v-4.9H886.1z M886.1,204.5v4.9h2.9v-4.9H886.1z M886.1,194.7v4.9h2.9v-4.9H886.1z M886.1,184.9
		v4.9h2.9v-4.9H886.1z"/>
	<polygon class="st1" points="886.1,331.5 886.1,333 884.7,333.9 886.2,336.3 888.9,334.7 888.9,331.5 886.1,331.5 	"/>
	<path class="st1" d="M847.4,356.5l-4.1,2.5l1.5,2.5l4.1-2.5L847.4,356.5z M855.7,351.5l-4.1,2.5l1.5,2.5l4.1-2.5L855.7,351.5z
		 M864,346.5l-4.1,2.5l1.5,2.5l4.1-2.5L864,346.5z M872.3,341.4l-4.1,2.5l1.5,2.5l4.1-2.5L872.3,341.4z M880.6,336.4l-4.1,2.5
		l1.5,2.5l4.1-2.5L880.6,336.4z"/>
	<polyline class="st1" points="839.1,361.6 837.1,362.8 838.6,365.2 840.6,364 	"/>
	<path class="st1" d="M830.4,368.5c2.7-3.4,5.7-8.2,6.9-12.2l1.4,7.1l5.7,4.6C840.3,367.3,834.7,367.7,830.4,368.5z"/>
	<path d="M953.2,78.6v5.1h2.1v-5.1H953.2z M953.2,68.4v5.1h2.1v-5.1H953.2z M953.2,58.2v5.1h2.1v-5.1H953.2z M953.2,48.1v5.1h2.1
		v-5.1H953.2z M953.2,37.9V43h2.1v-5.1H953.2z M947.1,35.9h5.1v-2.1h-5.1V35.9z M937,35.9h5.1v-2.1H937V35.9z M926.8,35.9h5.1v-2.1
		h-5.1V35.9z M916.6,35.9h5.1v-2.1h-5.1V35.9z M906.5,35.9h5.1v-2.1h-5.1V35.9z M896.3,35.9h5.1v-2.1h-5.1V35.9z M886.2,35.9h5.1
		v-2.1h-5.1V35.9z M876,35.9h5.1v-2.1H876V35.9z"/>
	<path d="M525.7,35.9h3.6v-2.1h-3.6V35.9z M515.6,35.9h5.1v-2.1h-5.1V35.9z M505.4,35.9h5.1v-2.1h-5.1V35.9z M495.3,35.9h5.1v-2.1
		h-5.1V35.9z M485.1,35.9h5.1v-2.1h-5.1V35.9z M474.9,35.9h5.1v-2.1h-5.1V35.9z M464.8,35.9h5.1v-2.1h-5.1V35.9z M454.6,35.9h5.1
		v-2.1h-5.1V35.9z M444.4,35.9h5.1v-2.1h-5.1V35.9z M436.8,36.3v-0.4h2.5v-2.1l-4.7,0v2.5L436.8,36.3L436.8,36.3z M436.8,46.5v-5.1
		h-2.1v5.1H436.8z M436.8,56.7v-5.1h-2.1v5.1H436.8z M436.8,66.8v-5.1h-2.1v5.1H436.8z M436.8,77v-5.1h-2.1V77H436.8z M436.8,87.1
		v-5.1h-2.1v5.1H436.8z"/>
	<path d="M507.6,113.1h1.4c0-8.8-7.1-15.9-15.9-15.9c-8.8,0-15.9,7.1-15.9,15.9c0,8.8,7.1,15.9,15.9,15.9c8.8,0,15.9-7.1,15.9-15.9
		H507.6h-1.4c0,3.6-1.5,6.9-3.8,9.2c-2.4,2.4-5.6,3.8-9.2,3.8c-3.6,0-6.9-1.5-9.2-3.8c-2.4-2.4-3.8-5.6-3.8-9.2
		c0-3.6,1.5-6.9,3.8-9.2c2.4-2.4,5.6-3.8,9.2-3.8c3.6,0,6.9,1.5,9.2,3.8c2.4,2.4,3.8,5.6,3.8,9.2H507.6z"/>
	<path d="M511.4,162.5h0.9c0-5.6-4.5-10.1-10.1-10.1c-5.6,0-10.1,4.5-10.1,10.1c0,5.6,4.5,10.1,10.1,10.1c5.6,0,10.1-4.5,10.1-10.1
		H511.4h-0.9c0,2.3-0.9,4.3-2.4,5.8c-1.5,1.5-3.5,2.4-5.8,2.4c-2.3,0-4.3-0.9-5.8-2.4c-1.5-1.5-2.4-3.5-2.4-5.8
		c0-2.3,0.9-4.3,2.4-5.8c1.5-1.5,3.5-2.4,5.8-2.4c2.3,0,4.3,0.9,5.8,2.4c1.5,1.5,2.4,3.5,2.4,5.8H511.4z"/>
	<path d="M544.4,113.1h0.9c0-5.6-4.5-10.1-10.1-10.1c-5.6,0-10.1,4.5-10.1,10.1c0,5.6,4.5,10.1,10.1,10.1c5.6,0,10.1-4.5,10.1-10.1
		H544.4h-0.9c0,2.3-0.9,4.3-2.4,5.8c-1.5,1.5-3.5,2.4-5.8,2.4c-2.3,0-4.3-0.9-5.8-2.4c-1.5-1.5-2.4-3.5-2.4-5.8
		c0-2.3,0.9-4.3,2.4-5.8c1.5-1.5,3.5-2.4,5.8-2.4c2.3,0,4.3,0.9,5.8,2.4c1.5,1.5,2.4,3.5,2.4,5.8H544.4z"/>
	<polyline points="492.2,127.8 497.7,153.5 499.5,153.2 494,127.4 	"/>
	<polyline points="507.6,114 526.1,114 526.1,112.2 507.6,112.2 	"/>
	<path class="st1" d="M521.2,71.5h1.5c0.7,0,1.2,0.2,1.6,0.5c0.4,0.3,0.5,0.9,0.5,1.6c0,0.6-0.2,1.1-0.5,1.4
		c-0.4,0.3-0.9,0.5-1.5,0.5c-0.6,0-1-0.2-1.4-0.5c-0.4-0.3-0.6-0.8-0.6-1.3h-2.6l0,0.1c0,1.2,0.4,2.2,1.3,2.8c0.9,0.7,2,1,3.2,1
		c1.4,0,2.6-0.4,3.5-1.1c0.9-0.7,1.3-1.7,1.3-2.9c0-0.7-0.2-1.4-0.6-1.9c-0.4-0.6-1-1-1.7-1.2c0.6-0.3,1.2-0.7,1.5-1.2
		c0.4-0.5,0.6-1.1,0.6-1.7c0-1.2-0.4-2.2-1.2-2.9c-0.8-0.7-1.9-1-3.3-1c-1.3,0-2.3,0.3-3.2,1s-1.3,1.6-1.2,2.6l0,0.1h2.6
		c0-0.5,0.2-0.9,0.5-1.2s0.8-0.4,1.3-0.4c0.6,0,1,0.2,1.3,0.5c0.3,0.3,0.5,0.8,0.5,1.3c0,0.6-0.2,1.1-0.5,1.4
		c-0.3,0.3-0.8,0.5-1.4,0.5h-1.5V71.5z M509.9,77.4h7.3v-1.6l-2.3-0.3V63.9l-5,0.9v1.5h2.3v9.1l-2.3,0.3V77.4z M505.8,72.4
		c0,1.1-0.2,1.9-0.5,2.4c-0.3,0.5-0.8,0.7-1.4,0.7c-0.6,0-1.1-0.2-1.4-0.7c-0.3-0.5-0.5-1.3-0.5-2.4v-3.5c0-1.1,0.2-1.9,0.5-2.4
		c0.3-0.5,0.8-0.7,1.4-0.7c0.6,0,1.1,0.2,1.4,0.7c0.3,0.5,0.5,1.3,0.5,2.4V72.4z M508.5,69.1c0-1.8-0.4-3.1-1.2-4.1
		c-0.8-0.9-1.9-1.4-3.3-1.4c-1.4,0-2.5,0.5-3.3,1.4c-0.8,0.9-1.2,2.3-1.2,4.1v3c0,1.8,0.4,3.1,1.2,4.1c0.8,0.9,1.9,1.4,3.3,1.4
		c1.4,0,2.5-0.5,3.3-1.4c0.8-0.9,1.2-2.3,1.2-4.1V69.1z M497.9,77.4V74h-2.1l-0.1,1.3h-3.5l0,0l2.4-2.6c1-1.1,1.8-2,2.2-2.7
		c0.4-0.7,0.7-1.4,0.7-2.3c0-1.2-0.4-2.2-1.2-2.9c-0.8-0.7-1.9-1.1-3.3-1.1c-1.4,0-2.5,0.4-3.4,1.3c-0.8,0.8-1.2,1.9-1.2,3.1l0,0.1
		h2.6c0-0.7,0.2-1.3,0.5-1.7c0.3-0.4,0.8-0.6,1.4-0.6c0.6,0,1,0.2,1.3,0.5c0.3,0.4,0.5,0.8,0.5,1.4c0,0.4-0.1,0.9-0.4,1.4
		c-0.3,0.5-0.7,1.1-1.3,1.8l-4.4,4.7v1.8H497.9z"/>
	<path d="M634.2,113.1h1.4c0-8.8-7.1-15.9-15.9-15.9c-8.8,0-15.9,7.1-15.9,15.9c0,8.8,7.1,15.9,15.9,15.9c8.8,0,15.9-7.1,15.9-15.9
		H634.2h-1.4c0,3.6-1.5,6.9-3.8,9.2c-2.4,2.4-5.6,3.8-9.2,3.8c-3.6,0-6.9-1.5-9.2-3.8c-2.4-2.4-3.8-5.6-3.8-9.2
		c0-3.6,1.5-6.9,3.8-9.2c2.4-2.4,5.6-3.8,9.2-3.8c3.6,0,6.9,1.5,9.2,3.8c2.4,2.4,3.8,5.6,3.8,9.2H634.2z"/>
	<path d="M638,162.5h0.9c0-5.6-4.5-10.1-10.1-10.1c-5.6,0-10.1,4.5-10.1,10.1c0,5.6,4.5,10.1,10.1,10.1c5.6,0,10.1-4.5,10.1-10.1
		H638h-0.9c0,2.3-0.9,4.3-2.4,5.8c-1.5,1.5-3.5,2.4-5.8,2.4c-2.3,0-4.3-0.9-5.8-2.4c-1.5-1.5-2.4-3.5-2.4-5.8c0-2.3,0.9-4.3,2.4-5.8
		c1.5-1.5,3.5-2.4,5.8-2.4c2.3,0,4.3,0.9,5.8,2.4c1.5,1.5,2.4,3.5,2.4,5.8H638z"/>
	<path d="M671,113.1h0.9c0-5.6-4.5-10.1-10-10.1c-5.6,0-10.1,4.5-10.1,10.1c0,5.6,4.5,10.1,10.1,10.1c5.6,0,10-4.5,10-10.1H671h-0.9
		c0,2.3-0.9,4.3-2.4,5.8c-1.5,1.5-3.5,2.4-5.8,2.4c-2.3,0-4.3-0.9-5.8-2.4c-1.5-1.5-2.4-3.5-2.4-5.8c0-2.3,0.9-4.3,2.4-5.8
		c1.5-1.5,3.5-2.4,5.8-2.4c2.3,0,4.3,0.9,5.8,2.4c1.5,1.5,2.4,3.5,2.4,5.8H671z"/>
	<polyline points="618.9,127.8 624.4,153.5 626.1,153.2 620.6,127.4 	"/>
	<polyline points="634.2,114 652.7,114 652.7,112.2 634.2,112.2 	"/>
	<path class="st1" d="M650,67.8l0.2-0.4l0.1,0v4.9h-3.1L650,67.8z M653,63.9h-2.7l-5.6,9l0.1,1.3h5.5v1.3l-1.4,0.3v1.6h5.6v-1.6
		l-1.4-0.3v-1.3h1.5v-1.8H653V63.9z M636.6,77.4h7.3v-1.6l-2.3-0.3V63.9l-5,0.9v1.5h2.3v9.1l-2.3,0.3V77.4z M632.4,72.4
		c0,1.1-0.2,1.9-0.5,2.4c-0.3,0.5-0.8,0.7-1.4,0.7c-0.6,0-1.1-0.2-1.4-0.7c-0.3-0.5-0.5-1.3-0.5-2.4v-3.5c0-1.1,0.2-1.9,0.5-2.4
		c0.3-0.5,0.8-0.7,1.4-0.7c0.6,0,1.1,0.2,1.4,0.7c0.3,0.5,0.5,1.3,0.5,2.4V72.4z M635.1,69.1c0-1.8-0.4-3.1-1.2-4.1
		c-0.8-0.9-1.9-1.4-3.3-1.4c-1.4,0-2.5,0.5-3.3,1.4c-0.8,0.9-1.2,2.3-1.2,4.1v3c0,1.8,0.4,3.1,1.2,4.1c0.8,0.9,1.9,1.4,3.3,1.4
		c1.4,0,2.5-0.5,3.3-1.4c0.8-0.9,1.2-2.3,1.2-4.1V69.1z M624.5,77.4V74h-2.1l-0.1,1.3h-3.5l0,0l2.4-2.6c1-1.1,1.8-2,2.2-2.7
		c0.4-0.7,0.7-1.4,0.7-2.3c0-1.2-0.4-2.2-1.2-2.9c-0.8-0.7-1.9-1.1-3.3-1.1c-1.4,0-2.5,0.4-3.4,1.3c-0.8,0.8-1.2,1.9-1.2,3.1l0,0.1
		h2.6c0-0.7,0.2-1.3,0.5-1.7c0.3-0.4,0.8-0.6,1.4-0.6c0.6,0,1,0.2,1.3,0.5c0.3,0.4,0.5,0.8,0.5,1.4c0,0.4-0.1,0.9-0.4,1.4
		c-0.3,0.5-0.7,1.1-1.3,1.8l-4.4,4.7v1.8H624.5z"/>
	<path d="M760.9,113.1h1.4c0-8.8-7.1-15.9-15.9-15.9c-8.8,0-15.9,7.1-15.9,15.9c0,8.8,7.1,15.9,15.9,15.9c8.8,0,15.9-7.1,15.9-15.9
		H760.9h-1.4c0,3.6-1.5,6.9-3.8,9.2c-2.4,2.4-5.6,3.8-9.2,3.8c-3.6,0-6.9-1.5-9.2-3.8c-2.4-2.4-3.8-5.6-3.8-9.2
		c0-3.6,1.5-6.9,3.8-9.2c2.4-2.4,5.6-3.8,9.2-3.8c3.6,0,6.9,1.5,9.2,3.8c2.4,2.4,3.8,5.6,3.8,9.2H760.9z"/>
	<path d="M764.7,162.5h0.9c0-5.6-4.5-10.1-10.1-10.1c-5.6,0-10,4.5-10,10.1c0,5.6,4.5,10.1,10,10.1c5.6,0,10.1-4.5,10.1-10.1H764.7
		h-0.9c0,2.3-0.9,4.3-2.4,5.8c-1.5,1.5-3.5,2.4-5.8,2.4c-2.3,0-4.3-0.9-5.8-2.4c-1.5-1.5-2.4-3.5-2.4-5.8c0-2.3,0.9-4.3,2.4-5.8
		c1.5-1.5,3.5-2.4,5.8-2.4c2.3,0,4.3,0.9,5.8,2.4c1.5,1.5,2.4,3.5,2.4,5.8H764.7z"/>
	<path d="M797.7,113.1h0.9c0-5.6-4.5-10.1-10-10.1c-5.6,0-10.1,4.5-10.1,10.1c0,5.6,4.5,10.1,10.1,10.1c5.6,0,10-4.5,10-10.1H797.7
		h-0.9c0,2.3-0.9,4.3-2.4,5.8c-1.5,1.5-3.5,2.4-5.8,2.4c-2.3,0-4.3-0.9-5.8-2.4c-1.5-1.5-2.4-3.5-2.4-5.8c0-2.3,0.9-4.3,2.4-5.8
		c1.5-1.5,3.5-2.4,5.8-2.4c2.3,0,4.3,0.9,5.8,2.4c1.5,1.5,2.4,3.5,2.4,5.8H797.7z"/>
	<polyline points="745.5,127.8 751,153.5 752.8,153.2 747.3,127.4 	"/>
	<polyline points="760.9,114 779.4,114 779.4,112.2 760.9,112.2 	"/>
	<path class="st1" d="M780.4,66.9v-3.1h-7.8l-0.8,7.5l2.4,0.2c0.1-0.3,0.3-0.6,0.6-0.8c0.3-0.2,0.7-0.3,1.2-0.3
		c0.6,0,1.1,0.2,1.4,0.7c0.3,0.5,0.5,1.1,0.5,1.9c0,0.7-0.2,1.3-0.5,1.8c-0.3,0.5-0.8,0.7-1.4,0.7c-0.6,0-1-0.2-1.3-0.5
		c-0.3-0.3-0.5-0.8-0.5-1.4l-2.6,0.1l0,0c0,1.2,0.4,2.1,1.3,2.8c0.9,0.7,1.9,1,3.2,1c1.5,0,2.6-0.4,3.4-1.3c0.8-0.9,1.2-1.9,1.2-3.2
		c0-1.4-0.4-2.6-1.1-3.4c-0.7-0.8-1.7-1.2-3-1.2c-0.4,0-0.8,0.1-1.2,0.2c-0.4,0.1-0.7,0.3-0.9,0.5l0.4-3.1h3.6l0.2,0.9H780.4z
		 M763.2,77.4h7.3v-1.6l-2.3-0.3V63.9l-5,0.9v1.5h2.3v9.1l-2.3,0.3V77.4z M759.1,72.4c0,1.1-0.2,1.9-0.5,2.4
		c-0.3,0.5-0.8,0.7-1.4,0.7c-0.6,0-1.1-0.2-1.4-0.7c-0.3-0.5-0.5-1.3-0.5-2.4v-3.5c0-1.1,0.2-1.9,0.5-2.4c0.3-0.5,0.8-0.7,1.4-0.7
		c0.6,0,1.1,0.2,1.4,0.7c0.3,0.5,0.5,1.3,0.5,2.4V72.4z M761.8,69.1c0-1.8-0.4-3.1-1.2-4.1c-0.8-0.9-1.9-1.4-3.3-1.4
		c-1.4,0-2.5,0.5-3.3,1.4c-0.8,0.9-1.2,2.3-1.2,4.1v3c0,1.8,0.4,3.1,1.2,4.1c0.8,0.9,1.9,1.4,3.3,1.4c1.4,0,2.5-0.5,3.3-1.4
		c0.8-0.9,1.2-2.3,1.2-4.1V69.1z M751.1,77.4V74h-2.1l-0.1,1.3h-3.5l0,0l2.4-2.6c1-1.1,1.8-2,2.2-2.7c0.4-0.7,0.7-1.4,0.7-2.3
		c0-1.2-0.4-2.2-1.2-2.9c-0.8-0.7-1.9-1.1-3.3-1.1c-1.4,0-2.5,0.4-3.4,1.3c-0.8,0.8-1.2,1.9-1.2,3.1l0,0.1h2.6
		c0-0.7,0.2-1.3,0.5-1.7c0.3-0.4,0.8-0.6,1.4-0.6c0.6,0,1,0.2,1.3,0.5c0.3,0.4,0.5,0.8,0.5,1.4c0,0.4-0.1,0.9-0.4,1.4
		c-0.3,0.5-0.7,1.1-1.3,1.8l-4.4,4.7v1.8H751.1z"/>
	<path d="M887.5,113.1h1.4c0-8.8-7.1-15.9-15.9-15.9c-8.8,0-15.9,7.1-15.9,15.9c0,8.8,7.1,15.9,15.9,15.9c8.8,0,15.9-7.1,15.9-15.9
		H887.5h-1.4c0,3.6-1.5,6.9-3.8,9.2c-2.4,2.4-5.6,3.8-9.2,3.8c-3.6,0-6.9-1.5-9.2-3.8c-2.4-2.4-3.8-5.6-3.8-9.2
		c0-3.6,1.5-6.9,3.8-9.2c2.4-2.4,5.6-3.8,9.2-3.8c3.6,0,6.9,1.5,9.2,3.8c2.4,2.4,3.8,5.6,3.8,9.2H887.5z"/>
	<path d="M891.3,162.5h0.9c0-5.6-4.5-10.1-10.1-10.1c-5.6,0-10,4.5-10,10.1c0,5.6,4.5,10.1,10,10.1c5.6,0,10.1-4.5,10.1-10.1H891.3
		h-0.9c0,2.3-0.9,4.3-2.4,5.8c-1.5,1.5-3.5,2.4-5.8,2.4c-2.3,0-4.3-0.9-5.8-2.4c-1.5-1.5-2.4-3.5-2.4-5.8c0-2.3,0.9-4.3,2.4-5.8
		c1.5-1.5,3.5-2.4,5.8-2.4c2.3,0,4.3,0.9,5.8,2.4c1.5,1.5,2.4,3.5,2.4,5.8H891.3z"/>
	<path d="M924.3,113.1h0.9c0-5.6-4.5-10.1-10-10.1c-5.6,0-10.1,4.5-10.1,10.1c0,5.6,4.5,10.1,10.1,10.1c5.6,0,10-4.5,10-10.1H924.3
		h-0.9c0,2.3-0.9,4.3-2.4,5.8c-1.5,1.5-3.5,2.4-5.8,2.4c-2.3,0-4.3-0.9-5.8-2.4c-1.5-1.5-2.4-3.5-2.4-5.8c0-2.3,0.9-4.3,2.4-5.8
		c1.5-1.5,3.5-2.4,5.8-2.4c2.3,0,4.3,0.9,5.8,2.4c1.5,1.5,2.4,3.5,2.4,5.8H924.3z"/>
	<polyline points="872.1,127.8 877.6,153.5 879.4,153.2 873.9,127.4 	"/>
	<polyline points="887.5,114 906,114 906,112.2 887.5,112.2 	"/>
	<path class="st1" d="M904.6,71.1c0.3,0.5,0.5,1.1,0.5,1.8c0,0.7-0.2,1.3-0.5,1.9c-0.3,0.5-0.8,0.8-1.3,0.8c-0.6,0-1.2-0.3-1.5-0.9
		c-0.4-0.6-0.6-1.4-0.6-2.5v-0.9c0.2-0.3,0.5-0.5,0.8-0.7c0.4-0.2,0.8-0.2,1.3-0.2C903.8,70.4,904.3,70.6,904.6,71.1z M900,65.3
		c-1,1.1-1.5,2.5-1.5,4.5v2.4c0,1.7,0.4,3.1,1.3,4c0.9,1,2.1,1.5,3.5,1.5c1.3,0,2.4-0.4,3.3-1.3c0.8-0.9,1.3-2,1.3-3.4
		c0-1.3-0.3-2.4-1-3.3c-0.7-0.9-1.6-1.3-2.8-1.3c-0.6,0-1.1,0.1-1.6,0.3c-0.5,0.2-0.9,0.4-1.2,0.7l0,0c0-1.1,0.3-2,0.7-2.6
		c0.5-0.6,1.1-0.9,1.9-0.9c0.4,0,0.8,0,1.1,0.1c0.3,0.1,0.7,0.2,1.1,0.3l0.5-2c-0.4-0.2-0.9-0.3-1.3-0.4c-0.4-0.1-0.9-0.1-1.4-0.1
		C902.3,63.7,901,64.2,900,65.3z M889.8,77.4h7.3v-1.6l-2.3-0.3V63.9l-5,0.9v1.5h2.3v9.1l-2.3,0.3V77.4z M885.7,72.4
		c0,1.1-0.2,1.9-0.5,2.4c-0.3,0.5-0.8,0.7-1.4,0.7c-0.6,0-1.1-0.2-1.4-0.7c-0.3-0.5-0.5-1.3-0.5-2.4v-3.5c0-1.1,0.2-1.9,0.5-2.4
		c0.3-0.5,0.8-0.7,1.4-0.7c0.6,0,1.1,0.2,1.4,0.7c0.3,0.5,0.5,1.3,0.5,2.4V72.4z M888.4,69.1c0-1.8-0.4-3.1-1.2-4.1
		c-0.8-0.9-1.9-1.4-3.3-1.4c-1.4,0-2.5,0.5-3.3,1.4c-0.8,0.9-1.2,2.3-1.2,4.1v3c0,1.8,0.4,3.1,1.2,4.1c0.8,0.9,1.9,1.4,3.3,1.4
		c1.4,0,2.5-0.5,3.3-1.4c0.8-0.9,1.2-2.3,1.2-4.1V69.1z M877.8,77.4V74h-2.1l-0.1,1.3h-3.5l0,0l2.4-2.6c1-1.1,1.8-2,2.2-2.7
		c0.4-0.7,0.7-1.4,0.7-2.3c0-1.2-0.4-2.2-1.2-2.9c-0.8-0.7-1.9-1.1-3.3-1.1c-1.4,0-2.5,0.4-3.4,1.3c-0.8,0.8-1.2,1.9-1.2,3.1l0,0.1
		h2.6c0-0.7,0.2-1.3,0.5-1.7c0.3-0.4,0.8-0.6,1.4-0.6c0.6,0,1,0.2,1.3,0.5c0.3,0.4,0.5,0.8,0.5,1.4c0,0.4-0.1,0.9-0.4,1.4
		c-0.3,0.5-0.7,1.1-1.3,1.8l-4.4,4.7v1.8H877.8z"/>
	<rect x="466.9" y="221" class="st0" width="469.1" height="80.8"/>
	<polygon class="st3" points="936,301.8 936,300.6 468.1,300.6 468.1,222.2 934.8,222.2 934.8,301.8 936,301.8 936,300.6 936,301.8 
		937.2,301.8 937.2,219.8 465.7,219.8 465.7,303 937.2,303 937.2,301.8 	"/>
	<path class="st2" d="M867.6,258.1v10.7l-1.6,0.3v1.8h6.2v-1.8l-1.6-0.3v-4.1h6.1v4.1l-1.6,0.3v1.8h6.2v-1.8l-1.6-0.3v-10.7l1.6-0.3
		V256h-1.6h-3h-1.6v1.8l1.6,0.3v4.3h-6.1v-4.3l1.6-0.3V256H866v1.8L867.6,258.1z M864.6,258.1c-0.6-0.7-1.4-1.2-2.3-1.7
		c-0.9-0.4-2-0.6-3.1-0.6c-2,0-3.7,0.7-4.9,2.1s-1.9,3.2-1.9,5.3v0.5c0,2.2,0.6,4,1.9,5.3c1.3,1.4,2.9,2.1,4.9,2.1
		c1.2,0,2.2-0.2,3.1-0.6c0.9-0.4,1.7-1,2.3-1.7v-3h-2.2l-0.3,2c-0.3,0.3-0.6,0.5-1.1,0.7c-0.5,0.2-1,0.3-1.6,0.3
		c-1.3,0-2.3-0.5-3-1.4s-1-2.2-1-3.7v-0.5c0-1.5,0.4-2.7,1.1-3.7c0.7-0.9,1.7-1.4,3-1.4c0.6,0,1.1,0.1,1.6,0.3
		c0.4,0.2,0.8,0.4,1.1,0.7l0.3,2h2.2V258.1z M844.8,259.4L844.8,259.4l1.7,5.3h-3.4L844.8,259.4z M837.8,270.9h5.1v-1.8l-1-0.2
		l0.7-2.1h4.8l0.7,2.1l-1,0.2v1.8h5.1v-1.8l-1.1-0.2l-4.5-13h-3.1l-4.5,13l-1.1,0.2V270.9z M834.1,262.1h-5.1v-3.8h4.8l0.1,1.8h2.3
		V256h-10.2h-1.6v1.8l1.6,0.3v10.7l-1.6,0.3v1.8h11.8v-4.1H834l-0.1,1.8h-4.8v-4.3h5.1V262.1z M809.5,258.3h2.1
		c0.8,0,1.4,0.2,1.8,0.6c0.4,0.4,0.6,0.9,0.6,1.6s-0.2,1.2-0.6,1.5s-1,0.5-1.9,0.5h-2.1V258.3z M806.5,256h-1.6v1.8l1.6,0.3v10.7
		l-1.6,0.3v1.8h6.2v-1.8l-1.6-0.3v-3.9h2.5c0.7,0,1.2,0.2,1.6,0.7c0.4,0.4,0.6,1,0.6,1.7v0.9c0,0.8,0.2,1.5,0.6,2s1.1,0.8,2.1,0.8
		h1.5v-1.8l-0.4-0.1c-0.3,0-0.5-0.1-0.6-0.3s-0.2-0.4-0.2-0.8v-0.8c0-0.9-0.2-1.6-0.6-2.3c-0.4-0.6-1-1-1.9-1.3
		c0.8-0.3,1.4-0.8,1.8-1.3s0.6-1.2,0.6-2c0-1.4-0.5-2.4-1.4-3.2c-1-0.8-2.3-1.2-4-1.2H806.5z M800.7,263.6c0,1.6-0.3,2.8-1,3.8
		c-0.6,1-1.6,1.4-2.9,1.4c-1.3,0-2.2-0.5-2.8-1.4c-0.6-1-0.9-2.2-0.9-3.8v-0.2c0-1.6,0.3-2.8,0.9-3.8c0.6-1,1.6-1.4,2.8-1.4
		s2.2,0.5,2.9,1.4s1,2.2,1,3.8V263.6z M803.7,263.4c0-2.2-0.6-4-1.9-5.4c-1.3-1.4-2.9-2.2-4.9-2.2c-2,0-3.6,0.7-4.9,2.2
		s-1.9,3.2-1.9,5.4v0.2c0,2.2,0.6,4,1.9,5.4c1.2,1.4,2.9,2.1,4.9,2.1c2,0,3.7-0.7,4.9-2.1s1.9-3.2,1.9-5.4V263.4z M777.5,270.9h6.2
		v-1.8l-1.6-0.3v-4.1h5.2v-2.3h-5.2v-4.1h4.9l0.1,1.8h2.3V256h-11.9v1.8l1.6,0.3v10.7l-1.6,0.3V270.9z M771,257.7
		c-0.6-0.6-1.4-1-2.4-1.4s-2-0.5-3.1-0.5c-1.6,0-2.8,0.4-3.9,1.2c-1,0.8-1.5,1.8-1.5,3c0,1.2,0.5,2.2,1.4,2.9s2.2,1.3,4,1.8
		c1,0.3,1.7,0.6,2.1,1c0.4,0.3,0.6,0.8,0.6,1.4c0,0.6-0.2,1-0.6,1.3c-0.4,0.3-1.1,0.5-1.9,0.5c-0.6,0-1.2-0.1-1.7-0.2
		c-0.5-0.2-0.9-0.4-1.2-0.6l-0.3-2.1h-2.3v3.1c0.6,0.7,1.4,1.2,2.4,1.6c1,0.4,2,0.6,3.2,0.6c1.7,0,3-0.4,4-1.1c1-0.7,1.5-1.7,1.5-3
		c0-1.2-0.4-2.2-1.3-3c-0.9-0.8-2.1-1.4-3.7-1.8c-1.1-0.4-2-0.7-2.4-1c-0.5-0.3-0.7-0.7-0.7-1.2c0-0.5,0.2-1,0.7-1.3
		c0.4-0.3,1.1-0.5,1.9-0.5c0.6,0,1.1,0.1,1.6,0.2s0.9,0.3,1.1,0.4l0.4,2.1h2.2V257.7z M755.8,262.1h-5.1v-3.8h4.8l0.1,1.8h2.3V256
		h-10.2h-1.6v1.8l1.6,0.3v10.7l-1.6,0.3v1.8H758v-4.1h-2.3l-0.1,1.8h-4.8v-4.3h5.1V262.1z M738.3,258.3c1.1,0,1.9,0.4,2.5,1.1
		s0.9,1.7,0.9,2.8v2.5c0,1.2-0.3,2.1-0.9,2.8s-1.4,1.1-2.5,1.1h-2v-10.3H738.3z M733.3,256h-1.6v1.8l1.6,0.3v10.7l-1.6,0.3v1.8h6.7
		c1.8,0,3.3-0.6,4.5-1.7c1.2-1.2,1.8-2.7,1.8-4.5v-2.5c0-1.8-0.6-3.3-1.8-4.5c-1.2-1.2-2.7-1.7-4.5-1.7H733.3z M727.6,263.6
		c0,1.6-0.3,2.8-1,3.8c-0.6,1-1.6,1.4-2.9,1.4c-1.3,0-2.2-0.5-2.8-1.4c-0.6-1-0.9-2.2-0.9-3.8v-0.2c0-1.6,0.3-2.8,0.9-3.8
		c0.6-1,1.6-1.4,2.8-1.4s2.2,0.5,2.9,1.4s1,2.2,1,3.8V263.6z M730.5,263.4c0-2.2-0.6-4-1.9-5.4c-1.3-1.4-2.9-2.2-4.9-2.2
		c-2,0-3.6,0.7-4.9,2.2s-1.9,3.2-1.9,5.4v0.2c0,2.2,0.6,4,1.9,5.4c1.2,1.4,2.9,2.1,4.9,2.1c2,0,3.7-0.7,4.9-2.1s1.9-3.2,1.9-5.4
		V263.4z M714.3,256h-4.6v1.8l1.6,0.3v7.9l-0.1,0l-6-10h-3h-1.6v1.8l1.6,0.3v10.7l-1.6,0.3v1.8h6.2v-1.8l-1.6-0.3v-7.9l0.1,0l6,10h3
		v-12.8l1.6-0.3V256H714.3z M694.1,259.4V256h-8.6l-0.9,8.3l2.6,0.2c0.1-0.4,0.3-0.6,0.7-0.9c0.3-0.2,0.7-0.3,1.3-0.3
		c0.7,0,1.2,0.3,1.6,0.8s0.5,1.2,0.5,2.1c0,0.8-0.2,1.4-0.5,1.9c-0.3,0.5-0.9,0.7-1.5,0.7c-0.6,0-1.1-0.2-1.5-0.6
		c-0.4-0.4-0.6-0.9-0.6-1.6l-2.9,0.1l0,0.1c0,1.3,0.4,2.3,1.4,3.1c1,0.7,2.2,1.1,3.5,1.1c1.6,0,2.9-0.5,3.7-1.4
		c0.9-1,1.3-2.1,1.3-3.6c0-1.6-0.4-2.8-1.2-3.7s-1.9-1.3-3.3-1.3c-0.5,0-0.9,0.1-1.3,0.2c-0.4,0.1-0.7,0.3-1,0.5l0.4-3.4h4l0.3,1
		H694.1z M670.2,258.3h2.5c0.8,0,1.5,0.2,1.9,0.7c0.4,0.5,0.6,1.1,0.6,1.8c0,0.7-0.2,1.3-0.6,1.7c-0.4,0.5-1.1,0.7-1.9,0.7h-2.5
		V258.3z M667.2,256h-1.6v1.8l1.6,0.3v10.7l-1.6,0.3v1.8h6.2v-1.8l-1.6-0.3v-3.3h2.5c1.7,0,3.1-0.4,4-1.3c1-0.9,1.5-2,1.5-3.4
		c0-1.4-0.5-2.6-1.5-3.5c-1-0.9-2.3-1.3-4-1.3H667.2z M661.4,263.6c0,1.6-0.3,2.8-1,3.8c-0.6,1-1.6,1.4-2.9,1.4
		c-1.3,0-2.2-0.5-2.8-1.4c-0.6-1-0.9-2.2-0.9-3.8v-0.2c0-1.6,0.3-2.8,0.9-3.8c0.6-1,1.6-1.4,2.8-1.4s2.2,0.5,2.9,1.4s1,2.2,1,3.8
		V263.6z M664.4,263.4c0-2.2-0.6-4-1.9-5.4c-1.3-1.4-2.9-2.2-4.9-2.2c-2,0-3.6,0.7-4.9,2.2s-1.9,3.2-1.9,5.4v0.2
		c0,2.2,0.6,4,1.9,5.4c1.2,1.4,2.9,2.1,4.9,2.1c2,0,3.7-0.7,4.9-2.1s1.9-3.2,1.9-5.4V263.4z M636.7,256v4h2.3l0.1-1.7h2.7v10.5
		l-1.6,0.3v1.8h6.2v-1.8l-1.6-0.3v-10.5h2.7l0.1,1.7h2.3v-4H636.7z M617.5,256v4h2.3l0.1-1.7h2.7v10.5l-1.6,0.3v1.8h6.2v-1.8
		l-1.6-0.3v-10.5h2.7l0.1,1.7h2.3v-4H617.5z M616.6,258.1c-0.6-0.7-1.4-1.2-2.3-1.7c-0.9-0.4-2-0.6-3.1-0.6c-2,0-3.7,0.7-4.9,2.1
		s-1.9,3.2-1.9,5.3v0.5c0,2.2,0.6,4,1.9,5.3c1.3,1.4,2.9,2.1,4.9,2.1c1.2,0,2.2-0.2,3.1-0.6c0.9-0.4,1.7-1,2.3-1.7v-3h-2.2l-0.3,2
		c-0.3,0.3-0.6,0.5-1.1,0.7c-0.5,0.2-1,0.3-1.6,0.3c-1.3,0-2.3-0.5-3-1.4s-1-2.2-1-3.7v-0.5c0-1.5,0.4-2.7,1.1-3.7
		c0.7-0.9,1.7-1.4,3-1.4c0.6,0,1.1,0.1,1.6,0.3c0.4,0.2,0.8,0.4,1.1,0.7l0.3,2h2.2V258.1z M596.8,259.4L596.8,259.4l1.7,5.3h-3.4
		L596.8,259.4z M589.7,270.9h5.1v-1.8l-1-0.2l0.7-2.1h4.8l0.7,2.1l-1,0.2v1.8h5.1v-1.8l-1.1-0.2l-4.5-13h-3.1l-4.5,13l-1.1,0.2
		V270.9z M580,258.3h2.1c0.8,0,1.4,0.2,1.8,0.6c0.4,0.4,0.6,0.9,0.6,1.6s-0.2,1.2-0.6,1.5s-1,0.5-1.9,0.5H580V258.3z M577,256h-1.6
		v1.8l1.6,0.3v10.7l-1.6,0.3v1.8h6.2v-1.8l-1.6-0.3v-3.9h2.5c0.7,0,1.2,0.2,1.6,0.7c0.4,0.4,0.6,1,0.6,1.7v0.9c0,0.8,0.2,1.5,0.6,2
		s1.1,0.8,2.1,0.8h1.5v-1.8l-0.4-0.1c-0.3,0-0.5-0.1-0.6-0.3s-0.2-0.4-0.2-0.8v-0.8c0-0.9-0.2-1.6-0.6-2.3c-0.4-0.6-1-1-1.9-1.3
		c0.8-0.3,1.4-0.8,1.8-1.3s0.6-1.2,0.6-2c0-1.4-0.5-2.4-1.4-3.2c-1-0.8-2.3-1.2-4-1.2H577z M561.1,256v4h2.3l0.1-1.7h2.7v10.5
		l-1.6,0.3v1.8h6.2v-1.8l-1.6-0.3v-10.5h2.7l0.1,1.7h2.3v-4H561.1z M546.3,270.9h5.8v-1.8l-1.2-0.1l2.4-3.8l2.4,3.8l-1.2,0.1v1.8
		h5.9v-1.8l-1.3-0.3l-4-5.5l3.8-5.3l1.3-0.3V256h-5.8v1.8l1.2,0.1l-2.3,3.7l-2.3-3.7l1.2-0.1V256h-5.7v1.8l1.3,0.3l3.8,5.3l-3.9,5.5
		l-1.3,0.2V270.9z M542.8,262.1h-5.1v-3.8h4.8l0.1,1.8h2.3V256h-10.2h-1.6v1.8l1.6,0.3v10.7l-1.6,0.3v1.8H545v-4.1h-2.3l-0.1,1.8
		h-4.8v-4.3h5.1V262.1z"/>
	<path class="st2" d="M858.7,41.1v-4.2h-2.3l-0.1,1.9h-4.2V28.3l1.6-0.3v-1.8h-1.6h-3h-1.6V28l1.6,0.3V39l-1.6,0.3v1.8H858.7z
		 M842.5,33.8c0,1.6-0.3,2.8-1,3.8c-0.6,1-1.6,1.4-2.9,1.4c-1.3,0-2.2-0.5-2.8-1.4c-0.6-1-0.9-2.2-0.9-3.8v-0.2
		c0-1.6,0.3-2.8,0.9-3.8c0.6-1,1.6-1.4,2.8-1.4s2.2,0.5,2.9,1.4s1,2.2,1,3.8V33.8z M845.5,33.5c0-2.2-0.6-4-1.9-5.4
		c-1.3-1.4-2.9-2.2-4.9-2.2c-2,0-3.6,0.7-4.9,2.2s-1.9,3.2-1.9,5.4v0.2c0,2.2,0.6,4,1.9,5.4c1.2,1.4,2.9,2.1,4.9,2.1
		c2,0,3.7-0.7,4.9-2.1s1.9-3.2,1.9-5.4V33.5z M829.6,28.3c-0.6-0.7-1.4-1.2-2.3-1.7c-0.9-0.4-2-0.6-3.1-0.6c-2,0-3.7,0.7-4.9,2.1
		s-1.9,3.2-1.9,5.3v0.5c0,2.2,0.6,4,1.9,5.3c1.3,1.4,2.9,2.1,4.9,2.1c1.2,0,2.2-0.2,3.1-0.6c0.9-0.4,1.7-1,2.3-1.7v-3h-2.2l-0.3,2
		c-0.3,0.3-0.6,0.5-1.1,0.7c-0.5,0.2-1,0.3-1.6,0.3c-1.3,0-2.3-0.5-3-1.4s-1-2.2-1-3.7v-0.5c0-1.5,0.4-2.7,1.1-3.7
		c0.7-0.9,1.7-1.4,3-1.4c0.6,0,1.1,0.1,1.6,0.3c0.4,0.2,0.8,0.4,1.1,0.7l0.3,2h2.2V28.3z M812.4,33.8c0,1.6-0.3,2.8-1,3.8
		c-0.6,1-1.6,1.4-2.9,1.4c-1.3,0-2.2-0.5-2.8-1.4c-0.6-1-0.9-2.2-0.9-3.8v-0.2c0-1.6,0.3-2.8,0.9-3.8c0.6-1,1.6-1.4,2.8-1.4
		s2.2,0.5,2.9,1.4s1,2.2,1,3.8V33.8z M815.3,33.5c0-2.2-0.6-4-1.9-5.4c-1.3-1.4-2.9-2.2-4.9-2.2c-2,0-3.6,0.7-4.9,2.2
		s-1.9,3.2-1.9,5.4v0.2c0,2.2,0.6,4,1.9,5.4c1.2,1.4,2.9,2.1,4.9,2.1c2,0,3.7-0.7,4.9-2.1s1.9-3.2,1.9-5.4V33.5z M786.9,26.2v4h2.3
		l0.1-1.7h2.7V39l-1.6,0.3v1.8h6.2v-1.8L795,39V28.5h2.7l0.1,1.7h2.3v-4H786.9z M782.3,33.8c0,1.6-0.3,2.8-1,3.8
		c-0.6,1-1.6,1.4-2.9,1.4c-1.3,0-2.2-0.5-2.8-1.4c-0.6-1-0.9-2.2-0.9-3.8v-0.2c0-1.6,0.3-2.8,0.9-3.8c0.6-1,1.6-1.4,2.8-1.4
		s2.2,0.5,2.9,1.4s1,2.2,1,3.8V33.8z M785.3,33.5c0-2.2-0.6-4-1.9-5.4c-1.3-1.4-2.9-2.2-4.9-2.2c-2,0-3.6,0.7-4.9,2.2
		s-1.9,3.2-1.9,5.4v0.2c0,2.2,0.6,4,1.9,5.4c1.2,1.4,2.9,2.1,4.9,2.1c2,0,3.7-0.7,4.9-2.1s1.9-3.2,1.9-5.4V33.5z M760.9,28.5h2.1
		c0.8,0,1.4,0.2,1.8,0.6c0.4,0.4,0.6,0.9,0.6,1.6s-0.2,1.2-0.6,1.5s-1,0.5-1.9,0.5h-2.1V28.5z M757.9,26.2h-1.6V28l1.6,0.3V39
		l-1.6,0.3v1.8h6.2v-1.8l-1.6-0.3v-3.9h2.5c0.7,0,1.2,0.2,1.6,0.7c0.4,0.4,0.6,1,0.6,1.7v0.9c0,0.8,0.2,1.5,0.6,2s1.1,0.8,2.1,0.8
		h1.5v-1.8l-0.4-0.1c-0.3,0-0.5-0.1-0.6-0.3s-0.2-0.4-0.2-0.8v-0.8c0-0.9-0.2-1.6-0.6-2.3c-0.4-0.6-1-1-1.9-1.3
		c0.8-0.3,1.4-0.8,1.8-1.3s0.6-1.2,0.6-2c0-1.4-0.5-2.4-1.4-3.2c-1-0.8-2.3-1.2-4-1.2H757.9z M746.5,28.5h2.5c0.8,0,1.5,0.2,1.9,0.7
		c0.4,0.5,0.6,1.1,0.6,1.8c0,0.7-0.2,1.3-0.6,1.7c-0.4,0.5-1.1,0.7-1.9,0.7h-2.5V28.5z M743.5,26.2h-1.6V28l1.6,0.3V39l-1.6,0.3v1.8
		h6.2v-1.8l-1.6-0.3v-3.3h2.5c1.7,0,3.1-0.4,4-1.3c1-0.9,1.5-2,1.5-3.4c0-1.4-0.5-2.6-1.5-3.5c-1-0.9-2.3-1.3-4-1.3H743.5z
		 M733.7,27.9c-0.6-0.6-1.4-1-2.4-1.4s-2-0.5-3.1-0.5c-1.6,0-2.8,0.4-3.9,1.2c-1,0.8-1.5,1.8-1.5,3c0,1.2,0.5,2.2,1.4,2.9
		s2.2,1.3,4,1.8c1,0.3,1.7,0.6,2.1,1c0.4,0.3,0.6,0.8,0.6,1.4c0,0.6-0.2,1-0.6,1.3c-0.4,0.3-1.1,0.5-1.9,0.5c-0.6,0-1.2-0.1-1.7-0.2
		c-0.5-0.2-0.9-0.4-1.2-0.6l-0.3-2.1h-2.3v3.1c0.6,0.7,1.4,1.2,2.4,1.6c1,0.4,2,0.6,3.2,0.6c1.7,0,3-0.4,4-1.1c1-0.7,1.5-1.7,1.5-3
		c0-1.2-0.4-2.2-1.3-3c-0.9-0.8-2.1-1.4-3.7-1.8c-1.1-0.4-2-0.7-2.4-1c-0.5-0.3-0.7-0.7-0.7-1.2c0-0.5,0.2-1,0.7-1.3
		c0.4-0.3,1.1-0.5,1.9-0.5c0.6,0,1.1,0.1,1.6,0.2s0.9,0.3,1.1,0.4l0.4,2.1h2.2V27.9z M710,26.2h-3h-1.6V28l1.6,0.3v7.8
		c0,1.7,0.5,3,1.6,3.9c1.1,0.9,2.5,1.4,4.3,1.4c1.8,0,3.2-0.5,4.3-1.4c1.1-0.9,1.7-2.2,1.7-3.9v-7.8l1.6-0.3v-1.8h-6.2V28l1.6,0.3
		v7.8c0,1-0.3,1.7-0.8,2.2S714,39,713,39c-0.9,0-1.6-0.2-2.2-0.7c-0.5-0.5-0.8-1.2-0.8-2.2v-7.8l1.6-0.3v-1.8H710z M700.6,33.8
		c0,1.6-0.3,2.8-1,3.8c-0.6,1-1.6,1.4-2.9,1.4c-1.3,0-2.2-0.5-2.8-1.4c-0.6-1-0.9-2.2-0.9-3.8v-0.2c0-1.6,0.3-2.8,0.9-3.8
		c0.6-1,1.6-1.4,2.8-1.4s2.2,0.5,2.9,1.4s1,2.2,1,3.8V33.8z M703.6,33.5c0-2.2-0.6-4-1.9-5.4c-1.3-1.4-2.9-2.2-4.9-2.2
		c-2,0-3.6,0.7-4.9,2.2s-1.9,3.2-1.9,5.4v0.2c0,2.2,0.6,4,1.9,5.4c1.2,1.4,2.9,2.1,4.9,2.1c2,0,3.7-0.7,4.9-2.1s1.9-3.2,1.9-5.4
		V33.5z M683.4,28.3V39l-1.6,0.3v1.8h6.2v-1.8l-1.6-0.3V28.3L688,28v-1.8h-6.2V28L683.4,28.3z M671.1,26.2h-5.5V28l1.2,0.2l4.4,13
		h3.1l4.4-13L680,28v-1.8h-5.5V28l1.1,0.2l-2.7,9l-0.2,0.8h-0.1l-0.2-0.8l-2.6-9l1.1-0.2V26.2z M661.3,32.2h-5.1v-3.8h4.8l0.1,1.8
		h2.3v-4.1h-10.2h-1.6V28l1.6,0.3V39l-1.6,0.3v1.8h11.8V37h-2.3l-0.1,1.8h-4.8v-4.3h5.1V32.2z M641,28.5h2.1c0.8,0,1.4,0.2,1.8,0.6
		c0.4,0.4,0.6,0.9,0.6,1.6s-0.2,1.2-0.6,1.5s-1,0.5-1.9,0.5H641V28.5z M638,26.2h-1.6V28l1.6,0.3V39l-1.6,0.3v1.8h6.2v-1.8L641,39
		v-3.9h2.5c0.7,0,1.2,0.2,1.6,0.7c0.4,0.4,0.6,1,0.6,1.7v0.9c0,0.8,0.2,1.5,0.6,2s1.1,0.8,2.1,0.8h1.5v-1.8l-0.4-0.1
		c-0.3,0-0.5-0.1-0.6-0.3s-0.2-0.4-0.2-0.8v-0.8c0-0.9-0.2-1.6-0.6-2.3c-0.4-0.6-1-1-1.9-1.3c0.8-0.3,1.4-0.8,1.8-1.3s0.6-1.2,0.6-2
		c0-1.4-0.5-2.4-1.4-3.2c-1-0.8-2.3-1.2-4-1.2H638z M626.5,28.5h2.5c0.8,0,1.5,0.2,1.9,0.7c0.4,0.5,0.6,1.1,0.6,1.8
		c0,0.7-0.2,1.3-0.6,1.7c-0.4,0.5-1.1,0.7-1.9,0.7h-2.5V28.5z M623.5,26.2h-1.6V28l1.6,0.3V39l-1.6,0.3v1.8h6.2v-1.8l-1.6-0.3v-3.3
		h2.5c1.7,0,3.1-0.4,4-1.3c1-0.9,1.5-2,1.5-3.4c0-1.4-0.5-2.6-1.5-3.5c-1-0.9-2.3-1.3-4-1.3H623.5z M609.5,36.7V39l-1.6,0.3v1.8h6.2
		v-1.8l-1.6-0.3V28.3l1.6-0.3v-1.8h-5.5l-3.8,11h-0.1l-3.8-11h-3.9h-1.6V28l1.6,0.3V39l-1.6,0.3v1.8h6.2v-1.8l-1.6-0.3v-2.3
		l-0.3-6.6l0.1,0l4,11h2l4-11.1l0.1,0L609.5,36.7z M590.3,33.8c0,1.6-0.3,2.8-1,3.8c-0.6,1-1.6,1.4-2.9,1.4c-1.3,0-2.2-0.5-2.8-1.4
		c-0.6-1-0.9-2.2-0.9-3.8v-0.2c0-1.6,0.3-2.8,0.9-3.8c0.6-1,1.6-1.4,2.8-1.4s2.2,0.5,2.9,1.4s1,2.2,1,3.8V33.8z M593.3,33.5
		c0-2.2-0.6-4-1.9-5.4c-1.3-1.4-2.9-2.2-4.9-2.2c-2,0-3.6,0.7-4.9,2.2s-1.9,3.2-1.9,5.4v0.2c0,2.2,0.6,4,1.9,5.4
		c1.2,1.4,2.9,2.1,4.9,2.1c2,0,3.7-0.7,4.9-2.1s1.9-3.2,1.9-5.4V33.5z M569,28.5h2.1c0.8,0,1.4,0.2,1.8,0.6c0.4,0.4,0.6,0.9,0.6,1.6
		s-0.2,1.2-0.6,1.5s-1,0.5-1.9,0.5H569V28.5z M566,26.2h-1.6V28l1.6,0.3V39l-1.6,0.3v1.8h6.2v-1.8L569,39v-3.9h2.5
		c0.7,0,1.2,0.2,1.6,0.7c0.4,0.4,0.6,1,0.6,1.7v0.9c0,0.8,0.2,1.5,0.6,2s1.1,0.8,2.1,0.8h1.5v-1.8l-0.4-0.1c-0.3,0-0.5-0.1-0.6-0.3
		s-0.2-0.4-0.2-0.8v-0.8c0-0.9-0.2-1.6-0.6-2.3c-0.4-0.6-1-1-1.9-1.3c0.8-0.3,1.4-0.8,1.8-1.3s0.6-1.2,0.6-2c0-1.4-0.5-2.4-1.4-3.2
		c-1-0.8-2.3-1.2-4-1.2H566z M550.6,41.1h6.2v-1.8l-1.6-0.3v-4.1h5.2v-2.3h-5.2v-4.1h4.9l0.1,1.8h2.3v-4.1h-11.9V28l1.6,0.3V39
		l-1.6,0.3V41.1z"/>
	<path d="M833.8,528.8c-1.1,0-2.3-0.1-3.4-0.1v2.1c1.1,0,2.2,0,3.3,0.1L833.8,528.8L833.8,528.8z M844.1,530
		c-1.7-0.3-3.4-0.5-5.1-0.7l-0.2,2.1c1.7,0.2,3.3,0.4,5,0.7L844.1,530L844.1,530z M854,532.5c-1.6-0.5-3.3-1-5-1.4l-0.5,2.1
		c1.6,0.4,3.2,0.9,4.8,1.4L854,532.5L854,532.5z M863.6,536.3c-1.5-0.7-3.1-1.4-4.7-2.1l-0.8,2c1.6,0.6,3.1,1.3,4.6,2L863.6,536.3
		L863.6,536.3z M872.5,541.3c-1.4-0.9-2.9-1.8-4.4-2.7l-1,1.8c1.5,0.8,2.9,1.7,4.3,2.6L872.5,541.3L872.5,541.3z M880.7,547.6
		c-1.3-1.1-2.6-2.2-4-3.2l-1.3,1.7c1.3,1,2.6,2.1,3.9,3.2L880.7,547.6L880.7,547.6z M888,554.8c-1.1-1.3-2.3-2.5-3.5-3.8l-1.5,1.5
		c1.2,1.2,2.3,2.4,3.4,3.7L888,554.8L888,554.8z M894.3,563c-1-1.4-2-2.8-3-4.2l-1.7,1.3c1,1.3,2,2.7,2.9,4.1L894.3,563z M899.4,572
		c-0.8-1.5-1.6-3.1-2.4-4.6l-1.8,1.1c0.8,1.4,1.6,2.9,2.3,4.4L899.4,572L899.4,572z M903.3,581.5c-0.5-1.6-1.1-3.3-1.8-4.8l-2,0.8
		c0.6,1.5,1.2,3.1,1.7,4.7L903.3,581.5L903.3,581.5z M905.8,591.5c-0.3-1.7-0.7-3.4-1.1-5l-2.1,0.5c0.4,1.6,0.8,3.2,1.1,4.9
		L905.8,591.5L905.8,591.5z M907,601.7c-0.1-1.7-0.2-3.4-0.4-5.1l-2.1,0.2c0.2,1.6,0.3,3.3,0.4,5L907,601.7L907,601.7z M906.8,612
		c0.1-1.7,0.2-3.4,0.3-5.1l-2.1,0c0,1.7-0.1,3.3-0.3,5L906.8,612L906.8,612z M905.2,622.2c0.4-1.7,0.7-3.4,1-5.1l-2.1-0.3
		c-0.3,1.7-0.6,3.3-0.9,4.9L905.2,622.2L905.2,622.2z M902.3,632.1c0.6-1.6,1.1-3.2,1.6-4.9l-2-0.6c-0.5,1.6-1,3.2-1.6,4.8
		L902.3,632.1L902.3,632.1z M898.1,641.4c0.8-1.5,1.6-3.1,2.3-4.6l-1.9-0.9c-0.7,1.5-1.4,3-2.2,4.5L898.1,641.4L898.1,641.4z
		 M892.7,650.2c1-1.4,2-2.8,2.9-4.3l-1.8-1.1c-0.9,1.4-1.8,2.8-2.8,4.2L892.7,650.2z M886.1,658.1c1.2-1.2,2.3-2.5,3.4-3.9l-1.6-1.4
		c-1.1,1.3-2.2,2.5-3.3,3.7L886.1,658.1L886.1,658.1z M878.5,665.1c1.3-1.1,2.6-2.2,3.9-3.4l-1.4-1.6c-1.2,1.1-2.5,2.2-3.8,3.3
		L878.5,665.1L878.5,665.1z M870.1,671c1.5-0.9,2.9-1.8,4.3-2.8l-1.2-1.7c-1.4,1-2.8,1.9-4.2,2.7L870.1,671L870.1,671z M861,675.7
		c1.6-0.7,3.1-1.4,4.7-2.2l-1-1.9c-1.5,0.8-3,1.5-4.5,2.2L861,675.7L861,675.7z M851.2,679.2c1.7-0.5,3.3-1,4.9-1.6l-0.7-2
		c-1.6,0.6-3.2,1.1-4.8,1.5L851.2,679.2L851.2,679.2z M841.2,681.3c1.7-0.2,3.4-0.5,5.1-0.9l-0.4-2.1c-1.6,0.3-3.3,0.6-4.9,0.9
		L841.2,681.3L841.2,681.3z"/>
	<path d="M830.4,681c5.1,1.5,11.6,4.2,15.7,7.2l-3.7-8.1l2.4-8.6C841.2,675.1,835.3,678.8,830.4,681z"/>
	<rect x="863.1" y="564.4" class="st0" width="183.9" height="81.9"/>
	<path d="M1045.9,643.2v2.1h-4v2.1l6.1,0v-4.3H1045.9L1045.9,643.2z M1045.9,633v5.1h2.1V633H1045.9z M1045.9,622.9v5.1h2.1v-5.1
		H1045.9z M1045.9,612.7v5.1h2.1v-5.1H1045.9z M1045.9,602.5v5.1h2.1v-5.1H1045.9z M1045.9,592.4v5.1h2.1v-5.1H1045.9z
		 M1045.9,582.2v5.1h2.1v-5.1H1045.9z M1045.9,572v5.1h2.1V572H1045.9z M1044.4,565.5h1.5l0,1.5h2.1v-3.6h-3.6V565.5L1044.4,565.5z
		 M1034.2,565.5h5.1v-2.1h-5.1V565.5z M1024.1,565.5h5.1v-2.1h-5.1V565.5z M1013.9,565.5h5.1v-2.1h-5.1V565.5z M1003.8,565.5h5.1
		v-2.1h-5.1V565.5z M993.6,565.5h5.1v-2.1h-5.1V565.5z M983.4,565.5h5.1v-2.1h-5.1V565.5z M973.3,565.5h5.1v-2.1h-5.1V565.5z
		 M963.1,565.5h5.1v-2.1h-5.1V565.5z M952.9,565.5h5.1v-2.1h-5.1V565.5z M942.8,565.5h5.1v-2.1h-5.1V565.5z M932.6,565.5h5.1v-2.1
		h-5.1V565.5z M922.5,565.5h5.1v-2.1h-5.1V565.5z M912.3,565.5h5.1v-2.1h-5.1V565.5z M902.1,565.5h5.1v-2.1h-5.1V565.5z M892,565.5
		h5.1v-2.1H892V565.5z M881.8,565.5h5.1v-2.1h-5.1V565.5z M871.6,565.5h5.1v-2.1h-5.1V565.5z M864.1,566v-0.5h2.4v-2.1H862v2.7
		H864.1L864.1,566z M864.1,576.2v-5.1H862v5.1H864.1z M864.1,586.4v-5.1H862v5.1H864.1z M864.1,596.5v-5.1H862v5.1H864.1z
		 M864.1,606.7v-5.1H862v5.1H864.1z M864.1,616.8v-5.1H862v5.1H864.1z M864.1,627v-5.1H862v5.1H864.1z M864.1,637.2v-5.1H862v5.1
		H864.1z M864,645.3h-1v1.1h1.1v-4.1H862l0,5.2h2V645.3L864,645.3z M874.2,645.3h-5.1v2.1h5.1V645.3z M884.4,645.3h-5.1v2.1h5.1
		V645.3z M894.5,645.3h-5.1v2.1h5.1V645.3z M904.7,645.3h-5.1v2.1h5.1V645.3z M914.9,645.3h-5.1v2.1h5.1V645.3z M925,645.3h-5.1v2.1
		h5.1V645.3z M935.2,645.3h-5.1v2.1h5.1V645.3z M945.3,645.3h-5.1v2.1h5.1V645.3z M955.5,645.3h-5.1v2.1h5.1V645.3z M965.7,645.3
		h-5.1v2.1h5.1V645.3z M975.8,645.3h-5.1v2.1h5.1V645.3z M986,645.3h-5.1v2.1h5.1V645.3z M996.2,645.3h-5.1v2.1h5.1V645.3z
		 M1006.3,645.3h-5.1v2.1h5.1V645.3z M1016.5,645.3h-5.1v2.1h5.1V645.3z M1026.6,645.3h-5.1v2.1h5.1V645.3z M1036.8,645.3h-5.1v2.1
		h5.1V645.3z"/>
	<path class="st2" d="M1018.6,592.8c-0.4-0.4-0.9-0.6-1.5-0.8c-0.6-0.2-1.3-0.3-2.1-0.3c-1.1,0-2,0.3-2.7,0.9c-0.7,0.6-1,1.3-1,2.1
		c0,0.8,0.3,1.4,0.9,1.9c0.6,0.5,1.5,0.8,2.8,1.1c0.9,0.2,1.4,0.4,1.7,0.7c0.3,0.3,0.5,0.6,0.5,1c0,0.4-0.2,0.8-0.6,1
		c-0.4,0.3-0.9,0.4-1.5,0.4c-0.4,0-0.7,0-1.1-0.1c-0.4-0.1-0.6-0.2-0.9-0.4l-0.3-1.3h-1.4l0,2.3c0.5,0.3,1,0.6,1.6,0.8
		c0.6,0.2,1.3,0.3,2.1,0.3c1.2,0,2.1-0.3,2.8-0.8c0.7-0.6,1.1-1.3,1.1-2.2c0-0.8-0.3-1.4-0.9-1.9c-0.6-0.5-1.6-0.8-2.8-1.1
		c-0.9-0.2-1.4-0.4-1.7-0.6c-0.3-0.2-0.4-0.5-0.4-0.9c0-0.4,0.2-0.7,0.5-1c0.3-0.3,0.8-0.4,1.4-0.4c0.4,0,0.8,0.1,1.1,0.2
		c0.3,0.1,0.6,0.3,0.8,0.5l0.3,1.2h1.4L1018.6,592.8z M1008.1,587.4h-1.8v1.9h1.8V587.4z M1004.8,601.9h4.9v-1.2l-1.5-0.3v-8.6h-3.3
		v1.2l1.5,0.3v7.2l-1.5,0.3V601.9z M1002.7,592.8c-0.4-0.4-0.9-0.6-1.5-0.8c-0.6-0.2-1.3-0.3-2.1-0.3c-1.1,0-2,0.3-2.7,0.9
		c-0.7,0.6-1,1.3-1,2.1c0,0.8,0.3,1.4,0.9,1.9c0.6,0.5,1.5,0.8,2.8,1.1c0.9,0.2,1.4,0.4,1.7,0.7c0.3,0.3,0.5,0.6,0.5,1
		c0,0.4-0.2,0.8-0.6,1c-0.4,0.3-0.9,0.4-1.5,0.4c-0.4,0-0.7,0-1.1-0.1c-0.4-0.1-0.6-0.2-0.9-0.4l-0.3-1.3h-1.4l0,2.3
		c0.5,0.3,1,0.6,1.6,0.8c0.6,0.2,1.3,0.3,2.1,0.3c1.2,0,2.1-0.3,2.8-0.8c0.7-0.6,1.1-1.3,1.1-2.2c0-0.8-0.3-1.4-0.9-1.9
		c-0.6-0.5-1.6-0.8-2.8-1.1c-0.9-0.2-1.4-0.4-1.7-0.6c-0.3-0.2-0.4-0.5-0.4-0.9c0-0.4,0.2-0.7,0.5-1c0.3-0.3,0.8-0.4,1.4-0.4
		c0.4,0,0.8,0.1,1.1,0.2c0.3,0.1,0.6,0.3,0.8,0.5l0.3,1.2h1.4L1002.7,592.8z M993.9,591.9h-4v1.2l1.1,0.2l-2.1,6.2h-0.1l-0.3-1.3
		l-1.7-5l1.1-0.2v-1.2h-4.1v1.2l0.9,0.1l3.3,8.5l-0.4,1c-0.2,0.4-0.4,0.8-0.6,1.2c-0.2,0.3-0.6,0.5-0.9,0.5c-0.1,0-0.2,0-0.5,0
		s-0.4,0-0.3,0l-0.2,1.4c0.1,0,0.3,0.1,0.5,0.1c0.2,0,0.4,0.1,0.6,0.1c0.8,0,1.4-0.3,1.9-0.8s0.8-1.1,1.1-1.8l3.8-10.3l0.9-0.1
		V591.9z M979.6,588.9v11.6l-1.5,0.3v1.2h4.9v-1.2l-1.5-0.3v-13h-3.3v1.2L979.6,588.9z M970.2,600.2c-0.3-0.2-0.4-0.6-0.4-1
		c0-0.5,0.2-0.9,0.7-1.3c0.4-0.3,1-0.5,1.8-0.5h1.9v1.7c-0.2,0.4-0.6,0.8-1.1,1c-0.5,0.3-1.1,0.4-1.7,0.4
		C970.9,600.6,970.5,600.5,970.2,600.2z M976.8,601.9v-1.2l-0.7-0.1c0-0.1,0-0.2,0-0.4c0-0.1,0-0.3,0-0.4v-4.8
		c0-1.1-0.4-1.9-1.1-2.5c-0.7-0.6-1.6-0.9-2.8-0.9c-0.8,0-1.5,0.1-2.1,0.3c-0.6,0.2-1.2,0.5-1.7,0.9v1.9h1.4l0.2-1.1
		c0.2-0.2,0.5-0.4,0.8-0.5c0.3-0.1,0.8-0.2,1.2-0.2c0.7,0,1.2,0.2,1.5,0.5c0.4,0.3,0.6,0.8,0.6,1.4v1.2h-1.9c-1.3,0-2.4,0.3-3.2,0.8
		c-0.8,0.5-1.2,1.3-1.2,2.2c0,0.9,0.3,1.6,0.8,2.2c0.5,0.5,1.3,0.8,2.4,0.8c0.6,0,1.2-0.1,1.7-0.4c0.5-0.3,1-0.7,1.3-1.1
		c0,0.2,0,0.4,0.1,0.6c0,0.2,0.1,0.5,0.1,0.7H976.8z M955.4,601.9h4.9v-1.2l-1.5-0.3v-5.9c0.2-0.4,0.6-0.8,1-1
		c0.4-0.3,0.9-0.4,1.4-0.4c0.7,0,1.3,0.2,1.6,0.6s0.5,1,0.5,1.9v4.9l-1.5,0.3v1.2h4.9v-1.2l-1.5-0.3v-4.9c0-1.3-0.3-2.3-0.9-2.9
		c-0.6-0.6-1.4-1-2.5-1c-0.6,0-1.2,0.1-1.7,0.4c-0.5,0.3-0.9,0.7-1.3,1.2l-0.1-1.5h-3.1v1.2l1.5,0.3v7.2l-1.5,0.3V601.9z
		 M947.6,600.2c-0.3-0.2-0.4-0.6-0.4-1c0-0.5,0.2-0.9,0.7-1.3c0.4-0.3,1-0.5,1.8-0.5h1.9v1.7c-0.2,0.4-0.6,0.8-1.1,1
		c-0.5,0.3-1.1,0.4-1.7,0.4C948.2,600.6,947.8,600.5,947.6,600.2z M954.1,601.9v-1.2l-0.7-0.1c0-0.1,0-0.2,0-0.4c0-0.1,0-0.3,0-0.4
		v-4.8c0-1.1-0.4-1.9-1.1-2.5c-0.7-0.6-1.6-0.9-2.8-0.9c-0.8,0-1.5,0.1-2.1,0.3c-0.6,0.2-1.2,0.5-1.7,0.9v1.9h1.4l0.2-1.1
		c0.2-0.2,0.5-0.4,0.8-0.5c0.3-0.1,0.8-0.2,1.2-0.2c0.7,0,1.2,0.2,1.5,0.5c0.4,0.3,0.6,0.8,0.6,1.4v1.2h-1.9c-1.3,0-2.4,0.3-3.2,0.8
		c-0.8,0.5-1.2,1.3-1.2,2.2c0,0.9,0.3,1.6,0.8,2.2c0.5,0.5,1.3,0.8,2.4,0.8c0.6,0,1.2-0.1,1.7-0.4c0.5-0.3,1-0.7,1.3-1.1
		c0,0.2,0,0.4,0.1,0.6c0,0.2,0.1,0.5,0.1,0.7H954.1z M930.9,597.1c0-1.2,0.2-2.1,0.6-2.8c0.4-0.7,1.1-1.1,1.9-1.1
		c0.5,0,1,0.1,1.4,0.4c0.4,0.2,0.7,0.6,0.9,1v4.7c-0.2,0.5-0.5,0.8-0.9,1c-0.4,0.2-0.8,0.4-1.4,0.4c-0.9,0-1.5-0.3-1.9-0.9
		s-0.6-1.4-0.6-2.4V597.1z M936,601.9h3.1v-1.2l-1.5-0.3v-13h-1.8h-1.5v1.2l1.5,0.3v4.1c-0.3-0.4-0.7-0.7-1.2-1
		c-0.5-0.2-1-0.3-1.6-0.3c-1.2,0-2.2,0.5-2.9,1.5c-0.7,1-1,2.3-1,3.9v0.2c0,1.4,0.3,2.6,1,3.5c0.7,0.9,1.6,1.3,2.9,1.3
		c0.6,0,1.2-0.1,1.6-0.4c0.5-0.2,0.9-0.6,1.2-1L936,601.9z M922.9,593.3v7.2l-1.5,0.3v1.2h4.9v-1.2l-1.5-0.3v-5.8
		c0.2-0.4,0.4-0.7,0.8-1c0.3-0.2,0.7-0.3,1.2-0.3l1,0.1l0.2-1.7c-0.1,0-0.2,0-0.3-0.1c-0.2,0-0.3,0-0.4,0c-0.5,0-1,0.1-1.4,0.4
		c-0.4,0.3-0.8,0.7-1.1,1.2l-0.2-1.5h-3.1v1.2L922.9,593.3z M912.6,596.8c0-1.1,0.2-1.9,0.7-2.6c0.4-0.7,1.1-1,2-1
		c0.9,0,1.5,0.3,2,1c0.5,0.7,0.7,1.6,0.7,2.6v0.2c0,1.1-0.2,1.9-0.7,2.6c-0.5,0.7-1.1,1-2,1c-0.9,0-1.6-0.3-2-1
		c-0.4-0.7-0.7-1.6-0.7-2.6V596.8z M910.7,597c0,1.5,0.4,2.7,1.2,3.7c0.8,1,1.9,1.4,3.3,1.4c1.4,0,2.5-0.5,3.3-1.4
		c0.8-1,1.2-2.2,1.2-3.7v-0.2c0-1.5-0.4-2.7-1.2-3.7c-0.8-1-1.9-1.4-3.3-1.4c-1.4,0-2.5,0.5-3.3,1.4c-0.8,1-1.2,2.2-1.2,3.7V597z
		 M897,588.4h-4.3v1.2l1.1,0.1l2.9,12.2h1.6l2.7-9.4l0.2-1.2h0.1l0.2,1.2l2.7,9.4h1.6l2.9-12.2l1.1-0.1v-1.2h-4.3v1.2l1.4,0.2
		l-1.7,7.4L905,599H905l-0.4-1.7l-2.5-8.8h-1.6l-2.5,8.8l-0.4,1.7l-0.1,0l-0.3-1.7l-1.7-7.4l1.4-0.2V588.4z"/>
	<path class="st2" d="M1015,615.3v7.2l-1.5,0.3v1.2h4.9v-1.2l-1.5-0.3v-5.8c0.2-0.4,0.4-0.7,0.8-1c0.3-0.2,0.7-0.3,1.2-0.3l1,0.1
		l0.2-1.7c-0.1,0-0.2,0-0.3-0.1c-0.2,0-0.3,0-0.4,0c-0.5,0-1,0.1-1.4,0.4c-0.4,0.3-0.8,0.7-1.1,1.2l-0.2-1.5h-3.1v1.2L1015,615.3z
		 M1009.3,615.9c0.4,0.5,0.6,1.1,0.6,1.8v0.2h-4.6l0,0c0.1-0.8,0.4-1.4,0.8-1.9c0.4-0.5,1-0.8,1.6-0.8
		C1008.4,615.1,1008.9,615.4,1009.3,615.9z M1010,623.8c0.6-0.2,1.1-0.5,1.4-0.9l-0.7-1.2c-0.3,0.3-0.7,0.6-1.2,0.7
		c-0.5,0.2-1,0.3-1.6,0.3c-0.8,0-1.5-0.3-2-0.9c-0.5-0.6-0.7-1.4-0.7-2.4l0,0h6.5v-1.1c0-1.4-0.3-2.4-1-3.3
		c-0.7-0.8-1.7-1.2-3.1-1.2c-1.2,0-2.2,0.5-3,1.4c-0.9,0.9-1.3,2.1-1.3,3.6v0.4c0,1.5,0.4,2.7,1.2,3.6c0.8,0.9,1.9,1.4,3.3,1.4
		C1008.7,624.1,1009.4,624,1010,623.8z M985.1,623.9h4.9v-1.2l-1.5-0.3v-6c0.2-0.4,0.5-0.7,0.8-1c0.4-0.2,0.8-0.3,1.4-0.3
		c0.7,0,1.2,0.2,1.5,0.7c0.3,0.4,0.5,1.1,0.5,2.1v4.6l-1.5,0.3v1.2h4.9v-1.2l-1.5-0.3v-4.9c0.1-0.7,0.3-1.2,0.7-1.7
		c0.4-0.4,0.9-0.7,1.5-0.7c0.7,0,1.2,0.2,1.5,0.6c0.3,0.4,0.5,1.1,0.5,2.1v4.6l-1.5,0.3v1.2h4.9v-1.2l-1.5-0.3v-4.6
		c0-1.4-0.3-2.5-0.9-3.2c-0.6-0.7-1.4-1.1-2.4-1.1c-0.7,0-1.3,0.2-1.8,0.5s-0.9,0.8-1.3,1.4c-0.2-0.6-0.6-1.1-1.1-1.4
		c-0.5-0.3-1.1-0.5-1.7-0.5s-1.3,0.1-1.8,0.4c-0.5,0.3-0.9,0.6-1.2,1.1l-0.1-1.3h-3.2v1.2l1.5,0.3v7.2l-1.5,0.3V623.9z M967.1,623.9
		h4.9v-1.2l-1.5-0.3v-6c0.2-0.4,0.5-0.7,0.8-1c0.4-0.2,0.8-0.3,1.4-0.3c0.7,0,1.2,0.2,1.5,0.7c0.3,0.4,0.5,1.1,0.5,2.1v4.6l-1.5,0.3
		v1.2h4.9v-1.2l-1.5-0.3v-4.9c0.1-0.7,0.3-1.2,0.7-1.7c0.4-0.4,0.9-0.7,1.5-0.7c0.7,0,1.2,0.2,1.5,0.6c0.3,0.4,0.5,1.1,0.5,2.1v4.6
		l-1.5,0.3v1.2h4.9v-1.2l-1.5-0.3v-4.6c0-1.4-0.3-2.5-0.9-3.2c-0.6-0.7-1.4-1.1-2.4-1.1c-0.7,0-1.3,0.2-1.8,0.5s-0.9,0.8-1.3,1.4
		c-0.2-0.6-0.6-1.1-1.1-1.4c-0.5-0.3-1.1-0.5-1.7-0.5s-1.3,0.1-1.8,0.4c-0.5,0.3-0.9,0.6-1.2,1.1l-0.1-1.3h-3.2v1.2l1.5,0.3v7.2
		l-1.5,0.3V623.9z M959.4,622.2c-0.3-0.2-0.4-0.6-0.4-1c0-0.5,0.2-0.9,0.7-1.3c0.4-0.3,1-0.5,1.8-0.5h1.9v1.7
		c-0.2,0.4-0.6,0.8-1.1,1c-0.5,0.3-1.1,0.4-1.7,0.4C960.1,622.6,959.7,622.5,959.4,622.2z M966,623.9v-1.2l-0.7-0.1
		c0-0.1,0-0.2,0-0.4c0-0.1,0-0.3,0-0.4v-4.8c0-1.1-0.4-1.9-1.1-2.5c-0.7-0.6-1.6-0.9-2.8-0.9c-0.8,0-1.5,0.1-2.1,0.3
		c-0.6,0.2-1.2,0.5-1.7,0.9v1.9h1.4l0.2-1.1c0.2-0.2,0.5-0.4,0.8-0.5c0.3-0.1,0.8-0.2,1.2-0.2c0.7,0,1.2,0.2,1.5,0.5
		c0.4,0.3,0.6,0.8,0.6,1.4v1.2h-1.9c-1.3,0-2.4,0.3-3.2,0.8c-0.8,0.5-1.2,1.3-1.2,2.2c0,0.9,0.3,1.6,0.8,2.2
		c0.5,0.5,1.3,0.8,2.4,0.8c0.6,0,1.2-0.1,1.7-0.4c0.5-0.3,1-0.7,1.3-1.1c0,0.2,0,0.4,0.1,0.6c0,0.2,0.1,0.5,0.1,0.7H966z
		 M951.4,611.5v2.4h-1.6v1.4h1.6v6.1c0,1,0.2,1.7,0.7,2.1c0.4,0.4,1,0.7,1.8,0.7c0.3,0,0.7,0,1-0.1c0.3-0.1,0.6-0.2,0.8-0.3
		l-0.3-1.3c-0.1,0-0.3,0.1-0.5,0.1c-0.2,0-0.4,0-0.5,0c-0.3,0-0.6-0.1-0.8-0.3c-0.2-0.2-0.3-0.5-0.3-1v-6.1h1.9v-1.4h-1.9v-2.4
		H951.4z M948.1,611.9c-0.5-0.5-1.1-0.9-1.9-1.2c-0.8-0.3-1.6-0.5-2.6-0.5c-1.4,0-2.6,0.4-3.5,1.1c-0.9,0.7-1.3,1.6-1.3,2.6
		c0,1,0.4,1.8,1.2,2.5c0.8,0.7,1.9,1.2,3.3,1.5c1.2,0.3,2,0.6,2.5,1.1c0.5,0.4,0.7,0.9,0.7,1.6c0,0.7-0.3,1.2-0.8,1.6
		s-1.3,0.6-2.2,0.6c-0.7,0-1.3-0.1-1.8-0.3c-0.5-0.2-0.9-0.4-1.3-0.7l-0.4-1.9h-1.4v2.5c0.5,0.6,1.2,1,2,1.3
		c0.8,0.3,1.7,0.5,2.8,0.5c1.4,0,2.6-0.3,3.5-1c0.9-0.7,1.3-1.5,1.3-2.6c0-1-0.4-1.9-1.1-2.6s-1.8-1.2-3.2-1.6c-1.2-0.3-2-0.6-2.6-1
		c-0.5-0.4-0.8-0.9-0.8-1.5c0-0.7,0.3-1.2,0.8-1.6c0.5-0.4,1.3-0.6,2.2-0.6c0.6,0,1.2,0.1,1.6,0.2c0.5,0.2,0.8,0.3,1.1,0.6l0.3,1.9
		h1.4V611.9z M921.3,623.9h4.9v-1.2l-1.5-0.3v-6c0.3-0.4,0.6-0.7,1-1c0.4-0.2,0.9-0.4,1.4-0.4c0.7,0,1.2,0.2,1.6,0.6
		c0.4,0.4,0.5,1,0.5,1.8v4.9l-1.5,0.3v1.2h4.9v-1.2l-1.5-0.3v-4.9c0-1.3-0.3-2.3-0.9-3c-0.6-0.6-1.4-1-2.5-1c-0.6,0-1.2,0.1-1.7,0.4
		c-0.5,0.3-0.9,0.6-1.3,1.1v-5.8h-3.3v1.2l1.5,0.3v11.6l-1.5,0.3V623.9z M915.9,611.5v2.4h-1.6v1.4h1.6v6.1c0,1,0.2,1.7,0.7,2.1
		c0.4,0.4,1,0.7,1.8,0.7c0.3,0,0.7,0,1-0.1c0.3-0.1,0.6-0.2,0.8-0.3l-0.3-1.3c-0.1,0-0.3,0.1-0.5,0.1c-0.2,0-0.4,0-0.5,0
		c-0.3,0-0.6-0.1-0.8-0.3c-0.2-0.2-0.3-0.5-0.3-1v-6.1h1.9v-1.4h-1.9v-2.4H915.9z M911.7,609.4h-1.8v1.9h1.8V609.4z M908.3,623.9
		h4.9v-1.2l-1.5-0.3v-8.6h-3.3v1.2l1.5,0.3v7.2l-1.5,0.3V623.9z M896.2,613.9h-3.8v1.2l0.9,0.1l2.5,8.7h1.5l1.9-6.1l0.4-1.7l0.1,0
		l0.4,1.7l1.9,6.1h1.5l2.5-8.7l0.9-0.1v-1.2H903v1.2l1.2,0.2l-1.2,5l-0.3,1.4h-0.1l-0.3-1.4l-2-6.4h-1.5l-2,6.4l-0.3,1.2h-0.1
		l-0.2-1.2l-1.3-5l1.2-0.2V613.9z"/>
</g>
</svg>
