<?xml version="1.0" encoding="utf-8"?>
<!-- Generator: Adobe Illustrator 21.0.0, SVG Export Plug-In . SVG Version: 6.00 Build 0)  -->
<svg version="1.1" id="Livello_1" xmlns="http://www.w3.org/2000/svg" xmlns:xlink="http://www.w3.org/1999/xlink" x="0px" y="0px"
	 width="770.4px" height="105px" viewBox="0 0 770.4 105" style="enable-background:new 0 0 770.4 105;" xml:space="preserve">
<style type="text/css">
	.st0{fill:#D5D5D5;stroke:#F5F5F5;stroke-width:2;stroke-miterlimit:10;}
	.st1{fill:#007CA8;stroke:#F5F5F5;stroke-width:2;stroke-miterlimit:10;}
	.st2{font-family:'CrimsonText-Roman';}
	.st3{font-size:28px;}
	.st4{display:none;}
	.st5{display:inline;}
	.st6{font-family:'MyriadPro-Regular';}
	.st7{font-size:12px;}
</style>
<g id="Livello_1_1_">
	<g>
		<g>
			<rect x="699.5" y="50.2" class="st0" width="15" height="45.6"/>
		</g>
	</g>
	<g>
		<g>
			<rect x="606.2" y="50.2" class="st0" width="93.3" height="45.6"/>
		</g>
	</g>
	<g>
		<g>
			<rect x="589.5" y="50.2" class="st0" width="16.7" height="45.6"/>
		</g>
	</g>
	<g>
		<g>
			<rect x="714.5" y="50.2" class="st1" width="55.4" height="45.6"/>
		</g>
	</g>
	<g>
		<g>
			<rect x="379.9" y="50.2" class="st0" width="209.9" height="45.6"/>
		</g>
	</g>
	<g>
		<g>
			<rect x="361.6" y="50.2" class="st0" width="18.3" height="45.6"/>
		</g>
	</g>
	<g>
		<g>
			<rect x="314.9" y="50.2" class="st0" width="46.7" height="45.6"/>
		</g>
	</g>
	<g>
		<g>
			<rect x="288.3" y="50.2" class="st0" width="26.7" height="45.6"/>
		</g>
	</g>
	<g>
		<g>
			<rect x="205" y="50.2" class="st0" width="83.3" height="45.6"/>
		</g>
	</g>
	<g>
		<g>
			<rect y="50.2" class="st0" width="205" height="45.6"/>
		</g>
	</g>
	<text transform="matrix(1 0 0 1 723.6166 35.9636)" class="st2 st3">0:29</text>
</g>
<g id="Livello_2" class="st4">
	<text transform="matrix(1 0 0 1 699.4706 38.3942)" class="st5 st6 st7">work</text>
	<text transform="matrix(1 0 0 1 661.5532 38.3942)" class="st5 st6 st7">Trump</text>
	<text transform="matrix(1 0 0 1 589.4968 38.3942)" class="st5 st6 st7">renewable</text>
	<text transform="matrix(1 0 0 1 742.1768 38.3937)" class="st5 st6 st7">protest</text>
	<text transform="matrix(1 0 0 1 398.3204 38.394)" class="st5 st6 st7">politics</text>
	<text transform="matrix(1 0 0 1 330.1866 38.394)" class="st5 st6 st7">meeting</text>
	<text transform="matrix(1 0 0 1 214.8833 38.394)" class="st5 st6 st7">graphics</text>
	<text transform="matrix(1 0 0 1 3.356934e-04 38.394)" class="st5 st6 st7">anchors</text>
	<text transform="matrix(1 0 0 1 379.1031 13.3865)" class="st5 st6 st7">nature</text>
	<text transform="matrix(1 0 0 1 302.2343 13.3865)" class="st5 st6 st7">industries</text>
</g>
</svg>
