<?xml version="1.0" encoding="utf-8"?>
<!-- Generator: Adobe Illustrator 21.0.0, SVG Export Plug-In . SVG Version: 6.00 Build 0)  -->
<svg version="1.1" id="Livello_1" xmlns="http://www.w3.org/2000/svg" xmlns:xlink="http://www.w3.org/1999/xlink" x="0px" y="0px"
	 width="770.4px" height="146px" viewBox="0 0 770.4 146" style="enable-background:new 0 0 770.4 146;" xml:space="preserve">
<style type="text/css">
	.st0{fill:#D5D5D5;stroke:#F5F5F5;stroke-width:2;stroke-miterlimit:10;}
	.st1{fill:#007CA8;stroke:#F5F5F5;stroke-width:4;stroke-miterlimit:10;}
	.st2{font-family:'CrimsonText-Roman';}
	.st3{font-size:28px;}
	.st4{font-family:'Poppins-Regular';}
	.st5{font-size:24px;}
	.st6{display:none;}
	.st7{display:inline;}
	.st8{font-family:'MyriadPro-Regular';}
	.st9{font-size:12px;}
	.st10{opacity:0.8;}
	.st11{opacity:0.4;}
	.st12{fill:#5B5B5B;stroke:#F5F5F5;stroke-width:4;stroke-miterlimit:10;}
	.st13{opacity:0.5;}
	.st14{enable-background:new    ;}
</style>
<g>
	<g>
		<rect x="699.5" y="-102.8" class="st0" width="15" height="45.6"/>
	</g>
</g>
<g>
	<g>
		<rect x="606.2" y="-102.8" class="st0" width="93.3" height="45.6"/>
	</g>
</g>
<g>
	<g>
		<rect x="589.5" y="-102.8" class="st0" width="16.7" height="45.6"/>
	</g>
</g>
<g>
	<g>
		<rect x="714.5" y="-102.8" class="st0" width="55.4" height="45.6"/>
	</g>
</g>
<g>
	<g>
		<rect x="379.9" y="-102.8" class="st0" width="209.9" height="45.6"/>
	</g>
</g>
<g>
	<g>
		<rect x="361.6" y="-102.8" class="st0" width="18.3" height="45.6"/>
	</g>
</g>
<g>
	<g>
		<rect x="314.9" y="-102.8" class="st0" width="46.7" height="45.6"/>
	</g>
</g>
<g>
	<g>
		<rect y="50.2" class="st1" width="26.7" height="45.6"/>
	</g>
</g>
<g>
	<g>
		<rect x="205" y="-102.8" class="st1" width="83.3" height="45.6"/>
	</g>
</g>
<g>
	<g>
		<rect y="-102.8" class="st1" width="205" height="45.6"/>
	</g>
</g>
<text transform="matrix(1 0 0 1 2.136230e-04 35.9636)" class="st2 st3">Total</text>
<text transform="matrix(1 0 0 1 409.0002 35.9636)" class="st2 st3">Providers</text>
<text transform="matrix(1 0 0 1 2.136230e-04 127.9998)" class="st4 st5">0:15</text>
<text transform="matrix(1 0 0 1 542.0759 127.9998)" class="st4 st5">CBS</text>
<g>
	<text transform="matrix(1 0 0 1 716.458 127.9998)" class="st4 st5">TIME</text>
</g>
<g id="Livello_2" class="st6">
	<text transform="matrix(1 0 0 1 699.4706 38.3943)" class="st7 st8 st9">work</text>
	<text transform="matrix(1 0 0 1 661.5532 38.3943)" class="st7 st8 st9">Trump</text>
	<text transform="matrix(1 0 0 1 589.4968 38.3943)" class="st7 st8 st9">renewable</text>
	<text transform="matrix(1 0 0 1 742.1768 38.3938)" class="st7 st8 st9">protest</text>
	<text transform="matrix(1 0 0 1 398.3204 38.394)" class="st7 st8 st9">politics</text>
	<text transform="matrix(1 0 0 1 330.1866 38.394)" class="st7 st8 st9">meeting</text>
	<text transform="matrix(1 0 0 1 214.8833 38.394)" class="st7 st8 st9">graphics</text>
	<text transform="matrix(1 0 0 1 3.356934e-04 38.394)" class="st7 st8 st9">anchors</text>
	<text transform="matrix(1 0 0 1 379.1031 13.3865)" class="st7 st8 st9">nature</text>
	<text transform="matrix(1 0 0 1 302.2343 13.3865)" class="st7 st8 st9">industries</text>
</g>
<g class="st10">
	<g>
		<rect x="635.4" y="-353.8" class="st1" width="135" height="45.6"/>
	</g>
</g>
<g class="st11">
	<g>
		<rect x="544" y="-353.8" class="st1" width="91.4" height="45.6"/>
	</g>
</g>
<g>
	<g>
		<rect x="409" y="-353.8" class="st1" width="135" height="45.6"/>
	</g>
</g>
<g>
	<g>
		<rect x="409" y="52" class="st12" width="180.7" height="41.9"/>
	</g>
</g>
<g class="st13">
	<g>
		<rect x="589.7" y="52" class="st12" width="180.7" height="41.9"/>
	</g>
</g>
<text transform="matrix(1 0 0 1 840.1941 -277.8384)" class="st4 st5">CBS</text>
<text transform="matrix(1 0 0 1 982.6904 -277.8384)" class="st4 st5">NY TIMES</text>
<g>
	<text transform="matrix(1 0 0 1 1152.458 -277.8384)" class="st4 st5">TIME</text>
</g>
<g class="st10">
	<g>
		<rect x="1086" y="-353.8" class="st12" width="120.5" height="41.9"/>
	</g>
</g>
<g class="st13">
	<g>
		<rect x="887.6" y="-353.8" class="st12" width="198.4" height="41.9"/>
	</g>
</g>
<g>
	<g>
		<rect x="845.1" y="-353.8" class="st12" width="42.5" height="41.9"/>
	</g>
</g>
<text transform="matrix(1 0 0 1 412.0002 -375)" class="st8 st9">Anchor</text>
<text transform="matrix(1 0 0 1 866.359 -375)" class="st8 st9">Graphics</text>
</svg>
