<?xml version="1.0" encoding="utf-8"?>
<!-- Generator: Adobe Illustrator 19.1.0, SVG Export Plug-In . SVG Version: 6.00 Build 0)  -->
<svg version="1.1" id="Livello_1" xmlns="http://www.w3.org/2000/svg" xmlns:xlink="http://www.w3.org/1999/xlink" x="0px" y="0px"
	 viewBox="0 0 770.4 146" style="enable-background:new 0 0 770.4 146;" xml:space="preserve">
<style type="text/css">
	.st0{fill:#D5D5D5;stroke:#F5F5F5;stroke-width:2;stroke-miterlimit:10;}
	.st1{fill:#007CA8;stroke:#F5F5F5;stroke-width:4;stroke-miterlimit:10;}
	.st2{font-family:'CrimsonText-Roman';}
	.st3{font-size:28px;}
	.st4{font-family:'Poppins-Regular';}
	.st5{font-size:24px;}
	.st6{enable-background:new    ;}
	.st7{display:none;}
	.st8{display:inline;}
	.st9{font-family:'MyriadPro-Regular';}
	.st10{font-size:12px;}
	.st11{opacity:0.8;}
	.st12{opacity:0.4;}
	.st13{fill:#5B5B5B;stroke:#F5F5F5;stroke-width:4;stroke-miterlimit:10;}
	.st14{opacity:0.5;}
</style>
<g>
	<g>
		<rect x="0" y="50.2" class="st1" width="51.6" height="45.6"/>
	</g>
</g>
<text transform="matrix(1 0 0 1 2.136230e-04 35.9636)" class="st2 st3">Total</text>
<text transform="matrix(1 0 0 1 409.0002 35.9636)" class="st2 st3">Providers</text>
<text transform="matrix(1 0 0 1 2.136230e-04 127.9998)" class="st4 st5">0:29</text>
<g id="Livello_2" class="st7">
	<text transform="matrix(1 0 0 1 699.4706 38.3943)" class="st8 st9 st10">work</text>
	<text transform="matrix(1 0 0 1 661.5532 38.3943)" class="st8 st9 st10">Trump</text>
	<text transform="matrix(1 0 0 1 589.4968 38.3943)" class="st8 st9 st10">renewable</text>
	<text transform="matrix(1 0 0 1 742.1768 38.3938)" class="st8 st9 st10">protest</text>
	<text transform="matrix(1 0 0 1 398.3204 38.394)" class="st8 st9 st10">politics</text>
	<text transform="matrix(1 0 0 1 330.1866 38.394)" class="st8 st9 st10">meeting</text>
	<text transform="matrix(1 0 0 1 214.8833 38.394)" class="st8 st9 st10">graphics</text>
	<text transform="matrix(1 0 0 1 3.356934e-04 38.394)" class="st8 st9 st10">anchors</text>
	<text transform="matrix(1 0 0 1 379.1031 13.3865)" class="st8 st9 st10">nature</text>
	<text transform="matrix(1 0 0 1 302.2343 13.3865)" class="st8 st9 st10">industries</text>
</g>
<text transform="matrix(1 0 0 1 593.9246 128.0348)" class="st4 st5">WP</text>
<g>
	<g>
		<rect x="409" y="53.9" class="st13" width="224.3" height="41.9"/>
	</g>
</g>
<g class="st14">
	<g>
		<rect x="633.3" y="53.9" class="st13" width="136.6" height="41.9"/>
	</g>
</g>
<text transform="matrix(1 0 0 1 714.8247 128.0346)" class="st4 st5">TIME</text>
</svg>
