<?xml version="1.0" encoding="utf-8"?>
<!-- Generator: Adobe Illustrator 21.0.0, SVG Export Plug-In . SVG Version: 6.00 Build 0)  -->
<svg version="1.1" id="Layer_1" xmlns="http://www.w3.org/2000/svg" xmlns:xlink="http://www.w3.org/1999/xlink" x="0px" y="0px"
	 viewBox="0 0 1461.6 843.2" style="enable-background:new 0 0 1461.6 843.2;" xml:space="preserve">
<style type="text/css">
	.st0{fill:#141414;}
	.st1{fill:#D3D3D3;}
	.st2{font-family:'Lekton-Regular';}
	.st3{font-size:16px;}
	.st4{fill:#C6006B;}
	.st5{fill:#D13389;}
	.st6{fill:#DD66A6;}
	.st7{fill:#E899C4;}
	.st8{fill:#F4CCE1;}
	.st9{font-size:10px;}
	.st10{fill:none;stroke:#D3D3D3;stroke-width:3;}
</style>
<g id="Livello_1">
</g>
<rect x="-16.9" y="-10.8" class="st0" width="1495.4" height="863.7"/>
<text transform="matrix(1 0 0 1 884.8132 609.1854)" class="st1 st2 st3">Blues</text>
<rect x="884.8" y="550.3" class="st4" width="111" height="29.2"/>
<rect x="1013.8" y="550.3" class="st4" width="111" height="29.2"/>
<rect x="1013.8" y="555.6" class="st5" width="111" height="1.3"/>
<rect x="1013.8" y="553" class="st6" width="111" height="2.7"/>
<rect x="1013.8" y="550.3" class="st7" width="111" height="2.7"/>
<polygon class="st8" points="1124.6,550.3 1013.3,550.3 1013.3,550.3 "/>
<rect x="495.8" y="531.7" class="st4" width="112" height="47.8"/>
<rect x="495.8" y="542.3" class="st5" width="112" height="13.3"/>
<rect x="495.8" y="534.4" class="st7" width="112" height="1.3"/>
<rect x="495.8" y="531.7" class="st8" width="112" height="2.7"/>
<rect x="495.8" y="538.4" class="st6" width="112" height="1.3"/>
<rect x="495.8" y="539.7" class="st6" width="112" height="2.7"/>
<rect x="495.8" y="535.7" class="st7" width="112" height="2.7"/>
<rect x="624.8" y="531.7" class="st4" width="112" height="47.8"/>
<rect x="624.8" y="539.7" class="st5" width="112" height="2.7"/>
<rect x="624.8" y="538.4" class="st6" width="112" height="1.3"/>
<rect x="624.8" y="535.7" class="st7" width="112" height="2.7"/>
<rect x="624.8" y="531.7" class="st8" width="112" height="4"/>
<rect x="1141.8" y="550.3" class="st4" width="112" height="29.2"/>
<rect x="1141.8" y="564.9" class="st5" width="112" height="13.3"/>
<rect x="1141.8" y="557" class="st6" width="112" height="8"/>
<rect x="1141.8" y="555.6" class="st7" width="112" height="1.3"/>
<rect x="1141.8" y="550.3" class="st8" width="112" height="5.3"/>
<rect x="756.8" y="539.7" class="st4" width="111" height="39.8"/>
<rect x="756.8" y="553" class="st5" width="111" height="13.3"/>
<rect x="756.8" y="539.7" class="st8" width="111" height="8"/>
<rect x="756.8" y="547.7" class="st7" width="111" height="2.7"/>
<rect x="756.8" y="550.3" class="st6" width="111" height="2.7"/>
<rect x="368.8" y="462.7" class="st4" width="111" height="116.9"/>
<rect x="368.8" y="462.7" class="st8" width="111" height="34.5"/>
<rect x="368.8" y="510.5" class="st5" width="111" height="23.9"/>
<rect x="368.8" y="499.9" class="st6" width="111" height="10.6"/>
<rect x="368.8" y="497.2" class="st7" width="111" height="2.7"/>
<rect x="239.8" y="162.6" class="st4" width="110" height="416.9"/>
<rect x="239.8" y="263" class="st5" width="110" height="67.8"/>
<rect x="239.8" y="236.9" class="st6" width="110" height="26.1"/>
<rect x="239.8" y="207.6" class="st7" width="110" height="12"/>
<rect x="239.8" y="162.6" class="st8" width="110" height="45"/>
<text transform="matrix(1 0 0 1 624.8132 608.9667)" class="st1 st2 st3">Jazz</text>
<text transform="matrix(1 0 0 1 495.8132 609.4305)" class="st1 st2 st3">EDM</text>
<text transform="matrix(1 0 0 1 1013.3192 609.1854)" class="st1 st2 st3">Country</text>
<text transform="matrix(1 0 0 1 1141.8132 609.2967)" class="st1 st2 st3">R&amp;B</text>
<text transform="matrix(1 0 0 1 756.8132 608.9667)" class="st1 st2 st3">Reggae</text>
<text transform="matrix(1 0 0 1 368.8132 609.5154)" class="st1 st2 st3">Rock</text>
<text transform="matrix(1 0 0 1 239.8132 608.9548)" class="st1 st2 st3">Hip-hop</text>
<text transform="matrix(1 0 0 1 239.8132 626.0173)" class="st1 st2 st9">Rap</text>
<text transform="matrix(1 0 0 1 239.8132 638.0173)" class="st1 st2 st9">Trap </text>
<text transform="matrix(1 0 0 1 239.8132 650.0173)" class="st1 st2 st9">Trip-hop</text>
<text transform="matrix(1 0 0 1 239.8132 662.0173)" class="st1 st2 st9">Gangsta rap</text>
<text transform="matrix(1 0 0 1 239.8132 674.0173)" class="st1 st2 st9">Pop rap</text>
<text transform="matrix(1 0 0 1 239.8132 686.0173)" class="st1 st2 st9">G-funk</text>
<text transform="matrix(1 0 0 1 239.8132 698.0173)" class="st1 st2 st9">West-coast Hip-hop</text>
<text transform="matrix(1 0 0 1 368.8132 626.0173)" class="st1 st2 st9">Art rock</text>
<text transform="matrix(1 0 0 1 368.8132 638.0173)" class="st1 st2 st9">Folk rock</text>
<text transform="matrix(1 0 0 1 368.8132 650.0173)" class="st1 st2 st9">Classic Metal</text>
<text transform="matrix(1 0 0 1 368.8132 662.0173)" class="st1 st2 st9">Garage rock</text>
<text transform="matrix(1 0 0 1 368.8132 674.0173)" class="st1 st2 st9">Progressive rock</text>
<text transform="matrix(1 0 0 1 368.8132 686.0173)" class="st1 st2 st9">Proto punk</text>
<text transform="matrix(1 0 0 1 368.8132 698.0173)" class="st1 st2 st9">Indie</text>
<text transform="matrix(1 0 0 1 495.8132 626.0173)" class="st1 st2 st9">Future bass</text>
<text transform="matrix(1 0 0 1 495.8132 638.0173)" class="st1 st2 st9">Pop</text>
<text transform="matrix(1 0 0 1 495.8132 650.0173)" class="st1 st2 st9">Alternative pop</text>
<text transform="matrix(1 0 0 1 624.8132 626.0173)" class="st1 st2 st9">Acid jazz</text>
<text transform="matrix(1 0 0 1 624.8132 638.0173)" class="st1 st2 st9">Latin jazz</text>
<text transform="matrix(1 0 0 1 624.8132 650.0173)" class="st1 st2 st9">Funk</text>
<text transform="matrix(1 0 0 1 756.8132 626.0173)" class="st1 st2 st9">Reggae fusion</text>
<text transform="matrix(1 0 0 1 756.8132 638.0173)" class="st1 st2 st9">Dancehall</text>
<text transform="matrix(1 0 0 1 756.8132 650.0173)" class="st1 st2 st9">Ska</text>
<text transform="matrix(1 0 0 1 1013.3192 626.0173)" class="st1 st2 st9">Bro-country</text>
<text transform="matrix(1 0 0 1 1013.3192 638.0173)" class="st1 st2 st9">Folk</text>
<text transform="matrix(1 0 0 1 1141.8132 626.0173)" class="st1 st2 st9">Trap R&amp;B</text>
<text transform="matrix(1 0 0 1 1141.8132 638.0173)" class="st1 st2 st9">Pop R&amp;B</text>
<text transform="matrix(1 0 0 1 239.5919 87.401)" class="st1 st2 st3">MUSIC GENRES</text>
<line class="st10" x1="239.6" y1="96.2" x2="334.8" y2="96.2"/>
</svg>
