<?xml version="1.0" encoding="utf-8"?>
<!-- Generator: Adobe Illustrator 19.2.1, SVG Export Plug-In . SVG Version: 6.00 Build 0)  -->
<svg version="1.1" id="Livello_1" xmlns="http://www.w3.org/2000/svg" xmlns:xlink="http://www.w3.org/1999/xlink" x="0px" y="0px"
	 viewBox="0 0 1040 488.8" style="enable-background:new 0 0 1040 488.8;" xml:space="preserve">
<style type="text/css">
	.st0{fill:none;stroke:#AAAAA9;stroke-width:0.5;}
	.st1{fill:#EEEEEE;stroke:#999999;}
	.st2{fill:#F5F5F5;stroke:#000000;stroke-width:0.5;}
	.st3{fill:#F5F5F5;stroke:#007CA8;stroke-width:0.5;}
	.st4{enable-background:new    ;}
	.st5{font-family:'CrimsonText-Roman';}
	.st6{font-size:10px;}
	.st7{fill:#007CA8;}
	.st8{fill:#F5F5F5;}
	.st9{font-family:'CrimsonText-Bold';}
	.st10{font-size:15px;}
</style>
<g id="Livello_3">
</g>
<g id="Livello_4">
	<path class="st0" d="M507,254.9c85.1,0,92.8-197.6,154.3-197.6"/>
	<path class="st0" d="M507,254.9c85.1,0,89.1-123.3,174.3-123.3"/>
	<path class="st0" d="M507,254.9c85.1,0,73.6-56.4,158.7-56.4"/>
	<path class="st0" d="M507,254.9c85.1,0,87.1,18.7,172.3,18.7"/>
	<path class="st0" d="M507,254.9c82.9,0,95.7,98.7,142.3,98.7"/>
	<path class="st0" d="M507,254.9c85.1,0,77.1,143.3,162.3,143.3"/>
	<path class="st0" d="M507,254.9c85.1,0,46.2,186.5,150.3,186.5"/>
	<path class="st0" d="M679.2,57.2c75.6,0,41.6-14.9,117.2-14.9"/>
	<path class="st0" d="M679.2,57.2c75.6,0,41.6,0,117.2,0"/>
	<path class="st0" d="M679.2,57.2c75.6,0,41.6,14.9,117.2,14.9"/>
	<path class="st0" d="M679.2,131.6c75.6,0,41.6-29.7,117.2-29.7"/>
	<path class="st0" d="M679.2,131.6c75.6,0,41.6-14.9,117.2-14.9"/>
	<path class="st0" d="M679.2,131.6c75.6,0,41.6,0,117.2,0"/>
	<path class="st0" d="M679.2,131.6c75.6,0,41.6,14.9,117.2,14.9"/>
	<path class="st0" d="M679.2,131.6c75.6,0,41.6,29.7,117.2,29.7"/>
	<path class="st0" d="M679.2,198.5c75.6,0,41.6-8.4,117.2-8.4"/>
	<path class="st0" d="M679.2,198.5c75.6,0,41.6,7.4,117.2,7.4"/>
	<path class="st0" d="M679.2,273.5c75.6,0,41.6-29.9,117.2-29.9"/>
	<path class="st0" d="M679.2,273.5c75.6,0,41.6,0,117.2,0"/>
	<path class="st0" d="M679.2,273.5c75.6,0,41.6,33.9,117.2,33.9"/>
	<path class="st0" d="M679.2,353.6c75.6,0,41.6-7.4,117.2-7.4"/>
	<path class="st0" d="M679.2,353.6c75.6,0,41.6,7.4,117.2,7.4"/>
	<path class="st0" d="M679.2,398.2c75.6,0,41.6-12.9,117.2-12.9"/>
	<path class="st0" d="M679.2,398.2c75.6,0,41.6,15.4,117.2,15.4"/>
	<path class="st0" d="M679.2,441.4c75.6,0,41.6,0,117.2,0"/>
	<circle class="st1" cx="679.2" cy="131.6" r="3.3"/>
	<circle class="st1" cx="679.2" cy="198.5" r="3.3"/>
	<circle class="st1" cx="679.2" cy="273.5" r="3.3"/>
	<circle class="st1" cx="679.2" cy="353.6" r="3.3"/>
	<circle class="st1" cx="679.2" cy="398.2" r="3.3"/>
	<circle class="st1" cx="679.2" cy="441.4" r="3.3"/>
	<path class="st0" d="M342.4,97c116.6,0,70.2,157.7,167.3,157.7"/>
	<path class="st0" d="M335.4,223.2c110.9,0,54,31.5,174.3,31.5"/>
	<path class="st0" d="M365.3,317.8c69.1,0,33.6-63.1,144.4-63.1"/>
	<path class="st0" d="M362.2,380.9c96.1,0,50.3-126.2,135.5-126.2"/>
	<path class="st0" d="M217.3,65c63.6,0,53.6,32.1,117.2,32.1"/>
	<path class="st0" d="M217.3,86c63.6,0,53.6,11,117.2,11"/>
	<path class="st2" d="M354.5,97"/>
	<path class="st0" d="M217.3,108c63.6,0,53.6-11,117.2-11"/>
	<path class="st0" d="M217.3,129.1c63.6,0,53.6-32.1,117.2-32.1"/>
	<path class="st0" d="M217.3,181.1c63.6,0,53.6,42.1,117.2,42.1"/>
	<path class="st0" d="M217.3,202.2c63.6,0,53.6,21,117.2,21"/>
	<path class="st0" d="M217.3,223.2c63.6,0,53.6,0,117.2,0"/>
	<path class="st0" d="M217.3,244.2c63.6,0,53.6-21,117.2-21"/>
	<path class="st0" d="M217.3,265.3c63.6,0,53.6-42.1,117.2-42.1"/>
	<path class="st0" d="M217.3,307.3c63.6,0,53.6,10.5,117.2,10.5"/>
	<path class="st0" d="M217.3,328.4c63.6,0,53.6-10.5,117.2-10.5"/>
	<path class="st0" d="M217.3,370.4c63.6,0,53.6,10.5,117.2,10.5"/>
	<path class="st0" d="M217.3,391.4c63.6,0,53.6-10.5,117.2-10.5"/>
</g>
<g id="Livello_1_1_">
	<rect x="294.6" y="371.7" class="st3" width="88.3" height="18.1"/>
	<rect x="303.9" y="309.4" class="st3" width="70" height="18.1"/>
	<rect x="296.7" y="214.1" class="st3" width="84.3" height="18.1"/>
	<rect x="308.5" y="88" class="st3" width="60.6" height="18.1"/>
	<rect x="653.1" y="47.5" class="st3" width="53.3" height="19.4"/>
	<rect x="656.6" y="122.5" class="st3" width="47.2" height="18.1"/>
	<rect x="656.2" y="189.9" class="st3" width="47.2" height="18.1"/>
	<rect x="638.2" y="264.5" class="st3" width="83.1" height="18.1"/>
	<rect x="641.7" y="344.4" class="st3" width="77.1" height="18.1"/>
	<rect x="650.9" y="389" class="st3" width="59" height="18.1"/>
	<rect x="632.9" y="432.6" class="st3" width="95" height="18.1"/>
	<g class="st4">
		<path d="M660.9,56c0,0.2,0.1,0.3,0.2,0.5c0.1,0.1,0.2,0.2,0.4,0.3s0.3,0.1,0.6,0.2s0.4,0.1,0.6,0.2s0.4,0.1,0.6,0.2
			s0.3,0.2,0.4,0.4c0.1,0.2,0.2,0.4,0.2,0.7c0,0.4-0.2,0.8-0.5,1.1s-0.7,0.5-1.3,0.5s-1-0.1-1.3-0.4c-0.3-0.2-0.5-0.6-0.5-1h0.7
			c0,0.2,0.1,0.4,0.3,0.6c0.2,0.1,0.4,0.2,0.7,0.2s0.6-0.1,0.8-0.3s0.3-0.4,0.3-0.6s-0.1-0.4-0.2-0.5c-0.1-0.1-0.2-0.2-0.4-0.3
			s-0.3-0.1-0.6-0.2c-0.2,0-0.4-0.1-0.6-0.2c-0.2-0.1-0.4-0.1-0.6-0.2s-0.3-0.2-0.4-0.4c-0.1-0.2-0.2-0.4-0.2-0.7
			c0-0.4,0.2-0.8,0.5-1.1s0.7-0.4,1.2-0.4s0.9,0.1,1.2,0.3s0.5,0.6,0.5,1h-0.8c0-0.2-0.1-0.4-0.3-0.5s-0.4-0.2-0.7-0.2
			s-0.5,0.1-0.7,0.2C661,55.4,660.9,55.7,660.9,56z"/>
		<path d="M668.4,55c0.3,0.3,0.5,0.6,0.5,1.1s-0.1,0.8-0.4,1.1s-0.7,0.4-1.4,0.4h-1v2.1h-0.7v-5.2h1.7
			C667.6,54.6,668.1,54.7,668.4,55z M666,57.1h1c0.4,0,0.7-0.1,0.8-0.3c0.2-0.2,0.3-0.4,0.3-0.7c0-0.7-0.4-1-1.1-1h-1V57.1z"/>
		<path d="M673,54.6v0.5h-2.1v1.8h1.8v0.5h-1.8v1.8h2.1v0.5h-2.8v-5.2L673,54.6L673,54.6z"/>
		<path d="M678.3,59.8l-0.4-1.1h-2.3l-0.4,1.1h-0.7l1.9-5.2h0.8l1.9,5.2H678.3z M675.7,58.1h1.9l-1-2.7L675.7,58.1z"/>
		<path d="M681.1,59.8h-0.7v-5.2h0.7V57l2.1-2.4h0.9l-2.4,2.6l2.4,2.6h-0.9l-2.1-2.3V59.8z"/>
		<path d="M685.5,59.8v-5.2h0.7v5.2H685.5z"/>
		<path d="M691.4,54.6h0.7v5.2h-0.7l-2.7-4.1v4.1H688v-5.2h0.7l2.7,4.1V54.6z"/>
		<path d="M696.1,59.8c-0.7,0-1.3-0.2-1.8-0.8s-0.8-1.1-0.8-1.9s0.3-1.4,0.8-1.9s1.1-0.7,1.9-0.7c0.5,0,1,0.1,1.4,0.4
			s0.7,0.6,0.9,1.1h-0.8c-0.3-0.6-0.8-0.9-1.6-0.9c-0.6,0-1,0.2-1.4,0.6c-0.4,0.4-0.6,0.9-0.6,1.5s0.2,1.1,0.6,1.5
			c0.4,0.4,0.8,0.6,1.4,0.6s1-0.2,1.3-0.5s0.5-0.7,0.6-1.3h-2.1V57h2.9v0.5c-0.1,0.7-0.3,1.2-0.8,1.7
			C697.4,59.6,696.8,59.8,696.1,59.8z"/>
	</g>
	<text transform="matrix(1 0 0 1 801.4869 44.5851)" class="st5 st6">has spoken about environmental issues in various occasions</text>
	<text transform="matrix(1 0 0 1 801.4869 59.4551)" class="st5 st6">has spoken</text>
	<text transform="matrix(1 0 0 1 801.4869 74.3258)" class="st5 st6">has said he would cancel</text>
	<g class="st4">
		<path d="M664.9,133.4c-0.5-0.5-0.8-1.1-0.8-1.9s0.3-1.4,0.8-1.9s1.1-0.7,1.9-0.7c0.5,0,1,0.1,1.4,0.4s0.7,0.6,0.9,1.1h-0.8
			c-0.3-0.6-0.8-0.9-1.6-0.9c-0.6,0-1,0.2-1.4,0.6s-0.6,0.9-0.6,1.5s0.2,1.1,0.6,1.5c0.4,0.4,0.8,0.6,1.4,0.6c0.3,0,0.7-0.1,0.9-0.2
			c0.3-0.2,0.5-0.4,0.6-0.7h0.8c-0.2,0.5-0.5,0.8-0.9,1.1c-0.4,0.3-0.9,0.4-1.4,0.4C666,134.2,665.4,133.9,664.9,133.4z"/>
		<path d="M674.4,134.1L674,133h-2.3l-0.4,1.1h-0.7l1.9-5.2h0.8l1.9,5.2H674.4z M671.9,132.4h1.9l-1-2.7L671.9,132.4z"/>
		<path d="M680,128.9h0.7v5.2H680l-2.7-4.1v4.1h-0.7v-5.2h0.7l2.7,4.1V128.9z"/>
		<path d="M682.9,133.4c-0.5-0.5-0.8-1.1-0.8-1.9s0.3-1.4,0.8-1.9s1.1-0.7,1.9-0.7c0.5,0,1,0.1,1.4,0.4s0.7,0.6,0.9,1.1h-0.8
			c-0.3-0.6-0.8-0.9-1.6-0.9c-0.6,0-1,0.2-1.4,0.6s-0.6,0.9-0.6,1.5s0.2,1.1,0.6,1.5c0.4,0.4,0.8,0.6,1.4,0.6c0.3,0,0.7-0.1,0.9-0.2
			c0.3-0.2,0.5-0.4,0.6-0.7h0.8c-0.2,0.5-0.5,0.8-0.9,1.1c-0.4,0.3-0.9,0.4-1.4,0.4C684.1,134.2,683.4,133.9,682.9,133.4z"/>
		<path d="M691.6,128.9v0.5h-2.1v1.8h1.8v0.5h-1.8v1.8h2.1v0.5h-2.8v-5.2h2.8V128.9z"/>
		<path d="M693.3,128.9h0.7v4.7h1.8v0.5h-2.5V128.9z"/>
	</g>
	<text transform="matrix(1 0 0 1 801.4869 104.0681)" class="st5 st6">has promised to cancel the Paris Agreement</text>
	<text transform="matrix(1 0 0 1 801.4869 118.9385)" class="st5 st6">has said that he would cancel Obama&apos;s plan</text>
	<text transform="matrix(1 0 0 1 801.4869 133.8096)" class="st5 st6">wants to cancel the Paris accords</text>
	<text transform="matrix(1 0 0 1 801.4869 148.6807)" class="st5 st6">does not abide by the agreement</text>
	<text transform="matrix(1 0 0 1 801.4869 163.5515)" class="st5 st6">withdraws from Paris Agreement </text>
	<g class="st4">
		<path d="M672,196.3h0.7v5.2H672v-2.3h-2.6v2.3h-0.7v-5.2h0.7v2.3h2.6V196.3z"/>
		<path d="M676.8,201.6c-0.7,0-1.4-0.3-1.9-0.8s-0.8-1.1-0.8-1.9s0.3-1.4,0.8-1.9s1.1-0.7,1.9-0.7s1.4,0.2,1.9,0.7s0.8,1.1,0.8,1.9
			s-0.3,1.4-0.8,1.9S677.5,201.6,676.8,201.6z M678.2,200.4c0.4-0.4,0.5-0.9,0.5-1.5s-0.2-1.1-0.5-1.5c-0.4-0.4-0.8-0.6-1.4-0.6
			c-0.6,0-1,0.2-1.4,0.6s-0.6,0.9-0.6,1.5s0.2,1.1,0.6,1.5s0.8,0.6,1.4,0.6C677.3,201,677.8,200.8,678.2,200.4z"/>
		<path d="M684.4,201.5l-0.4-1.1h-2.3l-0.4,1.1h-0.7l1.9-5.2h0.8l1.9,5.2H684.4z M681.9,199.8h1.9l-1-2.7L681.9,199.8z"/>
		<path d="M690.4,196.3l-1.6,2.6l1.6,2.6h-0.8l-1.3-2l-1.2,2h-0.8l1.6-2.6l-1.6-2.6h0.8l1.3,2.1l1.2-2.1H690.4z"/>
	</g>
	<text transform="matrix(1 0 0 1 801.4869 192.293)" class="st5 st6">has called climate change a hoax</text>
	<text transform="matrix(1 0 0 1 801.4869 208.1631)" class="st5 st6">has repeatedly called climate change a hoax </text>
	<text transform="matrix(1 0 0 1 801.4869 219.1631)" class="st5 st6">and said he&apos;s not a believer</text>
	<g class="st4">
		<path d="M649.2,276.1l-0.4-1.1h-2.3l-0.4,1.1h-0.7l1.9-5.2h0.8l1.9,5.2H649.2z M646.7,274.4h1.9l-1-2.7L646.7,274.4z"/>
		<path d="M653.1,270.9c0.8,0,1.5,0.2,2,0.7s0.7,1.1,0.7,1.9s-0.2,1.4-0.7,1.9s-1.1,0.7-2,0.7h-1.6v-5.2H653.1z M652.1,275.6h1
			c0.7,0,1.2-0.2,1.5-0.5c0.3-0.4,0.5-0.9,0.5-1.5s-0.2-1.1-0.5-1.5s-0.8-0.5-1.5-0.5h-1V275.6z"/>
		<path d="M662.5,270.9v5.2h-0.7v-3.8l-1.7,3.8h-0.4l-1.7-3.8v3.8h-0.7v-5.2h0.7l2,4.3l2-4.3H662.5L662.5,270.9z"/>
		<path d="M664.3,276.1v-5.2h0.7v5.2H664.3z"/>
		<path d="M670.1,270.9h0.7v5.2h-0.7l-2.7-4.1v4.1h-0.7v-5.2h0.7l2.7,4.1V270.9z"/>
		<path d="M672.5,276.1v-5.2h0.7v5.2H672.5z"/>
		<path d="M675.5,272.3c0,0.2,0.1,0.3,0.2,0.5c0.1,0.1,0.2,0.2,0.4,0.3c0.2,0.1,0.3,0.1,0.6,0.2s0.4,0.1,0.6,0.2s0.4,0.1,0.6,0.2
			s0.3,0.2,0.4,0.4c0.1,0.2,0.2,0.4,0.2,0.7c0,0.4-0.2,0.8-0.5,1.1c-0.3,0.3-0.7,0.5-1.3,0.5s-1-0.1-1.3-0.4c-0.3-0.2-0.5-0.6-0.5-1
			h0.7c0,0.2,0.1,0.4,0.3,0.6c0.2,0.1,0.4,0.2,0.7,0.2s0.6-0.1,0.8-0.3c0.2-0.2,0.3-0.4,0.3-0.6s-0.1-0.4-0.2-0.5
			c-0.1-0.1-0.2-0.2-0.4-0.3c-0.2-0.1-0.3-0.1-0.6-0.2c-0.2,0-0.4-0.1-0.6-0.2c-0.2-0.1-0.4-0.1-0.6-0.2s-0.3-0.2-0.4-0.4
			c-0.1-0.2-0.2-0.4-0.2-0.7c0-0.4,0.2-0.8,0.5-1.1s0.7-0.4,1.2-0.4s0.9,0.1,1.2,0.3c0.3,0.2,0.5,0.6,0.5,1h-0.8
			c0-0.2-0.1-0.4-0.3-0.5s-0.4-0.2-0.7-0.2s-0.5,0.1-0.7,0.2C675.6,271.8,675.5,272,675.5,272.3z"/>
		<path d="M679.7,271.4v-0.5h3.4v0.5h-1.4v4.7H681v-4.7H679.7z"/>
		<path d="M685.3,274v2.1h-0.7v-5.2h1.7c0.6,0,1,0.1,1.3,0.4s0.5,0.6,0.5,1s-0.1,0.8-0.3,1c-0.2,0.3-0.6,0.4-1,0.5l1.4,2.2h-0.9
			l-1.4-2.1h-0.6V274z M685.3,271.4v2h1c0.4,0,0.7-0.1,0.8-0.3c0.2-0.2,0.3-0.4,0.3-0.7c0-0.7-0.4-1-1.1-1H685.3z"/>
		<path d="M693.4,276.1L693,275h-2.3l-0.4,1.1h-0.7l1.9-5.2h0.8l1.9,5.2H693.4z M690.9,274.4h1.9l-1-2.7L690.9,274.4z"/>
		<path d="M695.4,271.4v-0.5h3.4v0.5h-1.4v4.7h-0.6v-4.7H695.4z"/>
		<path d="M700.3,276.1v-5.2h0.7v5.2H700.3z"/>
		<path d="M705.1,276.2c-0.7,0-1.4-0.3-1.9-0.8s-0.8-1.1-0.8-1.9s0.3-1.4,0.8-1.9s1.1-0.7,1.9-0.7s1.4,0.2,1.9,0.7s0.8,1.1,0.8,1.9
			s-0.3,1.4-0.8,1.9S705.9,276.2,705.1,276.2z M706.5,275c0.4-0.4,0.5-0.9,0.5-1.5s-0.2-1.1-0.5-1.5c-0.4-0.4-0.8-0.6-1.4-0.6
			s-1,0.2-1.4,0.6s-0.6,0.9-0.6,1.5s0.2,1.1,0.6,1.5c0.4,0.4,0.8,0.6,1.4,0.6C705.7,275.5,706.1,275.4,706.5,275z"/>
		<path d="M712.6,270.9h0.7v5.2h-0.7l-2.7-4.1v4.1h-0.7v-5.2h0.7l2.7,4.1V270.9z"/>
	</g>
	<text transform="matrix(1 0 0 1 801.4869 245.9053)" class="st5 st6">administration to be really clashing </text>
	<text transform="matrix(1 0 0 1 801.4869 256.9053)" class="st5 st6">with the environmental community</text>
	<text transform="matrix(1 0 0 1 801.4869 275.7775)" class="st5 st6">administration and we should expect </text>
	<text transform="matrix(1 0 0 1 801.4869 286.7775)" class="st5 st6">to see steady scientific report coming out</text>
	<text transform="matrix(1 0 0 1 801.4869 309.6467)" class="st5 st6">administration could not take some </text>
	<text transform="matrix(1 0 0 1 801.4869 320.6467)" class="st5 st6">of the stances articulated during the campaign</text>
	<g class="st4">
		<path d="M653.3,350.8v0.5h-2.1v1.8h1.8v0.5h-1.8v1.8h2.1v0.5h-2.8v-5.2h2.8V350.8z"/>
		<path d="M658.8,350.8l-1.6,2.6l1.6,2.6H658l-1.3-2l-1.2,2h-0.7l1.6-2.6l-1.6-2.6h0.8l1.3,2.1l1.2-2.1H658.8z"/>
		<path d="M663.3,351.2c0.3,0.3,0.5,0.6,0.5,1.1s-0.1,0.8-0.4,1.1s-0.7,0.4-1.4,0.4h-1v2.1h-0.7v-5.2h1.7
			C662.6,350.8,663,350.9,663.3,351.2z M661,353.3h1c0.4,0,0.7-0.1,0.8-0.3c0.2-0.2,0.3-0.4,0.3-0.7c0-0.7-0.4-1-1.1-1h-1V353.3z"/>
		<path d="M668,350.8v0.5h-2.1v1.8h1.8v0.5h-1.8v1.8h2.1v0.5h-2.8v-5.2h2.8V350.8z"/>
		<path d="M670.1,355.3c-0.5-0.5-0.8-1.1-0.8-1.9s0.3-1.4,0.8-1.9s1.1-0.7,1.9-0.7c0.5,0,1,0.1,1.4,0.4s0.7,0.6,0.9,1.1h-0.8
			c-0.3-0.6-0.8-0.9-1.6-0.9c-0.6,0-1,0.2-1.4,0.6s-0.6,0.9-0.6,1.5s0.2,1.1,0.6,1.5s0.8,0.6,1.4,0.6c0.3,0,0.7-0.1,0.9-0.2
			c0.3-0.2,0.5-0.4,0.6-0.7h0.8c-0.2,0.5-0.5,0.8-0.9,1.1c-0.4,0.3-0.9,0.4-1.4,0.4C671.3,356,670.6,355.8,670.1,355.3z"/>
		<path d="M675.8,351.3v-0.5h3.4v0.5h-1.4v4.7h-0.7v-4.7H675.8z"/>
		<path d="M684.3,356l-0.4-1.1h-2.3l-0.4,1.1h-0.7l1.9-5.2h0.8l1.9,5.2H684.3z M681.8,354.3h1.9l-1-2.7L681.8,354.3z"/>
		<path d="M686.3,351.3v-0.5h3.4v0.5h-1.4v4.7h-0.7v-4.7H686.3z"/>
		<path d="M691.2,356v-5.2h0.7v5.2H691.2z"/>
		<path d="M696,356c-0.7,0-1.4-0.3-1.9-0.8s-0.8-1.1-0.8-1.9s0.3-1.4,0.8-1.9s1.1-0.7,1.9-0.7s1.4,0.2,1.9,0.7s0.8,1.1,0.8,1.9
			s-0.3,1.4-0.8,1.9C697.4,355.8,696.8,356,696,356z M697.4,354.9c0.4-0.4,0.5-0.9,0.5-1.5s-0.2-1.1-0.5-1.5
			c-0.4-0.4-0.8-0.6-1.4-0.6s-1,0.2-1.4,0.6s-0.6,0.9-0.6,1.5s0.2,1.1,0.6,1.5c0.4,0.4,0.8,0.6,1.4,0.6
			C696.6,355.4,697,355.2,697.4,354.9z"/>
		<path d="M703.5,350.8h0.7v5.2h-0.7l-2.7-4.1v4.1h-0.7v-5.2h0.7l2.7,4.1V350.8z"/>
		<path d="M706.5,352.2c0,0.2,0.1,0.3,0.2,0.5c0.1,0.1,0.2,0.2,0.4,0.3c0.2,0.1,0.3,0.1,0.6,0.2s0.4,0.1,0.6,0.2s0.4,0.1,0.6,0.2
			s0.3,0.2,0.4,0.4c0.1,0.2,0.2,0.4,0.2,0.7c0,0.4-0.2,0.8-0.5,1.1c-0.3,0.3-0.7,0.5-1.3,0.5s-1-0.1-1.3-0.4c-0.3-0.2-0.5-0.6-0.5-1
			h0.7c0,0.2,0.1,0.4,0.3,0.6c0.2,0.1,0.4,0.2,0.7,0.2s0.6-0.1,0.8-0.3c0.2-0.2,0.3-0.4,0.3-0.6s-0.1-0.4-0.2-0.5
			c-0.1-0.1-0.2-0.2-0.4-0.3c-0.2-0.1-0.3-0.1-0.6-0.2c-0.2,0-0.4-0.1-0.6-0.2c-0.2-0.1-0.4-0.1-0.6-0.2s-0.3-0.2-0.4-0.4
			c-0.1-0.2-0.2-0.4-0.2-0.7c0-0.4,0.2-0.8,0.5-1.1s0.7-0.4,1.2-0.4s0.9,0.1,1.2,0.3c0.3,0.2,0.5,0.6,0.5,1h-0.8
			c0-0.2-0.1-0.4-0.3-0.5s-0.4-0.2-0.7-0.2s-0.5,0.1-0.7,0.2C706.6,351.7,706.5,351.9,706.5,352.2z"/>
	</g>
	<text transform="matrix(1 0 0 1 801.4869 348.3889)" class="st5 st6">it is certainly possible</text>
	<text transform="matrix(1 0 0 1 801.4869 363.2599)" class="st5 st6">can do to slow progress on climate change</text>
	<g class="st4">
		<path d="M662,395.4v0.5h-2.1v1.8h1.8v0.5h-1.8v1.8h2.1v0.5h-2.8v-5.2h2.8V395.4z"/>
		<path d="M663.7,395.4h0.7v4.7h1.8v0.5h-2.5V395.4z"/>
		<path d="M670.2,395.4v0.5h-2.1v1.8h1.8v0.5h-1.8v1.8h2.1v0.5h-2.8v-5.2h2.8V395.4z"/>
		<path d="M672.4,399.9c-0.5-0.5-0.8-1.1-0.8-1.9s0.3-1.4,0.8-1.9s1.1-0.7,1.9-0.7c0.5,0,1,0.1,1.4,0.4s0.7,0.6,0.9,1.1h-0.8
			c-0.3-0.6-0.8-0.9-1.6-0.9c-0.6,0-1,0.2-1.4,0.6c-0.4,0.4-0.6,0.9-0.6,1.5s0.2,1.1,0.6,1.5c0.4,0.4,0.8,0.6,1.4,0.6
			c0.3,0,0.7-0.1,0.9-0.2c0.3-0.2,0.5-0.4,0.6-0.7h0.8c-0.2,0.5-0.5,0.8-0.9,1.1s-0.9,0.4-1.4,0.4
			C673.5,400.6,672.9,400.4,672.4,399.9z"/>
		<path d="M678.1,395.9v-0.5h3.4v0.5h-1.4v4.7h-0.7v-4.7H678.1z"/>
		<path d="M683,400.6v-5.2h0.7v5.2H683z"/>
		<path d="M687.8,400.6c-0.7,0-1.4-0.3-1.9-0.8s-0.8-1.1-0.8-1.9s0.3-1.4,0.8-1.9s1.1-0.7,1.9-0.7c0.7,0,1.4,0.2,1.9,0.7
			s0.8,1.1,0.8,1.9c0,0.8-0.3,1.4-0.8,1.9C689.1,400.4,688.5,400.6,687.8,400.6z M689.2,399.5c0.4-0.4,0.5-0.9,0.5-1.5
			s-0.2-1.1-0.5-1.5c-0.4-0.4-0.8-0.6-1.4-0.6c-0.6,0-1,0.2-1.4,0.6c-0.4,0.4-0.6,0.9-0.6,1.5s0.2,1.1,0.6,1.5
			c0.4,0.4,0.8,0.6,1.4,0.6C688.3,400,688.8,399.8,689.2,399.5z"/>
		<path d="M695.3,395.4h0.7v5.2h-0.7l-2.7-4.1v4.1h-0.7v-5.2h0.7l2.7,4.1V395.4z"/>
		<path d="M698.3,396.8c0,0.2,0.1,0.3,0.2,0.5c0.1,0.1,0.2,0.2,0.4,0.3s0.3,0.1,0.6,0.2c0.3,0.1,0.4,0.1,0.6,0.2
			c0.2,0.1,0.4,0.1,0.6,0.2c0.2,0.1,0.3,0.2,0.4,0.4c0.1,0.2,0.2,0.4,0.2,0.7c0,0.4-0.2,0.8-0.5,1.1s-0.7,0.5-1.3,0.5
			c-0.5,0-1-0.1-1.3-0.4c-0.3-0.2-0.5-0.6-0.5-1h0.7c0,0.2,0.1,0.4,0.3,0.6c0.2,0.1,0.4,0.2,0.7,0.2s0.6-0.1,0.8-0.3
			s0.3-0.4,0.3-0.6s-0.1-0.4-0.2-0.5c-0.1-0.1-0.2-0.2-0.4-0.3s-0.3-0.1-0.6-0.2c-0.2,0-0.4-0.1-0.6-0.2c-0.2-0.1-0.4-0.1-0.6-0.2
			c-0.2-0.1-0.3-0.2-0.4-0.4c-0.1-0.2-0.2-0.4-0.2-0.7c0-0.4,0.2-0.8,0.5-1.1s0.7-0.4,1.2-0.4s0.9,0.1,1.2,0.3s0.5,0.6,0.5,1h-0.8
			c0-0.2-0.1-0.4-0.3-0.5s-0.4-0.2-0.7-0.2s-0.5,0.1-0.7,0.2C698.3,396.3,698.3,396.5,698.3,396.8z"/>
	</g>
	<text transform="matrix(1 0 0 1 801.4871 387.5097)" class="st5 st6">has been elected president, someone who does </text>
	<text transform="matrix(1 0 0 1 801.4871 398.5097)" class="st5 st6">not accept the science behind climate change</text>
	<text transform="matrix(1 0 0 1 801.4869 415.8734)" class="st5 st6">at the first presidential debate</text>
	<g class="st4">
		<path d="M644,439c0.3,0.3,0.5,0.6,0.5,1.1s-0.1,0.8-0.4,1.1c-0.3,0.3-0.7,0.4-1.4,0.4h-1v2.1H641v-5.2h1.7
			C643.3,438.6,643.7,438.7,644,439z M641.7,441.1h1c0.4,0,0.7-0.1,0.8-0.3c0.2-0.2,0.3-0.4,0.3-0.7c0-0.7-0.4-1-1.1-1h-1V441.1z"/>
		<path d="M648.7,438.6v0.5h-2.1v1.8h1.8v0.5h-1.8v1.8h2.1v0.5h-2.8v-5.2L648.7,438.6L648.7,438.6z"/>
		<path d="M651,441.6v2.1h-0.7v-5.2h1.7c0.6,0,1,0.1,1.3,0.4c0.3,0.3,0.5,0.6,0.5,1s-0.1,0.8-0.3,1c-0.2,0.3-0.6,0.4-1,0.5l1.4,2.2
			H653l-1.4-2.1L651,441.6L651,441.6z M651,439.1v2h1c0.4,0,0.7-0.1,0.8-0.3c0.2-0.2,0.3-0.4,0.3-0.7c0-0.7-0.4-1-1.1-1H651z"/>
		<path d="M656.1,440c0,0.2,0.1,0.3,0.2,0.5c0.1,0.1,0.2,0.2,0.4,0.3s0.3,0.1,0.6,0.2c0.2,0,0.4,0.1,0.6,0.2
			c0.2,0.1,0.4,0.1,0.6,0.2c0.2,0.1,0.3,0.2,0.4,0.4c0.1,0.2,0.2,0.4,0.2,0.7c0,0.4-0.2,0.8-0.5,1.1s-0.7,0.5-1.3,0.5
			c-0.5,0-1-0.1-1.3-0.4c-0.3-0.2-0.5-0.6-0.5-1h0.7c0,0.2,0.1,0.4,0.3,0.6c0.2,0.1,0.4,0.2,0.7,0.2s0.6-0.1,0.8-0.3
			s0.3-0.4,0.3-0.6s-0.1-0.4-0.2-0.5c-0.1-0.1-0.2-0.2-0.4-0.3s-0.3-0.1-0.6-0.2c-0.2,0-0.4-0.1-0.6-0.2c-0.2-0.1-0.4-0.1-0.6-0.2
			c-0.2-0.1-0.3-0.2-0.4-0.4c-0.1-0.2-0.2-0.4-0.2-0.7c0-0.4,0.2-0.8,0.5-1.1s0.7-0.4,1.2-0.4s0.9,0.1,1.2,0.3s0.5,0.6,0.5,1h-0.8
			c0-0.2-0.1-0.4-0.3-0.5s-0.4-0.2-0.7-0.2s-0.5,0.1-0.7,0.2C656.2,439.5,656.1,439.7,656.1,440z"/>
		<path d="M662.9,443.8c-0.7,0-1.4-0.3-1.9-0.8s-0.8-1.1-0.8-1.9s0.3-1.4,0.8-1.9s1.1-0.7,1.9-0.7s1.4,0.2,1.9,0.7s0.8,1.1,0.8,1.9
			s-0.3,1.4-0.8,1.9C664.3,443.6,663.7,443.8,662.9,443.8z M664.3,442.6c0.4-0.4,0.5-0.9,0.5-1.5s-0.2-1.1-0.5-1.5
			c-0.4-0.4-0.8-0.6-1.4-0.6s-1,0.2-1.4,0.6c-0.4,0.4-0.6,0.9-0.6,1.5s0.2,1.1,0.6,1.5c0.4,0.4,0.8,0.6,1.4,0.6
			C663.5,443.2,664,443,664.3,442.6z"/>
		<path d="M670.5,438.6h0.7v5.2h-0.7l-2.7-4.1v4.1h-0.7v-5.2h0.7l2.7,4.1V438.6z"/>
		<path d="M676.4,443.8l-0.4-1.1h-2.3l-0.4,1.1h-0.7l1.9-5.2h0.8l1.9,5.2H676.4z M673.9,442.1h1.9l-1-2.7L673.9,442.1z"/>
		<path d="M678.6,438.6h0.7v4.7h1.8v0.5h-2.5V438.6z"/>
		<path d="M687.7,443.8c-0.7,0-1.4-0.3-1.9-0.8s-0.8-1.1-0.8-1.9s0.3-1.4,0.8-1.9s1.1-0.7,1.9-0.7s1.4,0.2,1.9,0.7s0.8,1.1,0.8,1.9
			s-0.3,1.4-0.8,1.9S688.4,443.8,687.7,443.8z M689.1,442.6c0.4-0.4,0.5-0.9,0.5-1.5s-0.2-1.1-0.5-1.5c-0.4-0.4-0.8-0.6-1.4-0.6
			c-0.6,0-1,0.2-1.4,0.6c-0.4,0.4-0.6,0.9-0.6,1.5s0.2,1.1,0.6,1.5s0.8,0.6,1.4,0.6C688.3,443.2,688.7,443,689.1,442.6z"/>
		<path d="M694.8,439c0.3,0.3,0.5,0.6,0.5,1.1s-0.1,0.8-0.4,1.1c-0.3,0.3-0.7,0.4-1.4,0.4h-1v2.1h-0.7v-5.2h1.7
			C694.1,438.6,694.5,438.7,694.8,439z M692.5,441.1h1c0.4,0,0.7-0.1,0.8-0.3c0.2-0.2,0.3-0.4,0.3-0.7c0-0.7-0.4-1-1.1-1h-1V441.1z"
			/>
		<path d="M696.7,443.8v-5.2h0.7v5.2H696.7z"/>
		<path d="M702.5,438.6h0.7v5.2h-0.7l-2.7-4.1v4.1h-0.7v-5.2h0.7l2.7,4.1V438.6z"/>
		<path d="M705,443.8v-5.2h0.7v5.2H705z"/>
		<path d="M709.7,443.8c-0.7,0-1.4-0.3-1.9-0.8s-0.8-1.1-0.8-1.9s0.3-1.4,0.8-1.9s1.1-0.7,1.9-0.7s1.4,0.2,1.9,0.7s0.8,1.1,0.8,1.9
			s-0.3,1.4-0.8,1.9S710.5,443.8,709.7,443.8z M711.1,442.6c0.4-0.4,0.5-0.9,0.5-1.5s-0.2-1.1-0.5-1.5c-0.4-0.4-0.8-0.6-1.4-0.6
			c-0.6,0-1,0.2-1.4,0.6c-0.4,0.4-0.6,0.9-0.6,1.5s0.2,1.1,0.6,1.5s0.8,0.6,1.4,0.6C710.3,443.2,710.8,443,711.1,442.6z"/>
		<path d="M717.3,438.6h0.7v5.2h-0.7l-2.7-4.1v4.1h-0.8v-5.2h0.7l2.7,4.1L717.3,438.6L717.3,438.6z"/>
	</g>
	<text transform="matrix(1 0 0 1 801.4869 443.6153)" class="st5 st6">has left little doubt where he stands </text>
	<text transform="matrix(1 0 0 1 801.4869 453.6153)" class="st5 st6">on the issue of climate change</text>
	<g class="st4">
		<path d="M331.2,94h0.7v5.2h-0.7l-2.7-4.1v4.1h-0.7V94h0.7l2.7,4.1L331.2,94L331.2,94z"/>
		<path d="M337.2,99.2l-0.4-1.1h-2.3l-0.4,1.1h-0.7l1.9-5.2h0.8l1.9,5.2H337.2z M334.7,97.5h1.9l-1-2.7L334.7,97.5z"/>
		<path d="M344.7,94v5.2H344v-3.8l-1.7,3.8h-0.5l-1.7-3.8v3.8h-0.7V94h0.7l2,4.3l2-4.3H344.7z"/>
		<path d="M349.2,94v0.5h-2.1v1.8h1.8v0.5h-1.8v1.8h2.1v0.5h-2.8v-5.2L349.2,94L349.2,94z"/>
	</g>
	<text transform="matrix(1 0 0 1 181.7451 68.3705)" class="st5 st6">Donald</text>
	<text transform="matrix(1 0 0 1 184.5186 89.4012)" class="st5 st6">Mister</text>
	<text transform="matrix(1 0 0 1 142.6436 111.4633)" class="st5 st6">Now that Donald</text>
	<text transform="matrix(1 0 0 1 152.7119 132.494)" class="st5 st6">even If Donald</text>
	<g class="st4">
		<path d="M312,220.1v0.5h-2.1v1.8h1.8v0.5h-1.8v1.8h2.1v0.5h-2.8V220h2.8V220.1z"/>
		<path d="M317.4,220.1l-1.6,2.6l1.6,2.6h-0.8l-1.3-2l-1.2,2h-0.8l1.6-2.6l-1.6-2.6h0.8l1.3,2.1l1.2-2.1H317.4z"/>
		<path d="M322,220.5c0.3,0.3,0.5,0.6,0.5,1.1s-0.1,0.8-0.4,1.1c-0.3,0.3-0.7,0.4-1.4,0.4h-1v2.1H319V220h1.7
			C321.2,220.1,321.7,220.2,322,220.5z M319.6,222.6h1c0.4,0,0.7-0.1,0.8-0.3c0.2-0.2,0.3-0.4,0.3-0.7c0-0.7-0.4-1-1.1-1h-1
			L319.6,222.6L319.6,222.6z"/>
		<path d="M326.6,220.1v0.5h-2.1v1.8h1.8v0.5h-1.8v1.8h2.1v0.5h-2.8V220h2.8V220.1z"/>
		<path d="M328.8,224.6c-0.5-0.5-0.8-1.1-0.8-1.9s0.3-1.4,0.8-1.9s1.1-0.7,1.9-0.7c0.5,0,1,0.1,1.4,0.4s0.7,0.6,0.9,1.1h-0.8
			c-0.3-0.6-0.8-0.9-1.6-0.9c-0.6,0-1,0.2-1.4,0.6s-0.6,0.9-0.6,1.5s0.2,1.1,0.6,1.5s0.8,0.6,1.4,0.6c0.3,0,0.7-0.1,0.9-0.2
			c0.3-0.2,0.5-0.4,0.6-0.7h0.8c-0.2,0.5-0.5,0.8-0.9,1.1c-0.4,0.3-0.9,0.4-1.4,0.4C329.9,225.3,329.3,225.1,328.8,224.6z"/>
		<path d="M334.5,220.6v-0.5h3.4v0.5h-1.4v4.7h-0.7v-4.7H334.5z"/>
		<path d="M343,225.3l-0.4-1.1h-2.3l-0.4,1.1h-0.7l1.9-5.2h0.8l1.9,5.2H343z M340.5,223.6h1.9l-1-2.7L340.5,223.6z"/>
		<path d="M344.9,220.6v-0.5h3.4v0.5h-1.4v4.7h-0.7v-4.7H344.9z"/>
		<path d="M349.9,225.3v-5.2h0.7v5.2H349.9z"/>
		<path d="M354.7,225.3c-0.7,0-1.4-0.3-1.9-0.8s-0.8-1.1-0.8-1.9s0.3-1.4,0.8-1.9s1.1-0.7,1.9-0.7s1.4,0.2,1.9,0.7s0.8,1.1,0.8,1.9
			s-0.3,1.4-0.8,1.9C356,225.1,355.4,225.3,354.7,225.3z M356.1,224.2c0.4-0.4,0.5-0.9,0.5-1.5s-0.2-1.1-0.5-1.5
			c-0.4-0.4-0.8-0.6-1.4-0.6s-1,0.2-1.4,0.6s-0.6,0.9-0.6,1.5s0.2,1.1,0.6,1.5s0.8,0.6,1.4,0.6S355.7,224.5,356.1,224.2z"/>
		<path d="M362.2,220.1h0.7v5.2h-0.7l-2.7-4.1v4.1h-0.7v-5.2h0.7l2.7,4.1L362.2,220.1L362.2,220.1z"/>
		<path d="M365.1,221.5c0,0.2,0.1,0.3,0.2,0.5s0.2,0.2,0.4,0.3c0.2,0.1,0.3,0.1,0.6,0.2c0.2,0,0.4,0.1,0.6,0.2s0.4,0.1,0.6,0.2
			s0.3,0.2,0.4,0.4c0.1,0.2,0.2,0.4,0.2,0.7c0,0.4-0.2,0.8-0.5,1.1s-0.7,0.5-1.3,0.5c-0.5,0-1-0.1-1.3-0.4c-0.3-0.2-0.5-0.6-0.5-1
			h0.7c0,0.2,0.1,0.4,0.3,0.6c0.2,0.1,0.4,0.2,0.7,0.2s0.6-0.1,0.8-0.3c0.2-0.2,0.3-0.4,0.3-0.6s-0.1-0.4-0.2-0.5s-0.2-0.2-0.4-0.3
			c-0.2-0.1-0.3-0.1-0.6-0.2c-0.2,0-0.4-0.1-0.6-0.2s-0.4-0.1-0.6-0.2s-0.3-0.2-0.4-0.4s-0.2-0.4-0.2-0.7c0-0.4,0.2-0.8,0.5-1.1
			c0.3-0.3,0.7-0.4,1.2-0.4s0.9,0.1,1.2,0.3s0.5,0.6,0.5,1h-0.8c0-0.2-0.1-0.4-0.3-0.5c-0.2-0.1-0.4-0.2-0.7-0.2s-0.5,0.1-0.7,0.2
			S365.1,221.2,365.1,221.5z"/>
	</g>
	<text transform="matrix(1 0 0 1 61.5401 184.556)" class="st5 st6">Given what we know, we can expect a</text>
	<text transform="matrix(1 0 0 1 13.1513 205.5869)" class="st5 st6">Here are some things we can probably expect from</text>
	<text transform="matrix(1 0 0 1 60.163 226.6176)" class="st5 st6">Looking forward there&apos;s a lot of things</text>
	<text transform="matrix(1 0 0 1 18.9618 247.6483)" class="st5 st6">[...] we should expect activist to be protesting the</text>
	<text transform="matrix(1 0 0 1 81.5498 268.6796)" class="st5 st6">[...] it&apos;s certainly possible that the</text>
	<g class="st4">
		<path d="M320.5,315.4v0.5h-2.1v1.8h1.8v0.5h-1.8v1.8h2.1v0.5h-2.8v-5.2h2.8V315.4z"/>
		<path d="M322.1,315.4h0.7v4.7h1.8v0.5h-2.5V315.4z"/>
		<path d="M328.7,315.4v0.5h-2.1v1.8h1.8v0.5h-1.8v1.8h2.1v0.5h-2.8v-5.2h2.8V315.4z"/>
		<path d="M330.8,319.9c-0.5-0.5-0.8-1.1-0.8-1.9s0.3-1.4,0.8-1.9s1.1-0.7,1.9-0.7c0.5,0,1,0.1,1.4,0.4s0.7,0.6,0.9,1.1h-0.8
			c-0.3-0.6-0.8-0.9-1.6-0.9c-0.6,0-1,0.2-1.4,0.6s-0.6,0.9-0.6,1.5s0.2,1.1,0.6,1.5s0.8,0.6,1.4,0.6c0.3,0,0.7-0.1,0.9-0.2
			c0.3-0.2,0.5-0.4,0.6-0.7h0.8c-0.2,0.5-0.5,0.8-0.9,1.1c-0.4,0.3-0.9,0.4-1.4,0.4C331.9,320.6,331.3,320.4,330.8,319.9z"/>
		<path d="M336.5,315.9v-0.5h3.4v0.5h-1.4v4.7h-0.7v-4.7H336.5z"/>
		<path d="M341.4,320.6v-5.2h0.7v5.2H341.4z"/>
		<path d="M346.2,320.6c-0.7,0-1.4-0.3-1.9-0.8s-0.8-1.1-0.8-1.9s0.3-1.4,0.8-1.9s1.1-0.7,1.9-0.7s1.4,0.2,1.9,0.7s0.8,1.1,0.8,1.9
			s-0.3,1.4-0.8,1.9C347.6,320.4,347,320.6,346.2,320.6z M347.6,319.5c0.4-0.4,0.5-0.9,0.5-1.5s-0.2-1.1-0.5-1.5
			c-0.4-0.4-0.8-0.6-1.4-0.6s-1,0.2-1.4,0.6s-0.6,0.9-0.6,1.5s0.2,1.1,0.6,1.5s0.8,0.6,1.4,0.6S347.3,319.8,347.6,319.5z"/>
		<path d="M353.7,315.4h0.7v5.2h-0.7l-2.7-4.1v4.1h-0.7v-5.2h0.7l2.7,4.1V315.4z"/>
		<path d="M356.7,316.8c0,0.2,0.1,0.3,0.2,0.5s0.2,0.2,0.4,0.3c0.2,0.1,0.3,0.1,0.6,0.2c0.2,0,0.4,0.1,0.6,0.2s0.4,0.1,0.6,0.2
			s0.3,0.2,0.4,0.4c0.1,0.2,0.2,0.4,0.2,0.7c0,0.4-0.2,0.8-0.5,1.1s-0.7,0.5-1.3,0.5c-0.5,0-1-0.1-1.3-0.4c-0.3-0.2-0.5-0.6-0.5-1
			h0.7c0,0.2,0.1,0.4,0.3,0.6c0.2,0.1,0.4,0.2,0.7,0.2s0.6-0.1,0.8-0.3c0.2-0.2,0.3-0.4,0.3-0.6s-0.1-0.4-0.2-0.5s-0.2-0.2-0.4-0.3
			c-0.2-0.1-0.3-0.1-0.6-0.2c-0.2,0-0.4-0.1-0.6-0.2s-0.4-0.1-0.6-0.2s-0.3-0.2-0.4-0.4s-0.2-0.4-0.2-0.7c0-0.4,0.2-0.8,0.5-1.1
			c0.3-0.3,0.7-0.4,1.2-0.4s0.9,0.1,1.2,0.3s0.5,0.6,0.5,1h-0.8c0-0.2-0.1-0.4-0.3-0.5c-0.2-0.1-0.4-0.2-0.7-0.2s-0.5,0.1-0.7,0.2
			S356.7,316.5,356.7,316.8z"/>
	</g>
	<text transform="matrix(1 0 0 1 122.6143 310.7411)" class="st5 st6">President elect Donald</text>
	<text transform="matrix(1 0 0 1 118.4151 331.7714)" class="st5 st6">Fact check: Clinton and</text>
	<g class="st4">
		<path d="M305.1,378.5c0.3,0.3,0.5,0.6,0.5,1.1s-0.1,0.8-0.4,1.1s-0.7,0.4-1.4,0.4h-1v2.1h-0.7V378h1.7
			C304.4,378.1,304.8,378.3,305.1,378.5z M302.8,380.6h1c0.4,0,0.7-0.1,0.8-0.3c0.2-0.2,0.3-0.4,0.3-0.7c0-0.7-0.4-1-1.1-1h-1
			L302.8,380.6L302.8,380.6z"/>
		<path d="M310.6,383.3l-0.4-1.1h-2.3l-0.4,1.1h-0.7l1.9-5.2h0.8l1.9,5.2H310.6z M308.1,381.6h1.9l-1-2.7L308.1,381.6z"/>
		<path d="M313.5,381.2v2.1h-0.7v-5.2h1.7c0.6,0,1,0.1,1.3,0.4s0.5,0.6,0.5,1s-0.1,0.8-0.3,1c-0.2,0.2-0.6,0.4-1,0.5l1.4,2.2h-0.9
			l-1.4-2.1L313.5,381.2L313.5,381.2z M313.5,378.7v2h1c0.4,0,0.7-0.1,0.8-0.3c0.2-0.2,0.3-0.4,0.3-0.7c0-0.7-0.4-1-1.1-1H313.5z"/>
		<path d="M318,383.3v-5.2h0.7v5.2H318z"/>
		<path d="M321,379.5c0,0.2,0.1,0.3,0.2,0.5s0.2,0.2,0.4,0.3c0.2,0.1,0.3,0.1,0.6,0.2c0.2,0,0.4,0.1,0.6,0.2
			c0.2,0.1,0.4,0.1,0.6,0.2c0.2,0.1,0.3,0.2,0.4,0.4s0.2,0.4,0.2,0.7c0,0.4-0.2,0.8-0.5,1.1s-0.7,0.5-1.3,0.5c-0.5,0-1-0.1-1.3-0.4
			c-0.3-0.2-0.5-0.6-0.5-1h0.7c0,0.2,0.1,0.4,0.3,0.6c0.2,0.1,0.4,0.2,0.7,0.2s0.6-0.1,0.8-0.3c0.2-0.2,0.3-0.4,0.3-0.6
			s-0.1-0.4-0.2-0.5s-0.2-0.2-0.4-0.3c-0.2-0.1-0.3-0.1-0.6-0.2c-0.2,0-0.4-0.1-0.6-0.2c-0.2-0.1-0.4-0.1-0.6-0.2
			c-0.2-0.1-0.3-0.2-0.4-0.4s-0.2-0.4-0.2-0.7c0-0.4,0.2-0.8,0.5-1.1s0.7-0.4,1.2-0.4s0.9,0.1,1.2,0.3c0.3,0.2,0.5,0.6,0.5,1h-0.8
			c0-0.2-0.1-0.4-0.3-0.5c-0.2-0.1-0.4-0.2-0.7-0.2s-0.5,0.1-0.7,0.2C320.9,379,321,379.2,321,379.5z"/>
		<path d="M331.9,383.3l-0.4-1.1h-2.3l-0.4,1.1h-0.7l1.9-5.2h0.8l1.9,5.2H331.9z M329.4,381.6h1.9l-1-2.7L329.4,381.6z"/>
		<path d="M336.4,383.4c-0.7,0-1.3-0.2-1.8-0.8c-0.5-0.5-0.8-1.1-0.8-1.9s0.3-1.4,0.8-1.9s1.1-0.7,1.9-0.7c0.5,0,1,0.1,1.4,0.4
			c0.4,0.3,0.7,0.6,0.9,1.1H338c-0.3-0.6-0.8-0.9-1.6-0.9c-0.6,0-1,0.2-1.4,0.6s-0.6,0.9-0.6,1.5s0.2,1.1,0.6,1.5s0.8,0.6,1.4,0.6
			c0.5,0,1-0.2,1.3-0.5s0.5-0.7,0.6-1.3h-2.1v-0.5h2.9v0.5c-0.1,0.7-0.3,1.2-0.8,1.7C337.7,383.1,337.1,383.4,336.4,383.4z"/>
		<path d="M341.2,381.2v2.1h-0.7v-5.2h1.7c0.6,0,1,0.1,1.3,0.4s0.5,0.6,0.5,1s-0.1,0.8-0.3,1c-0.2,0.2-0.6,0.4-1,0.5l1.4,2.2h-0.9
			l-1.4-2.1L341.2,381.2L341.2,381.2z M341.2,378.7v2h1c0.4,0,0.7-0.1,0.8-0.3c0.2-0.2,0.3-0.4,0.3-0.7c0-0.7-0.4-1-1.1-1H341.2z"/>
		<path d="M348.5,378.1v0.5h-2.1v1.8h1.8v0.5h-1.8v1.8h2.1v0.5h-2.8V378L348.5,378.1L348.5,378.1z"/>
		<path d="M352.9,378.1v0.5h-2.1v1.8h1.8v0.5h-1.8v1.8h2.1v0.5h-2.8V378L352.9,378.1L352.9,378.1z"/>
		<path d="M359.8,378.1v5.2h-0.7v-3.8l-1.7,3.8H357l-1.7-3.8v3.8h-0.7v-5.2h0.7l2,4.3l2-4.3H359.8z"/>
		<path d="M364.3,378.1v0.5h-2.1v1.8h1.8v0.5h-1.8v1.8h2.1v0.5h-2.8V378L364.3,378.1L364.3,378.1z"/>
		<path d="M369.3,378.1h0.7v5.2h-0.7l-2.7-4.1v4.1h-0.7v-5.2h0.7l2.7,4.1V378.1z"/>
		<path d="M371.5,378.7v-0.5h3.4v0.5h-1.4v4.7h-0.7v-4.7H371.5z"/>
	</g>
	<text transform="matrix(1 0 0 1 68.9716 373.8338)" class="st5 st6">[...] there is deep concern that if Mr.</text>
	<text transform="matrix(1 0 0 1 29.7724 394.8642)" class="st5 st6">[...] under the Paris Climate Agreement which</text>
	<rect x="466.9" y="242.8" class="st7" width="80.1" height="24.1"/>
	<text transform="matrix(1 0 0 1 483.6747 258.3586)" class="st8 st9 st10">Trump</text>
</g>
</svg>
