<?xml version="1.0" encoding="utf-8"?>
<!-- Generator: Adobe Illustrator 21.0.0, SVG Export Plug-In . SVG Version: 6.00 Build 0)  -->
<svg version="1.1" id="serpentone" xmlns="http://www.w3.org/2000/svg" xmlns:xlink="http://www.w3.org/1999/xlink" x="0px" y="0px"
	 viewBox="80 0 1187 924.1" style="enable-background:new 0 0 1349.4 924.1;" xml:space="preserve">
<style type="text/css">
	.st0{fill:#FFFFFF;}
	.st1{fill:#FF9839;stroke:#FFFFFF;stroke-width:2;stroke-miterlimit:10;}
	.st2{fill:#FF3B62;stroke:#FFFFFF;stroke-width:2;stroke-miterlimit:10;}
	.st3{fill:#FCD730;stroke:#FFFFFF;stroke-width:2;stroke-miterlimit:10;}
	.st4{fill:#FF633B;stroke:#FFFFFF;stroke-width:2;stroke-miterlimit:10;}
	.st5{fill:#00EB8D;stroke:#FFFFFF;stroke-width:2;stroke-miterlimit:10;}
	.st6{fill:none;}
	.st7{font-family:'Roboto Slab';}
	.st8{font-size:17px;}
	.st9{fill:#00EB8D;}
	.st10{fill:#FCD730;}
	.st11{fill:#FF9839;}
	.st12{fill:#FF633B;}
	.st13{fill:#FF3B62;}
	.st14{font-family:'Roboto Slab'; font-weight: bold;}
	.st15{font-size:20px;}
	.st16{font-family:'Roboto Slab'; font-weight: 300;}
	.st20{font-size:25px;}
</style>
<g id="serpente">
	
		<rect id="rombo15" x="756.3" y="350.9" transform="matrix(0.7071 -0.7071 0.7071 0.7071 -48.8252 691.2625)" class="st1" width="107.4" height="107.4"/>
	
		<rect id="rombo14" x="725.8" y="735" transform="matrix(0.7071 -0.7071 0.7071 0.7071 -312.6645 741.7509)" class="st2" width="26.5" height="26.5"/>
	
		<rect id="rombo13" x="744.5" y="716.3" transform="matrix(0.7071 -0.7071 0.7071 0.7071 -293.9283 749.4674)" class="st2" width="26.5" height="26.5"/>
	
		<rect id="rombo12" x="763.7" y="695.7" transform="matrix(0.7071 -0.7071 0.7071 0.7071 -274.5167 758.8292)" class="st2" width="30.1" height="30.1"/>
	
		<rect id="rombo11" x="713.7" y="634.8" transform="matrix(0.7071 -0.7071 0.7071 0.7071 -247.4279 708.8406)" class="st3" width="36.5" height="36.5"/>
	
		<rect id="rombo10" x="766" y="633.3" transform="matrix(0.7071 -0.7071 0.7071 0.7071 -231.6747 746.9904)" class="st4" width="39.8" height="39.8"/>
	
		<rect id="rombo9" x="737.3" y="661.5" transform="matrix(0.7071 -0.7071 0.7071 0.7071 -260.2334 735.5181)" class="st2" width="40.8" height="40.8"/>
	
		<rect id="rombo8" x="726.7" y="578" transform="matrix(0.7071 -0.7071 0.7071 0.7071 -208.7751 714.2557)" class="st2" width="62.2" height="62.2"/>
	
		<rect id="rombo7" x="747.2" y="510" transform="matrix(0.7071 -0.7071 0.7071 0.7071 -154.8279 709.1953)" class="st2" width="63" height="63"/>
	
		<rect id="rombo6" x="680.5" y="533.1" transform="matrix(0.7071 -0.7071 0.7071 0.7071 -190.9379 669.3171)" class="st2" width="64" height="64"/>
	
		<rect id="rombo5" x="632.4" y="486.8" transform="matrix(0.7071 -0.7071 0.7071 0.7071 -172.7044 622.9094)" class="st1" width="66.3" height="66.3"/>
	
		<rect id="rombo4" x="576.2" y="430" transform="matrix(0.7071 -0.7071 0.7071 0.7071 -151.4023 572.1755)" class="st2" width="77.6" height="77.6"/>
	
		<rect id="rombo3" x="624.4" y="359.2" transform="matrix(0.7071 -0.7071 0.7071 0.7071 -89.8712 592.1443)" class="st5" width="90.8" height="90.8"/>
	<g>
		
			<rect id="rombo2" x="685.7" y="424.7" transform="matrix(0.7071 -0.7071 0.7071 0.7071 -119.5235 657.6259)" class="st2" width="96.8" height="96.8"/>
	</g>
	
		<rect id="rombo1" x="633.1" y="160.5" transform="matrix(0.7071 -0.7071 0.7071 0.7071 30.0834 595.7425)" class="st2" width="202.2" height="202.2"/>
</g>
<g id="legenda">
	<rect id="XMLID_140_" x="111.3" y="163.8" class="st6" width="242.6" height="16.6"/>
	<text id="XMLID_139_" transform="matrix(1 0 0 1 111.3195 176.7975)" class="st7 st8">Free</text>
	<rect id="XMLID_138_" x="111.3" y="191" class="st6" width="242.6" height="16.6"/>
	<text id="XMLID_137_" transform="matrix(1 0 0 1 111.3195 203.9485)" class="st7 st8">Free &amp; Subscription</text>
	<rect id="XMLID_136_" x="111.3" y="218.6" class="st6" width="349.4" height="16.6"/>
	<text id="XMLID_135_" transform="matrix(1 0 0 1 111.3195 231.5944)" class="st7 st8">Free abstracts; Subscription full-text</text>
	<rect id="XMLID_134_" x="111.3" y="245.3" class="st6" width="343.6" height="16.6"/>
	<text id="XMLID_133_" transform="matrix(1 0 0 1 111.3195 258.2399)" class="st7 st8">Free (if author pays) and Subscription</text>
	<rect id="XMLID_132_" x="111.3" y="273.8" class="st6" width="242.6" height="16.6"/>
	<text id="XMLID_131_" transform="matrix(1 0 0 1 111.3195 286.7248)" class="st7 st8">Subscription</text>
	<circle id="XMLID_130_" class="st9" cx="93.8" cy="168.8" r="10.2"/>
	<circle id="XMLID_124_" class="st10" cx="93.8" cy="196.4" r="10.2"/>
	<circle id="XMLID_122_" class="st11" cx="93.8" cy="224" r="10.2"/>
	<circle id="XMLID_119_" class="st12" cx="93.8" cy="251.7" r="10.2"/>
	<circle id="XMLID_118_" class="st13" cx="93.8" cy="279.3" r="10.2"/>
	<text id="XMLID_117_" transform="matrix(1 0 0 1 83.5689 137.9375)" class="st14 st15">Legend:</text>
	<text id="XMLID_117_" transform="matrix(1 0 0 1 83.5689 60)" class="st7 st8">Hover on the image to discover more.</text>
	<text id="XMLID_117_" transform="matrix(1 0 0 1 83.5689 30)" class="st14 st15 st20">Daily downloads per publisher</text>

</g>
<g id="scritte">
	<g id="XMLID_582_">
		<text transform="matrix(1 0 0 1 800.7535 713.7823)" class="st14 st15">JSTOR</text>
		<text transform="matrix(1 0 0 1 809.4535 737.7823)" class="st16 st15">2.563</text>
	</g>
	<g id="XMLID_579_">
		<text transform="matrix(1 0 0 1 1212.3942 742.0515)" class="st14 st15">SAGE</text>
		<text transform="matrix(1 0 0 1 1214.5941 766.0515)" class="st16 st15">2.695</text>
	</g>
	<g id="XMLID_570_">
		<text transform="matrix(1 0 0 1 619.5753 615.4622)" class="st14 st15">Royal Society </text>
		<text transform="matrix(1 0 0 1 625.1753 639.4622)" class="st14 st15">of Chemistry</text>
		<text transform="matrix(1 0 0 1 662.5753 663.4622)" class="st16 st15">6.623</text>
	</g>
	<g id="XMLID_567_">
		<text transform="matrix(1 0 0 1 288.7096 595.8862)" class="st14 st15">Nature </text>
		<text transform="matrix(1 0 0 1 241.0096 619.8862)" class="st14 st15">Publishing Group</text>
		<text transform="matrix(1 0 0 1 301.0096 643.8862)" class="st16 st15">8.013</text>
	</g>
	<text transform="matrix(1 0 0 1 75.1039 555.163)" class="st14 st15">John Wiley </text>
	<text transform="matrix(1 0 0 1 99.6039 579.163)" class="st14 st15">&amp; Sons</text>
	<text transform="matrix(1 0 0 1 107.2039 603.163)" class="st16 st15">9.766</text>
	<text transform="matrix(1 0 0 1 456.2431 497.9894)" class="st14 st15">American </text>
	<text transform="matrix(1 0 0 1 422.8431 521.9894)" class="st14 st15">Chemical Society</text>
	<text transform="matrix(1 0 0 1 478.4431 545.9894)" class="st16 st15">13.371</text>
	<text transform="matrix(1 0 0 1 878.7433 570.0257)" class="st14 st15">IEEE</text>
	<text transform="matrix(1 0 0 1 873.4433 594.0257)" class="st16 st15">15.272</text>
	<text transform="matrix(1 0 0 1 696.8153 441.46)" class="st14 st15">Elsevier</text>
	<text transform="matrix(1 0 0 1 705.3153 465.46)" class="st16 st15">66.403</text>
	<text transform="matrix(1 0 0 1 1150.297 512.5286)" class="st14 st15">Springer</text>
	<text transform="matrix(1 0 0 1 1164.597 536.5286)" class="st16 st15">18.791</text>
	<g id="XMLID_24_">
		<text transform="matrix(1 0 0 1 449.734 675.9017)" class="st14 st15">Informa UK</text>
		<text transform="matrix(1 0 0 1 480.734 699.9017)" class="st16 st15">6.473</text>
	</g>
	<g id="XMLID_22_">
		<text transform="matrix(1 0 0 1 987.7977 639.8288)" class="st14 st15">Wiley Blackwell</text>
		<text transform="matrix(1 0 0 1 1039.6978 663.8288)" class="st16 st15">6.288</text>
	</g>
	<g id="XMLID_20_">
		<text transform="matrix(1 0 0 1 154.5404 707.2212)" class="st14 st15">Oxford </text>
		<text transform="matrix(1 0 0 1 110.2404 731.2212)" class="st14 st15">University Press</text>
		<text transform="matrix(1 0 0 1 168.0404 755.2212)" class="st16 st15">2.161</text>
	</g>
	<g id="XMLID_18_">
		<text transform="matrix(1 0 0 1 348.3083 774.9886)" class="st14 st15">AAAS</text>
		<text transform="matrix(1 0 0 1 352.6083 798.9886)" class="st16 st15">1.474</text>
	</g>
	<g id="XMLID_12_">
		<text transform="matrix(1 0 0 1 926.3942 761.0424)" class="st14 st15">Informa Healthcare</text>
		<text transform="matrix(1 0 0 1 997.5942 785.0424)" class="st16 st15">1.184</text>
	</g>
	<g id="XMLID_1_">
		<text transform="matrix(1 0 0 1 559.4803 795.5829)" class="st14 st15">IOP Publishing</text>
		<text transform="matrix(1 0 0 1 609.0803 819.5829)" class="st16 st15">1.143</text>
	</g>
</g>
</svg>
