<?xml version="1.0" encoding="utf-8"?>
<!-- Generator: Adobe Illustrator 22.0.1, SVG Export Plug-In . SVG Version: 6.00 Build 0)  -->
<svg version="1.1" id="Livello_1" xmlns="http://www.w3.org/2000/svg" xmlns:xlink="http://www.w3.org/1999/xlink" x="0px" y="0px"
	 width="1346.7px" height="712.2px" viewBox="0 0 1346.7 712.2" style="enable-background:new 0 0 1346.7 712.2;"
	 xml:space="preserve">
<style type="text/css">
	.st0{fill:#D12845;}
	.st1{fill:none;stroke:#FFFFFF;}
	.st2{fill:#FFFFFF;}
	.st3{font-family:'CrimsonText-Regular';}
	.st4{font-size:15.8655px;}
</style>
<g>
	<path class="st0" d="M1.7,336.3c51.7,0,51.7-0.2,103.3-0.2c51.8,0,51.8,0.8,103.6,0.8c103.3,0,103.3-0.5,206.6-0.5
		c51.7,0,51.7-2,103.3-2c51.8,0,51.8-6.3,103.6-6.3c51.7,0,51.7,4.7,103.3,4.7c51.7,0,51.7-7.2,103.3-7.2s51.7-13.9,103.3-13.9
		c51.8,0,51.8-16,103.6-16c51.7,0,51.7,19.9,103.3,19.9c51.7,0,51.7,15,103.3,15c51.7,0,51.7,2.2,103.3,2.2v8.4
		c-51.7,0-51.7,2.2-103.3,2.2c-51.7,0-51.7,15-103.3,15c-51.7,0-51.7,19.9-103.3,19.9c-51.8,0-51.8-16-103.6-16
		c-51.7,0-51.7-13.9-103.3-13.9S777,341,725.4,341c-51.7,0-51.7,4.7-103.3,4.7c-51.8,0-51.8-6.3-103.6-6.3c-51.7,0-51.7-2-103.3-2
		c-103.3,0-103.3-0.5-206.6-0.5c-51.8,0-51.8,0.8-103.6,0.8c-51.7,0-51.7-0.2-103.3-0.2V336.3z"/>
	<path class="st0" d="M725.4,430.5c51.7,0,51.7-7.3,103.3-7.3s51.7-2.5,103.3-2.5c51.8,0,51.8,10.1,103.6,10.1
		c51.7,0,51.7-5.6,103.3-5.6c51.7,0,51.7-1.1,103.3-1.1c51.7,0,51.7,8.7,103.3,8.7v2.1c-51.7,0-51.7,8.7-103.3,8.7
		c-51.7,0-51.7-1.1-103.3-1.1c-51.7,0-51.7-5.6-103.3-5.6c-51.8,0-51.8,10.1-103.6,10.1c-51.7,0-51.7-2.5-103.3-2.5
		s-51.7-7.3-103.3-7.3V430.5z"/>
	<path class="st0" d="M311.9,530.6c51.7,0,51.7-4.3,103.3-4.3s51.7,3.7,103.3,3.7c51.8,0,51.8-3.6,103.6-3.6
		c51.7,0,51.7,3.7,103.3,3.7c51.7,0,51.7-4.1,103.3-4.1s51.7-1.5,103.3-1.5c51.8,0,51.8,4.9,103.6,4.9c51.7,0,51.7-10.8,103.3-10.8
		c51.7,0,51.7,10.2,103.3,10.2c51.7,0,51.7,1.3,103.3,1.3v2.3c-51.7,0-51.7,1.3-103.3,1.3c-51.7,0-51.7,10.2-103.3,10.2
		c-51.7,0-51.7-10.8-103.3-10.8c-51.8,0-51.8,4.9-103.6,4.9c-51.7,0-51.7-1.5-103.3-1.5s-51.7-4.1-103.3-4.1
		c-51.7,0-51.7,3.7-103.3,3.7c-51.8,0-51.8-3.6-103.6-3.6c-51.7,0-51.7,3.7-103.3,3.7s-51.7-4.3-103.3-4.3V530.6z"/>
	<path class="st0" d="M1242.2,216.8c-51.7,0-51.7,8.6-103.3,8.6s-51.7-15-103.3-15c-51.8,0-51.8-2.8-103.6-2.8
		c-51.7,0-51.7-13.4-103.3-13.4c-51.7,0-51.7,44.2-103.3,44.2v2.4c51.7,0,51.7,44.2,103.3,44.2c51.7,0,51.7-13.4,103.3-13.4
		c51.8,0,51.8-2.8,103.6-2.8c51.7,0,51.7-15,103.3-15s51.7,8.6,103.3,8.6v-0.1"/>
	<path class="st0" d="M1242.2,614.4c-51.7,0-51.7,1.6-103.3,1.6s-51.7-3-103.3-3c-51.8,0-51.8,14.6-103.6,14.6v1.5
		c51.8,0,51.8,14.6,103.6,14.6c51.7,0,51.7-3,103.3-3s51.7,1.6,103.3,1.6v-0.2"/>
	<line class="st1" x1="1.7" y1="680.1" x2="1.7" y2="169.2"/>
	<line class="st1" x1="105" y1="680.1" x2="105" y2="169.2"/>
	<line class="st1" x1="208.6" y1="680.1" x2="208.6" y2="169.2"/>
	<line class="st1" x1="311.9" y1="680.1" x2="311.9" y2="169.2"/>
	<line class="st1" x1="415.2" y1="680.1" x2="415.2" y2="169.2"/>
	<line class="st1" x1="518.5" y1="680.1" x2="518.5" y2="169.2"/>
	<line class="st1" x1="622.1" y1="680.1" x2="622.1" y2="169.2"/>
	<line class="st1" x1="725.4" y1="680.1" x2="725.4" y2="169.2"/>
	<line class="st1" x1="828.7" y1="680.1" x2="828.7" y2="169.2"/>
	<line class="st1" x1="932" y1="680.1" x2="932" y2="169.2"/>
	<line class="st1" x1="1035.6" y1="680.1" x2="1035.6" y2="169.2"/>
	<line class="st1" x1="1138.9" y1="680.1" x2="1138.9" y2="169.2"/>
	<line class="st1" x1="1242.2" y1="680.1" x2="1242.2" y2="169.2"/>
	<line class="st1" x1="1345.5" y1="680.1" x2="1345.5" y2="169.2"/>
	<path class="st1" d="M1.7,169.2v510.9h1343.8V169.2"/>
	<g>
		<text transform="matrix(1 0 0 1 739.1196 185.8803)" class="st2 st3 st4">Pilot Programme for Climate and Resilience (PPCR)</text>
		<text transform="matrix(1 0 0 1 11.0156 322.4777)" class="st2 st3 st4">Least Developed Countries Fund (LDCF)</text>
		<text transform="matrix(1 0 0 1 733.3314 408.3085)" class="st2 st3 st4">Adaptation Fund (AF)</text>
		<text transform="matrix(1 0 0 1 322.0007 511.5365)" class="st2 st3 st4">Special Climate Change Fund (SCCF)</text>
		<text transform="matrix(1 0 0 1 942.1112 599.6368)" class="st2 st3 st4">Adaptation for Smallholder Agriculture Programme (ASAP)</text>
	</g>
</g>
<g>
	<line class="st1" x1="105" y1="110.6" x2="105" y2="19.8"/>
	<line class="st1" x1="208.6" y1="110.6" x2="208.6" y2="19.8"/>
	<line class="st1" x1="311.9" y1="110.6" x2="311.9" y2="19.8"/>
	<line class="st1" x1="415.2" y1="110.6" x2="415.2" y2="19.8"/>
	<line class="st1" x1="518.5" y1="110.6" x2="518.5" y2="19.8"/>
	<line class="st1" x1="622.1" y1="110.6" x2="622.1" y2="19.8"/>
	<line class="st1" x1="725.4" y1="110.6" x2="725.4" y2="19.8"/>
	<line class="st1" x1="828.7" y1="110.6" x2="828.7" y2="19.8"/>
	<line class="st1" x1="932" y1="110.6" x2="932" y2="19.8"/>
	<line class="st1" x1="1035.6" y1="110.6" x2="1035.6" y2="19.8"/>
	<line class="st1" x1="1138.9" y1="110.6" x2="1138.9" y2="19.8"/>
	<line class="st1" x1="1242.2" y1="110.6" x2="1242.2" y2="19.8"/>
	<g>
		<text transform="matrix(1 0 0 1 1.6744 142.058)" class="st2 st3 st4">2003</text>
	</g>
	<g>
		<text transform="matrix(1 0 0 1 89.5967 142.058)" class="st2 st3 st4">2004</text>
	</g>
	<g>
		<text transform="matrix(1 0 0 1 193.1611 142.058)" class="st2 st3 st4">2005</text>
	</g>
	<g>
		<text transform="matrix(1 0 0 1 296.4731 142.058)" class="st2 st3 st4">2006</text>
	</g>
	<g>
		<text transform="matrix(1 0 0 1 399.7856 142.058)" class="st2 st3 st4">2007</text>
	</g>
	<g>
		<text transform="matrix(1 0 0 1 503.082 142.058)" class="st2 st3 st4">2008</text>
	</g>
	<g>
		<text transform="matrix(1 0 0 1 606.6699 142.058)" class="st2 st3 st4">2009</text>
	</g>
	<g>
		<text transform="matrix(1 0 0 1 709.9746 142.058)" class="st2 st3 st4">2010</text>
	</g>
	<g>
		<text transform="matrix(1 0 0 1 813.8682 142.058)" class="st2 st3 st4">2011</text>
	</g>
	<g>
		<text transform="matrix(1 0 0 1 916.584 142.058)" class="st2 st3 st4">2012</text>
	</g>
	<g>
		<text transform="matrix(1 0 0 1 1020.1641 142.058)" class="st2 st3 st4">2013</text>
	</g>
	<g>
		<text transform="matrix(1 0 0 1 1123.4912 142.058)" class="st2 st3 st4">2014</text>
	</g>
	<g>
		<text transform="matrix(1 0 0 1 1226.7725 142.058)" class="st2 st3 st4">2015</text>
	</g>
	<g>
		<text transform="matrix(0.9996 -2.942080e-02 2.942080e-02 0.9996 1315.6121 142.4973)" class="st2 st3 st4">2016</text>
	</g>
	<path class="st1" d="M1.7,19.8v90.8h1343.8V19.8"/>
	<path class="st2" d="M1345.5,106.4c-1,0-2,0-3,0c-48.6-1.5-49.6-40.9-100.2-40.9c-51.5,0-51.5-1.5-103.2-1.5
		c-51.5,0-51.5-22-103.2-22c-15.1,0-25.8-1.1-34.7-2.6c-13.3-2.3-22.4-5.7-36.4-7.8c-8.4-1.3-18.4-2.2-32.1-2.2
		c-51.5,0-51.5,21.4-103.2,21.4c-49.9,0-51.5,43.3-98.4,46.1c-1.5,0.1-3.1,0.1-4.8,0.1c-51.6,0-51.6-0.4-103.2-0.4
		c-51.6,0-51.6,5.1-103.2,5.1s-51.6,5.5-103.2,5.5s-51.6,3-103.2,3c-51.5,0-51.6,0.3-103.2,0.3s-51.6-0.5-103.2-0.5
		c-50.7,0-51.5,0.1-100.8,0.1c-0.8,0-1.6,0-2.4,0h0v0.4c51.5,0,51.6,0,103.2,0c44.4,0,50.6,0,84.5,0c5.5,0,11.6,0,18.8,0
		c8.4,0,15.5,0,21.6,0c30.7,0,38.1,0,79.1,0c-37.7,0-47,0-72.1,0c0,0,0,0,0,0c25.2,0,34.5,0,72.2,0c0.7,0,1.5,0,2.3,0
		c0,0,0.1,0,0.1,0c51.4,0,51.6,0,103,0c51.5,0,51.6,0,103.2,0s51.5,0,103.2,0c51.5,0,51.5,0,103.2,0c51.5,0,51.5,0,103.2,0
		c51.5,0,51.6,0,103.2,0s51.5,0,103.2,0c51.5,0,51.5,0,103.2,0c51.5,0,51.5,0,103.2,0c51.5,0,51.5,0,103.2,0v-2.6
		c-51.5,0-51.5-1.4-103.2-1.4c-51.5,0-51.5-9.3-103.2-9.3c-51.5,0-51.5-12.3-103.2-12.3c-51.5,0-51.6,9.9-103.2,9.9
		s-51.5,8.6-103.2,8.6c-51.5,0-51.5,4.5-103.2,4.5c-51.5,0-51.5-2.9-103.2-2.9c-51.5,0-51.6,3.9-103.2,3.9s-51.6,1.3-103.2,1.3
		c-50.4,0-51.6,0.3-99.8,0.3c48.3,0,49.4-0.4,99.8-0.4c51.5,0,51.6-1.3,103.2-1.3s51.5-3.9,103.2-3.9c51.5,0,51.5,2.9,103.2,2.9
		c51.5,0,51.5-4.5,103.2-4.5c51.5,0,51.6-8.6,103.2-8.6s51.5-9.9,103.2-9.9c51.5,0,51.5,12.3,103.2,12.3c51.5,0,51.5,9.3,103.2,9.3
		c51.5,0,51.5,1.4,103.2,1.4v-0.7V106.4L1345.5,106.4c-1,0-2,0-3,0C1343.5,106.4,1344.5,106.4,1345.5,106.4z M963.5,31.3
		c15.2,2.4,24.6,6.2,39,8.7C988.1,37.5,978.6,33.7,963.5,31.3z"/>
</g>
</svg>
