<?xml version="1.0" encoding="utf-8"?>
<!-- Generator: Adobe Illustrator 21.0.0, SVG Export Plug-In . SVG Version: 6.00 Build 0)  -->
<svg version="1.1" id="Livello_1" xmlns="http://www.w3.org/2000/svg" xmlns:xlink="http://www.w3.org/1999/xlink" x="0px" y="0px"
	 width="1732.5px" height="888.1px" viewBox="0 0 1732.5 888.1" style="enable-background:new 0 0 1732.5 888.1;"
	 xml:space="preserve">
<style type="text/css">
	.st0{opacity:0.5;fill:none;stroke:#FFFFFF;stroke-miterlimit:10;}
	.st1{enable-background:new    ;}
	.st2{fill:#FFFFFF;}
	.st3{fill:none;stroke:#FFFFFF;stroke-miterlimit:10;}
	.st4{fill:none;stroke:#FFFFFF;stroke-miterlimit:10;stroke-dasharray:2.977,2.977;}
	.st5{fill:none;stroke:#FFFFFF;stroke-miterlimit:10;stroke-dasharray:2.9699,2.9699;}
	.st6{fill:none;stroke:#FFFFFF;stroke-miterlimit:10;stroke-dasharray:3.0223,3.0223;}
	.st7{fill:none;stroke:#FFFFFF;stroke-miterlimit:10;stroke-dasharray:2.973,2.973;}
	.st8{fill:none;stroke:#FFFFFF;stroke-miterlimit:10;stroke-dasharray:3.0183,3.0183;}
	.st9{fill:none;stroke:#FFFFFF;stroke-miterlimit:10;stroke-dasharray:3.0149,3.0149;}
	.st10{fill:none;stroke:#FFFFFF;stroke-miterlimit:10;stroke-dasharray:3.0039,3.0039;}
	.st11{fill:none;stroke:#FFFFFF;stroke-miterlimit:10;stroke-dasharray:2.9972,2.9972;}
	.st12{fill:none;stroke:#FFFFFF;stroke-miterlimit:10;stroke-dasharray:2.9946,2.9946;}
	.st13{fill:none;stroke:#FFFFFF;stroke-miterlimit:10;stroke-dasharray:2.9904,2.9904;}
	.st14{fill:none;stroke:#FFFFFF;stroke-miterlimit:10;stroke-dasharray:2.9848,2.9848;}
	.st15{fill:none;stroke:#FFFFFF;stroke-miterlimit:10;stroke-dasharray:2.9855,2.9855;}
	.st16{fill:none;stroke:#FFFFFF;stroke-miterlimit:10;stroke-dasharray:3.0156,3.0156;}
	.st17{fill:none;stroke:#FFFFFF;stroke-miterlimit:10;stroke-dasharray:3.0123,3.0123;}
	.st18{fill:none;stroke:#FFFFFF;stroke-miterlimit:10;stroke-dasharray:3.0076,3.0076;}
	.st19{fill:none;stroke:#FFFFFF;stroke-miterlimit:10;stroke-dasharray:3.0054,3.0054;}
	.st20{fill:none;stroke:#FFFFFF;stroke-miterlimit:10;stroke-dasharray:2.9981,2.9981;}
	.st21{fill:none;stroke:#FFFFFF;stroke-miterlimit:10;stroke-dasharray:2.996,2.996;}
	.st22{fill:none;stroke:#FFFFFF;stroke-miterlimit:10;stroke-dasharray:2.9957,2.9957;}
	.st23{fill:none;stroke:#FFFFFF;stroke-width:3;stroke-miterlimit:10;}
</style>
<path class="st0" d="M108,18.1v810 M108,18.1h1544 M1652,18.1v810 M108,828.1h1544"/>
<g class="st1">
	<path class="st2" d="M59.2,706.3c0.6-0.5,1.4-0.7,2.3-0.7s1.7,0.2,2.2,0.7c0.5,0.5,0.8,1.1,0.8,1.9c0,0.6-0.2,1-0.5,1.4
		c-0.3,0.4-0.7,0.7-1.2,0.8v0.1c0.6,0.2,1,0.5,1.3,0.9c0.3,0.5,0.5,1.1,0.5,1.8c0,0.8-0.3,1.4-0.8,1.9c-0.6,0.5-1.3,0.8-2.3,0.8
		s-1.8-0.3-2.4-0.8c-0.6-0.5-1-1.2-1.1-2.1h1.2c0,0.5,0.3,1,0.7,1.3s0.9,0.5,1.6,0.5s1.2-0.2,1.5-0.5c0.4-0.4,0.5-0.8,0.5-1.4
		c0-0.7-0.2-1.3-0.7-1.6s-1.2-0.5-2.1-0.5h-0.3v-1.1h0.4c1.8,0,2.6-0.6,2.6-1.7c0-0.5-0.2-0.9-0.5-1.2s-0.8-0.4-1.4-0.4
		c-0.6,0-1.1,0.1-1.4,0.4c-0.3,0.3-0.6,0.6-0.6,1.1h-1.2C58.3,707.4,58.6,706.8,59.2,706.3z"/>
	<path class="st2" d="M66.9,705.8H73v1.1h-4.9v3.2c0.2-0.3,0.5-0.6,0.9-0.8s0.9-0.3,1.4-0.3s1,0.1,1.5,0.3c0.4,0.2,0.8,0.5,1,0.8
		c0.5,0.7,0.7,1.4,0.7,2.3c0,1.1-0.3,1.9-0.9,2.6c-0.6,0.7-1.4,1-2.5,1s-1.9-0.2-2.5-0.7s-1-1.1-1.1-2h1.2c0.1,0.5,0.4,0.9,0.8,1.2
		s0.9,0.4,1.6,0.4s1.2-0.2,1.6-0.7s0.6-1,0.6-1.8s-0.2-1.3-0.6-1.7s-0.9-0.6-1.7-0.6c-0.5,0-0.9,0.1-1.3,0.4
		c-0.4,0.3-0.6,0.6-0.8,1.1h-1.2v-5.8H66.9z"/>
	<path class="st2" d="M76.5,706.8c0.3-0.3,0.6-0.5,1-0.7s0.9-0.3,1.6-0.3s1.2,0.1,1.6,0.4c0.5,0.3,0.8,0.6,1.1,1.1
		c0.5,0.9,0.7,2.1,0.7,3.6c0,1.9-0.3,3.3-1,4.1c-0.6,0.7-1.4,1-2.5,1c-2,0-3.1-1.2-3.4-3.5c-0.1-0.5-0.1-1-0.1-1.6s0-1.1,0.1-1.6
		s0.2-0.9,0.3-1.4C76,707.5,76.2,707.1,76.5,706.8z M80.8,708.2c-0.1-0.4-0.4-0.7-0.7-0.9c-0.3-0.2-0.7-0.3-1.1-0.3
		s-0.8,0.1-1.1,0.2s-0.5,0.3-0.7,0.6s-0.3,0.5-0.4,0.9s-0.2,0.7-0.2,1.1c0,0.3,0,0.7,0,1.2s0,0.9,0,1.2s0.1,0.7,0.2,1.1
		c0.1,0.4,0.2,0.7,0.4,0.9c0.2,0.2,0.4,0.4,0.7,0.6s0.6,0.2,1,0.2s0.7-0.1,1-0.2c0.3-0.1,0.5-0.3,0.7-0.6c0.2-0.2,0.3-0.5,0.4-0.9
		c0.1-0.6,0.2-1.3,0.2-2s0-1.3-0.1-1.8C81.1,709,81,708.6,80.8,708.2z"/>
</g>
<g class="st1">
	<path class="st2" d="M59.2,822.6c0.6-0.5,1.4-0.7,2.3-0.7s1.7,0.2,2.2,0.7c0.5,0.5,0.8,1.1,0.8,1.9c0,0.6-0.2,1-0.5,1.4
		c-0.3,0.4-0.7,0.7-1.2,0.8v0.1c0.6,0.2,1,0.5,1.3,0.9c0.3,0.5,0.5,1.1,0.5,1.8c0,0.8-0.3,1.4-0.8,1.9c-0.6,0.5-1.3,0.8-2.3,0.8
		s-1.8-0.3-2.4-0.8c-0.6-0.5-1-1.2-1.1-2.1h1.2c0,0.5,0.3,1,0.7,1.3s0.9,0.5,1.6,0.5s1.2-0.2,1.5-0.5c0.4-0.4,0.5-0.8,0.5-1.4
		c0-0.7-0.2-1.3-0.7-1.6s-1.2-0.5-2.1-0.5h-0.3V826h0.4c1.8,0,2.6-0.6,2.6-1.7c0-0.5-0.2-0.9-0.5-1.2s-0.8-0.4-1.4-0.4
		c-0.6,0-1.1,0.1-1.4,0.4c-0.3,0.3-0.6,0.6-0.6,1.1h-1.2C58.3,823.7,58.6,823.1,59.2,822.6z"/>
	<path class="st2" d="M71.5,832.4v-2.3h-5.2v-0.9l4.8-6.9h1.6v6.7h1.4v1.1h-1.4v2.3L71.5,832.4L71.5,832.4z M71.5,829v-5.5l-3.8,5.5
		H71.5z"/>
	<path class="st2" d="M76.5,823.1c0.3-0.3,0.6-0.5,1-0.7s0.9-0.3,1.6-0.3s1.2,0.1,1.6,0.4c0.5,0.3,0.8,0.6,1.1,1.1
		c0.5,0.9,0.7,2.1,0.7,3.6c0,1.9-0.3,3.3-1,4.1c-0.6,0.7-1.4,1-2.5,1c-2,0-3.1-1.2-3.4-3.5c-0.1-0.5-0.1-1-0.1-1.6s0-1.1,0.1-1.6
		s0.2-0.9,0.3-1.4C76,823.8,76.2,823.4,76.5,823.1z M80.8,824.5c-0.1-0.4-0.4-0.7-0.7-0.9c-0.3-0.2-0.7-0.3-1.1-0.3
		s-0.8,0.1-1.1,0.2s-0.5,0.3-0.7,0.6s-0.3,0.5-0.4,0.9s-0.2,0.7-0.2,1.1c0,0.3,0,0.7,0,1.2s0,0.9,0,1.2s0.1,0.7,0.2,1.1
		c0.1,0.4,0.2,0.7,0.4,0.9c0.2,0.2,0.4,0.4,0.7,0.6s0.6,0.2,1,0.2s0.7-0.1,1-0.2c0.3-0.1,0.5-0.3,0.7-0.6c0.2-0.2,0.3-0.5,0.4-0.9
		c0.1-0.6,0.2-1.3,0.2-2s0-1.3-0.1-1.8C81.1,825.4,81,824.9,80.8,824.5z"/>
</g>
<g class="st1">
	<path class="st2" d="M59.1,590c0.6-0.5,1.4-0.7,2.3-0.7s1.7,0.2,2.2,0.7s0.8,1.1,0.8,1.9c0,0.6-0.2,1-0.5,1.4
		c-0.3,0.4-0.7,0.7-1.2,0.8v0.1c0.6,0.2,1,0.5,1.3,0.9c0.3,0.5,0.5,1.1,0.5,1.8c0,0.8-0.3,1.4-0.8,1.9c-0.6,0.5-1.3,0.8-2.3,0.8
		s-1.8-0.3-2.4-0.8c-0.6-0.5-1-1.2-1.1-2.1h1.2c0,0.5,0.3,1,0.7,1.3s0.9,0.5,1.6,0.5s1.2-0.2,1.5-0.5c0.4-0.4,0.5-0.8,0.5-1.4
		c0-0.7-0.2-1.3-0.7-1.6s-1.2-0.5-2.1-0.5h-0.3v-1.1h0.4c1.8,0,2.6-0.6,2.6-1.7c0-0.5-0.2-0.9-0.5-1.2s-0.8-0.4-1.4-0.4
		c-0.6,0-1.1,0.1-1.4,0.4c-0.3,0.3-0.6,0.6-0.6,1.1h-1.2C58.2,591.1,58.5,590.5,59.1,590z"/>
	<path class="st2" d="M70.2,590.4c-0.8,0-1.5,0.3-1.9,0.9c-0.4,0.6-0.6,1.7-0.6,3.1c0.3-0.5,0.6-0.8,1.1-1.1s1-0.4,1.7-0.4
		c0.9,0,1.7,0.3,2.3,0.9c0.6,0.6,0.9,1.4,0.9,2.4s-0.3,1.8-0.9,2.5s-1.4,1-2.4,1c-1.7,0-2.8-0.7-3.3-2.2c-0.3-0.8-0.4-2-0.4-3.4
		s0.3-2.7,0.9-3.5s1.5-1.3,2.7-1.3c0.9,0,1.6,0.2,2.1,0.7s0.8,1.1,0.9,1.8h-1.1c-0.1-0.5-0.3-0.8-0.6-1.1S70.7,590.4,70.2,590.4z
		 M72.4,596.4c0-0.7-0.2-1.3-0.6-1.7s-0.9-0.6-1.6-0.6s-1.2,0.2-1.7,0.6s-0.7,0.9-0.7,1.7s0.2,1.3,0.6,1.7s1,0.6,1.7,0.6
		s1.3-0.2,1.7-0.6C72.2,597.7,72.4,597.1,72.4,596.4z"/>
	<path class="st2" d="M76.5,590.5c0.3-0.3,0.6-0.5,1-0.7s0.9-0.3,1.6-0.3s1.2,0.1,1.6,0.4c0.5,0.3,0.8,0.6,1.1,1.1
		c0.5,0.9,0.7,2.1,0.7,3.6c0,1.9-0.3,3.3-1,4.1c-0.6,0.7-1.4,1-2.5,1c-2,0-3.1-1.2-3.4-3.5c-0.1-0.5-0.1-1-0.1-1.6s0-1.1,0.1-1.6
		s0.2-0.9,0.3-1.4S76.2,590.8,76.5,590.5z M80.8,591.9c-0.1-0.4-0.4-0.7-0.7-0.9c-0.3-0.2-0.7-0.3-1.1-0.3s-0.8,0.1-1.1,0.2
		s-0.5,0.3-0.7,0.6s-0.3,0.5-0.4,0.9s-0.2,0.7-0.2,1.1c0,0.3,0,0.7,0,1.2s0,0.9,0,1.2s0.1,0.7,0.2,1.1c0.1,0.4,0.2,0.7,0.4,0.9
		c0.2,0.2,0.4,0.4,0.7,0.6s0.6,0.2,1,0.2s0.7-0.1,1-0.2c0.3-0.1,0.5-0.3,0.7-0.6c0.2-0.2,0.3-0.5,0.4-0.9c0.1-0.6,0.2-1.3,0.2-2
		s0-1.3-0.1-1.8C81.1,592.7,81,592.3,80.8,591.9z"/>
</g>
<g class="st1">
	<path class="st2" d="M60.3,473.7c0.6-0.5,1.4-0.7,2.3-0.7s1.7,0.2,2.2,0.7s0.8,1.1,0.8,1.9c0,0.6-0.2,1-0.5,1.4s-0.7,0.7-1.2,0.8
		v0.1c0.6,0.2,1,0.5,1.3,0.9c0.3,0.5,0.5,1.1,0.5,1.8c0,0.8-0.3,1.4-0.8,1.9c-0.6,0.5-1.3,0.8-2.3,0.8s-1.8-0.3-2.4-0.8
		c-0.6-0.5-1-1.2-1.1-2.1h1.2c0,0.5,0.3,1,0.7,1.3s0.9,0.5,1.6,0.5s1.2-0.2,1.5-0.5c0.4-0.4,0.5-0.8,0.5-1.4c0-0.7-0.2-1.3-0.7-1.6
		c-0.5-0.3-1.2-0.5-2.1-0.5h-0.3v-1.1h0.4c1.8,0,2.6-0.6,2.6-1.7c0-0.5-0.2-0.9-0.5-1.2c-0.3-0.3-0.8-0.4-1.4-0.4
		c-0.6,0-1.1,0.1-1.4,0.4c-0.3,0.3-0.6,0.6-0.6,1.1h-1.2C59.3,474.8,59.7,474.1,60.3,473.7z"/>
	<path class="st2" d="M67.2,473.2H74v1l-4,9.2h-1.4l4.2-9.1h-5.5L67.2,473.2L67.2,473.2z"/>
	<path class="st2" d="M76.5,474.2c0.3-0.3,0.6-0.5,1-0.7s0.9-0.3,1.6-0.3s1.2,0.1,1.6,0.4c0.5,0.3,0.8,0.6,1.1,1.1
		c0.5,0.9,0.7,2.1,0.7,3.6c0,1.9-0.3,3.3-1,4.1c-0.6,0.7-1.4,1-2.5,1c-2,0-3.1-1.2-3.4-3.5c-0.1-0.5-0.1-1-0.1-1.6s0-1.1,0.1-1.6
		s0.2-0.9,0.3-1.4C76,474.8,76.2,474.4,76.5,474.2z M80.8,475.6c-0.1-0.4-0.4-0.7-0.7-0.9c-0.3-0.2-0.7-0.3-1.1-0.3
		s-0.8,0.1-1.1,0.2s-0.5,0.3-0.7,0.6s-0.3,0.5-0.4,0.9s-0.2,0.7-0.2,1.1c0,0.3,0,0.7,0,1.2s0,0.9,0,1.2c0,0.3,0.1,0.7,0.2,1.1
		s0.2,0.7,0.4,0.9c0.2,0.2,0.4,0.4,0.7,0.6s0.6,0.2,1,0.2s0.7-0.1,1-0.2s0.5-0.3,0.7-0.6c0.2-0.2,0.3-0.5,0.4-0.9
		c0.1-0.6,0.2-1.3,0.2-2s0-1.3-0.1-1.8C81.1,476.4,81,476,80.8,475.6z"/>
</g>
<g class="st1">
	<path class="st2" d="M59.2,357.3c0.6-0.5,1.4-0.7,2.3-0.7c0.9,0,1.7,0.2,2.2,0.7c0.5,0.5,0.8,1.1,0.8,1.9c0,0.6-0.2,1-0.5,1.4
		c-0.3,0.4-0.7,0.7-1.2,0.8v0.1c0.6,0.2,1,0.5,1.3,0.9c0.3,0.5,0.5,1.1,0.5,1.8c0,0.8-0.3,1.4-0.8,1.9c-0.6,0.5-1.3,0.8-2.3,0.8
		s-1.8-0.3-2.4-0.8s-1-1.2-1-2.1h1.2c0,0.5,0.3,1,0.7,1.3s0.9,0.5,1.6,0.5s1.2-0.2,1.5-0.5c0.3-0.4,0.5-0.8,0.5-1.4
		c0-0.7-0.2-1.3-0.7-1.6c-0.5-0.3-1.2-0.5-2.1-0.5h-0.3v-1.1h0.4c1.8,0,2.6-0.6,2.6-1.7c0-0.5-0.2-0.9-0.5-1.2
		c-0.3-0.3-0.8-0.4-1.4-0.4c-0.6,0-1.1,0.1-1.4,0.4c-0.3,0.3-0.6,0.6-0.6,1.1h-1.2C58.3,358.4,58.6,357.8,59.2,357.3z"/>
	<path class="st2" d="M66.8,359.3c0-0.8,0.3-1.4,0.9-2s1.4-0.8,2.4-0.8c1.1,0,1.9,0.3,2.4,0.8c0.6,0.5,0.9,1.2,0.9,2
		c0,0.5-0.1,1-0.4,1.4s-0.6,0.7-1.1,0.9c0.5,0.2,1,0.5,1.3,1s0.5,1,0.5,1.7c0,0.9-0.3,1.7-1,2.3c-0.7,0.6-1.5,0.8-2.6,0.8
		s-1.9-0.3-2.6-0.8c-0.7-0.6-1-1.3-1-2.3c0-0.6,0.2-1.2,0.5-1.7s0.8-0.8,1.3-1C67.3,361.2,66.8,360.4,66.8,359.3z M72.4,364.2
		c0-0.6-0.2-1.1-0.6-1.5c-0.4-0.3-1-0.5-1.7-0.5s-1.3,0.2-1.7,0.5c-0.4,0.3-0.7,0.8-0.7,1.5c0,0.6,0.2,1.2,0.6,1.5
		c0.4,0.4,1,0.6,1.7,0.6s1.3-0.2,1.7-0.6S72.4,364.8,72.4,364.2z M72.1,359.4c0-0.5-0.2-1-0.6-1.3s-0.9-0.5-1.5-0.5
		s-1.2,0.2-1.5,0.5c-0.4,0.3-0.6,0.7-0.6,1.3c0,0.5,0.2,1,0.6,1.3s0.9,0.5,1.5,0.5s1.1-0.2,1.5-0.5S72.1,359.9,72.1,359.4z"/>
	<path class="st2" d="M76.5,357.8c0.3-0.3,0.6-0.5,1-0.7s0.9-0.3,1.6-0.3c0.6,0,1.2,0.1,1.6,0.4s0.8,0.6,1.1,1.1
		c0.5,0.9,0.7,2.1,0.7,3.6c0,1.9-0.3,3.3-1,4.1c-0.6,0.7-1.4,1-2.5,1c-2,0-3.1-1.2-3.4-3.5c-0.1-0.5-0.1-1-0.1-1.6s0-1.1,0.1-1.6
		s0.2-0.9,0.3-1.4C76,358.5,76.2,358.1,76.5,357.8z M80.8,359.2c-0.1-0.4-0.4-0.7-0.7-0.9c-0.3-0.2-0.7-0.3-1.1-0.3
		s-0.8,0.1-1.1,0.2c-0.3,0.1-0.5,0.3-0.7,0.6c-0.2,0.2-0.3,0.5-0.4,0.9s-0.2,0.7-0.2,1.1c0,0.3,0,0.7,0,1.2s0,0.9,0,1.2
		c0,0.3,0.1,0.7,0.2,1.1s0.2,0.7,0.4,0.9c0.2,0.2,0.4,0.4,0.7,0.6c0.3,0.1,0.6,0.2,1,0.2s0.7-0.1,1-0.2s0.5-0.3,0.7-0.6
		c0.2-0.2,0.3-0.5,0.4-0.9c0.1-0.6,0.2-1.3,0.2-2s0-1.3-0.1-1.8C81.1,360,81,359.6,80.8,359.2z"/>
</g>
<g class="st1">
	<path class="st2" d="M59.2,241c0.6-0.5,1.4-0.7,2.3-0.7c0.9,0,1.7,0.2,2.2,0.7c0.5,0.5,0.8,1.1,0.8,1.9c0,0.6-0.2,1-0.5,1.4
		c-0.3,0.4-0.7,0.7-1.2,0.8v0.1c0.6,0.2,1,0.5,1.3,0.9c0.3,0.5,0.5,1.1,0.5,1.8c0,0.8-0.3,1.4-0.8,1.9c-0.6,0.5-1.3,0.8-2.3,0.8
		s-1.8-0.3-2.4-0.8s-1-1.2-1-2.1h1.2c0,0.5,0.3,1,0.7,1.3s0.9,0.5,1.6,0.5s1.2-0.2,1.5-0.5c0.3-0.4,0.5-0.8,0.5-1.4
		c0-0.7-0.2-1.3-0.7-1.6s-1.2-0.5-2.1-0.5h-0.3v-1.1h0.4c1.8,0,2.6-0.6,2.6-1.7c0-0.5-0.2-0.9-0.5-1.2s-0.8-0.4-1.4-0.4
		c-0.6,0-1.1,0.1-1.4,0.4c-0.3,0.3-0.6,0.6-0.6,1.1h-1.2C58.3,242.1,58.6,241.5,59.2,241z"/>
	<path class="st2" d="M70.3,249.7c0.7,0,1.3-0.3,1.6-0.9c0.3-0.6,0.5-1.6,0.5-3c-0.2,0.4-0.6,0.7-1,0.9S70.5,247,70,247
		c-0.9,0-1.7-0.3-2.3-0.9c-0.6-0.6-0.9-1.4-0.9-2.4s0.3-1.8,0.9-2.4s1.4-0.9,2.5-0.9c1.2,0,2.1,0.4,2.6,1.3c0.5,0.8,0.8,2.1,0.8,3.9
		c0,1.8-0.2,3.1-0.7,4s-1.4,1.3-2.6,1.3c-0.9,0-1.7-0.2-2.2-0.7s-0.8-1.1-1-1.9h1.2C68.4,249.2,69.1,249.7,70.3,249.7z M68,243.6
		c0,0.7,0.2,1.2,0.6,1.6c0.4,0.4,0.9,0.6,1.6,0.6s1.2-0.2,1.6-0.6c0.4-0.4,0.5-0.9,0.5-1.6s-0.2-1.2-0.6-1.6
		c-0.4-0.4-0.9-0.6-1.6-0.6s-1.2,0.2-1.6,0.6C68.2,242.4,68,242.9,68,243.6z"/>
	<path class="st2" d="M76.5,241.5c0.3-0.3,0.6-0.5,1-0.7s0.9-0.3,1.6-0.3c0.6,0,1.2,0.1,1.6,0.4s0.8,0.6,1.1,1.1
		c0.5,0.9,0.7,2.1,0.7,3.6c0,1.9-0.3,3.3-1,4.1c-0.6,0.7-1.4,1-2.5,1c-2,0-3.1-1.2-3.4-3.5c-0.1-0.5-0.1-1-0.1-1.6s0-1.1,0.1-1.6
		s0.2-0.9,0.3-1.4C76,242.2,76.2,241.8,76.5,241.5z M80.8,242.9c-0.1-0.4-0.4-0.7-0.7-0.9c-0.3-0.2-0.7-0.3-1.1-0.3
		s-0.8,0.1-1.1,0.2c-0.3,0.1-0.5,0.3-0.7,0.6c-0.2,0.2-0.3,0.5-0.4,0.9s-0.2,0.7-0.2,1.1c0,0.3,0,0.7,0,1.2s0,0.9,0,1.2
		s0.1,0.7,0.2,1.1c0.1,0.4,0.2,0.7,0.4,0.9c0.2,0.2,0.4,0.4,0.7,0.6c0.3,0.1,0.6,0.2,1,0.2s0.7-0.1,1-0.2c0.3-0.1,0.5-0.3,0.7-0.6
		c0.2-0.2,0.3-0.5,0.4-0.9c0.1-0.6,0.2-1.3,0.2-2s0-1.3-0.1-1.8C81.1,243.7,81,243.3,80.8,242.9z"/>
</g>
<g class="st1">
	<path class="st2" d="M62.6,134.4v-2.3h-5.2v-0.9l4.8-6.9h1.6v6.7h1.4v1.1h-1.4v2.3L62.6,134.4L62.6,134.4z M62.6,131.1v-5.5
		l-3.8,5.5H62.6z"/>
	<path class="st2" d="M67.6,125.2c0.3-0.3,0.6-0.5,1-0.7s0.9-0.3,1.6-0.3s1.2,0.1,1.6,0.4c0.5,0.3,0.8,0.6,1.1,1.1
		c0.5,0.9,0.7,2.1,0.7,3.6c0,1.9-0.3,3.3-1,4.1c-0.6,0.7-1.4,1-2.5,1c-2,0-3.1-1.2-3.4-3.5c-0.1-0.5-0.1-1-0.1-1.6s0-1.1,0.1-1.6
		c0.1-0.5,0.2-0.9,0.3-1.4S67.3,125.5,67.6,125.2z M71.9,126.6c-0.1-0.4-0.4-0.7-0.7-0.9c-0.3-0.2-0.7-0.3-1.1-0.3s-0.8,0.1-1.1,0.2
		s-0.5,0.3-0.7,0.6s-0.3,0.5-0.4,0.9s-0.2,0.7-0.2,1.1c0,0.3,0,0.7,0,1.2s0,0.9,0,1.2s0.1,0.7,0.2,1.1c0.1,0.4,0.2,0.7,0.4,0.9
		c0.2,0.2,0.4,0.4,0.7,0.6s0.6,0.2,1,0.2s0.7-0.1,1-0.2c0.3-0.1,0.5-0.3,0.7-0.6c0.2-0.2,0.3-0.5,0.4-0.9c0.1-0.6,0.2-1.3,0.2-2
		s0-1.3-0.1-1.8C72.2,127.4,72.1,127,71.9,126.6z"/>
	<path class="st2" d="M76.5,125.2c0.3-0.3,0.6-0.5,1-0.7s0.9-0.3,1.6-0.3s1.2,0.1,1.6,0.4c0.5,0.3,0.8,0.6,1.1,1.1
		c0.5,0.9,0.7,2.1,0.7,3.6c0,1.9-0.3,3.3-1,4.1c-0.6,0.7-1.4,1-2.5,1c-2,0-3.1-1.2-3.4-3.5c-0.1-0.5-0.1-1-0.1-1.6s0-1.1,0.1-1.6
		c0.1-0.5,0.2-0.9,0.3-1.4S76.2,125.5,76.5,125.2z M80.8,126.6c-0.1-0.4-0.4-0.7-0.7-0.9c-0.3-0.2-0.7-0.3-1.1-0.3s-0.8,0.1-1.1,0.2
		s-0.5,0.3-0.7,0.6s-0.3,0.5-0.4,0.9s-0.2,0.7-0.2,1.1c0,0.3,0,0.7,0,1.2s0,0.9,0,1.2s0.1,0.7,0.2,1.1c0.1,0.4,0.2,0.7,0.4,0.9
		c0.2,0.2,0.4,0.4,0.7,0.6s0.6,0.2,1,0.2s0.7-0.1,1-0.2c0.3-0.1,0.5-0.3,0.7-0.6c0.2-0.2,0.3-0.5,0.4-0.9c0.1-0.6,0.2-1.3,0.2-2
		s0-1.3-0.1-1.8C81.1,127.4,81,127,80.8,126.6z"/>
</g>
<g class="st1">
	<path class="st2" d="M67,18.1v-2.3h-5.2v-0.9L66.6,8h1.6v6.7h1.4v1.1h-1.4v2.3H67z M67,14.7V9.2l-3.8,5.5H67z"/>
	<path class="st2" d="M71.9,18.1V9.3h-1.1V8.2h2.4v9.9C73.2,18.1,71.9,18.1,71.9,18.1z"/>
	<path class="st2" d="M76.5,8.8c0.3-0.3,0.6-0.5,1-0.7C77.9,8,78.4,7.9,79,7.9s1.2,0.1,1.6,0.4c0.5,0.3,0.8,0.6,1.1,1.1
		c0.5,0.9,0.7,2.1,0.7,3.6c0,1.9-0.3,3.3-1,4.1c-0.6,0.7-1.4,1-2.5,1c-2,0-3.1-1.2-3.4-3.5c-0.1-0.5-0.1-1-0.1-1.6s0-1.1,0.1-1.6
		s0.2-0.9,0.3-1.4C76,9.5,76.2,9.1,76.5,8.8z M80.8,10.2c-0.1-0.4-0.4-0.7-0.7-0.9C79.8,9.1,79.4,9,79,9s-0.8,0.1-1.1,0.2
		s-0.5,0.3-0.7,0.6s-0.3,0.5-0.4,0.9s-0.2,0.7-0.2,1.1c0,0.3,0,0.7,0,1.2s0,0.9,0,1.2s0.1,0.7,0.2,1.1c0.1,0.4,0.2,0.7,0.4,0.9
		c0.2,0.2,0.4,0.4,0.7,0.6s0.6,0.2,1,0.2s0.7-0.1,1-0.2s0.5-0.3,0.7-0.6c0.2-0.2,0.3-0.5,0.4-0.9c0.1-0.6,0.2-1.3,0.2-2
		s0-1.3-0.1-1.8C81.1,11.1,81,10.7,80.8,10.2z"/>
</g>
<g class="st1">
	<path class="st2" d="M87.5,863.1v-11.3H86v-1.5h3.1v12.8H87.5z"/>
	<path class="st2" d="M96.9,861.7c1,0,1.7-0.4,2.1-1.1c0.4-0.7,0.7-2,0.7-3.9c-0.3,0.5-0.7,0.8-1.3,1.1s-1.2,0.4-1.8,0.4
		c-1.2,0-2.2-0.4-3-1.1c-0.8-0.8-1.2-1.8-1.2-3.1s0.4-2.4,1.1-3.1s1.8-1.2,3.1-1.2c1.6,0,2.7,0.5,3.4,1.6s1,2.8,1,5.1
		s-0.3,4-0.9,5.1s-1.7,1.7-3.3,1.7c-1.2,0-2.2-0.3-2.8-1s-1.1-1.4-1.2-2.4h1.5C94.5,861,95.4,861.7,96.9,861.7z M93.9,853.9
		c0,0.9,0.2,1.6,0.7,2.1s1.2,0.8,2.1,0.8s1.6-0.3,2-0.8c0.5-0.5,0.7-1.2,0.7-2.1c0-0.9-0.2-1.6-0.7-2.1s-1.2-0.8-2-0.8
		s-1.5,0.3-2,0.8C94.1,852.3,93.9,853,93.9,853.9z"/>
	<path class="st2" d="M108.3,861.7c1,0,1.7-0.4,2.1-1.1c0.4-0.7,0.7-2,0.7-3.9c-0.3,0.5-0.7,0.8-1.3,1.1s-1.2,0.4-1.8,0.4
		c-1.2,0-2.2-0.4-3-1.1c-0.8-0.8-1.2-1.8-1.2-3.1s0.4-2.4,1.1-3.1s1.8-1.2,3.1-1.2c1.6,0,2.7,0.5,3.4,1.6s1,2.8,1,5.1
		s-0.3,4-0.9,5.1s-1.7,1.7-3.3,1.7c-1.2,0-2.2-0.3-2.8-1s-1.1-1.4-1.2-2.4h1.5C105.9,861,106.8,861.7,108.3,861.7z M105.3,853.9
		c0,0.9,0.2,1.6,0.7,2.1s1.2,0.8,2.1,0.8s1.6-0.3,2-0.8c0.5-0.5,0.7-1.2,0.7-2.1c0-0.9-0.2-1.6-0.7-2.1s-1.2-0.8-2-0.8
		s-1.5,0.3-2,0.8C105.6,852.3,105.3,853,105.3,853.9z"/>
	<path class="st2" d="M115.3,849.9h7.8v1.4h-6.3v4.1c0.3-0.4,0.7-0.7,1.2-1s1.2-0.4,1.8-0.4c0.7,0,1.3,0.1,1.9,0.4
		c0.6,0.3,1,0.6,1.3,1.1c0.6,0.9,0.9,1.8,0.9,3c0,1.4-0.4,2.5-1.1,3.3c-0.8,0.9-1.8,1.3-3.2,1.3s-2.4-0.3-3.2-1
		c-0.8-0.6-1.3-1.5-1.4-2.5h1.6c0.2,0.6,0.5,1.2,1,1.5c0.5,0.4,1.2,0.6,2.1,0.6s1.5-0.3,2-0.9s0.7-1.3,0.7-2.3s-0.2-1.7-0.7-2.2
		s-1.2-0.8-2.2-0.8c-0.6,0-1.2,0.2-1.7,0.5s-0.8,0.8-1,1.4h-1.5L115.3,849.9L115.3,849.9z"/>
</g>
<g class="st1">
	<path class="st2" d="M164.6,863.1v-11.3h-1.5v-1.5h3.1v12.8H164.6z"/>
	<path class="st2" d="M174,861.7c1,0,1.7-0.4,2.1-1.1c0.4-0.7,0.7-2,0.7-3.9c-0.3,0.5-0.7,0.8-1.3,1.1s-1.2,0.4-1.8,0.4
		c-1.2,0-2.2-0.4-3-1.1c-0.8-0.8-1.2-1.8-1.2-3.1s0.4-2.4,1.1-3.1s1.8-1.2,3.1-1.2c1.6,0,2.7,0.5,3.4,1.6s1,2.8,1,5.1
		s-0.3,4-0.9,5.1c-0.6,1.1-1.7,1.7-3.3,1.7c-1.2,0-2.2-0.3-2.8-1s-1.1-1.4-1.2-2.4h1.5C171.6,861,172.5,861.7,174,861.7z M171,853.9
		c0,0.9,0.2,1.6,0.7,2.1s1.2,0.8,2.1,0.8s1.6-0.3,2-0.8c0.5-0.5,0.7-1.2,0.7-2.1c0-0.9-0.2-1.6-0.7-2.1s-1.2-0.8-2-0.8
		s-1.5,0.3-2,0.8C171.3,852.3,171,853,171,853.9z"/>
	<path class="st2" d="M185.4,861.7c1,0,1.7-0.4,2.1-1.1c0.4-0.7,0.7-2,0.7-3.9c-0.3,0.5-0.7,0.8-1.3,1.1s-1.2,0.4-1.8,0.4
		c-1.2,0-2.2-0.4-3-1.1c-0.8-0.8-1.2-1.8-1.2-3.1s0.4-2.4,1.1-3.1s1.8-1.2,3.1-1.2c1.6,0,2.7,0.5,3.4,1.6s1,2.8,1,5.1
		s-0.3,4-0.9,5.1c-0.6,1.1-1.7,1.7-3.3,1.7c-1.2,0-2.2-0.3-2.8-1s-1.1-1.4-1.2-2.4h1.5C183,861,183.9,861.7,185.4,861.7z
		 M182.4,853.9c0,0.9,0.2,1.6,0.7,2.1s1.2,0.8,2.1,0.8s1.6-0.3,2-0.8c0.5-0.5,0.7-1.2,0.7-2.1c0-0.9-0.2-1.6-0.7-2.1s-1.2-0.8-2-0.8
		s-1.5,0.3-2,0.8C182.7,852.3,182.4,853,182.4,853.9z"/>
	<path class="st2" d="M196.9,851c-1.1,0-1.9,0.4-2.4,1.2s-0.8,2.1-0.8,4c0.3-0.6,0.8-1,1.4-1.4c0.6-0.3,1.3-0.5,2.1-0.5
		c1.2,0,2.2,0.4,2.9,1.2s1.1,1.8,1.1,3.1s-0.4,2.4-1.1,3.2c-0.7,0.8-1.8,1.2-3.2,1.2c-2.2,0-3.6-0.9-4.2-2.8c-0.3-1-0.5-2.5-0.5-4.4
		s0.4-3.4,1.1-4.6c0.7-1.1,1.9-1.7,3.5-1.7c1.2,0,2.1,0.3,2.7,0.9c0.7,0.6,1.1,1.4,1.2,2.3h-1.5c-0.2-0.6-0.4-1.1-0.8-1.4
		C198.1,851.2,197.6,851,196.9,851z M199.7,858.7c0-0.9-0.2-1.6-0.7-2.2s-1.1-0.8-2-0.8s-1.6,0.2-2.2,0.7c-0.6,0.5-0.9,1.2-0.9,2.1
		c0,0.9,0.3,1.7,0.8,2.2s1.2,0.8,2.2,0.8c0.9,0,1.6-0.3,2.1-0.8C199.4,860.4,199.7,859.7,199.7,858.7z"/>
</g>
<g class="st1">
	<path class="st2" d="M242.6,863.1v-11.3h-1.5v-1.5h3.1v12.8H242.6z"/>
	<path class="st2" d="M252,861.7c1,0,1.7-0.4,2.1-1.1c0.4-0.7,0.7-2,0.7-3.9c-0.3,0.5-0.7,0.8-1.3,1.1s-1.2,0.4-1.8,0.4
		c-1.2,0-2.2-0.4-3-1.1c-0.8-0.8-1.2-1.8-1.2-3.1s0.4-2.4,1.1-3.1s1.8-1.2,3.1-1.2c1.6,0,2.7,0.5,3.4,1.6s1,2.8,1,5.1
		s-0.3,4-0.9,5.1c-0.6,1.1-1.7,1.7-3.3,1.7c-1.2,0-2.2-0.3-2.8-1s-1.1-1.4-1.2-2.4h1.5C249.6,861,250.4,861.7,252,861.7z M249,853.9
		c0,0.9,0.2,1.6,0.7,2.1s1.2,0.8,2.1,0.8s1.6-0.3,2-0.8c0.5-0.5,0.7-1.2,0.7-2.1c0-0.9-0.2-1.6-0.7-2.1s-1.2-0.8-2-0.8
		s-1.5,0.3-2,0.8C249.2,852.3,249,853,249,853.9z"/>
	<path class="st2" d="M263.4,861.7c1,0,1.7-0.4,2.1-1.1c0.4-0.7,0.7-2,0.7-3.9c-0.3,0.5-0.7,0.8-1.3,1.1s-1.2,0.4-1.8,0.4
		c-1.2,0-2.2-0.4-3-1.1c-0.8-0.8-1.2-1.8-1.2-3.1s0.4-2.4,1.1-3.1s1.8-1.2,3.1-1.2c1.6,0,2.7,0.5,3.4,1.6s1,2.8,1,5.1
		s-0.3,4-0.9,5.1s-1.7,1.7-3.3,1.7c-1.2,0-2.2-0.3-2.8-1s-1.1-1.4-1.2-2.4h1.5C261,861,261.9,861.7,263.4,861.7z M260.4,853.9
		c0,0.9,0.2,1.6,0.7,2.1s1.2,0.8,2.1,0.8s1.6-0.3,2-0.8c0.5-0.5,0.7-1.2,0.7-2.1c0-0.9-0.2-1.6-0.7-2.1s-1.2-0.8-2-0.8
		s-1.5,0.3-2,0.8C260.7,852.3,260.4,853,260.4,853.9z"/>
	<path class="st2" d="M269.5,850h8.7v1.2l-5.1,11.9h-1.8l5.4-11.7h-7.1V850H269.5z"/>
</g>
<g class="st1">
	<path class="st2" d="M319.1,863.1v-11.3h-1.5v-1.5h3.1v12.8H319.1z"/>
	<path class="st2" d="M328.5,861.7c1,0,1.7-0.4,2.1-1.1c0.4-0.7,0.7-2,0.7-3.9c-0.3,0.5-0.7,0.8-1.3,1.1s-1.2,0.4-1.8,0.4
		c-1.2,0-2.2-0.4-3-1.1c-0.8-0.8-1.2-1.8-1.2-3.1s0.4-2.4,1.1-3.1s1.8-1.2,3.1-1.2c1.6,0,2.7,0.5,3.4,1.6s1,2.8,1,5.1
		s-0.3,4-0.9,5.1s-1.7,1.7-3.3,1.7c-1.2,0-2.2-0.3-2.8-1s-1.1-1.4-1.2-2.4h1.5C326.1,861,327,861.7,328.5,861.7z M325.5,853.9
		c0,0.9,0.2,1.6,0.7,2.1s1.2,0.8,2.1,0.8s1.6-0.3,2-0.8c0.5-0.5,0.7-1.2,0.7-2.1c0-0.9-0.2-1.6-0.7-2.1s-1.2-0.8-2-0.8
		s-1.5,0.3-2,0.8C325.8,852.3,325.5,853,325.5,853.9z"/>
	<path class="st2" d="M339.9,861.7c1,0,1.7-0.4,2.1-1.1c0.4-0.7,0.7-2,0.7-3.9c-0.3,0.5-0.7,0.8-1.3,1.1s-1.2,0.4-1.8,0.4
		c-1.2,0-2.2-0.4-3-1.1c-0.8-0.8-1.2-1.8-1.2-3.1s0.4-2.4,1.1-3.1s1.8-1.2,3.1-1.2c1.6,0,2.7,0.5,3.4,1.6s1,2.8,1,5.1
		s-0.3,4-0.9,5.1s-1.7,1.7-3.3,1.7c-1.2,0-2.2-0.3-2.8-1s-1.1-1.4-1.2-2.4h1.5C337.5,861,338.4,861.7,339.9,861.7z M336.9,853.9
		c0,0.9,0.2,1.6,0.7,2.1s1.2,0.8,2.1,0.8s1.6-0.3,2-0.8c0.5-0.5,0.7-1.2,0.7-2.1c0-0.9-0.2-1.6-0.7-2.1s-1.2-0.8-2-0.8
		s-1.5,0.3-2,0.8C337.2,852.3,336.9,853,336.9,853.9z"/>
	<path class="st2" d="M346.8,853.1c0-1,0.4-1.9,1.1-2.5s1.8-1,3.1-1c1.4,0,2.4,0.3,3.1,1s1.1,1.5,1.1,2.5c0,0.7-0.2,1.3-0.5,1.8
		c-0.4,0.5-0.8,0.9-1.4,1.2c0.7,0.2,1.2,0.6,1.7,1.2c0.4,0.6,0.6,1.3,0.6,2.1c0,1.2-0.4,2.2-1.3,2.9c-0.8,0.7-1.9,1.1-3.3,1.1
		s-2.5-0.4-3.3-1.1c-0.8-0.7-1.3-1.7-1.3-2.9c0-0.8,0.2-1.5,0.6-2.1s1-1,1.7-1.2C347.5,855.4,346.8,854.4,346.8,853.1z M354,859.3
		c0-0.8-0.3-1.5-0.8-1.9c-0.6-0.4-1.3-0.7-2.2-0.7s-1.6,0.2-2.2,0.7c-0.6,0.4-0.8,1.1-0.8,1.9s0.3,1.5,0.8,2s1.3,0.7,2.2,0.7
		c0.9,0,1.7-0.2,2.2-0.7S354,860.2,354,859.3z M353.7,853.2c0-0.7-0.2-1.2-0.7-1.6s-1.1-0.6-2-0.6s-1.5,0.2-2,0.6
		c-0.5,0.4-0.7,1-0.7,1.6c0,0.7,0.2,1.3,0.7,1.7s1.1,0.6,1.9,0.6s1.4-0.2,1.9-0.6C353.5,854.4,353.7,853.9,353.7,853.2z"/>
</g>
<g class="st1">
	<path class="st2" d="M396.3,863.1v-11.3h-1.5v-1.5h3.1v12.8H396.3z"/>
	<path class="st2" d="M405.7,861.7c1,0,1.7-0.4,2.1-1.1c0.4-0.7,0.7-2,0.7-3.9c-0.3,0.5-0.7,0.8-1.3,1.1s-1.2,0.4-1.8,0.4
		c-1.2,0-2.2-0.4-3-1.1c-0.8-0.8-1.2-1.8-1.2-3.1s0.4-2.4,1.1-3.1s1.8-1.2,3.1-1.2c1.6,0,2.7,0.5,3.4,1.6s1,2.8,1,5.1
		s-0.3,4-0.9,5.1s-1.7,1.7-3.3,1.7c-1.2,0-2.2-0.3-2.8-1s-1.1-1.4-1.2-2.4h1.5C403.3,861,404.2,861.7,405.7,861.7z M402.7,853.9
		c0,0.9,0.2,1.6,0.7,2.1s1.2,0.8,2.1,0.8s1.6-0.3,2-0.8c0.5-0.5,0.7-1.2,0.7-2.1c0-0.9-0.2-1.6-0.7-2.1s-1.2-0.8-2-0.8
		s-1.5,0.3-2,0.8C403,852.3,402.7,853,402.7,853.9z"/>
	<path class="st2" d="M417.1,861.7c1,0,1.7-0.4,2.1-1.1c0.4-0.7,0.7-2,0.7-3.9c-0.3,0.5-0.7,0.8-1.3,1.1s-1.2,0.4-1.8,0.4
		c-1.2,0-2.2-0.4-3-1.1c-0.8-0.8-1.2-1.8-1.2-3.1s0.4-2.4,1.1-3.1s1.8-1.2,3.1-1.2c1.6,0,2.7,0.5,3.4,1.6s1,2.8,1,5.1
		s-0.3,4-0.9,5.1s-1.7,1.7-3.3,1.7c-1.2,0-2.2-0.3-2.8-1s-1.1-1.4-1.2-2.4h1.5C414.7,861,415.6,861.7,417.1,861.7z M414.2,853.9
		c0,0.9,0.2,1.6,0.7,2.1s1.2,0.8,2.1,0.8s1.6-0.3,2-0.8c0.5-0.5,0.7-1.2,0.7-2.1c0-0.9-0.2-1.6-0.7-2.1s-1.2-0.8-2-0.8
		s-1.5,0.3-2,0.8C414.4,852.3,414.2,853,414.2,853.9z"/>
	<path class="st2" d="M428.6,861.7c1,0,1.7-0.4,2.1-1.1c0.4-0.7,0.7-2,0.7-3.9c-0.3,0.5-0.7,0.8-1.3,1.1s-1.2,0.4-1.8,0.4
		c-1.2,0-2.2-0.4-3-1.1c-0.8-0.8-1.2-1.8-1.2-3.1s0.4-2.4,1.1-3.1s1.8-1.2,3.1-1.2c1.6,0,2.7,0.5,3.4,1.6s1,2.8,1,5.1
		s-0.3,4-0.9,5.1s-1.7,1.7-3.3,1.7c-1.2,0-2.2-0.3-2.8-1s-1.1-1.4-1.2-2.4h1.5C426.2,861,427.1,861.7,428.6,861.7z M425.6,853.9
		c0,0.9,0.2,1.6,0.7,2.1s1.2,0.8,2.1,0.8s1.6-0.3,2-0.8c0.5-0.5,0.7-1.2,0.7-2.1c0-0.9-0.2-1.6-0.7-2.1s-1.2-0.8-2-0.8
		s-1.5,0.3-2,0.8C425.8,852.3,425.6,853,425.6,853.9z"/>
</g>
<g class="st1">
	<path class="st2" d="M469.8,862.9v-1.2c0.3-0.3,0.7-0.6,1.4-1.2c0.6-0.5,1.1-0.9,1.4-1.2s0.7-0.6,1.2-1.1s0.9-0.8,1.1-1.2
		c0.3-0.3,0.5-0.7,0.8-1.1c0.5-0.8,0.8-1.5,0.8-2.3s-0.2-1.4-0.6-1.8s-1-0.7-1.8-0.7s-1.5,0.3-1.9,0.8s-0.7,1.2-0.7,2h-1.6
		c0-1.3,0.5-2.4,1.2-3.1c0.8-0.7,1.8-1.1,3-1.1s2.2,0.3,2.9,1c0.7,0.7,1.1,1.6,1.1,2.8c0,1.4-0.7,2.9-2.1,4.4
		c-0.5,0.5-0.9,0.9-1.2,1.2c-0.8,0.7-1.6,1.5-2.5,2.2h6.1v1.4h-8.6V862.9z"/>
	<path class="st2" d="M481.7,851.2c0.3-0.4,0.8-0.7,1.3-0.9s1.2-0.3,2-0.3s1.5,0.2,2.1,0.5s1.1,0.8,1.4,1.4c0.6,1.2,0.9,2.7,0.9,4.6
		c0,2.5-0.4,4.3-1.3,5.3c-0.7,0.8-1.8,1.3-3.2,1.3c-2.6,0-4-1.5-4.4-4.5c-0.1-0.6-0.1-1.3-0.1-2.1s0-1.5,0.1-2.1s0.2-1.2,0.4-1.8
		C481.1,852,481.4,851.5,481.7,851.2z M487.4,853c-0.2-0.5-0.5-0.9-0.9-1.2s-0.9-0.4-1.5-0.4s-1,0.1-1.4,0.3s-0.7,0.4-0.9,0.7
		s-0.4,0.7-0.5,1.2s-0.2,0.9-0.2,1.4c0,0.4,0,1,0,1.6s0,1.1,0,1.6c0,0.4,0.1,0.9,0.2,1.4s0.3,0.9,0.5,1.2s0.5,0.5,0.9,0.7
		s0.8,0.3,1.3,0.3s0.9-0.1,1.3-0.3s0.7-0.4,0.9-0.7s0.4-0.7,0.5-1.2c0.2-0.8,0.3-1.6,0.3-2.6s0-1.7-0.1-2.2
		C487.7,854,487.5,853.5,487.4,853z"/>
	<path class="st2" d="M493.2,851.2c0.3-0.4,0.8-0.7,1.3-0.9s1.2-0.3,2-0.3s1.5,0.2,2.1,0.5s1.1,0.8,1.4,1.4c0.6,1.2,0.9,2.7,0.9,4.6
		c0,2.5-0.4,4.3-1.3,5.3c-0.7,0.8-1.8,1.3-3.2,1.3c-2.6,0-4-1.5-4.4-4.5c-0.1-0.6-0.1-1.3-0.1-2.1s0-1.5,0.1-2.1s0.2-1.2,0.4-1.8
		C492.6,852,492.9,851.5,493.2,851.2z M498.8,853c-0.2-0.5-0.5-0.9-0.9-1.2s-0.9-0.4-1.5-0.4s-1,0.1-1.4,0.3s-0.7,0.4-0.9,0.7
		s-0.4,0.7-0.5,1.2s-0.2,0.9-0.2,1.4c0,0.4,0,1,0,1.6s0,1.1,0,1.6c0,0.4,0.1,0.9,0.2,1.4s0.3,0.9,0.5,1.2s0.5,0.5,0.9,0.7
		s0.8,0.3,1.3,0.3s0.9-0.1,1.3-0.3s0.7-0.4,0.9-0.7s0.4-0.7,0.5-1.2c0.2-0.8,0.3-1.6,0.3-2.6s0-1.7-0.1-2.2
		C499.1,854,499,853.5,498.8,853z"/>
	<path class="st2" d="M504.6,851.2c0.3-0.4,0.8-0.7,1.3-0.9s1.2-0.3,2-0.3s1.5,0.2,2.1,0.5s1.1,0.8,1.4,1.4c0.6,1.2,0.9,2.7,0.9,4.6
		c0,2.5-0.4,4.3-1.3,5.3c-0.7,0.8-1.8,1.3-3.2,1.3c-2.6,0-4-1.5-4.4-4.5c-0.1-0.6-0.1-1.3-0.1-2.1s0-1.5,0.1-2.1s0.2-1.2,0.4-1.8
		C504,852,504.3,851.5,504.6,851.2z M510.3,853c-0.2-0.5-0.5-0.9-0.9-1.2s-0.9-0.4-1.5-0.4s-1,0.1-1.4,0.3s-0.7,0.4-0.9,0.7
		s-0.4,0.7-0.5,1.2s-0.2,0.9-0.2,1.4c0,0.4,0,1,0,1.6s0,1.1,0,1.6c0,0.4,0.1,0.9,0.2,1.4s0.3,0.9,0.5,1.2s0.5,0.5,0.9,0.7
		s0.8,0.3,1.3,0.3s0.9-0.1,1.3-0.3s0.7-0.4,0.9-0.7s0.4-0.7,0.5-1.2c0.2-0.8,0.3-1.6,0.3-2.6s0-1.7-0.1-2.2
		C510.6,854,510.4,853.5,510.3,853z"/>
</g>
<g class="st1">
	<path class="st2" d="M549.8,862.9v-1.2c0.3-0.3,0.7-0.6,1.4-1.2c0.6-0.5,1.1-0.9,1.4-1.2c0.3-0.3,0.7-0.6,1.2-1.1s0.9-0.8,1.1-1.2
		c0.3-0.3,0.5-0.7,0.8-1.1c0.5-0.8,0.8-1.5,0.8-2.3s-0.2-1.4-0.6-1.8s-1-0.7-1.8-0.7s-1.5,0.3-1.9,0.8s-0.7,1.2-0.7,2h-1.6
		c0-1.3,0.5-2.4,1.2-3.1c0.8-0.7,1.8-1.1,3-1.1s2.2,0.3,2.9,1s1.1,1.6,1.1,2.8c0,1.4-0.7,2.9-2.1,4.4c-0.5,0.5-0.9,0.9-1.2,1.2
		c-0.8,0.7-1.6,1.5-2.5,2.2h6.1v1.4h-8.6V862.9z"/>
	<path class="st2" d="M561.8,851.2c0.3-0.4,0.8-0.7,1.3-0.9s1.2-0.3,2-0.3s1.5,0.2,2.1,0.5s1.1,0.8,1.4,1.4c0.6,1.2,0.9,2.7,0.9,4.6
		c0,2.5-0.4,4.3-1.3,5.3c-0.7,0.8-1.8,1.3-3.2,1.3c-2.6,0-4-1.5-4.4-4.5c-0.1-0.6-0.1-1.3-0.1-2.1s0-1.5,0.1-2.1s0.2-1.2,0.4-1.8
		C561.2,852,561.5,851.5,561.8,851.2z M567.4,853c-0.2-0.5-0.5-0.9-0.9-1.2s-0.9-0.4-1.5-0.4s-1,0.1-1.4,0.3s-0.7,0.4-0.9,0.7
		s-0.4,0.7-0.5,1.2s-0.2,0.9-0.2,1.4c0,0.4,0,1,0,1.6s0,1.1,0,1.6c0,0.4,0.1,0.9,0.2,1.4c0.1,0.5,0.3,0.9,0.5,1.2s0.5,0.5,0.9,0.7
		s0.8,0.3,1.3,0.3s0.9-0.1,1.3-0.3c0.4-0.2,0.7-0.4,0.9-0.7s0.4-0.7,0.5-1.2c0.2-0.8,0.3-1.6,0.3-2.6s0-1.7-0.1-2.2
		C567.7,854,567.6,853.5,567.4,853z"/>
	<path class="st2" d="M573.2,851.2c0.3-0.4,0.8-0.7,1.3-0.9s1.2-0.3,2-0.3s1.5,0.2,2.1,0.5s1.1,0.8,1.4,1.4c0.6,1.2,0.9,2.7,0.9,4.6
		c0,2.5-0.4,4.3-1.3,5.3c-0.7,0.8-1.8,1.3-3.2,1.3c-2.6,0-4-1.5-4.4-4.5c-0.1-0.6-0.1-1.3-0.1-2.1s0-1.5,0.1-2.1s0.2-1.2,0.4-1.8
		C572.6,852,572.9,851.5,573.2,851.2z M578.9,853c-0.2-0.5-0.5-0.9-0.9-1.2s-0.9-0.4-1.5-0.4s-1,0.1-1.4,0.3s-0.7,0.4-0.9,0.7
		s-0.4,0.7-0.5,1.2s-0.2,0.9-0.2,1.4c0,0.4,0,1,0,1.6s0,1.1,0,1.6c0,0.4,0.1,0.9,0.2,1.4c0.1,0.5,0.3,0.9,0.5,1.2s0.5,0.5,0.9,0.7
		s0.8,0.3,1.3,0.3s0.9-0.1,1.3-0.3c0.4-0.2,0.7-0.4,0.9-0.7s0.4-0.7,0.5-1.2c0.2-0.8,0.3-1.6,0.3-2.6s0-1.7-0.1-2.2
		C579.2,854,579,853.5,578.9,853z"/>
	<path class="st2" d="M584.5,863.1v-11.3H583v-1.5h3.1v12.8H584.5z"/>
</g>
<g class="st1">
	<path class="st2" d="M624.7,862.9v-1.2c0.3-0.3,0.7-0.6,1.4-1.2c0.6-0.5,1.1-0.9,1.4-1.2c0.3-0.3,0.7-0.6,1.2-1.1s0.9-0.8,1.1-1.2
		c0.3-0.3,0.5-0.7,0.8-1.1c0.5-0.8,0.8-1.5,0.8-2.3s-0.2-1.4-0.6-1.8s-1-0.7-1.8-0.7s-1.5,0.3-1.9,0.8s-0.7,1.2-0.7,2h-1.6
		c0-1.3,0.5-2.4,1.2-3.1c0.8-0.7,1.8-1.1,3-1.1s2.2,0.3,2.9,1s1.1,1.6,1.1,2.8c0,1.4-0.7,2.9-2.1,4.4c-0.5,0.5-0.9,0.9-1.2,1.2
		c-0.8,0.7-1.6,1.5-2.5,2.2h6.1v1.4h-8.6V862.9z"/>
	<path class="st2" d="M636.7,851.2c0.3-0.4,0.8-0.7,1.3-0.9s1.2-0.3,2-0.3s1.5,0.2,2.1,0.5s1.1,0.8,1.4,1.4c0.6,1.2,0.9,2.7,0.9,4.6
		c0,2.5-0.4,4.3-1.3,5.3c-0.7,0.8-1.8,1.3-3.2,1.3c-2.6,0-4-1.5-4.4-4.5c-0.1-0.6-0.1-1.3-0.1-2.1s0-1.5,0.1-2.1s0.2-1.2,0.4-1.8
		C636.1,852,636.3,851.5,636.7,851.2z M642.3,853c-0.2-0.5-0.5-0.9-0.9-1.2s-0.9-0.4-1.5-0.4s-1,0.1-1.4,0.3s-0.7,0.4-0.9,0.7
		s-0.4,0.7-0.5,1.2s-0.2,0.9-0.2,1.4c0,0.4,0,1,0,1.6s0,1.1,0,1.6c0,0.4,0.1,0.9,0.2,1.4c0.1,0.5,0.3,0.9,0.5,1.2s0.5,0.5,0.9,0.7
		s0.8,0.3,1.3,0.3s0.9-0.1,1.3-0.3c0.4-0.2,0.7-0.4,0.9-0.7s0.4-0.7,0.5-1.2c0.2-0.8,0.3-1.6,0.3-2.6s0-1.7-0.1-2.2
		C642.6,854,642.5,853.5,642.3,853z"/>
	<path class="st2" d="M648.1,851.2c0.3-0.4,0.8-0.7,1.3-0.9s1.2-0.3,2-0.3s1.5,0.2,2.1,0.5s1.1,0.8,1.4,1.4c0.6,1.2,0.9,2.7,0.9,4.6
		c0,2.5-0.4,4.3-1.3,5.3c-0.7,0.8-1.8,1.3-3.2,1.3c-2.6,0-4-1.5-4.4-4.5c-0.1-0.6-0.1-1.3-0.1-2.1s0-1.5,0.1-2.1s0.2-1.2,0.4-1.8
		C647.5,852,647.8,851.5,648.1,851.2z M653.7,853c-0.2-0.5-0.5-0.9-0.9-1.2s-0.9-0.4-1.5-0.4s-1,0.1-1.4,0.3s-0.7,0.4-0.9,0.7
		s-0.4,0.7-0.5,1.2s-0.2,0.9-0.2,1.4c0,0.4,0,1,0,1.6s0,1.1,0,1.6c0,0.4,0.1,0.9,0.2,1.4c0.1,0.5,0.3,0.9,0.5,1.2s0.5,0.5,0.9,0.7
		s0.8,0.3,1.3,0.3s0.9-0.1,1.3-0.3c0.4-0.2,0.7-0.4,0.9-0.7s0.4-0.7,0.5-1.2c0.2-0.8,0.3-1.6,0.3-2.6s0-1.7-0.1-2.2
		C654.1,854,653.9,853.5,653.7,853z"/>
	<path class="st2" d="M658,862.9v-1.2c0.3-0.3,0.7-0.6,1.4-1.2c0.6-0.5,1.1-0.9,1.4-1.2c0.3-0.3,0.7-0.6,1.2-1.1s0.9-0.8,1.1-1.2
		c0.3-0.3,0.5-0.7,0.8-1.1c0.5-0.8,0.8-1.5,0.8-2.3s-0.2-1.4-0.6-1.8s-1-0.7-1.8-0.7s-1.5,0.3-1.9,0.8s-0.7,1.2-0.7,2H658
		c0-1.3,0.5-2.4,1.2-3.1c0.8-0.7,1.8-1.1,3-1.1s2.2,0.3,2.9,1s1.1,1.6,1.1,2.8c0,1.4-0.7,2.9-2.1,4.4c-0.5,0.5-0.9,0.9-1.2,1.2
		c-0.8,0.7-1.6,1.5-2.5,2.2h6.1v1.4H658V862.9z"/>
</g>
<g class="st1">
	<path class="st2" d="M701.8,862.9v-1.2c0.3-0.3,0.7-0.6,1.4-1.2c0.6-0.5,1.1-0.9,1.4-1.2c0.3-0.3,0.7-0.6,1.2-1.1s0.9-0.8,1.1-1.2
		c0.3-0.3,0.5-0.7,0.8-1.1c0.5-0.8,0.8-1.5,0.8-2.3s-0.2-1.4-0.6-1.8s-1-0.7-1.8-0.7s-1.5,0.3-1.9,0.8s-0.7,1.2-0.7,2h-1.6
		c0-1.3,0.5-2.4,1.2-3.1c0.8-0.7,1.8-1.1,3-1.1s2.2,0.3,2.9,1s1.1,1.6,1.1,2.8c0,1.4-0.7,2.9-2.1,4.4c-0.5,0.5-0.9,0.9-1.2,1.2
		c-0.8,0.7-1.6,1.5-2.5,2.2h6.1v1.4h-8.6V862.9z"/>
	<path class="st2" d="M713.8,851.2c0.3-0.4,0.8-0.7,1.3-0.9s1.2-0.3,2-0.3s1.5,0.2,2.1,0.5s1.1,0.8,1.4,1.4c0.6,1.2,0.9,2.7,0.9,4.6
		c0,2.5-0.4,4.3-1.3,5.3c-0.7,0.8-1.8,1.3-3.2,1.3c-2.6,0-4-1.5-4.4-4.5c-0.1-0.6-0.1-1.3-0.1-2.1s0-1.5,0.1-2.1s0.2-1.2,0.4-1.8
		C713.2,852,713.5,851.5,713.8,851.2z M719.4,853c-0.2-0.5-0.5-0.9-0.9-1.2s-0.9-0.4-1.5-0.4s-1,0.1-1.4,0.3s-0.7,0.4-0.9,0.7
		s-0.4,0.7-0.5,1.2s-0.2,0.9-0.2,1.4c0,0.4,0,1,0,1.6s0,1.1,0,1.6c0,0.4,0.1,0.9,0.2,1.4c0.1,0.5,0.3,0.9,0.5,1.2s0.5,0.5,0.9,0.7
		s0.8,0.3,1.3,0.3s0.9-0.1,1.3-0.3c0.4-0.2,0.7-0.4,0.9-0.7s0.4-0.7,0.5-1.2c0.2-0.8,0.3-1.6,0.3-2.6s0-1.7-0.1-2.2
		C719.7,854,719.6,853.5,719.4,853z"/>
	<path class="st2" d="M725.2,851.2c0.3-0.4,0.8-0.7,1.3-0.9s1.2-0.3,2-0.3s1.5,0.2,2.1,0.5s1.1,0.8,1.4,1.4c0.6,1.2,0.9,2.7,0.9,4.6
		c0,2.5-0.4,4.3-1.3,5.3c-0.7,0.8-1.8,1.3-3.2,1.3c-2.6,0-4-1.5-4.4-4.5c-0.1-0.6-0.1-1.3-0.1-2.1s0-1.5,0.1-2.1s0.2-1.2,0.4-1.8
		C724.6,852,724.9,851.5,725.2,851.2z M730.9,853c-0.2-0.5-0.5-0.9-0.9-1.2s-0.9-0.4-1.5-0.4s-1,0.1-1.4,0.3s-0.7,0.4-0.9,0.7
		s-0.4,0.7-0.5,1.2s-0.2,0.9-0.2,1.4c0,0.4,0,1,0,1.6s0,1.1,0,1.6c0,0.4,0.1,0.9,0.2,1.4c0.1,0.5,0.3,0.9,0.5,1.2s0.5,0.5,0.9,0.7
		s0.8,0.3,1.3,0.3s0.9-0.1,1.3-0.3c0.4-0.2,0.7-0.4,0.9-0.7s0.4-0.7,0.5-1.2c0.2-0.8,0.3-1.6,0.3-2.6s0-1.7-0.1-2.2
		C731.2,854,731,853.5,730.9,853z"/>
	<path class="st2" d="M736.5,850.5c0.8-0.6,1.8-0.9,3-0.9s2.2,0.3,2.9,1c0.7,0.6,1.1,1.4,1.1,2.4c0,0.7-0.2,1.3-0.6,1.9
		s-0.9,0.9-1.5,1.1v0.1c0.7,0.2,1.3,0.6,1.7,1.2c0.4,0.6,0.6,1.4,0.6,2.4s-0.4,1.8-1.1,2.5c-0.7,0.7-1.7,1-3,1s-2.3-0.3-3.1-1
		c-0.8-0.6-1.3-1.6-1.4-2.8h1.5c0.1,0.7,0.3,1.2,0.9,1.7c0.5,0.4,1.2,0.7,2,0.7s1.5-0.2,1.9-0.7c0.5-0.5,0.7-1,0.7-1.7
		c0-0.9-0.3-1.6-0.9-2c-0.6-0.4-1.5-0.6-2.8-0.6H738v-1.4h0.4c2.3,0,3.4-0.8,3.4-2.2c0-0.7-0.2-1.2-0.6-1.6c-0.4-0.4-1-0.6-1.8-0.6
		s-1.4,0.2-1.8,0.5c-0.4,0.4-0.7,0.8-0.8,1.4h-1.6C735.3,852,735.8,851.1,736.5,850.5z"/>
</g>
<g class="st1">
	<path class="st2" d="M778.6,862.9v-1.2c0.3-0.3,0.7-0.6,1.4-1.2c0.6-0.5,1.1-0.9,1.4-1.2c0.3-0.3,0.7-0.6,1.2-1.1s0.9-0.8,1.1-1.2
		c0.3-0.3,0.5-0.7,0.8-1.1c0.5-0.8,0.8-1.5,0.8-2.3s-0.2-1.4-0.6-1.8s-1-0.7-1.8-0.7s-1.5,0.3-1.9,0.8s-0.7,1.2-0.7,2h-1.6
		c0-1.3,0.5-2.4,1.2-3.1c0.8-0.7,1.8-1.1,3-1.1s2.2,0.3,2.9,1s1.1,1.6,1.1,2.8c0,1.4-0.7,2.9-2.1,4.4c-0.5,0.5-0.9,0.9-1.2,1.2
		c-0.8,0.7-1.6,1.5-2.5,2.2h6.1v1.4h-8.6V862.9z"/>
	<path class="st2" d="M790.6,851.2c0.3-0.4,0.8-0.7,1.3-0.9s1.2-0.3,2-0.3s1.5,0.2,2.1,0.5s1.1,0.8,1.4,1.4c0.6,1.2,0.9,2.7,0.9,4.6
		c0,2.5-0.4,4.3-1.3,5.3c-0.7,0.8-1.8,1.3-3.2,1.3c-2.6,0-4-1.5-4.4-4.5c-0.1-0.6-0.1-1.3-0.1-2.1s0-1.5,0.1-2.1s0.2-1.2,0.4-1.8
		C790,852,790.3,851.5,790.6,851.2z M796.2,853c-0.2-0.5-0.5-0.9-0.9-1.2s-0.9-0.4-1.5-0.4s-1,0.1-1.4,0.3s-0.7,0.4-0.9,0.7
		s-0.4,0.7-0.5,1.2s-0.2,0.9-0.2,1.4c0,0.4,0,1,0,1.6s0,1.1,0,1.6c0,0.4,0.1,0.9,0.2,1.4c0.1,0.5,0.3,0.9,0.5,1.2s0.5,0.5,0.9,0.7
		s0.8,0.3,1.3,0.3s0.9-0.1,1.3-0.3c0.4-0.2,0.7-0.4,0.9-0.7s0.4-0.7,0.5-1.2c0.2-0.8,0.3-1.6,0.3-2.6s0-1.7-0.1-2.2
		C796.5,854,796.4,853.5,796.2,853z"/>
	<path class="st2" d="M802.1,851.2c0.3-0.4,0.8-0.7,1.3-0.9s1.2-0.3,2-0.3s1.5,0.2,2.1,0.5s1.1,0.8,1.4,1.4c0.6,1.2,0.9,2.7,0.9,4.6
		c0,2.5-0.4,4.3-1.3,5.3c-0.7,0.8-1.8,1.3-3.2,1.3c-2.6,0-4-1.5-4.4-4.5c-0.1-0.6-0.1-1.3-0.1-2.1s0-1.5,0.1-2.1s0.2-1.2,0.4-1.8
		C801.5,852,801.7,851.5,802.1,851.2z M807.7,853c-0.2-0.5-0.5-0.9-0.9-1.2s-0.9-0.4-1.5-0.4s-1,0.1-1.4,0.3s-0.7,0.4-0.9,0.7
		s-0.4,0.7-0.5,1.2s-0.2,0.9-0.2,1.4c0,0.4,0,1,0,1.6s0,1.1,0,1.6c0,0.4,0.1,0.9,0.2,1.4c0.1,0.5,0.3,0.9,0.5,1.2s0.5,0.5,0.9,0.7
		s0.8,0.3,1.3,0.3s0.9-0.1,1.3-0.3c0.4-0.2,0.7-0.4,0.9-0.7s0.4-0.7,0.5-1.2c0.2-0.8,0.3-1.6,0.3-2.6s0-1.7-0.1-2.2
		C808,854,807.9,853.5,807.7,853z"/>
	<path class="st2" d="M818.5,863.1v-2.9h-6.7V859l6.2-8.9h2.1v8.6h1.7v1.4H820v2.9L818.5,863.1L818.5,863.1z M818.5,858.8v-7.1
		l-4.8,7.1H818.5z"/>
</g>
<g class="st1">
	<path class="st2" d="M855.9,862.9v-1.2c0.3-0.3,0.7-0.6,1.4-1.2c0.6-0.5,1.1-0.9,1.4-1.2c0.3-0.3,0.7-0.6,1.2-1.1s0.9-0.8,1.1-1.2
		c0.3-0.3,0.5-0.7,0.8-1.1c0.5-0.8,0.8-1.5,0.8-2.3s-0.2-1.4-0.6-1.8s-1-0.7-1.8-0.7s-1.5,0.3-1.9,0.8s-0.7,1.2-0.7,2H856
		c0-1.3,0.5-2.4,1.2-3.1c0.8-0.7,1.8-1.1,3-1.1s2.2,0.3,2.9,1s1.1,1.6,1.1,2.8c0,1.4-0.7,2.9-2.1,4.4c-0.5,0.5-0.9,0.9-1.2,1.2
		c-0.8,0.7-1.6,1.5-2.5,2.2h6.1v1.4h-8.6V862.9z"/>
	<path class="st2" d="M867.8,851.2c0.3-0.4,0.8-0.7,1.3-0.9s1.2-0.3,2-0.3s1.5,0.2,2.1,0.5s1.1,0.8,1.4,1.4c0.6,1.2,0.9,2.7,0.9,4.6
		c0,2.5-0.4,4.3-1.3,5.3c-0.7,0.8-1.8,1.3-3.2,1.3c-2.6,0-4-1.5-4.4-4.5c-0.1-0.6-0.1-1.3-0.1-2.1s0-1.5,0.1-2.1s0.2-1.2,0.4-1.8
		C867.2,852,867.5,851.5,867.8,851.2z M873.4,853c-0.2-0.5-0.5-0.9-0.9-1.2s-0.9-0.4-1.5-0.4s-1,0.1-1.4,0.3s-0.7,0.4-0.9,0.7
		s-0.4,0.7-0.5,1.2s-0.2,0.9-0.2,1.4c0,0.4,0,1,0,1.6s0,1.1,0,1.6c0,0.4,0.1,0.9,0.2,1.4c0.1,0.5,0.3,0.9,0.5,1.2s0.5,0.5,0.9,0.7
		s0.8,0.3,1.3,0.3s0.9-0.1,1.3-0.3c0.4-0.2,0.7-0.4,0.9-0.7s0.4-0.7,0.5-1.2c0.2-0.8,0.3-1.6,0.3-2.6s0-1.7-0.1-2.2
		C873.7,854,873.6,853.5,873.4,853z"/>
	<path class="st2" d="M879.3,851.2c0.3-0.4,0.8-0.7,1.3-0.9s1.2-0.3,2-0.3s1.5,0.2,2.1,0.5s1.1,0.8,1.4,1.4c0.6,1.2,0.9,2.7,0.9,4.6
		c0,2.5-0.4,4.3-1.3,5.3c-0.7,0.8-1.8,1.3-3.2,1.3c-2.6,0-4-1.5-4.4-4.5c-0.1-0.6-0.1-1.3-0.1-2.1s0-1.5,0.1-2.1s0.2-1.2,0.4-1.8
		C878.7,852,878.9,851.5,879.3,851.2z M884.9,853c-0.2-0.5-0.5-0.9-0.9-1.2s-0.9-0.4-1.5-0.4s-1,0.1-1.4,0.3s-0.7,0.4-0.9,0.7
		s-0.4,0.7-0.5,1.2s-0.2,0.9-0.2,1.4c0,0.4,0,1,0,1.6s0,1.1,0,1.6c0,0.4,0.1,0.9,0.2,1.4c0.1,0.5,0.3,0.9,0.5,1.2s0.5,0.5,0.9,0.7
		s0.8,0.3,1.3,0.3s0.9-0.1,1.3-0.3c0.4-0.2,0.7-0.4,0.9-0.7s0.4-0.7,0.5-1.2c0.2-0.8,0.3-1.6,0.3-2.6s0-1.7-0.1-2.2
		C885.2,854,885.1,853.5,884.9,853z"/>
	<path class="st2" d="M889.8,849.9h7.8v1.4h-6.3v4.1c0.3-0.4,0.7-0.7,1.2-1s1.2-0.4,1.8-0.4c0.7,0,1.3,0.1,1.9,0.4
		c0.6,0.3,1,0.6,1.3,1.1c0.6,0.9,0.9,1.8,0.9,3c0,1.4-0.4,2.5-1.1,3.3c-0.8,0.9-1.8,1.3-3.2,1.3s-2.4-0.3-3.2-1
		c-0.8-0.6-1.3-1.5-1.4-2.5h1.6c0.2,0.6,0.5,1.2,1,1.5c0.5,0.4,1.2,0.6,2.1,0.6c0.9,0,1.5-0.3,2-0.9c0.5-0.6,0.7-1.3,0.7-2.3
		s-0.2-1.7-0.7-2.2s-1.2-0.8-2.2-0.8c-0.6,0-1.2,0.2-1.7,0.5s-0.8,0.8-1,1.4h-1.5L889.8,849.9L889.8,849.9z"/>
</g>
<g class="st1">
	<path class="st2" d="M933,862.9v-1.2c0.3-0.3,0.7-0.6,1.4-1.2c0.6-0.5,1.1-0.9,1.4-1.2c0.3-0.3,0.7-0.6,1.2-1.1s0.9-0.8,1.1-1.2
		c0.3-0.3,0.5-0.7,0.8-1.1c0.5-0.8,0.8-1.5,0.8-2.3s-0.2-1.4-0.6-1.8c-0.4-0.5-1-0.7-1.8-0.7s-1.5,0.3-1.9,0.8s-0.7,1.2-0.7,2H933
		c0-1.3,0.5-2.4,1.2-3.1c0.8-0.7,1.8-1.1,3-1.1s2.2,0.3,2.9,1s1.1,1.6,1.1,2.8c0,1.4-0.7,2.9-2.1,4.4c-0.5,0.5-0.9,0.9-1.2,1.2
		c-0.8,0.7-1.6,1.5-2.5,2.2h6.1v1.4H933V862.9z"/>
	<path class="st2" d="M944.9,851.2c0.3-0.4,0.8-0.7,1.3-0.9s1.2-0.3,2-0.3s1.5,0.2,2.1,0.5s1.1,0.8,1.4,1.4c0.6,1.2,0.9,2.7,0.9,4.6
		c0,2.5-0.4,4.3-1.3,5.3c-0.7,0.8-1.8,1.3-3.2,1.3c-2.6,0-4-1.5-4.4-4.5c-0.1-0.6-0.1-1.3-0.1-2.1s0-1.5,0.1-2.1s0.2-1.2,0.4-1.8
		C944.3,852,944.6,851.5,944.9,851.2z M950.6,853c-0.2-0.5-0.5-0.9-0.9-1.2s-0.9-0.4-1.5-0.4s-1,0.1-1.4,0.3s-0.7,0.4-0.9,0.7
		s-0.4,0.7-0.5,1.2s-0.2,0.9-0.2,1.4c0,0.4,0,1,0,1.6s0,1.1,0,1.6c0,0.4,0.1,0.9,0.2,1.4c0.1,0.5,0.3,0.9,0.5,1.2s0.5,0.5,0.9,0.7
		s0.8,0.3,1.3,0.3s0.9-0.1,1.3-0.3c0.4-0.2,0.7-0.4,0.9-0.7s0.4-0.7,0.5-1.2c0.2-0.8,0.3-1.6,0.3-2.6s0-1.7-0.1-2.2
		C950.9,854,950.7,853.5,950.6,853z"/>
	<path class="st2" d="M956.4,851.2c0.3-0.4,0.8-0.7,1.3-0.9s1.2-0.3,2-0.3s1.5,0.2,2.1,0.5s1.1,0.8,1.4,1.4c0.6,1.2,0.9,2.7,0.9,4.6
		c0,2.5-0.4,4.3-1.3,5.3c-0.7,0.8-1.8,1.3-3.2,1.3c-2.6,0-4-1.5-4.4-4.5c-0.1-0.6-0.1-1.3-0.1-2.1s0-1.5,0.1-2.1s0.2-1.2,0.4-1.8
		C955.8,852,956.1,851.5,956.4,851.2z M962,853c-0.2-0.5-0.5-0.9-0.9-1.2s-0.9-0.4-1.5-0.4s-1,0.1-1.4,0.3s-0.7,0.4-0.9,0.7
		s-0.4,0.7-0.5,1.2s-0.2,0.9-0.2,1.4c0,0.4,0,1,0,1.6s0,1.1,0,1.6c0,0.4,0.1,0.9,0.2,1.4c0.1,0.5,0.3,0.9,0.5,1.2s0.5,0.5,0.9,0.7
		s0.8,0.3,1.3,0.3s0.9-0.1,1.3-0.3c0.4-0.2,0.7-0.4,0.9-0.7s0.4-0.7,0.5-1.2c0.2-0.8,0.3-1.6,0.3-2.6s0-1.7-0.1-2.2
		C962.3,854,962.2,853.5,962,853z"/>
	<path class="st2" d="M971.3,851c-1.1,0-1.9,0.4-2.4,1.2s-0.8,2.1-0.8,4c0.3-0.6,0.8-1,1.4-1.4s1.3-0.5,2.1-0.5
		c1.2,0,2.2,0.4,2.9,1.2s1.1,1.8,1.1,3.1s-0.4,2.4-1.1,3.2c-0.7,0.8-1.8,1.2-3.2,1.2c-2.2,0-3.6-0.9-4.2-2.8c-0.3-1-0.5-2.5-0.5-4.4
		s0.4-3.4,1.1-4.6c0.7-1.1,1.9-1.7,3.5-1.7c1.2,0,2.1,0.3,2.7,0.9c0.7,0.6,1.1,1.4,1.2,2.3h-1.5c-0.2-0.6-0.4-1.1-0.8-1.4
		C972.6,851.2,972,851,971.3,851z M974.1,858.7c0-0.9-0.2-1.6-0.7-2.2c-0.5-0.5-1.1-0.8-2-0.8s-1.6,0.2-2.2,0.7
		c-0.6,0.5-0.9,1.2-0.9,2.1c0,0.9,0.3,1.7,0.8,2.2c0.5,0.6,1.2,0.8,2.2,0.8c0.9,0,1.6-0.3,2.1-0.8
		C973.9,860.4,974.1,859.7,974.1,858.7z"/>
</g>
<g class="st1">
	<path class="st2" d="M1010.9,862.9v-1.2c0.3-0.3,0.7-0.6,1.4-1.2c0.6-0.5,1.1-0.9,1.4-1.2c0.3-0.3,0.7-0.6,1.2-1.1s0.9-0.8,1.1-1.2
		c0.3-0.3,0.5-0.7,0.8-1.1c0.5-0.8,0.8-1.5,0.8-2.3s-0.2-1.4-0.6-1.8c-0.4-0.5-1-0.7-1.8-0.7s-1.5,0.3-1.9,0.8s-0.7,1.2-0.7,2h-1.6
		c0-1.3,0.5-2.4,1.2-3.1c0.8-0.7,1.8-1.1,3-1.1s2.2,0.3,2.9,1s1.1,1.6,1.1,2.8c0,1.4-0.7,2.9-2.1,4.4c-0.5,0.5-0.9,0.9-1.2,1.2
		c-0.8,0.7-1.6,1.5-2.5,2.2h6.1v1.4h-8.6V862.9z"/>
	<path class="st2" d="M1022.9,851.2c0.3-0.4,0.8-0.7,1.3-0.9c0.5-0.2,1.2-0.3,2-0.3s1.5,0.2,2.1,0.5s1.1,0.8,1.4,1.4
		c0.6,1.2,0.9,2.7,0.9,4.6c0,2.5-0.4,4.3-1.3,5.3c-0.7,0.8-1.8,1.3-3.2,1.3c-2.6,0-4-1.5-4.4-4.5c-0.1-0.6-0.1-1.3-0.1-2.1
		s0-1.5,0.1-2.1s0.2-1.2,0.4-1.8C1022.3,852,1022.6,851.5,1022.9,851.2z M1028.5,853c-0.2-0.5-0.5-0.9-0.9-1.2s-0.9-0.4-1.5-0.4
		s-1,0.1-1.4,0.3s-0.7,0.4-0.9,0.7s-0.4,0.7-0.5,1.2s-0.2,0.9-0.2,1.4c0,0.4,0,1,0,1.6s0,1.1,0,1.6c0,0.4,0.1,0.9,0.2,1.4
		c0.1,0.5,0.3,0.9,0.5,1.2s0.5,0.5,0.9,0.7s0.8,0.3,1.3,0.3s0.9-0.1,1.3-0.3s0.7-0.4,0.9-0.7c0.2-0.3,0.4-0.7,0.5-1.2
		c0.2-0.8,0.3-1.6,0.3-2.6s0-1.7-0.1-2.2C1028.8,854,1028.7,853.5,1028.5,853z"/>
	<path class="st2" d="M1034.4,851.2c0.3-0.4,0.8-0.7,1.3-0.9s1.2-0.3,2-0.3s1.5,0.2,2.1,0.5s1.1,0.8,1.4,1.4
		c0.6,1.2,0.9,2.7,0.9,4.6c0,2.5-0.4,4.3-1.3,5.3c-0.7,0.8-1.8,1.3-3.2,1.3c-2.6,0-4-1.5-4.4-4.5c-0.1-0.6-0.1-1.3-0.1-2.1
		s0-1.5,0.1-2.1s0.2-1.2,0.4-1.8C1033.8,852,1034,851.5,1034.4,851.2z M1040,853c-0.2-0.5-0.5-0.9-0.9-1.2s-0.9-0.4-1.5-0.4
		s-1,0.1-1.4,0.3s-0.7,0.4-0.9,0.7s-0.4,0.7-0.5,1.2s-0.2,0.9-0.2,1.4c0,0.4,0,1,0,1.6s0,1.1,0,1.6c0,0.4,0.1,0.9,0.2,1.4
		s0.3,0.9,0.5,1.2s0.5,0.5,0.9,0.7s0.8,0.3,1.3,0.3s0.9-0.1,1.3-0.3s0.7-0.4,0.9-0.7s0.4-0.7,0.5-1.2c0.2-0.8,0.3-1.6,0.3-2.6
		s0-1.7-0.1-2.2C1040.3,854,1040.2,853.5,1040,853z"/>
	<path class="st2" d="M1044,850h8.7v1.2l-5.1,11.9h-1.8l5.4-11.7h-7.1L1044,850L1044,850z"/>
</g>
<g class="st1">
	<path class="st2" d="M1087.5,862.9v-1.2c0.3-0.3,0.7-0.6,1.4-1.2c0.6-0.5,1.1-0.9,1.4-1.2s0.7-0.6,1.2-1.1s0.9-0.8,1.1-1.2
		c0.3-0.3,0.5-0.7,0.8-1.1c0.5-0.8,0.8-1.5,0.8-2.3s-0.2-1.4-0.6-1.8c-0.4-0.5-1-0.7-1.8-0.7s-1.5,0.3-1.9,0.8s-0.7,1.2-0.7,2h-1.6
		c0-1.3,0.5-2.4,1.2-3.1c0.8-0.7,1.8-1.1,3-1.1s2.2,0.3,2.9,1c0.7,0.7,1.1,1.6,1.1,2.8c0,1.4-0.7,2.9-2.1,4.4
		c-0.5,0.5-0.9,0.9-1.2,1.2c-0.8,0.7-1.6,1.5-2.5,2.2h6.1v1.4h-8.6V862.9z"/>
	<path class="st2" d="M1099.4,851.2c0.3-0.4,0.8-0.7,1.3-0.9s1.2-0.3,2-0.3s1.5,0.2,2.1,0.5s1.1,0.8,1.4,1.4
		c0.6,1.2,0.9,2.7,0.9,4.6c0,2.5-0.4,4.3-1.3,5.3c-0.7,0.8-1.8,1.3-3.2,1.3c-2.6,0-4-1.5-4.4-4.5c-0.1-0.6-0.1-1.3-0.1-2.1
		s0-1.5,0.1-2.1s0.2-1.2,0.4-1.8C1098.8,852,1099.1,851.5,1099.4,851.2z M1105.1,853c-0.2-0.5-0.5-0.9-0.9-1.2s-0.9-0.4-1.5-0.4
		s-1,0.1-1.4,0.3s-0.7,0.4-0.9,0.7s-0.4,0.7-0.5,1.2s-0.2,0.9-0.2,1.4c0,0.4,0,1,0,1.6s0,1.1,0,1.6c0,0.4,0.1,0.9,0.2,1.4
		s0.3,0.9,0.5,1.2s0.5,0.5,0.9,0.7s0.8,0.3,1.3,0.3s0.9-0.1,1.3-0.3s0.7-0.4,0.9-0.7s0.4-0.7,0.5-1.2c0.2-0.8,0.3-1.6,0.3-2.6
		s0-1.7-0.1-2.2C1105.4,854,1105.2,853.5,1105.1,853z"/>
	<path class="st2" d="M1110.9,851.2c0.3-0.4,0.8-0.7,1.3-0.9s1.2-0.3,2-0.3s1.5,0.2,2.1,0.5s1.1,0.8,1.4,1.4
		c0.6,1.2,0.9,2.7,0.9,4.6c0,2.5-0.4,4.3-1.3,5.3c-0.7,0.8-1.8,1.3-3.2,1.3c-2.6,0-4-1.5-4.4-4.5c-0.1-0.6-0.1-1.3-0.1-2.1
		s0-1.5,0.1-2.1s0.2-1.2,0.4-1.8C1110.3,852,1110.6,851.5,1110.9,851.2z M1116.5,853c-0.2-0.5-0.5-0.9-0.9-1.2s-0.9-0.4-1.5-0.4
		s-1,0.1-1.4,0.3s-0.7,0.4-0.9,0.7s-0.4,0.7-0.5,1.2s-0.2,0.9-0.2,1.4c0,0.4,0,1,0,1.6s0,1.1,0,1.6c0,0.4,0.1,0.9,0.2,1.4
		s0.3,0.9,0.5,1.2s0.5,0.5,0.9,0.7s0.8,0.3,1.3,0.3s0.9-0.1,1.3-0.3s0.7-0.4,0.9-0.7s0.4-0.7,0.5-1.2c0.2-0.8,0.3-1.6,0.3-2.6
		s0-1.7-0.1-2.2C1116.8,854,1116.7,853.5,1116.5,853z"/>
	<path class="st2" d="M1121.3,853.1c0-1,0.4-1.9,1.1-2.5c0.7-0.7,1.8-1,3.1-1c1.4,0,2.4,0.3,3.1,1s1.1,1.5,1.1,2.5
		c0,0.7-0.2,1.3-0.5,1.8c-0.4,0.5-0.8,0.9-1.4,1.2c0.7,0.2,1.2,0.6,1.7,1.2c0.4,0.6,0.6,1.3,0.6,2.1c0,1.2-0.4,2.2-1.3,2.9
		c-0.8,0.7-1.9,1.1-3.3,1.1s-2.5-0.4-3.3-1.1c-0.8-0.7-1.3-1.7-1.3-2.9c0-0.8,0.2-1.5,0.6-2.1s1-1,1.7-1.2
		C1121.9,855.4,1121.3,854.4,1121.3,853.1z M1128.5,859.3c0-0.8-0.3-1.5-0.8-1.9c-0.6-0.4-1.3-0.7-2.2-0.7c-0.9,0-1.6,0.2-2.2,0.7
		c-0.6,0.4-0.8,1.1-0.8,1.9s0.3,1.5,0.8,2s1.3,0.7,2.2,0.7s1.7-0.2,2.2-0.7S1128.5,860.2,1128.5,859.3z M1128.2,853.2
		c0-0.7-0.2-1.2-0.7-1.6c-0.5-0.4-1.1-0.6-2-0.6s-1.5,0.2-2,0.6c-0.5,0.4-0.7,1-0.7,1.6c0,0.7,0.2,1.3,0.7,1.7s1.1,0.6,1.9,0.6
		s1.4-0.2,1.9-0.6C1127.9,854.4,1128.2,853.9,1128.2,853.2z"/>
</g>
<g class="st1">
	<path class="st2" d="M1164.7,862.9v-1.2c0.3-0.3,0.7-0.6,1.4-1.2c0.6-0.5,1.1-0.9,1.4-1.2s0.7-0.6,1.2-1.1s0.9-0.8,1.1-1.2
		c0.3-0.3,0.5-0.7,0.8-1.1c0.5-0.8,0.8-1.5,0.8-2.3s-0.2-1.4-0.6-1.8c-0.4-0.5-1-0.7-1.8-0.7s-1.5,0.3-1.9,0.8s-0.7,1.2-0.7,2h-1.6
		c0-1.3,0.5-2.4,1.2-3.1c0.8-0.7,1.8-1.1,3-1.1s2.2,0.3,2.9,1c0.7,0.7,1.1,1.6,1.1,2.8c0,1.4-0.7,2.9-2.1,4.4
		c-0.5,0.5-0.9,0.9-1.2,1.2c-0.8,0.7-1.6,1.5-2.5,2.2h6.1v1.4h-8.6V862.9z"/>
	<path class="st2" d="M1176.7,851.2c0.3-0.4,0.8-0.7,1.3-0.9s1.2-0.3,2-0.3s1.5,0.2,2.1,0.5s1.1,0.8,1.4,1.4
		c0.6,1.2,0.9,2.7,0.9,4.6c0,2.5-0.4,4.3-1.3,5.3c-0.7,0.8-1.8,1.3-3.2,1.3c-2.6,0-4-1.5-4.4-4.5c-0.1-0.6-0.1-1.3-0.1-2.1
		s0-1.5,0.1-2.1s0.2-1.2,0.4-1.8C1176.1,852,1176.3,851.5,1176.7,851.2z M1182.3,853c-0.2-0.5-0.5-0.9-0.9-1.2s-0.9-0.4-1.5-0.4
		s-1,0.1-1.4,0.3s-0.7,0.4-0.9,0.7c-0.2,0.3-0.4,0.7-0.5,1.2s-0.2,0.9-0.2,1.4c0,0.4,0,1,0,1.6s0,1.1,0,1.6c0,0.4,0.1,0.9,0.2,1.4
		s0.3,0.9,0.5,1.2s0.5,0.5,0.9,0.7s0.8,0.3,1.3,0.3s0.9-0.1,1.3-0.3s0.7-0.4,0.9-0.7c0.2-0.3,0.4-0.7,0.5-1.2
		c0.2-0.8,0.3-1.6,0.3-2.6s0-1.7-0.1-2.2C1182.6,854,1182.5,853.5,1182.3,853z"/>
	<path class="st2" d="M1188.1,851.2c0.3-0.4,0.8-0.7,1.3-0.9s1.2-0.3,2-0.3s1.5,0.2,2.1,0.5s1.1,0.8,1.4,1.4
		c0.6,1.2,0.9,2.7,0.9,4.6c0,2.5-0.4,4.3-1.3,5.3c-0.7,0.8-1.8,1.3-3.2,1.3c-2.6,0-4-1.5-4.4-4.5c-0.1-0.6-0.1-1.3-0.1-2.1
		s0-1.5,0.1-2.1s0.2-1.2,0.4-1.8C1187.5,852,1187.8,851.5,1188.1,851.2z M1193.7,853c-0.2-0.5-0.5-0.9-0.9-1.2s-0.9-0.4-1.5-0.4
		s-1,0.1-1.4,0.3s-0.7,0.4-0.9,0.7s-0.4,0.7-0.5,1.2s-0.2,0.9-0.2,1.4c0,0.4,0,1,0,1.6s0,1.1,0,1.6c0,0.4,0.1,0.9,0.2,1.4
		s0.3,0.9,0.5,1.2s0.5,0.5,0.9,0.7s0.8,0.3,1.3,0.3s0.9-0.1,1.3-0.3s0.7-0.4,0.9-0.7s0.4-0.7,0.5-1.2c0.2-0.8,0.3-1.6,0.3-2.6
		s0-1.7-0.1-2.2C1194,854,1193.9,853.5,1193.7,853z"/>
	<path class="st2" d="M1203,861.7c1,0,1.7-0.4,2.1-1.1c0.4-0.7,0.7-2,0.7-3.9c-0.3,0.5-0.7,0.8-1.3,1.1s-1.2,0.4-1.8,0.4
		c-1.2,0-2.2-0.4-3-1.1s-1.2-1.8-1.2-3.1s0.4-2.4,1.1-3.1s1.8-1.2,3.2-1.2c1.6,0,2.7,0.5,3.4,1.6c0.7,1.1,1,2.8,1,5.1
		s-0.3,4-0.9,5.1s-1.7,1.7-3.3,1.7c-1.2,0-2.2-0.3-2.8-1c-0.7-0.6-1.1-1.4-1.2-2.4h1.5C1200.6,861,1201.5,861.7,1203,861.7z
		 M1200,853.9c0,0.9,0.2,1.6,0.7,2.1s1.2,0.8,2.1,0.8s1.6-0.3,2-0.8s0.7-1.2,0.7-2.1c0-0.9-0.2-1.6-0.7-2.1s-1.2-0.8-2-0.8
		s-1.5,0.3-2,0.8C1200.3,852.3,1200,853,1200,853.9z"/>
</g>
<g class="st1">
	<path class="st2" d="M1244.7,862.9v-1.2c0.3-0.3,0.7-0.6,1.4-1.2c0.6-0.5,1.1-0.9,1.4-1.2s0.7-0.6,1.2-1.1s0.9-0.8,1.1-1.2
		c0.3-0.3,0.5-0.7,0.8-1.1c0.5-0.8,0.8-1.5,0.8-2.3s-0.2-1.4-0.6-1.8c-0.4-0.5-1-0.7-1.8-0.7s-1.5,0.3-1.9,0.8s-0.7,1.2-0.7,2h-1.6
		c0-1.3,0.5-2.4,1.2-3.1c0.8-0.7,1.8-1.1,3-1.1s2.2,0.3,2.9,1c0.7,0.7,1.1,1.6,1.1,2.8c0,1.4-0.7,2.9-2.1,4.4
		c-0.5,0.5-0.9,0.9-1.2,1.2c-0.8,0.7-1.6,1.5-2.5,2.2h6.1v1.4h-8.6V862.9z"/>
	<path class="st2" d="M1256.7,851.2c0.3-0.4,0.8-0.7,1.3-0.9s1.2-0.3,2-0.3s1.5,0.2,2.1,0.5s1.1,0.8,1.4,1.4
		c0.6,1.2,0.9,2.7,0.9,4.6c0,2.5-0.4,4.3-1.3,5.3c-0.7,0.8-1.8,1.3-3.2,1.3c-2.6,0-4-1.5-4.4-4.5c-0.1-0.6-0.1-1.3-0.1-2.1
		s0-1.5,0.1-2.1s0.2-1.2,0.4-1.8C1256.1,852,1256.4,851.5,1256.7,851.2z M1262.3,853c-0.2-0.5-0.5-0.9-0.9-1.2s-0.9-0.4-1.5-0.4
		s-1,0.1-1.4,0.3s-0.7,0.4-0.9,0.7s-0.4,0.7-0.5,1.2s-0.2,0.9-0.2,1.4c0,0.4,0,1,0,1.6s0,1.1,0,1.6c0,0.4,0.1,0.9,0.2,1.4
		s0.3,0.9,0.5,1.2s0.5,0.5,0.9,0.7s0.8,0.3,1.3,0.3s0.9-0.1,1.3-0.3s0.7-0.4,0.9-0.7s0.4-0.7,0.5-1.2c0.2-0.8,0.3-1.6,0.3-2.6
		s0-1.7-0.1-2.2C1262.6,854,1262.5,853.5,1262.3,853z"/>
	<path class="st2" d="M1268,863.1v-11.3h-1.5v-1.5h3.1v12.8H1268z"/>
	<path class="st2" d="M1273.9,851.2c0.3-0.4,0.8-0.7,1.3-0.9s1.2-0.3,2-0.3s1.5,0.2,2.1,0.5s1.1,0.8,1.4,1.4
		c0.6,1.2,0.9,2.7,0.9,4.6c0,2.5-0.4,4.3-1.3,5.3c-0.7,0.8-1.8,1.3-3.2,1.3c-2.6,0-4-1.5-4.4-4.5c-0.1-0.6-0.1-1.3-0.1-2.1
		s0-1.5,0.1-2.1s0.2-1.2,0.4-1.8C1273.3,852,1273.6,851.5,1273.9,851.2z M1279.5,853c-0.2-0.5-0.5-0.9-0.9-1.2s-0.9-0.4-1.5-0.4
		s-1,0.1-1.4,0.3s-0.7,0.4-0.9,0.7s-0.4,0.7-0.5,1.2s-0.2,0.9-0.2,1.4c0,0.4,0,1,0,1.6s0,1.1,0,1.6c0,0.4,0.1,0.9,0.2,1.4
		s0.3,0.9,0.5,1.2s0.5,0.5,0.9,0.7s0.8,0.3,1.3,0.3s0.9-0.1,1.3-0.3s0.7-0.4,0.9-0.7s0.4-0.7,0.5-1.2c0.2-0.8,0.3-1.6,0.3-2.6
		s0-1.7-0.1-2.2C1279.8,854,1279.7,853.5,1279.5,853z"/>
</g>
<g class="st1">
	<path class="st2" d="M1324.8,862.9v-1.2c0.3-0.3,0.7-0.6,1.4-1.2c0.6-0.5,1.1-0.9,1.4-1.2s0.7-0.6,1.2-1.1s0.9-0.8,1.1-1.2
		c0.3-0.3,0.5-0.7,0.8-1.1c0.5-0.8,0.8-1.5,0.8-2.3s-0.2-1.4-0.6-1.8c-0.4-0.5-1-0.7-1.8-0.7s-1.5,0.3-1.9,0.8s-0.7,1.2-0.7,2h-1.6
		c0-1.3,0.5-2.4,1.2-3.1c0.8-0.7,1.8-1.1,3-1.1s2.2,0.3,2.9,1c0.7,0.7,1.1,1.6,1.1,2.8c0,1.4-0.7,2.9-2.1,4.4
		c-0.5,0.5-0.9,0.9-1.2,1.2c-0.8,0.7-1.6,1.5-2.5,2.2h6.1v1.4h-8.6V862.9z"/>
	<path class="st2" d="M1336.7,851.2c0.3-0.4,0.8-0.7,1.3-0.9s1.2-0.3,2-0.3s1.5,0.2,2.1,0.5s1.1,0.8,1.4,1.4
		c0.6,1.2,0.9,2.7,0.9,4.6c0,2.5-0.4,4.3-1.3,5.3c-0.7,0.8-1.8,1.3-3.2,1.3c-2.6,0-4-1.5-4.4-4.5c-0.1-0.6-0.1-1.3-0.1-2.1
		s0-1.5,0.1-2.1s0.2-1.2,0.4-1.8C1336.1,852,1336.4,851.5,1336.7,851.2z M1342.4,853c-0.2-0.5-0.5-0.9-0.9-1.2s-0.9-0.4-1.5-0.4
		s-1,0.1-1.4,0.3s-0.7,0.4-0.9,0.7c-0.2,0.3-0.4,0.7-0.5,1.2s-0.2,0.9-0.2,1.4c0,0.4,0,1,0,1.6s0,1.1,0,1.6c0,0.4,0.1,0.9,0.2,1.4
		s0.3,0.9,0.5,1.2s0.5,0.5,0.9,0.7s0.8,0.3,1.3,0.3s0.9-0.1,1.3-0.3s0.7-0.4,0.9-0.7c0.2-0.3,0.4-0.7,0.5-1.2
		c0.2-0.8,0.3-1.6,0.3-2.6s0-1.7-0.1-2.2C1342.7,854,1342.5,853.5,1342.4,853z"/>
	<path class="st2" d="M1348.1,863.1v-11.3h-1.5v-1.5h3.1v12.8H1348.1z"/>
	<path class="st2" d="M1353.8,863.1v-11.3h-1.5v-1.5h3.1v12.8H1353.8z"/>
</g>
<g class="st1">
	<path class="st2" d="M1399.7,862.9v-1.2c0.3-0.3,0.7-0.6,1.4-1.2c0.6-0.5,1.1-0.9,1.4-1.2s0.7-0.6,1.2-1.1s0.9-0.8,1.1-1.2
		c0.3-0.3,0.5-0.7,0.8-1.1c0.5-0.8,0.8-1.5,0.8-2.3s-0.2-1.4-0.6-1.8c-0.4-0.5-1-0.7-1.8-0.7s-1.5,0.3-1.9,0.8s-0.7,1.2-0.7,2h-1.6
		c0-1.3,0.5-2.4,1.2-3.1c0.8-0.7,1.8-1.1,3-1.1s2.2,0.3,2.9,1c0.7,0.7,1.1,1.6,1.1,2.8c0,1.4-0.7,2.9-2.1,4.4
		c-0.5,0.5-0.9,0.9-1.2,1.2c-0.8,0.7-1.6,1.5-2.5,2.2h6.1v1.4h-8.6V862.9z"/>
	<path class="st2" d="M1411.6,851.2c0.3-0.4,0.8-0.7,1.3-0.9s1.2-0.3,2-0.3s1.5,0.2,2.1,0.5s1.1,0.8,1.4,1.4
		c0.6,1.2,0.9,2.7,0.9,4.6c0,2.5-0.4,4.3-1.3,5.3c-0.7,0.8-1.8,1.3-3.2,1.3c-2.6,0-4-1.5-4.4-4.5c-0.1-0.6-0.1-1.3-0.1-2.1
		s0-1.5,0.1-2.1s0.2-1.2,0.4-1.8C1411,852,1411.3,851.5,1411.6,851.2z M1417.2,853c-0.2-0.5-0.5-0.9-0.9-1.2s-0.9-0.4-1.5-0.4
		s-1,0.1-1.4,0.3s-0.7,0.4-0.9,0.7s-0.4,0.7-0.5,1.2s-0.2,0.9-0.2,1.4c0,0.4,0,1,0,1.6s0,1.1,0,1.6c0,0.4,0.1,0.9,0.2,1.4
		s0.3,0.9,0.5,1.2s0.5,0.5,0.9,0.7s0.8,0.3,1.3,0.3s0.9-0.1,1.3-0.3s0.7-0.4,0.9-0.7s0.4-0.7,0.5-1.2c0.2-0.8,0.3-1.6,0.3-2.6
		s0-1.7-0.1-2.2C1417.6,854,1417.4,853.5,1417.2,853z"/>
	<path class="st2" d="M1422.9,863.1v-11.3h-1.5v-1.5h3.1v12.8H1422.9z"/>
	<path class="st2" d="M1427.3,862.9v-1.2c0.3-0.3,0.7-0.6,1.4-1.2c0.6-0.5,1.1-0.9,1.4-1.2s0.7-0.6,1.2-1.1s0.9-0.8,1.1-1.2
		c0.3-0.3,0.5-0.7,0.8-1.1c0.5-0.8,0.8-1.5,0.8-2.3s-0.2-1.4-0.6-1.8c-0.4-0.5-1-0.7-1.8-0.7s-1.5,0.3-1.9,0.8s-0.7,1.2-0.7,2h-1.6
		c0-1.3,0.5-2.4,1.2-3.1c0.8-0.7,1.8-1.1,3-1.1s2.2,0.3,2.9,1c0.7,0.7,1.1,1.6,1.1,2.8c0,1.4-0.7,2.9-2.1,4.4
		c-0.5,0.5-0.9,0.9-1.2,1.2c-0.8,0.7-1.6,1.5-2.5,2.2h6.1v1.4h-8.6V862.9z"/>
</g>
<g class="st1">
	<path class="st2" d="M1476.8,862.9v-1.2c0.3-0.3,0.7-0.6,1.4-1.2c0.6-0.5,1.1-0.9,1.4-1.2s0.7-0.6,1.2-1.1s0.9-0.8,1.1-1.2
		c0.3-0.3,0.5-0.7,0.8-1.1c0.5-0.8,0.8-1.5,0.8-2.3s-0.2-1.4-0.6-1.8c-0.4-0.5-1-0.7-1.8-0.7s-1.5,0.3-1.9,0.8s-0.7,1.2-0.7,2h-1.6
		c0-1.3,0.5-2.4,1.2-3.1c0.8-0.7,1.8-1.1,3-1.1s2.2,0.3,2.9,1c0.7,0.7,1.1,1.6,1.1,2.8c0,1.4-0.7,2.9-2.1,4.4
		c-0.5,0.5-0.9,0.9-1.2,1.2c-0.8,0.7-1.6,1.5-2.5,2.2h6.1v1.4h-8.6V862.9z"/>
	<path class="st2" d="M1488.8,851.2c0.3-0.4,0.8-0.7,1.3-0.9s1.2-0.3,2-0.3s1.5,0.2,2.1,0.5s1.1,0.8,1.4,1.4
		c0.6,1.2,0.9,2.7,0.9,4.6c0,2.5-0.4,4.3-1.3,5.3c-0.7,0.8-1.8,1.3-3.2,1.3c-2.6,0-4-1.5-4.4-4.5c-0.1-0.6-0.1-1.3-0.1-2.1
		s0-1.5,0.1-2.1s0.2-1.2,0.4-1.8C1488.2,852,1488.4,851.5,1488.8,851.2z M1494.4,853c-0.2-0.5-0.5-0.9-0.9-1.2s-0.9-0.4-1.5-0.4
		s-1,0.1-1.4,0.3s-0.7,0.4-0.9,0.7s-0.4,0.7-0.5,1.2s-0.2,0.9-0.2,1.4c0,0.4,0,1,0,1.6s0,1.1,0,1.6c0,0.4,0.1,0.9,0.2,1.4
		s0.3,0.9,0.5,1.2s0.5,0.5,0.9,0.7s0.8,0.3,1.3,0.3s0.9-0.1,1.3-0.3s0.7-0.4,0.9-0.7s0.4-0.7,0.5-1.2c0.2-0.8,0.3-1.6,0.3-2.6
		s0-1.7-0.1-2.2C1494.7,854,1494.6,853.5,1494.4,853z"/>
	<path class="st2" d="M1500.1,863.1v-11.3h-1.5v-1.5h3.1v12.8H1500.1z"/>
	<path class="st2" d="M1505.8,850.5c0.8-0.6,1.8-0.9,3-0.9s2.2,0.3,2.9,1c0.7,0.6,1.1,1.4,1.1,2.4c0,0.7-0.2,1.3-0.6,1.9
		c-0.4,0.5-0.9,0.9-1.5,1.1v0.1c0.7,0.2,1.3,0.6,1.7,1.2c0.4,0.6,0.6,1.4,0.6,2.4s-0.4,1.8-1.1,2.5s-1.7,1-3,1s-2.3-0.3-3.1-1
		c-0.8-0.6-1.3-1.6-1.3-2.8h1.5c0.1,0.7,0.3,1.2,0.9,1.7c0.5,0.4,1.2,0.7,2,0.7s1.5-0.2,1.9-0.7s0.7-1,0.7-1.7c0-0.9-0.3-1.6-0.9-2
		s-1.5-0.6-2.8-0.6h-0.4v-1.4h0.5c2.3,0,3.4-0.8,3.4-2.2c0-0.7-0.2-1.2-0.6-1.6c-0.4-0.4-1-0.6-1.8-0.6s-1.4,0.2-1.8,0.5
		c-0.4,0.4-0.7,0.8-0.8,1.4h-1.6C1504.6,852,1505,851.1,1505.8,850.5z"/>
</g>
<g class="st1">
	<path class="st2" d="M1553.6,862.9v-1.2c0.3-0.3,0.7-0.6,1.4-1.2c0.6-0.5,1.1-0.9,1.4-1.2s0.7-0.6,1.2-1.1s0.9-0.8,1.1-1.2
		c0.3-0.3,0.5-0.7,0.8-1.1c0.5-0.8,0.8-1.5,0.8-2.3s-0.2-1.4-0.6-1.8c-0.4-0.5-1-0.7-1.8-0.7s-1.5,0.3-1.9,0.8s-0.7,1.2-0.7,2h-1.6
		c0-1.3,0.5-2.4,1.2-3.1c0.8-0.7,1.8-1.1,3-1.1s2.2,0.3,2.9,1c0.7,0.7,1.1,1.6,1.1,2.8c0,1.4-0.7,2.9-2.1,4.4
		c-0.5,0.5-0.9,0.9-1.2,1.2c-0.8,0.7-1.6,1.5-2.5,2.2h6.1v1.4h-8.6V862.9z"/>
	<path class="st2" d="M1565.6,851.2c0.3-0.4,0.8-0.7,1.3-0.9s1.2-0.3,2-0.3s1.5,0.2,2.1,0.5s1.1,0.8,1.4,1.4
		c0.6,1.2,0.9,2.7,0.9,4.6c0,2.5-0.4,4.3-1.3,5.3c-0.7,0.8-1.8,1.3-3.2,1.3c-2.6,0-4-1.5-4.4-4.5c-0.1-0.6-0.1-1.3-0.1-2.1
		s0-1.5,0.1-2.1s0.2-1.2,0.4-1.8C1565,852,1565.2,851.5,1565.6,851.2z M1571.2,853c-0.2-0.5-0.5-0.9-0.9-1.2s-0.9-0.4-1.5-0.4
		s-1,0.1-1.4,0.3s-0.7,0.4-0.9,0.7s-0.4,0.7-0.5,1.2s-0.2,0.9-0.2,1.4c0,0.4,0,1,0,1.6s0,1.1,0,1.6c0,0.4,0.1,0.9,0.2,1.4
		s0.3,0.9,0.5,1.2s0.5,0.5,0.9,0.7s0.8,0.3,1.3,0.3s0.9-0.1,1.3-0.3s0.7-0.4,0.9-0.7s0.4-0.7,0.5-1.2c0.2-0.8,0.3-1.6,0.3-2.6
		s0-1.7-0.1-2.2C1571.5,854,1571.4,853.5,1571.2,853z"/>
	<path class="st2" d="M1576.9,863.1v-11.3h-1.5v-1.5h3.1v12.8H1576.9z"/>
	<path class="st2" d="M1587.7,863.1v-2.9h-6.7V859l6.2-8.9h2.1v8.6h1.7v1.4h-1.7v2.9L1587.7,863.1L1587.7,863.1z M1587.8,858.8v-7.1
		l-4.8,7.1H1587.8z"/>
</g>
<g class="st1">
	<path class="st2" d="M1630.8,862.9v-1.2c0.3-0.3,0.7-0.6,1.4-1.2c0.6-0.5,1.1-0.9,1.4-1.2s0.7-0.6,1.2-1.1s0.9-0.8,1.1-1.2
		c0.3-0.3,0.5-0.7,0.8-1.1c0.5-0.8,0.8-1.5,0.8-2.3s-0.2-1.4-0.6-1.8c-0.4-0.5-1-0.7-1.8-0.7s-1.5,0.3-1.9,0.8s-0.7,1.2-0.7,2h-1.6
		c0-1.3,0.5-2.4,1.2-3.1c0.8-0.7,1.8-1.1,3-1.1s2.2,0.3,2.9,1c0.7,0.7,1.1,1.6,1.1,2.8c0,1.4-0.7,2.9-2.1,4.4
		c-0.5,0.5-0.9,0.9-1.2,1.2c-0.8,0.7-1.6,1.5-2.5,2.2h6.1v1.4h-8.6V862.9z"/>
	<path class="st2" d="M1642.8,851.2c0.3-0.4,0.8-0.7,1.3-0.9s1.2-0.3,2-0.3s1.5,0.2,2.1,0.5s1.1,0.8,1.4,1.4
		c0.6,1.2,0.9,2.7,0.9,4.6c0,2.5-0.4,4.3-1.3,5.3c-0.7,0.8-1.8,1.3-3.2,1.3c-2.6,0-4-1.5-4.4-4.5c-0.1-0.6-0.1-1.3-0.1-2.1
		s0-1.5,0.1-2.1s0.2-1.2,0.4-1.8C1642.2,852,1642.4,851.5,1642.8,851.2z M1648.4,853c-0.2-0.5-0.5-0.9-0.9-1.2s-0.9-0.4-1.5-0.4
		s-1,0.1-1.4,0.3s-0.7,0.4-0.9,0.7s-0.4,0.7-0.5,1.2s-0.2,0.9-0.2,1.4c0,0.4,0,1,0,1.6s0,1.1,0,1.6c0,0.4,0.1,0.9,0.2,1.4
		s0.3,0.9,0.5,1.2s0.5,0.5,0.9,0.7s0.8,0.3,1.3,0.3s0.9-0.1,1.3-0.3s0.7-0.4,0.9-0.7s0.4-0.7,0.5-1.2c0.2-0.8,0.3-1.6,0.3-2.6
		s0-1.7-0.1-2.2C1648.7,854,1648.6,853.5,1648.4,853z"/>
	<path class="st2" d="M1654.1,863.1v-11.3h-1.5v-1.5h3.1v12.8H1654.1z"/>
	<path class="st2" d="M1659.1,849.9h7.8v1.4h-6.3v4.1c0.3-0.4,0.7-0.7,1.2-1s1.2-0.4,1.8-0.4c0.7,0,1.3,0.1,1.9,0.4
		c0.6,0.3,1,0.6,1.3,1.1c0.6,0.9,0.9,1.8,0.9,3c0,1.4-0.4,2.5-1.1,3.3c-0.8,0.9-1.8,1.3-3.2,1.3c-1.4,0-2.4-0.3-3.2-1
		c-0.8-0.6-1.3-1.5-1.4-2.5h1.6c0.2,0.6,0.5,1.2,1,1.5c0.5,0.4,1.2,0.6,2.1,0.6s1.5-0.3,2-0.9c0.5-0.6,0.7-1.3,0.7-2.3
		s-0.2-1.7-0.7-2.2s-1.2-0.8-2.2-0.8c-0.6,0-1.2,0.2-1.7,0.5s-0.8,0.8-1,1.4h-1.5L1659.1,849.9L1659.1,849.9z"/>
</g>
<g>
	<g>
		<g>
			<line class="st3" x1="185" y1="566.1" x2="185" y2="567.6"/>
			<line class="st4" x1="185" y1="570.6" x2="185" y2="825.1"/>
			<line class="st3" x1="185" y1="826.6" x2="185" y2="828.1"/>
		</g>
		<g>
			<line class="st3" x1="262.2" y1="548.9" x2="262.2" y2="550.4"/>
			<line class="st5" x1="262.2" y1="553.4" x2="262.2" y2="825.1"/>
			<line class="st3" x1="262.2" y1="826.6" x2="262.2" y2="828.1"/>
		</g>
		<g>
			<line class="st3" x1="339.4" y1="513.8" x2="339.4" y2="515.3"/>
			<line class="st6" x1="339.4" y1="518.3" x2="339.4" y2="825.1"/>
			<line class="st3" x1="339.4" y1="826.6" x2="339.4" y2="828.1"/>
		</g>
		<g>
			<line class="st3" x1="416.6" y1="495.1" x2="416.6" y2="496.6"/>
			<line class="st7" x1="416.6" y1="499.6" x2="416.6" y2="825.1"/>
			<line class="st3" x1="416.6" y1="826.6" x2="416.6" y2="828.1"/>
		</g>
		<g>
			<line class="st3" x1="493.9" y1="478" x2="493.9" y2="479.5"/>
			<line class="st8" x1="493.9" y1="482.5" x2="493.9" y2="825.1"/>
			<line class="st3" x1="493.9" y1="826.6" x2="493.9" y2="828.1"/>
		</g>
		<g>
			<line class="st3" x1="571.1" y1="460.3" x2="571.1" y2="461.8"/>
			<line class="st9" x1="571.1" y1="464.8" x2="571.1" y2="825.1"/>
			<line class="st3" x1="571.1" y1="826.6" x2="571.1" y2="828.1"/>
		</g>
		<g>
			<line class="st3" x1="648.3" y1="437.6" x2="648.3" y2="439.1"/>
			<line class="st10" x1="648.3" y1="442.1" x2="648.3" y2="825.1"/>
			<line class="st3" x1="648.3" y1="826.6" x2="648.3" y2="828.1"/>
		</g>
		<g>
			<line class="st3" x1="725.5" y1="402.5" x2="725.5" y2="404"/>
			<line class="st11" x1="725.5" y1="407" x2="725.5" y2="825.1"/>
			<line class="st3" x1="725.5" y1="826.6" x2="725.5" y2="828.1"/>
		</g>
		<g>
			<line class="st3" x1="802.7" y1="384.9" x2="802.7" y2="386.4"/>
			<line class="st12" x1="802.7" y1="389.4" x2="802.7" y2="825.1"/>
			<line class="st3" x1="802.7" y1="826.6" x2="802.7" y2="828.1"/>
		</g>
		<g>
			<line class="st3" x1="879.9" y1="355.6" x2="879.9" y2="357.1"/>
			<line class="st13" x1="879.9" y1="360.1" x2="879.9" y2="825.1"/>
			<line class="st3" x1="879.9" y1="826.6" x2="879.9" y2="828.1"/>
		</g>
		<g>
			<line class="st3" x1="957.1" y1="332.6" x2="957.1" y2="334.1"/>
			<line class="st14" x1="957.1" y1="337.1" x2="957.1" y2="825.1"/>
			<line class="st3" x1="957.1" y1="826.6" x2="957.1" y2="828.1"/>
		</g>
		<g>
			<line class="st3" x1="1034.3" y1="308.6" x2="1034.3" y2="310.1"/>
			<line class="st15" x1="1034.3" y1="313.1" x2="1034.3" y2="825.1"/>
			<line class="st3" x1="1034.3" y1="826.6" x2="1034.3" y2="828.1"/>
		</g>
		<g>
			<line class="st3" x1="1111.6" y1="285.3" x2="1111.6" y2="286.8"/>
			<line class="st16" x1="1111.6" y1="289.8" x2="1111.6" y2="825.1"/>
			<line class="st3" x1="1111.6" y1="826.6" x2="1111.6" y2="828.1"/>
		</g>
		<g>
			<line class="st3" x1="1188.8" y1="261.8" x2="1188.8" y2="263.3"/>
			<line class="st17" x1="1188.8" y1="266.3" x2="1188.8" y2="825.1"/>
			<line class="st3" x1="1188.8" y1="826.6" x2="1188.8" y2="828.1"/>
		</g>
		<g>
			<line class="st3" x1="1266" y1="232.6" x2="1266" y2="234.1"/>
			<line class="st18" x1="1266" y1="237.1" x2="1266" y2="825.1"/>
			<line class="st3" x1="1266" y1="826.6" x2="1266" y2="828.1"/>
		</g>
		<g>
			<line class="st3" x1="1343.2" y1="215" x2="1343.2" y2="216.5"/>
			<line class="st19" x1="1343.2" y1="219.5" x2="1343.2" y2="825.1"/>
			<line class="st3" x1="1343.2" y1="826.6" x2="1343.2" y2="828.1"/>
		</g>
		<g>
			<line class="st3" x1="1420.4" y1="186.5" x2="1420.4" y2="188"/>
			<line class="st20" x1="1420.4" y1="191" x2="1420.4" y2="825.1"/>
			<line class="st3" x1="1420.4" y1="826.6" x2="1420.4" y2="828.1"/>
		</g>
		<g>
			<line class="st3" x1="1497.6" y1="157" x2="1497.6" y2="158.5"/>
			<line class="st21" x1="1497.6" y1="161.5" x2="1497.6" y2="825.1"/>
			<line class="st3" x1="1497.6" y1="826.6" x2="1497.6" y2="828.1"/>
		</g>
		<g>
			<line class="st3" x1="1574.8" y1="127.1" x2="1574.8" y2="128.6"/>
			<line class="st22" x1="1574.8" y1="131.6" x2="1574.8" y2="825.1"/>
			<line class="st3" x1="1574.8" y1="826.6" x2="1574.8" y2="828.1"/>
		</g>
	</g>
</g>
<path class="st23" d="M106.7,584.9l76.5-17.7l79-17.6l77.2-35.4l73.3-17.7l81.7-17.7l76.5-17.7l77.4-23.5l77.2-35.4l77.2-17.7
	l77.2-29.4l78.6-23.6l76.6-23.6l76.5-23.6l76.5-23.6l77.9-29.4l77.2-17.7l79.5-29.5l76.5-29.4l75.6-29.5l77.5-23.6"/>
<path class="st2" d="M1651.5,88.8l12.7,12.7l-12.7,12.7l-12.7-12.7L1651.5,88.8z M107.9,572.2l12.7,12.7l-12.7,12.7l-12.7-12.7
	L107.9,572.2z"/>
<g class="st1">
	<path class="st2" d="M21.9,8.6c1.3,0,2.3,0.4,3.2,1.3c0.8,0.9,1.3,2,1.3,3.5c0,1.4-0.4,2.6-1.3,3.5c-0.9,0.9-1.9,1.4-3.2,1.4
		c-0.8,0-1.5-0.2-2.1-0.6s-1.1-0.9-1.4-1.5v6.3h-1.5V8.8h1.5v1.9c0.3-0.6,0.8-1.1,1.4-1.5S21.1,8.6,21.9,8.6z M21.6,16.9
		c0.9,0,1.6-0.3,2.2-1s0.9-1.5,0.9-2.6s-0.3-1.9-0.9-2.5s-1.4-0.9-2.2-0.9c-0.9,0-1.6,0.3-2.2,1c-0.6,0.6-0.9,1.5-0.9,2.5
		s0.3,1.9,0.9,2.5C20,16.6,20.7,16.9,21.6,16.9z"/>
	<path class="st2" d="M33.3,8.6c1.3,0,2.3,0.4,3.2,1.3c0.8,0.9,1.3,2,1.3,3.5c0,1.4-0.4,2.6-1.3,3.5c-0.9,0.9-1.9,1.4-3.2,1.4
		c-0.8,0-1.5-0.2-2.1-0.6s-1.1-0.9-1.4-1.5v6.3h-1.5V8.8h1.5v1.9c0.3-0.6,0.8-1.1,1.4-1.5S32.5,8.6,33.3,8.6z M33,16.9
		c0.9,0,1.6-0.3,2.2-1c0.6-0.7,0.9-1.5,0.9-2.6s-0.3-1.9-0.9-2.5C34.6,10.3,33.8,10,33,10c-0.9,0-1.6,0.3-2.2,1
		c-0.6,0.6-0.9,1.5-0.9,2.5s0.3,1.9,0.9,2.5C31.4,16.6,32.1,16.9,33,16.9z"/>
	<path class="st2" d="M41.2,8.8v1.5c0.6-1.1,1.6-1.7,3-1.7c0.7,0,1.4,0.2,1.9,0.5c0.6,0.3,1,0.8,1.3,1.5c0.3-0.6,0.8-1.1,1.4-1.5
		c0.6-0.4,1.2-0.5,2-0.5c1.1,0,1.9,0.3,2.6,1c0.7,0.7,1,1.7,1,2.9V18H53v-5.3c0-0.9-0.2-1.7-0.7-2.1S51.2,10,50.4,10
		s-1.4,0.2-1.9,0.7s-0.7,1.2-0.7,2.1v5.3h-1.5v-5.3c0-0.9-0.2-1.7-0.7-2.1s-1-0.7-1.8-0.7s-1.4,0.2-1.9,0.7s-0.7,1.2-0.7,2.1v5.3
		h-1.5V8.8H41.2z"/>
</g>
</svg>
