<?xml version="1.0" encoding="utf-8"?>
<!-- Generator: Adobe Illustrator 19.1.0, SVG Export Plug-In . SVG Version: 6.00 Build 0)  -->
<svg version="1.1" id="Livello_1" xmlns="http://www.w3.org/2000/svg" xmlns:xlink="http://www.w3.org/1999/xlink" x="0px" y="0px"
	 viewBox="94.3 -44.1 1783.7 888.1" style="enable-background:new 94.3 -44.1 1783.7 888.1;" xml:space="preserve">
<style type="text/css">
	.st0{fill:#D64155;}
	.st1{opacity:0.7;}
	.st2{fill:#FFFFFF;}
	.st3{fill:#BA3949;}
	.st4{enable-background:new    ;}
	.st5{font-family:'Poppins-Regular';}
	.st6{font-size:17px;}
</style>
<path class="st0" d="M1783,593.1l-119.7-86.8l-119.6-72.4L1429.5,405l-119.7-14.5l-119.6-28.9l-119.6-57.9H950.9l-119.6-65.2
	l-119.7-36.2l-69.1,3.6l-170.1-59.2l-114.2-41.4L238.5,93.4v695.7h1543.7L1783,593.1z"/>
<g class="st1">
	<path class="st2" d="M237.6,786.6h3v1h-3V786.6z M1774.9,787.6h-6v-1h6V787.6z M1764.8,787.6h-6v-1h6V787.6z M1754.8,787.6h-6v-1h6
		V787.6z M1744.8,787.6h-6v-1h6V787.6z M1734.7,787.6h-6v-1h6V787.6z M1724.7,787.6h-6v-1h6V787.6z M1714.7,787.6h-6v-1h6V787.6z
		 M1704.7,787.6h-6v-1h6V787.6z M1694.6,787.6h-6v-1h6V787.6z M1684.6,787.6h-6v-1h6V787.6z M1674.6,787.6h-6v-1h6V787.6z
		 M1664.5,787.6h-6v-1h6V787.6z M1654.5,787.6h-6v-1h6V787.6z M1644.5,787.6h-6v-1h6V787.6z M1634.5,787.6h-6v-1h6V787.6z
		 M1624.4,787.6h-6v-1h6V787.6z M1614.4,787.6h-6v-1h6V787.6z M1604.4,787.6h-6v-1h6V787.6z M1594.4,787.6h-6v-1h6V787.6z
		 M1584.3,787.6h-6v-1h6V787.6z M1574.3,787.6h-6v-1h6V787.6z M1564.3,787.6h-6v-1h6V787.6z M1554.2,787.6h-6v-1h6V787.6z
		 M1544.2,787.6h-6v-1h6V787.6z M1534.2,787.6h-6v-1h6V787.6z M1524.2,787.6h-6v-1h6V787.6z M1514.1,787.6h-6v-1h6V787.6z
		 M1504.1,787.6h-6v-1h6V787.6z M1494.1,787.6h-6v-1h6V787.6z M1484.1,787.6h-6v-1h6V787.6z M1474,787.6h-6v-1h6V787.6z M1464,787.6
		h-6v-1h6V787.6z M1454,787.6h-6v-1h6V787.6z M1443.9,787.6h-6v-1h6V787.6z M1433.9,787.6h-6v-1h6V787.6z M1423.9,787.6h-6v-1h6
		V787.6z M1413.9,787.6h-6v-1h6V787.6z M1403.8,787.6h-6v-1h6V787.6z M1393.8,787.6h-6v-1h6V787.6z M1383.8,787.6h-6v-1h6V787.6z
		 M1373.7,787.6h-6v-1h6V787.6z M1363.7,787.6h-6v-1h6V787.6z M1353.7,787.6h-6v-1h6V787.6z M1343.7,787.6h-6v-1h6V787.6z
		 M1333.6,787.6h-6v-1h6V787.6z M1323.6,787.6h-6v-1h6V787.6z M1313.6,787.6h-6v-1h6V787.6z M1303.6,787.6h-6v-1h6V787.6z
		 M1293.5,787.6h-6v-1h6V787.6z M1283.5,787.6h-6v-1h6V787.6z M1273.5,787.6h-6v-1h6V787.6z M1263.4,787.6h-6v-1h6V787.6z
		 M1253.4,787.6h-6v-1h6V787.6z M1243.4,787.6h-6v-1h6V787.6z M1233.4,787.6h-6v-1h6V787.6z M1223.3,787.6h-6v-1h6V787.6z
		 M1213.3,787.6h-6v-1h6V787.6z M1203.3,787.6h-6v-1h6V787.6z M1193.3,787.6h-6v-1h6V787.6z M1183.2,787.6h-6v-1h6V787.6z
		 M1173.2,787.6h-6v-1h6V787.6z M1163.2,787.6h-6v-1h6V787.6z M1153.1,787.6h-6v-1h6V787.6z M1143.1,787.6h-6v-1h6V787.6z
		 M1133.1,787.6h-6v-1h6V787.6z M1123.1,787.6h-6v-1h6V787.6z M1113,787.6h-6v-1h6V787.6z M1103,787.6h-6v-1h6V787.6z M1093,787.6
		h-6v-1h6V787.6z M1082.9,787.6h-6v-1h6V787.6z M1072.9,787.6h-6v-1h6V787.6z M1062.9,787.6h-6v-1h6V787.6z M1052.9,787.6h-6v-1h6
		V787.6z M1042.8,787.6h-6v-1h6V787.6z M1032.8,787.6h-6v-1h6V787.6z M1022.8,787.6h-6v-1h6V787.6z M1012.8,787.6h-6v-1h6V787.6z
		 M1002.7,787.6h-6v-1h6V787.6z M992.7,787.6h-6v-1h6V787.6z M982.7,787.6h-6v-1h6V787.6z M972.6,787.6h-6v-1h6V787.6z M962.6,787.6
		h-6v-1h6V787.6z M952.6,787.6h-6v-1h6V787.6z M942.6,787.6h-6v-1h6V787.6z M932.5,787.6h-6v-1h6V787.6z M922.5,787.6h-6v-1h6V787.6
		z M912.5,787.6h-6v-1h6V787.6z M902.5,787.6h-6v-1h6V787.6z M892.4,787.6h-6v-1h6V787.6z M882.4,787.6h-6v-1h6V787.6z M872.4,787.6
		h-6v-1h6V787.6z M862.3,787.6h-6v-1h6V787.6z M852.3,787.6h-6v-1h6V787.6z M842.3,787.6h-6v-1h6V787.6z M832.3,787.6h-6v-1h6V787.6
		z M822.2,787.6h-6v-1h6V787.6z M812.2,787.6h-6v-1h6V787.6z M802.2,787.6h-6v-1h6V787.6z M792.1,787.6h-6v-1h6V787.6z M782.1,787.6
		h-6v-1h6V787.6z M772.1,787.6h-6v-1h6V787.6z M762.1,787.6h-6v-1h6V787.6z M752,787.6h-6v-1h6V787.6z M742,787.6h-6v-1h6V787.6z
		 M732,787.6h-6v-1h6V787.6z M722,787.6h-6v-1h6V787.6z M711.9,787.6h-6v-1h6V787.6z M701.9,787.6h-6v-1h6V787.6z M691.9,787.6h-6
		v-1h6V787.6z M681.8,787.6h-6v-1h6V787.6z M671.8,787.6h-6v-1h6V787.6z M661.8,787.6h-6v-1h6V787.6z M651.8,787.6h-6v-1h6V787.6z
		 M641.7,787.6h-6v-1h6V787.6z M631.7,787.6h-6v-1h6V787.6z M621.7,787.6h-6v-1h6V787.6z M611.6,787.6h-6v-1h6V787.6z M601.6,787.6
		h-6v-1h6V787.6z M591.6,787.6h-6v-1h6V787.6z M581.6,787.6h-6v-1h6V787.6z M571.5,787.6h-6v-1h6V787.6z M561.5,787.6h-6v-1h6V787.6
		z M551.5,787.6h-6v-1h6V787.6z M541.5,787.6h-6v-1h6V787.6z M531.4,787.6h-6v-1h6V787.6z M521.4,787.6h-6v-1h6V787.6z M511.4,787.6
		h-6v-1h6V787.6z M501.3,787.6h-6v-1h6V787.6z M491.3,787.6h-6v-1h6V787.6z M481.3,787.6h-6v-1h6V787.6z M471.3,787.6h-6v-1h6V787.6
		z M461.2,787.6h-6v-1h6V787.6z M451.2,787.6h-6v-1h6V787.6z M441.2,787.6h-6v-1h6V787.6z M431.2,787.6h-6v-1h6V787.6z M421.1,787.6
		h-6v-1h6V787.6z M411.1,787.6h-6v-1h6V787.6z M401.1,787.6h-6v-1h6V787.6z M391,787.6h-6v-1h6V787.6z M381,787.6h-6v-1h6V787.6z
		 M371,787.6h-6v-1h6V787.6z M361,787.6h-6v-1h6V787.6z M350.9,787.6h-6v-1h6V787.6z M340.9,787.6h-6v-1h6V787.6z M330.9,787.6h-6
		v-1h6V787.6z M320.8,787.6h-6v-1h6V787.6z M310.8,787.6h-6v-1h6V787.6z M300.8,787.6h-6v-1h6V787.6z M290.8,787.6h-6v-1h6V787.6z
		 M280.7,787.6h-6v-1h6V787.6z M270.7,787.6h-6v-1h6V787.6z M260.7,787.6h-6v-1h6V787.6z M250.7,787.6h-6v-1h6V787.6z M1778.9,786.6
		h3v1h-3V786.6z"/>
</g>
<path class="st2" d="M237.6-23.9h1544v2h-1544V-23.9z M237.6,786.1h1544v2h-1544V786.1z M172.1,670.5v-1.1h5.6v1.1H172.1z
	 M182.3,675.1v-8.8h-1.1v-1.1h2.4v9.9L182.3,675.1L182.3,675.1z M187.6,664.8h6.1v1.1h-4.9v3.2c0.2-0.3,0.5-0.6,0.9-0.8
	s0.9-0.3,1.4-0.3s1,0.1,1.5,0.3c0.4,0.2,0.8,0.5,1,0.8c0.5,0.7,0.7,1.4,0.7,2.3c0,1.1-0.3,1.9-0.9,2.6c-0.6,0.7-1.4,1-2.5,1
	c-1.1,0-1.9-0.2-2.5-0.7c-0.6-0.5-1-1.1-1.1-2h1.2c0.1,0.5,0.4,0.9,0.8,1.2c0.4,0.3,0.9,0.4,1.6,0.4c0.7,0,1.2-0.2,1.6-0.7
	c0.4-0.4,0.6-1,0.6-1.8s-0.2-1.3-0.6-1.7s-0.9-0.6-1.7-0.6c-0.5,0-0.9,0.1-1.3,0.4c-0.4,0.3-0.6,0.6-0.8,1.1h-1.2
	C187.5,670.6,187.6,664.8,187.6,664.8z M198.6,665.8c0.3-0.3,0.6-0.5,1-0.7c0.4-0.2,0.9-0.3,1.6-0.3s1.2,0.1,1.6,0.4
	c0.5,0.3,0.8,0.6,1.1,1.1c0.5,0.9,0.7,2.1,0.7,3.6c0,1.9-0.3,3.3-1,4.1c-0.6,0.7-1.4,1-2.5,1c-2,0-3.1-1.2-3.4-3.5
	c-0.1-0.5-0.1-1-0.1-1.6s0-1.1,0.1-1.6l0.3-1.4C198.1,666.5,198.3,666.1,198.6,665.8z M203,667.2c-0.1-0.4-0.4-0.7-0.7-0.9
	c-0.3-0.2-0.7-0.3-1.1-0.3s-0.8,0.1-1.1,0.2c-0.3,0.1-0.5,0.3-0.7,0.6c-0.2,0.2-0.3,0.5-0.4,0.9c-0.1,0.4-0.2,0.7-0.2,1.1v2.4
	c0,0,0.1,0.7,0.2,1.1c0.1,0.4,0.2,0.7,0.4,0.9s0.4,0.4,0.7,0.6c0.3,0.1,0.6,0.2,1,0.2c0.4,0,0.7-0.1,1-0.2c0.3-0.2,0.5-0.3,0.7-0.6
	c0.2-0.2,0.3-0.5,0.4-0.9c0.1-0.6,0.2-1.3,0.2-2s0-1.3-0.1-1.8C203.2,668,203.1,667.6,203,667.2z M208.9,665.8
	c0.3-0.3,0.6-0.5,1-0.7c0.4-0.2,0.9-0.3,1.6-0.3s1.2,0.1,1.6,0.4c0.5,0.3,0.8,0.6,1.1,1.1c0.5,0.9,0.7,2.1,0.7,3.6
	c0,1.9-0.3,3.3-1,4.1c-0.6,0.7-1.4,1-2.5,1c-2,0-3.1-1.2-3.4-3.5c-0.1-0.5-0.1-1-0.1-1.6s0-1.1,0.1-1.6l0.3-1.4
	C208.4,666.5,208.6,666.1,208.9,665.8z M213.3,667.2c-0.1-0.4-0.4-0.7-0.7-0.9c-0.3-0.2-0.7-0.3-1.1-0.3s-0.8,0.1-1.1,0.2
	c-0.3,0.1-0.5,0.3-0.7,0.6c-0.2,0.2-0.3,0.5-0.4,0.9s-0.2,0.7-0.2,1.1v2.4c0,0,0.1,0.7,0.2,1.1c0.1,0.4,0.2,0.7,0.4,0.9
	c0.2,0.2,0.4,0.4,0.7,0.6c0.3,0.1,0.6,0.2,1,0.2c0.4,0,0.7-0.1,1-0.2c0.3-0.2,0.5-0.3,0.7-0.6c0.2-0.2,0.3-0.5,0.4-0.9
	c0.1-0.6,0.2-1.3,0.2-2s0-1.3-0.1-1.8C213.5,668,213.4,667.6,213.3,667.2z M168.5,786.8v-1.1h5.6v1.1H168.5z M177.6,791.3v-0.9
	c0.2-0.2,0.6-0.5,1.1-0.9s0.8-0.7,1.1-0.9l0.9-0.9l0.9-0.9c0,0,0.4-0.5,0.6-0.8c0.4-0.6,0.6-1.2,0.6-1.8s-0.2-1.1-0.5-1.4
	c-0.3-0.3-0.8-0.5-1.4-0.5c-0.6,0-1.1,0.2-1.5,0.6c-0.3,0.4-0.5,0.9-0.6,1.6h-1.2c0-1,0.4-1.8,0.9-2.4c0.6-0.6,1.4-0.8,2.3-0.8
	c0.9,0,1.7,0.3,2.3,0.8c0.6,0.5,0.9,1.3,0.9,2.2c0,1.1-0.5,2.3-1.6,3.4l-0.9,0.9c-0.6,0.6-1.2,1.2-1.9,1.7h4.8v1.1L177.6,791.3
	L177.6,791.3z M188.3,782.1c0.3-0.3,0.6-0.5,1-0.7c0.4-0.2,0.9-0.3,1.6-0.3s1.2,0.1,1.6,0.4c0.5,0.3,0.8,0.6,1.1,1.1
	c0.5,0.9,0.7,2.1,0.7,3.6c0,1.9-0.3,3.3-1,4.1c-0.6,0.7-1.4,1-2.5,1c-2,0-3.1-1.2-3.4-3.5c-0.1-0.5-0.1-1-0.1-1.6s0-1.1,0.1-1.6
	l0.3-1.4C187.8,782.8,188,782.4,188.3,782.1z M192.6,783.5c-0.1-0.4-0.4-0.7-0.7-0.9s-0.7-0.3-1.1-0.3c-0.4,0-0.8,0.1-1.1,0.2
	s-0.5,0.3-0.7,0.6s-0.3,0.5-0.4,0.9c-0.1,0.4-0.2,0.7-0.2,1.1v2.4c0,0,0.1,0.7,0.2,1.1c0.1,0.4,0.2,0.7,0.4,0.9s0.4,0.4,0.7,0.6
	s0.6,0.2,1,0.2s0.7-0.1,1-0.2c0.3-0.1,0.5-0.3,0.7-0.6c0.2-0.2,0.3-0.5,0.4-0.9c0.1-0.6,0.2-1.3,0.2-2s0-1.3-0.1-1.8
	C192.9,784.4,192.8,783.9,192.6,783.5z M198.6,782.1c0.3-0.3,0.6-0.5,1-0.7c0.4-0.2,0.9-0.3,1.6-0.3s1.2,0.1,1.6,0.4
	c0.5,0.3,0.8,0.6,1.1,1.1c0.5,0.9,0.7,2.1,0.7,3.6c0,1.9-0.3,3.3-1,4.1c-0.6,0.7-1.4,1-2.5,1c-2,0-3.1-1.2-3.4-3.5
	c-0.1-0.5-0.1-1-0.1-1.6s0-1.1,0.1-1.6l0.3-1.4C198.1,782.8,198.3,782.4,198.6,782.1z M203,783.5c-0.1-0.4-0.4-0.7-0.7-0.9
	c-0.3-0.2-0.7-0.3-1.1-0.3s-0.8,0.1-1.1,0.2s-0.5,0.3-0.7,0.6s-0.3,0.5-0.4,0.9c-0.1,0.4-0.2,0.7-0.2,1.1v2.4c0,0,0.1,0.7,0.2,1.1
	c0.1,0.4,0.2,0.7,0.4,0.9s0.4,0.4,0.7,0.6s0.6,0.2,1,0.2c0.4,0,0.7-0.1,1-0.2c0.3-0.1,0.5-0.3,0.7-0.6c0.2-0.2,0.3-0.5,0.4-0.9
	c0.1-0.6,0.2-1.3,0.2-2s0-1.3-0.1-1.8L203,783.5z M208.9,782.1c0.3-0.3,0.6-0.5,1-0.7c0.4-0.2,0.9-0.3,1.6-0.3s1.2,0.1,1.6,0.4
	c0.5,0.3,0.8,0.6,1.1,1.1c0.5,0.9,0.7,2.1,0.7,3.6c0,1.9-0.3,3.3-1,4.1c-0.6,0.7-1.4,1-2.5,1c-2,0-3.1-1.2-3.4-3.5
	c-0.1-0.5-0.1-1-0.1-1.6s0-1.1,0.1-1.6l0.3-1.4C208.4,782.8,208.6,782.4,208.9,782.1z M213.3,783.5c-0.1-0.4-0.4-0.7-0.7-0.9
	c-0.3-0.2-0.7-0.3-1.1-0.3s-0.8,0.1-1.1,0.2c-0.3,0.1-0.5,0.3-0.7,0.6c-0.2,0.3-0.3,0.5-0.4,0.9s-0.2,0.7-0.2,1.1v2.4
	c0,0,0.1,0.7,0.2,1.1c0.1,0.4,0.2,0.7,0.4,0.9c0.2,0.2,0.4,0.4,0.7,0.6c0.3,0.2,0.6,0.2,1,0.2c0.4,0,0.7-0.1,1-0.2
	c0.3-0.1,0.5-0.3,0.7-0.6c0.2-0.2,0.3-0.5,0.4-0.9c0.1-0.6,0.2-1.3,0.2-2s0-1.3-0.1-1.8C213.6,784.8,213.3,783.5,213.3,783.5z
	 M172.1,554.2v-1.1h5.6v1.1H172.1z M182.3,558.7v-8.8h-1.2v-1.1h2.4v9.9L182.3,558.7L182.3,558.7z M188.3,549.5
	c0.3-0.3,0.6-0.5,1-0.7c0.4-0.2,0.9-0.3,1.6-0.3s1.2,0.1,1.6,0.4c0.5,0.3,0.8,0.6,1.1,1.1c0.5,0.9,0.7,2.1,0.7,3.6
	c0,1.9-0.3,3.3-1,4.1c-0.6,0.7-1.4,1-2.5,1c-2,0-3.1-1.2-3.4-3.5c-0.1-0.5-0.1-1-0.1-1.6s0-1.1,0.1-1.6l0.3-1.4
	C187.8,550.1,188,549.8,188.3,549.5z M192.6,550.9c-0.1-0.4-0.4-0.7-0.7-0.9s-0.7-0.3-1.1-0.3c-0.4,0-0.8,0.1-1.1,0.2
	s-0.5,0.3-0.7,0.6s-0.3,0.5-0.4,0.9c-0.1,0.4-0.2,0.7-0.2,1.1v2.4c0,0,0.1,0.7,0.2,1.1c0.1,0.4,0.2,0.7,0.4,0.9s0.4,0.4,0.7,0.6
	s0.6,0.2,1,0.2s0.7-0.1,1-0.2c0.3-0.1,0.5-0.3,0.7-0.6c0.2-0.2,0.3-0.5,0.4-0.9c0.1-0.6,0.2-1.3,0.2-2s0-1.3-0.1-1.8
	C192.9,551.7,192.8,551.3,192.6,550.9z M198.6,549.5c0.3-0.3,0.6-0.5,1-0.7c0.4-0.2,0.9-0.3,1.6-0.3s1.2,0.1,1.6,0.4
	c0.5,0.3,0.8,0.6,1.1,1.1c0.5,0.9,0.7,2.1,0.7,3.6c0,1.9-0.3,3.3-1,4.1c-0.6,0.7-1.4,1-2.5,1c-2,0-3.1-1.2-3.4-3.5
	c-0.1-0.5-0.1-1-0.1-1.6s0-1.1,0.1-1.6l0.3-1.4C198.1,550.1,198.3,549.8,198.6,549.5z M203,550.9c-0.1-0.4-0.4-0.7-0.7-0.9
	c-0.3-0.2-0.7-0.3-1.1-0.3s-0.8,0.1-1.1,0.2s-0.5,0.3-0.7,0.6s-0.3,0.5-0.4,0.9c-0.1,0.4-0.2,0.7-0.2,1.1v2.4c0,0,0.1,0.7,0.2,1.1
	c0.1,0.4,0.2,0.7,0.4,0.9s0.4,0.4,0.7,0.6s0.6,0.2,1,0.2c0.4,0,0.7-0.1,1-0.2c0.3-0.1,0.5-0.3,0.7-0.6c0.2-0.2,0.3-0.5,0.4-0.9
	c0.1-0.6,0.2-1.3,0.2-2s0-1.3-0.1-1.8C203.2,551.7,203.1,551.3,203,550.9z M208.9,549.5c0.3-0.3,0.6-0.5,1-0.7
	c0.4-0.2,0.9-0.3,1.6-0.3s1.2,0.1,1.6,0.4c0.5,0.3,0.8,0.6,1.1,1.1c0.5,0.9,0.7,2.1,0.7,3.6c0,1.9-0.3,3.3-1,4.1
	c-0.6,0.7-1.4,1-2.5,1c-2,0-3.1-1.2-3.4-3.5c-0.1-0.5-0.1-1-0.1-1.6s0-1.1,0.1-1.6l0.3-1.4C208.4,550.1,208.6,549.8,208.9,549.5z
	 M213.3,550.9c-0.1-0.4-0.4-0.7-0.7-0.9c-0.3-0.2-0.7-0.3-1.1-0.3s-0.8,0.1-1.1,0.2c-0.3,0.1-0.5,0.3-0.7,0.6
	c-0.2,0.3-0.3,0.5-0.4,0.9s-0.2,0.7-0.2,1.1v2.4c0,0,0.1,0.7,0.2,1.1c0.1,0.4,0.2,0.7,0.4,0.9c0.2,0.2,0.4,0.4,0.7,0.6
	c0.3,0.2,0.6,0.2,1,0.2c0.4,0,0.7-0.1,1-0.2c0.3-0.1,0.5-0.3,0.7-0.6c0.2-0.2,0.3-0.5,0.4-0.9c0.1-0.6,0.2-1.3,0.2-2s0-1.3-0.1-1.8
	C213.5,551.7,213.4,551.3,213.3,550.9z M178,437.8v-1.1h5.6v1.1H178z M187.6,432.2h6.1v1.1h-4.9v3.2c0.2-0.3,0.5-0.6,0.9-0.8
	c0.4-0.2,0.9-0.3,1.4-0.3s1,0.1,1.5,0.3c0.4,0.2,0.8,0.5,1,0.8c0.5,0.7,0.7,1.4,0.7,2.3c0,1.1-0.3,1.9-0.9,2.6c-0.6,0.7-1.4,1-2.5,1
	c-1.1,0-1.9-0.2-2.5-0.7c-0.6-0.5-1-1.1-1.1-2h1.2c0.1,0.5,0.4,0.9,0.8,1.2c0.4,0.3,0.9,0.4,1.6,0.4c0.7,0,1.2-0.2,1.6-0.7
	s0.6-1,0.6-1.8s-0.2-1.3-0.6-1.7s-0.9-0.6-1.7-0.6c-0.5,0-0.9,0.1-1.3,0.4s-0.6,0.6-0.8,1.1h-1.2C187.5,438,187.6,432.2,187.6,432.2
	z M198.6,433.2c0.3-0.3,0.6-0.5,1-0.7c0.4-0.2,0.9-0.3,1.6-0.3s1.2,0.1,1.6,0.4c0.5,0.3,0.8,0.6,1.1,1.1c0.5,0.9,0.7,2.1,0.7,3.6
	c0,1.9-0.3,3.3-1,4.1c-0.6,0.7-1.4,1-2.5,1c-2,0-3.1-1.2-3.4-3.5c-0.1-0.5-0.1-1-0.1-1.6s0-1.1,0.1-1.6l0.3-1.4
	C198,434.3,198.3,433.5,198.6,433.2z M203,434.6c-0.1-0.4-0.4-0.7-0.7-0.9c-0.3-0.2-0.7-0.3-1.1-0.3s-0.8,0.1-1.1,0.2
	s-0.5,0.3-0.7,0.6s-0.3,0.5-0.4,0.9c-0.1,0.4-0.2,0.7-0.2,1.1v2.4c0,0.3,0.1,0.7,0.2,1.1c0.1,0.4,0.2,0.7,0.4,0.9
	c0.2,0.2,0.4,0.4,0.7,0.6s0.6,0.2,1,0.2c0.4,0,0.7-0.1,1-0.2c0.3-0.1,0.5-0.3,0.7-0.6c0.2-0.2,0.3-0.5,0.4-0.9
	c0.1-0.6,0.2-1.3,0.2-2s0-1.3-0.1-1.8C203.2,435.4,203.1,435,203,434.6L203,434.6z M208.9,433.2c0.3-0.3,0.6-0.5,1-0.7
	c0.4-0.2,0.9-0.3,1.6-0.3s1.2,0.1,1.6,0.4c0.5,0.3,0.8,0.6,1.1,1.1c0.5,0.9,0.7,2.1,0.7,3.6c0,1.9-0.3,3.3-1,4.1
	c-0.6,0.7-1.4,1-2.5,1c-2,0-3.1-1.2-3.4-3.5c-0.1-0.5-0.1-1-0.1-1.6s0-1.1,0.1-1.6l0.3-1.4C208.4,433.8,208.6,433.5,208.9,433.2z
	 M213.3,434.6c-0.1-0.4-0.4-0.7-0.7-0.9c-0.3-0.2-0.7-0.3-1.1-0.3s-0.8,0.1-1.1,0.2c-0.3,0.1-0.5,0.3-0.7,0.6
	c-0.2,0.3-0.3,0.5-0.4,0.9s-0.2,0.7-0.2,1.1v2.4c0,0.3,0.1,0.7,0.2,1.1c0.1,0.4,0.2,0.7,0.4,0.9c0.2,0.2,0.4,0.4,0.7,0.6
	c0.3,0.2,0.6,0.2,1,0.2c0.4,0,0.7-0.1,1-0.2c0.3-0.1,0.5-0.3,0.7-0.6c0.2-0.2,0.3-0.5,0.4-0.9c0.1-0.6,0.2-1.3,0.2-2s0-1.3-0.1-1.8
	C213.5,435.4,213.4,435,213.3,434.6L213.3,434.6z M208.9,316.8c0.3-0.3,0.6-0.5,1-0.7c0.4-0.2,0.9-0.3,1.6-0.3s1.2,0.1,1.6,0.4
	c0.5,0.3,0.8,0.6,1.1,1.1c0.5,0.9,0.7,2.1,0.7,3.6c0,1.9-0.3,3.3-1,4.1c-0.6,0.7-1.4,1-2.5,1c-2,0-3.1-1.2-3.4-3.5
	c-0.1-0.5-0.1-1-0.1-1.6s0-1.1,0.1-1.6l0.3-1.4C208.4,317.5,208.6,317.1,208.9,316.8z M213.3,318.2c-0.1-0.4-0.4-0.7-0.7-0.9
	c-0.3-0.2-0.7-0.3-1.1-0.3s-0.8,0.1-1.1,0.2c-0.3,0.1-0.5,0.3-0.7,0.6c-0.2,0.3-0.3,0.5-0.4,0.9s-0.2,0.7-0.2,1.1v2.4
	c0,0.3,0.1,0.7,0.2,1.1c0.1,0.4,0.2,0.7,0.4,0.9c0.2,0.2,0.4,0.4,0.7,0.6c0.3,0.2,0.6,0.2,1,0.2c0.4,0,0.7-0.1,1-0.2
	c0.3-0.1,0.5-0.3,0.7-0.6c0.2-0.2,0.3-0.5,0.4-0.9c0.1-0.6,0.2-1.3,0.2-2s0-1.3-0.1-1.8C213.5,319,213.4,318.6,213.3,318.2
	L213.3,318.2z M187.6,199.5h6.1v1.1h-4.9v3.2c0.2-0.3,0.5-0.6,0.9-0.8s0.9-0.3,1.4-0.3s1,0.1,1.5,0.3c0.4,0.2,0.8,0.5,1,0.8
	c0.5,0.7,0.7,1.4,0.7,2.3c0,1.1-0.3,1.9-0.9,2.6c-0.6,0.7-1.4,1-2.5,1c-1.1,0-1.9-0.2-2.5-0.7c-0.6-0.5-1-1.1-1.1-2h1.2
	c0.1,0.5,0.4,0.9,0.8,1.2c0.4,0.3,0.9,0.4,1.6,0.4c0.7,0,1.2-0.2,1.6-0.7s0.6-1,0.6-1.8s-0.2-1.3-0.6-1.7s-0.9-0.6-1.7-0.6
	c-0.5,0-0.9,0.1-1.3,0.4c-0.4,0.3-0.6,0.6-0.8,1.1h-1.2C187.5,205.3,187.6,199.5,187.6,199.5z M198.6,200.5c0.3-0.3,0.6-0.5,1-0.7
	c0.4-0.2,0.9-0.3,1.6-0.3s1.2,0.1,1.6,0.4c0.5,0.3,0.8,0.6,1.1,1.1c0.5,0.9,0.7,2.1,0.7,3.6c0,1.9-0.3,3.3-1,4.1
	c-0.6,0.7-1.4,1-2.5,1c-2,0-3.1-1.2-3.4-3.5c-0.1-0.5-0.1-1-0.1-1.6s0-1.1,0.1-1.6l0.3-1.4C198.1,201.2,198.3,200.8,198.6,200.5z
	 M203,201.9c-0.1-0.4-0.4-0.7-0.7-0.9c-0.3-0.2-0.7-0.3-1.1-0.3s-0.8,0.1-1.1,0.2s-0.5,0.3-0.7,0.6s-0.3,0.5-0.4,0.9
	c-0.1,0.4-0.2,0.7-0.2,1.1v2.4c0,0,0.1,0.7,0.2,1.1c0.1,0.4,0.2,0.7,0.4,0.9s0.4,0.4,0.7,0.6s0.6,0.2,1,0.2c0.4,0,0.7-0.1,1-0.2
	c0.3-0.1,0.5-0.3,0.7-0.6c0.2-0.2,0.3-0.5,0.4-0.9c0.1-0.6,0.2-1.3,0.2-2s0-1.3-0.1-1.8C203.2,202.7,203.1,202.3,203,201.9z
	 M208.9,200.5c0.3-0.3,0.6-0.5,1-0.7c0.4-0.2,0.9-0.3,1.6-0.3s1.2,0.1,1.6,0.4c0.5,0.3,0.8,0.6,1.1,1.1c0.5,0.9,0.7,2.1,0.7,3.6
	c0,1.9-0.3,3.3-1,4.1c-0.6,0.7-1.4,1-2.5,1c-2,0-3.1-1.2-3.4-3.5c-0.1-0.5-0.1-1-0.1-1.6s0-1.1,0.1-1.6l0.3-1.4
	C208.4,201.2,208.6,200.8,208.9,200.5z M213.3,201.9c-0.1-0.4-0.4-0.7-0.7-0.9c-0.3-0.2-0.7-0.3-1.1-0.3s-0.8,0.1-1.1,0.2
	c-0.3,0.1-0.5,0.3-0.7,0.6c-0.2,0.3-0.3,0.5-0.4,0.9s-0.2,0.7-0.2,1.1v2.4c0,0,0.1,0.7,0.2,1.1c0.1,0.4,0.2,0.7,0.4,0.9
	c0.2,0.2,0.4,0.4,0.7,0.6c0.3,0.2,0.6,0.2,1,0.2c0.4,0,0.7-0.1,1-0.2c0.3-0.1,0.5-0.3,0.7-0.6c0.2-0.2,0.3-0.5,0.4-0.9
	c0.1-0.6,0.2-1.3,0.2-2s0-1.3-0.1-1.8C213.5,202.7,213.4,202.3,213.3,201.9z M182.3,326.1v-8.8h-1.2v-1.1h2.4v9.9H182.3z
	 M188.3,316.8c0.3-0.3,0.6-0.5,1-0.7c0.4-0.2,0.9-0.3,1.6-0.3s1.2,0.1,1.6,0.4c0.5,0.3,0.8,0.6,1.1,1.1c0.5,0.9,0.7,2.1,0.7,3.6
	c0,1.9-0.3,3.3-1,4.1c-0.6,0.7-1.4,1-2.5,1c-2,0-3.1-1.2-3.4-3.5c-0.1-0.5-0.1-1-0.1-1.6s0-1.1,0.1-1.6l0.3-1.4
	C187.8,317.5,188,317.1,188.3,316.8z M192.6,318.2c-0.1-0.4-0.4-0.7-0.7-0.9c-0.3-0.2-0.7-0.3-1.1-0.3c-0.4,0-0.8,0.1-1.1,0.2
	s-0.5,0.3-0.7,0.6s-0.3,0.5-0.4,0.9c-0.1,0.4-0.2,0.7-0.2,1.1v2.4c0,0.3,0.1,0.7,0.2,1.1c0.1,0.4,0.2,0.7,0.4,0.9
	c0.2,0.2,0.4,0.4,0.7,0.6s0.6,0.2,1,0.2s0.7-0.1,1-0.2s0.5-0.3,0.7-0.6c0.2-0.2,0.3-0.5,0.4-0.9c0.1-0.6,0.2-1.3,0.2-2
	s0-1.3-0.1-1.8C192.9,319,192.8,318.6,192.6,318.2L192.6,318.2z M198.6,316.8c0.3-0.3,0.6-0.5,1-0.7c0.4-0.2,0.9-0.3,1.6-0.3
	s1.2,0.1,1.6,0.4c0.5,0.3,0.8,0.6,1.1,1.1c0.5,0.9,0.7,2.1,0.7,3.6c0,1.9-0.3,3.3-1,4.1c-0.6,0.7-1.4,1-2.5,1c-2,0-3.1-1.2-3.4-3.5
	c-0.1-0.5-0.1-1-0.1-1.6s0-1.1,0.1-1.6l0.3-1.4C198.1,317.5,198.3,317.1,198.6,316.8z M203,318.2c-0.1-0.4-0.4-0.7-0.7-0.9
	c-0.3-0.2-0.7-0.3-1.1-0.3s-0.8,0.1-1.1,0.2s-0.5,0.3-0.7,0.6s-0.3,0.5-0.4,0.9c-0.1,0.4-0.2,0.7-0.2,1.1v2.4c0,0.3,0.1,0.7,0.2,1.1
	c0.1,0.4,0.2,0.7,0.4,0.9c0.2,0.2,0.4,0.4,0.7,0.6s0.6,0.2,1,0.2c0.4,0,0.7-0.1,1-0.2c0.3-0.1,0.5-0.3,0.7-0.6
	c0.2-0.2,0.3-0.5,0.4-0.9c0.1-0.6,0.2-1.3,0.2-2s0-1.3-0.1-1.8C203.2,319,203.1,318.6,203,318.2L203,318.2z"/>
<path class="st2" d="M208.9,316.8c0.3-0.3,0.6-0.5,1-0.7c0.4-0.2,0.9-0.3,1.6-0.3s1.2,0.1,1.6,0.4c0.5,0.3,0.8,0.6,1.1,1.1
	c0.5,0.9,0.7,2.1,0.7,3.6c0,1.9-0.3,3.3-1,4.1c-0.6,0.7-1.4,1-2.5,1c-2,0-3.1-1.2-3.4-3.5c-0.1-0.5-0.1-1-0.1-1.6s0-1.1,0.1-1.6
	l0.3-1.4C208.4,317.5,208.6,317.1,208.9,316.8z M213.3,318.2c-0.1-0.4-0.4-0.7-0.7-0.9c-0.3-0.2-0.7-0.3-1.1-0.3s-0.8,0.1-1.1,0.2
	c-0.3,0.1-0.5,0.3-0.7,0.6c-0.2,0.3-0.3,0.5-0.4,0.9s-0.2,0.7-0.2,1.1v2.4c0,0.3,0.1,0.7,0.2,1.1c0.1,0.4,0.2,0.7,0.4,0.9
	c0.2,0.2,0.4,0.4,0.7,0.6c0.3,0.2,0.6,0.2,1,0.2c0.4,0,0.7-0.1,1-0.2c0.3-0.1,0.5-0.3,0.7-0.6c0.2-0.2,0.3-0.5,0.4-0.9
	c0.1-0.6,0.2-1.3,0.2-2s0-1.3-0.1-1.8C213.5,319,213.4,318.6,213.3,318.2L213.3,318.2z M177.6-23v-0.9c0.2-0.2,0.6-0.5,1.1-0.9
	s0.8-0.7,1.1-0.9l0.9-0.9l0.9-0.9c0.2-0.2,0.4-0.5,0.6-0.8c0.4-0.6,0.6-1.2,0.6-1.8s-0.2-1.1-0.5-1.4c-0.3-0.3-0.8-0.6-1.5-0.6
	c-0.6,0-1.1,0.2-1.5,0.6c-0.3,0.4-0.5,0.9-0.5,1.6h-1.2c0-1,0.4-1.8,0.9-2.4c0.6-0.6,1.4-0.8,2.3-0.8c0.9,0,1.7,0.3,2.3,0.8
	c0.6,0.5,0.9,1.3,0.9,2.2c0,1.1-0.5,2.3-1.6,3.4l-0.9,0.9c-0.6,0.6-1.2,1.2-1.9,1.7h4.8v1.1C184.4-23,177.6-23,177.6-23z
	 M188.3-32.2c0.3-0.3,0.6-0.5,1-0.7c0.4-0.2,0.9-0.3,1.6-0.3s1.2,0.1,1.6,0.4c0.5,0.3,0.8,0.6,1.1,1.1c0.5,0.9,0.7,2.1,0.7,3.6
	c0,1.9-0.3,3.3-1,4.1c-0.6,0.7-1.4,1-2.5,1c-2,0-3.1-1.2-3.4-3.5c-0.1-0.5-0.1-1-0.1-1.6s0-1.1,0.1-1.6l0.3-1.4
	C187.8-31.5,188-31.9,188.3-32.2z M192.6-30.8c-0.1-0.4-0.4-0.7-0.7-0.9s-0.7-0.3-1.1-0.3c-0.4,0-0.8,0.1-1.1,0.2s-0.5,0.3-0.7,0.6
	s-0.3,0.5-0.4,0.9c-0.1,0.4-0.2,0.7-0.2,1.1v2.4c0,0.3,0.1,0.7,0.2,1.1c0.1,0.4,0.2,0.7,0.4,0.9c0.2,0.2,0.4,0.4,0.7,0.6
	s0.6,0.2,1,0.2s0.7-0.1,1-0.2s0.5-0.3,0.7-0.6c0.2-0.2,0.3-0.5,0.4-0.9c0.1-0.6,0.2-1.3,0.2-2s0-1.3-0.1-1.8
	C192.9-29.9,192.8-30.3,192.6-30.8z M198.6-32.2c0.3-0.3,0.6-0.5,1-0.7c0.4-0.2,0.9-0.3,1.6-0.3s1.2,0.1,1.6,0.4
	c0.5,0.3,0.8,0.6,1.1,1.1c0.5,0.9,0.7,2.1,0.7,3.6c0,1.9-0.3,3.3-1,4.1c-0.6,0.7-1.4,1-2.5,1c-2,0-3.1-1.2-3.4-3.5
	c-0.1-0.5-0.1-1-0.1-1.6s0-1.1,0.1-1.6l0.3-1.4C198.1-31.5,198.3-31.9,198.6-32.2z M203-30.8c-0.1-0.4-0.4-0.7-0.7-0.9
	c-0.3-0.2-0.7-0.3-1.1-0.3s-0.8,0.1-1.1,0.2s-0.5,0.3-0.7,0.6s-0.3,0.5-0.4,0.9c-0.1,0.4-0.2,0.7-0.2,1.1v2.4c0,0.3,0.1,0.7,0.2,1.1
	c0.1,0.4,0.2,0.7,0.4,0.9c0.2,0.2,0.4,0.4,0.7,0.6s0.6,0.2,1,0.2c0.4,0,0.7-0.1,1-0.2c0.3-0.1,0.5-0.3,0.7-0.6
	c0.2-0.2,0.3-0.5,0.4-0.9c0.1-0.6,0.2-1.3,0.2-2s0-1.3-0.1-1.8C203.2-29.9,203.1-30.3,203-30.8z M208.9-32.2c0.3-0.3,0.6-0.5,1-0.7
	c0.4-0.2,0.9-0.3,1.6-0.3s1.2,0.1,1.6,0.4c0.5,0.3,0.8,0.6,1.1,1.1c0.5,0.9,0.7,2.1,0.7,3.6c0,1.9-0.3,3.3-1,4.1
	c-0.6,0.7-1.4,1-2.5,1c-2,0-3.1-1.2-3.4-3.5c-0.1-0.5-0.1-1-0.1-1.6s0-1.1,0.1-1.6l0.3-1.4C208.4-31.5,208.6-31.9,208.9-32.2z
	 M213.3-30.8c-0.1-0.4-0.4-0.7-0.7-0.9c-0.3-0.2-0.7-0.3-1.1-0.3s-0.8,0.1-1.1,0.2c-0.3,0.1-0.5,0.3-0.7,0.6
	c-0.2,0.3-0.3,0.5-0.4,0.9s-0.2,0.7-0.2,1.1v2.4c0,0.3,0.1,0.7,0.2,1.1c0.1,0.4,0.2,0.7,0.4,0.9c0.2,0.2,0.4,0.4,0.7,0.6
	c0.3,0.2,0.6,0.2,1,0.2c0.4,0,0.7-0.1,1-0.2c0.3-0.1,0.5-0.3,0.7-0.6c0.2-0.2,0.3-0.5,0.4-0.9c0.1-0.6,0.2-1.3,0.2-2s0-1.3-0.1-1.8
	C213.5-29.9,213.4-30.3,213.3-30.8z M182.3,93.4v-8.8h-1.1v-1.1h2.4v9.9H182.3z M187.6,83.2h6.1v1.1h-4.9v3.2
	c0.2-0.3,0.5-0.6,0.9-0.8s0.9-0.3,1.4-0.3s1,0.1,1.5,0.3c0.4,0.2,0.8,0.5,1,0.8c0.5,0.7,0.7,1.4,0.7,2.3c0,1.1-0.3,1.9-0.9,2.6
	c-0.6,0.7-1.4,1-2.5,1c-1.1,0-1.9-0.2-2.5-0.7c-0.6-0.5-1-1.1-1.1-2h1.2c0.1,0.5,0.4,0.9,0.8,1.2c0.4,0.3,0.9,0.4,1.6,0.4
	c0.7,0,1.2-0.2,1.6-0.7s0.6-1,0.6-1.8s-0.2-1.3-0.6-1.7s-0.9-0.6-1.7-0.6c-0.5,0-0.9,0.1-1.3,0.4c-0.4,0.3-0.6,0.6-0.8,1.1h-1.2
	C187.5,89,187.6,83.2,187.6,83.2z M198.6,84.2c0.3-0.3,0.6-0.5,1-0.7c0.4-0.2,0.9-0.3,1.6-0.3s1.2,0.1,1.6,0.4
	c0.5,0.3,0.8,0.6,1.1,1.1c0.5,0.9,0.7,2.1,0.7,3.6c0,1.9-0.3,3.3-1,4.1c-0.6,0.7-1.4,1-2.5,1c-2,0-3.1-1.2-3.4-3.5
	c-0.1-0.5-0.1-1-0.1-1.6s0-1.1,0.1-1.6l0.3-1.4C198.1,84.8,198.3,84.5,198.6,84.2z M203,85.6c-0.1-0.4-0.4-0.7-0.7-0.9
	c-0.3-0.2-0.7-0.3-1.1-0.3s-0.8,0.1-1.1,0.2s-0.5,0.3-0.7,0.6s-0.3,0.5-0.4,0.9c-0.1,0.4-0.2,0.7-0.2,1.1v2.4c0,0,0.1,0.7,0.2,1.1
	c0.1,0.4,0.2,0.7,0.4,0.9s0.4,0.4,0.7,0.6s0.6,0.2,1,0.2c0.4,0,0.7-0.1,1-0.2c0.3-0.1,0.5-0.3,0.7-0.6c0.2-0.2,0.3-0.5,0.4-0.9
	c0.1-0.6,0.2-1.3,0.2-2s0-1.3-0.1-1.8C203.2,86.4,203.1,86,203,85.6z M208.9,84.2c0.3-0.3,0.6-0.5,1-0.7c0.4-0.2,0.9-0.3,1.6-0.3
	s1.2,0.1,1.6,0.4c0.5,0.3,0.8,0.6,1.1,1.1c0.5,0.9,0.7,2.1,0.7,3.6c0,1.9-0.3,3.3-1,4.1c-0.6,0.7-1.4,1-2.5,1c-2,0-3.1-1.2-3.4-3.5
	c-0.1-0.5-0.1-1-0.1-1.6s0-1.1,0.1-1.6l0.3-1.4C208.4,84.8,208.6,84.5,208.9,84.2z M213.3,85.6c-0.1-0.4-0.4-0.7-0.7-0.9
	c-0.3-0.2-0.7-0.3-1.1-0.3s-0.8,0.1-1.1,0.2c-0.3,0.1-0.5,0.3-0.7,0.6c-0.2,0.3-0.3,0.5-0.4,0.9s-0.2,0.7-0.2,1.1v2.4
	c0,0,0.1,0.7,0.2,1.1c0.1,0.4,0.2,0.7,0.4,0.9c0.2,0.2,0.4,0.4,0.7,0.6c0.3,0.2,0.6,0.2,1,0.2c0.4,0,0.7-0.1,1-0.2
	c0.3-0.1,0.5-0.3,0.7-0.6c0.2-0.2,0.3-0.5,0.4-0.9c0.1-0.6,0.2-1.3,0.2-2s0-1.3-0.1-1.8C213.5,86.4,213.4,86,213.3,85.6z
	 M213.8,821.9v-1.2c0.3-0.3,0.7-0.6,1.4-1.2c0.6-0.5,1.1-0.9,1.4-1.2c0.3-0.3,0.7-0.6,1.2-1.1s0.9-0.8,1.1-1.2
	c0.3-0.3,0.5-0.7,0.8-1.1c0.5-0.8,0.8-1.5,0.8-2.3s-0.2-1.4-0.6-1.8c-0.4-0.5-1-0.7-1.8-0.7c-0.8,0-1.5,0.3-1.9,0.8
	c-0.4,0.5-0.7,1.2-0.7,2h-1.6c0-1.3,0.5-2.4,1.2-3.1c0.8-0.7,1.8-1.1,3-1.1c1.2,0,2.2,0.3,2.9,1s1.1,1.6,1.1,2.8
	c0,1.4-0.7,2.9-2.1,4.4l-1.2,1.2c-0.8,0.7-1.6,1.5-2.5,2.2h6.1v1.4h-8.6V821.9L213.8,821.9z M227.6,810.2c0.3-0.4,0.8-0.7,1.3-0.9
	s1.2-0.3,2-0.3s1.5,0.2,2.1,0.5c0.6,0.3,1.1,0.8,1.4,1.4c0.6,1.2,0.9,2.7,0.9,4.6c0,2.5-0.4,4.3-1.3,5.3c-0.7,0.8-1.8,1.3-3.2,1.3
	c-2.6,0-4-1.5-4.4-4.5c-0.1-0.6-0.1-1.3-0.1-2.1s0-1.5,0.1-2.1c0.1-0.6,0.2-1.2,0.4-1.8C227,811,227.3,810.5,227.6,810.2z
	 M233.2,812c-0.2-0.5-0.5-0.9-0.9-1.2c-0.4-0.3-0.9-0.4-1.5-0.4c-0.6,0-1,0.1-1.4,0.3c-0.4,0.2-0.7,0.4-0.9,0.7
	c-0.2,0.3-0.4,0.7-0.5,1.2c-0.1,0.5-0.2,0.9-0.2,1.4v3.2c0,0.4,0.1,0.9,0.2,1.4c0.1,0.5,0.3,0.9,0.5,1.2c0.2,0.3,0.5,0.5,0.9,0.7
	c0.4,0.2,0.8,0.3,1.3,0.3s0.9-0.1,1.3-0.3c0.4-0.2,0.7-0.4,0.9-0.7s0.4-0.7,0.5-1.2c0.2-0.8,0.3-1.6,0.3-2.6s0-1.7-0.1-2.2
	C233.5,813.3,233.4,812.5,233.2,812L233.2,812z M240.8,810.2c0.3-0.4,0.8-0.7,1.3-0.9s1.2-0.3,2-0.3s1.5,0.2,2.1,0.5
	c0.6,0.3,1.1,0.8,1.4,1.4c0.6,1.2,0.9,2.7,0.9,4.6c0,2.5-0.4,4.3-1.3,5.3c-0.7,0.8-1.8,1.3-3.2,1.3c-2.6,0-4-1.5-4.4-4.5
	c-0.1-0.6-0.1-1.3-0.1-2.1s0-1.5,0.1-2.1c0.1-0.6,0.2-1.2,0.4-1.8S240.5,810.5,240.8,810.2z M246.5,812c-0.2-0.5-0.5-0.9-0.9-1.2
	c-0.4-0.3-0.9-0.4-1.5-0.4c-0.6,0-1,0.1-1.4,0.3c-0.4,0.2-0.7,0.4-0.9,0.7c-0.2,0.3-0.4,0.7-0.5,1.2c-0.1,0.5-0.2,0.9-0.2,1.4v3.2
	c0,0.4,0.1,0.9,0.2,1.4c0.1,0.5,0.3,0.9,0.5,1.2s0.5,0.5,0.9,0.7c0.4,0.2,0.8,0.3,1.3,0.3s0.9-0.1,1.3-0.3c0.4-0.2,0.7-0.4,0.9-0.7
	s0.4-0.7,0.5-1.2c0.2-0.8,0.3-1.6,0.3-2.6s0-1.7-0.1-2.2C246.8,813.3,246.6,812.5,246.5,812L246.5,812z M252.6,821.9v-1.2
	c0.3-0.3,0.7-0.6,1.4-1.2c0.6-0.5,1.1-0.9,1.4-1.2s0.7-0.6,1.2-1.1s0.9-0.8,1.1-1.2c0.3-0.3,0.5-0.7,0.8-1.1
	c0.5-0.8,0.8-1.5,0.8-2.3s-0.2-1.4-0.6-1.8c-0.4-0.5-1-0.7-1.8-0.7c-0.8,0-1.5,0.3-1.9,0.8c-0.4,0.5-0.7,1.2-0.7,2h-1.6
	c0-1.3,0.5-2.4,1.2-3.1c0.8-0.7,1.8-1.1,3-1.1c1.2,0,2.2,0.3,2.9,1c0.7,0.7,1.1,1.6,1.1,2.8c0,1.4-0.7,2.9-2.1,4.4l-1.2,1.2
	c-0.8,0.7-1.6,1.5-2.5,2.2h6.1v1.4h-8.6L252.6,821.9L252.6,821.9z M332.5,821.9v-1.2c0.3-0.3,0.7-0.6,1.4-1.2
	c0.6-0.5,1.1-0.9,1.4-1.2s0.7-0.6,1.2-1.1s0.9-0.8,1.1-1.2c0.3-0.3,0.5-0.7,0.8-1.1c0.5-0.8,0.8-1.5,0.8-2.3s-0.2-1.4-0.6-1.8
	c-0.4-0.4-1-0.7-1.8-0.7c-0.8,0-1.5,0.3-1.9,0.8s-0.7,1.2-0.7,2h-1.6c0-1.3,0.5-2.4,1.2-3.1c0.8-0.7,1.8-1.1,3-1.1
	c1.2,0,2.2,0.3,2.9,1c0.7,0.7,1.1,1.6,1.1,2.8c0,1.4-0.7,2.9-2.1,4.4l-1.2,1.2c-0.8,0.7-1.6,1.5-2.5,2.2h6.1v1.4h-8.6L332.5,821.9
	L332.5,821.9z M346.3,810.2c0.3-0.4,0.8-0.7,1.3-0.9s1.2-0.3,2-0.3c0.8,0,1.5,0.2,2.1,0.5s1.1,0.8,1.4,1.4c0.6,1.2,0.9,2.7,0.9,4.6
	c0,2.5-0.4,4.3-1.3,5.3c-0.7,0.8-1.8,1.3-3.2,1.3c-2.6,0-4-1.5-4.4-4.5c-0.1-0.6-0.1-1.3-0.1-2.1s0-1.5,0.1-2.1s0.2-1.2,0.4-1.8
	C345.7,811,346,810.5,346.3,810.2z M351.9,812c-0.2-0.5-0.5-0.9-0.9-1.2s-0.9-0.4-1.5-0.4s-1,0.1-1.4,0.3s-0.7,0.4-0.9,0.7
	c-0.2,0.3-0.4,0.7-0.5,1.2s-0.2,0.9-0.2,1.4v3.2c0,0.4,0.1,0.9,0.2,1.4c0.1,0.5,0.3,0.9,0.5,1.2c0.2,0.3,0.5,0.5,0.9,0.7
	s0.8,0.3,1.3,0.3s0.9-0.1,1.3-0.3s0.7-0.4,0.9-0.7c0.2-0.3,0.4-0.7,0.5-1.2c0.2-0.8,0.3-1.6,0.3-2.6s0-1.7-0.1-2.2
	C352.2,813,352.1,812.5,351.9,812L351.9,812z M359.5,810.2c0.3-0.4,0.8-0.7,1.3-0.9s1.2-0.3,2-0.3c0.8,0,1.5,0.2,2.1,0.5
	s1.1,0.8,1.4,1.4c0.6,1.2,0.9,2.7,0.9,4.6c0,2.5-0.4,4.3-1.3,5.3c-0.7,0.8-1.8,1.3-3.2,1.3c-2.6,0-4-1.5-4.4-4.5
	c-0.1-0.6-0.1-1.3-0.1-2.1s0-1.5,0.1-2.1s0.2-1.2,0.4-1.8C358.9,811,359.2,810.5,359.5,810.2z M365.2,812c-0.2-0.5-0.5-0.9-0.9-1.2
	s-0.9-0.4-1.5-0.4s-1,0.1-1.4,0.3s-0.7,0.4-0.9,0.7c-0.2,0.3-0.4,0.7-0.5,1.2s-0.2,0.9-0.2,1.4v3.2c0,0.4,0.1,0.9,0.2,1.4
	c0.1,0.5,0.3,0.9,0.5,1.2c0.2,0.3,0.5,0.5,0.9,0.7s0.8,0.3,1.3,0.3s0.9-0.1,1.3-0.3s0.7-0.4,0.9-0.7c0.2-0.3,0.4-0.7,0.5-1.2
	c0.2-0.8,0.3-1.6,0.3-2.6s0-1.7-0.1-2.2C365.5,813,365.3,812.5,365.2,812L365.2,812z M372.6,809.5c0.8-0.6,1.8-0.9,3-0.9
	c1.2,0,2.2,0.3,2.9,1c0.7,0.6,1.1,1.4,1.1,2.4c0,0.7-0.2,1.3-0.6,1.9c-0.4,0.6-0.9,0.9-1.5,1.1v0.1c0.7,0.2,1.3,0.6,1.7,1.2
	c0.4,0.6,0.6,1.4,0.6,2.4s-0.4,1.8-1.1,2.5c-0.7,0.7-1.7,1-3,1c-1.3,0-2.3-0.3-3.1-1c-0.8-0.6-1.3-1.6-1.4-2.8h1.5
	c0.1,0.7,0.3,1.2,0.9,1.7c0.5,0.4,1.2,0.7,2,0.7c0.8,0,1.5-0.2,1.9-0.7c0.5-0.5,0.7-1,0.7-1.7c0-0.9-0.3-1.6-0.9-2
	c-0.6-0.4-1.5-0.6-2.8-0.6h-0.4v-1.4h0.4c2.3,0,3.4-0.8,3.4-2.2c0-0.7-0.2-1.2-0.6-1.6c-0.4-0.4-1-0.6-1.8-0.6
	c-0.8,0-1.4,0.2-1.8,0.5c-0.4,0.4-0.7,0.8-0.8,1.4h-1.6C371.4,811,371.9,810.1,372.6,809.5L372.6,809.5z M450.9,821.9v-1.2
	c0.3-0.3,0.7-0.6,1.4-1.2c0.6-0.5,1.1-0.9,1.4-1.2s0.7-0.6,1.2-1.1s0.9-0.8,1.1-1.2c0.3-0.3,0.5-0.7,0.8-1.1
	c0.5-0.8,0.8-1.5,0.8-2.3s-0.2-1.4-0.6-1.8s-1-0.7-1.8-0.7s-1.5,0.3-1.9,0.8s-0.7,1.2-0.7,2H451c0-1.3,0.5-2.4,1.2-3.1
	c0.8-0.7,1.8-1.1,3-1.1s2.2,0.3,2.9,1c0.7,0.7,1.1,1.6,1.1,2.8c0,1.4-0.7,2.9-2.1,4.4l-1.2,1.2c-0.8,0.7-1.6,1.5-2.5,2.2h6.1v1.4
	h-8.6V821.9L450.9,821.9z M464.7,810.2c0.3-0.4,0.8-0.7,1.3-0.9s1.2-0.3,2-0.3s1.5,0.2,2.1,0.5s1.1,0.8,1.4,1.4
	c0.6,1.2,0.9,2.7,0.9,4.6c0,2.5-0.4,4.3-1.3,5.3c-0.7,0.8-1.8,1.3-3.2,1.3c-2.6,0-4-1.5-4.4-4.5c-0.1-0.6-0.1-1.3-0.1-2.1
	s0-1.5,0.1-2.1s0.2-1.2,0.4-1.8C464.1,811,464.3,810.5,464.7,810.2L464.7,810.2z M470.3,812c-0.2-0.5-0.5-0.9-0.9-1.2
	s-0.9-0.4-1.5-0.4s-1,0.1-1.4,0.3s-0.7,0.4-0.9,0.7s-0.4,0.7-0.5,1.2s-0.2,0.9-0.2,1.4v3.2c0,0.4,0.1,0.9,0.2,1.4s0.3,0.9,0.5,1.2
	s0.5,0.5,0.9,0.7s0.8,0.3,1.3,0.3s0.9-0.1,1.3-0.3s0.7-0.4,0.9-0.7s0.4-0.7,0.5-1.2c0.2-0.8,0.3-1.6,0.3-2.6s0-1.7-0.1-2.2
	C470.6,813,470.5,812.5,470.3,812L470.3,812z M477.9,810.2c0.3-0.4,0.8-0.7,1.3-0.9s1.2-0.3,2-0.3s1.5,0.2,2.1,0.5s1.1,0.8,1.4,1.4
	c0.6,1.2,0.9,2.7,0.9,4.6c0,2.5-0.4,4.3-1.3,5.3c-0.7,0.8-1.8,1.3-3.2,1.3c-2.6,0-4-1.5-4.4-4.5c-0.1-0.6-0.1-1.3-0.1-2.1
	s0-1.5,0.1-2.1s0.2-1.2,0.4-1.8C477.3,811,477.6,810.5,477.9,810.2L477.9,810.2z M483.5,812c-0.2-0.5-0.5-0.9-0.9-1.2
	s-0.9-0.4-1.5-0.4s-1,0.1-1.4,0.3s-0.7,0.4-0.9,0.7s-0.4,0.7-0.5,1.2s-0.2,0.9-0.2,1.4v3.2c0,0.4,0.1,0.9,0.2,1.4s0.3,0.9,0.5,1.2
	s0.5,0.5,0.9,0.7s0.8,0.3,1.3,0.3s0.9-0.1,1.3-0.3s0.7-0.4,0.9-0.7s0.4-0.7,0.5-1.2c0.2-0.8,0.3-1.6,0.3-2.6s0-1.7-0.1-2.2
	C483.9,813,483.7,812.5,483.5,812L483.5,812z M496.1,822.1v-2.9h-6.7V818l6.2-8.9h2.1v8.6h1.7v1.4h-1.7v2.9h-1.6V822.1L496.1,822.1z
	 M496.2,817.8v-7.1l-4.8,7.1H496.2z M569.7,821.9v-1.2c0.3-0.3,0.7-0.6,1.4-1.2c0.6-0.5,1.1-0.9,1.4-1.2s0.7-0.6,1.2-1.1
	s0.9-0.8,1.1-1.2c0.3-0.3,0.5-0.7,0.8-1.1c0.5-0.8,0.8-1.5,0.8-2.3s-0.2-1.4-0.6-1.8c-0.4-0.4-1-0.7-1.8-0.7s-1.5,0.3-1.9,0.8
	c-0.4,0.5-0.7,1.2-0.7,2h-1.6c0-1.3,0.5-2.4,1.2-3.1c0.8-0.7,1.8-1.1,3-1.1s2.2,0.3,2.9,1c0.7,0.7,1.1,1.6,1.1,2.8
	c0,1.4-0.7,2.9-2.1,4.4l-1.2,1.2c-0.8,0.7-1.6,1.5-2.5,2.2h6.1v1.4h-8.6L569.7,821.9L569.7,821.9z M583.5,810.2
	c0.3-0.4,0.8-0.7,1.3-0.9s1.2-0.3,2-0.3s1.5,0.2,2.1,0.5c0.6,0.3,1.1,0.8,1.4,1.4c0.6,1.2,0.9,2.7,0.9,4.6c0,2.5-0.4,4.3-1.3,5.3
	c-0.7,0.8-1.8,1.3-3.2,1.3c-2.6,0-4-1.5-4.4-4.5c-0.1-0.6-0.1-1.3-0.1-2.1s0-1.5,0.1-2.1c0.1-0.6,0.2-1.2,0.4-1.8
	C582.9,811,583.1,810.5,583.5,810.2L583.5,810.2z M589.1,812c-0.2-0.5-0.5-0.9-0.9-1.2c-0.4-0.3-0.9-0.4-1.5-0.4
	c-0.6,0-1,0.1-1.4,0.3c-0.4,0.2-0.7,0.4-0.9,0.7c-0.2,0.3-0.4,0.7-0.5,1.2c-0.1,0.5-0.2,0.9-0.2,1.4v3.2c0,0.4,0.1,0.9,0.2,1.4
	c0.1,0.5,0.3,0.9,0.5,1.2s0.5,0.5,0.9,0.7c0.4,0.2,0.8,0.3,1.3,0.3s0.9-0.1,1.3-0.3c0.4-0.2,0.7-0.4,0.9-0.7
	c0.2-0.3,0.4-0.7,0.5-1.2c0.2-0.8,0.3-1.6,0.3-2.6s0-1.7-0.1-2.2C589.4,813,589.3,812.5,589.1,812L589.1,812z M596.7,810.2
	c0.3-0.4,0.8-0.7,1.3-0.9s1.2-0.3,2-0.3s1.5,0.2,2.1,0.5c0.6,0.3,1.1,0.8,1.4,1.4c0.6,1.2,0.9,2.7,0.9,4.6c0,2.5-0.4,4.3-1.3,5.3
	c-0.7,0.8-1.8,1.3-3.2,1.3c-2.6,0-4-1.5-4.4-4.5c-0.1-0.6-0.1-1.3-0.1-2.1s0-1.5,0.1-2.1c0.1-0.6,0.2-1.2,0.4-1.8
	C596.1,811,596.4,810.5,596.7,810.2L596.7,810.2z M602.3,812c-0.2-0.5-0.5-0.9-0.9-1.2c-0.4-0.3-0.9-0.4-1.5-0.4
	c-0.6,0-1,0.1-1.4,0.3c-0.4,0.2-0.7,0.4-0.9,0.7c-0.2,0.3-0.4,0.7-0.5,1.2c-0.1,0.5-0.2,0.9-0.2,1.4v3.2c0,0.4,0.1,0.9,0.2,1.4
	c0.1,0.5,0.3,0.9,0.5,1.2s0.5,0.5,0.9,0.7c0.4,0.2,0.8,0.3,1.3,0.3s0.9-0.1,1.3-0.3c0.4-0.2,0.7-0.4,0.9-0.7
	c0.2-0.3,0.4-0.7,0.5-1.2c0.2-0.8,0.3-1.6,0.3-2.6s0-1.7-0.1-2.2C602.6,813,602.5,812.5,602.3,812L602.3,812z M609,808.9h7.8v1.4
	h-6.3v4.1c0.3-0.4,0.7-0.7,1.2-1s1.2-0.4,1.8-0.4c0.7,0,1.3,0.1,1.9,0.4c0.6,0.3,1,0.6,1.3,1.1c0.6,0.9,0.9,1.8,0.9,3
	c0,1.4-0.4,2.5-1.1,3.3c-0.8,0.9-1.8,1.3-3.2,1.3s-2.4-0.3-3.2-1c-0.8-0.6-1.3-1.5-1.4-2.5h1.6c0.2,0.6,0.5,1.2,1,1.5
	c0.5,0.4,1.2,0.6,2.1,0.6c0.9,0,1.5-0.3,2-0.9s0.7-1.3,0.7-2.3s-0.2-1.7-0.7-2.2s-1.2-0.8-2.2-0.8c-0.6,0-1.2,0.2-1.7,0.5
	s-0.8,0.8-1,1.4H609V808.9z"/>
<g>
	<path class="st2" d="M688.4,821.9v-1.2c0.3-0.3,0.7-0.6,1.4-1.2c0.6-0.5,1.1-0.9,1.4-1.2c0.3-0.3,0.7-0.6,1.2-1.1s0.9-0.8,1.1-1.2
		c0.3-0.3,0.5-0.7,0.8-1.1c0.5-0.8,0.8-1.5,0.8-2.3s-0.2-1.4-0.6-1.8s-1-0.7-1.8-0.7s-1.5,0.3-1.9,0.8s-0.7,1.2-0.7,2h-1.6
		c0-1.3,0.5-2.4,1.2-3.1c0.8-0.7,1.8-1.1,3-1.1s2.2,0.3,2.9,1s1.1,1.6,1.1,2.8c0,1.4-0.7,2.9-2.1,4.4l-1.2,1.2
		c-0.8,0.7-1.6,1.5-2.5,2.2h6.1v1.4h-8.6L688.4,821.9L688.4,821.9z M702.2,810.2c0.3-0.4,0.8-0.7,1.3-0.9s1.2-0.3,2-0.3
		s1.5,0.2,2.1,0.5s1.1,0.8,1.4,1.4c0.6,1.2,0.9,2.7,0.9,4.6c0,2.5-0.4,4.3-1.3,5.3c-0.7,0.8-1.8,1.3-3.2,1.3c-2.6,0-4-1.5-4.4-4.5
		c-0.1-0.6-0.1-1.3-0.1-2.1s0-1.5,0.1-2.1s0.2-1.2,0.4-1.8S701.8,810.5,702.2,810.2z M707.8,812c-0.2-0.5-0.5-0.9-0.9-1.2
		s-0.9-0.4-1.5-0.4s-1,0.1-1.4,0.3s-0.7,0.4-0.9,0.7s-0.4,0.7-0.5,1.2s-0.2,0.9-0.2,1.4v3.2c0,0.4,0.1,0.9,0.2,1.4
		c0.1,0.5,0.3,0.9,0.5,1.2s0.5,0.5,0.9,0.7s0.8,0.3,1.3,0.3s0.9-0.1,1.3-0.3c0.4-0.2,0.7-0.4,0.9-0.7s0.4-0.7,0.5-1.2
		c0.2-0.8,0.3-1.6,0.3-2.6s0-1.7-0.1-2.2C708.1,813,708,812.5,707.8,812L707.8,812z M715.4,810.2c0.3-0.4,0.8-0.7,1.3-0.9
		s1.2-0.3,2-0.3s1.5,0.2,2.1,0.5s1.1,0.8,1.4,1.4c0.6,1.2,0.9,2.7,0.9,4.6c0,2.5-0.4,4.3-1.3,5.3c-0.7,0.8-1.8,1.3-3.2,1.3
		c-2.6,0-4-1.5-4.4-4.5c-0.1-0.6-0.1-1.3-0.1-2.1s0-1.5,0.1-2.1s0.2-1.2,0.4-1.8S715.1,810.5,715.4,810.2z M721,812
		c-0.2-0.5-0.5-0.9-0.9-1.2s-0.9-0.4-1.5-0.4s-1,0.1-1.4,0.3s-0.7,0.4-0.9,0.7s-0.4,0.7-0.5,1.2s-0.2,0.9-0.2,1.4v3.2
		c0,0.4,0.1,0.9,0.2,1.4c0.1,0.5,0.3,0.9,0.5,1.2s0.5,0.5,0.9,0.7s0.8,0.3,1.3,0.3s0.9-0.1,1.3-0.3c0.4-0.2,0.7-0.4,0.9-0.7
		s0.4-0.7,0.5-1.2c0.2-0.8,0.3-1.6,0.3-2.6s0-1.7-0.1-2.2C721.3,813,721.2,812.5,721,812L721,812z M732.1,810
		c-1.1,0-1.9,0.4-2.4,1.2s-0.8,2.1-0.8,4c0.3-0.6,0.8-1,1.4-1.4c0.6-0.3,1.3-0.5,2.1-0.5c1.2,0,2.2,0.4,2.9,1.2s1.1,1.8,1.1,3.1
		s-0.4,2.4-1.1,3.2c-0.7,0.8-1.8,1.2-3.2,1.2c-2.2,0-3.6-0.9-4.2-2.8c-0.3-1-0.5-2.5-0.5-4.4s0.4-3.4,1.1-4.6
		c0.7-1.1,1.9-1.7,3.5-1.7c1.2,0,2.1,0.3,2.7,0.9c0.7,0.6,1.1,1.4,1.2,2.3h-1.5c-0.2-0.6-0.4-1.1-0.8-1.4
		C733.4,810.2,732.9,810,732.1,810z M735,817.7c0-0.9-0.2-1.6-0.7-2.2s-1.1-0.8-2-0.8s-1.6,0.2-2.2,0.7c-0.6,0.5-0.9,1.2-0.9,2.1
		c0,0.9,0.3,1.7,0.8,2.2s1.2,0.8,2.2,0.8c0.9,0,1.6-0.3,2.1-0.8C734.7,819.4,735,818.7,735,817.7L735,817.7z"/>
</g>
<g>
	<path class="st2" d="M807.9,821.9v-1.2c0.3-0.3,0.7-0.6,1.4-1.2c0.6-0.5,1.1-0.9,1.4-1.2c0.3-0.3,0.7-0.6,1.2-1.1s0.9-0.8,1.1-1.2
		c0.3-0.3,0.5-0.7,0.8-1.1c0.5-0.8,0.8-1.5,0.8-2.3s-0.2-1.4-0.6-1.8s-1-0.7-1.8-0.7s-1.5,0.3-1.9,0.8s-0.7,1.2-0.7,2H808
		c0-1.3,0.5-2.4,1.2-3.1c0.8-0.7,1.8-1.1,3-1.1s2.2,0.3,2.9,1s1.1,1.6,1.1,2.8c0,1.4-0.7,2.9-2.1,4.4l-1.2,1.2
		c-0.8,0.7-1.6,1.5-2.5,2.2h6.1v1.4h-8.6V821.9L807.9,821.9z M821.7,810.2c0.3-0.4,0.8-0.7,1.3-0.9s1.2-0.3,2-0.3s1.5,0.2,2.1,0.5
		s1.1,0.8,1.4,1.4c0.6,1.2,0.9,2.7,0.9,4.6c0,2.5-0.4,4.3-1.3,5.3c-0.7,0.8-1.8,1.3-3.2,1.3c-2.6,0-4-1.5-4.4-4.5
		c-0.1-0.6-0.1-1.3-0.1-2.1s0-1.5,0.1-2.1s0.2-1.2,0.4-1.8S821.4,810.5,821.7,810.2z M827.3,812c-0.2-0.5-0.5-0.9-0.9-1.2
		s-0.9-0.4-1.5-0.4s-1,0.1-1.4,0.3s-0.7,0.4-0.9,0.7s-0.4,0.7-0.5,1.2s-0.2,0.9-0.2,1.4v3.2c0,0.4,0.1,0.9,0.2,1.4
		c0.1,0.5,0.3,0.9,0.5,1.2s0.5,0.5,0.9,0.7s0.8,0.3,1.3,0.3s0.9-0.1,1.3-0.3c0.4-0.2,0.7-0.4,0.9-0.7s0.4-0.7,0.5-1.2
		c0.2-0.8,0.3-1.6,0.3-2.6s0-1.7-0.1-2.2C827.6,813,827.5,812.5,827.3,812L827.3,812z M835,810.2c0.3-0.4,0.8-0.7,1.3-0.9
		s1.2-0.3,2-0.3s1.5,0.2,2.1,0.5s1.1,0.8,1.4,1.4c0.6,1.2,0.9,2.7,0.9,4.6c0,2.5-0.4,4.3-1.3,5.3c-0.7,0.8-1.8,1.3-3.2,1.3
		c-2.6,0-4-1.5-4.4-4.5c-0.1-0.6-0.1-1.3-0.1-2.1s0-1.5,0.1-2.1s0.2-1.2,0.4-1.8S834.6,810.5,835,810.2z M840.6,812
		c-0.2-0.5-0.5-0.9-0.9-1.2s-0.9-0.4-1.5-0.4s-1,0.1-1.4,0.3s-0.7,0.4-0.9,0.7s-0.4,0.7-0.5,1.2s-0.2,0.9-0.2,1.4v3.2
		c0,0.4,0.1,0.9,0.2,1.4c0.1,0.5,0.3,0.9,0.5,1.2s0.5,0.5,0.9,0.7s0.8,0.3,1.3,0.3s0.9-0.1,1.3-0.3c0.4-0.2,0.7-0.4,0.9-0.7
		s0.4-0.7,0.5-1.2c0.2-0.8,0.3-1.6,0.3-2.6s0-1.7-0.1-2.2C840.9,813,840.8,812.5,840.6,812L840.6,812z M846.4,809h8.7v1.2l-5.1,11.9
		h-1.8l5.4-11.7h-7.1V809H846.4L846.4,809z"/>
</g>
<g>
	<path class="st2" d="M926.1,821.9v-1.2c0.3-0.3,0.7-0.6,1.4-1.2c0.6-0.5,1.1-0.9,1.4-1.2c0.3-0.3,0.7-0.6,1.2-1.1s0.9-0.8,1.1-1.2
		c0.3-0.3,0.5-0.7,0.8-1.1c0.5-0.8,0.8-1.5,0.8-2.3s-0.2-1.4-0.6-1.8s-1-0.7-1.8-0.7s-1.5,0.3-1.9,0.8s-0.7,1.2-0.7,2h-1.6
		c0-1.3,0.5-2.4,1.2-3.1c0.8-0.7,1.8-1.1,3-1.1s2.2,0.3,2.9,1s1.1,1.6,1.1,2.8c0,1.4-0.7,2.9-2.1,4.4l-1.2,1.2
		c-0.8,0.7-1.6,1.5-2.5,2.2h6.1v1.4h-8.6L926.1,821.9L926.1,821.9z M939.8,810.2c0.3-0.4,0.8-0.7,1.3-0.9s1.2-0.3,2-0.3
		s1.5,0.2,2.1,0.5s1.1,0.8,1.4,1.4c0.6,1.2,0.9,2.7,0.9,4.6c0,2.5-0.4,4.3-1.3,5.3c-0.7,0.8-1.8,1.3-3.2,1.3c-2.6,0-4-1.5-4.4-4.5
		c-0.1-0.6-0.1-1.3-0.1-2.1s0-1.5,0.1-2.1s0.2-1.2,0.4-1.8S939.5,810.5,939.8,810.2z M945.4,812c-0.2-0.5-0.5-0.9-0.9-1.2
		s-0.9-0.4-1.5-0.4s-1,0.1-1.4,0.3s-0.7,0.4-0.9,0.7s-0.4,0.7-0.5,1.2s-0.2,0.9-0.2,1.4v3.2c0,0.4,0.1,0.9,0.2,1.4
		c0.1,0.5,0.3,0.9,0.5,1.2s0.5,0.5,0.9,0.7s0.8,0.3,1.3,0.3s0.9-0.1,1.3-0.3c0.4-0.2,0.7-0.4,0.9-0.7s0.4-0.7,0.5-1.2
		c0.2-0.8,0.3-1.6,0.3-2.6s0-1.7-0.1-2.2C945.7,813,945.6,812.5,945.4,812L945.4,812z M953.1,810.2c0.3-0.4,0.8-0.7,1.3-0.9
		s1.2-0.3,2-0.3s1.5,0.2,2.1,0.5s1.1,0.8,1.4,1.4c0.6,1.2,0.9,2.7,0.9,4.6c0,2.5-0.4,4.3-1.3,5.3c-0.7,0.8-1.8,1.3-3.2,1.3
		c-2.6,0-4-1.5-4.4-4.5c-0.1-0.6-0.1-1.3-0.1-2.1s0-1.5,0.1-2.1s0.2-1.2,0.4-1.8S952.7,810.5,953.1,810.2z M958.7,812
		c-0.2-0.5-0.5-0.9-0.9-1.2s-0.9-0.4-1.5-0.4s-1,0.1-1.4,0.3s-0.7,0.4-0.9,0.7s-0.4,0.7-0.5,1.2s-0.2,0.9-0.2,1.4v3.2
		c0,0.4,0.1,0.9,0.2,1.4c0.1,0.5,0.3,0.9,0.5,1.2s0.5,0.5,0.9,0.7s0.8,0.3,1.3,0.3s0.9-0.1,1.3-0.3c0.4-0.2,0.7-0.4,0.9-0.7
		s0.4-0.7,0.5-1.2c0.2-0.8,0.3-1.6,0.3-2.6s0-1.7-0.1-2.2C959,813,958.9,812.5,958.7,812L958.7,812z M965.2,812.1
		c0-1,0.4-1.9,1.1-2.5s1.8-1,3.1-1c1.4,0,2.4,0.3,3.1,1c0.7,0.7,1.1,1.5,1.1,2.5c0,0.7-0.2,1.3-0.5,1.8c-0.4,0.5-0.8,0.9-1.4,1.2
		c0.7,0.2,1.2,0.6,1.7,1.2c0.4,0.6,0.6,1.3,0.6,2.1c0,1.2-0.4,2.2-1.3,2.9c-0.8,0.7-1.9,1.1-3.3,1.1s-2.5-0.4-3.3-1.1
		c-0.8-0.7-1.3-1.7-1.3-2.9c0-0.8,0.2-1.5,0.6-2.1c0.4-0.6,1-1,1.7-1.2C965.9,814.5,965.2,813.4,965.2,812.1L965.2,812.1z
		 M972.5,818.4c0-0.8-0.3-1.5-0.8-1.9c-0.6-0.4-1.3-0.7-2.2-0.7s-1.6,0.2-2.2,0.7c-0.6,0.4-0.8,1.1-0.8,1.9s0.3,1.5,0.8,2
		s1.3,0.7,2.2,0.7s1.7-0.2,2.2-0.7S972.5,819.2,972.5,818.4z M972.2,812.2c0-0.7-0.2-1.2-0.7-1.6s-1.1-0.6-2-0.6s-1.5,0.2-2,0.6
		c-0.5,0.4-0.7,1-0.7,1.6c0,0.7,0.2,1.3,0.7,1.7s1.1,0.6,1.9,0.6s1.4-0.2,1.9-0.6C971.9,813.4,972.2,812.9,972.2,812.2L972.2,812.2z
		"/>
</g>
<g>
	<path class="st2" d="M1044.8,821.9v-1.2c0.3-0.3,0.7-0.6,1.4-1.2c0.6-0.5,1.1-0.9,1.4-1.2s0.7-0.6,1.2-1.1s0.9-0.8,1.1-1.2
		c0.3-0.3,0.5-0.7,0.8-1.1c0.5-0.8,0.8-1.5,0.8-2.3s-0.2-1.4-0.6-1.8c-0.4-0.4-1-0.7-1.8-0.7c-0.8,0-1.5,0.3-1.9,0.8s-0.7,1.2-0.7,2
		h-1.6c0-1.3,0.5-2.4,1.2-3.1c0.8-0.7,1.8-1.1,3-1.1c1.2,0,2.2,0.3,2.9,1c0.7,0.7,1.1,1.6,1.1,2.8c0,1.4-0.7,2.9-2.1,4.4l-1.2,1.2
		c-0.8,0.7-1.6,1.5-2.5,2.2h6.1v1.4h-8.6L1044.8,821.9L1044.8,821.9z M1058.6,810.2c0.3-0.4,0.8-0.7,1.3-0.9s1.2-0.3,2-0.3
		c0.8,0,1.5,0.2,2.1,0.5s1.1,0.8,1.4,1.4c0.6,1.2,0.9,2.7,0.9,4.6c0,2.5-0.4,4.3-1.3,5.3c-0.7,0.8-1.8,1.3-3.2,1.3
		c-2.6,0-4-1.5-4.4-4.5c-0.1-0.6-0.1-1.3-0.1-2.1s0-1.5,0.1-2.1s0.2-1.2,0.4-1.8C1058,811,1058.3,810.5,1058.6,810.2z M1064.2,812
		c-0.2-0.5-0.5-0.9-0.9-1.2s-0.9-0.4-1.5-0.4s-1,0.1-1.4,0.3s-0.7,0.4-0.9,0.7c-0.2,0.3-0.4,0.7-0.5,1.2s-0.2,0.9-0.2,1.4v3.2
		c0,0.4,0.1,0.9,0.2,1.4c0.1,0.5,0.3,0.9,0.5,1.2c0.2,0.3,0.5,0.5,0.9,0.7s0.8,0.3,1.3,0.3s0.9-0.1,1.3-0.3s0.7-0.4,0.9-0.7
		c0.2-0.3,0.4-0.7,0.5-1.2c0.2-0.8,0.3-1.6,0.3-2.6s0-1.7-0.1-2.2C1064.5,813,1064.4,812.5,1064.2,812L1064.2,812z M1071.9,810.2
		c0.3-0.4,0.8-0.7,1.3-0.9s1.2-0.3,2-0.3c0.8,0,1.5,0.2,2.1,0.5s1.1,0.8,1.4,1.4c0.6,1.2,0.9,2.7,0.9,4.6c0,2.5-0.4,4.3-1.3,5.3
		c-0.7,0.8-1.8,1.3-3.2,1.3c-2.6,0-4-1.5-4.4-4.5c-0.1-0.6-0.1-1.3-0.1-2.1s0-1.5,0.1-2.1s0.2-1.2,0.4-1.8
		C1071.3,811,1071.5,810.5,1071.9,810.2z M1077.5,812c-0.2-0.5-0.5-0.9-0.9-1.2s-0.9-0.4-1.5-0.4s-1,0.1-1.4,0.3s-0.7,0.4-0.9,0.7
		c-0.2,0.3-0.4,0.7-0.5,1.2s-0.2,0.9-0.2,1.4v3.2c0,0.4,0.1,0.9,0.2,1.4c0.1,0.5,0.3,0.9,0.5,1.2c0.2,0.3,0.5,0.5,0.9,0.7
		s0.8,0.3,1.3,0.3s0.9-0.1,1.3-0.3s0.7-0.4,0.9-0.7c0.2-0.3,0.4-0.7,0.5-1.2c0.2-0.8,0.3-1.6,0.3-2.6s0-1.7-0.1-2.2
		C1077.8,813,1077.7,812.5,1077.5,812L1077.5,812z M1088.6,820.7c1,0,1.7-0.4,2.1-1.1c0.4-0.7,0.7-2,0.7-3.9
		c-0.3,0.5-0.7,0.8-1.3,1.1s-1.2,0.4-1.8,0.4c-1.2,0-2.2-0.4-3-1.1c-0.8-0.7-1.2-1.8-1.2-3.1s0.4-2.4,1.1-3.1s1.8-1.2,3.2-1.2
		c1.6,0,2.7,0.5,3.4,1.6c0.7,1.1,1,2.8,1,5.1s-0.3,4-0.9,5.1c-0.6,1.1-1.7,1.7-3.3,1.7c-1.2,0-2.2-0.3-2.8-1
		c-0.7-0.6-1.1-1.4-1.2-2.4h1.5C1086.2,820,1087.1,820.7,1088.6,820.7z M1085.6,812.9c0,0.9,0.2,1.6,0.7,2.1s1.2,0.8,2.1,0.8
		c0.9,0,1.6-0.3,2-0.8s0.7-1.2,0.7-2.1c0-0.9-0.2-1.6-0.7-2.1s-1.2-0.8-2-0.8c-0.8,0-1.5,0.3-2,0.8
		C1085.8,811.3,1085.6,812,1085.6,812.9z"/>
</g>
<g>
	<path class="st2" d="M1166.5,821.9v-1.2c0.3-0.3,0.7-0.6,1.4-1.2c0.6-0.5,1.1-0.9,1.4-1.2c0.3-0.3,0.7-0.6,1.2-1.1s0.9-0.8,1.1-1.2
		c0.3-0.3,0.5-0.7,0.8-1.1c0.5-0.8,0.8-1.5,0.8-2.3s-0.2-1.4-0.6-1.8c-0.4-0.5-1-0.7-1.8-0.7c-0.8,0-1.5,0.3-1.9,0.8s-0.7,1.2-0.7,2
		h-1.6c0-1.3,0.5-2.4,1.2-3.1c0.8-0.7,1.8-1.1,3-1.1c1.2,0,2.2,0.3,2.9,1c0.7,0.7,1.1,1.6,1.1,2.8c0,1.4-0.7,2.9-2.1,4.4l-1.2,1.2
		c-0.8,0.7-1.6,1.5-2.5,2.2h6.1v1.4h-8.6V821.9L1166.5,821.9z M1180.2,810.2c0.3-0.4,0.8-0.7,1.3-0.9s1.2-0.3,2-0.3
		c0.8,0,1.5,0.2,2.1,0.5s1.1,0.8,1.4,1.4c0.6,1.2,0.9,2.7,0.9,4.6c0,2.5-0.4,4.3-1.3,5.3c-0.7,0.8-1.8,1.3-3.2,1.3
		c-2.6,0-4-1.5-4.4-4.5c-0.1-0.6-0.1-1.3-0.1-2.1s0-1.5,0.1-2.1s0.2-1.2,0.4-1.8C1179.6,811,1179.9,810.5,1180.2,810.2z M1185.8,812
		c-0.2-0.5-0.5-0.9-0.9-1.2s-0.9-0.4-1.5-0.4s-1,0.1-1.4,0.3s-0.7,0.4-0.9,0.7c-0.2,0.3-0.4,0.7-0.5,1.2s-0.2,0.9-0.2,1.4v3.2
		c0,0.4,0.1,0.9,0.2,1.4s0.3,0.9,0.5,1.2c0.2,0.3,0.5,0.5,0.9,0.7s0.8,0.3,1.3,0.3s0.9-0.1,1.3-0.3c0.4-0.2,0.7-0.4,0.9-0.7
		c0.2-0.3,0.4-0.7,0.5-1.2c0.2-0.8,0.3-1.6,0.3-2.6s0-1.7-0.1-2.2C1186.1,813,1186,812.5,1185.8,812L1185.8,812z M1193.3,822.1
		v-11.3h-1.5v-1.5h3.1v12.8H1193.3z M1201,810.2c0.3-0.4,0.8-0.7,1.3-0.9s1.2-0.3,2-0.3s1.5,0.2,2.1,0.5s1.1,0.8,1.4,1.4
		c0.6,1.2,0.9,2.7,0.9,4.6c0,2.5-0.4,4.3-1.3,5.3c-0.7,0.8-1.8,1.3-3.2,1.3c-2.6,0-4-1.5-4.4-4.5c-0.1-0.6-0.1-1.3-0.1-2.1
		s0-1.5,0.1-2.1s0.2-1.2,0.4-1.8C1200.4,811,1200.7,810.5,1201,810.2L1201,810.2z M1206.7,812c-0.2-0.5-0.5-0.9-0.9-1.2
		s-0.9-0.4-1.5-0.4s-1,0.1-1.4,0.3s-0.7,0.4-0.9,0.7c-0.2,0.3-0.4,0.7-0.5,1.2s-0.2,0.9-0.2,1.4v3.2c0,0.4,0.1,0.9,0.2,1.4
		s0.3,0.9,0.5,1.2s0.5,0.5,0.9,0.7s0.8,0.3,1.3,0.3s0.9-0.1,1.3-0.3s0.7-0.4,0.9-0.7c0.2-0.3,0.4-0.7,0.5-1.2
		c0.2-0.8,0.3-1.6,0.3-2.6s0-1.7-0.1-2.2C1207,813,1206.9,812.5,1206.7,812L1206.7,812z"/>
</g>
<g>
	<path class="st2" d="M1288.1,821.9v-1.2c0.3-0.3,0.7-0.6,1.4-1.2c0.6-0.5,1.1-0.9,1.4-1.2s0.7-0.6,1.2-1.1s0.9-0.8,1.1-1.2
		c0.3-0.3,0.5-0.7,0.8-1.1c0.5-0.8,0.8-1.5,0.8-2.3s-0.2-1.4-0.6-1.8c-0.4-0.5-1-0.7-1.8-0.7s-1.5,0.3-1.9,0.8s-0.7,1.2-0.7,2h-1.6
		c0-1.3,0.5-2.4,1.2-3.1c0.8-0.7,1.8-1.1,3-1.1s2.2,0.3,2.9,1c0.7,0.7,1.1,1.6,1.1,2.8c0,1.4-0.7,2.9-2.1,4.4l-1.2,1.2
		c-0.8,0.7-1.6,1.5-2.5,2.2h6.1v1.4h-8.6L1288.1,821.9L1288.1,821.9z M1301.8,810.2c0.3-0.4,0.8-0.7,1.3-0.9s1.2-0.3,2-0.3
		s1.5,0.2,2.1,0.5s1.1,0.8,1.4,1.4c0.6,1.2,0.9,2.7,0.9,4.6c0,2.5-0.4,4.3-1.3,5.3c-0.7,0.8-1.8,1.3-3.2,1.3c-2.6,0-4-1.5-4.4-4.5
		c-0.1-0.6-0.1-1.3-0.1-2.1s0-1.5,0.1-2.1s0.2-1.2,0.4-1.8C1301.2,811,1301.5,810.5,1301.8,810.2L1301.8,810.2z M1307.5,812
		c-0.2-0.5-0.5-0.9-0.9-1.2s-0.9-0.4-1.5-0.4s-1,0.1-1.4,0.3s-0.7,0.4-0.9,0.7c-0.2,0.3-0.4,0.7-0.5,1.2s-0.2,0.9-0.2,1.4v3.2
		c0,0.4,0.1,0.9,0.2,1.4s0.3,0.9,0.5,1.2s0.5,0.5,0.9,0.7s0.8,0.3,1.3,0.3s0.9-0.1,1.3-0.3s0.7-0.4,0.9-0.7c0.2-0.3,0.4-0.7,0.5-1.2
		c0.2-0.8,0.3-1.6,0.3-2.6s0-1.7-0.1-2.2C1307.8,813,1307.6,812.5,1307.5,812L1307.5,812z M1315,822.1v-11.3h-1.5v-1.5h3.1v12.8
		H1315z M1322.5,822.1v-11.3h-1.5v-1.5h3.1v12.8H1322.5z"/>
</g>
<g>
	<path class="st2" d="M1404.5,821.9v-1.2c0.3-0.3,0.7-0.6,1.4-1.2c0.6-0.5,1.1-0.9,1.4-1.2s0.7-0.6,1.2-1.1s0.9-0.8,1.1-1.2
		c0.3-0.3,0.5-0.7,0.8-1.1c0.5-0.8,0.8-1.5,0.8-2.3s-0.2-1.4-0.6-1.8c-0.4-0.5-1-0.7-1.8-0.7s-1.5,0.3-1.9,0.8s-0.7,1.2-0.7,2h-1.6
		c0-1.3,0.5-2.4,1.2-3.1c0.8-0.7,1.8-1.1,3-1.1s2.2,0.3,2.9,1c0.7,0.7,1.1,1.6,1.1,2.8c0,1.4-0.7,2.9-2.1,4.4l-1.2,1.2
		c-0.8,0.7-1.6,1.5-2.5,2.2h6.1v1.4h-8.6L1404.5,821.9L1404.5,821.9z M1418.3,810.2c0.3-0.4,0.8-0.7,1.3-0.9s1.2-0.3,2-0.3
		s1.5,0.2,2.1,0.5s1.1,0.8,1.4,1.4c0.6,1.2,0.9,2.7,0.9,4.6c0,2.5-0.4,4.3-1.3,5.3c-0.7,0.8-1.8,1.3-3.2,1.3c-2.6,0-4-1.5-4.4-4.5
		c-0.1-0.6-0.1-1.3-0.1-2.1s0-1.5,0.1-2.1s0.2-1.2,0.4-1.8C1417.7,811,1418,810.5,1418.3,810.2L1418.3,810.2z M1423.9,812
		c-0.2-0.5-0.5-0.9-0.9-1.2s-0.9-0.4-1.5-0.4s-1,0.1-1.4,0.3s-0.7,0.4-0.9,0.7c-0.2,0.3-0.4,0.7-0.5,1.2s-0.2,0.9-0.2,1.4v3.2
		c0,0.4,0.1,0.9,0.2,1.4s0.3,0.9,0.5,1.2s0.5,0.5,0.9,0.7s0.8,0.3,1.3,0.3s0.9-0.1,1.3-0.3s0.7-0.4,0.9-0.7c0.2-0.3,0.4-0.7,0.5-1.2
		c0.2-0.8,0.3-1.6,0.3-2.6s0-1.7-0.1-2.2C1424.2,813,1424.1,812.5,1423.9,812L1423.9,812z M1431.4,822.1v-11.3h-1.5v-1.5h3.1v12.8
		H1431.4z M1437.6,821.9v-1.2c0.3-0.3,0.7-0.6,1.4-1.2c0.6-0.5,1.1-0.9,1.4-1.2s0.7-0.6,1.2-1.1s0.9-0.8,1.1-1.2
		c0.3-0.3,0.5-0.7,0.8-1.1c0.5-0.8,0.8-1.5,0.8-2.3s-0.2-1.4-0.6-1.8c-0.4-0.5-1-0.7-1.8-0.7s-1.5,0.3-1.9,0.8s-0.7,1.2-0.7,2h-1.6
		c0-1.3,0.5-2.4,1.2-3.1c0.8-0.7,1.8-1.1,3-1.1s2.2,0.3,2.9,1c0.7,0.7,1.1,1.6,1.1,2.8c0,1.4-0.7,2.9-2.1,4.4l-1.2,1.2
		c-0.8,0.7-1.6,1.5-2.5,2.2h6.1v1.4h-8.6L1437.6,821.9L1437.6,821.9z"/>
</g>
<g>
	<path class="st2" d="M1523.2,821.9v-1.2c0.3-0.3,0.7-0.6,1.4-1.2c0.6-0.5,1.1-0.9,1.4-1.2s0.7-0.6,1.2-1.1s0.9-0.8,1.1-1.2
		c0.3-0.3,0.5-0.7,0.8-1.1c0.5-0.8,0.8-1.5,0.8-2.3s-0.2-1.4-0.6-1.8s-1-0.7-1.8-0.7s-1.5,0.3-1.9,0.8s-0.7,1.2-0.7,2h-1.6
		c0-1.3,0.5-2.4,1.2-3.1c0.8-0.7,1.8-1.1,3-1.1s2.2,0.3,2.9,1c0.7,0.7,1.1,1.6,1.1,2.8c0,1.4-0.7,2.9-2.1,4.4l-1.2,1.2
		c-0.8,0.7-1.6,1.5-2.5,2.2h6.1v1.4h-8.6L1523.2,821.9L1523.2,821.9z M1537,810.2c0.3-0.4,0.8-0.7,1.3-0.9s1.2-0.3,2-0.3
		s1.5,0.2,2.1,0.5s1.1,0.8,1.4,1.4c0.6,1.2,0.9,2.7,0.9,4.6c0,2.5-0.4,4.3-1.3,5.3c-0.7,0.8-1.8,1.3-3.2,1.3c-2.6,0-4-1.5-4.4-4.5
		c-0.1-0.6-0.1-1.3-0.1-2.1s0-1.5,0.1-2.1s0.2-1.2,0.4-1.8C1536.4,811,1536.7,810.5,1537,810.2L1537,810.2z M1542.6,812
		c-0.2-0.5-0.5-0.9-0.9-1.2s-0.9-0.4-1.5-0.4s-1,0.1-1.4,0.3s-0.7,0.4-0.9,0.7s-0.4,0.7-0.5,1.2s-0.2,0.9-0.2,1.4v3.2
		c0,0.4,0.1,0.9,0.2,1.4s0.3,0.9,0.5,1.2s0.5,0.5,0.9,0.7s0.8,0.3,1.3,0.3s0.9-0.1,1.3-0.3s0.7-0.4,0.9-0.7s0.4-0.7,0.5-1.2
		c0.2-0.8,0.3-1.6,0.3-2.6s0-1.7-0.1-2.2C1542.9,813,1542.8,812.5,1542.6,812L1542.6,812z M1550.1,822.1v-11.3h-1.5v-1.5h3.1v12.8
		H1550.1z M1557.7,809.5c0.8-0.6,1.8-0.9,3-0.9s2.2,0.3,2.9,1c0.7,0.6,1.1,1.4,1.1,2.4c0,0.7-0.2,1.3-0.6,1.9s-0.9,0.9-1.5,1.1v0.1
		c0.7,0.2,1.3,0.6,1.7,1.2c0.4,0.6,0.6,1.4,0.6,2.4s-0.4,1.8-1.1,2.5s-1.7,1-3,1s-2.3-0.3-3.1-1c-0.8-0.6-1.3-1.6-1.3-2.8h1.5
		c0.1,0.7,0.3,1.2,0.9,1.7c0.5,0.4,1.2,0.7,2,0.7s1.5-0.2,1.9-0.7c0.5-0.5,0.7-1,0.7-1.7c0-0.9-0.3-1.6-0.9-2s-1.5-0.6-2.8-0.6h-0.4
		v-1.4h0.4c2.3,0,3.4-0.8,3.4-2.2c0-0.7-0.2-1.2-0.6-1.6c-0.4-0.4-1-0.6-1.8-0.6s-1.4,0.2-1.8,0.5c-0.4,0.4-0.7,0.8-0.8,1.4h-1.6
		C1556.5,811,1556.9,810.1,1557.7,809.5L1557.7,809.5z"/>
</g>
<g>
	<path class="st2" d="M1641.6,821.9v-1.2c0.3-0.3,0.7-0.6,1.4-1.2c0.6-0.5,1.1-0.9,1.4-1.2s0.7-0.6,1.2-1.1s0.9-0.8,1.1-1.2
		c0.3-0.3,0.5-0.7,0.8-1.1c0.5-0.8,0.8-1.5,0.8-2.3s-0.2-1.4-0.6-1.8c-0.4-0.5-1-0.7-1.8-0.7s-1.5,0.3-1.9,0.8s-0.7,1.2-0.7,2h-1.6
		c0-1.3,0.5-2.4,1.2-3.1c0.8-0.7,1.8-1.1,3-1.1s2.2,0.3,2.9,1c0.7,0.7,1.1,1.6,1.1,2.8c0,1.4-0.7,2.9-2.1,4.4l-1.2,1.2
		c-0.8,0.7-1.6,1.5-2.5,2.2h6.1v1.4h-8.6L1641.6,821.9L1641.6,821.9z M1655.4,810.2c0.3-0.4,0.8-0.7,1.3-0.9s1.2-0.3,2-0.3
		s1.5,0.2,2.1,0.5s1.1,0.8,1.4,1.4c0.6,1.2,0.9,2.7,0.9,4.6c0,2.5-0.4,4.3-1.3,5.3c-0.7,0.8-1.8,1.3-3.2,1.3c-2.6,0-4-1.5-4.4-4.5
		c-0.1-0.6-0.1-1.3-0.1-2.1s0-1.5,0.1-2.1s0.2-1.2,0.4-1.8C1654.8,811,1655.1,810.5,1655.4,810.2L1655.4,810.2z M1661,812
		c-0.2-0.5-0.5-0.9-0.9-1.2s-0.9-0.4-1.5-0.4s-1,0.1-1.4,0.3s-0.7,0.4-0.9,0.7c-0.2,0.3-0.4,0.7-0.5,1.2s-0.2,0.9-0.2,1.4v3.2
		c0,0.4,0.1,0.9,0.2,1.4s0.3,0.9,0.5,1.2s0.5,0.5,0.9,0.7s0.8,0.3,1.3,0.3s0.9-0.1,1.3-0.3s0.7-0.4,0.9-0.7c0.2-0.3,0.4-0.7,0.5-1.2
		c0.2-0.8,0.3-1.6,0.3-2.6s0-1.7-0.1-2.2C1661.3,813,1661.2,812.5,1661,812L1661,812z M1668.5,822.1v-11.3h-1.5v-1.5h3.1v12.8
		H1668.5z M1681.2,822.1v-2.9h-6.7V818l6.2-8.9h2.1v8.6h1.7v1.4h-1.7v2.9h-1.6V822.1L1681.2,822.1z M1681.2,817.8v-7.1l-4.8,7.1
		H1681.2z"/>
</g>
<g>
	<path class="st2" d="M1760.4,821.9v-1.2c0.3-0.3,0.7-0.6,1.4-1.2c0.6-0.5,1.1-0.9,1.4-1.2s0.7-0.6,1.2-1.1s0.9-0.8,1.1-1.2
		c0.3-0.3,0.5-0.7,0.8-1.1c0.5-0.8,0.8-1.5,0.8-2.3s-0.2-1.4-0.6-1.8c-0.4-0.5-1-0.7-1.8-0.7s-1.5,0.3-1.9,0.8s-0.7,1.2-0.7,2h-1.6
		c0-1.3,0.5-2.4,1.2-3.1c0.8-0.7,1.8-1.1,3-1.1s2.2,0.3,2.9,1c0.7,0.7,1.1,1.6,1.1,2.8c0,1.4-0.7,2.9-2.1,4.4l-1.2,1.2
		c-0.8,0.7-1.6,1.5-2.5,2.2h6.1v1.4h-8.6L1760.4,821.9L1760.4,821.9z M1774.2,810.2c0.3-0.4,0.8-0.7,1.3-0.9s1.2-0.3,2-0.3
		s1.5,0.2,2.1,0.5s1.1,0.8,1.4,1.4c0.6,1.2,0.9,2.7,0.9,4.6c0,2.5-0.4,4.3-1.3,5.3c-0.7,0.8-1.8,1.3-3.2,1.3c-2.6,0-4-1.5-4.4-4.5
		c-0.1-0.6-0.1-1.3-0.1-2.1s0-1.5,0.1-2.1s0.2-1.2,0.4-1.8C1773.6,811,1773.8,810.5,1774.2,810.2L1774.2,810.2z M1779.8,812
		c-0.2-0.5-0.5-0.9-0.9-1.2s-0.9-0.4-1.5-0.4s-1,0.1-1.4,0.3s-0.7,0.4-0.9,0.7c-0.2,0.3-0.4,0.7-0.5,1.2s-0.2,0.9-0.2,1.4v3.2
		c0,0.4,0.1,0.9,0.2,1.4s0.3,0.9,0.5,1.2s0.5,0.5,0.9,0.7s0.8,0.3,1.3,0.3s0.9-0.1,1.3-0.3s0.7-0.4,0.9-0.7c0.2-0.3,0.4-0.7,0.5-1.2
		c0.2-0.8,0.3-1.6,0.3-2.6s0-1.7-0.1-2.2C1780.1,813,1780,812.5,1779.8,812L1779.8,812z M1787.3,822.1v-11.3h-1.5v-1.5h3.1v12.8
		H1787.3z M1794.1,808.9h7.8v1.4h-6.3v4.1c0.3-0.4,0.7-0.7,1.2-1s1.2-0.4,1.8-0.4c0.7,0,1.3,0.1,1.9,0.4c0.6,0.3,1,0.6,1.3,1.1
		c0.6,0.9,0.9,1.8,0.9,3c0,1.4-0.4,2.5-1.1,3.3c-0.8,0.9-1.8,1.3-3.2,1.3c-1.4,0-2.4-0.3-3.2-1c-0.8-0.6-1.3-1.5-1.4-2.5h1.6
		c0.2,0.6,0.5,1.2,1,1.5c0.5,0.4,1.2,0.6,2.1,0.6s1.5-0.3,2-0.9c0.5-0.6,0.7-1.3,0.7-2.3s-0.2-1.7-0.7-2.2s-1.2-0.8-2.2-0.8
		c-0.6,0-1.2,0.2-1.7,0.5s-0.8,0.8-1,1.4h-1.5L1794.1,808.9L1794.1,808.9z"/>
</g>
<g>
	<path class="st3" d="M1782.9,750.4l-119.7-29.6l-118.1-29.6l-115.7-65.1l-119.6-82.9l-121.1-94.7l-118.1-71l-119.7-41.4
		l-119.6-53.3l-119.6-53.2l-119.6-41.5l-119.7-41.4l-114.3-41.4L238.3,93.4v693.7h1545.3L1782.9,750.4z"/>
</g>
<g>
	<path class="st2" d="M353.6,74.4h6.3v18.2h-6.3V74.4z"/>
</g>
<g>
	<path class="st2" d="M830.1,205.2h6.3v18.2h-6.3V205.2z"/>
</g>
<g>
	<path class="st2" d="M236.6-22.9h2v810h-2V-22.9z"/>
</g>
<g>
	<path class="st2" d="M1780.6-22.9h2v811h-2V-22.9z"/>
</g>
<g>
	<path class="st2" d="M355.2,106.2h2v680.9h-2V106.2z"/>
</g>
<g>
	<path class="st2" d="M474,146.7h2v640.4h-2V146.7z"/>
</g>
<g>
	<path class="st2" d="M592.8,188.7h2v598.6h-2V188.7z"/>
</g>
<g>
	<path class="st2" d="M711.6,200.3h2v587.3h-2V200.3z"/>
</g>
<g>
	<path class="st2" d="M830.3,236.5h2v550.6h-2V236.5z"/>
</g>
<g>
	<path class="st2" d="M949.1,301.6h2v485.8h-2V301.6z"/>
</g>
<g>
	<path class="st2" d="M1067.9,301.6h2v485.9h-2V301.6z"/>
</g>
<g>
	<path class="st2" d="M1186.7,359.5h2v427.9h-2V359.5z"/>
</g>
<g>
	<path class="st2" d="M1305.5,388.5h2v398.9h-2V388.5z"/>
</g>
<g>
	<path class="st2" d="M1424.3,405.2h2v382.2h-2V405.2z"/>
</g>
<g>
	<path class="st2" d="M1543.1,432.4h2v355.2h-2V432.4z"/>
</g>
<g>
	<path class="st2" d="M1661.9,504.2h2v283.4h-2V504.2z"/>
</g>
<g>
	<path class="st2" d="M1781.1,753.3l-119.6-29.6L1542.9,694l-0.3-0.2l-115.8-65.2h-0.1l-119.7-83L1186,451l-117.7-70.7l-119.5-41.4
		l-0.1-0.1L709.6,232.4l-239.1-82.9l-113.9-41.3L237.3,96.4l0.6-5.9l120,11.8l0.4,0.2l114.2,41.4l239.3,82.9h0.1L951,333.3
		l119.8,41.5l0.3,0.1l118.3,71.2l0.1,0.1l121.1,94.6l119.4,82.7l115.2,64.9l117.8,29.5l119.6,29.6L1781.1,753.3z"/>
</g>
<g>
	<path class="st2" d="M1768.4,750.4l12.7-12.7l12.7,12.7l-12.7,12.7L1768.4,750.4z"/>
</g>
<g>
	<path class="st2" d="M1768.3,587.7L1781,575l12.7,12.7l-12.7,12.7L1768.3,587.7z"/>
</g>
<g>
	<path class="st2" d="M224.8,93.4l12.7-12.7l12.7,12.7l-12.7,12.7L224.8,93.4z"/>
</g>
<g class="st4">
	<path class="st2" d="M357.7,62.1c-2.2,0-4.1-0.8-5.6-2.3s-2.3-3.5-2.3-5.8s0.8-4.3,2.3-5.8c1.6-1.5,3.5-2.3,5.8-2.3
		c1.7,0,3.1,0.4,4.4,1.2s2.2,1.9,2.9,3.4h-2.5c-1-1.8-2.5-2.7-4.8-2.7c-1.7,0-3.2,0.6-4.3,1.7s-1.7,2.7-1.7,4.5
		c0,1.9,0.6,3.4,1.7,4.6c1.1,1.1,2.5,1.7,4.2,1.7c1.7,0,3-0.5,4-1.4c1-1,1.6-2.2,1.8-3.9H357v-1.7h8.8V55c-0.2,2.1-1.1,3.8-2.6,5.1
		S359.9,62.1,357.7,62.1L357.7,62.1z M374.4,55.4V62h-2.1V46h5.2c1.8,0,3.2,0.4,4.1,1.3s1.4,1.9,1.4,3.2c0,1.3-0.3,2.3-1,3.2
		c-0.7,0.8-1.7,1.4-3.1,1.6l4.4,6.7h-2.6l-4.2-6.6L374.4,55.4L374.4,55.4z M374.4,47.7v6h3.1c1.1,0,2-0.3,2.6-0.8s0.8-1.3,0.8-2.2
		c0-2-1.1-3-3.4-3H374.4L374.4,47.7z M398.9,46v1.7h-6.3v5.4h5.7v1.6h-5.7v5.6h6.3V62h-8.4V46C390.5,46,398.9,46,398.9,46z
		 M414.5,46v1.7h-6.3v5.4h5.7v1.6h-5.7v5.6h6.3V62h-8.4V46C406.1,46,414.5,46,414.5,46z M432.2,46h2.1v15.9h-2.1l-8.4-12.7v12.7
		h-2.1V46h2.1l8.4,12.7V46z M441.7,46h2.1v14.3h5.6v1.6h-7.7V46z M466.6,62l-1.2-3.5h-7.1l-1.2,3.5H455l5.8-15.9h2.3l5.8,15.9H466.6
		L466.6,62z M458.8,56.8h5.9l-2.9-8.2L458.8,56.8z M486,46h2.1v15.9H486l-8.4-12.7v12.7h-2.1V46h2.1l8.4,12.7V46z M500.5,46
		c2.6,0,4.6,0.7,6.1,2.2c1.5,1.4,2.2,3.4,2.2,5.9s-0.7,4.4-2.2,5.8s-3.5,2.1-6.1,2.1h-5V46H500.5z M497.6,60.3h2.9
		c2,0,3.5-0.6,4.6-1.7s1.6-2.6,1.6-4.6s-0.5-3.5-1.6-4.6s-2.6-1.7-4.6-1.7h-2.9C497.6,47.7,497.6,60.3,497.6,60.3z M542.6,46v15.9
		h-2.1V50.3l-5.3,11.6h-1.4l-5.4-11.6v11.6h-2.1V46h2.1l6,13.1l6-13.1H542.6L542.6,46z M561,62l-1.2-3.5h-7.1l-1.2,3.5h-2.1
		l5.8-15.9h2.3l5.8,15.9H561z M553.3,56.8h5.9l-2.9-8.2L553.3,56.8z M571.6,50.3c0,0.6,0.2,1.1,0.5,1.4c0.3,0.4,0.7,0.7,1.2,0.9
		c0.5,0.2,1.1,0.3,1.7,0.5c0.6,0.1,1.2,0.3,1.9,0.5c0.6,0.2,1.2,0.4,1.7,0.7s0.9,0.7,1.2,1.2c0.3,0.6,0.5,1.2,0.5,2
		c0,1.2-0.5,2.3-1.4,3.2c-0.9,0.9-2.2,1.4-3.9,1.4c-1.7,0-2.9-0.4-3.9-1.1s-1.5-1.8-1.5-3h2.2c0.1,0.7,0.3,1.3,0.9,1.7
		c0.5,0.4,1.3,0.7,2.3,0.7s1.8-0.3,2.4-0.8c0.6-0.5,0.9-1.1,0.9-1.8s-0.2-1.2-0.5-1.6s-0.7-0.7-1.2-0.8c-0.5-0.2-1.1-0.3-1.7-0.5
		c-0.6-0.1-1.2-0.3-1.9-0.5c-0.6-0.2-1.2-0.4-1.7-0.7c-0.5-0.3-0.9-0.7-1.2-1.3c-0.3-0.6-0.5-1.3-0.5-2.1c0-1.3,0.5-2.4,1.4-3.3
		c1-0.8,2.2-1.2,3.7-1.2s2.8,0.4,3.7,1.1c0.9,0.7,1.4,1.7,1.6,3h-2.3c-0.1-0.6-0.4-1.2-0.9-1.6s-1.2-0.7-2.1-0.7
		c-0.9,0-1.6,0.2-2.2,0.7C571.9,48.7,571.6,49.4,571.6,50.3L571.6,50.3z M589.1,50.3c0,0.6,0.2,1.1,0.5,1.4c0.3,0.4,0.7,0.7,1.2,0.9
		c0.5,0.2,1.1,0.3,1.7,0.5c0.6,0.1,1.2,0.3,1.9,0.5c0.6,0.2,1.2,0.4,1.7,0.7s0.9,0.7,1.2,1.2c0.3,0.6,0.5,1.2,0.5,2
		c0,1.2-0.5,2.3-1.4,3.2c-0.9,0.9-2.2,1.4-3.9,1.4c-1.7,0-2.9-0.4-3.9-1.1s-1.5-1.8-1.5-3h2.2c0.1,0.7,0.3,1.3,0.9,1.7
		c0.5,0.4,1.3,0.7,2.3,0.7s1.8-0.3,2.4-0.8c0.6-0.5,0.9-1.1,0.9-1.8s-0.2-1.2-0.5-1.6s-0.7-0.7-1.2-0.8c-0.5-0.2-1.1-0.3-1.7-0.5
		c-0.6-0.1-1.2-0.3-1.9-0.5c-0.6-0.2-1.2-0.4-1.7-0.7c-0.5-0.3-0.9-0.7-1.2-1.3c-0.3-0.6-0.5-1.3-0.5-2.1c0-1.3,0.5-2.4,1.4-3.3
		c1-0.8,2.2-1.2,3.7-1.2s2.8,0.4,3.7,1.1c0.9,0.7,1.4,1.7,1.6,3h-2.3c-0.1-0.6-0.4-1.2-0.9-1.6s-1.2-0.7-2.1-0.7
		c-0.9,0-1.6,0.2-2.2,0.7C589.4,48.7,589.1,49.4,589.1,50.3L589.1,50.3z"/>
</g>
<g class="st4">
	<path class="st2" d="M839,191.6l-1.2-3.5h-7.1l-1.2,3.5h-2.1l5.8-15.9h2.3l5.8,15.9H839z M831.3,186.4h5.9l-2.9-8.2L831.3,186.4z
		 M858.4,175.6h2.1v15.9h-2.1l-8.4-12.6v12.7h-2.1v-15.9h2.1l8.4,12.7V175.6z M867.2,177.3v-1.7h10.5v1.7h-4.2v14.3h-2.1v-14.3
		H867.2z M895.4,191.6l-1.2-3.5h-7.1l-1.2,3.5h-2.1l5.8-15.9h2.3l5.8,15.9H895.4z M887.7,186.4h5.9l-2.9-8.2L887.7,186.4z
		 M906.4,185v6.6h-2.1v-15.9h5.2c1.8,0,3.2,0.4,4.1,1.3s1.4,1.9,1.4,3.2s-0.3,2.3-1,3.2c-0.7,0.8-1.7,1.4-3.1,1.6l4.4,6.7h-2.6
		l-4.2-6.6h-2.1L906.4,185L906.4,185z M906.4,177.3v6h3.1c1.1,0,2-0.3,2.6-0.8s0.8-1.3,0.8-2.2c0-2-1.1-3-3.4-3H906.4L906.4,177.3z
		 M924,189.4c-1.6-1.5-2.3-3.5-2.3-5.8s0.8-4.3,2.3-5.8c1.6-1.5,3.5-2.3,5.8-2.3c1.7,0,3.1,0.4,4.4,1.2s2.2,1.9,2.9,3.4h-2.5
		c-1-1.8-2.5-2.7-4.8-2.7c-1.7,0-3.2,0.6-4.3,1.7s-1.7,2.7-1.7,4.5c0,1.9,0.6,3.4,1.7,4.6c1.1,1.1,2.6,1.7,4.3,1.7
		c1.1,0,2-0.2,2.8-0.7s1.5-1.1,1.9-2h2.5c-0.6,1.5-1.6,2.6-2.9,3.4s-2.8,1.2-4.4,1.2C927.5,191.7,925.6,190.9,924,189.4L924,189.4z
		 M943.6,177.3v-1.7h10.5v1.7h-4.2v14.3h-2.1v-14.3H943.6z M960.9,191.6v-15.9h2.1v15.9H960.9z M971.9,189.4
		c-1.6-1.5-2.3-3.5-2.3-5.8s0.8-4.3,2.3-5.8c1.6-1.5,3.5-2.3,5.8-2.3c1.7,0,3.1,0.4,4.4,1.2s2.2,1.9,2.9,3.4h-2.5
		c-1-1.8-2.5-2.7-4.8-2.7c-1.7,0-3.2,0.6-4.3,1.7s-1.7,2.7-1.7,4.5c0,1.9,0.6,3.4,1.7,4.6c1.1,1.1,2.6,1.7,4.3,1.7
		c1.1,0,2-0.2,2.8-0.7s1.5-1.1,1.9-2h2.5c-0.6,1.5-1.6,2.6-2.9,3.4s-2.8,1.2-4.4,1.2C975.4,191.7,973.5,190.9,971.9,189.4
		L971.9,189.4z M1019.4,175.6v15.9h-2.1v-11.6l-5.3,11.6h-1.4l-5.4-11.6v11.6h-2.1v-15.9h2.1l6,13.1l6-13.1L1019.4,175.6
		L1019.4,175.6z M1037.8,191.6l-1.2-3.5h-7.1l-1.2,3.5h-2.1l5.8-15.9h2.3l5.8,15.9H1037.8z M1030.1,186.4h5.9l-2.9-8.2L1030.1,186.4
		z M1048.4,179.9c0,0.6,0.2,1.1,0.5,1.4c0.3,0.4,0.7,0.7,1.2,0.9s1.1,0.3,1.7,0.5c0.6,0.1,1.2,0.3,1.9,0.5c0.6,0.2,1.2,0.4,1.7,0.7
		s0.9,0.7,1.2,1.2c0.3,0.5,0.5,1.2,0.5,2c0,1.2-0.5,2.3-1.4,3.2c-1,0.9-2.2,1.4-3.9,1.4c-1.6,0-2.9-0.4-3.9-1.1
		c-1-0.7-1.5-1.8-1.5-3h2.2c0.1,0.7,0.3,1.3,0.9,1.7c0.5,0.4,1.3,0.7,2.3,0.7s1.8-0.3,2.4-0.8c0.6-0.5,0.9-1.1,0.9-1.8
		s-0.2-1.2-0.5-1.6c-0.3-0.4-0.7-0.7-1.2-0.8s-1.1-0.3-1.7-0.5c-0.6-0.1-1.2-0.3-1.9-0.5c-0.6-0.2-1.2-0.4-1.7-0.7s-0.9-0.7-1.2-1.3
		c-0.3-0.6-0.5-1.3-0.5-2.1c0-1.3,0.5-2.4,1.4-3.3c1-0.8,2.2-1.2,3.7-1.2s2.8,0.4,3.7,1.1s1.4,1.7,1.6,3h-2.3
		c-0.1-0.6-0.4-1.2-0.9-1.6c-0.5-0.4-1.2-0.7-2.1-0.7s-1.6,0.2-2.2,0.7C1048.7,178.3,1048.4,179,1048.4,179.9L1048.4,179.9z
		 M1065.9,179.9c0,0.6,0.2,1.1,0.5,1.4c0.3,0.4,0.7,0.7,1.2,0.9s1.1,0.3,1.7,0.5c0.6,0.1,1.2,0.3,1.9,0.5c0.6,0.2,1.2,0.4,1.7,0.7
		s0.9,0.7,1.2,1.2c0.3,0.5,0.5,1.2,0.5,2c0,1.2-0.5,2.3-1.4,3.2c-1,0.9-2.2,1.4-3.9,1.4c-1.6,0-2.9-0.4-3.9-1.1
		c-1-0.7-1.5-1.8-1.5-3h2.2c0.1,0.7,0.3,1.3,0.9,1.7c0.5,0.4,1.3,0.7,2.3,0.7s1.8-0.3,2.4-0.8c0.6-0.5,0.9-1.1,0.9-1.8
		s-0.2-1.2-0.5-1.6c-0.3-0.4-0.7-0.7-1.2-0.8s-1.1-0.3-1.7-0.5c-0.6-0.1-1.2-0.3-1.9-0.5c-0.6-0.2-1.2-0.4-1.7-0.7s-0.9-0.7-1.2-1.3
		c-0.3-0.6-0.5-1.3-0.5-2.1c0-1.3,0.5-2.4,1.4-3.3c1-0.8,2.2-1.2,3.7-1.2s2.8,0.4,3.7,1.1s1.4,1.7,1.6,3h-2.3
		c-0.1-0.6-0.4-1.2-0.9-1.6c-0.5-0.4-1.2-0.7-2.1-0.7c-0.9,0-1.6,0.2-2.2,0.7C1066.1,178.3,1065.9,179,1065.9,179.9L1065.9,179.9z"
		/>
</g>
<g>
	<path class="st2" d="M1780.1,593.5l-119.5-86.8l-119.2-72l-113.6-28.8l-119.6-14.5h-0.2l-119.9-29l-0.3-0.2l-119-57.6H949
		l-120-65.3l-118.8-36L471,217.8l-0.5-0.1l-114.2-29l-119.6-28.9l1.4-5.8l119.6,28.9l113.8,28.9l239.4-14.5l120.4,36.4l0.3,0.2
		l119,64.7h119.5l120,58.1l119.2,28.8l119.6,14.5h0.2l114.7,29.1l0.3,0.2l119.8,72.4l0.1,0.1l119.6,86.9L1780.1,593.5z"/>
</g>
<g>
	<path class="st2" d="M225.8,156.9l12.7-12.7l12.7,12.7l-12.7,12.7L225.8,156.9z"/>
</g>
<text transform="matrix(1 0 0 1 100.3522 -22.9)" class="st2 st5 st6">Gigaton</text>
</svg>
