<?xml version="1.0" encoding="utf-8"?>
<!-- Generator: Adobe Illustrator 18.0.0, SVG Export Plug-In . SVG Version: 6.00 Build 0)  -->
<!DOCTYPE svg PUBLIC "-//W3C//DTD SVG 1.1//EN" "http://www.w3.org/Graphics/SVG/1.1/DTD/svg11.dtd">
<svg version="1.1" id="Livello_1" xmlns="http://www.w3.org/2000/svg" xmlns:xlink="http://www.w3.org/1999/xlink" x="0px" y="0px"
	 viewBox="0 0 1280 800" enable-background="new 0 0 1280 800" xml:space="preserve">
<g>
	<g>
		<path fill="#EDEDED" d="M873.1,51.9c1,0.9,1.5,2,1.5,3.3c0,1.3-0.5,2.4-1.4,3.4c-0.9,0.9-2.3,1.4-4.2,1.4h-2.9v6.4h-2.6V50.5h5.4
			C870.8,50.5,872.1,51,873.1,51.9z M866.1,57.9h2.9c1,0,1.7-0.2,2.2-0.7c0.5-0.5,0.7-1.1,0.7-2s-0.2-1.5-0.7-2
			c-0.5-0.5-1.2-0.7-2.2-0.7h-2.9V57.9z"/>
		<path fill="#EDEDED" d="M881.6,50.5h2.6v13.8h5.3v2h-7.9V50.5z"/>
		<path fill="#EDEDED" d="M904.9,50.5v2h-6.1v4.8h5.4v2h-5.4v5h6.1v2h-8.7V50.5H904.9z"/>
		<path fill="#EDEDED" d="M917.8,50.5c2.5,0,4.6,0.7,6.1,2.1s2.3,3.4,2.3,5.8c0,2.4-0.8,4.3-2.3,5.7c-1.5,1.4-3.6,2.1-6.1,2.1h-5.2
			V50.5H917.8z M915.2,64.3h2.6c1.8,0,3.2-0.5,4.2-1.6c1-1,1.5-2.5,1.5-4.3c0-1.8-0.5-3.3-1.5-4.3c-1-1-2.4-1.6-4.2-1.6h-2.6V64.3z"
			/>
		<path fill="#EDEDED" d="M940.3,66.4c-2.2,0-4-0.8-5.6-2.3c-1.6-1.5-2.3-3.4-2.3-5.8c0-2.3,0.8-4.3,2.3-5.8
			c1.6-1.5,3.5-2.3,5.7-2.3c1.7,0,3.2,0.4,4.5,1.2c1.3,0.8,2.3,2,2.8,3.5h-3.1c-0.8-1.6-2.3-2.4-4.2-2.4c-1.6,0-2.9,0.5-3.9,1.6
			c-1,1-1.5,2.4-1.5,4.1c0,1.7,0.5,3.1,1.5,4.1c1,1,2.3,1.6,3.8,1.6c1.5,0,2.7-0.4,3.6-1.2s1.4-1.9,1.6-3.2h-5.9v-2h8.7v2
			c-0.2,1.9-1.1,3.5-2.5,4.8C944.3,65.8,942.5,66.4,940.3,66.4z"/>
		<path fill="#EDEDED" d="M964.1,50.5v2h-6.1v4.8h5.4v2h-5.4v5h6.1v2h-8.7V50.5H964.1z"/>
		<path fill="#EDEDED" d="M976.7,52.4c-0.8,0-1.4,0.2-1.9,0.6c-0.5,0.4-0.7,1-0.7,1.7c0,0.7,0.3,1.3,0.9,1.7s1.3,0.7,2.1,0.9
			c0.8,0.2,1.6,0.4,2.5,0.6c0.8,0.2,1.5,0.7,2.1,1.3c0.6,0.6,0.9,1.5,0.9,2.7c0,1.2-0.5,2.2-1.5,3.1c-1,0.9-2.3,1.4-4,1.4
			s-3-0.4-4-1.2c-1-0.8-1.5-1.8-1.5-3.2h2.8c0.1,0.7,0.3,1.2,0.8,1.7c0.5,0.4,1.1,0.6,2,0.6c0.9,0,1.6-0.2,2.1-0.7
			c0.5-0.5,0.8-1,0.8-1.6c0-0.6-0.2-1.1-0.5-1.5c-0.3-0.3-0.7-0.6-1.2-0.8c-0.5-0.2-1-0.3-1.6-0.5c-0.6-0.1-1.2-0.3-1.8-0.5
			c-0.6-0.2-1.1-0.4-1.6-0.7s-0.9-0.7-1.2-1.3c-0.3-0.6-0.5-1.2-0.5-2c0-1.4,0.5-2.5,1.5-3.3c1-0.8,2.3-1.3,3.9-1.3
			c1.6,0,2.8,0.4,3.8,1.1c0.9,0.7,1.5,1.8,1.6,3.2h-2.9c-0.1-0.6-0.3-1.1-0.8-1.5C978.1,52.6,977.5,52.4,976.7,52.4z"/>
		<path fill="#EDEDED" d="M864.8,85.7c1-0.8,2.3-1.2,3.8-1.2s2.8,0.4,3.7,1.2c0.9,0.8,1.4,1.8,1.4,3.1c0,0.9-0.2,1.7-0.7,2.4
			c-0.5,0.7-1.1,1.1-1.8,1.3v0.1c0.9,0.3,1.6,0.8,2.1,1.5c0.5,0.7,0.7,1.7,0.7,2.9c0,1.2-0.5,2.3-1.4,3.2c-0.9,0.9-2.2,1.3-3.9,1.3
			c-1.7,0-3-0.4-4.1-1.3c-1.1-0.8-1.6-2-1.7-3.6h2.5c0.1,0.8,0.4,1.5,0.9,2c0.6,0.5,1.3,0.8,2.2,0.8c0.9,0,1.7-0.3,2.2-0.8
			c0.5-0.5,0.7-1.2,0.7-2c0-1.1-0.3-1.8-1-2.3c-0.7-0.4-1.7-0.7-3.1-0.7h-0.6v-2.1h0.6c2.5,0,3.8-0.9,3.8-2.5c0-0.7-0.2-1.3-0.7-1.7
			c-0.5-0.4-1.1-0.6-2-0.6c-0.9,0-1.5,0.2-2,0.6c-0.5,0.4-0.7,1-0.8,1.6h-2.5C863.2,87.5,863.8,86.4,864.8,85.7z"/>
		<path fill="#EDEDED" d="M882.8,85.7c1-0.8,2.3-1.2,3.8-1.2c1.6,0,2.8,0.4,3.7,1.2c0.9,0.8,1.4,1.8,1.4,3.1c0,0.9-0.3,1.7-0.8,2.4
			c-0.5,0.7-1.1,1.1-1.8,1.3v0.1c0.9,0.3,1.6,0.8,2.1,1.5c0.5,0.7,0.7,1.7,0.7,2.9c0,1.2-0.5,2.3-1.4,3.2c-0.9,0.9-2.2,1.3-3.9,1.3
			c-1.7,0-3-0.4-4.1-1.3c-1.1-0.8-1.6-2-1.7-3.6h2.5c0.1,0.8,0.4,1.5,0.9,2c0.6,0.5,1.3,0.8,2.2,0.8c0.9,0,1.7-0.3,2.2-0.8
			c0.5-0.5,0.8-1.2,0.8-2c0-1.1-0.3-1.8-1-2.3c-0.7-0.4-1.7-0.7-3.1-0.7h-0.6v-2.1h0.6c2.5,0,3.8-0.9,3.8-2.5c0-0.7-0.2-1.3-0.7-1.7
			c-0.5-0.4-1.1-0.6-2-0.6c-0.9,0-1.5,0.2-2,0.6c-0.5,0.4-0.7,1-0.8,1.6h-2.5C881.3,87.5,881.8,86.4,882.8,85.7z"/>
		<path fill="#EDEDED" d="M905.4,86.6c-1.2,0-2.1,0.5-2.7,1.4c-0.6,0.9-0.9,2.4-0.9,4.6c0.4-0.7,1-1.2,1.7-1.5s1.6-0.5,2.5-0.5
			c1.5,0,2.7,0.5,3.7,1.5c0.9,1,1.4,2.3,1.4,3.9c0,1.7-0.5,3-1.4,4c-1,1-2.3,1.5-4,1.5c-2.3,0-4-0.8-4.8-2.4c-0.5-0.8-0.8-1.7-1-2.7
			c-0.2-1-0.3-2.2-0.3-3.6c0-5.5,2-8.3,5.9-8.3c1.5,0,2.7,0.4,3.6,1.2c0.9,0.8,1.4,1.8,1.5,3h-2.4C907.8,87.3,906.9,86.6,905.4,86.6
			z M908.6,96c0-1-0.3-1.8-0.8-2.4c-0.5-0.6-1.3-0.9-2.3-0.9c-1,0-1.8,0.3-2.4,0.8c-0.6,0.6-1,1.4-1,2.4c0,1,0.3,1.9,0.9,2.5
			c0.6,0.6,1.4,0.9,2.4,0.9s1.8-0.3,2.3-0.9C908.3,97.8,908.6,97,908.6,96z"/>
		<path fill="#EDEDED" d="M919.9,85.7c1-0.8,2.3-1.2,3.8-1.2c1.6,0,2.8,0.4,3.7,1.2c0.9,0.8,1.4,1.8,1.4,3.1c0,0.9-0.3,1.7-0.8,2.4
			c-0.5,0.7-1.1,1.1-1.8,1.3v0.1c0.9,0.3,1.6,0.8,2.1,1.5c0.5,0.7,0.7,1.7,0.7,2.9c0,1.2-0.5,2.3-1.4,3.2c-0.9,0.9-2.2,1.3-3.9,1.3
			s-3-0.4-4.1-1.3c-1.1-0.8-1.6-2-1.7-3.6h2.5c0.1,0.8,0.4,1.5,0.9,2c0.6,0.5,1.3,0.8,2.2,0.8c0.9,0,1.7-0.3,2.2-0.8
			c0.5-0.5,0.8-1.2,0.8-2c0-1.1-0.3-1.8-1-2.3c-0.7-0.4-1.7-0.7-3.1-0.7H922v-2.1h0.6c2.5,0,3.8-0.9,3.8-2.5c0-0.7-0.2-1.3-0.7-1.7
			c-0.5-0.4-1.1-0.6-2-0.6s-1.5,0.2-2,0.6c-0.5,0.4-0.7,1-0.8,1.6h-2.5C918.4,87.5,918.9,86.4,919.9,85.7z"/>
		<path fill="#EDEDED" d="M958.7,96.9c0,1.2-0.4,2.2-1.3,3.1c-0.9,0.9-2,1.4-3.5,1.5v1.8h-1.3v-1.8c-1.5-0.1-2.6-0.5-3.5-1.3
			c-0.9-0.8-1.3-1.8-1.3-3h2.8c0.1,1.3,0.8,2,2.1,2.2v-5c-1.4-0.3-2.3-0.6-2.9-1c-0.7-0.4-1.1-0.8-1.4-1.3c-0.4-0.6-0.5-1.4-0.5-2.2
			c0-1.3,0.4-2.3,1.3-3.2c0.9-0.8,2.1-1.3,3.5-1.4v-1.8h1.3v1.8c1.4,0.1,2.5,0.5,3.3,1.2c0.8,0.7,1.3,1.7,1.4,3h-2.8
			c0-0.5-0.2-0.9-0.6-1.3c-0.3-0.4-0.8-0.6-1.3-0.7v4.9c1.4,0.3,2.4,0.6,2.9,0.9c0.7,0.4,1.2,0.8,1.3,1.2
			C958.5,95.3,958.7,96.1,958.7,96.9z M951,88.3c-0.4,0.4-0.6,0.9-0.6,1.6c0,0.7,0.2,1.2,0.6,1.5c0.4,0.3,0.9,0.6,1.6,0.8v-4.6
			C951.9,87.7,951.4,87.9,951,88.3z M955.5,98.6c0.4-0.4,0.6-1,0.6-1.6c0-0.6-0.2-1.1-0.6-1.4c-0.4-0.3-0.9-0.6-1.6-0.8v4.7
			C954.6,99.3,955.1,99.1,955.5,98.6z"/>
		<path fill="#EDEDED" d="M981.3,88.9v2c0.8-1.5,2.2-2.2,4-2.2c1,0,1.8,0.2,2.6,0.7c0.8,0.5,1.3,1.1,1.7,2c0.4-0.8,1-1.5,1.8-2
			c0.8-0.5,1.7-0.7,2.6-0.7c1.4,0,2.6,0.5,3.5,1.4c0.9,0.9,1.4,2.2,1.4,3.9v7.4h-2.6v-7c0-1.1-0.3-2-0.8-2.6
			c-0.6-0.6-1.3-0.9-2.3-0.9c-1,0-1.7,0.3-2.3,0.9c-0.6,0.6-0.8,1.5-0.8,2.6v7h-2.6v-7c0-1.1-0.3-2-0.8-2.6
			c-0.6-0.6-1.3-0.9-2.3-0.9c-1,0-1.7,0.3-2.3,0.9c-0.6,0.6-0.9,1.5-0.9,2.6v7h-2.6V88.9H981.3z"/>
		<path fill="#EDEDED" d="M1006.8,101.4V84.6h2.6v16.8H1006.8z"/>
		<path fill="#EDEDED" d="M1019.9,88.9v2c0.8-1.5,2.2-2.2,4-2.2c1.4,0,2.6,0.5,3.5,1.4c0.9,0.9,1.4,2.2,1.4,3.9v7.4h-2.6v-7
			c0-1.1-0.3-2-0.8-2.6c-0.6-0.6-1.3-0.9-2.3-0.9c-1,0-1.7,0.3-2.3,0.9c-0.6,0.6-0.9,1.5-0.9,2.6v7h-2.6V88.9H1019.9z"/>
	</g>
</g>
<g>
	<g>
		<path fill="#FF475C" d="M868.7,177.9c2.5,0,4.6,0.7,6.1,2.1s2.3,3.4,2.3,5.8c0,2.4-0.8,4.3-2.3,5.7c-1.5,1.4-3.6,2.1-6.1,2.1h-5.2
			v-15.8H868.7z M866.1,191.7h2.6c1.8,0,3.2-0.5,4.2-1.6c1-1,1.5-2.5,1.5-4.3c0-1.8-0.5-3.3-1.5-4.3c-1-1-2.4-1.6-4.2-1.6h-2.6
			V191.7z"/>
		<path fill="#FF475C" d="M892.9,177.9v2h-6.1v4.8h5.4v2h-5.4v5h6.1v2h-8.7v-15.8H892.9z"/>
		<path fill="#FF475C" d="M910.2,179.2c1,0.9,1.5,2,1.5,3.3c0,1.3-0.5,2.4-1.4,3.4c-0.9,0.9-2.3,1.4-4.2,1.4h-2.9v6.4h-2.6v-15.8
			h5.4C907.8,177.9,909.2,178.4,910.2,179.2z M903.2,185.3h2.9c1,0,1.7-0.2,2.2-0.7c0.5-0.5,0.7-1.1,0.7-2c0-0.8-0.2-1.5-0.7-2
			c-0.5-0.5-1.2-0.7-2.2-0.7h-2.9V185.3z"/>
		<path fill="#FF475C" d="M925.8,193.8c-2.3,0-4.2-0.8-5.7-2.3c-1.6-1.5-2.3-3.4-2.3-5.8c0-2.3,0.8-4.3,2.3-5.8
			c1.6-1.5,3.5-2.3,5.7-2.3c2.3,0,4.2,0.8,5.7,2.3c1.6,1.5,2.3,3.5,2.3,5.8c0,2.3-0.8,4.3-2.3,5.8
			C930,193.1,928.1,193.8,925.8,193.8z M925.8,191.5c1.6,0,2.9-0.5,3.9-1.6s1.5-2.4,1.5-4.2s-0.5-3.1-1.5-4.1s-2.3-1.6-3.9-1.6
			c-1.6,0-2.9,0.5-3.9,1.6c-1,1-1.5,2.4-1.5,4.1s0.5,3.1,1.5,4.2C923,191,924.2,191.5,925.8,191.5z"/>
		<path fill="#FF475C" d="M945.9,179.8c-0.8,0-1.4,0.2-1.9,0.6c-0.5,0.4-0.7,1-0.7,1.7c0,0.7,0.3,1.3,0.9,1.7s1.3,0.7,2.1,0.9
			c0.8,0.2,1.6,0.4,2.5,0.6c0.8,0.2,1.5,0.7,2.1,1.3c0.6,0.6,0.9,1.5,0.9,2.7c0,1.2-0.5,2.2-1.5,3.1c-1,0.9-2.3,1.4-4,1.4
			s-3-0.4-4-1.2c-1-0.8-1.5-1.8-1.5-3.2h2.8c0.1,0.7,0.3,1.2,0.8,1.7c0.5,0.4,1.1,0.6,2,0.6c0.9,0,1.6-0.2,2.1-0.7
			c0.5-0.5,0.8-1,0.8-1.6c0-0.6-0.2-1.1-0.5-1.5c-0.3-0.3-0.7-0.6-1.2-0.8c-0.5-0.2-1-0.3-1.6-0.5c-0.6-0.1-1.2-0.3-1.8-0.5
			c-0.6-0.2-1.1-0.4-1.6-0.7c-0.5-0.3-0.9-0.7-1.2-1.3c-0.3-0.6-0.5-1.2-0.5-2c0-1.4,0.5-2.5,1.5-3.3c1-0.8,2.3-1.3,3.9-1.3
			s2.8,0.4,3.8,1.1c0.9,0.7,1.5,1.8,1.6,3.2h-2.9c-0.1-0.6-0.3-1.1-0.8-1.5C947.3,180,946.7,179.8,945.9,179.8z"/>
		<path fill="#FF475C" d="M959.2,193.7v-15.8h2.6v15.8H959.2z"/>
		<path fill="#FF475C" d="M968.9,179.9v-2h11v2h-4.2v13.8h-2.6v-13.8H968.9z"/>
		<path fill="#FF475C" d="M995.8,177.9v2h-6.1v4.8h5.4v2h-5.4v5h6.1v2h-8.7v-15.8H995.8z"/>
		<path fill="#FF475C" d="M1008.7,177.9c2.5,0,4.6,0.7,6.1,2.1c1.5,1.4,2.3,3.4,2.3,5.8c0,2.4-0.8,4.3-2.3,5.7
			c-1.5,1.4-3.6,2.1-6.1,2.1h-5.2v-15.8H1008.7z M1006.1,191.7h2.6c1.8,0,3.2-0.5,4.2-1.6c1-1,1.5-2.5,1.5-4.3
			c0-1.8-0.5-3.3-1.5-4.3c-1-1-2.4-1.6-4.2-1.6h-2.6V191.7z"/>
		<path fill="#FF475C" d="M864.8,213c1-0.8,2.3-1.2,3.8-1.2s2.8,0.4,3.7,1.2c0.9,0.8,1.4,1.8,1.4,3.1c0,0.9-0.2,1.7-0.7,2.4
			c-0.5,0.7-1.1,1.1-1.8,1.3v0.1c0.9,0.3,1.6,0.8,2.1,1.5c0.5,0.7,0.7,1.7,0.7,2.9c0,1.2-0.5,2.3-1.4,3.2c-0.9,0.9-2.2,1.3-3.9,1.3
			c-1.7,0-3-0.4-4.1-1.3c-1.1-0.8-1.6-2-1.7-3.6h2.5c0.1,0.8,0.4,1.5,0.9,2c0.6,0.5,1.3,0.8,2.2,0.8c0.9,0,1.7-0.3,2.2-0.8
			c0.5-0.5,0.7-1.2,0.7-2c0-1.1-0.3-1.8-1-2.3c-0.7-0.4-1.7-0.7-3.1-0.7h-0.6v-2.1h0.6c2.5,0,3.8-0.9,3.8-2.5c0-0.7-0.2-1.3-0.7-1.7
			c-0.5-0.4-1.1-0.6-2-0.6c-0.9,0-1.5,0.2-2,0.6c-0.5,0.4-0.7,1-0.8,1.6h-2.5C863.2,214.9,863.8,213.8,864.8,213z"/>
		<path fill="#FF475C" d="M882.8,213c1-0.8,2.3-1.2,3.8-1.2c1.6,0,2.8,0.4,3.7,1.2c0.9,0.8,1.4,1.8,1.4,3.1c0,0.9-0.3,1.7-0.8,2.4
			c-0.5,0.7-1.1,1.1-1.8,1.3v0.1c0.9,0.3,1.6,0.8,2.1,1.5c0.5,0.7,0.7,1.7,0.7,2.9c0,1.2-0.5,2.3-1.4,3.2c-0.9,0.9-2.2,1.3-3.9,1.3
			c-1.7,0-3-0.4-4.1-1.3c-1.1-0.8-1.6-2-1.7-3.6h2.5c0.1,0.8,0.4,1.5,0.9,2c0.6,0.5,1.3,0.8,2.2,0.8c0.9,0,1.7-0.3,2.2-0.8
			c0.5-0.5,0.8-1.2,0.8-2c0-1.1-0.3-1.8-1-2.3c-0.7-0.4-1.7-0.7-3.1-0.7h-0.6v-2.1h0.6c2.5,0,3.8-0.9,3.8-2.5c0-0.7-0.2-1.3-0.7-1.7
			c-0.5-0.4-1.1-0.6-2-0.6c-0.9,0-1.5,0.2-2,0.6c-0.5,0.4-0.7,1-0.8,1.6h-2.5C881.3,214.9,881.8,213.8,882.8,213z"/>
		<path fill="#FF475C" d="M901,228.8V215h-2.1v-2.4h4.7v16.1H901z"/>
		<path fill="#FF475C" d="M919.6,228.8v-3.4h-8.2v-2l7.6-10.9h3.1v10.6h2.1v2.2h-2.1v3.4H919.6z M919.7,223.1v-8l-5.4,8H919.7z"/>
		<path fill="#FF475C" d="M953.3,224.3c0,1.2-0.4,2.2-1.3,3.1c-0.9,0.9-2,1.4-3.5,1.5v1.8h-1.3v-1.8c-1.5-0.1-2.6-0.5-3.5-1.3
			s-1.3-1.8-1.3-3h2.8c0.1,1.3,0.8,2,2.1,2.2v-5c-1.4-0.3-2.3-0.6-2.9-1c-0.7-0.4-1.2-0.8-1.4-1.3c-0.4-0.6-0.5-1.4-0.5-2.2
			c0-1.3,0.4-2.3,1.3-3.2c0.9-0.8,2.1-1.3,3.5-1.4V211h1.3v1.8c1.4,0.1,2.5,0.5,3.3,1.2c0.8,0.7,1.3,1.7,1.4,3h-2.8
			c0-0.5-0.2-0.9-0.6-1.3c-0.3-0.4-0.8-0.6-1.3-0.7v4.9c1.4,0.3,2.4,0.6,2.9,0.9c0.7,0.4,1.2,0.8,1.3,1.2
			C953.1,222.7,953.3,223.5,953.3,224.3z M945.5,215.7c-0.4,0.4-0.6,0.9-0.6,1.6c0,0.7,0.2,1.2,0.6,1.5c0.4,0.3,0.9,0.6,1.6,0.8
			v-4.6C946.5,215,945.9,215.3,945.5,215.7z M950.1,226c0.4-0.4,0.6-1,0.6-1.6c0-0.6-0.2-1.1-0.6-1.4c-0.4-0.3-0.9-0.6-1.6-0.8v4.7
			C949.1,226.7,949.7,226.4,950.1,226z"/>
		<path fill="#FF475C" d="M975.9,216.3v2c0.8-1.5,2.2-2.2,4-2.2c1,0,1.8,0.2,2.6,0.7c0.8,0.5,1.3,1.1,1.7,2c0.4-0.8,1-1.5,1.8-2
			c0.8-0.5,1.7-0.7,2.6-0.7c1.4,0,2.6,0.5,3.5,1.4c0.9,0.9,1.4,2.2,1.4,3.9v7.4H991v-7c0-1.1-0.3-2-0.8-2.6
			c-0.6-0.6-1.3-0.9-2.3-0.9c-1,0-1.7,0.3-2.3,0.9c-0.6,0.6-0.8,1.5-0.8,2.6v7h-2.6v-7c0-1.1-0.3-2-0.8-2.6
			c-0.6-0.6-1.3-0.9-2.3-0.9c-1,0-1.7,0.3-2.3,0.9c-0.6,0.6-0.9,1.5-0.9,2.6v7h-2.6v-12.5H975.9z"/>
		<path fill="#FF475C" d="M1001.4,228.8V212h2.6v16.8H1001.4z"/>
		<path fill="#FF475C" d="M1014.5,216.3v2c0.8-1.5,2.2-2.2,4-2.2c1.4,0,2.6,0.5,3.5,1.4c0.9,0.9,1.4,2.2,1.4,3.9v7.4h-2.6v-7
			c0-1.1-0.3-2-0.8-2.6c-0.6-0.6-1.3-0.9-2.3-0.9c-1,0-1.7,0.3-2.3,0.9c-0.6,0.6-0.9,1.5-0.9,2.6v7h-2.6v-12.5H1014.5z"/>
	</g>
</g>
<g>
	<g>
		<path fill="#FF475C" d="M874.2,436.2L873,433h-6.6l-1.1,3.2h-2.7l5.7-15.8h3l5.6,15.8H874.2z M867.1,431h5.2l-2.6-7.4L867.1,431z"
			/>
		<path fill="#FF475C" d="M893.5,421.8c1,0.9,1.5,2,1.5,3.3c0,1.3-0.5,2.4-1.4,3.4c-0.9,0.9-2.3,1.4-4.2,1.4h-2.9v6.4h-2.6v-15.8
			h5.4C891.1,420.4,892.5,420.9,893.5,421.8z M886.5,427.8h2.9c1,0,1.7-0.2,2.2-0.7c0.5-0.5,0.7-1.1,0.7-2c0-0.8-0.2-1.5-0.7-2
			c-0.5-0.5-1.2-0.7-2.2-0.7h-2.9V427.8z"/>
		<path fill="#FF475C" d="M911.5,421.8c1,0.9,1.5,2,1.5,3.3c0,1.3-0.5,2.4-1.4,3.4c-0.9,0.9-2.3,1.4-4.2,1.4h-2.9v6.4h-2.6v-15.8
			h5.4C909.2,420.4,910.5,420.9,911.5,421.8z M904.5,427.8h2.9c1,0,1.7-0.2,2.2-0.7c0.5-0.5,0.7-1.1,0.7-2c0-0.8-0.2-1.5-0.7-2
			c-0.5-0.5-1.2-0.7-2.2-0.7h-2.9V427.8z"/>
		<path fill="#FF475C" d="M922.6,429.8v6.4H920v-15.8h5.4c1.8,0,3.2,0.4,4.1,1.3c1,0.9,1.5,2,1.5,3.4c0,1.1-0.3,2-1,2.9
			c-0.6,0.8-1.6,1.4-3,1.7l4.2,6.6h-3.2l-3.9-6.4H922.6z M922.6,422.5v5.3h2.9c1,0,1.7-0.2,2.2-0.7c0.5-0.5,0.7-1.1,0.7-2
			c0-0.8-0.2-1.5-0.7-2c-0.5-0.5-1.2-0.7-2.2-0.7H922.6z"/>
		<path fill="#FF475C" d="M946.1,436.4c-2.3,0-4.2-0.8-5.7-2.3c-1.6-1.5-2.3-3.4-2.3-5.8c0-2.3,0.8-4.3,2.3-5.8
			c1.6-1.5,3.5-2.3,5.7-2.3c2.3,0,4.2,0.8,5.7,2.3c1.6,1.5,2.3,3.5,2.3,5.8c0,2.3-0.8,4.3-2.3,5.8
			C950.2,435.6,948.3,436.4,946.1,436.4z M946.1,434c1.6,0,2.9-0.5,3.9-1.6c1-1.1,1.5-2.4,1.5-4.2c0-1.7-0.5-3.1-1.5-4.1
			c-1-1-2.3-1.6-3.9-1.6s-2.9,0.5-3.9,1.6c-1,1-1.5,2.4-1.5,4.1c0,1.7,0.5,3.1,1.5,4.2C943.2,433.5,944.5,434,946.1,434z"/>
		<path fill="#FF475C" d="M965.9,436.2l-5.9-15.8h2.8l4.7,13.1l4.7-13.1h2.7l-5.9,15.8H965.9z"/>
		<path fill="#FF475C" d="M990.2,420.4v2h-6.1v4.8h5.4v2h-5.4v5h6.1v2h-8.7v-15.8H990.2z"/>
		<path fill="#FF475C" d="M1003.1,420.4c2.5,0,4.6,0.7,6.1,2.1c1.5,1.4,2.3,3.4,2.3,5.8c0,2.4-0.8,4.3-2.3,5.7s-3.6,2.1-6.1,2.1
			h-5.2v-15.8H1003.1z M1000.5,434.2h2.6c1.8,0,3.2-0.5,4.2-1.6c1-1,1.5-2.5,1.5-4.3c0-1.8-0.5-3.3-1.5-4.3c-1-1-2.4-1.6-4.2-1.6
			h-2.6V434.2z"/>
		<path fill="#FF475C" d="M863,471.1v-1.9c0.4-0.3,0.9-0.8,1.7-1.4c0.7-0.6,1.3-1.1,1.7-1.4c0.4-0.3,0.9-0.8,1.4-1.3
			c0.6-0.5,1-1,1.3-1.4c0.3-0.4,0.6-0.8,1-1.3c0.6-0.9,0.9-1.8,0.9-2.6c0-1.9-0.9-2.8-2.7-2.8c-0.9,0-1.6,0.3-2.1,0.9
			c-0.5,0.6-0.8,1.3-0.8,2.3H863c0-1.7,0.6-3,1.6-4c1-0.9,2.3-1.4,3.9-1.4s2.8,0.4,3.8,1.3c0.9,0.9,1.4,2.1,1.4,3.5
			c0,1.1-0.3,2.2-0.9,3.2c-0.3,0.5-0.6,1-0.9,1.4c-0.3,0.4-0.7,0.9-1.2,1.4c-0.5,0.5-0.9,0.9-1.2,1.2c-0.3,0.3-0.7,0.7-1.3,1.2
			s-1,0.9-1.2,1.1h7.2v2.2H863z"/>
		<path fill="#FF475C" d="M880.4,454.9h10.9v1.9l-6.3,14.5h-2.8l6.6-14.3h-8.4V454.9z"/>
		<path fill="#FF475C" d="M904.2,456.5c-1.2,0-2.1,0.5-2.7,1.4c-0.6,0.9-0.9,2.4-0.9,4.6c0.4-0.7,1-1.2,1.7-1.5
			c0.8-0.4,1.6-0.5,2.4-0.5c1.5,0,2.7,0.5,3.7,1.5c0.9,1,1.4,2.3,1.4,3.9c0,1.7-0.5,3-1.4,4c-1,1-2.3,1.5-4,1.5
			c-2.3,0-4-0.8-4.8-2.4c-0.5-0.8-0.8-1.7-1-2.7c-0.2-1-0.3-2.2-0.3-3.6c0-5.5,2-8.3,5.9-8.3c1.5,0,2.7,0.4,3.6,1.2
			c0.9,0.8,1.4,1.8,1.5,3H907C906.6,457.2,905.7,456.5,904.2,456.5z M907.4,465.9c0-1-0.3-1.8-0.8-2.4c-0.5-0.6-1.3-0.9-2.3-0.9
			s-1.8,0.3-2.4,0.8c-0.6,0.6-1,1.4-1,2.4s0.3,1.9,0.9,2.5c0.6,0.6,1.4,0.9,2.4,0.9s1.8-0.3,2.4-0.9
			C907.1,467.7,907.4,466.9,907.4,465.9z"/>
		<path fill="#FF475C" d="M925.1,471.3v-3.4h-8.2v-2l7.6-10.9h3.1v10.6h2.1v2.2h-2.1v3.4H925.1z M925.2,465.6v-8l-5.4,8H925.2z"/>
		<path fill="#FF475C" d="M958.7,466.8c0,1.2-0.4,2.2-1.3,3.1c-0.9,0.9-2,1.4-3.5,1.5v1.8h-1.3v-1.8c-1.5-0.1-2.6-0.5-3.5-1.3
			c-0.9-0.8-1.3-1.8-1.3-3h2.8c0.1,1.3,0.8,2,2.1,2.2v-5c-1.4-0.3-2.3-0.6-2.9-1c-0.7-0.4-1.2-0.8-1.4-1.3c-0.4-0.6-0.5-1.4-0.5-2.2
			c0-1.3,0.4-2.3,1.3-3.2c0.9-0.8,2.1-1.3,3.5-1.4v-1.8h1.3v1.8c1.4,0.1,2.5,0.5,3.3,1.2c0.8,0.7,1.3,1.7,1.4,3h-2.8
			c0-0.5-0.2-0.9-0.6-1.3c-0.3-0.4-0.8-0.6-1.3-0.7v4.9c1.4,0.3,2.4,0.6,2.9,0.9c0.7,0.4,1.2,0.8,1.3,1.2
			C958.5,465.3,958.7,466,958.7,466.8z M951,458.2c-0.4,0.4-0.6,0.9-0.6,1.6c0,0.7,0.2,1.2,0.6,1.5c0.4,0.3,0.9,0.6,1.6,0.8v-4.6
			C951.9,457.6,951.4,457.8,951,458.2z M955.5,468.6c0.4-0.4,0.6-1,0.6-1.6c0-0.6-0.2-1.1-0.6-1.4c-0.4-0.3-0.9-0.6-1.6-0.8v4.7
			C954.6,469.3,955.2,469,955.5,468.6z"/>
		<path fill="#FF475C" d="M981.3,458.8v2c0.8-1.5,2.2-2.2,4-2.2c1,0,1.8,0.2,2.6,0.7c0.8,0.5,1.3,1.1,1.7,2c0.4-0.8,1-1.5,1.8-2
			c0.8-0.5,1.7-0.7,2.6-0.7c1.4,0,2.6,0.5,3.5,1.4c0.9,0.9,1.4,2.2,1.4,3.9v7.4h-2.6v-7c0-1.1-0.3-2-0.8-2.6
			c-0.6-0.6-1.3-0.9-2.3-0.9c-1,0-1.7,0.3-2.3,0.9c-0.6,0.6-0.8,1.5-0.8,2.6v7h-2.6v-7c0-1.1-0.3-2-0.8-2.6
			c-0.6-0.6-1.3-0.9-2.3-0.9s-1.7,0.3-2.3,0.9c-0.6,0.6-0.9,1.5-0.9,2.6v7h-2.6v-12.5H981.3z"/>
		<path fill="#FF475C" d="M1006.9,471.3v-16.8h2.6v16.8H1006.9z"/>
		<path fill="#FF475C" d="M1020,458.8v2c0.8-1.5,2.2-2.2,4-2.2c1.4,0,2.6,0.5,3.5,1.4c0.9,0.9,1.4,2.2,1.4,3.9v7.4h-2.6v-7
			c0-1.1-0.3-2-0.8-2.6s-1.3-0.9-2.3-0.9s-1.7,0.3-2.3,0.9s-0.9,1.5-0.9,2.6v7h-2.6v-12.5H1020z"/>
	</g>
</g>
<g>
	<g>
		<path fill="#EDEDED" d="M868.7,710.2c2.5,0,4.6,0.7,6.1,2.1c1.5,1.4,2.3,3.4,2.3,5.8s-0.8,4.3-2.3,5.7c-1.5,1.4-3.6,2.1-6.1,2.1
			h-5.2v-15.8H868.7z M866.1,724h2.6c1.8,0,3.2-0.5,4.2-1.6c1-1,1.5-2.5,1.5-4.3s-0.5-3.3-1.5-4.3c-1-1-2.4-1.6-4.2-1.6h-2.6V724z"
			/>
		<path fill="#EDEDED" d="M884.2,726v-15.8h2.6V726H884.2z"/>
		<path fill="#EDEDED" d="M899.6,712.2c-0.8,0-1.4,0.2-1.9,0.6c-0.5,0.4-0.7,1-0.7,1.7s0.3,1.3,0.9,1.7c0.6,0.4,1.3,0.7,2.1,0.9
			c0.8,0.2,1.6,0.4,2.5,0.6c0.8,0.2,1.5,0.7,2.1,1.3c0.6,0.6,0.9,1.5,0.9,2.7s-0.5,2.2-1.5,3.1c-1,0.9-2.3,1.4-3.9,1.4s-3-0.4-4-1.2
			c-1-0.8-1.5-1.8-1.5-3.2h2.8c0.1,0.7,0.3,1.2,0.8,1.7c0.5,0.4,1.1,0.6,2,0.6c0.9,0,1.6-0.2,2.1-0.7c0.5-0.5,0.8-1,0.8-1.6
			c0-0.6-0.2-1.1-0.5-1.5s-0.7-0.6-1.2-0.8c-0.5-0.2-1-0.3-1.6-0.5c-0.6-0.1-1.2-0.3-1.8-0.5c-0.6-0.2-1.1-0.4-1.6-0.7
			c-0.5-0.3-0.9-0.7-1.2-1.3c-0.3-0.6-0.5-1.2-0.5-2c0-1.4,0.5-2.5,1.5-3.3c1-0.8,2.3-1.3,3.9-1.3c1.6,0,2.8,0.4,3.8,1.1
			c0.9,0.7,1.5,1.8,1.6,3.2h-2.9c-0.1-0.6-0.3-1.1-0.8-1.5C901,712.4,900.4,712.2,899.6,712.2z"/>
		<path fill="#EDEDED" d="M912.9,710.2h6c1.6,0,2.9,0.4,3.8,1.2c0.9,0.8,1.3,1.8,1.3,3c0,1.8-1,2.9-3.1,3.5c1,0.2,1.9,0.6,2.5,1.4
			c0.6,0.7,0.9,1.6,0.9,2.6c0,1.2-0.5,2.2-1.4,3c-0.9,0.8-2.2,1.2-3.8,1.2h-6.3V710.2z M915.5,712.3v4.7h3.2c0.8,0,1.5-0.2,2-0.6
			c0.5-0.4,0.7-1,0.7-1.7c0-0.7-0.2-1.3-0.7-1.7c-0.5-0.4-1.1-0.6-2-0.6H915.5z M915.5,724h3.5c0.9,0,1.6-0.2,2.1-0.7
			c0.5-0.4,0.8-1,0.8-1.8s-0.3-1.4-0.8-1.9c-0.5-0.5-1.2-0.7-2.1-0.7h-3.4V724z"/>
		<path fill="#EDEDED" d="M931.8,720.3v-10h2.6v10c0,1.2,0.3,2.1,0.9,2.7c0.6,0.6,1.5,0.9,2.6,0.9c1.1,0,2-0.3,2.6-0.9
			c0.6-0.6,0.9-1.5,0.9-2.7v-10h2.6v10c0,1.9-0.6,3.4-1.8,4.4s-2.7,1.5-4.4,1.5c-1.8,0-3.2-0.5-4.4-1.5S931.8,722.2,931.8,720.3z"/>
		<path fill="#EDEDED" d="M954.6,719.6v6.4H952v-15.8h5.4c1.8,0,3.2,0.4,4.1,1.3c1,0.9,1.5,2,1.5,3.4c0,1.1-0.3,2-1,2.9
			c-0.6,0.8-1.6,1.4-3,1.7l4.2,6.6h-3.2l-4-6.4H954.6z M954.6,712.3v5.3h2.9c1,0,1.7-0.2,2.2-0.7c0.5-0.5,0.7-1.1,0.7-2
			s-0.2-1.5-0.7-2c-0.5-0.5-1.2-0.7-2.2-0.7H954.6z"/>
		<path fill="#EDEDED" d="M975.8,712.2c-0.8,0-1.4,0.2-1.9,0.6c-0.5,0.4-0.7,1-0.7,1.7s0.3,1.3,0.9,1.7c0.6,0.4,1.3,0.7,2.1,0.9
			c0.8,0.2,1.6,0.4,2.5,0.6c0.8,0.2,1.5,0.7,2.1,1.3c0.6,0.6,0.9,1.5,0.9,2.7s-0.5,2.2-1.5,3.1c-1,0.9-2.3,1.4-4,1.4
			c-1.6,0-3-0.4-4-1.2c-1-0.8-1.5-1.8-1.5-3.2h2.8c0.1,0.7,0.3,1.2,0.8,1.7c0.5,0.4,1.1,0.6,2,0.6c0.9,0,1.6-0.2,2.1-0.7
			c0.5-0.5,0.8-1,0.8-1.6c0-0.6-0.2-1.1-0.5-1.5c-0.3-0.3-0.7-0.6-1.2-0.8s-1-0.3-1.6-0.5c-0.6-0.1-1.2-0.3-1.8-0.5
			c-0.6-0.2-1.1-0.4-1.6-0.7c-0.5-0.3-0.9-0.7-1.2-1.3c-0.3-0.6-0.5-1.2-0.5-2c0-1.4,0.5-2.5,1.5-3.3c1-0.8,2.3-1.3,3.9-1.3
			c1.6,0,2.8,0.4,3.8,1.1c0.9,0.7,1.5,1.8,1.6,3.2h-2.9c-0.1-0.6-0.3-1.1-0.8-1.5C977.2,712.4,976.5,712.2,975.8,712.2z"/>
		<path fill="#EDEDED" d="M997.8,710.2v2h-6.1v4.8h5.4v2h-5.4v5h6.1v2h-8.7v-15.8H997.8z"/>
		<path fill="#EDEDED" d="M1010.7,710.2c2.5,0,4.6,0.7,6.1,2.1c1.5,1.4,2.3,3.4,2.3,5.8s-0.8,4.3-2.3,5.7c-1.5,1.4-3.6,2.1-6.1,2.1
			h-5.2v-15.8H1010.7z M1008.1,724h2.6c1.8,0,3.2-0.5,4.2-1.6c1-1,1.5-2.5,1.5-4.3s-0.5-3.3-1.5-4.3c-1-1-2.4-1.6-4.2-1.6h-2.6V724z
			"/>
		<path fill="#EDEDED" d="M863.6,748.5c0-1.3,0.5-2.3,1.4-3.2c0.9-0.9,2.3-1.3,4-1.3c1.7,0,3.1,0.4,4,1.3c0.9,0.9,1.4,1.9,1.4,3.2
			c0,0.8-0.2,1.6-0.6,2.2c-0.4,0.6-1,1.1-1.7,1.5c0.9,0.3,1.5,0.9,2,1.6c0.5,0.7,0.7,1.6,0.7,2.6c0,1.5-0.5,2.8-1.6,3.7
			c-1.1,0.9-2.5,1.4-4.2,1.4c-1.7,0-3.1-0.5-4.2-1.4c-1.1-0.9-1.6-2.2-1.6-3.7c0-1,0.2-1.9,0.7-2.6c0.5-0.7,1.2-1.2,2-1.6
			C864.4,751.5,863.6,750.2,863.6,748.5z M872.4,756.3c0-0.9-0.3-1.6-0.9-2.2c-0.6-0.5-1.4-0.8-2.4-0.8s-1.8,0.2-2.5,0.7
			c-0.6,0.5-0.9,1.2-0.9,2.2c0,0.9,0.3,1.7,0.9,2.2c0.6,0.6,1.4,0.8,2.5,0.8c1,0,1.9-0.3,2.5-0.8C872.1,758,872.4,757.2,872.4,756.3
			z M872,748.8c0-0.8-0.3-1.4-0.8-1.9c-0.5-0.5-1.3-0.7-2.2-0.7c-0.9,0-1.6,0.2-2.2,0.7c-0.5,0.5-0.8,1.1-0.8,1.9
			c0,0.8,0.3,1.5,0.8,1.9c0.6,0.5,1.3,0.7,2.1,0.7s1.6-0.2,2.1-0.7C871.8,750.2,872,749.6,872,748.8z"/>
		<path fill="#EDEDED" d="M888.4,758.9c1.1,0,1.9-0.4,2.4-1.3c0.5-0.8,0.7-2.3,0.7-4.3c-0.4,0.5-0.9,0.9-1.5,1.2
			c-0.7,0.3-1.4,0.4-2.1,0.4c-1.5,0-2.8-0.5-3.8-1.4c-1-0.9-1.5-2.2-1.5-3.9c0-1.7,0.5-3,1.5-4c1-1,2.3-1.5,4-1.5
			c2.1,0,3.5,0.7,4.4,2.1c0.9,1.4,1.3,3.5,1.3,6.4c0,2.9-0.4,5-1.2,6.4c-0.8,1.4-2.2,2.1-4.3,2.1c-1.6,0-2.9-0.4-3.7-1.3
			c-0.9-0.8-1.4-1.9-1.5-3.2h2.4C885.7,758.2,886.7,758.9,888.4,758.9z M885.1,749.6c0,0.9,0.3,1.7,0.8,2.3c0.5,0.6,1.3,0.9,2.3,0.9
			c1,0,1.8-0.3,2.3-0.9c0.5-0.6,0.8-1.3,0.8-2.3c0-1-0.3-1.8-0.8-2.4c-0.6-0.6-1.3-0.9-2.3-0.9c-1,0-1.7,0.3-2.3,0.9
			C885.4,747.8,885.1,748.6,885.1,749.6z"/>
		<path fill="#EDEDED" d="M901.6,748.5c0-1.3,0.5-2.3,1.4-3.2c0.9-0.9,2.3-1.3,4-1.3c1.7,0,3.1,0.4,4,1.3c0.9,0.9,1.4,1.9,1.4,3.2
			c0,0.8-0.2,1.6-0.6,2.2c-0.4,0.6-1,1.1-1.7,1.5c0.9,0.3,1.5,0.9,2,1.6c0.5,0.7,0.7,1.6,0.7,2.6c0,1.5-0.5,2.8-1.6,3.7
			c-1.1,0.9-2.5,1.4-4.2,1.4c-1.7,0-3.1-0.5-4.2-1.4c-1.1-0.9-1.6-2.2-1.6-3.7c0-1,0.2-1.9,0.7-2.6c0.5-0.7,1.2-1.2,2-1.6
			C902.4,751.5,901.6,750.2,901.6,748.5z M910.4,756.3c0-0.9-0.3-1.6-0.9-2.2s-1.4-0.8-2.4-0.8s-1.8,0.2-2.5,0.7
			c-0.6,0.5-0.9,1.2-0.9,2.2c0,0.9,0.3,1.7,0.9,2.2c0.6,0.6,1.4,0.8,2.5,0.8c1,0,1.9-0.3,2.5-0.8C910.1,758,910.4,757.2,910.4,756.3
			z M910,748.8c0-0.8-0.3-1.4-0.8-1.9c-0.5-0.5-1.3-0.7-2.2-0.7c-0.9,0-1.6,0.2-2.2,0.7c-0.5,0.5-0.8,1.1-0.8,1.9
			c0,0.8,0.3,1.5,0.8,1.9c0.6,0.5,1.3,0.7,2.1,0.7c0.9,0,1.6-0.2,2.1-0.7C909.7,750.2,910,749.6,910,748.8z"/>
		<path fill="#EDEDED" d="M942.5,756.6c0,1.2-0.4,2.2-1.3,3.1c-0.9,0.9-2,1.4-3.5,1.5v1.8h-1.3v-1.8c-1.5-0.1-2.6-0.5-3.5-1.3
			s-1.3-1.8-1.3-3h2.8c0.1,1.3,0.8,2,2.1,2.2v-5c-1.4-0.3-2.3-0.6-2.9-1c-0.7-0.4-1.2-0.8-1.4-1.3c-0.4-0.6-0.5-1.4-0.5-2.2
			c0-1.3,0.4-2.3,1.3-3.2c0.9-0.8,2.1-1.3,3.5-1.4v-1.8h1.3v1.8c1.4,0.1,2.5,0.5,3.3,1.2c0.8,0.7,1.3,1.7,1.4,3h-2.8
			c0-0.5-0.2-0.9-0.6-1.3c-0.3-0.4-0.8-0.6-1.3-0.7v4.9c1.4,0.3,2.4,0.6,2.9,0.9c0.7,0.4,1.2,0.8,1.3,1.2
			C942.3,755.1,942.5,755.8,942.5,756.6z M934.8,748c-0.4,0.4-0.6,0.9-0.6,1.6s0.2,1.2,0.6,1.5c0.4,0.3,0.9,0.6,1.6,0.8v-4.6
			C935.7,747.4,935.2,747.6,934.8,748z M939.3,758.3c0.4-0.4,0.6-1,0.6-1.6c0-0.6-0.2-1.1-0.6-1.4c-0.4-0.3-0.9-0.6-1.6-0.8v4.7
			C938.4,759,938.9,758.8,939.3,758.3z"/>
		<path fill="#EDEDED" d="M965.1,748.6v2c0.8-1.5,2.2-2.2,4-2.2c1,0,1.8,0.2,2.6,0.7c0.8,0.5,1.3,1.1,1.7,2c0.4-0.8,1-1.5,1.8-2
			c0.8-0.5,1.7-0.7,2.6-0.7c1.4,0,2.6,0.5,3.5,1.4c0.9,0.9,1.4,2.2,1.4,3.9v7.4h-2.6v-7c0-1.1-0.3-2-0.8-2.6
			c-0.6-0.6-1.3-0.9-2.3-0.9c-1,0-1.7,0.3-2.3,0.9c-0.6,0.6-0.8,1.5-0.8,2.6v7h-2.6v-7c0-1.1-0.3-2-0.8-2.6
			c-0.6-0.6-1.3-0.9-2.3-0.9c-1,0-1.7,0.3-2.3,0.9c-0.6,0.6-0.9,1.5-0.9,2.6v7h-2.6v-12.5H965.1z"/>
		<path fill="#EDEDED" d="M990.6,761.1v-16.8h2.6v16.8H990.6z"/>
		<path fill="#EDEDED" d="M1003.8,748.6v2c0.8-1.5,2.2-2.2,4-2.2c1.4,0,2.6,0.5,3.5,1.4c0.9,0.9,1.4,2.2,1.4,3.9v7.4h-2.6v-7
			c0-1.1-0.3-2-0.8-2.6c-0.6-0.6-1.3-0.9-2.3-0.9c-1,0-1.7,0.3-2.3,0.9c-0.6,0.6-0.9,1.5-0.9,2.6v7h-2.6v-12.5H1003.8z"/>
	</g>
</g>
<g>
	<polygon opacity="0.2" fill="#F5F5F5" enable-background="new    " points="564.5,758.3 418.7,758.3 271.6,437.7 711.7,436.2 	"/>
	<polygon opacity="0.2" fill="#F5F5F5" enable-background="new    " points="756.2,199 227.1,199 220.6,66.3 762.7,66.3 	"/>
	<polygon opacity="0.3" fill="#FF475C" enable-background="new    " points="711.7,436.2 271.5,436.2 227.1,199 755.3,199 	"/>
	<ellipse fill="#FF475C" cx="491.6" cy="199" rx="264.5" ry="43.9"/>
	<ellipse fill="#F5F5F5" cx="491.6" cy="66.3" rx="271" ry="45"/>
	<ellipse fill="#FF475C" cx="491.6" cy="436.2" rx="220.1" ry="47.8"/>
	<ellipse fill="#F5F5F5" cx="491.6" cy="758.3" rx="72.9" ry="15.8"/>
</g>
<g>
	<rect x="491.1" y="108.1" fill="#F5F5F5" width="571.5" height="2"/>
</g>
<g>
	<rect x="491.1" y="240.8" fill="#FF4A60" width="571.5" height="2"/>
</g>
<g>
	<rect x="491.1" y="481.7" fill="#FF4A60" width="571.5" height="2"/>
</g>
<g>
	<rect x="491.1" y="771.8" fill="#F5F5F5" width="571.5" height="2"/>
</g>
</svg>
