<?xml version="1.0" encoding="utf-8"?>
<!-- Generator: Adobe Illustrator 21.0.0, SVG Export Plug-In . SVG Version: 6.00 Build 0)  -->
<svg version="1.1" id="Livello_1" xmlns="http://www.w3.org/2000/svg" xmlns:xlink="http://www.w3.org/1999/xlink" x="0px" y="0px"
	 width="1744.3px" height="888.1px" viewBox="0 0 1744.3 888.1" style="enable-background:new 0 0 1744.3 888.1;"
	 xml:space="preserve">
<style type="text/css">
	.st0{fill:none;stroke:#FFFFFF;stroke-width:2;stroke-miterlimit:10;}
	.st1{enable-background:new    ;}
	.st2{fill:#FFFFFF;}
	.st3{fill:none;stroke:#FFFFFF;stroke-width:6;stroke-miterlimit:10;}
</style>
<path class="st0" d="M116.3,27.3v810 M193.2,782.4v54.9 M270.5,728.9v108.4 M347.7,707.4v129.9 M424.9,677.2v160.1 M502.1,646.8
	v190.5 M579.3,598.7v238.6 M656.5,567.3v270 M733.7,534.8v302.5 M810.9,515v322.3 M888.2,471.2v366.1 M965.4,461v376.3
	 M1042.6,451.6v385.7 M1119.8,427.5v409.8 M1197,380.1v457.2 M1274.2,367.1v470.2 M1351.4,375.9v461.4 M1428.6,278.4v558.9
	 M1505.9,254.1v583.2 M1583.1,217.8v619.5 M116.3,27.3h1544 M1660.3,27.3v810 M116.3,837.3h1544"/>
<g class="st1">
	<path class="st2" d="M87.5,743c0.3-0.3,0.6-0.5,1-0.7c0.4-0.2,0.9-0.3,1.6-0.3s1.2,0.1,1.6,0.4c0.5,0.3,0.8,0.6,1.1,1.1
		c0.5,0.9,0.7,2.1,0.7,3.6c0,1.9-0.3,3.3-1,4.1c-0.6,0.7-1.4,1-2.5,1c-2,0-3.1-1.2-3.4-3.5c-0.1-0.5-0.1-1-0.1-1.6
		c0-0.6,0-1.1,0.1-1.6c0.1-0.5,0.2-0.9,0.3-1.4C87.1,743.7,87.3,743.3,87.5,743z M91.9,744.4c-0.1-0.4-0.4-0.7-0.7-0.9
		c-0.3-0.2-0.7-0.3-1.1-0.3c-0.4,0-0.8,0.1-1.1,0.2s-0.5,0.3-0.7,0.6s-0.3,0.5-0.4,0.9c-0.1,0.4-0.2,0.7-0.2,1.1c0,0.3,0,0.7,0,1.2
		s0,0.9,0,1.2c0,0.3,0.1,0.7,0.2,1.1c0.1,0.4,0.2,0.7,0.4,0.9c0.2,0.2,0.4,0.4,0.7,0.6s0.6,0.2,1,0.2s0.7-0.1,1-0.2
		c0.3-0.1,0.5-0.3,0.7-0.6c0.2-0.2,0.3-0.5,0.4-0.9c0.1-0.6,0.2-1.3,0.2-2s0-1.3-0.1-1.8C92.1,745.2,92,744.8,91.9,744.4z"/>
</g>
<g class="st1">
	<path class="st2" d="M71.3,837V836h5.6v1.1H71.3z"/>
	<path class="st2" d="M80.1,841.6v-8.8H79v-1.1h2.4v9.9H80.1z"/>
	<path class="st2" d="M84.7,832.4c0.3-0.3,0.6-0.5,1-0.7c0.4-0.2,0.9-0.3,1.6-0.3s1.2,0.1,1.6,0.4c0.5,0.3,0.8,0.6,1.1,1.1
		c0.5,0.9,0.7,2.1,0.7,3.6c0,1.9-0.3,3.3-1,4.1c-0.6,0.7-1.4,1-2.5,1c-2,0-3.1-1.2-3.4-3.5c-0.1-0.5-0.1-1-0.1-1.6
		c0-0.6,0-1.1,0.1-1.6c0.1-0.5,0.2-0.9,0.3-1.4C84.3,833,84.5,832.7,84.7,832.4z M89.1,833.8c-0.1-0.4-0.4-0.7-0.7-0.9
		c-0.3-0.2-0.7-0.3-1.1-0.3c-0.4,0-0.8,0.1-1.1,0.2s-0.5,0.3-0.7,0.6s-0.3,0.5-0.4,0.9c-0.1,0.4-0.2,0.7-0.2,1.1c0,0.3,0,0.7,0,1.2
		s0,0.9,0,1.2c0,0.3,0.1,0.7,0.2,1.1c0.1,0.4,0.2,0.7,0.4,0.9c0.2,0.2,0.4,0.4,0.7,0.6s0.6,0.2,1,0.2s0.7-0.1,1-0.2
		c0.3-0.1,0.5-0.3,0.7-0.6c0.2-0.2,0.3-0.5,0.4-0.9c0.1-0.6,0.2-1.3,0.2-2s0-1.3-0.1-1.8C89.3,834.6,89.2,834.2,89.1,833.8z"/>
</g>
<g class="st1">
	<path class="st2" d="M81.5,662.3v-8.8h-1.1v-1.1h2.4v9.9H81.5z"/>
	<path class="st2" d="M86.1,653c0.3-0.3,0.6-0.5,1-0.7c0.4-0.2,0.9-0.3,1.6-0.3s1.2,0.1,1.6,0.4c0.5,0.3,0.8,0.6,1.1,1.1
		c0.5,0.9,0.7,2.1,0.7,3.6c0,1.9-0.3,3.3-1,4.1c-0.6,0.7-1.4,1-2.5,1c-2,0-3.1-1.2-3.4-3.5c-0.1-0.5-0.1-1-0.1-1.6
		c0-0.6,0-1.1,0.1-1.6c0.1-0.5,0.2-0.9,0.3-1.4C85.7,653.7,85.9,653.3,86.1,653z M90.5,654.4c-0.1-0.4-0.4-0.7-0.7-0.9
		c-0.3-0.2-0.7-0.3-1.1-0.3c-0.4,0-0.8,0.1-1.1,0.2s-0.5,0.3-0.7,0.6s-0.3,0.5-0.4,0.9c-0.1,0.4-0.2,0.7-0.2,1.1c0,0.3,0,0.7,0,1.2
		s0,0.9,0,1.2c0,0.3,0.1,0.7,0.2,1.1c0.1,0.4,0.2,0.7,0.4,0.9c0.2,0.2,0.4,0.4,0.7,0.6s0.6,0.2,1,0.2s0.7-0.1,1-0.2
		c0.3-0.1,0.5-0.3,0.7-0.6c0.2-0.2,0.3-0.5,0.4-0.9c0.1-0.6,0.2-1.3,0.2-2s0-1.3-0.1-1.8C90.7,655.2,90.6,654.8,90.5,654.4z"/>
</g>
<g class="st1">
	<path class="st2" d="M76.8,572.2v-0.9c0.2-0.2,0.6-0.5,1.1-0.9c0.5-0.4,0.8-0.7,1.1-0.9c0.2-0.2,0.5-0.5,0.9-0.9s0.7-0.7,0.9-0.9
		c0.2-0.2,0.4-0.5,0.6-0.8c0.4-0.6,0.6-1.2,0.6-1.8s-0.2-1.1-0.5-1.4s-0.8-0.5-1.4-0.5c-0.6,0-1.1,0.2-1.5,0.6
		c-0.3,0.4-0.5,0.9-0.6,1.6h-1.2c0-1,0.4-1.8,0.9-2.4c0.6-0.6,1.4-0.8,2.3-0.8s1.7,0.3,2.3,0.8c0.6,0.5,0.9,1.3,0.9,2.2
		c0,1.1-0.5,2.3-1.6,3.4c-0.4,0.4-0.7,0.7-0.9,0.9c-0.6,0.6-1.2,1.2-1.9,1.7h4.8v1.1H76.8z"/>
	<path class="st2" d="M86.1,563c0.3-0.3,0.6-0.5,1-0.7c0.4-0.2,0.9-0.3,1.6-0.3s1.2,0.1,1.6,0.4c0.5,0.3,0.8,0.6,1.1,1.1
		c0.5,0.9,0.7,2.1,0.7,3.6c0,1.9-0.3,3.3-1,4.1c-0.6,0.7-1.4,1-2.5,1c-2,0-3.1-1.2-3.4-3.5c-0.1-0.5-0.1-1-0.1-1.6
		c0-0.6,0-1.1,0.1-1.6c0.1-0.5,0.2-0.9,0.3-1.4C85.7,563.7,85.9,563.3,86.1,563z M90.5,564.4c-0.1-0.4-0.4-0.7-0.7-0.9
		c-0.3-0.2-0.7-0.3-1.1-0.3c-0.4,0-0.8,0.1-1.1,0.2s-0.5,0.3-0.7,0.6s-0.3,0.5-0.4,0.9c-0.1,0.4-0.2,0.7-0.2,1.1c0,0.3,0,0.7,0,1.2
		s0,0.9,0,1.2c0,0.3,0.1,0.7,0.2,1.1c0.1,0.4,0.2,0.7,0.4,0.9c0.2,0.2,0.4,0.4,0.7,0.6s0.6,0.2,1,0.2s0.7-0.1,1-0.2
		c0.3-0.1,0.5-0.3,0.7-0.6c0.2-0.2,0.3-0.5,0.4-0.9c0.1-0.6,0.2-1.3,0.2-2s0-1.3-0.1-1.8C90.7,565.2,90.6,564.8,90.5,564.4z"/>
</g>
<g class="st1">
	<path class="st2" d="M77.8,472.5c0.6-0.5,1.4-0.7,2.3-0.7s1.7,0.2,2.2,0.7c0.5,0.5,0.8,1.1,0.8,1.9c0,0.6-0.2,1-0.5,1.4
		c-0.3,0.4-0.7,0.7-1.2,0.8v0.1c0.6,0.2,1,0.5,1.3,0.9c0.3,0.5,0.5,1.1,0.5,1.8c0,0.8-0.3,1.4-0.8,1.9c-0.6,0.5-1.3,0.8-2.3,0.8
		s-1.8-0.3-2.4-0.8c-0.6-0.5-1-1.2-1.1-2.1h1.2c0,0.5,0.3,1,0.7,1.3c0.4,0.3,0.9,0.5,1.6,0.5s1.2-0.2,1.5-0.5
		c0.4-0.4,0.5-0.8,0.5-1.4c0-0.7-0.2-1.3-0.7-1.6c-0.5-0.3-1.2-0.5-2.1-0.5h-0.3v-1.1h0.4c1.8,0,2.6-0.6,2.6-1.7
		c0-0.5-0.2-0.9-0.5-1.2c-0.3-0.3-0.8-0.4-1.4-0.4c-0.6,0-1.1,0.1-1.4,0.4c-0.3,0.3-0.6,0.6-0.6,1.1h-1.2
		C76.8,473.6,77.1,473,77.8,472.5z"/>
	<path class="st2" d="M86.1,473c0.3-0.3,0.6-0.5,1-0.7c0.4-0.2,0.9-0.3,1.6-0.3s1.2,0.1,1.6,0.4c0.5,0.3,0.8,0.6,1.1,1.1
		c0.5,0.9,0.7,2.1,0.7,3.6c0,1.9-0.3,3.3-1,4.1c-0.6,0.7-1.4,1-2.5,1c-2,0-3.1-1.2-3.4-3.5c-0.1-0.5-0.1-1-0.1-1.6
		c0-0.6,0-1.1,0.1-1.6c0.1-0.5,0.2-0.9,0.3-1.4C85.7,473.7,85.9,473.3,86.1,473z M90.5,474.4c-0.1-0.4-0.4-0.7-0.7-0.9
		c-0.3-0.2-0.7-0.3-1.1-0.3c-0.4,0-0.8,0.1-1.1,0.2s-0.5,0.3-0.7,0.6s-0.3,0.5-0.4,0.9c-0.1,0.4-0.2,0.7-0.2,1.1c0,0.3,0,0.7,0,1.2
		s0,0.9,0,1.2c0,0.3,0.1,0.7,0.2,1.1c0.1,0.4,0.2,0.7,0.4,0.9c0.2,0.2,0.4,0.4,0.7,0.6s0.6,0.2,1,0.2s0.7-0.1,1-0.2
		c0.3-0.1,0.5-0.3,0.7-0.6c0.2-0.2,0.3-0.5,0.4-0.9c0.1-0.6,0.2-1.3,0.2-2s0-1.3-0.1-1.8C90.7,475.2,90.6,474.8,90.5,474.4z"/>
</g>
<g class="st1">
	<path class="st2" d="M81.1,392.3V390h-5.2v-0.9l4.8-6.9h1.6v6.7h1.4v1.1h-1.4v2.3H81.1z M81.1,388.9v-5.5l-3.8,5.5H81.1z"/>
	<path class="st2" d="M86.1,383c0.3-0.3,0.6-0.5,1-0.7c0.4-0.2,0.9-0.3,1.6-0.3s1.2,0.1,1.6,0.4c0.5,0.3,0.8,0.6,1.1,1.1
		c0.5,0.9,0.7,2.1,0.7,3.6c0,1.9-0.3,3.3-1,4.1c-0.6,0.7-1.4,1-2.5,1c-2,0-3.1-1.2-3.4-3.5c-0.1-0.5-0.1-1-0.1-1.6
		c0-0.6,0-1.1,0.1-1.6c0.1-0.5,0.2-0.9,0.3-1.4C85.7,383.7,85.9,383.3,86.1,383z M90.5,384.4c-0.1-0.4-0.4-0.7-0.7-0.9
		c-0.3-0.2-0.7-0.3-1.1-0.3c-0.4,0-0.8,0.1-1.1,0.2s-0.5,0.3-0.7,0.6s-0.3,0.5-0.4,0.9c-0.1,0.4-0.2,0.7-0.2,1.1c0,0.3,0,0.7,0,1.2
		s0,0.9,0,1.2c0,0.3,0.1,0.7,0.2,1.1c0.1,0.4,0.2,0.7,0.4,0.9c0.2,0.2,0.4,0.4,0.7,0.6s0.6,0.2,1,0.2s0.7-0.1,1-0.2
		c0.3-0.1,0.5-0.3,0.7-0.6c0.2-0.2,0.3-0.5,0.4-0.9c0.1-0.6,0.2-1.3,0.2-2s0-1.3-0.1-1.8C90.7,385.2,90.6,384.8,90.5,384.4z"/>
</g>
<g class="st1">
	<path class="st2" d="M76.5,292.1h6.1v1.1h-4.9v3.2c0.2-0.3,0.5-0.6,0.9-0.8c0.4-0.2,0.9-0.3,1.4-0.3c0.5,0,1,0.1,1.5,0.3
		c0.4,0.2,0.8,0.5,1,0.8c0.5,0.7,0.7,1.4,0.7,2.3c0,1.1-0.3,1.9-0.9,2.6c-0.6,0.7-1.4,1-2.5,1c-1.1,0-1.9-0.2-2.5-0.7
		c-0.6-0.5-1-1.1-1.1-2h1.2c0.1,0.5,0.4,0.9,0.8,1.2c0.4,0.3,0.9,0.4,1.6,0.4c0.7,0,1.2-0.2,1.6-0.7s0.6-1,0.6-1.8s-0.2-1.3-0.6-1.7
		s-0.9-0.6-1.7-0.6c-0.5,0-0.9,0.1-1.3,0.4c-0.4,0.3-0.6,0.6-0.8,1.1h-1.2V292.1z"/>
	<path class="st2" d="M86.1,293c0.3-0.3,0.6-0.5,1-0.7c0.4-0.2,0.9-0.3,1.6-0.3s1.2,0.1,1.6,0.4c0.5,0.3,0.8,0.6,1.1,1.1
		c0.5,0.9,0.7,2.1,0.7,3.6c0,1.9-0.3,3.3-1,4.1c-0.6,0.7-1.4,1-2.5,1c-2,0-3.1-1.2-3.4-3.5c-0.1-0.5-0.1-1-0.1-1.6
		c0-0.6,0-1.1,0.1-1.6c0.1-0.5,0.2-0.9,0.3-1.4C85.7,293.7,85.9,293.3,86.1,293z M90.5,294.4c-0.1-0.4-0.4-0.7-0.7-0.9
		c-0.3-0.2-0.7-0.3-1.1-0.3c-0.4,0-0.8,0.1-1.1,0.2s-0.5,0.3-0.7,0.6s-0.3,0.5-0.4,0.9c-0.1,0.4-0.2,0.7-0.2,1.1c0,0.3,0,0.7,0,1.2
		s0,0.9,0,1.2c0,0.3,0.1,0.7,0.2,1.1c0.1,0.4,0.2,0.7,0.4,0.9c0.2,0.2,0.4,0.4,0.7,0.6s0.6,0.2,1,0.2s0.7-0.1,1-0.2
		c0.3-0.1,0.5-0.3,0.7-0.6c0.2-0.2,0.3-0.5,0.4-0.9c0.1-0.6,0.2-1.3,0.2-2s0-1.3-0.1-1.8C90.7,295.2,90.6,294.8,90.5,294.4z"/>
</g>
<g class="st1">
	<path class="st2" d="M79.8,202.9c-0.8,0-1.5,0.3-1.9,0.9c-0.4,0.6-0.6,1.7-0.6,3.1c0.3-0.5,0.6-0.8,1.1-1.1c0.5-0.3,1-0.4,1.7-0.4
		c0.9,0,1.7,0.3,2.3,0.9c0.6,0.6,0.9,1.4,0.9,2.4c0,1-0.3,1.8-0.9,2.5s-1.4,1-2.4,1c-1.7,0-2.8-0.7-3.3-2.2c-0.3-0.8-0.4-2-0.4-3.4
		s0.3-2.7,0.9-3.5s1.5-1.3,2.7-1.3c0.9,0,1.6,0.2,2.1,0.7c0.5,0.5,0.8,1.1,0.9,1.8h-1.1c-0.1-0.5-0.3-0.8-0.6-1.1
		S80.4,202.9,79.8,202.9z M82,208.9c0-0.7-0.2-1.3-0.6-1.7c-0.4-0.4-0.9-0.6-1.6-0.6c-0.7,0-1.2,0.2-1.7,0.6s-0.7,0.9-0.7,1.7
		s0.2,1.3,0.6,1.7c0.4,0.4,1,0.6,1.7,0.6s1.3-0.2,1.7-0.6C81.8,210.2,82,209.6,82,208.9z"/>
	<path class="st2" d="M86.1,203c0.3-0.3,0.6-0.5,1-0.7c0.4-0.2,0.9-0.3,1.6-0.3s1.2,0.1,1.6,0.4c0.5,0.3,0.8,0.6,1.1,1.1
		c0.5,0.9,0.7,2.1,0.7,3.6c0,1.9-0.3,3.3-1,4.1c-0.6,0.7-1.4,1-2.5,1c-2,0-3.1-1.2-3.4-3.5c-0.1-0.5-0.1-1-0.1-1.6
		c0-0.6,0-1.1,0.1-1.6c0.1-0.5,0.2-0.9,0.3-1.4C85.7,203.7,85.9,203.3,86.1,203z M90.5,204.4c-0.1-0.4-0.4-0.7-0.7-0.9
		c-0.3-0.2-0.7-0.3-1.1-0.3c-0.4,0-0.8,0.1-1.1,0.2s-0.5,0.3-0.7,0.6s-0.3,0.5-0.4,0.9c-0.1,0.4-0.2,0.7-0.2,1.1c0,0.3,0,0.7,0,1.2
		s0,0.9,0,1.2c0,0.3,0.1,0.7,0.2,1.1c0.1,0.4,0.2,0.7,0.4,0.9c0.2,0.2,0.4,0.4,0.7,0.6s0.6,0.2,1,0.2s0.7-0.1,1-0.2
		c0.3-0.1,0.5-0.3,0.7-0.6c0.2-0.2,0.3-0.5,0.4-0.9c0.1-0.6,0.2-1.3,0.2-2s0-1.3-0.1-1.8C90.7,205.2,90.6,204.8,90.5,204.4z"/>
</g>
<g class="st1">
	<path class="st2" d="M76.9,112.1h6.7v1l-4,9.2h-1.4l4.2-9.1h-5.5V112.1z"/>
	<path class="st2" d="M86.1,113c0.3-0.3,0.6-0.5,1-0.7c0.4-0.2,0.9-0.3,1.6-0.3s1.2,0.1,1.6,0.4c0.5,0.3,0.8,0.6,1.1,1.1
		c0.5,0.9,0.7,2.1,0.7,3.6c0,1.9-0.3,3.3-1,4.1c-0.6,0.7-1.4,1-2.5,1c-2,0-3.1-1.2-3.4-3.5c-0.1-0.5-0.1-1-0.1-1.6
		c0-0.6,0-1.1,0.1-1.6c0.1-0.5,0.2-0.9,0.3-1.4C85.7,113.7,85.9,113.3,86.1,113z M90.5,114.4c-0.1-0.4-0.4-0.7-0.7-0.9
		c-0.3-0.2-0.7-0.3-1.1-0.3c-0.4,0-0.8,0.1-1.1,0.2s-0.5,0.3-0.7,0.6s-0.3,0.5-0.4,0.9c-0.1,0.4-0.2,0.7-0.2,1.1c0,0.3,0,0.7,0,1.2
		s0,0.9,0,1.2c0,0.3,0.1,0.7,0.2,1.1c0.1,0.4,0.2,0.7,0.4,0.9c0.2,0.2,0.4,0.4,0.7,0.6s0.6,0.2,1,0.2s0.7-0.1,1-0.2
		c0.3-0.1,0.5-0.3,0.7-0.6c0.2-0.2,0.3-0.5,0.4-0.9c0.1-0.6,0.2-1.3,0.2-2s0-1.3-0.1-1.8C90.7,115.2,90.6,114.8,90.5,114.4z"/>
</g>
<g class="st1">
	<path class="st2" d="M76.4,24.5c0-0.8,0.3-1.4,0.9-2c0.6-0.5,1.4-0.8,2.4-0.8c1.1,0,1.9,0.3,2.4,0.8c0.6,0.5,0.9,1.2,0.9,2
		c0,0.5-0.1,1-0.4,1.4c-0.3,0.4-0.6,0.7-1.1,0.9c0.5,0.2,1,0.5,1.3,1s0.5,1,0.5,1.7c0,0.9-0.3,1.7-1,2.3c-0.7,0.6-1.5,0.8-2.6,0.8
		s-1.9-0.3-2.6-0.8c-0.7-0.6-1-1.3-1-2.3c0-0.6,0.2-1.2,0.5-1.7s0.8-0.8,1.3-1C76.9,26.4,76.4,25.6,76.4,24.5z M82,29.4
		c0-0.6-0.2-1.1-0.6-1.5s-1-0.5-1.7-0.5s-1.3,0.2-1.7,0.5c-0.4,0.3-0.7,0.8-0.7,1.5c0,0.6,0.2,1.2,0.6,1.5c0.4,0.4,1,0.6,1.7,0.6
		s1.3-0.2,1.7-0.6S82,30,82,29.4z M81.8,24.6c0-0.5-0.2-1-0.6-1.3c-0.4-0.3-0.9-0.5-1.5-0.5c-0.6,0-1.2,0.2-1.5,0.5
		c-0.4,0.3-0.6,0.7-0.6,1.3c0,0.5,0.2,1,0.6,1.3c0.4,0.3,0.9,0.5,1.5,0.5s1.1-0.2,1.5-0.5C81.6,25.6,81.8,25.1,81.8,24.6z"/>
	<path class="st2" d="M86.1,23c0.3-0.3,0.6-0.5,1-0.7c0.4-0.2,0.9-0.3,1.6-0.3s1.2,0.1,1.6,0.4c0.5,0.3,0.8,0.6,1.1,1.1
		c0.5,0.9,0.7,2.1,0.7,3.6c0,1.9-0.3,3.3-1,4.1c-0.6,0.7-1.4,1-2.5,1c-2,0-3.1-1.2-3.4-3.5c-0.1-0.5-0.1-1-0.1-1.6
		c0-0.6,0-1.1,0.1-1.6c0.1-0.5,0.2-0.9,0.3-1.4C85.7,23.7,85.9,23.3,86.1,23z M90.5,24.4c-0.1-0.4-0.4-0.7-0.7-0.9
		c-0.3-0.2-0.7-0.3-1.1-0.3c-0.4,0-0.8,0.1-1.1,0.2s-0.5,0.3-0.7,0.6s-0.3,0.5-0.4,0.9c-0.1,0.4-0.2,0.7-0.2,1.1c0,0.3,0,0.7,0,1.2
		s0,0.9,0,1.2c0,0.3,0.1,0.7,0.2,1.1c0.1,0.4,0.2,0.7,0.4,0.9c0.2,0.2,0.4,0.4,0.7,0.6s0.6,0.2,1,0.2s0.7-0.1,1-0.2
		c0.3-0.1,0.5-0.3,0.7-0.6c0.2-0.2,0.3-0.5,0.4-0.9c0.1-0.6,0.2-1.3,0.2-2s0-1.3-0.1-1.8C90.7,25.2,90.6,24.8,90.5,24.4z"/>
</g>
<g class="st1">
	<path class="st2" d="M95.7,872.3V861h-1.5v-1.5h3.1v12.8H95.7z"/>
	<path class="st2" d="M105.1,870.9c1,0,1.7-0.4,2.1-1.1c0.4-0.7,0.7-2,0.7-3.9c-0.3,0.5-0.7,0.8-1.3,1.1s-1.2,0.4-1.8,0.4
		c-1.2,0-2.2-0.4-3-1.1c-0.8-0.8-1.2-1.8-1.2-3.1s0.4-2.4,1.1-3.1s1.8-1.2,3.1-1.2c1.6,0,2.7,0.5,3.4,1.6s1,2.8,1,5.1
		c0,2.3-0.3,4-0.9,5.1c-0.6,1.1-1.7,1.7-3.3,1.7c-1.2,0-2.2-0.3-2.8-1s-1.1-1.4-1.2-2.4h1.5C102.7,870.2,103.6,870.9,105.1,870.9z
		 M102.1,863.1c0,0.9,0.2,1.6,0.7,2.1c0.5,0.5,1.2,0.8,2.1,0.8s1.6-0.3,2-0.8c0.5-0.5,0.7-1.2,0.7-2.1c0-0.9-0.2-1.6-0.7-2.1
		c-0.5-0.5-1.2-0.8-2-0.8s-1.5,0.3-2,0.8C102.4,861.6,102.1,862.3,102.1,863.1z"/>
	<path class="st2" d="M116.5,870.9c1,0,1.7-0.4,2.1-1.1c0.4-0.7,0.7-2,0.7-3.9c-0.3,0.5-0.7,0.8-1.3,1.1s-1.2,0.4-1.8,0.4
		c-1.2,0-2.2-0.4-3-1.1c-0.8-0.8-1.2-1.8-1.2-3.1s0.4-2.4,1.1-3.1s1.8-1.2,3.1-1.2c1.6,0,2.7,0.5,3.4,1.6s1,2.8,1,5.1
		c0,2.3-0.3,4-0.9,5.1c-0.6,1.1-1.7,1.7-3.3,1.7c-1.2,0-2.2-0.3-2.8-1s-1.1-1.4-1.2-2.4h1.5C114.1,870.2,115,870.9,116.5,870.9z
		 M113.6,863.1c0,0.9,0.2,1.6,0.7,2.1c0.5,0.5,1.2,0.8,2.1,0.8s1.6-0.3,2-0.8c0.5-0.5,0.7-1.2,0.7-2.1c0-0.9-0.2-1.6-0.7-2.1
		c-0.5-0.5-1.2-0.8-2-0.8s-1.5,0.3-2,0.8C113.8,861.6,113.6,862.3,113.6,863.1z"/>
	<path class="st2" d="M123.6,859.1h7.8v1.4h-6.3v4.1c0.3-0.4,0.7-0.7,1.2-1c0.5-0.3,1.2-0.4,1.8-0.4c0.7,0,1.3,0.1,1.9,0.4
		c0.6,0.3,1,0.6,1.3,1.1c0.6,0.9,0.9,1.8,0.9,3c0,1.4-0.4,2.5-1.1,3.3c-0.8,0.9-1.8,1.3-3.2,1.3s-2.4-0.3-3.2-1
		c-0.8-0.6-1.3-1.5-1.4-2.5h1.6c0.2,0.6,0.5,1.2,1,1.5c0.5,0.4,1.2,0.6,2.1,0.6s1.5-0.3,2-0.9s0.7-1.3,0.7-2.3c0-1-0.2-1.7-0.7-2.2
		c-0.5-0.5-1.2-0.8-2.2-0.8c-0.6,0-1.2,0.2-1.7,0.5c-0.5,0.3-0.8,0.8-1,1.4h-1.5V859.1z"/>
</g>
<g class="st1">
	<path class="st2" d="M172.8,872.3V861h-1.5v-1.5h3.1v12.8H172.8z"/>
	<path class="st2" d="M182.2,870.9c1,0,1.7-0.4,2.1-1.1c0.4-0.7,0.7-2,0.7-3.9c-0.3,0.5-0.7,0.8-1.3,1.1s-1.2,0.4-1.8,0.4
		c-1.2,0-2.2-0.4-3-1.1c-0.8-0.8-1.2-1.8-1.2-3.1s0.4-2.4,1.1-3.1s1.8-1.2,3.1-1.2c1.6,0,2.7,0.5,3.4,1.6s1,2.8,1,5.1
		c0,2.3-0.3,4-0.9,5.1c-0.6,1.1-1.7,1.7-3.3,1.7c-1.2,0-2.2-0.3-2.8-1s-1.1-1.4-1.2-2.4h1.5C179.8,870.2,180.7,870.9,182.2,870.9z
		 M179.3,863.1c0,0.9,0.2,1.6,0.7,2.1c0.5,0.5,1.2,0.8,2.1,0.8s1.6-0.3,2-0.8c0.5-0.5,0.7-1.2,0.7-2.1c0-0.9-0.2-1.6-0.7-2.1
		c-0.5-0.5-1.2-0.8-2-0.8s-1.5,0.3-2,0.8C179.5,861.6,179.3,862.3,179.3,863.1z"/>
	<path class="st2" d="M193.7,870.9c1,0,1.7-0.4,2.1-1.1c0.4-0.7,0.7-2,0.7-3.9c-0.3,0.5-0.7,0.8-1.3,1.1s-1.2,0.4-1.8,0.4
		c-1.2,0-2.2-0.4-3-1.1c-0.8-0.8-1.2-1.8-1.2-3.1s0.4-2.4,1.1-3.1s1.8-1.2,3.1-1.2c1.6,0,2.7,0.5,3.4,1.6s1,2.8,1,5.1
		c0,2.3-0.3,4-0.9,5.1c-0.6,1.1-1.7,1.7-3.3,1.7c-1.2,0-2.2-0.3-2.8-1s-1.1-1.4-1.2-2.4h1.5C191.3,870.2,192.2,870.9,193.7,870.9z
		 M190.7,863.1c0,0.9,0.2,1.6,0.7,2.1c0.5,0.5,1.2,0.8,2.1,0.8s1.6-0.3,2-0.8c0.5-0.5,0.7-1.2,0.7-2.1c0-0.9-0.2-1.6-0.7-2.1
		c-0.5-0.5-1.2-0.8-2-0.8s-1.5,0.3-2,0.8C190.9,861.6,190.7,862.3,190.7,863.1z"/>
	<path class="st2" d="M205.1,860.2c-1.1,0-1.9,0.4-2.4,1.2c-0.5,0.8-0.8,2.1-0.8,4c0.3-0.6,0.8-1,1.4-1.4c0.6-0.3,1.3-0.5,2.1-0.5
		c1.2,0,2.2,0.4,2.9,1.2c0.7,0.8,1.1,1.8,1.1,3.1c0,1.3-0.4,2.4-1.1,3.2c-0.7,0.8-1.8,1.2-3.2,1.2c-2.2,0-3.6-0.9-4.2-2.8
		c-0.3-1-0.5-2.5-0.5-4.4c0-1.9,0.4-3.4,1.1-4.6c0.7-1.1,1.9-1.7,3.5-1.7c1.2,0,2.1,0.3,2.7,0.9c0.7,0.6,1.1,1.4,1.2,2.3h-1.5
		c-0.2-0.6-0.4-1.1-0.8-1.4C206.4,860.4,205.8,860.2,205.1,860.2z M207.9,868c0-0.9-0.2-1.6-0.7-2.2s-1.1-0.8-2-0.8
		s-1.6,0.2-2.2,0.7c-0.6,0.5-0.9,1.2-0.9,2.1c0,0.9,0.3,1.7,0.8,2.2s1.2,0.8,2.2,0.8c0.9,0,1.6-0.3,2.1-0.8
		C207.7,869.6,207.9,868.9,207.9,868z"/>
</g>
<g class="st1">
	<path class="st2" d="M250.8,872.3V861h-1.5v-1.5h3.1v12.8H250.8z"/>
	<path class="st2" d="M260.2,870.9c1,0,1.7-0.4,2.1-1.1c0.4-0.7,0.7-2,0.7-3.9c-0.3,0.5-0.7,0.8-1.3,1.1s-1.2,0.4-1.8,0.4
		c-1.2,0-2.2-0.4-3-1.1c-0.8-0.8-1.2-1.8-1.2-3.1s0.4-2.4,1.1-3.1s1.8-1.2,3.1-1.2c1.6,0,2.7,0.5,3.4,1.6s1,2.8,1,5.1
		c0,2.3-0.3,4-0.9,5.1c-0.6,1.1-1.7,1.7-3.3,1.7c-1.2,0-2.2-0.3-2.8-1s-1.1-1.4-1.2-2.4h1.5C257.8,870.2,258.7,870.9,260.2,870.9z
		 M257.2,863.1c0,0.9,0.2,1.6,0.7,2.1c0.5,0.5,1.2,0.8,2.1,0.8s1.6-0.3,2-0.8c0.5-0.5,0.7-1.2,0.7-2.1c0-0.9-0.2-1.6-0.7-2.1
		c-0.5-0.5-1.2-0.8-2-0.8s-1.5,0.3-2,0.8C257.5,861.6,257.2,862.3,257.2,863.1z"/>
	<path class="st2" d="M271.6,870.9c1,0,1.7-0.4,2.1-1.1c0.4-0.7,0.7-2,0.7-3.9c-0.3,0.5-0.7,0.8-1.3,1.1s-1.2,0.4-1.8,0.4
		c-1.2,0-2.2-0.4-3-1.1c-0.8-0.8-1.2-1.8-1.2-3.1s0.4-2.4,1.1-3.1s1.8-1.2,3.1-1.2c1.6,0,2.7,0.5,3.4,1.6s1,2.8,1,5.1
		c0,2.3-0.3,4-0.9,5.1c-0.6,1.1-1.7,1.7-3.3,1.7c-1.2,0-2.2-0.3-2.8-1s-1.1-1.4-1.2-2.4h1.5C269.2,870.2,270.1,870.9,271.6,870.9z
		 M268.6,863.1c0,0.9,0.2,1.6,0.7,2.1c0.5,0.5,1.2,0.8,2.1,0.8s1.6-0.3,2-0.8c0.5-0.5,0.7-1.2,0.7-2.1c0-0.9-0.2-1.6-0.7-2.1
		c-0.5-0.5-1.2-0.8-2-0.8s-1.5,0.3-2,0.8C268.9,861.6,268.6,862.3,268.6,863.1z"/>
	<path class="st2" d="M277.8,859.2h8.7v1.2l-5.1,11.9h-1.8l5.4-11.7h-7.1V859.2z"/>
</g>
<g class="st1">
	<path class="st2" d="M327.3,872.3V861h-1.5v-1.5h3.1v12.8H327.3z"/>
	<path class="st2" d="M336.7,870.9c1,0,1.7-0.4,2.1-1.1c0.4-0.7,0.7-2,0.7-3.9c-0.3,0.5-0.7,0.8-1.3,1.1s-1.2,0.4-1.8,0.4
		c-1.2,0-2.2-0.4-3-1.1c-0.8-0.8-1.2-1.8-1.2-3.1s0.4-2.4,1.1-3.1s1.8-1.2,3.1-1.2c1.6,0,2.7,0.5,3.4,1.6s1,2.8,1,5.1
		c0,2.3-0.3,4-0.9,5.1c-0.6,1.1-1.7,1.7-3.3,1.7c-1.2,0-2.2-0.3-2.8-1s-1.1-1.4-1.2-2.4h1.5C334.3,870.2,335.2,870.9,336.7,870.9z
		 M333.8,863.1c0,0.9,0.2,1.6,0.7,2.1c0.5,0.5,1.2,0.8,2.1,0.8s1.6-0.3,2-0.8c0.5-0.5,0.7-1.2,0.7-2.1c0-0.9-0.2-1.6-0.7-2.1
		c-0.5-0.5-1.2-0.8-2-0.8s-1.5,0.3-2,0.8C334,861.6,333.8,862.3,333.8,863.1z"/>
	<path class="st2" d="M348.2,870.9c1,0,1.7-0.4,2.1-1.1c0.4-0.7,0.7-2,0.7-3.9c-0.3,0.5-0.7,0.8-1.3,1.1s-1.2,0.4-1.8,0.4
		c-1.2,0-2.2-0.4-3-1.1c-0.8-0.8-1.2-1.8-1.2-3.1s0.4-2.4,1.1-3.1s1.8-1.2,3.1-1.2c1.6,0,2.7,0.5,3.4,1.6s1,2.8,1,5.1
		c0,2.3-0.3,4-0.9,5.1c-0.6,1.1-1.7,1.7-3.3,1.7c-1.2,0-2.2-0.3-2.8-1s-1.1-1.4-1.2-2.4h1.5C345.8,870.2,346.7,870.9,348.2,870.9z
		 M345.2,863.1c0,0.9,0.2,1.6,0.7,2.1c0.5,0.5,1.2,0.8,2.1,0.8s1.6-0.3,2-0.8c0.5-0.5,0.7-1.2,0.7-2.1c0-0.9-0.2-1.6-0.7-2.1
		c-0.5-0.5-1.2-0.8-2-0.8s-1.5,0.3-2,0.8C345.4,861.6,345.2,862.3,345.2,863.1z"/>
	<path class="st2" d="M355.1,862.3c0-1,0.4-1.9,1.1-2.5s1.8-1,3.1-1c1.4,0,2.4,0.3,3.1,1c0.7,0.7,1.1,1.5,1.1,2.5
		c0,0.7-0.2,1.3-0.5,1.8c-0.4,0.5-0.8,0.9-1.4,1.2c0.7,0.2,1.2,0.6,1.7,1.2c0.4,0.6,0.6,1.3,0.6,2.1c0,1.2-0.4,2.2-1.3,2.9
		c-0.8,0.7-1.9,1.1-3.3,1.1s-2.5-0.4-3.3-1.1c-0.8-0.7-1.3-1.7-1.3-2.9c0-0.8,0.2-1.5,0.6-2.1c0.4-0.6,1-1,1.7-1.2
		C355.7,864.7,355.1,863.7,355.1,862.3z M362.3,868.6c0-0.8-0.3-1.5-0.8-1.9c-0.6-0.4-1.3-0.7-2.2-0.7s-1.6,0.2-2.2,0.7
		c-0.6,0.4-0.8,1.1-0.8,1.9s0.3,1.5,0.8,2c0.5,0.5,1.3,0.7,2.2,0.7c0.9,0,1.7-0.2,2.2-0.7S362.3,869.4,362.3,868.6z M362,862.4
		c0-0.7-0.2-1.2-0.7-1.6s-1.1-0.6-2-0.6s-1.5,0.2-2,0.6c-0.5,0.4-0.7,1-0.7,1.6c0,0.7,0.2,1.3,0.7,1.7s1.1,0.6,1.9,0.6
		s1.4-0.2,1.9-0.6C361.7,863.7,362,863.1,362,862.4z"/>
</g>
<g class="st1">
	<path class="st2" d="M404.6,872.3V861h-1.5v-1.5h3.1v12.8H404.6z"/>
	<path class="st2" d="M413.9,870.9c1,0,1.7-0.4,2.1-1.1c0.4-0.7,0.7-2,0.7-3.9c-0.3,0.5-0.7,0.8-1.3,1.1s-1.2,0.4-1.8,0.4
		c-1.2,0-2.2-0.4-3-1.1c-0.8-0.8-1.2-1.8-1.2-3.1s0.4-2.4,1.1-3.1s1.8-1.2,3.1-1.2c1.6,0,2.7,0.5,3.4,1.6s1,2.8,1,5.1
		c0,2.3-0.3,4-0.9,5.1c-0.6,1.1-1.7,1.7-3.3,1.7c-1.2,0-2.2-0.3-2.8-1s-1.1-1.4-1.2-2.4h1.5C411.6,870.2,412.4,870.9,413.9,870.9z
		 M411,863.1c0,0.9,0.2,1.6,0.7,2.1c0.5,0.5,1.2,0.8,2.1,0.8s1.6-0.3,2-0.8c0.5-0.5,0.7-1.2,0.7-2.1c0-0.9-0.2-1.6-0.7-2.1
		c-0.5-0.5-1.2-0.8-2-0.8s-1.5,0.3-2,0.8C411.2,861.6,411,862.3,411,863.1z"/>
	<path class="st2" d="M425.4,870.9c1,0,1.7-0.4,2.1-1.1c0.4-0.7,0.7-2,0.7-3.9c-0.3,0.5-0.7,0.8-1.3,1.1s-1.2,0.4-1.8,0.4
		c-1.2,0-2.2-0.4-3-1.1c-0.8-0.8-1.2-1.8-1.2-3.1s0.4-2.4,1.1-3.1s1.8-1.2,3.1-1.2c1.6,0,2.7,0.5,3.4,1.6s1,2.8,1,5.1
		c0,2.3-0.3,4-0.9,5.1c-0.6,1.1-1.7,1.7-3.3,1.7c-1.2,0-2.2-0.3-2.8-1s-1.1-1.4-1.2-2.4h1.5C423,870.2,423.9,870.9,425.4,870.9z
		 M422.4,863.1c0,0.9,0.2,1.6,0.7,2.1c0.5,0.5,1.2,0.8,2.1,0.8s1.6-0.3,2-0.8c0.5-0.5,0.7-1.2,0.7-2.1c0-0.9-0.2-1.6-0.7-2.1
		c-0.5-0.5-1.2-0.8-2-0.8s-1.5,0.3-2,0.8C422.6,861.6,422.4,862.3,422.4,863.1z"/>
	<path class="st2" d="M436.8,870.9c1,0,1.7-0.4,2.1-1.1c0.4-0.7,0.7-2,0.7-3.9c-0.3,0.5-0.7,0.8-1.3,1.1s-1.2,0.4-1.8,0.4
		c-1.2,0-2.2-0.4-3-1.1c-0.8-0.8-1.2-1.8-1.2-3.1s0.4-2.4,1.1-3.1s1.8-1.2,3.1-1.2c1.6,0,2.7,0.5,3.4,1.6s1,2.8,1,5.1
		c0,2.3-0.3,4-0.9,5.1c-0.6,1.1-1.7,1.7-3.3,1.7c-1.2,0-2.2-0.3-2.8-1s-1.1-1.4-1.2-2.4h1.5C434.4,870.2,435.3,870.9,436.8,870.9z
		 M433.8,863.1c0,0.9,0.2,1.6,0.7,2.1c0.5,0.5,1.2,0.8,2.1,0.8s1.6-0.3,2-0.8c0.5-0.5,0.7-1.2,0.7-2.1c0-0.9-0.2-1.6-0.7-2.1
		c-0.5-0.5-1.2-0.8-2-0.8s-1.5,0.3-2,0.8C434.1,861.6,433.8,862.3,433.8,863.1z"/>
</g>
<g class="st1">
	<path class="st2" d="M478,872.1V871c0.3-0.3,0.7-0.6,1.4-1.2c0.6-0.5,1.1-0.9,1.4-1.2c0.3-0.3,0.7-0.6,1.2-1.1
		c0.5-0.5,0.9-0.8,1.1-1.2c0.3-0.3,0.5-0.7,0.8-1.1c0.5-0.8,0.8-1.5,0.8-2.3s-0.2-1.4-0.6-1.8s-1-0.7-1.8-0.7s-1.5,0.3-1.9,0.8
		c-0.4,0.5-0.7,1.2-0.7,2H478c0-1.3,0.5-2.4,1.2-3.1c0.8-0.7,1.8-1.1,3-1.1s2.2,0.3,2.9,1c0.7,0.7,1.1,1.6,1.1,2.8
		c0,1.4-0.7,2.9-2.1,4.4c-0.5,0.5-0.9,0.9-1.2,1.2c-0.8,0.7-1.6,1.5-2.5,2.2h6.1v1.4H478z"/>
	<path class="st2" d="M490,860.4c0.3-0.4,0.8-0.7,1.3-0.9c0.5-0.2,1.2-0.3,2-0.3s1.5,0.2,2.1,0.5s1.1,0.8,1.4,1.4
		c0.6,1.2,0.9,2.7,0.9,4.6c0,2.5-0.4,4.3-1.3,5.3c-0.7,0.8-1.8,1.3-3.2,1.3c-2.6,0-4-1.5-4.4-4.5c-0.1-0.6-0.1-1.3-0.1-2.1
		c0-0.8,0-1.5,0.1-2.1c0.1-0.6,0.2-1.2,0.4-1.8C489.4,861.3,489.7,860.8,490,860.4z M495.6,862.2c-0.2-0.5-0.5-0.9-0.9-1.2
		c-0.4-0.3-0.9-0.4-1.5-0.4s-1,0.1-1.4,0.3c-0.4,0.2-0.7,0.4-0.9,0.7s-0.4,0.7-0.5,1.2c-0.1,0.5-0.2,0.9-0.2,1.4c0,0.4,0,1,0,1.6
		s0,1.1,0,1.6c0,0.4,0.1,0.9,0.2,1.4c0.1,0.5,0.3,0.9,0.5,1.2s0.5,0.5,0.9,0.7c0.4,0.2,0.8,0.3,1.3,0.3s0.9-0.1,1.3-0.3
		c0.4-0.2,0.7-0.4,0.9-0.7s0.4-0.7,0.5-1.2c0.2-0.8,0.3-1.6,0.3-2.6c0-1,0-1.7-0.1-2.2C495.9,863.2,495.8,862.7,495.6,862.2z"/>
	<path class="st2" d="M501.4,860.4c0.3-0.4,0.8-0.7,1.3-0.9c0.5-0.2,1.2-0.3,2-0.3s1.5,0.2,2.1,0.5s1.1,0.8,1.4,1.4
		c0.6,1.2,0.9,2.7,0.9,4.6c0,2.5-0.4,4.3-1.3,5.3c-0.7,0.8-1.8,1.3-3.2,1.3c-2.6,0-4-1.5-4.4-4.5c-0.1-0.6-0.1-1.3-0.1-2.1
		c0-0.8,0-1.5,0.1-2.1c0.1-0.6,0.2-1.2,0.4-1.8C500.8,861.3,501.1,860.8,501.4,860.4z M507,862.2c-0.2-0.5-0.5-0.9-0.9-1.2
		c-0.4-0.3-0.9-0.4-1.5-0.4s-1,0.1-1.4,0.3c-0.4,0.2-0.7,0.4-0.9,0.7s-0.4,0.7-0.5,1.2c-0.1,0.5-0.2,0.9-0.2,1.4c0,0.4,0,1,0,1.6
		s0,1.1,0,1.6c0,0.4,0.1,0.9,0.2,1.4c0.1,0.5,0.3,0.9,0.5,1.2s0.5,0.5,0.9,0.7c0.4,0.2,0.8,0.3,1.3,0.3s0.9-0.1,1.3-0.3
		c0.4-0.2,0.7-0.4,0.9-0.7s0.4-0.7,0.5-1.2c0.2-0.8,0.3-1.6,0.3-2.6c0-1,0-1.7-0.1-2.2C507.4,863.2,507.2,862.7,507,862.2z"/>
	<path class="st2" d="M512.9,860.4c0.3-0.4,0.8-0.7,1.3-0.9c0.5-0.2,1.2-0.3,2-0.3s1.5,0.2,2.1,0.5s1.1,0.8,1.4,1.4
		c0.6,1.2,0.9,2.7,0.9,4.6c0,2.5-0.4,4.3-1.3,5.3c-0.7,0.8-1.8,1.3-3.2,1.3c-2.6,0-4-1.5-4.4-4.5c-0.1-0.6-0.1-1.3-0.1-2.1
		c0-0.8,0-1.5,0.1-2.1c0.1-0.6,0.2-1.2,0.4-1.8C512.3,861.3,512.5,860.8,512.9,860.4z M518.5,862.2c-0.2-0.5-0.5-0.9-0.9-1.2
		c-0.4-0.3-0.9-0.4-1.5-0.4s-1,0.1-1.4,0.3c-0.4,0.2-0.7,0.4-0.9,0.7s-0.4,0.7-0.5,1.2c-0.1,0.5-0.2,0.9-0.2,1.4c0,0.4,0,1,0,1.6
		s0,1.1,0,1.6c0,0.4,0.1,0.9,0.2,1.4c0.1,0.5,0.3,0.9,0.5,1.2s0.5,0.5,0.9,0.7c0.4,0.2,0.8,0.3,1.3,0.3s0.9-0.1,1.3-0.3
		c0.4-0.2,0.7-0.4,0.9-0.7s0.4-0.7,0.5-1.2c0.2-0.8,0.3-1.6,0.3-2.6c0-1,0-1.7-0.1-2.2C518.8,863.2,518.7,862.7,518.5,862.2z"/>
</g>
<g class="st1">
	<path class="st2" d="M558.1,872.1V871c0.3-0.3,0.7-0.6,1.4-1.2c0.6-0.5,1.1-0.9,1.4-1.2c0.3-0.3,0.7-0.6,1.2-1.1
		c0.5-0.5,0.9-0.8,1.1-1.2c0.3-0.3,0.5-0.7,0.8-1.1c0.5-0.8,0.8-1.5,0.8-2.3s-0.2-1.4-0.6-1.8s-1-0.7-1.8-0.7s-1.5,0.3-1.9,0.8
		c-0.4,0.5-0.7,1.2-0.7,2h-1.6c0-1.3,0.5-2.4,1.2-3.1c0.8-0.7,1.8-1.1,3-1.1s2.2,0.3,2.9,1c0.7,0.7,1.1,1.6,1.1,2.8
		c0,1.4-0.7,2.9-2.1,4.4c-0.5,0.5-0.9,0.9-1.2,1.2c-0.8,0.7-1.6,1.5-2.5,2.2h6.1v1.4H558.1z"/>
	<path class="st2" d="M570,860.4c0.3-0.4,0.8-0.7,1.3-0.9c0.5-0.2,1.2-0.3,2-0.3s1.5,0.2,2.1,0.5s1.1,0.8,1.4,1.4
		c0.6,1.2,0.9,2.7,0.9,4.6c0,2.5-0.4,4.3-1.3,5.3c-0.7,0.8-1.8,1.3-3.2,1.3c-2.6,0-4-1.5-4.4-4.5c-0.1-0.6-0.1-1.3-0.1-2.1
		c0-0.8,0-1.5,0.1-2.1c0.1-0.6,0.2-1.2,0.4-1.8C569.4,861.3,569.7,860.8,570,860.4z M575.6,862.2c-0.2-0.5-0.5-0.9-0.9-1.2
		c-0.4-0.3-0.9-0.4-1.5-0.4s-1,0.1-1.4,0.3c-0.4,0.2-0.7,0.4-0.9,0.7s-0.4,0.7-0.5,1.2c-0.1,0.5-0.2,0.9-0.2,1.4c0,0.4,0,1,0,1.6
		s0,1.1,0,1.6c0,0.4,0.1,0.9,0.2,1.4c0.1,0.5,0.3,0.9,0.5,1.2s0.5,0.5,0.9,0.7c0.4,0.2,0.8,0.3,1.3,0.3s0.9-0.1,1.3-0.3
		c0.4-0.2,0.7-0.4,0.9-0.7s0.4-0.7,0.5-1.2c0.2-0.8,0.3-1.6,0.3-2.6c0-1,0-1.7-0.1-2.2C576,863.2,575.8,862.7,575.6,862.2z"/>
	<path class="st2" d="M581.5,860.4c0.3-0.4,0.8-0.7,1.3-0.9c0.5-0.2,1.2-0.3,2-0.3s1.5,0.2,2.1,0.5s1.1,0.8,1.4,1.4
		c0.6,1.2,0.9,2.7,0.9,4.6c0,2.5-0.4,4.3-1.3,5.3c-0.7,0.8-1.8,1.3-3.2,1.3c-2.6,0-4-1.5-4.4-4.5c-0.1-0.6-0.1-1.3-0.1-2.1
		c0-0.8,0-1.5,0.1-2.1c0.1-0.6,0.2-1.2,0.4-1.8C580.9,861.3,581.1,860.8,581.5,860.4z M587.1,862.2c-0.2-0.5-0.5-0.9-0.9-1.2
		c-0.4-0.3-0.9-0.4-1.5-0.4s-1,0.1-1.4,0.3c-0.4,0.2-0.7,0.4-0.9,0.7s-0.4,0.7-0.5,1.2c-0.1,0.5-0.2,0.9-0.2,1.4c0,0.4,0,1,0,1.6
		s0,1.1,0,1.6c0,0.4,0.1,0.9,0.2,1.4c0.1,0.5,0.3,0.9,0.5,1.2s0.5,0.5,0.9,0.7c0.4,0.2,0.8,0.3,1.3,0.3s0.9-0.1,1.3-0.3
		c0.4-0.2,0.7-0.4,0.9-0.7s0.4-0.7,0.5-1.2c0.2-0.8,0.3-1.6,0.3-2.6c0-1,0-1.7-0.1-2.2C587.4,863.2,587.3,862.7,587.1,862.2z"/>
	<path class="st2" d="M592.8,872.3V861h-1.5v-1.5h3.1v12.8H592.8z"/>
</g>
<g class="st1">
	<path class="st2" d="M633,872.1V871c0.3-0.3,0.7-0.6,1.4-1.2c0.6-0.5,1.1-0.9,1.4-1.2c0.3-0.3,0.7-0.6,1.2-1.1
		c0.5-0.5,0.9-0.8,1.1-1.2c0.3-0.3,0.5-0.7,0.8-1.1c0.5-0.8,0.8-1.5,0.8-2.3s-0.2-1.4-0.6-1.8s-1-0.7-1.8-0.7s-1.5,0.3-1.9,0.8
		c-0.4,0.5-0.7,1.2-0.7,2H633c0-1.3,0.5-2.4,1.2-3.1c0.8-0.7,1.8-1.1,3-1.1s2.2,0.3,2.9,1c0.7,0.7,1.1,1.6,1.1,2.8
		c0,1.4-0.7,2.9-2.1,4.4c-0.5,0.5-0.9,0.9-1.2,1.2c-0.8,0.7-1.6,1.5-2.5,2.2h6.1v1.4H633z"/>
	<path class="st2" d="M644.9,860.4c0.3-0.4,0.8-0.7,1.3-0.9c0.5-0.2,1.2-0.3,2-0.3s1.5,0.2,2.1,0.5s1.1,0.8,1.4,1.4
		c0.6,1.2,0.9,2.7,0.9,4.6c0,2.5-0.4,4.3-1.3,5.3c-0.7,0.8-1.8,1.3-3.2,1.3c-2.6,0-4-1.5-4.4-4.5c-0.1-0.6-0.1-1.3-0.1-2.1
		c0-0.8,0-1.5,0.1-2.1c0.1-0.6,0.2-1.2,0.4-1.8C644.3,861.3,644.6,860.8,644.9,860.4z M650.5,862.2c-0.2-0.5-0.5-0.9-0.9-1.2
		c-0.4-0.3-0.9-0.4-1.5-0.4s-1,0.1-1.4,0.3c-0.4,0.2-0.7,0.4-0.9,0.7s-0.4,0.7-0.5,1.2c-0.1,0.5-0.2,0.9-0.2,1.4c0,0.4,0,1,0,1.6
		s0,1.1,0,1.6c0,0.4,0.1,0.9,0.2,1.4c0.1,0.5,0.3,0.9,0.5,1.2s0.5,0.5,0.9,0.7c0.4,0.2,0.8,0.3,1.3,0.3s0.9-0.1,1.3-0.3
		c0.4-0.2,0.7-0.4,0.9-0.7s0.4-0.7,0.5-1.2c0.2-0.8,0.3-1.6,0.3-2.6c0-1,0-1.7-0.1-2.2C650.8,863.2,650.7,862.7,650.5,862.2z"/>
	<path class="st2" d="M656.4,860.4c0.3-0.4,0.8-0.7,1.3-0.9c0.5-0.2,1.2-0.3,2-0.3s1.5,0.2,2.1,0.5s1.1,0.8,1.4,1.4
		c0.6,1.2,0.9,2.7,0.9,4.6c0,2.5-0.4,4.3-1.3,5.3c-0.7,0.8-1.8,1.3-3.2,1.3c-2.6,0-4-1.5-4.4-4.5c-0.1-0.6-0.1-1.3-0.1-2.1
		c0-0.8,0-1.5,0.1-2.1c0.1-0.6,0.2-1.2,0.4-1.8C655.8,861.3,656,860.8,656.4,860.4z M662,862.2c-0.2-0.5-0.5-0.9-0.9-1.2
		c-0.4-0.3-0.9-0.4-1.5-0.4s-1,0.1-1.4,0.3c-0.4,0.2-0.7,0.4-0.9,0.7s-0.4,0.7-0.5,1.2c-0.1,0.5-0.2,0.9-0.2,1.4c0,0.4,0,1,0,1.6
		s0,1.1,0,1.6c0,0.4,0.1,0.9,0.2,1.4c0.1,0.5,0.3,0.9,0.5,1.2s0.5,0.5,0.9,0.7c0.4,0.2,0.8,0.3,1.3,0.3s0.9-0.1,1.3-0.3
		c0.4-0.2,0.7-0.4,0.9-0.7s0.4-0.7,0.5-1.2c0.2-0.8,0.3-1.6,0.3-2.6c0-1,0-1.7-0.1-2.2C662.3,863.2,662.2,862.7,662,862.2z"/>
	<path class="st2" d="M666.3,872.1V871c0.3-0.3,0.7-0.6,1.4-1.2c0.6-0.5,1.1-0.9,1.4-1.2c0.3-0.3,0.7-0.6,1.2-1.1
		c0.5-0.5,0.9-0.8,1.1-1.2c0.3-0.3,0.5-0.7,0.8-1.1c0.5-0.8,0.8-1.5,0.8-2.3s-0.2-1.4-0.6-1.8s-1-0.7-1.8-0.7s-1.5,0.3-1.9,0.8
		c-0.4,0.5-0.7,1.2-0.7,2h-1.6c0-1.3,0.5-2.4,1.2-3.1c0.8-0.7,1.8-1.1,3-1.1s2.2,0.3,2.9,1c0.7,0.7,1.1,1.6,1.1,2.8
		c0,1.4-0.7,2.9-2.1,4.4c-0.5,0.5-0.9,0.9-1.2,1.2c-0.8,0.7-1.6,1.5-2.5,2.2h6.1v1.4H666.3z"/>
</g>
<g class="st1">
	<path class="st2" d="M710.1,872.1V871c0.3-0.3,0.7-0.6,1.4-1.2c0.6-0.5,1.1-0.9,1.4-1.2c0.3-0.3,0.7-0.6,1.2-1.1
		c0.5-0.5,0.9-0.8,1.1-1.2c0.3-0.3,0.5-0.7,0.8-1.1c0.5-0.8,0.8-1.5,0.8-2.3s-0.2-1.4-0.6-1.8c-0.4-0.5-1-0.7-1.8-0.7
		s-1.5,0.3-1.9,0.8c-0.4,0.5-0.7,1.2-0.7,2h-1.6c0-1.3,0.5-2.4,1.2-3.1c0.8-0.7,1.8-1.1,3-1.1s2.2,0.3,2.9,1
		c0.7,0.7,1.1,1.6,1.1,2.8c0,1.4-0.7,2.9-2.1,4.4c-0.5,0.5-0.9,0.9-1.2,1.2c-0.8,0.7-1.6,1.5-2.5,2.2h6.1v1.4H710.1z"/>
	<path class="st2" d="M722,860.4c0.3-0.4,0.8-0.7,1.3-0.9c0.5-0.2,1.2-0.3,2-0.3s1.5,0.2,2.1,0.5c0.6,0.3,1.1,0.8,1.4,1.4
		c0.6,1.2,0.9,2.7,0.9,4.6c0,2.5-0.4,4.3-1.3,5.3c-0.7,0.8-1.8,1.3-3.2,1.3c-2.6,0-4-1.5-4.4-4.5c-0.1-0.6-0.1-1.3-0.1-2.1
		c0-0.8,0-1.5,0.1-2.1s0.2-1.2,0.4-1.8C721.4,861.3,721.7,860.8,722,860.4z M727.7,862.2c-0.2-0.5-0.5-0.9-0.9-1.2
		c-0.4-0.3-0.9-0.4-1.5-0.4c-0.6,0-1,0.1-1.4,0.3c-0.4,0.2-0.7,0.4-0.9,0.7s-0.4,0.7-0.5,1.2c-0.1,0.5-0.2,0.9-0.2,1.4
		c0,0.4,0,1,0,1.6s0,1.1,0,1.6c0,0.4,0.1,0.9,0.2,1.4c0.1,0.5,0.3,0.9,0.5,1.2s0.5,0.5,0.9,0.7c0.4,0.2,0.8,0.3,1.3,0.3
		s0.9-0.1,1.3-0.3c0.4-0.2,0.7-0.4,0.9-0.7s0.4-0.7,0.5-1.2c0.2-0.8,0.3-1.6,0.3-2.6c0-1,0-1.7-0.1-2.2
		C728,863.2,727.8,862.7,727.7,862.2z"/>
	<path class="st2" d="M733.5,860.4c0.3-0.4,0.8-0.7,1.3-0.9c0.5-0.2,1.2-0.3,2-0.3s1.5,0.2,2.1,0.5c0.6,0.3,1.1,0.8,1.4,1.4
		c0.6,1.2,0.9,2.7,0.9,4.6c0,2.5-0.4,4.3-1.3,5.3c-0.7,0.8-1.8,1.3-3.2,1.3c-2.6,0-4-1.5-4.4-4.5c-0.1-0.6-0.1-1.3-0.1-2.1
		c0-0.8,0-1.5,0.1-2.1c0.1-0.6,0.2-1.2,0.4-1.8C732.9,861.3,733.2,860.8,733.5,860.4z M739.1,862.2c-0.2-0.5-0.5-0.9-0.9-1.2
		c-0.4-0.3-0.9-0.4-1.5-0.4c-0.6,0-1,0.1-1.4,0.3c-0.4,0.2-0.7,0.4-0.9,0.7s-0.4,0.7-0.5,1.2c-0.1,0.5-0.2,0.9-0.2,1.4
		c0,0.4,0,1,0,1.6s0,1.1,0,1.6c0,0.4,0.1,0.9,0.2,1.4c0.1,0.5,0.3,0.9,0.5,1.2s0.5,0.5,0.9,0.7c0.4,0.2,0.8,0.3,1.3,0.3
		s0.9-0.1,1.3-0.3c0.4-0.2,0.7-0.4,0.9-0.7s0.4-0.7,0.5-1.2c0.2-0.8,0.3-1.6,0.3-2.6c0-1,0-1.7-0.1-2.2
		C739.4,863.2,739.3,862.7,739.1,862.2z"/>
	<path class="st2" d="M744.8,859.8c0.8-0.6,1.8-0.9,3-0.9s2.2,0.3,2.9,1c0.7,0.6,1.1,1.4,1.1,2.4c0,0.7-0.2,1.3-0.6,1.9
		c-0.4,0.5-0.9,0.9-1.5,1.1v0.1c0.7,0.2,1.3,0.6,1.7,1.2c0.4,0.6,0.6,1.4,0.6,2.4c0,1-0.4,1.8-1.1,2.5c-0.7,0.7-1.7,1-3,1
		c-1.3,0-2.3-0.3-3.1-1c-0.8-0.6-1.3-1.6-1.3-2.8h1.5c0.1,0.7,0.3,1.2,0.9,1.7c0.5,0.4,1.2,0.7,2,0.7c0.8,0,1.5-0.2,1.9-0.7
		s0.7-1,0.7-1.7c0-0.9-0.3-1.6-0.9-2c-0.6-0.4-1.5-0.6-2.8-0.6h-0.4v-1.4h0.5c2.3,0,3.4-0.8,3.4-2.2c0-0.7-0.2-1.2-0.6-1.6
		c-0.4-0.4-1-0.6-1.8-0.6c-0.8,0-1.4,0.2-1.8,0.5c-0.4,0.4-0.7,0.8-0.8,1.4h-1.6C743.6,861.2,744,860.4,744.8,859.8z"/>
</g>
<g class="st1">
	<path class="st2" d="M786.9,872.1V871c0.3-0.3,0.7-0.6,1.4-1.2c0.6-0.5,1.1-0.9,1.4-1.2c0.3-0.3,0.7-0.6,1.2-1.1
		c0.5-0.5,0.9-0.8,1.1-1.2c0.3-0.3,0.5-0.7,0.8-1.1c0.5-0.8,0.8-1.5,0.8-2.3s-0.2-1.4-0.6-1.8s-1-0.7-1.8-0.7s-1.5,0.3-1.9,0.8
		c-0.4,0.5-0.7,1.2-0.7,2h-1.6c0-1.3,0.5-2.4,1.2-3.1c0.8-0.7,1.8-1.1,3-1.1s2.2,0.3,2.9,1c0.7,0.7,1.1,1.6,1.1,2.8
		c0,1.4-0.7,2.9-2.1,4.4c-0.5,0.5-0.9,0.9-1.2,1.2c-0.8,0.7-1.6,1.5-2.5,2.2h6.1v1.4H786.9z"/>
	<path class="st2" d="M798.8,860.4c0.3-0.4,0.8-0.7,1.3-0.9c0.5-0.2,1.2-0.3,2-0.3s1.5,0.2,2.1,0.5s1.1,0.8,1.4,1.4
		c0.6,1.2,0.9,2.7,0.9,4.6c0,2.5-0.4,4.3-1.3,5.3c-0.7,0.8-1.8,1.3-3.2,1.3c-2.6,0-4-1.5-4.4-4.5c-0.1-0.6-0.1-1.3-0.1-2.1
		c0-0.8,0-1.5,0.1-2.1c0.1-0.6,0.2-1.2,0.4-1.8C798.2,861.3,798.5,860.8,798.8,860.4z M804.5,862.2c-0.2-0.5-0.5-0.9-0.9-1.2
		c-0.4-0.3-0.9-0.4-1.5-0.4s-1,0.1-1.4,0.3c-0.4,0.2-0.7,0.4-0.9,0.7s-0.4,0.7-0.5,1.2c-0.1,0.5-0.2,0.9-0.2,1.4c0,0.4,0,1,0,1.6
		s0,1.1,0,1.6c0,0.4,0.1,0.9,0.2,1.4c0.1,0.5,0.3,0.9,0.5,1.2s0.5,0.5,0.9,0.7c0.4,0.2,0.8,0.3,1.3,0.3s0.9-0.1,1.3-0.3
		c0.4-0.2,0.7-0.4,0.9-0.7s0.4-0.7,0.5-1.2c0.2-0.8,0.3-1.6,0.3-2.6c0-1,0-1.7-0.1-2.2C804.8,863.2,804.7,862.7,804.5,862.2z"/>
	<path class="st2" d="M810.3,860.4c0.3-0.4,0.8-0.7,1.3-0.9c0.5-0.2,1.2-0.3,2-0.3s1.5,0.2,2.1,0.5s1.1,0.8,1.4,1.4
		c0.6,1.2,0.9,2.7,0.9,4.6c0,2.5-0.4,4.3-1.3,5.3c-0.7,0.8-1.8,1.3-3.2,1.3c-2.6,0-4-1.5-4.4-4.5c-0.1-0.6-0.1-1.3-0.1-2.1
		c0-0.8,0-1.5,0.1-2.1c0.1-0.6,0.2-1.2,0.4-1.8C809.7,861.3,810,860.8,810.3,860.4z M815.9,862.2c-0.2-0.5-0.5-0.9-0.9-1.2
		c-0.4-0.3-0.9-0.4-1.5-0.4s-1,0.1-1.4,0.3c-0.4,0.2-0.7,0.4-0.9,0.7s-0.4,0.7-0.5,1.2c-0.1,0.5-0.2,0.9-0.2,1.4c0,0.4,0,1,0,1.6
		s0,1.1,0,1.6c0,0.4,0.1,0.9,0.2,1.4c0.1,0.5,0.3,0.9,0.5,1.2s0.5,0.5,0.9,0.7c0.4,0.2,0.8,0.3,1.3,0.3s0.9-0.1,1.3-0.3
		c0.4-0.2,0.7-0.4,0.9-0.7s0.4-0.7,0.5-1.2c0.2-0.8,0.3-1.6,0.3-2.6c0-1,0-1.7-0.1-2.2C816.2,863.2,816.1,862.7,815.9,862.2z"/>
	<path class="st2" d="M826.7,872.3v-2.9H820v-1.2l6.2-8.9h2.1v8.6h1.7v1.4h-1.7v2.9H826.7z M826.8,868v-7.1l-4.8,7.1H826.8z"/>
</g>
<g class="st1">
	<path class="st2" d="M864.1,872.1V871c0.3-0.3,0.7-0.6,1.4-1.2c0.6-0.5,1.1-0.9,1.4-1.2c0.3-0.3,0.7-0.6,1.2-1.1
		c0.5-0.5,0.9-0.8,1.1-1.2c0.3-0.3,0.5-0.7,0.8-1.1c0.5-0.8,0.8-1.5,0.8-2.3s-0.2-1.4-0.6-1.8c-0.4-0.5-1-0.7-1.8-0.7
		s-1.5,0.3-1.9,0.8c-0.4,0.5-0.7,1.2-0.7,2h-1.6c0-1.3,0.5-2.4,1.2-3.1c0.8-0.7,1.8-1.1,3-1.1s2.2,0.3,2.9,1
		c0.7,0.7,1.1,1.6,1.1,2.8c0,1.4-0.7,2.9-2.1,4.4c-0.5,0.5-0.9,0.9-1.2,1.2c-0.8,0.7-1.6,1.5-2.5,2.2h6.1v1.4H864.1z"/>
	<path class="st2" d="M876.1,860.4c0.3-0.4,0.8-0.7,1.3-0.9c0.5-0.2,1.2-0.3,2-0.3s1.5,0.2,2.1,0.5c0.6,0.3,1.1,0.8,1.4,1.4
		c0.6,1.2,0.9,2.7,0.9,4.6c0,2.5-0.4,4.3-1.3,5.3c-0.7,0.8-1.8,1.3-3.2,1.3c-2.6,0-4-1.5-4.4-4.5c-0.1-0.6-0.1-1.3-0.1-2.1
		c0-0.8,0-1.5,0.1-2.1c0.1-0.6,0.2-1.2,0.4-1.8C875.5,861.3,875.7,860.8,876.1,860.4z M881.7,862.2c-0.2-0.5-0.5-0.9-0.9-1.2
		c-0.4-0.3-0.9-0.4-1.5-0.4c-0.6,0-1,0.1-1.4,0.3c-0.4,0.2-0.7,0.4-0.9,0.7s-0.4,0.7-0.5,1.2c-0.1,0.5-0.2,0.9-0.2,1.4
		c0,0.4,0,1,0,1.6s0,1.1,0,1.6c0,0.4,0.1,0.9,0.2,1.4c0.1,0.5,0.3,0.9,0.5,1.2s0.5,0.5,0.9,0.7c0.4,0.2,0.8,0.3,1.3,0.3
		s0.9-0.1,1.3-0.3c0.4-0.2,0.7-0.4,0.9-0.7s0.4-0.7,0.5-1.2c0.2-0.8,0.3-1.6,0.3-2.6c0-1,0-1.7-0.1-2.2
		C882,863.2,881.9,862.7,881.7,862.2z"/>
	<path class="st2" d="M887.5,860.4c0.3-0.4,0.8-0.7,1.3-0.9c0.5-0.2,1.2-0.3,2-0.3s1.5,0.2,2.1,0.5c0.6,0.3,1.1,0.8,1.4,1.4
		c0.6,1.2,0.9,2.7,0.9,4.6c0,2.5-0.4,4.3-1.3,5.3c-0.7,0.8-1.8,1.3-3.2,1.3c-2.6,0-4-1.5-4.4-4.5c-0.1-0.6-0.1-1.3-0.1-2.1
		c0-0.8,0-1.5,0.1-2.1s0.2-1.2,0.4-1.8C886.9,861.3,887.2,860.8,887.5,860.4z M893.1,862.2c-0.2-0.5-0.5-0.9-0.9-1.2
		c-0.4-0.3-0.9-0.4-1.5-0.4c-0.6,0-1,0.1-1.4,0.3c-0.4,0.2-0.7,0.4-0.9,0.7s-0.4,0.7-0.5,1.2c-0.1,0.5-0.2,0.9-0.2,1.4
		c0,0.4,0,1,0,1.6s0,1.1,0,1.6c0,0.4,0.1,0.9,0.2,1.4c0.1,0.5,0.3,0.9,0.5,1.2s0.5,0.5,0.9,0.7c0.4,0.2,0.8,0.3,1.3,0.3
		s0.9-0.1,1.3-0.3c0.4-0.2,0.7-0.4,0.9-0.7s0.4-0.7,0.5-1.2c0.2-0.8,0.3-1.6,0.3-2.6c0-1,0-1.7-0.1-2.2
		C893.4,863.2,893.3,862.7,893.1,862.2z"/>
	<path class="st2" d="M898,859.1h7.8v1.4h-6.3v4.1c0.3-0.4,0.7-0.7,1.2-1c0.5-0.3,1.2-0.4,1.8-0.4c0.7,0,1.3,0.1,1.9,0.4
		c0.6,0.3,1,0.6,1.3,1.1c0.6,0.9,0.9,1.8,0.9,3c0,1.4-0.4,2.5-1.1,3.3c-0.8,0.9-1.8,1.3-3.2,1.3c-1.4,0-2.4-0.3-3.2-1
		c-0.8-0.6-1.3-1.5-1.4-2.5h1.6c0.2,0.6,0.5,1.2,1,1.5c0.5,0.4,1.2,0.6,2.1,0.6c0.9,0,1.5-0.3,2-0.9c0.5-0.6,0.7-1.3,0.7-2.3
		c0-1-0.2-1.7-0.7-2.2c-0.5-0.5-1.2-0.8-2.2-0.8c-0.6,0-1.2,0.2-1.7,0.5s-0.8,0.8-1,1.4H898V859.1z"/>
</g>
<g class="st1">
	<path class="st2" d="M941.2,872.1V871c0.3-0.3,0.7-0.6,1.4-1.2c0.6-0.5,1.1-0.9,1.4-1.2c0.3-0.3,0.7-0.6,1.2-1.1
		c0.5-0.5,0.9-0.8,1.1-1.2c0.3-0.3,0.5-0.7,0.8-1.1c0.5-0.8,0.8-1.5,0.8-2.3s-0.2-1.4-0.6-1.8c-0.4-0.5-1-0.7-1.8-0.7
		s-1.5,0.3-1.9,0.8c-0.4,0.5-0.7,1.2-0.7,2h-1.6c0-1.3,0.5-2.4,1.2-3.1c0.8-0.7,1.8-1.1,3-1.1s2.2,0.3,2.9,1
		c0.7,0.7,1.1,1.6,1.1,2.8c0,1.4-0.7,2.9-2.1,4.4c-0.5,0.5-0.9,0.9-1.2,1.2c-0.8,0.7-1.6,1.5-2.5,2.2h6.1v1.4H941.2z"/>
	<path class="st2" d="M953.2,860.4c0.3-0.4,0.8-0.7,1.3-0.9c0.5-0.2,1.2-0.3,2-0.3s1.5,0.2,2.1,0.5c0.6,0.3,1.1,0.8,1.4,1.4
		c0.6,1.2,0.9,2.7,0.9,4.6c0,2.5-0.4,4.3-1.3,5.3c-0.7,0.8-1.8,1.3-3.2,1.3c-2.6,0-4-1.5-4.4-4.5c-0.1-0.6-0.1-1.3-0.1-2.1
		c0-0.8,0-1.5,0.1-2.1c0.1-0.6,0.2-1.2,0.4-1.8C952.6,861.3,952.9,860.8,953.2,860.4z M958.8,862.2c-0.2-0.5-0.5-0.9-0.9-1.2
		c-0.4-0.3-0.9-0.4-1.5-0.4c-0.6,0-1,0.1-1.4,0.3c-0.4,0.2-0.7,0.4-0.9,0.7s-0.4,0.7-0.5,1.2c-0.1,0.5-0.2,0.9-0.2,1.4
		c0,0.4,0,1,0,1.6s0,1.1,0,1.6c0,0.4,0.1,0.9,0.2,1.4c0.1,0.5,0.3,0.9,0.5,1.2s0.5,0.5,0.9,0.7c0.4,0.2,0.8,0.3,1.3,0.3
		s0.9-0.1,1.3-0.3c0.4-0.2,0.7-0.4,0.9-0.7s0.4-0.7,0.5-1.2c0.2-0.8,0.3-1.6,0.3-2.6c0-1,0-1.7-0.1-2.2
		C959.1,863.2,959,862.7,958.8,862.2z"/>
	<path class="st2" d="M964.6,860.4c0.3-0.4,0.8-0.7,1.3-0.9c0.5-0.2,1.2-0.3,2-0.3s1.5,0.2,2.1,0.5c0.6,0.3,1.1,0.8,1.4,1.4
		c0.6,1.2,0.9,2.7,0.9,4.6c0,2.5-0.4,4.3-1.3,5.3c-0.7,0.8-1.8,1.3-3.2,1.3c-2.6,0-4-1.5-4.4-4.5c-0.1-0.6-0.1-1.3-0.1-2.1
		c0-0.8,0-1.5,0.1-2.1s0.2-1.2,0.4-1.8C964,861.3,964.3,860.8,964.6,860.4z M970.2,862.2c-0.2-0.5-0.5-0.9-0.9-1.2
		c-0.4-0.3-0.9-0.4-1.5-0.4c-0.6,0-1,0.1-1.4,0.3c-0.4,0.2-0.7,0.4-0.9,0.7s-0.4,0.7-0.5,1.2c-0.1,0.5-0.2,0.9-0.2,1.4
		c0,0.4,0,1,0,1.6s0,1.1,0,1.6c0,0.4,0.1,0.9,0.2,1.4c0.1,0.5,0.3,0.9,0.5,1.2s0.5,0.5,0.9,0.7c0.4,0.2,0.8,0.3,1.3,0.3
		s0.9-0.1,1.3-0.3c0.4-0.2,0.7-0.4,0.9-0.7s0.4-0.7,0.5-1.2c0.2-0.8,0.3-1.6,0.3-2.6c0-1,0-1.7-0.1-2.2
		C970.6,863.2,970.4,862.7,970.2,862.2z"/>
	<path class="st2" d="M979.6,860.2c-1.1,0-1.9,0.4-2.4,1.2c-0.5,0.8-0.8,2.1-0.8,4c0.3-0.6,0.8-1,1.4-1.4s1.3-0.5,2.1-0.5
		c1.2,0,2.2,0.4,2.9,1.2c0.7,0.8,1.1,1.8,1.1,3.1c0,1.3-0.4,2.4-1.1,3.2c-0.7,0.8-1.8,1.2-3.2,1.2c-2.2,0-3.6-0.9-4.2-2.8
		c-0.3-1-0.5-2.5-0.5-4.4c0-1.9,0.4-3.4,1.1-4.6c0.7-1.1,1.9-1.7,3.5-1.7c1.2,0,2.1,0.3,2.7,0.9c0.7,0.6,1.1,1.4,1.2,2.3H982
		c-0.2-0.6-0.4-1.1-0.8-1.4C980.8,860.4,980.3,860.2,979.6,860.2z M982.4,868c0-0.9-0.2-1.6-0.7-2.2c-0.5-0.5-1.1-0.8-2-0.8
		s-1.6,0.2-2.2,0.7c-0.6,0.5-0.9,1.2-0.9,2.1c0,0.9,0.3,1.7,0.8,2.2c0.5,0.6,1.2,0.8,2.2,0.8c0.9,0,1.6-0.3,2.1-0.8
		C982.1,869.6,982.4,868.9,982.4,868z"/>
</g>
<g class="st1">
	<path class="st2" d="M1019.2,872.1V871c0.3-0.3,0.7-0.6,1.4-1.2c0.6-0.5,1.1-0.9,1.4-1.2c0.3-0.3,0.7-0.6,1.2-1.1
		c0.5-0.5,0.9-0.8,1.1-1.2c0.3-0.3,0.5-0.7,0.8-1.1c0.5-0.8,0.8-1.5,0.8-2.3s-0.2-1.4-0.6-1.8c-0.4-0.5-1-0.7-1.8-0.7
		s-1.5,0.3-1.9,0.8c-0.4,0.5-0.7,1.2-0.7,2h-1.6c0-1.3,0.5-2.4,1.2-3.1c0.8-0.7,1.8-1.1,3-1.1s2.2,0.3,2.9,1
		c0.7,0.7,1.1,1.6,1.1,2.8c0,1.4-0.7,2.9-2.1,4.4c-0.5,0.5-0.9,0.9-1.2,1.2c-0.8,0.7-1.6,1.5-2.5,2.2h6.1v1.4H1019.2z"/>
	<path class="st2" d="M1031.1,860.4c0.3-0.4,0.8-0.7,1.3-0.9c0.5-0.2,1.2-0.3,2-0.3s1.5,0.2,2.1,0.5c0.6,0.3,1.1,0.8,1.4,1.4
		c0.6,1.2,0.9,2.7,0.9,4.6c0,2.5-0.4,4.3-1.3,5.3c-0.7,0.8-1.8,1.3-3.2,1.3c-2.6,0-4-1.5-4.4-4.5c-0.1-0.6-0.1-1.3-0.1-2.1
		c0-0.8,0-1.5,0.1-2.1c0.1-0.6,0.2-1.2,0.4-1.8C1030.5,861.3,1030.8,860.8,1031.1,860.4z M1036.8,862.2c-0.2-0.5-0.5-0.9-0.9-1.2
		c-0.4-0.3-0.9-0.4-1.5-0.4c-0.6,0-1,0.1-1.4,0.3c-0.4,0.2-0.7,0.4-0.9,0.7s-0.4,0.7-0.5,1.2c-0.1,0.5-0.2,0.9-0.2,1.4
		c0,0.4,0,1,0,1.6s0,1.1,0,1.6c0,0.4,0.1,0.9,0.2,1.4c0.1,0.5,0.3,0.9,0.5,1.2s0.5,0.5,0.9,0.7c0.4,0.2,0.8,0.3,1.3,0.3
		s0.9-0.1,1.3-0.3c0.4-0.2,0.7-0.4,0.9-0.7s0.4-0.7,0.5-1.2c0.2-0.8,0.3-1.6,0.3-2.6c0-1,0-1.7-0.1-2.2
		C1037.1,863.2,1037,862.7,1036.8,862.2z"/>
	<path class="st2" d="M1042.6,860.4c0.3-0.4,0.8-0.7,1.3-0.9c0.5-0.2,1.2-0.3,2-0.3s1.5,0.2,2.1,0.5c0.6,0.3,1.1,0.8,1.4,1.4
		c0.6,1.2,0.9,2.7,0.9,4.6c0,2.5-0.4,4.3-1.3,5.3c-0.7,0.8-1.8,1.3-3.2,1.3c-2.6,0-4-1.5-4.4-4.5c-0.1-0.6-0.1-1.3-0.1-2.1
		c0-0.8,0-1.5,0.1-2.1s0.2-1.2,0.4-1.8C1042,861.3,1042.3,860.8,1042.6,860.4z M1048.2,862.2c-0.2-0.5-0.5-0.9-0.9-1.2
		c-0.4-0.3-0.9-0.4-1.5-0.4c-0.6,0-1,0.1-1.4,0.3c-0.4,0.2-0.7,0.4-0.9,0.7s-0.4,0.7-0.5,1.2c-0.1,0.5-0.2,0.9-0.2,1.4
		c0,0.4,0,1,0,1.6s0,1.1,0,1.6c0,0.4,0.1,0.9,0.2,1.4c0.1,0.5,0.3,0.9,0.5,1.2s0.5,0.5,0.9,0.7c0.4,0.2,0.8,0.3,1.3,0.3
		s0.9-0.1,1.3-0.3c0.4-0.2,0.7-0.4,0.9-0.7s0.4-0.7,0.5-1.2c0.2-0.8,0.3-1.6,0.3-2.6c0-1,0-1.7-0.1-2.2
		C1048.5,863.2,1048.4,862.7,1048.2,862.2z"/>
	<path class="st2" d="M1052.2,859.2h8.7v1.2l-5.1,11.9h-1.8l5.4-11.7h-7.1V859.2z"/>
</g>
<g class="st1">
	<path class="st2" d="M1095.7,872.1V871c0.3-0.3,0.7-0.6,1.4-1.2c0.6-0.5,1.1-0.9,1.4-1.2c0.3-0.3,0.7-0.6,1.2-1.1
		c0.5-0.5,0.9-0.8,1.1-1.2c0.3-0.3,0.5-0.7,0.8-1.1c0.5-0.8,0.8-1.5,0.8-2.3s-0.2-1.4-0.6-1.8c-0.4-0.5-1-0.7-1.8-0.7
		s-1.5,0.3-1.9,0.8c-0.4,0.5-0.7,1.2-0.7,2h-1.6c0-1.3,0.5-2.4,1.2-3.1c0.8-0.7,1.8-1.1,3-1.1s2.2,0.3,2.9,1
		c0.7,0.7,1.1,1.6,1.1,2.8c0,1.4-0.7,2.9-2.1,4.4c-0.5,0.5-0.9,0.9-1.2,1.2c-0.8,0.7-1.6,1.5-2.5,2.2h6.1v1.4H1095.7z"/>
	<path class="st2" d="M1107.7,860.4c0.3-0.4,0.8-0.7,1.3-0.9c0.5-0.2,1.2-0.3,2-0.3s1.5,0.2,2.1,0.5c0.6,0.3,1.1,0.8,1.4,1.4
		c0.6,1.2,0.9,2.7,0.9,4.6c0,2.5-0.4,4.3-1.3,5.3c-0.7,0.8-1.8,1.3-3.2,1.3c-2.6,0-4-1.5-4.4-4.5c-0.1-0.6-0.1-1.3-0.1-2.1
		c0-0.8,0-1.5,0.1-2.1c0.1-0.6,0.2-1.2,0.4-1.8C1107.1,861.3,1107.4,860.8,1107.7,860.4z M1113.3,862.2c-0.2-0.5-0.5-0.9-0.9-1.2
		c-0.4-0.3-0.9-0.4-1.5-0.4c-0.6,0-1,0.1-1.4,0.3c-0.4,0.2-0.7,0.4-0.9,0.7s-0.4,0.7-0.5,1.2c-0.1,0.5-0.2,0.9-0.2,1.4
		c0,0.4,0,1,0,1.6s0,1.1,0,1.6c0,0.4,0.1,0.9,0.2,1.4c0.1,0.5,0.3,0.9,0.5,1.2s0.5,0.5,0.9,0.7c0.4,0.2,0.8,0.3,1.3,0.3
		s0.9-0.1,1.3-0.3c0.4-0.2,0.7-0.4,0.9-0.7s0.4-0.7,0.5-1.2c0.2-0.8,0.3-1.6,0.3-2.6c0-1,0-1.7-0.1-2.2
		C1113.6,863.2,1113.5,862.7,1113.3,862.2z"/>
	<path class="st2" d="M1119.1,860.4c0.3-0.4,0.8-0.7,1.3-0.9c0.5-0.2,1.2-0.3,2-0.3s1.5,0.2,2.1,0.5c0.6,0.3,1.1,0.8,1.4,1.4
		c0.6,1.2,0.9,2.7,0.9,4.6c0,2.5-0.4,4.3-1.3,5.3c-0.7,0.8-1.8,1.3-3.2,1.3c-2.6,0-4-1.5-4.4-4.5c-0.1-0.6-0.1-1.3-0.1-2.1
		c0-0.8,0-1.5,0.1-2.1s0.2-1.2,0.4-1.8C1118.5,861.3,1118.8,860.8,1119.1,860.4z M1124.8,862.2c-0.2-0.5-0.5-0.9-0.9-1.2
		c-0.4-0.3-0.9-0.4-1.5-0.4c-0.6,0-1,0.1-1.4,0.3c-0.4,0.2-0.7,0.4-0.9,0.7s-0.4,0.7-0.5,1.2c-0.1,0.5-0.2,0.9-0.2,1.4
		c0,0.4,0,1,0,1.6s0,1.1,0,1.6c0,0.4,0.1,0.9,0.2,1.4c0.1,0.5,0.3,0.9,0.5,1.2s0.5,0.5,0.9,0.7c0.4,0.2,0.8,0.3,1.3,0.3
		s0.9-0.1,1.3-0.3c0.4-0.2,0.7-0.4,0.9-0.7s0.4-0.7,0.5-1.2c0.2-0.8,0.3-1.6,0.3-2.6c0-1,0-1.7-0.1-2.2
		C1125.1,863.2,1124.9,862.7,1124.8,862.2z"/>
	<path class="st2" d="M1129.5,862.3c0-1,0.4-1.9,1.1-2.5c0.7-0.7,1.8-1,3.1-1c1.4,0,2.4,0.3,3.1,1c0.7,0.7,1.1,1.5,1.1,2.5
		c0,0.7-0.2,1.3-0.5,1.8c-0.4,0.5-0.8,0.9-1.4,1.2c0.7,0.2,1.2,0.6,1.7,1.2c0.4,0.6,0.6,1.3,0.6,2.1c0,1.2-0.4,2.2-1.3,2.9
		c-0.8,0.7-1.9,1.1-3.3,1.1s-2.5-0.4-3.3-1.1c-0.8-0.7-1.3-1.7-1.3-2.9c0-0.8,0.2-1.5,0.6-2.1c0.4-0.6,1-1,1.7-1.2
		C1130.2,864.7,1129.5,863.7,1129.5,862.3z M1136.7,868.6c0-0.8-0.3-1.5-0.8-1.9c-0.6-0.4-1.3-0.7-2.2-0.7c-0.9,0-1.6,0.2-2.2,0.7
		c-0.6,0.4-0.8,1.1-0.8,1.9s0.3,1.5,0.8,2c0.5,0.5,1.3,0.7,2.2,0.7s1.7-0.2,2.2-0.7S1136.7,869.4,1136.7,868.6z M1136.4,862.4
		c0-0.7-0.2-1.2-0.7-1.6c-0.5-0.4-1.1-0.6-2-0.6s-1.5,0.2-2,0.6c-0.5,0.4-0.7,1-0.7,1.6c0,0.7,0.2,1.3,0.7,1.7s1.1,0.6,1.9,0.6
		s1.4-0.2,1.9-0.6C1136.2,863.7,1136.4,863.1,1136.4,862.4z"/>
</g>
<g class="st1">
	<path class="st2" d="M1172.9,872.1V871c0.3-0.3,0.7-0.6,1.4-1.2c0.6-0.5,1.1-0.9,1.4-1.2c0.3-0.3,0.7-0.6,1.2-1.1
		c0.5-0.5,0.9-0.8,1.1-1.2c0.3-0.3,0.5-0.7,0.8-1.1c0.5-0.8,0.8-1.5,0.8-2.3s-0.2-1.4-0.6-1.8c-0.4-0.5-1-0.7-1.8-0.7
		s-1.5,0.3-1.9,0.8c-0.4,0.5-0.7,1.2-0.7,2h-1.6c0-1.3,0.5-2.4,1.2-3.1c0.8-0.7,1.8-1.1,3-1.1s2.2,0.3,2.9,1
		c0.7,0.7,1.1,1.6,1.1,2.8c0,1.4-0.7,2.9-2.1,4.4c-0.5,0.5-0.9,0.9-1.2,1.2c-0.8,0.7-1.6,1.5-2.5,2.2h6.1v1.4H1172.9z"/>
	<path class="st2" d="M1184.9,860.4c0.3-0.4,0.8-0.7,1.3-0.9c0.5-0.2,1.2-0.3,2-0.3s1.5,0.2,2.1,0.5c0.6,0.3,1.1,0.8,1.4,1.4
		c0.6,1.2,0.9,2.7,0.9,4.6c0,2.5-0.4,4.3-1.3,5.3c-0.7,0.8-1.8,1.3-3.2,1.3c-2.6,0-4-1.5-4.4-4.5c-0.1-0.6-0.1-1.3-0.1-2.1
		c0-0.8,0-1.5,0.1-2.1c0.1-0.6,0.2-1.2,0.4-1.8C1184.3,861.3,1184.6,860.8,1184.9,860.4z M1190.5,862.2c-0.2-0.5-0.5-0.9-0.9-1.2
		c-0.4-0.3-0.9-0.4-1.5-0.4c-0.6,0-1,0.1-1.4,0.3c-0.4,0.2-0.7,0.4-0.9,0.7s-0.4,0.7-0.5,1.2c-0.1,0.5-0.2,0.9-0.2,1.4
		c0,0.4,0,1,0,1.6s0,1.1,0,1.6c0,0.4,0.1,0.9,0.2,1.4c0.1,0.5,0.3,0.9,0.5,1.2s0.5,0.5,0.9,0.7c0.4,0.2,0.8,0.3,1.3,0.3
		s0.9-0.1,1.3-0.3c0.4-0.2,0.7-0.4,0.9-0.7s0.4-0.7,0.5-1.2c0.2-0.8,0.3-1.6,0.3-2.6c0-1,0-1.7-0.1-2.2
		C1190.8,863.2,1190.7,862.7,1190.5,862.2z"/>
	<path class="st2" d="M1196.3,860.4c0.3-0.4,0.8-0.7,1.3-0.9c0.5-0.2,1.2-0.3,2-0.3s1.5,0.2,2.1,0.5c0.6,0.3,1.1,0.8,1.4,1.4
		c0.6,1.2,0.9,2.7,0.9,4.6c0,2.5-0.4,4.3-1.3,5.3c-0.7,0.8-1.8,1.3-3.2,1.3c-2.6,0-4-1.5-4.4-4.5c-0.1-0.6-0.1-1.3-0.1-2.1
		c0-0.8,0-1.5,0.1-2.1s0.2-1.2,0.4-1.8C1195.7,861.3,1196,860.8,1196.3,860.4z M1202,862.2c-0.2-0.5-0.5-0.9-0.9-1.2
		c-0.4-0.3-0.9-0.4-1.5-0.4c-0.6,0-1,0.1-1.4,0.3c-0.4,0.2-0.7,0.4-0.9,0.7s-0.4,0.7-0.5,1.2c-0.1,0.5-0.2,0.9-0.2,1.4
		c0,0.4,0,1,0,1.6s0,1.1,0,1.6c0,0.4,0.1,0.9,0.2,1.4c0.1,0.5,0.3,0.9,0.5,1.2s0.5,0.5,0.9,0.7c0.4,0.2,0.8,0.3,1.3,0.3
		s0.9-0.1,1.3-0.3c0.4-0.2,0.7-0.4,0.9-0.7s0.4-0.7,0.5-1.2c0.2-0.8,0.3-1.6,0.3-2.6c0-1,0-1.7-0.1-2.2
		C1202.3,863.2,1202.1,862.7,1202,862.2z"/>
	<path class="st2" d="M1211.3,870.9c1,0,1.7-0.4,2.1-1.1c0.4-0.7,0.7-2,0.7-3.9c-0.3,0.5-0.7,0.8-1.3,1.1c-0.6,0.3-1.2,0.4-1.8,0.4
		c-1.2,0-2.2-0.4-3-1.1c-0.8-0.8-1.2-1.8-1.2-3.1s0.4-2.4,1.1-3.1s1.8-1.2,3.2-1.2c1.6,0,2.7,0.5,3.4,1.6c0.7,1.1,1,2.8,1,5.1
		c0,2.3-0.3,4-0.9,5.1s-1.7,1.7-3.3,1.7c-1.2,0-2.2-0.3-2.8-1c-0.7-0.6-1.1-1.4-1.2-2.4h1.5C1208.9,870.2,1209.8,870.9,1211.3,870.9
		z M1208.3,863.1c0,0.9,0.2,1.6,0.7,2.1c0.5,0.5,1.2,0.8,2.1,0.8c0.9,0,1.6-0.3,2-0.8s0.7-1.2,0.7-2.1c0-0.9-0.2-1.6-0.7-2.1
		c-0.5-0.5-1.2-0.8-2-0.8c-0.9,0-1.5,0.3-2,0.8C1208.5,861.6,1208.3,862.3,1208.3,863.1z"/>
</g>
<g class="st1">
	<path class="st2" d="M1253,872.1V871c0.3-0.3,0.7-0.6,1.4-1.2c0.6-0.5,1.1-0.9,1.4-1.2c0.3-0.3,0.7-0.6,1.2-1.1
		c0.5-0.5,0.9-0.8,1.1-1.2c0.3-0.3,0.5-0.7,0.8-1.1c0.5-0.8,0.8-1.5,0.8-2.3s-0.2-1.4-0.6-1.8c-0.4-0.5-1-0.7-1.8-0.7
		s-1.5,0.3-1.9,0.8c-0.4,0.5-0.7,1.2-0.7,2h-1.6c0-1.3,0.5-2.4,1.2-3.1c0.8-0.7,1.8-1.1,3-1.1s2.2,0.3,2.9,1
		c0.7,0.7,1.1,1.6,1.1,2.8c0,1.4-0.7,2.9-2.1,4.4c-0.5,0.5-0.9,0.9-1.2,1.2c-0.8,0.7-1.6,1.5-2.5,2.2h6.1v1.4H1253z"/>
	<path class="st2" d="M1264.9,860.4c0.3-0.4,0.8-0.7,1.3-0.9c0.5-0.2,1.2-0.3,2-0.3s1.5,0.2,2.1,0.5c0.6,0.3,1.1,0.8,1.4,1.4
		c0.6,1.2,0.9,2.7,0.9,4.6c0,2.5-0.4,4.3-1.3,5.3c-0.7,0.8-1.8,1.3-3.2,1.3c-2.6,0-4-1.5-4.4-4.5c-0.1-0.6-0.1-1.3-0.1-2.1
		c0-0.8,0-1.5,0.1-2.1c0.1-0.6,0.2-1.2,0.4-1.8C1264.3,861.3,1264.6,860.8,1264.9,860.4z M1270.6,862.2c-0.2-0.5-0.5-0.9-0.9-1.2
		c-0.4-0.3-0.9-0.4-1.5-0.4c-0.6,0-1,0.1-1.4,0.3c-0.4,0.2-0.7,0.4-0.9,0.7s-0.4,0.7-0.5,1.2c-0.1,0.5-0.2,0.9-0.2,1.4
		c0,0.4,0,1,0,1.6s0,1.1,0,1.6c0,0.4,0.1,0.9,0.2,1.4c0.1,0.5,0.3,0.9,0.5,1.2s0.5,0.5,0.9,0.7c0.4,0.2,0.8,0.3,1.3,0.3
		s0.9-0.1,1.3-0.3c0.4-0.2,0.7-0.4,0.9-0.7s0.4-0.7,0.5-1.2c0.2-0.8,0.3-1.6,0.3-2.6c0-1,0-1.7-0.1-2.2
		C1270.9,863.2,1270.7,862.7,1270.6,862.2z"/>
	<path class="st2" d="M1276.2,872.3V861h-1.5v-1.5h3.1v12.8H1276.2z"/>
	<path class="st2" d="M1282.2,860.4c0.3-0.4,0.8-0.7,1.3-0.9c0.5-0.2,1.2-0.3,2-0.3s1.5,0.2,2.1,0.5c0.6,0.3,1.1,0.8,1.4,1.4
		c0.6,1.2,0.9,2.7,0.9,4.6c0,2.5-0.4,4.3-1.3,5.3c-0.7,0.8-1.8,1.3-3.2,1.3c-2.6,0-4-1.5-4.4-4.5c-0.1-0.6-0.1-1.3-0.1-2.1
		c0-0.8,0-1.5,0.1-2.1c0.1-0.6,0.2-1.2,0.4-1.8C1281.6,861.3,1281.8,860.8,1282.2,860.4z M1287.8,862.2c-0.2-0.5-0.5-0.9-0.9-1.2
		c-0.4-0.3-0.9-0.4-1.5-0.4c-0.6,0-1,0.1-1.4,0.3c-0.4,0.2-0.7,0.4-0.9,0.7s-0.4,0.7-0.5,1.2c-0.1,0.5-0.2,0.9-0.2,1.4
		c0,0.4,0,1,0,1.6s0,1.1,0,1.6c0,0.4,0.1,0.9,0.2,1.4c0.1,0.5,0.3,0.9,0.5,1.2s0.5,0.5,0.9,0.7c0.4,0.2,0.8,0.3,1.3,0.3
		s0.9-0.1,1.3-0.3c0.4-0.2,0.7-0.4,0.9-0.7s0.4-0.7,0.5-1.2c0.2-0.8,0.3-1.6,0.3-2.6c0-1,0-1.7-0.1-2.2
		C1288.1,863.2,1288,862.7,1287.8,862.2z"/>
</g>
<g class="st1">
	<path class="st2" d="M1333,872.1V871c0.3-0.3,0.7-0.6,1.4-1.2c0.6-0.5,1.1-0.9,1.4-1.2c0.3-0.3,0.7-0.6,1.2-1.1
		c0.5-0.5,0.9-0.8,1.1-1.2c0.3-0.3,0.5-0.7,0.8-1.1c0.5-0.8,0.8-1.5,0.8-2.3s-0.2-1.4-0.6-1.8c-0.4-0.5-1-0.7-1.8-0.7
		s-1.5,0.3-1.9,0.8c-0.4,0.5-0.7,1.2-0.7,2h-1.6c0-1.3,0.5-2.4,1.2-3.1c0.8-0.7,1.8-1.1,3-1.1s2.2,0.3,2.9,1
		c0.7,0.7,1.1,1.6,1.1,2.8c0,1.4-0.7,2.9-2.1,4.4c-0.5,0.5-0.9,0.9-1.2,1.2c-0.8,0.7-1.6,1.5-2.5,2.2h6.1v1.4H1333z"/>
	<path class="st2" d="M1345,860.4c0.3-0.4,0.8-0.7,1.3-0.9c0.5-0.2,1.2-0.3,2-0.3s1.5,0.2,2.1,0.5c0.6,0.3,1.1,0.8,1.4,1.4
		c0.6,1.2,0.9,2.7,0.9,4.6c0,2.5-0.4,4.3-1.3,5.3c-0.7,0.8-1.8,1.3-3.2,1.3c-2.6,0-4-1.5-4.4-4.5c-0.1-0.6-0.1-1.3-0.1-2.1
		c0-0.8,0-1.5,0.1-2.1c0.1-0.6,0.2-1.2,0.4-1.8C1344.4,861.3,1344.7,860.8,1345,860.4z M1350.6,862.2c-0.2-0.5-0.5-0.9-0.9-1.2
		c-0.4-0.3-0.9-0.4-1.5-0.4c-0.6,0-1,0.1-1.4,0.3c-0.4,0.2-0.7,0.4-0.9,0.7s-0.4,0.7-0.5,1.2c-0.1,0.5-0.2,0.9-0.2,1.4
		c0,0.4,0,1,0,1.6s0,1.1,0,1.6c0,0.4,0.1,0.9,0.2,1.4c0.1,0.5,0.3,0.9,0.5,1.2s0.5,0.5,0.9,0.7c0.4,0.2,0.8,0.3,1.3,0.3
		s0.9-0.1,1.3-0.3c0.4-0.2,0.7-0.4,0.9-0.7s0.4-0.7,0.5-1.2c0.2-0.8,0.3-1.6,0.3-2.6c0-1,0-1.7-0.1-2.2
		C1350.9,863.2,1350.8,862.7,1350.6,862.2z"/>
	<path class="st2" d="M1356.3,872.3V861h-1.5v-1.5h3.1v12.8H1356.3z"/>
	<path class="st2" d="M1362.1,872.3V861h-1.5v-1.5h3.1v12.8H1362.1z"/>
</g>
<g class="st1">
	<path class="st2" d="M1407.9,872.1V871c0.3-0.3,0.7-0.6,1.4-1.2c0.6-0.5,1.1-0.9,1.4-1.2c0.3-0.3,0.7-0.6,1.2-1.1
		c0.5-0.5,0.9-0.8,1.1-1.2c0.3-0.3,0.5-0.7,0.8-1.1c0.5-0.8,0.8-1.5,0.8-2.3s-0.2-1.4-0.6-1.8c-0.4-0.5-1-0.7-1.8-0.7
		s-1.5,0.3-1.9,0.8c-0.4,0.5-0.7,1.2-0.7,2h-1.6c0-1.3,0.5-2.4,1.2-3.1c0.8-0.7,1.8-1.1,3-1.1s2.2,0.3,2.9,1
		c0.7,0.7,1.1,1.6,1.1,2.8c0,1.4-0.7,2.9-2.1,4.4c-0.5,0.5-0.9,0.9-1.2,1.2c-0.8,0.7-1.6,1.5-2.5,2.2h6.1v1.4H1407.9z"/>
	<path class="st2" d="M1419.9,860.4c0.3-0.4,0.8-0.7,1.3-0.9c0.5-0.2,1.2-0.3,2-0.3s1.5,0.2,2.1,0.5c0.6,0.3,1.1,0.8,1.4,1.4
		c0.6,1.2,0.9,2.7,0.9,4.6c0,2.5-0.4,4.3-1.3,5.3c-0.7,0.8-1.8,1.3-3.2,1.3c-2.6,0-4-1.5-4.4-4.5c-0.1-0.6-0.1-1.3-0.1-2.1
		c0-0.8,0-1.5,0.1-2.1s0.2-1.2,0.4-1.8C1419.3,861.3,1419.5,860.8,1419.9,860.4z M1425.5,862.2c-0.2-0.5-0.5-0.9-0.9-1.2
		c-0.4-0.3-0.9-0.4-1.5-0.4c-0.6,0-1,0.1-1.4,0.3c-0.4,0.2-0.7,0.4-0.9,0.7s-0.4,0.7-0.5,1.2c-0.1,0.5-0.2,0.9-0.2,1.4
		c0,0.4,0,1,0,1.6s0,1.1,0,1.6c0,0.4,0.1,0.9,0.2,1.4c0.1,0.5,0.3,0.9,0.5,1.2s0.5,0.5,0.9,0.7c0.4,0.2,0.8,0.3,1.3,0.3
		s0.9-0.1,1.3-0.3c0.4-0.2,0.7-0.4,0.9-0.7s0.4-0.7,0.5-1.2c0.2-0.8,0.3-1.6,0.3-2.6c0-1,0-1.7-0.1-2.2
		C1425.8,863.2,1425.7,862.7,1425.5,862.2z"/>
	<path class="st2" d="M1431.2,872.3V861h-1.5v-1.5h3.1v12.8H1431.2z"/>
	<path class="st2" d="M1435.6,872.1V871c0.3-0.3,0.7-0.6,1.4-1.2c0.6-0.5,1.1-0.9,1.4-1.2c0.3-0.3,0.7-0.6,1.2-1.1
		c0.5-0.5,0.9-0.8,1.1-1.2c0.3-0.3,0.5-0.7,0.8-1.1c0.5-0.8,0.8-1.5,0.8-2.3s-0.2-1.4-0.6-1.8c-0.4-0.5-1-0.7-1.8-0.7
		s-1.5,0.3-1.9,0.8c-0.4,0.5-0.7,1.2-0.7,2h-1.6c0-1.3,0.5-2.4,1.2-3.1c0.8-0.7,1.8-1.1,3-1.1s2.2,0.3,2.9,1
		c0.7,0.7,1.1,1.6,1.1,2.8c0,1.4-0.7,2.9-2.1,4.4c-0.5,0.5-0.9,0.9-1.2,1.2c-0.8,0.7-1.6,1.5-2.5,2.2h6.1v1.4H1435.6z"/>
</g>
<g class="st1">
	<path class="st2" d="M1485,872.1V871c0.3-0.3,0.7-0.6,1.4-1.2c0.6-0.5,1.1-0.9,1.4-1.2c0.3-0.3,0.7-0.6,1.2-1.1
		c0.5-0.5,0.9-0.8,1.1-1.2c0.3-0.3,0.5-0.7,0.8-1.1c0.5-0.8,0.8-1.5,0.8-2.3s-0.2-1.4-0.6-1.8c-0.4-0.5-1-0.7-1.8-0.7
		s-1.5,0.3-1.9,0.8c-0.4,0.5-0.7,1.2-0.7,2h-1.6c0-1.3,0.5-2.4,1.2-3.1c0.8-0.7,1.8-1.1,3-1.1s2.2,0.3,2.9,1
		c0.7,0.7,1.1,1.6,1.1,2.8c0,1.4-0.7,2.9-2.1,4.4c-0.5,0.5-0.9,0.9-1.2,1.2c-0.8,0.7-1.6,1.5-2.5,2.2h6.1v1.4H1485z"/>
	<path class="st2" d="M1497,860.4c0.3-0.4,0.8-0.7,1.3-0.9c0.5-0.2,1.2-0.3,2-0.3s1.5,0.2,2.1,0.5c0.6,0.3,1.1,0.8,1.4,1.4
		c0.6,1.2,0.9,2.7,0.9,4.6c0,2.5-0.4,4.3-1.3,5.3c-0.7,0.8-1.8,1.3-3.2,1.3c-2.6,0-4-1.5-4.4-4.5c-0.1-0.6-0.1-1.3-0.1-2.1
		c0-0.8,0-1.5,0.1-2.1s0.2-1.2,0.4-1.8C1496.4,861.3,1496.7,860.8,1497,860.4z M1502.6,862.2c-0.2-0.5-0.5-0.9-0.9-1.2
		c-0.4-0.3-0.9-0.4-1.5-0.4c-0.6,0-1,0.1-1.4,0.3c-0.4,0.2-0.7,0.4-0.9,0.7s-0.4,0.7-0.5,1.2c-0.1,0.5-0.2,0.9-0.2,1.4
		c0,0.4,0,1,0,1.6s0,1.1,0,1.6c0,0.4,0.1,0.9,0.2,1.4c0.1,0.5,0.3,0.9,0.5,1.2s0.5,0.5,0.9,0.7c0.4,0.2,0.8,0.3,1.3,0.3
		s0.9-0.1,1.3-0.3c0.4-0.2,0.7-0.4,0.9-0.7s0.4-0.7,0.5-1.2c0.2-0.8,0.3-1.6,0.3-2.6c0-1,0-1.7-0.1-2.2
		C1502.9,863.2,1502.8,862.7,1502.6,862.2z"/>
	<path class="st2" d="M1508.3,872.3V861h-1.5v-1.5h3.1v12.8H1508.3z"/>
	<path class="st2" d="M1514.1,859.8c0.8-0.6,1.8-0.9,3-0.9s2.2,0.3,2.9,1c0.7,0.6,1.1,1.4,1.1,2.4c0,0.7-0.2,1.3-0.6,1.9
		c-0.4,0.5-0.9,0.9-1.5,1.1v0.1c0.7,0.2,1.3,0.6,1.7,1.2c0.4,0.6,0.6,1.4,0.6,2.4c0,1-0.4,1.8-1.1,2.5c-0.7,0.7-1.7,1-3,1
		c-1.3,0-2.3-0.3-3.1-1c-0.8-0.6-1.3-1.6-1.3-2.8h1.5c0.1,0.7,0.3,1.2,0.9,1.7c0.5,0.4,1.2,0.7,2,0.7c0.8,0,1.5-0.2,1.9-0.7
		s0.7-1,0.7-1.7c0-0.9-0.3-1.6-0.9-2c-0.6-0.4-1.5-0.6-2.8-0.6h-0.4v-1.4h0.5c2.3,0,3.4-0.8,3.4-2.2c0-0.7-0.2-1.2-0.6-1.6
		c-0.4-0.4-1-0.6-1.8-0.6c-0.8,0-1.4,0.2-1.8,0.5c-0.4,0.4-0.7,0.8-0.8,1.4h-1.6C1512.9,861.2,1513.3,860.4,1514.1,859.8z"/>
</g>
<g class="st1">
	<path class="st2" d="M1561.8,872.1V871c0.3-0.3,0.7-0.6,1.4-1.2c0.6-0.5,1.1-0.9,1.4-1.2c0.3-0.3,0.7-0.6,1.2-1.1
		c0.5-0.5,0.9-0.8,1.1-1.2c0.3-0.3,0.5-0.7,0.8-1.1c0.5-0.8,0.8-1.5,0.8-2.3s-0.2-1.4-0.6-1.8s-1-0.7-1.8-0.7s-1.5,0.3-1.9,0.8
		c-0.4,0.5-0.7,1.2-0.7,2h-1.6c0-1.3,0.5-2.4,1.2-3.1c0.8-0.7,1.8-1.1,3-1.1c1.2,0,2.2,0.3,2.9,1c0.7,0.7,1.1,1.6,1.1,2.8
		c0,1.4-0.7,2.9-2.1,4.4c-0.5,0.5-0.9,0.9-1.2,1.2c-0.8,0.7-1.6,1.5-2.5,2.2h6.1v1.4H1561.8z"/>
	<path class="st2" d="M1573.8,860.4c0.3-0.4,0.8-0.7,1.3-0.9c0.5-0.2,1.2-0.3,2-0.3s1.5,0.2,2.1,0.5c0.6,0.3,1.1,0.8,1.4,1.4
		c0.6,1.2,0.9,2.7,0.9,4.6c0,2.5-0.4,4.3-1.3,5.3c-0.7,0.8-1.8,1.3-3.2,1.3c-2.6,0-4-1.5-4.4-4.5c-0.1-0.6-0.1-1.3-0.1-2.1
		c0-0.8,0-1.5,0.1-2.1s0.2-1.2,0.4-1.8C1573.2,861.3,1573.5,860.8,1573.8,860.4z M1579.4,862.2c-0.2-0.5-0.5-0.9-0.9-1.2
		c-0.4-0.3-0.9-0.4-1.5-0.4s-1,0.1-1.4,0.3c-0.4,0.2-0.7,0.4-0.9,0.7s-0.4,0.7-0.5,1.2c-0.1,0.5-0.2,0.9-0.2,1.4c0,0.4,0,1,0,1.6
		s0,1.1,0,1.6c0,0.4,0.1,0.9,0.2,1.4c0.1,0.5,0.3,0.9,0.5,1.2s0.5,0.5,0.9,0.7c0.4,0.2,0.8,0.3,1.3,0.3s0.9-0.1,1.3-0.3
		c0.4-0.2,0.7-0.4,0.9-0.7s0.4-0.7,0.5-1.2c0.2-0.8,0.3-1.6,0.3-2.6c0-1,0-1.7-0.1-2.2C1579.7,863.2,1579.6,862.7,1579.4,862.2z"/>
	<path class="st2" d="M1585.1,872.3V861h-1.5v-1.5h3.1v12.8H1585.1z"/>
	<path class="st2" d="M1596,872.3v-2.9h-6.7v-1.2l6.2-8.9h2.1v8.6h1.7v1.4h-1.7v2.9H1596z M1596,868v-7.1l-4.8,7.1H1596z"/>
</g>
<g class="st1">
	<path class="st2" d="M1639.1,872.1V871c0.3-0.3,0.7-0.6,1.4-1.2c0.6-0.5,1.1-0.9,1.4-1.2c0.3-0.3,0.7-0.6,1.2-1.1
		c0.5-0.5,0.9-0.8,1.1-1.2c0.3-0.3,0.5-0.7,0.8-1.1c0.5-0.8,0.8-1.5,0.8-2.3s-0.2-1.4-0.6-1.8c-0.4-0.5-1-0.7-1.8-0.7
		s-1.5,0.3-1.9,0.8c-0.4,0.5-0.7,1.2-0.7,2h-1.6c0-1.3,0.5-2.4,1.2-3.1c0.8-0.7,1.8-1.1,3-1.1s2.2,0.3,2.9,1
		c0.7,0.7,1.1,1.6,1.1,2.8c0,1.4-0.7,2.9-2.1,4.4c-0.5,0.5-0.9,0.9-1.2,1.2c-0.8,0.7-1.6,1.5-2.5,2.2h6.1v1.4H1639.1z"/>
	<path class="st2" d="M1651,860.4c0.3-0.4,0.8-0.7,1.3-0.9c0.5-0.2,1.2-0.3,2-0.3s1.5,0.2,2.1,0.5c0.6,0.3,1.1,0.8,1.4,1.4
		c0.6,1.2,0.9,2.7,0.9,4.6c0,2.5-0.4,4.3-1.3,5.3c-0.7,0.8-1.8,1.3-3.2,1.3c-2.6,0-4-1.5-4.4-4.5c-0.1-0.6-0.1-1.3-0.1-2.1
		c0-0.8,0-1.5,0.1-2.1c0.1-0.6,0.2-1.2,0.4-1.8C1650.4,861.3,1650.7,860.8,1651,860.4z M1656.6,862.2c-0.2-0.5-0.5-0.9-0.9-1.2
		c-0.4-0.3-0.9-0.4-1.5-0.4c-0.6,0-1,0.1-1.4,0.3c-0.4,0.2-0.7,0.4-0.9,0.7s-0.4,0.7-0.5,1.2c-0.1,0.5-0.2,0.9-0.2,1.4
		c0,0.4,0,1,0,1.6s0,1.1,0,1.6c0,0.4,0.1,0.9,0.2,1.4c0.1,0.5,0.3,0.9,0.5,1.2s0.5,0.5,0.9,0.7c0.4,0.2,0.8,0.3,1.3,0.3
		s0.9-0.1,1.3-0.3c0.4-0.2,0.7-0.4,0.9-0.7s0.4-0.7,0.5-1.2c0.2-0.8,0.3-1.6,0.3-2.6c0-1,0-1.7-0.1-2.2
		C1656.9,863.2,1656.8,862.7,1656.6,862.2z"/>
	<path class="st2" d="M1662.3,872.3V861h-1.5v-1.5h3.1v12.8H1662.3z"/>
	<path class="st2" d="M1667.3,859.1h7.8v1.4h-6.3v4.1c0.3-0.4,0.7-0.7,1.2-1c0.5-0.3,1.2-0.4,1.8-0.4c0.7,0,1.3,0.1,1.9,0.4
		c0.6,0.3,1,0.6,1.3,1.1c0.6,0.9,0.9,1.8,0.9,3c0,1.4-0.4,2.5-1.1,3.3c-0.8,0.9-1.8,1.3-3.2,1.3c-1.4,0-2.4-0.3-3.2-1
		c-0.8-0.6-1.3-1.5-1.4-2.5h1.6c0.2,0.6,0.5,1.2,1,1.5c0.5,0.4,1.2,0.6,2.1,0.6c0.9,0,1.5-0.3,2-0.9c0.5-0.6,0.7-1.3,0.7-2.3
		c0-1-0.2-1.7-0.7-2.2c-0.5-0.5-1.2-0.8-2.2-0.8c-0.6,0-1.2,0.2-1.7,0.5s-0.8,0.8-1,1.4h-1.5V859.1z"/>
</g>
<path class="st3" d="M116,817.7l83.8-38.3l72.3-51.7l77.1-20.7l156.1-61.4l74.8-47.4l67.6-30.9l86.9-32.8l75.9-19.2l79.3-45
	l153.1-18.8l76.7-23.9l76.3-46.9l77.8-13.7l76.7,10.2l79-99.8l79.5-24.2l72.7-29.4l78.7-95.5"/>
<path class="st2" d="M1660.3,115.6l12.7,12.7l-12.7,12.8l-12.7-12.7L1660.3,115.6z M116,805l12.7,12.7L116,830.4l-12.7-12.7L116,805
	z"/>
<g class="st1">
	<path class="st2" d="M35.9,23v1.5c0.6-1.1,1.6-1.7,3-1.7c0.7,0,1.4,0.2,1.9,0.5c0.6,0.3,1,0.8,1.3,1.5c0.3-0.6,0.8-1.1,1.4-1.5
		c0.6-0.4,1.2-0.5,2-0.5c1.1,0,1.9,0.3,2.6,1c0.7,0.7,1,1.7,1,2.9v5.5h-1.5V27c0-0.9-0.2-1.7-0.7-2.1s-1.1-0.7-1.9-0.7
		c-0.8,0-1.4,0.2-1.9,0.7s-0.7,1.2-0.7,2.1v5.3h-1.5V27c0-0.9-0.2-1.7-0.7-2.1s-1.1-0.7-1.9-0.7s-1.4,0.2-1.9,0.7
		c-0.5,0.5-0.7,1.2-0.7,2.1v5.3h-1.5V23H35.9z"/>
	<path class="st2" d="M53.3,23v1.5c0.6-1.1,1.6-1.7,3-1.7c0.7,0,1.4,0.2,1.9,0.5c0.6,0.3,1,0.8,1.3,1.5c0.3-0.6,0.8-1.1,1.4-1.5
		c0.6-0.4,1.2-0.5,2-0.5c1.1,0,1.9,0.3,2.6,1c0.7,0.7,1,1.7,1,2.9v5.5h-1.5V27c0-0.9-0.2-1.7-0.7-2.1s-1.1-0.7-1.9-0.7
		c-0.8,0-1.4,0.2-1.9,0.7s-0.7,1.2-0.7,2.1v5.3h-1.5V27c0-0.9-0.2-1.7-0.7-2.1s-1.1-0.7-1.9-0.7s-1.4,0.2-1.9,0.7
		c-0.5,0.5-0.7,1.2-0.7,2.1v5.3h-1.5V23H53.3z"/>
</g>
</svg>
