<?xml version="1.0" encoding="utf-8"?>
<!-- Generator: Adobe Illustrator 22.0.1, SVG Export Plug-In . SVG Version: 6.00 Build 0)  -->
<svg version="1.1" id="Livello_1" xmlns="http://www.w3.org/2000/svg" xmlns:xlink="http://www.w3.org/1999/xlink" x="0px" y="0px"
	 width="1244.1px" height="350px" viewBox="0 0 1244.1 350" style="enable-background:new 0 0 1244.1 350;" xml:space="preserve">
<style type="text/css">
	.st0{fill:none;stroke:#FFFFFF;stroke-width:0.75;}
	.st1{fill:#FFFFFF;}
	.st2{font-family:'ArialMT';}
	.st3{font-size:10px;}
	.st4{opacity:0.5;fill:#FFFFFF;stroke:#FF4A60;stroke-miterlimit:10;}
</style>
<line class="st0" x1="22" y1="330" x2="22" y2="0"/>
<text transform="matrix(1 0 0 1 9.5183 340.1)" class="st1 st2 st3">2,003</text>
<line class="st0" x1="114.3" y1="330" x2="114.3" y2="0"/>
<text transform="matrix(1 0 0 1 101.8259 340.1)" class="st1 st2 st3">2,004</text>
<line class="st0" x1="206.6" y1="330" x2="206.6" y2="0"/>
<text transform="matrix(1 0 0 1 194.1336 340.1)" class="st1 st2 st3">2,005</text>
<line class="st0" x1="299" y1="330" x2="299" y2="0"/>
<text transform="matrix(1 0 0 1 286.4414 340.1)" class="st1 st2 st3">2,006</text>
<line class="st0" x1="391.3" y1="330" x2="391.3" y2="0"/>
<text transform="matrix(1 0 0 1 378.7491 340.1)" class="st1 st2 st3">2,007</text>
<line class="st0" x1="483.6" y1="330" x2="483.6" y2="0"/>
<text transform="matrix(1 0 0 1 471.0567 340.1)" class="st1 st2 st3">2,008</text>
<line class="st0" x1="575.9" y1="330" x2="575.9" y2="0"/>
<text transform="matrix(1 0 0 1 563.3644 340.1)" class="st1 st2 st3">2,009</text>
<line class="st0" x1="668.2" y1="330" x2="668.2" y2="0"/>
<text transform="matrix(1 0 0 1 655.6721 340.1)" class="st1 st2 st3">2,010</text>
<line class="st0" x1="760.5" y1="330" x2="760.5" y2="0"/>
<text transform="matrix(1 0 0 1 748.3508 340.1)" class="st1 st2 st3">2,011</text>
<line class="st0" x1="852.8" y1="330" x2="852.8" y2="0"/>
<text transform="matrix(1 0 0 1 840.2875 340.1)" class="st1 st2 st3">2,012</text>
<line class="st0" x1="945.1" y1="330" x2="945.1" y2="0"/>
<text transform="matrix(1 0 0 1 932.5952 340.1)" class="st1 st2 st3">2,013</text>
<line class="st0" x1="1037.4" y1="330" x2="1037.4" y2="0"/>
<text transform="matrix(1 0 0 1 1024.903 340.1)" class="st1 st2 st3">2,014</text>
<line class="st0" x1="1129.7" y1="330" x2="1129.7" y2="0"/>
<text transform="matrix(1 0 0 1 1117.2106 340.1)" class="st1 st2 st3">2,015</text>
<line class="st0" x1="1222" y1="330" x2="1222" y2="0"/>
<text transform="matrix(1 0 0 1 1209.5183 340.1)" class="st1 st2 st3">2,016</text>
<path class="st0" d="M22,0v330h1200V0"/>
<path class="st4" d="M22,328.5c46.2,0,46.2-0.5,92.3-0.5s46.2,1.9,92.3,1.9s46.2,0.1,92.3,0.1s46.2-1.4,92.3-1.4s46.2-5.1,92.3-5.1
	s46.2-15.9,92.3-15.9c46.2,0,46.2,11.9,92.3,11.9c46.2,0,46.2-18.1,92.3-18.1c46.2,0,46.2-34.9,92.3-34.9s46.2-40.3,92.3-40.3
	c46.2,0,46.2,50,92.3,50c46.2,0,46.2,37.7,92.3,37.7c46.2,0,46.2,5.6,92.3,5.6V330c-46.2,0-46.2,0-92.3,0c-46.2,0-46.2,0-92.3,0
	c-46.2,0-46.2,0-92.3,0c-46.2,0-46.2,0-92.3,0s-46.2,0-92.3,0c-46.2,0-46.2,0-92.3,0c-46.2,0-46.2,0-92.3,0c-46.2,0-46.2,0-92.3,0
	s-46.2,0-92.3,0s-46.2,0-92.3,0s-46.2,0-92.3,0s-46.2,0-92.3,0s-46.2,0-92.3,0L22,328.5L22,328.5z"/>
<path class="st4" d="M22,328.5c46.2,0,46.2-0.5,92.3-0.5s46.2,1.9,92.3,1.9s46.2-1.4,92.3-1.4s46.2-12.2,92.3-12.2
	s46.2,4.4,92.3,4.4s46.2-25.1,92.3-25.1c46.2,0,46.2,21.2,92.3,21.2c46.2,0,46.2-28.6,92.3-28.6c46.2,0,46.2-38.8,92.3-38.8
	s46.2-27.9,92.3-27.9c46.2,0,46.2,22.8,92.3,22.8c46.2,0,46.2,63.4,92.3,63.4c46.2,0,46.2,8.9,92.3,8.9v2.8
	c-46.2,0-46.2-5.6-92.3-5.6c-46.2,0-46.2-37.7-92.3-37.7c-46.2,0-46.2-50-92.3-50c-46.2,0-46.2,40.3-92.3,40.3s-46.2,34.9-92.3,34.9
	c-46.2,0-46.2,18.1-92.3,18.1c-46.2,0-46.2-11.9-92.3-11.9c-46.2,0-46.2,15.9-92.3,15.9s-46.2,5.1-92.3,5.1S345.1,330,299,330
	s-46.2-0.1-92.3-0.1s-46.2-1.9-92.3-1.9S68.2,328.5,22,328.5z"/>
<path class="st4" d="M22,328.5c46.2,0,46.2-0.5,92.3-0.5s46.2,1.9,92.3,1.9s46.2-1.4,92.3-1.4s46.2-12.2,92.3-12.2
	s46.2,2.1,92.3,2.1s46.2-32.1,92.3-32.1c46.2,0,46.2,11.6,92.3,11.6c46.2,0,46.2-24.5,92.3-24.5c46.2,0,46.2-24,92.3-24
	s46.2-32.6,92.3-32.6c46.2,0,46.2,20.3,92.3,20.3c46.2,0,46.2,70.5,92.3,70.5c46.2,0,46.2,8.9,92.3,8.9l0,0
	c-46.2,0-46.2-8.9-92.3-8.9c-46.2,0-46.2-63.4-92.3-63.4c-46.2,0-46.2-22.8-92.3-22.8c-46.2,0-46.2,27.9-92.3,27.9
	s-46.2,38.8-92.3,38.8c-46.2,0-46.2,28.6-92.3,28.6c-46.2,0-46.2-21.2-92.3-21.2c-46.2,0-46.2,25.1-92.3,25.1s-46.2-4.4-92.3-4.4
	s-46.2,12.2-92.3,12.2s-46.2,1.4-92.3,1.4s-46.2-1.9-92.3-1.9S68.2,328.5,22,328.5z"/>
<path class="st4" d="M22,328.5c46.2,0,46.2-0.5,92.3-0.5s46.2,1.9,92.3,1.9s46.2-1.4,92.3-1.4s46.2-12.2,92.3-12.2
	s46.2-7.2,92.3-7.2s46.2-31,92.3-31c46.2,0,46.2,9.1,92.3,9.1c46.2,0,46.2-24.2,92.3-24.2c46.2,0,46.2-30,92.3-30
	s46.2-20.7,92.3-20.7c46.2,0,46.2,19.2,92.3,19.2c46.2,0,46.2,76.1,92.3,76.1c46.2,0,46.2,8.9,92.3,8.9l0,0
	c-46.2,0-46.2-8.9-92.3-8.9c-46.2,0-46.2-70.5-92.3-70.5c-46.2,0-46.2-20.3-92.3-20.3c-46.2,0-46.2,32.6-92.3,32.6s-46.2,24-92.3,24
	c-46.2,0-46.2,24.5-92.3,24.5c-46.2,0-46.2-11.6-92.3-11.6c-46.2,0-46.2,32.1-92.3,32.1s-46.2-2.1-92.3-2.1s-46.2,12.2-92.3,12.2
	s-46.2,1.4-92.3,1.4s-46.2-1.9-92.3-1.9S68.2,328.5,22,328.5z"/>
<path class="st4" d="M22,328.5c46.2,0,46.2-0.5,92.3-0.5s46.2,1.9,92.3,1.9s46.2-1.4,92.3-1.4s46.2-12.2,92.3-12.2
	s46.2-22.5,92.3-22.5s46.2-20.6,92.3-20.6c46.2,0,46.2,14,92.3,14c46.2,0,46.2-24.2,92.3-24.2c46.2,0,46.2-30,92.3-30
	s46.2-20.7,92.3-20.7c46.2,0,46.2,19.2,92.3,19.2c46.2,0,46.2,76.1,92.3,76.1c46.2,0,46.2,8.9,92.3,8.9l0,0
	c-46.2,0-46.2-8.9-92.3-8.9c-46.2,0-46.2-76.1-92.3-76.1c-46.2,0-46.2-19.2-92.3-19.2c-46.2,0-46.2,20.7-92.3,20.7s-46.2,30-92.3,30
	c-46.2,0-46.2,24.2-92.3,24.2c-46.2,0-46.2-9.1-92.3-9.1c-46.2,0-46.2,31-92.3,31s-46.2,7.2-92.3,7.2s-46.2,12.2-92.3,12.2
	s-46.2,1.4-92.3,1.4s-46.2-1.9-92.3-1.9S68.2,328.5,22,328.5z"/>
<path class="st4" d="M22,328.5c46.2,0,46.2-0.5,92.3-0.5s46.2,1.9,92.3,1.9s46.2-1.4,92.3-1.4s46.2-12.2,92.3-12.2
	s46.2-22.5,92.3-22.5s46.2-20.6,92.3-20.6c46.2,0,46.2,5.2,92.3,5.2c46.2,0,46.2-42.5,92.3-42.5c46.2,0,46.2-36.2,92.3-36.2
	s46.2,4.8,92.3,4.8c46.2,0,46.2,5.2,92.3,5.2c46.2,0,46.2,73.4,92.3,73.4c46.2,0,46.2,30.9,92.3,30.9v2.6c-46.2,0-46.2-8.9-92.3-8.9
	c-46.2,0-46.2-76.1-92.3-76.1c-46.2,0-46.2-19.2-92.3-19.2c-46.2,0-46.2,20.7-92.3,20.7s-46.2,30-92.3,30
	c-46.2,0-46.2,24.2-92.3,24.2c-46.2,0-46.2-14-92.3-14c-46.2,0-46.2,20.6-92.3,20.6s-46.2,22.5-92.3,22.5s-46.2,12.2-92.3,12.2
	s-46.2,1.4-92.3,1.4s-46.2-1.9-92.3-1.9S68.2,328.5,22,328.5z"/>
<path class="st4" d="M22,328.5c46.2,0,46.2-0.5,92.3-0.5s46.2,1.9,92.3,1.9s46.2-1.4,92.3-1.4s46.2-12.2,92.3-12.2
	s46.2-22.5,92.3-22.5s46.2-20.6,92.3-20.6c46.2,0,46.2,4.7,92.3,4.7c46.2,0,46.2-42.1,92.3-42.1c46.2,0,46.2-36.2,92.3-36.2
	s46.2,4.3,92.3,4.3c46.2,0,46.2,5.7,92.3,5.7c46.2,0,46.2,73.4,92.3,73.4c46.2,0,46.2,30.9,92.3,30.9l0,0
	c-46.2,0-46.2-30.9-92.3-30.9c-46.2,0-46.2-73.4-92.3-73.4c-46.2,0-46.2-5.2-92.3-5.2c-46.2,0-46.2-4.8-92.3-4.8
	S806.6,236,760.5,236c-46.2,0-46.2,42.5-92.3,42.5c-46.2,0-46.2-5.2-92.3-5.2c-46.2,0-46.2,20.6-92.3,20.6s-46.2,22.5-92.3,22.5
	s-46.2,12.2-92.3,12.2s-46.2,1.4-92.3,1.4s-46.2-1.9-92.3-1.9S68.2,328.5,22,328.5z"/>
<path class="st4" d="M22,328.5c46.2,0,46.2-0.5,92.3-0.5s46.2,1.9,92.3,1.9s46.2-1.4,92.3-1.4s46.2-12.2,92.3-12.2
	s46.2-22.5,92.3-22.5s46.2-20.6,92.3-20.6c46.2,0,46.2,1.7,92.3,1.7c46.2,0,46.2-153.5,92.3-153.5c46.2,0,46.2-2.4,92.3-2.4
	s46.2,11.3,92.3,11.3c46.2,0,46.2,43.6,92.3,43.6c46.2,0,46.2,51.6,92.3,51.6c46.2,0,46.2,88.4,92.3,88.4l0,0
	c-46.2,0-46.2-30.9-92.3-30.9c-46.2,0-46.2-73.4-92.3-73.4c-46.2,0-46.2-5.7-92.3-5.7c-46.2,0-46.2-4.3-92.3-4.3
	S806.6,236,760.5,236c-46.2,0-46.2,42.1-92.3,42.1c-46.2,0-46.2-4.7-92.3-4.7c-46.2,0-46.2,20.6-92.3,20.6s-46.2,22.5-92.3,22.5
	s-46.2,12.2-92.3,12.2s-46.2,1.4-92.3,1.4s-46.2-1.9-92.3-1.9S68.2,328.5,22,328.5z"/>
<path class="st4" d="M22,328.5c46.2,0,46.2-0.5,92.3-0.5s46.2,1.9,92.3,1.9s46.2-1.4,92.3-1.4s46.2-12.2,92.3-12.2
	s46.2-22.5,92.3-22.5s46.2-20.6,92.3-20.6c46.2,0,46.2,1.7,92.3,1.7c46.2,0,46.2-187.9,92.3-187.9c46.2,0,46.2-85.3,92.3-85.3
	s46.2,91.2,92.3,91.2c46.2,0,46.2,80.9,92.3,80.9c46.2,0,46.2,51.6,92.3,51.6c46.2,0,46.2,88.4,92.3,88.4l0,0
	c-46.2,0-46.2-88.4-92.3-88.4c-46.2,0-46.2-51.6-92.3-51.6c-46.2,0-46.2-43.6-92.3-43.6c-46.2,0-46.2-11.3-92.3-11.3
	s-46.2,2.4-92.3,2.4c-46.2,0-46.2,153.5-92.3,153.5c-46.2,0-46.2-1.7-92.3-1.7c-46.2,0-46.2,20.6-92.3,20.6s-46.2,22.5-92.3,22.5
	s-46.2,12.2-92.3,12.2s-46.2,1.4-92.3,1.4s-46.2-1.9-92.3-1.9S68.2,328.5,22,328.5z"/>
<path class="st4" d="M22,328.5c46.2,0,46.2-0.5,92.3-0.5s46.2,1.9,92.3,1.9s46.2-1.4,92.3-1.4s46.2-12.2,92.3-12.2
	s46.2-22.5,92.3-22.5s46.2-20.6,92.3-20.6c46.2,0,46.2,1.7,92.3,1.7c46.2,0,46.2-187.9,92.3-187.9c46.2,0,46.2-87.1,92.3-87.1
	s46.2,54.5,92.3,54.5c46.2,0,46.2,88.4,92.3,88.4c46.2,0,46.2,47.5,92.3,47.5c46.2,0,46.2,123.6,92.3,123.6l0,0
	c-46.2,0-46.2-88.4-92.3-88.4c-46.2,0-46.2-51.6-92.3-51.6c-46.2,0-46.2-80.9-92.3-80.9c-46,0.1-46-91.1-92.2-91.1
	s-46.2,85.3-92.3,85.3c-46.2,0-46.2,187.9-92.3,187.9c-46.2,0-46.2-1.7-92.3-1.7c-46.2,0-46.2,20.6-92.3,20.6s-46.2,22.5-92.3,22.5
	s-46.2,12.2-92.3,12.2s-46.2,1.4-92.3,1.4s-46.2-1.9-92.3-1.9S68.2,328.5,22,328.5z"/>
<path class="st4" d="M22,328.5c46.2,0,46.2-0.5,92.3-0.5s46.2,1.9,92.3,1.9s46.2-1.4,92.3-1.4s46.2-12.2,92.3-12.2
	s46.2-22.5,92.3-22.5s46.2-20.6,92.3-20.6c46.2,0,46.2,1.7,92.3,1.7c46.2,0,46.2-187.9,92.3-187.9c46.2,0,46.2-87.1,92.3-87.1
	s46.2,51.6,92.3,51.6c46.2,0,46.2,89.5,92.3,89.5c46.2,0,46.2,49.3,92.3,49.3c46.2,0,46.2,123.6,92.3,123.6l0,0
	c-46.2,0-46.2-123.6-92.3-123.6c-46.2,0-46.2-47.5-92.3-47.5c-46.2,0-46.2-88.4-92.3-88.4C899,54.5,899,0,852.8,0
	s-46.2,87.1-92.3,87.1c-46.2,0-46.2,187.9-92.3,187.9c-46.2,0-46.2-1.7-92.3-1.7c-46.2,0-46.2,20.6-92.3,20.6s-46.2,22.5-92.3,22.5
	s-46.2,12.2-92.3,12.2s-46.2,1.4-92.3,1.4s-46.2-1.9-92.3-1.9S68.2,328.5,22,328.5z"/>
<path class="st4" d="M22,328.5c46.2,0,46.2-0.5,92.3-0.5s46.2,1.9,92.3,1.9s46.2-1.4,92.3-1.4s46.2-12.2,92.3-12.2
	s46.2-22.5,92.3-22.5s46.2-20.6,92.3-20.6c46.2,0,46.2,1.7,92.3,1.7c46.2,0,46.2-187.9,92.3-187.9c46.2,0,46.2-87.1,92.3-87.1
	s46.2,51.6,92.3,51.6c46.2,0,46.2,89.5,92.3,89.5c46.2,0,46.2,6.3,92.3,6.3c46.2,0,46.2,166.6,92.3,166.6l0,0
	c-46.2,0-46.2-123.6-92.3-123.6c-46.2,0-46.2-49.3-92.3-49.3c-46.2,0-46.2-89.5-92.3-89.5C899,51.6,899,0,852.8,0
	s-46.2,87.1-92.3,87.1c-46.2,0-46.2,187.9-92.3,187.9c-46.2,0-46.2-1.7-92.3-1.7c-46.2,0-46.2,20.6-92.3,20.6s-46.2,22.5-92.3,22.5
	s-46.2,12.2-92.3,12.2s-46.2,1.4-92.3,1.4s-46.2-1.9-92.3-1.9S68.2,328.5,22,328.5z"/>
</svg>
