<?xml version="1.0" encoding="utf-8"?>
<!-- Generator: Adobe Illustrator 21.0.0, SVG Export Plug-In . SVG Version: 6.00 Build 0)  -->
<svg version="1.1" id="Livello_1" xmlns="http://www.w3.org/2000/svg" xmlns:xlink="http://www.w3.org/1999/xlink" x="0px" y="0px"
	 width="1705px" height="888.1px" viewBox="0 0 1705 888.1" style="enable-background:new 0 0 1705 888.1;" xml:space="preserve">
<style type="text/css">
	.st0{opacity:0.7;}
	.st1{fill:none;stroke:#FFFFFF;stroke-miterlimit:10;}
	.st2{fill:none;stroke:#FFFFFF;stroke-miterlimit:10;stroke-dasharray:6.0166,4.0111;}
	.st3{fill:none;stroke:#FFFFFF;stroke-width:2;stroke-miterlimit:10;}
	.st4{enable-background:new    ;}
	.st5{fill:#FFFFFF;}
	.st6{fill:none;stroke:#FFFFFF;stroke-width:6;stroke-miterlimit:10;}
</style>
<g class="st0">
	<path class="st1" d="M91.4,835.1h3"/>
	<path class="st2" d="M98.4,835.1h1532.2"/>
	<path class="st1" d="M1632.6,835.1h3"/>
</g>
<path class="st3" d="M91.4,25.1v810 M168.4,555.6v279.5 M245.6,453.2v381.9 M322.8,314v521.1 M400,493.3v341.8 M477.2,492.3v342.8
	 M554.4,395.3v439.8 M631.7,314v521.1 M708.9,327.1v508 M786.1,388.8v446.3 M863.3,268v567.1 M940.5,314v521.1 M1017.7,292.1v543
	 M1094.9,400.3v434.8 M1172.1,308.2v526.9 M1249.4,242.5v592.6 M1326.6,341.6v493.5 M1403.8,314v521.1 M1481,296.7v538.4
	 M1558.2,227.7v607.4 M91.4,25.1h1544 M1635.4,25.1v810 M91.4,835.1h1544"/>
<g class="st4">
	<path class="st5" d="M52.8,748.7c0.3-0.3,0.6-0.5,1-0.7s0.9-0.3,1.6-0.3s1.2,0.1,1.6,0.4c0.5,0.3,0.8,0.6,1.1,1.1
		c0.5,0.9,0.7,2.1,0.7,3.6c0,1.9-0.3,3.3-1,4.1c-0.6,0.7-1.4,1-2.5,1c-2,0-3.1-1.2-3.4-3.5c-0.1-0.5-0.1-1-0.1-1.6s0-1.1,0.1-1.6
		s0.2-0.9,0.3-1.4C52.3,749.4,52.5,749,52.8,748.7z M57.1,750.1c-0.1-0.4-0.4-0.7-0.7-0.9s-0.7-0.3-1.1-0.3c-0.4,0-0.8,0.1-1.1,0.2
		s-0.5,0.3-0.7,0.6s-0.3,0.5-0.4,0.9c-0.1,0.4-0.2,0.7-0.2,1.1c0,0.3,0,0.7,0,1.2s0,0.9,0,1.2s0.1,0.7,0.2,1.1
		c0.1,0.4,0.2,0.7,0.4,0.9s0.4,0.4,0.7,0.6s0.6,0.2,1,0.2s0.7-0.1,1-0.2c0.3-0.1,0.5-0.3,0.7-0.6c0.2-0.2,0.3-0.5,0.4-0.9
		c0.1-0.6,0.2-1.3,0.2-2s0-1.3-0.1-1.8C57.4,750.9,57.3,750.5,57.1,750.1z"/>
	<path class="st5" d="M60.2,757h1.3c0.5,2,0,2.9-1.3,2.9v-0.6c0.2,0,0.4-0.1,0.5-0.2c0.1-0.1,0.2-0.3,0.2-0.5v-0.3h-0.7V757z"/>
	<path class="st5" d="M64.2,758v-8.8H63V748h2.4v9.9L64.2,758L64.2,758z"/>
</g>
<g class="st4">
	<path class="st5" d="M62.7,830.1c0.3-0.3,0.6-0.5,1-0.7c0.4-0.2,0.9-0.3,1.6-0.3s1.2,0.1,1.6,0.4c0.5,0.3,0.8,0.6,1.1,1.1
		c0.5,0.9,0.7,2.1,0.7,3.6c0,1.9-0.3,3.3-1,4.1c-0.6,0.7-1.4,1-2.5,1c-2,0-3.1-1.2-3.4-3.5c-0.1-0.5-0.1-1-0.1-1.6s0-1.1,0.1-1.6
		s0.2-0.9,0.3-1.4C62.2,830.8,62.4,830.4,62.7,830.1z M67,831.5c-0.1-0.4-0.4-0.7-0.7-0.9c-0.3-0.2-0.7-0.3-1.1-0.3
		s-0.8,0.1-1.1,0.2c-0.3,0.1-0.5,0.3-0.7,0.6c-0.2,0.2-0.3,0.5-0.4,0.9s-0.2,0.7-0.2,1.1c0,0.3,0,0.7,0,1.2s0,0.9,0,1.2
		s0.1,0.7,0.2,1.1c0.1,0.4,0.2,0.7,0.4,0.9s0.4,0.4,0.7,0.6c0.3,0.1,0.6,0.2,1,0.2s0.7-0.1,1-0.2c0.3-0.2,0.5-0.3,0.7-0.6
		c0.2-0.2,0.3-0.5,0.4-0.9c0.1-0.6,0.2-1.3,0.2-2s0-1.3-0.1-1.8C67.3,832.3,67.2,831.9,67,831.5z"/>
</g>
<g class="st4">
	<path class="st5" d="M49.1,667.3c0.3-0.3,0.6-0.5,1-0.7s0.9-0.3,1.6-0.3s1.2,0.1,1.6,0.4c0.5,0.3,0.8,0.6,1.1,1.1
		c0.5,0.9,0.7,2.1,0.7,3.6c0,1.9-0.3,3.3-1,4.1c-0.6,0.7-1.4,1-2.5,1c-2,0-3.1-1.2-3.4-3.5c-0.1-0.5-0.1-1-0.1-1.6s0-1.1,0.1-1.6
		s0.2-0.9,0.3-1.4C48.7,667.9,48.9,667.6,49.1,667.3z M53.5,668.7c-0.1-0.4-0.4-0.7-0.7-0.9s-0.7-0.3-1.1-0.3
		c-0.4,0-0.8,0.1-1.1,0.2s-0.5,0.3-0.7,0.6s-0.3,0.5-0.4,0.9c-0.1,0.4-0.2,0.7-0.2,1.1c0,0.3,0,0.7,0,1.2s0,0.9,0,1.2
		s0.1,0.7,0.2,1.1c0.1,0.4,0.2,0.7,0.4,0.9s0.4,0.4,0.7,0.6s0.6,0.2,1,0.2s0.7-0.1,1-0.2c0.3-0.1,0.5-0.3,0.7-0.6
		c0.2-0.2,0.3-0.5,0.4-0.9c0.1-0.6,0.2-1.3,0.2-2s0-1.3-0.1-1.8C53.8,669.5,53.7,669.1,53.5,668.7z"/>
	<path class="st5" d="M56.6,675.6h1.3c0.5,2,0,2.9-1.3,2.9v-0.6c0.2,0,0.4-0.1,0.5-0.2c0.1-0.1,0.2-0.3,0.2-0.5v-0.3h-0.7V675.6z"/>
	<path class="st5" d="M59.5,676.4v-0.9c0.2-0.2,0.6-0.5,1.1-0.9s0.8-0.7,1.1-0.9c0.2-0.2,0.5-0.5,0.9-0.9s0.7-0.7,0.9-0.9
		s0.4-0.5,0.6-0.8c0.4-0.6,0.6-1.2,0.6-1.8s-0.2-1.1-0.5-1.4s-0.8-0.5-1.4-0.5c-0.6,0-1.1,0.2-1.5,0.6c-0.3,0.4-0.5,0.9-0.6,1.6
		h-1.2c0-1,0.4-1.8,0.9-2.4c0.6-0.6,1.4-0.8,2.3-0.8s1.7,0.3,2.3,0.8c0.6,0.5,0.9,1.3,0.9,2.2c0,1.1-0.5,2.3-1.6,3.4
		c-0.4,0.4-0.7,0.7-0.9,0.9c-0.6,0.6-1.2,1.2-1.9,1.7h4.8v1.1L59.5,676.4L59.5,676.4z"/>
</g>
<g class="st4">
	<path class="st5" d="M49,585.8c0.3-0.3,0.6-0.5,1-0.7s0.9-0.3,1.6-0.3s1.2,0.1,1.6,0.4c0.5,0.3,0.8,0.6,1.1,1.1
		c0.5,0.9,0.7,2.1,0.7,3.6c0,1.9-0.3,3.3-1,4.1c-0.6,0.7-1.4,1-2.5,1c-2,0-3.1-1.2-3.4-3.5c-0.1-0.5-0.1-1-0.1-1.6s0-1.1,0.1-1.6
		s0.2-0.9,0.3-1.4C48.5,586.5,48.8,586.1,49,585.8z M53.4,587.2c-0.1-0.4-0.4-0.7-0.7-0.9S52,586,51.6,586c-0.4,0-0.8,0.1-1.1,0.2
		s-0.5,0.3-0.7,0.6s-0.3,0.5-0.4,0.9c-0.1,0.4-0.2,0.7-0.2,1.1c0,0.3,0,0.7,0,1.2s0,0.9,0,1.2s0.1,0.7,0.2,1.1
		c0.1,0.4,0.2,0.7,0.4,0.9s0.4,0.4,0.7,0.6s0.6,0.2,1,0.2s0.7-0.1,1-0.2c0.3-0.1,0.5-0.3,0.7-0.6c0.2-0.2,0.3-0.5,0.4-0.9
		c0.1-0.6,0.2-1.3,0.2-2s0-1.3-0.1-1.8C53.6,588.1,53.5,587.7,53.4,587.2z"/>
	<path class="st5" d="M56.5,594.2h1.3c0.5,2,0,2.9-1.3,2.9v-0.6c0.2,0,0.4-0.1,0.5-0.2c0.1-0.1,0.2-0.3,0.2-0.5v-0.3h-0.7V594.2z"/>
	<path class="st5" d="M60.4,585.4c0.6-0.5,1.4-0.7,2.3-0.7s1.7,0.2,2.2,0.7s0.8,1.1,0.8,1.9c0,0.6-0.2,1-0.5,1.4s-0.7,0.7-1.2,0.8
		v0.1c0.6,0.2,1,0.5,1.3,0.9c0.3,0.5,0.5,1.1,0.5,1.8c0,0.8-0.3,1.4-0.8,1.9c-0.6,0.5-1.3,0.8-2.3,0.8s-1.8-0.3-2.4-0.8
		c-0.6-0.5-1-1.2-1.1-2.1h1.2c0,0.5,0.3,1,0.7,1.3s0.9,0.5,1.6,0.5s1.2-0.2,1.5-0.5c0.4-0.4,0.5-0.8,0.5-1.4c0-0.7-0.2-1.3-0.7-1.6
		s-1.2-0.5-2.1-0.5h-0.3v-1.1H62c1.8,0,2.6-0.6,2.6-1.7c0-0.5-0.2-0.9-0.5-1.2c-0.3-0.3-0.8-0.4-1.4-0.4c-0.6,0-1.1,0.1-1.4,0.4
		c-0.3,0.3-0.6,0.6-0.6,1.1h-1.2C59.4,586.5,59.8,585.8,60.4,585.4z"/>
</g>
<g class="st4">
	<path class="st5" d="M48.4,504.4c0.3-0.3,0.6-0.5,1-0.7s0.9-0.3,1.6-0.3s1.2,0.1,1.6,0.4c0.5,0.3,0.8,0.6,1.1,1.1
		c0.5,0.9,0.7,2.1,0.7,3.6c0,1.9-0.3,3.3-1,4.1c-0.6,0.7-1.4,1-2.5,1c-2,0-3.1-1.2-3.4-3.5c-0.1-0.5-0.1-1-0.1-1.6s0-1.1,0.1-1.6
		s0.2-0.9,0.3-1.4C47.9,505.1,48.1,504.7,48.4,504.4z M52.7,505.8c-0.1-0.4-0.4-0.7-0.7-0.9c-0.3-0.2-0.7-0.3-1.1-0.3
		c-0.4,0-0.8,0.1-1.1,0.2s-0.5,0.3-0.7,0.6s-0.3,0.5-0.4,0.9c-0.1,0.4-0.2,0.7-0.2,1.1c0,0.3,0,0.7,0,1.2s0,0.9,0,1.2
		c0,0.3,0.1,0.7,0.2,1.1c0.1,0.4,0.2,0.7,0.4,0.9c0.2,0.2,0.4,0.4,0.7,0.6s0.6,0.2,1,0.2s0.7-0.1,1-0.2c0.3-0.1,0.5-0.3,0.7-0.6
		c0.2-0.2,0.3-0.5,0.4-0.9c0.1-0.6,0.2-1.3,0.2-2s0-1.3-0.1-1.8C53,506.6,52.9,506.2,52.7,505.8z"/>
	<path class="st5" d="M55.8,512.7h1.3c0.5,2,0,2.9-1.3,2.9V515c0.2,0,0.4-0.1,0.5-0.2c0.1-0.1,0.2-0.3,0.2-0.5V514h-0.7V512.7z"/>
	<path class="st5" d="M63.7,513.7v-2.3h-5.2v-0.9l4.8-6.9H65v6.7h1.4v1.1H65v2.3L63.7,513.7L63.7,513.7z M63.8,510.3v-5.5l-3.8,5.5
		H63.8z"/>
</g>
<g class="st4">
	<path class="st5" d="M48.4,423c0.3-0.3,0.6-0.5,1-0.7s0.9-0.3,1.6-0.3s1.2,0.1,1.6,0.4c0.5,0.3,0.8,0.6,1.1,1.1
		c0.5,0.9,0.7,2.1,0.7,3.6c0,1.9-0.3,3.3-1,4.1c-0.6,0.7-1.4,1-2.5,1c-2,0-3.1-1.2-3.4-3.5c-0.1-0.5-0.1-1-0.1-1.6s0-1.1,0.1-1.6
		s0.2-0.9,0.3-1.4C47.9,423.7,48.1,423.3,48.4,423z M52.7,424.4c-0.1-0.4-0.4-0.7-0.7-0.9c-0.3-0.2-0.7-0.3-1.1-0.3
		c-0.4,0-0.8,0.1-1.1,0.2s-0.5,0.3-0.7,0.6s-0.3,0.5-0.4,0.9c-0.1,0.4-0.2,0.7-0.2,1.1c0,0.3,0,0.7,0,1.2s0,0.9,0,1.2
		c0,0.3,0.1,0.7,0.2,1.1c0.1,0.4,0.2,0.7,0.4,0.9c0.2,0.2,0.4,0.4,0.7,0.6s0.6,0.2,1,0.2s0.7-0.1,1-0.2s0.5-0.3,0.7-0.6
		c0.2-0.2,0.3-0.5,0.4-0.9c0.1-0.6,0.2-1.3,0.2-2s0-1.3-0.1-1.8C53,425.2,52.9,424.8,52.7,424.4z"/>
	<path class="st5" d="M55.8,431.3h1.3c0.5,2,0,2.9-1.3,2.9v-0.6c0.2,0,0.4-0.1,0.5-0.2s0.2-0.3,0.2-0.5v-0.3h-0.7V431.3z"/>
	<path class="st5" d="M59.2,422h6.1v1.1h-4.9v3.2c0.2-0.3,0.5-0.6,0.9-0.8c0.4-0.2,0.9-0.3,1.4-0.3s1,0.1,1.5,0.3
		c0.4,0.2,0.8,0.5,1,0.8c0.5,0.7,0.7,1.4,0.7,2.3c0,1.1-0.3,1.9-0.9,2.6s-1.4,1-2.5,1s-1.9-0.2-2.5-0.7s-1-1.1-1.1-2h1.2
		c0.1,0.5,0.4,0.9,0.8,1.2c0.4,0.3,0.9,0.4,1.6,0.4c0.7,0,1.2-0.2,1.6-0.7c0.4-0.5,0.6-1,0.6-1.8s-0.2-1.3-0.6-1.7s-0.9-0.6-1.7-0.6
		c-0.5,0-0.9,0.1-1.3,0.4c-0.4,0.3-0.6,0.6-0.8,1.1h-1.2V422H59.2z"/>
</g>
<g class="st4">
	<path class="st5" d="M48.2,341.6c0.3-0.3,0.6-0.5,1-0.7s0.9-0.3,1.6-0.3s1.2,0.1,1.6,0.4c0.5,0.3,0.8,0.6,1.1,1.1
		c0.5,0.9,0.7,2.1,0.7,3.6c0,1.9-0.3,3.3-1,4.1c-0.6,0.7-1.4,1-2.5,1c-2,0-3.1-1.2-3.4-3.5c-0.1-0.5-0.1-1-0.1-1.6s0-1.1,0.1-1.6
		s0.2-0.9,0.3-1.4C47.8,342.2,48,341.9,48.2,341.6z M52.6,343c-0.1-0.4-0.4-0.7-0.7-0.9c-0.3-0.2-0.7-0.3-1.1-0.3
		c-0.4,0-0.8,0.1-1.1,0.2s-0.5,0.3-0.7,0.6s-0.3,0.5-0.4,0.9c-0.1,0.4-0.2,0.7-0.2,1.1c0,0.3,0,0.7,0,1.2s0,0.9,0,1.2
		c0,0.3,0.1,0.7,0.2,1.1c0.1,0.4,0.2,0.7,0.4,0.9c0.2,0.2,0.4,0.4,0.7,0.6s0.6,0.2,1,0.2s0.7-0.1,1-0.2s0.5-0.3,0.7-0.6
		c0.2-0.2,0.3-0.5,0.4-0.9c0.1-0.6,0.2-1.3,0.2-2s0-1.3-0.1-1.8C52.8,343.8,52.7,343.4,52.6,343z"/>
	<path class="st5" d="M55.7,349.9H57c0.5,2,0,2.9-1.3,2.9v-0.6c0.2,0,0.4-0.1,0.5-0.2s0.2-0.3,0.2-0.5v-0.3h-0.7V349.9z"/>
	<path class="st5" d="M62.5,341.4c-0.8,0-1.5,0.3-1.9,0.9S60,344,60,345.4c0.3-0.5,0.6-0.8,1.1-1.1c0.5-0.3,1-0.4,1.7-0.4
		c0.9,0,1.7,0.3,2.3,0.9s0.9,1.4,0.9,2.4s-0.3,1.8-0.9,2.5s-1.4,1-2.4,1c-1.7,0-2.8-0.7-3.3-2.2c-0.3-0.8-0.4-2-0.4-3.4
		s0.3-2.7,0.9-3.5s1.5-1.3,2.7-1.3c0.9,0,1.6,0.2,2.1,0.7s0.8,1.1,0.9,1.8h-1.1c-0.1-0.5-0.3-0.8-0.6-1.1S63,341.4,62.5,341.4z
		 M64.7,347.5c0-0.7-0.2-1.3-0.6-1.7c-0.4-0.4-0.9-0.6-1.6-0.6c-0.7,0-1.2,0.2-1.7,0.6s-0.7,0.9-0.7,1.7s0.2,1.3,0.6,1.7
		c0.4,0.4,1,0.6,1.7,0.6s1.3-0.2,1.7-0.6C64.5,348.7,64.7,348.2,64.7,347.5z"/>
</g>
<g class="st4">
	<path class="st5" d="M49.4,260.1c0.3-0.3,0.6-0.5,1-0.7s0.9-0.3,1.6-0.3s1.2,0.1,1.6,0.4c0.5,0.3,0.8,0.6,1.1,1.1
		c0.5,0.9,0.7,2.1,0.7,3.6c0,1.9-0.3,3.3-1,4.1c-0.6,0.7-1.4,1-2.5,1c-2,0-3.1-1.2-3.4-3.5c-0.1-0.5-0.1-1-0.1-1.6s0-1.1,0.1-1.6
		s0.2-0.9,0.3-1.4C48.9,260.8,49.2,260.4,49.4,260.1z M53.8,261.5c-0.1-0.4-0.4-0.7-0.7-0.9c-0.3-0.2-0.7-0.3-1.1-0.3
		c-0.4,0-0.8,0.1-1.1,0.2s-0.5,0.3-0.7,0.6s-0.3,0.5-0.4,0.9c-0.1,0.4-0.2,0.7-0.2,1.1c0,0.3,0,0.7,0,1.2s0,0.9,0,1.2
		c0,0.3,0.1,0.7,0.2,1.1c0.1,0.4,0.2,0.7,0.4,0.9c0.2,0.2,0.4,0.4,0.7,0.6s0.6,0.2,1,0.2s0.7-0.1,1-0.2s0.5-0.3,0.7-0.6
		c0.2-0.2,0.3-0.5,0.4-0.9c0.1-0.6,0.2-1.3,0.2-2s0-1.3-0.1-1.8C54,262.3,53.9,261.9,53.8,261.5z"/>
	<path class="st5" d="M56.9,268.5h1.3c0.5,2,0,2.9-1.3,2.9v-0.6c0.2,0,0.4-0.1,0.5-0.2s0.2-0.3,0.2-0.5v-0.3h-0.7V268.5z"/>
	<path class="st5" d="M59.5,259.2h6.7v1l-4,9.2h-1.4l4.2-9.1h-5.5C59.5,260.3,59.5,259.2,59.5,259.2z"/>
</g>
<g class="st4">
	<path class="st5" d="M48.4,178.7c0.3-0.3,0.6-0.5,1-0.7s0.9-0.3,1.6-0.3s1.2,0.1,1.6,0.4c0.5,0.3,0.8,0.6,1.1,1.1
		c0.5,0.9,0.7,2.1,0.7,3.6c0,1.9-0.3,3.3-1,4.1c-0.6,0.7-1.4,1-2.5,1c-2,0-3.1-1.2-3.4-3.5c-0.1-0.5-0.1-1-0.1-1.6s0-1.1,0.1-1.6
		s0.2-0.9,0.3-1.4C47.9,179.4,48.1,179,48.4,178.7z M52.7,180.1c-0.1-0.4-0.4-0.7-0.7-0.9s-0.7-0.3-1.1-0.3c-0.4,0-0.8,0.1-1.1,0.2
		s-0.5,0.3-0.7,0.6s-0.3,0.5-0.4,0.9c-0.1,0.4-0.2,0.7-0.2,1.1c0,0.3,0,0.7,0,1.2s0,0.9,0,1.2s0.1,0.7,0.2,1.1
		c0.1,0.4,0.2,0.7,0.4,0.9s0.4,0.4,0.7,0.6s0.6,0.2,1,0.2s0.7-0.1,1-0.2c0.3-0.1,0.5-0.3,0.7-0.6c0.2-0.2,0.3-0.5,0.4-0.9
		c0.1-0.6,0.2-1.3,0.2-2s0-1.3-0.1-1.8C53,180.9,52.9,180.5,52.7,180.1z"/>
	<path class="st5" d="M55.8,187h1.3c0.5,2,0,2.9-1.3,2.9v-0.6c0.2,0,0.4-0.1,0.5-0.2c0.1-0.1,0.2-0.3,0.2-0.5v-0.3h-0.7V187z"/>
	<path class="st5" d="M59,180.2c0-0.8,0.3-1.4,0.9-2c0.6-0.5,1.4-0.8,2.4-0.8c1.1,0,1.9,0.3,2.4,0.8c0.6,0.5,0.9,1.2,0.9,2
		c0,0.5-0.1,1-0.4,1.4s-0.6,0.7-1.1,0.9c0.5,0.2,1,0.5,1.3,1s0.5,1,0.5,1.7c0,0.9-0.3,1.7-1,2.3s-1.5,0.8-2.6,0.8s-1.9-0.3-2.6-0.8
		c-0.7-0.6-1-1.3-1-2.3c0-0.6,0.2-1.2,0.5-1.7s0.8-0.8,1.3-1C59.5,182,59,181.2,59,180.2z M64.7,185.1c0-0.6-0.2-1.1-0.6-1.5
		s-1-0.5-1.7-0.5s-1.3,0.2-1.7,0.5s-0.7,0.8-0.7,1.5c0,0.6,0.2,1.2,0.6,1.5c0.4,0.4,1,0.6,1.7,0.6s1.3-0.2,1.7-0.6
		C64.4,186.2,64.7,185.7,64.7,185.1z M64.4,180.3c0-0.5-0.2-1-0.6-1.3s-0.9-0.5-1.5-0.5s-1.2,0.2-1.5,0.5c-0.4,0.3-0.6,0.7-0.6,1.3
		c0,0.5,0.2,1,0.6,1.3c0.4,0.3,0.9,0.5,1.5,0.5s1.1-0.2,1.5-0.5C64.2,181.2,64.4,180.8,64.4,180.3z"/>
</g>
<g class="st4">
	<path class="st5" d="M48.4,97.3c0.3-0.3,0.6-0.5,1-0.7s0.9-0.3,1.6-0.3s1.2,0.1,1.6,0.4c0.5,0.3,0.8,0.6,1.1,1.1
		c0.5,0.9,0.7,2.1,0.7,3.6c0,1.9-0.3,3.3-1,4.1c-0.6,0.7-1.4,1-2.5,1c-2,0-3.1-1.2-3.4-3.5c-0.1-0.5-0.1-1-0.1-1.6s0-1.1,0.1-1.6
		s0.2-0.9,0.3-1.4C47.9,97.9,48.1,97.6,48.4,97.3z M52.7,98.7c-0.1-0.4-0.4-0.7-0.7-0.9c-0.3-0.2-0.7-0.3-1.1-0.3
		c-0.4,0-0.8,0.1-1.1,0.2s-0.5,0.3-0.7,0.6s-0.3,0.5-0.4,0.9c-0.1,0.4-0.2,0.7-0.2,1.1c0,0.3,0,0.7,0,1.2s0,0.9,0,1.2
		c0,0.3,0.1,0.7,0.2,1.1c0.1,0.4,0.2,0.7,0.4,0.9c0.2,0.2,0.4,0.4,0.7,0.6s0.6,0.2,1,0.2s0.7-0.1,1-0.2s0.5-0.3,0.7-0.6
		c0.2-0.2,0.3-0.5,0.4-0.9c0.1-0.6,0.2-1.3,0.2-2s0-1.3-0.1-1.8C53,99.5,52.9,99.1,52.7,98.7z"/>
	<path class="st5" d="M55.8,105.6h1.3c0.5,2,0,2.9-1.3,2.9v-0.6c0.2,0,0.4-0.1,0.5-0.2s0.2-0.3,0.2-0.5v-0.3h-0.7V105.6z"/>
	<path class="st5" d="M62.6,105.4c0.7,0,1.3-0.3,1.6-0.9c0.3-0.6,0.5-1.6,0.5-3c-0.2,0.4-0.6,0.7-1,0.9c-0.4,0.2-0.9,0.3-1.4,0.3
		c-0.9,0-1.7-0.3-2.3-0.9s-0.9-1.4-0.9-2.4s0.3-1.8,0.9-2.4s1.4-0.9,2.5-0.9c1.2,0,2.1,0.4,2.6,1.3c0.5,0.8,0.8,2.1,0.8,3.9
		s-0.2,3.1-0.7,4s-1.4,1.3-2.6,1.3c-0.9,0-1.7-0.2-2.2-0.7s-0.8-1.1-1-1.9h1.2C60.7,104.9,61.4,105.4,62.6,105.4z M60.3,99.4
		c0,0.7,0.2,1.2,0.6,1.6c0.4,0.4,0.9,0.6,1.6,0.6s1.2-0.2,1.6-0.6s0.5-0.9,0.5-1.6s-0.2-1.2-0.6-1.6s-0.9-0.6-1.6-0.6
		s-1.2,0.2-1.6,0.6C60.4,98.2,60.3,98.7,60.3,99.4z"/>
</g>
<g class="st4">
	<path class="st5" d="M67,25.1v-8.8h-1.1v-1.1h2.4v9.9C68.3,25.1,67,25.1,67,25.1z"/>
</g>
<g class="st4">
	<path class="st5" d="M70.9,870.1v-11.3h-1.5v-1.5h3.1v12.8H70.9z"/>
	<path class="st5" d="M80.2,868.7c1,0,1.7-0.4,2.1-1.1c0.4-0.7,0.7-2,0.7-3.9c-0.3,0.5-0.7,0.8-1.3,1.1s-1.2,0.4-1.8,0.4
		c-1.2,0-2.2-0.4-3-1.1c-0.8-0.8-1.2-1.8-1.2-3.1s0.4-2.4,1.1-3.1s1.8-1.2,3.1-1.2c1.6,0,2.7,0.5,3.4,1.6s1,2.8,1,5.1
		s-0.3,4-0.9,5.1s-1.7,1.7-3.3,1.7c-1.2,0-2.2-0.3-2.8-1s-1.1-1.4-1.2-2.4h1.5C77.8,868,78.7,868.7,80.2,868.7z M77.3,860.9
		c0,0.9,0.2,1.6,0.7,2.1s1.2,0.8,2.1,0.8s1.6-0.3,2-0.8c0.5-0.5,0.7-1.2,0.7-2.1c0-0.9-0.2-1.6-0.7-2.1s-1.2-0.8-2-0.8
		s-1.5,0.3-2,0.8C77.5,859.3,77.3,860,77.3,860.9z"/>
	<path class="st5" d="M91.7,868.7c1,0,1.7-0.4,2.1-1.1c0.4-0.7,0.7-2,0.7-3.9c-0.3,0.5-0.7,0.8-1.3,1.1s-1.2,0.4-1.8,0.4
		c-1.2,0-2.2-0.4-3-1.1c-0.8-0.8-1.2-1.8-1.2-3.1s0.4-2.4,1.1-3.1s1.8-1.2,3.1-1.2c1.6,0,2.7,0.5,3.4,1.6s1,2.8,1,5.1
		s-0.3,4-0.9,5.1s-1.7,1.7-3.3,1.7c-1.2,0-2.2-0.3-2.8-1s-1.1-1.4-1.2-2.4H89C89.3,868,90.2,868.7,91.7,868.7z M88.7,860.9
		c0,0.9,0.2,1.6,0.7,2.1s1.2,0.8,2.1,0.8s1.6-0.3,2-0.8c0.5-0.5,0.7-1.2,0.7-2.1c0-0.9-0.2-1.6-0.7-2.1s-1.2-0.8-2-0.8
		s-1.5,0.3-2,0.8C88.9,859.3,88.7,860,88.7,860.9z"/>
	<path class="st5" d="M98.7,856.9h7.8v1.4h-6.3v4.1c0.3-0.4,0.7-0.7,1.2-1s1.2-0.4,1.8-0.4c0.7,0,1.3,0.1,1.9,0.4
		c0.6,0.3,1,0.6,1.3,1.1c0.6,0.9,0.9,1.8,0.9,3c0,1.4-0.4,2.5-1.1,3.3c-0.8,0.9-1.8,1.3-3.2,1.3s-2.4-0.3-3.2-1
		c-0.8-0.6-1.3-1.5-1.4-2.5h1.6c0.2,0.6,0.5,1.2,1,1.5c0.5,0.4,1.2,0.6,2.1,0.6s1.5-0.3,2-0.9s0.7-1.3,0.7-2.3s-0.2-1.7-0.7-2.2
		s-1.2-0.8-2.2-0.8c-0.6,0-1.2,0.2-1.7,0.5s-0.8,0.8-1,1.4h-1.5L98.7,856.9L98.7,856.9z"/>
</g>
<g class="st4">
	<path class="st5" d="M148,870.1v-11.3h-1.5v-1.5h3.1v12.8H148z"/>
	<path class="st5" d="M157.4,868.7c1,0,1.7-0.4,2.1-1.1c0.4-0.7,0.7-2,0.7-3.9c-0.3,0.5-0.7,0.8-1.3,1.1s-1.2,0.4-1.8,0.4
		c-1.2,0-2.2-0.4-3-1.1c-0.8-0.8-1.2-1.8-1.2-3.1s0.4-2.4,1.1-3.1s1.8-1.2,3.1-1.2c1.6,0,2.7,0.5,3.4,1.6s1,2.8,1,5.1
		s-0.3,4-0.9,5.1c-0.6,1.1-1.7,1.7-3.3,1.7c-1.2,0-2.2-0.3-2.8-1s-1.1-1.4-1.2-2.4h1.5C155,868,155.9,868.7,157.4,868.7z
		 M154.4,860.9c0,0.9,0.2,1.6,0.7,2.1s1.2,0.8,2.1,0.8s1.6-0.3,2-0.8c0.5-0.5,0.7-1.2,0.7-2.1c0-0.9-0.2-1.6-0.7-2.1s-1.2-0.8-2-0.8
		s-1.5,0.3-2,0.8C154.6,859.3,154.4,860,154.4,860.9z"/>
	<path class="st5" d="M168.8,868.7c1,0,1.7-0.4,2.1-1.1c0.4-0.7,0.7-2,0.7-3.9c-0.3,0.5-0.7,0.8-1.3,1.1s-1.2,0.4-1.8,0.4
		c-1.2,0-2.2-0.4-3-1.1c-0.8-0.8-1.2-1.8-1.2-3.1s0.4-2.4,1.1-3.1s1.8-1.2,3.1-1.2c1.6,0,2.7,0.5,3.4,1.6s1,2.8,1,5.1
		s-0.3,4-0.9,5.1c-0.6,1.1-1.7,1.7-3.3,1.7c-1.2,0-2.2-0.3-2.8-1s-1.1-1.4-1.2-2.4h1.5C166.4,868,167.3,868.7,168.8,868.7z
		 M165.8,860.9c0,0.9,0.2,1.6,0.7,2.1s1.2,0.8,2.1,0.8s1.6-0.3,2-0.8c0.5-0.5,0.7-1.2,0.7-2.1c0-0.9-0.2-1.6-0.7-2.1s-1.2-0.8-2-0.8
		s-1.5,0.3-2,0.8C166.1,859.3,165.8,860,165.8,860.9z"/>
	<path class="st5" d="M180.2,858c-1.1,0-1.9,0.4-2.4,1.2s-0.8,2.1-0.8,4c0.3-0.6,0.8-1,1.4-1.4c0.6-0.3,1.3-0.5,2.1-0.5
		c1.2,0,2.2,0.4,2.9,1.2s1.1,1.8,1.1,3.1s-0.4,2.4-1.1,3.2c-0.7,0.8-1.8,1.2-3.2,1.2c-2.2,0-3.6-0.9-4.2-2.8c-0.3-1-0.5-2.5-0.5-4.4
		s0.4-3.4,1.1-4.6c0.7-1.1,1.9-1.7,3.5-1.7c1.2,0,2.1,0.3,2.7,0.9c0.7,0.6,1.1,1.4,1.2,2.3h-1.5c-0.2-0.6-0.4-1.1-0.8-1.4
		C181.5,858.2,180.9,858,180.2,858z M183.1,865.7c0-0.9-0.2-1.6-0.7-2.2s-1.1-0.8-2-0.8s-1.6,0.2-2.2,0.7c-0.6,0.5-0.9,1.2-0.9,2.1
		c0,0.9,0.3,1.7,0.8,2.2s1.2,0.8,2.2,0.8c0.9,0,1.6-0.3,2.1-0.8C182.8,867.4,183.1,866.7,183.1,865.7z"/>
</g>
<g class="st4">
	<path class="st5" d="M225.9,870.1v-11.3h-1.5v-1.5h3.1v12.8H225.9z"/>
	<path class="st5" d="M235.3,868.7c1,0,1.7-0.4,2.1-1.1c0.4-0.7,0.7-2,0.7-3.9c-0.3,0.5-0.7,0.8-1.3,1.1s-1.2,0.4-1.8,0.4
		c-1.2,0-2.2-0.4-3-1.1c-0.8-0.8-1.2-1.8-1.2-3.1s0.4-2.4,1.1-3.1s1.8-1.2,3.1-1.2c1.6,0,2.7,0.5,3.4,1.6s1,2.8,1,5.1
		s-0.3,4-0.9,5.1c-0.6,1.1-1.7,1.7-3.3,1.7c-1.2,0-2.2-0.3-2.8-1s-1.1-1.4-1.2-2.4h1.5C232.9,868,233.8,868.7,235.3,868.7z
		 M232.4,860.9c0,0.9,0.2,1.6,0.7,2.1s1.2,0.8,2.1,0.8s1.6-0.3,2-0.8c0.5-0.5,0.7-1.2,0.7-2.1c0-0.9-0.2-1.6-0.7-2.1s-1.2-0.8-2-0.8
		s-1.5,0.3-2,0.8C232.6,859.3,232.4,860,232.4,860.9z"/>
	<path class="st5" d="M246.8,868.7c1,0,1.7-0.4,2.1-1.1c0.4-0.7,0.7-2,0.7-3.9c-0.3,0.5-0.7,0.8-1.3,1.1s-1.2,0.4-1.8,0.4
		c-1.2,0-2.2-0.4-3-1.1c-0.8-0.8-1.2-1.8-1.2-3.1s0.4-2.4,1.1-3.1s1.8-1.2,3.1-1.2c1.6,0,2.7,0.5,3.4,1.6s1,2.8,1,5.1
		s-0.3,4-0.9,5.1c-0.6,1.1-1.7,1.7-3.3,1.7c-1.2,0-2.2-0.3-2.8-1s-1.1-1.4-1.2-2.4h1.5C244.4,868,245.3,868.7,246.8,868.7z
		 M243.8,860.9c0,0.9,0.2,1.6,0.7,2.1s1.2,0.8,2.1,0.8s1.6-0.3,2-0.8c0.5-0.5,0.7-1.2,0.7-2.1c0-0.9-0.2-1.6-0.7-2.1s-1.2-0.8-2-0.8
		s-1.5,0.3-2,0.8C244,859.3,243.8,860,243.8,860.9z"/>
	<path class="st5" d="M252.9,857h8.7v1.2l-5.1,11.9h-1.8l5.4-11.7H253V857H252.9z"/>
</g>
<g class="st4">
	<path class="st5" d="M302.5,870.1v-11.3H301v-1.5h3.1v12.8H302.5z"/>
	<path class="st5" d="M311.9,868.7c1,0,1.7-0.4,2.1-1.1c0.4-0.7,0.7-2,0.7-3.9c-0.3,0.5-0.7,0.8-1.3,1.1s-1.2,0.4-1.8,0.4
		c-1.2,0-2.2-0.4-3-1.1c-0.8-0.8-1.2-1.8-1.2-3.1s0.4-2.4,1.1-3.1s1.8-1.2,3.1-1.2c1.6,0,2.7,0.5,3.4,1.6s1,2.8,1,5.1
		s-0.3,4-0.9,5.1s-1.7,1.7-3.3,1.7c-1.2,0-2.2-0.3-2.8-1s-1.1-1.4-1.2-2.4h1.5C309.5,868,310.4,868.7,311.9,868.7z M308.9,860.9
		c0,0.9,0.2,1.6,0.7,2.1s1.2,0.8,2.1,0.8s1.6-0.3,2-0.8c0.5-0.5,0.7-1.2,0.7-2.1c0-0.9-0.2-1.6-0.7-2.1s-1.2-0.8-2-0.8
		s-1.5,0.3-2,0.8C309.1,859.3,308.9,860,308.9,860.9z"/>
	<path class="st5" d="M323.3,868.7c1,0,1.7-0.4,2.1-1.1c0.4-0.7,0.7-2,0.7-3.9c-0.3,0.5-0.7,0.8-1.3,1.1s-1.2,0.4-1.8,0.4
		c-1.2,0-2.2-0.4-3-1.1c-0.8-0.8-1.2-1.8-1.2-3.1s0.4-2.4,1.1-3.1s1.8-1.2,3.1-1.2c1.6,0,2.7,0.5,3.4,1.6s1,2.8,1,5.1
		s-0.3,4-0.9,5.1s-1.7,1.7-3.3,1.7c-1.2,0-2.2-0.3-2.8-1s-1.1-1.4-1.2-2.4h1.5C320.9,868,321.8,868.7,323.3,868.7z M320.3,860.9
		c0,0.9,0.2,1.6,0.7,2.1s1.2,0.8,2.1,0.8s1.6-0.3,2-0.8c0.5-0.5,0.7-1.2,0.7-2.1c0-0.9-0.2-1.6-0.7-2.1s-1.2-0.8-2-0.8
		s-1.5,0.3-2,0.8C320.6,859.3,320.3,860,320.3,860.9z"/>
	<path class="st5" d="M330.2,860.1c0-1,0.4-1.9,1.1-2.5s1.8-1,3.1-1c1.4,0,2.4,0.3,3.1,1s1.1,1.5,1.1,2.5c0,0.7-0.2,1.3-0.5,1.8
		c-0.4,0.5-0.8,0.9-1.4,1.2c0.7,0.2,1.2,0.6,1.7,1.2c0.4,0.6,0.6,1.3,0.6,2.1c0,1.2-0.4,2.2-1.3,2.9c-0.8,0.7-1.9,1.1-3.3,1.1
		s-2.5-0.4-3.3-1.1c-0.8-0.7-1.3-1.7-1.3-2.9c0-0.8,0.2-1.5,0.6-2.1s1-1,1.7-1.2C330.8,862.4,330.2,861.4,330.2,860.1z M337.4,866.3
		c0-0.8-0.3-1.5-0.8-1.9c-0.6-0.4-1.3-0.7-2.2-0.7s-1.6,0.2-2.2,0.7c-0.6,0.4-0.8,1.1-0.8,1.9s0.3,1.5,0.8,2s1.3,0.7,2.2,0.7
		c0.9,0,1.7-0.2,2.2-0.7S337.4,867.2,337.4,866.3z M337.1,860.2c0-0.7-0.2-1.2-0.7-1.6s-1.1-0.6-2-0.6s-1.5,0.2-2,0.6
		c-0.5,0.4-0.7,1-0.7,1.6c0,0.7,0.2,1.3,0.7,1.7s1.1,0.6,1.9,0.6s1.4-0.2,1.9-0.6C336.8,861.4,337.1,860.9,337.1,860.2z"/>
</g>
<g class="st4">
	<path class="st5" d="M379.7,870.1v-11.3h-1.5v-1.5h3.1v12.8H379.7z"/>
	<path class="st5" d="M389.1,868.7c1,0,1.7-0.4,2.1-1.1c0.4-0.7,0.7-2,0.7-3.9c-0.3,0.5-0.7,0.8-1.3,1.1s-1.2,0.4-1.8,0.4
		c-1.2,0-2.2-0.4-3-1.1c-0.8-0.8-1.2-1.8-1.2-3.1s0.4-2.4,1.1-3.1s1.8-1.2,3.1-1.2c1.6,0,2.7,0.5,3.4,1.6s1,2.8,1,5.1
		s-0.3,4-0.9,5.1s-1.7,1.7-3.3,1.7c-1.2,0-2.2-0.3-2.8-1s-1.1-1.4-1.2-2.4h1.5C386.7,868,387.6,868.7,389.1,868.7z M386.1,860.9
		c0,0.9,0.2,1.6,0.7,2.1s1.2,0.8,2.1,0.8s1.6-0.3,2-0.8c0.5-0.5,0.7-1.2,0.7-2.1c0-0.9-0.2-1.6-0.7-2.1s-1.2-0.8-2-0.8
		s-1.5,0.3-2,0.8C386.4,859.3,386.1,860,386.1,860.9z"/>
	<path class="st5" d="M400.5,868.7c1,0,1.7-0.4,2.1-1.1c0.4-0.7,0.7-2,0.7-3.9c-0.3,0.5-0.7,0.8-1.3,1.1s-1.2,0.4-1.8,0.4
		c-1.2,0-2.2-0.4-3-1.1c-0.8-0.8-1.2-1.8-1.2-3.1s0.4-2.4,1.1-3.1s1.8-1.2,3.1-1.2c1.6,0,2.7,0.5,3.4,1.6s1,2.8,1,5.1
		s-0.3,4-0.9,5.1s-1.7,1.7-3.3,1.7c-1.2,0-2.2-0.3-2.8-1s-1.1-1.4-1.2-2.4h1.5C398.1,868,399,868.7,400.5,868.7z M397.5,860.9
		c0,0.9,0.2,1.6,0.7,2.1s1.2,0.8,2.1,0.8s1.6-0.3,2-0.8c0.5-0.5,0.7-1.2,0.7-2.1c0-0.9-0.2-1.6-0.7-2.1s-1.2-0.8-2-0.8
		s-1.5,0.3-2,0.8C397.8,859.3,397.5,860,397.5,860.9z"/>
	<path class="st5" d="M411.9,868.7c1,0,1.7-0.4,2.1-1.1c0.4-0.7,0.7-2,0.7-3.9c-0.3,0.5-0.7,0.8-1.3,1.1s-1.2,0.4-1.8,0.4
		c-1.2,0-2.2-0.4-3-1.1c-0.8-0.8-1.2-1.8-1.2-3.1s0.4-2.4,1.1-3.1s1.8-1.2,3.1-1.2c1.6,0,2.7,0.5,3.4,1.6s1,2.8,1,5.1
		s-0.3,4-0.9,5.1s-1.7,1.7-3.3,1.7c-1.2,0-2.2-0.3-2.8-1s-1.1-1.4-1.2-2.4h1.5C409.5,868,410.4,868.7,411.9,868.7z M409,860.9
		c0,0.9,0.2,1.6,0.7,2.1s1.2,0.8,2.1,0.8s1.6-0.3,2-0.8c0.5-0.5,0.7-1.2,0.7-2.1c0-0.9-0.2-1.6-0.7-2.1s-1.2-0.8-2-0.8
		s-1.5,0.3-2,0.8C409.2,859.3,409,860,409,860.9z"/>
</g>
<g class="st4">
	<path class="st5" d="M453.2,869.9v-1.2c0.3-0.3,0.7-0.6,1.4-1.2c0.6-0.5,1.1-0.9,1.4-1.2s0.7-0.6,1.2-1.1s0.9-0.8,1.1-1.2
		c0.3-0.3,0.5-0.7,0.8-1.1c0.5-0.8,0.8-1.5,0.8-2.3s-0.2-1.4-0.6-1.8s-1-0.7-1.8-0.7s-1.5,0.3-1.9,0.8s-0.7,1.2-0.7,2h-1.6
		c0-1.3,0.5-2.4,1.2-3.1c0.8-0.7,1.8-1.1,3-1.1s2.2,0.3,2.9,1c0.7,0.7,1.1,1.6,1.1,2.8c0,1.4-0.7,2.9-2.1,4.4
		c-0.5,0.5-0.9,0.9-1.2,1.2c-0.8,0.7-1.6,1.5-2.5,2.2h6.1v1.4h-8.6V869.9z"/>
	<path class="st5" d="M465.1,858.2c0.3-0.4,0.8-0.7,1.3-0.9s1.2-0.3,2-0.3s1.5,0.2,2.1,0.5s1.1,0.8,1.4,1.4c0.6,1.2,0.9,2.7,0.9,4.6
		c0,2.5-0.4,4.3-1.3,5.3c-0.7,0.8-1.8,1.3-3.2,1.3c-2.6,0-4-1.5-4.4-4.5c-0.1-0.6-0.1-1.3-0.1-2.1s0-1.5,0.1-2.1s0.2-1.2,0.4-1.8
		C464.5,859,464.8,858.5,465.1,858.2z M470.7,860c-0.2-0.5-0.5-0.9-0.9-1.2s-0.9-0.4-1.5-0.4s-1,0.1-1.4,0.3s-0.7,0.4-0.9,0.7
		s-0.4,0.7-0.5,1.2s-0.2,0.9-0.2,1.4c0,0.4,0,1,0,1.6s0,1.1,0,1.6c0,0.4,0.1,0.9,0.2,1.4s0.3,0.9,0.5,1.2s0.5,0.5,0.9,0.7
		s0.8,0.3,1.3,0.3s0.9-0.1,1.3-0.3s0.7-0.4,0.9-0.7s0.4-0.7,0.5-1.2c0.2-0.8,0.3-1.6,0.3-2.6s0-1.7-0.1-2.2
		C471,861,470.9,860.5,470.7,860z"/>
	<path class="st5" d="M476.6,858.2c0.3-0.4,0.8-0.7,1.3-0.9s1.2-0.3,2-0.3s1.5,0.2,2.1,0.5s1.1,0.8,1.4,1.4c0.6,1.2,0.9,2.7,0.9,4.6
		c0,2.5-0.4,4.3-1.3,5.3c-0.7,0.8-1.8,1.3-3.2,1.3c-2.6,0-4-1.5-4.4-4.5c-0.1-0.6-0.1-1.3-0.1-2.1s0-1.5,0.1-2.1s0.2-1.2,0.4-1.8
		C476,859,476.2,858.5,476.6,858.2z M482.2,860c-0.2-0.5-0.5-0.9-0.9-1.2s-0.9-0.4-1.5-0.4s-1,0.1-1.4,0.3s-0.7,0.4-0.9,0.7
		s-0.4,0.7-0.5,1.2s-0.2,0.9-0.2,1.4c0,0.4,0,1,0,1.6s0,1.1,0,1.6c0,0.4,0.1,0.9,0.2,1.4s0.3,0.9,0.5,1.2s0.5,0.5,0.9,0.7
		s0.8,0.3,1.3,0.3s0.9-0.1,1.3-0.3s0.7-0.4,0.9-0.7s0.4-0.7,0.5-1.2c0.2-0.8,0.3-1.6,0.3-2.6s0-1.7-0.1-2.2
		C482.5,861,482.4,860.5,482.2,860z"/>
	<path class="st5" d="M488,858.2c0.3-0.4,0.8-0.7,1.3-0.9s1.2-0.3,2-0.3s1.5,0.2,2.1,0.5s1.1,0.8,1.4,1.4c0.6,1.2,0.9,2.7,0.9,4.6
		c0,2.5-0.4,4.3-1.3,5.3c-0.7,0.8-1.8,1.3-3.2,1.3c-2.6,0-4-1.5-4.4-4.5c-0.1-0.6-0.1-1.3-0.1-2.1s0-1.5,0.1-2.1s0.2-1.2,0.4-1.8
		C487.4,859,487.7,858.5,488,858.2z M493.6,860c-0.2-0.5-0.5-0.9-0.9-1.2s-0.9-0.4-1.5-0.4s-1,0.1-1.4,0.3s-0.7,0.4-0.9,0.7
		s-0.4,0.7-0.5,1.2s-0.2,0.9-0.2,1.4c0,0.4,0,1,0,1.6s0,1.1,0,1.6c0,0.4,0.1,0.9,0.2,1.4s0.3,0.9,0.5,1.2s0.5,0.5,0.9,0.7
		s0.8,0.3,1.3,0.3s0.9-0.1,1.3-0.3s0.7-0.4,0.9-0.7s0.4-0.7,0.5-1.2c0.2-0.8,0.3-1.6,0.3-2.6s0-1.7-0.1-2.2
		C493.9,861,493.8,860.5,493.6,860z"/>
</g>
<g class="st4">
	<path class="st5" d="M533.2,869.9v-1.2c0.3-0.3,0.7-0.6,1.4-1.2c0.6-0.5,1.1-0.9,1.4-1.2c0.3-0.3,0.7-0.6,1.2-1.1s0.9-0.8,1.1-1.2
		c0.3-0.3,0.5-0.7,0.8-1.1c0.5-0.8,0.8-1.5,0.8-2.3s-0.2-1.4-0.6-1.8s-1-0.7-1.8-0.7s-1.5,0.3-1.9,0.8s-0.7,1.2-0.7,2h-1.6
		c0-1.3,0.5-2.4,1.2-3.1c0.8-0.7,1.8-1.1,3-1.1s2.2,0.3,2.9,1s1.1,1.6,1.1,2.8c0,1.4-0.7,2.9-2.1,4.4c-0.5,0.5-0.9,0.9-1.2,1.2
		c-0.8,0.7-1.6,1.5-2.5,2.2h6.1v1.4h-8.6V869.9z"/>
	<path class="st5" d="M545.2,858.2c0.3-0.4,0.8-0.7,1.3-0.9s1.2-0.3,2-0.3s1.5,0.2,2.1,0.5s1.1,0.8,1.4,1.4c0.6,1.2,0.9,2.7,0.9,4.6
		c0,2.5-0.4,4.3-1.3,5.3c-0.7,0.8-1.8,1.3-3.2,1.3c-2.6,0-4-1.5-4.4-4.5c-0.1-0.6-0.1-1.3-0.1-2.1s0-1.5,0.1-2.1s0.2-1.2,0.4-1.8
		C544.6,859,544.8,858.5,545.2,858.2z M550.8,860c-0.2-0.5-0.5-0.9-0.9-1.2s-0.9-0.4-1.5-0.4s-1,0.1-1.4,0.3s-0.7,0.4-0.9,0.7
		s-0.4,0.7-0.5,1.2s-0.2,0.9-0.2,1.4c0,0.4,0,1,0,1.6s0,1.1,0,1.6c0,0.4,0.1,0.9,0.2,1.4c0.1,0.5,0.3,0.9,0.5,1.2s0.5,0.5,0.9,0.7
		s0.8,0.3,1.3,0.3s0.9-0.1,1.3-0.3c0.4-0.2,0.7-0.4,0.9-0.7s0.4-0.7,0.5-1.2c0.2-0.8,0.3-1.6,0.3-2.6s0-1.7-0.1-2.2
		C551.1,861,551,860.5,550.8,860z"/>
	<path class="st5" d="M556.6,858.2c0.3-0.4,0.8-0.7,1.3-0.9s1.2-0.3,2-0.3s1.5,0.2,2.1,0.5s1.1,0.8,1.4,1.4c0.6,1.2,0.9,2.7,0.9,4.6
		c0,2.5-0.4,4.3-1.3,5.3c-0.7,0.8-1.8,1.3-3.2,1.3c-2.6,0-4-1.5-4.4-4.5c-0.1-0.6-0.1-1.3-0.1-2.1s0-1.5,0.1-2.1s0.2-1.2,0.4-1.8
		C556,859,556.3,858.5,556.6,858.2z M562.2,860c-0.2-0.5-0.5-0.9-0.9-1.2s-0.9-0.4-1.5-0.4s-1,0.1-1.4,0.3s-0.7,0.4-0.9,0.7
		s-0.4,0.7-0.5,1.2s-0.2,0.9-0.2,1.4c0,0.4,0,1,0,1.6s0,1.1,0,1.6c0,0.4,0.1,0.9,0.2,1.4c0.1,0.5,0.3,0.9,0.5,1.2s0.5,0.5,0.9,0.7
		s0.8,0.3,1.3,0.3s0.9-0.1,1.3-0.3c0.4-0.2,0.7-0.4,0.9-0.7s0.4-0.7,0.5-1.2c0.2-0.8,0.3-1.6,0.3-2.6s0-1.7-0.1-2.2
		C562.5,861,562.4,860.5,562.2,860z"/>
	<path class="st5" d="M567.9,870.1v-11.3h-1.5v-1.5h3.1v12.8H567.9z"/>
</g>
<g class="st4">
	<path class="st5" d="M608.1,869.9v-1.2c0.3-0.3,0.7-0.6,1.4-1.2c0.6-0.5,1.1-0.9,1.4-1.2c0.3-0.3,0.7-0.6,1.2-1.1s0.9-0.8,1.1-1.2
		c0.3-0.3,0.5-0.7,0.8-1.1c0.5-0.8,0.8-1.5,0.8-2.3s-0.2-1.4-0.6-1.8s-1-0.7-1.8-0.7s-1.5,0.3-1.9,0.8s-0.7,1.2-0.7,2h-1.6
		c0-1.3,0.5-2.4,1.2-3.1c0.8-0.7,1.8-1.1,3-1.1s2.2,0.3,2.9,1s1.1,1.6,1.1,2.8c0,1.4-0.7,2.9-2.1,4.4c-0.5,0.5-0.9,0.9-1.2,1.2
		c-0.8,0.7-1.6,1.5-2.5,2.2h6.1v1.4h-8.6V869.9z"/>
	<path class="st5" d="M620.1,858.2c0.3-0.4,0.8-0.7,1.3-0.9s1.2-0.3,2-0.3s1.5,0.2,2.1,0.5s1.1,0.8,1.4,1.4c0.6,1.2,0.9,2.7,0.9,4.6
		c0,2.5-0.4,4.3-1.3,5.3c-0.7,0.8-1.8,1.3-3.2,1.3c-2.6,0-4-1.5-4.4-4.5c-0.1-0.6-0.1-1.3-0.1-2.1s0-1.5,0.1-2.1s0.2-1.2,0.4-1.8
		C619.5,859,619.7,858.5,620.1,858.2z M625.7,860c-0.2-0.5-0.5-0.9-0.9-1.2s-0.9-0.4-1.5-0.4s-1,0.1-1.4,0.3s-0.7,0.4-0.9,0.7
		s-0.4,0.7-0.5,1.2s-0.2,0.9-0.2,1.4c0,0.4,0,1,0,1.6s0,1.1,0,1.6c0,0.4,0.1,0.9,0.2,1.4c0.1,0.5,0.3,0.9,0.5,1.2s0.5,0.5,0.9,0.7
		s0.8,0.3,1.3,0.3s0.9-0.1,1.3-0.3c0.4-0.2,0.7-0.4,0.9-0.7s0.4-0.7,0.5-1.2c0.2-0.8,0.3-1.6,0.3-2.6s0-1.7-0.1-2.2
		C626,861,625.9,860.5,625.7,860z"/>
	<path class="st5" d="M631.5,858.2c0.3-0.4,0.8-0.7,1.3-0.9s1.2-0.3,2-0.3s1.5,0.2,2.1,0.5s1.1,0.8,1.4,1.4c0.6,1.2,0.9,2.7,0.9,4.6
		c0,2.5-0.4,4.3-1.3,5.3c-0.7,0.8-1.8,1.3-3.2,1.3c-2.6,0-4-1.5-4.4-4.5c-0.1-0.6-0.1-1.3-0.1-2.1s0-1.5,0.1-2.1s0.2-1.2,0.4-1.8
		C630.9,859,631.2,858.5,631.5,858.2z M637.1,860c-0.2-0.5-0.5-0.9-0.9-1.2s-0.9-0.4-1.5-0.4s-1,0.1-1.4,0.3s-0.7,0.4-0.9,0.7
		s-0.4,0.7-0.5,1.2s-0.2,0.9-0.2,1.4c0,0.4,0,1,0,1.6s0,1.1,0,1.6c0,0.4,0.1,0.9,0.2,1.4c0.1,0.5,0.3,0.9,0.5,1.2s0.5,0.5,0.9,0.7
		s0.8,0.3,1.3,0.3s0.9-0.1,1.3-0.3c0.4-0.2,0.7-0.4,0.9-0.7s0.4-0.7,0.5-1.2c0.2-0.8,0.3-1.6,0.3-2.6s0-1.7-0.1-2.2
		C637.4,861,637.3,860.5,637.1,860z"/>
	<path class="st5" d="M641.4,869.9v-1.2c0.3-0.3,0.7-0.6,1.4-1.2c0.6-0.5,1.1-0.9,1.4-1.2c0.3-0.3,0.7-0.6,1.2-1.1s0.9-0.8,1.1-1.2
		c0.3-0.3,0.5-0.7,0.8-1.1c0.5-0.8,0.8-1.5,0.8-2.3s-0.2-1.4-0.6-1.8s-1-0.7-1.8-0.7s-1.5,0.3-1.9,0.8s-0.7,1.2-0.7,2h-1.6
		c0-1.3,0.5-2.4,1.2-3.1c0.8-0.7,1.8-1.1,3-1.1s2.2,0.3,2.9,1s1.1,1.6,1.1,2.8c0,1.4-0.7,2.9-2.1,4.4c-0.5,0.5-0.9,0.9-1.2,1.2
		c-0.8,0.7-1.6,1.5-2.5,2.2h6.1v1.4h-8.6V869.9z"/>
</g>
<g class="st4">
	<path class="st5" d="M685.2,869.9v-1.2c0.3-0.3,0.7-0.6,1.4-1.2c0.6-0.5,1.1-0.9,1.4-1.2c0.3-0.3,0.7-0.6,1.2-1.1s0.9-0.8,1.1-1.2
		c0.3-0.3,0.5-0.7,0.8-1.1c0.5-0.8,0.8-1.5,0.8-2.3s-0.2-1.4-0.6-1.8s-1-0.7-1.8-0.7s-1.5,0.3-1.9,0.8s-0.7,1.2-0.7,2h-1.6
		c0-1.3,0.5-2.4,1.2-3.1c0.8-0.7,1.8-1.1,3-1.1s2.2,0.3,2.9,1s1.1,1.6,1.1,2.8c0,1.4-0.7,2.9-2.1,4.4c-0.5,0.5-0.9,0.9-1.2,1.2
		c-0.8,0.7-1.6,1.5-2.5,2.2h6.1v1.4h-8.6V869.9z"/>
	<path class="st5" d="M697.2,858.2c0.3-0.4,0.8-0.7,1.3-0.9s1.2-0.3,2-0.3s1.5,0.2,2.1,0.5s1.1,0.8,1.4,1.4c0.6,1.2,0.9,2.7,0.9,4.6
		c0,2.5-0.4,4.3-1.3,5.3c-0.7,0.8-1.8,1.3-3.2,1.3c-2.6,0-4-1.5-4.4-4.5c-0.1-0.6-0.1-1.3-0.1-2.1s0-1.5,0.1-2.1s0.2-1.2,0.4-1.8
		C696.6,859,696.8,858.5,697.2,858.2z M702.8,860c-0.2-0.5-0.5-0.9-0.9-1.2s-0.9-0.4-1.5-0.4s-1,0.1-1.4,0.3s-0.7,0.4-0.9,0.7
		s-0.4,0.7-0.5,1.2s-0.2,0.9-0.2,1.4c0,0.4,0,1,0,1.6s0,1.1,0,1.6c0,0.4,0.1,0.9,0.2,1.4c0.1,0.5,0.3,0.9,0.5,1.2s0.5,0.5,0.9,0.7
		s0.8,0.3,1.3,0.3s0.9-0.1,1.3-0.3c0.4-0.2,0.7-0.4,0.9-0.7s0.4-0.7,0.5-1.2c0.2-0.8,0.3-1.6,0.3-2.6s0-1.7-0.1-2.2
		C703.1,861,703,860.5,702.8,860z"/>
	<path class="st5" d="M708.6,858.2c0.3-0.4,0.8-0.7,1.3-0.9s1.2-0.3,2-0.3s1.5,0.2,2.1,0.5s1.1,0.8,1.4,1.4c0.6,1.2,0.9,2.7,0.9,4.6
		c0,2.5-0.4,4.3-1.3,5.3c-0.7,0.8-1.8,1.3-3.2,1.3c-2.6,0-4-1.5-4.4-4.5c-0.1-0.6-0.1-1.3-0.1-2.1s0-1.5,0.1-2.1s0.2-1.2,0.4-1.8
		C708,859,708.3,858.5,708.6,858.2z M714.2,860c-0.2-0.5-0.5-0.9-0.9-1.2s-0.9-0.4-1.5-0.4s-1,0.1-1.4,0.3s-0.7,0.4-0.9,0.7
		s-0.4,0.7-0.5,1.2s-0.2,0.9-0.2,1.4c0,0.4,0,1,0,1.6s0,1.1,0,1.6c0,0.4,0.1,0.9,0.2,1.4c0.1,0.5,0.3,0.9,0.5,1.2s0.5,0.5,0.9,0.7
		s0.8,0.3,1.3,0.3s0.9-0.1,1.3-0.3c0.4-0.2,0.7-0.4,0.9-0.7s0.4-0.7,0.5-1.2c0.2-0.8,0.3-1.6,0.3-2.6s0-1.7-0.1-2.2
		C714.6,861,714.4,860.5,714.2,860z"/>
	<path class="st5" d="M719.9,857.5c0.8-0.6,1.8-0.9,3-0.9s2.2,0.3,2.9,1c0.7,0.6,1.1,1.4,1.1,2.4c0,0.7-0.2,1.3-0.6,1.9
		s-0.9,0.9-1.5,1.1v0.1c0.7,0.2,1.3,0.6,1.7,1.2c0.4,0.6,0.6,1.4,0.6,2.4s-0.4,1.8-1.1,2.5c-0.7,0.7-1.7,1-3,1s-2.3-0.3-3.1-1
		c-0.8-0.6-1.3-1.6-1.4-2.8h1.5c0.1,0.7,0.3,1.2,0.9,1.7c0.5,0.4,1.2,0.7,2,0.7s1.5-0.2,1.9-0.7c0.5-0.5,0.7-1,0.7-1.7
		c0-0.9-0.3-1.6-0.9-2c-0.6-0.4-1.5-0.6-2.8-0.6h-0.4v-1.4h0.4c2.3,0,3.4-0.8,3.4-2.2c0-0.7-0.2-1.2-0.6-1.6c-0.4-0.4-1-0.6-1.8-0.6
		s-1.4,0.2-1.8,0.5c-0.4,0.4-0.7,0.8-0.8,1.4h-1.6C718.7,858.9,719.1,858.1,719.9,857.5z"/>
</g>
<g class="st4">
	<path class="st5" d="M762,869.9v-1.2c0.3-0.3,0.7-0.6,1.4-1.2c0.6-0.5,1.1-0.9,1.4-1.2c0.3-0.3,0.7-0.6,1.2-1.1s0.9-0.8,1.1-1.2
		c0.3-0.3,0.5-0.7,0.8-1.1c0.5-0.8,0.8-1.5,0.8-2.3s-0.2-1.4-0.6-1.8s-1-0.7-1.8-0.7s-1.5,0.3-1.9,0.8s-0.7,1.2-0.7,2H762
		c0-1.3,0.5-2.4,1.2-3.1c0.8-0.7,1.8-1.1,3-1.1s2.2,0.3,2.9,1s1.1,1.6,1.1,2.8c0,1.4-0.7,2.9-2.1,4.4c-0.5,0.5-0.9,0.9-1.2,1.2
		c-0.8,0.7-1.6,1.5-2.5,2.2h6.1v1.4H762V869.9z"/>
	<path class="st5" d="M774,858.2c0.3-0.4,0.8-0.7,1.3-0.9s1.2-0.3,2-0.3s1.5,0.2,2.1,0.5s1.1,0.8,1.4,1.4c0.6,1.2,0.9,2.7,0.9,4.6
		c0,2.5-0.4,4.3-1.3,5.3c-0.7,0.8-1.8,1.3-3.2,1.3c-2.6,0-4-1.5-4.4-4.5c-0.1-0.6-0.1-1.3-0.1-2.1s0-1.5,0.1-2.1s0.2-1.2,0.4-1.8
		C773.4,859,773.7,858.5,774,858.2z M779.6,860c-0.2-0.5-0.5-0.9-0.9-1.2s-0.9-0.4-1.5-0.4s-1,0.1-1.4,0.3s-0.7,0.4-0.9,0.7
		s-0.4,0.7-0.5,1.2s-0.2,0.9-0.2,1.4c0,0.4,0,1,0,1.6s0,1.1,0,1.6c0,0.4,0.1,0.9,0.2,1.4c0.1,0.5,0.3,0.9,0.5,1.2s0.5,0.5,0.9,0.7
		s0.8,0.3,1.3,0.3s0.9-0.1,1.3-0.3c0.4-0.2,0.7-0.4,0.9-0.7s0.4-0.7,0.5-1.2c0.2-0.8,0.3-1.6,0.3-2.6s0-1.7-0.1-2.2
		C779.9,861,779.8,860.5,779.6,860z"/>
	<path class="st5" d="M785.4,858.2c0.3-0.4,0.8-0.7,1.3-0.9s1.2-0.3,2-0.3s1.5,0.2,2.1,0.5s1.1,0.8,1.4,1.4c0.6,1.2,0.9,2.7,0.9,4.6
		c0,2.5-0.4,4.3-1.3,5.3c-0.7,0.8-1.8,1.3-3.2,1.3c-2.6,0-4-1.5-4.4-4.5c-0.1-0.6-0.1-1.3-0.1-2.1s0-1.5,0.1-2.1s0.2-1.2,0.4-1.8
		C784.8,859,785.1,858.5,785.4,858.2z M791,860c-0.2-0.5-0.5-0.9-0.9-1.2s-0.9-0.4-1.5-0.4s-1,0.1-1.4,0.3s-0.7,0.4-0.9,0.7
		s-0.4,0.7-0.5,1.2s-0.2,0.9-0.2,1.4c0,0.4,0,1,0,1.6s0,1.1,0,1.6c0,0.4,0.1,0.9,0.2,1.4c0.1,0.5,0.3,0.9,0.5,1.2s0.5,0.5,0.9,0.7
		s0.8,0.3,1.3,0.3s0.9-0.1,1.3-0.3c0.4-0.2,0.7-0.4,0.9-0.7s0.4-0.7,0.5-1.2c0.2-0.8,0.3-1.6,0.3-2.6s0-1.7-0.1-2.2
		C791.4,861,791.2,860.5,791,860z"/>
	<path class="st5" d="M801.8,870.1v-2.9h-6.7V866l6.2-8.9h2.1v8.6h1.7v1.4h-1.7v2.9L801.8,870.1L801.8,870.1z M801.9,865.8v-7.1
		l-4.8,7.1H801.9z"/>
</g>
<g class="st4">
	<path class="st5" d="M839.2,869.9v-1.2c0.3-0.3,0.7-0.6,1.4-1.2c0.6-0.5,1.1-0.9,1.4-1.2c0.3-0.3,0.7-0.6,1.2-1.1s0.9-0.8,1.1-1.2
		c0.3-0.3,0.5-0.7,0.8-1.1c0.5-0.8,0.8-1.5,0.8-2.3s-0.2-1.4-0.6-1.8s-1-0.7-1.8-0.7s-1.5,0.3-1.9,0.8s-0.7,1.2-0.7,2h-1.6
		c0-1.3,0.5-2.4,1.2-3.1c0.8-0.7,1.8-1.1,3-1.1s2.2,0.3,2.9,1s1.1,1.6,1.1,2.8c0,1.4-0.7,2.9-2.1,4.4c-0.5,0.5-0.9,0.9-1.2,1.2
		c-0.8,0.7-1.6,1.5-2.5,2.2h6.1v1.4h-8.6V869.9z"/>
	<path class="st5" d="M851.2,858.2c0.3-0.4,0.8-0.7,1.3-0.9s1.2-0.3,2-0.3s1.5,0.2,2.1,0.5s1.1,0.8,1.4,1.4c0.6,1.2,0.9,2.7,0.9,4.6
		c0,2.5-0.4,4.3-1.3,5.3c-0.7,0.8-1.8,1.3-3.2,1.3c-2.6,0-4-1.5-4.4-4.5c-0.1-0.6-0.1-1.3-0.1-2.1s0-1.5,0.1-2.1s0.2-1.2,0.4-1.8
		C850.6,859,850.9,858.5,851.2,858.2z M856.8,860c-0.2-0.5-0.5-0.9-0.9-1.2s-0.9-0.4-1.5-0.4s-1,0.1-1.4,0.3s-0.7,0.4-0.9,0.7
		s-0.4,0.7-0.5,1.2s-0.2,0.9-0.2,1.4c0,0.4,0,1,0,1.6s0,1.1,0,1.6c0,0.4,0.1,0.9,0.2,1.4c0.1,0.5,0.3,0.9,0.5,1.2s0.5,0.5,0.9,0.7
		s0.8,0.3,1.3,0.3s0.9-0.1,1.3-0.3c0.4-0.2,0.7-0.4,0.9-0.7s0.4-0.7,0.5-1.2c0.2-0.8,0.3-1.6,0.3-2.6s0-1.7-0.1-2.2
		C857.1,861,857,860.5,856.8,860z"/>
	<path class="st5" d="M862.6,858.2c0.3-0.4,0.8-0.7,1.3-0.9s1.2-0.3,2-0.3s1.5,0.2,2.1,0.5s1.1,0.8,1.4,1.4c0.6,1.2,0.9,2.7,0.9,4.6
		c0,2.5-0.4,4.3-1.3,5.3c-0.7,0.8-1.8,1.3-3.2,1.3c-2.6,0-4-1.5-4.4-4.5c-0.1-0.6-0.1-1.3-0.1-2.1s0-1.5,0.1-2.1s0.2-1.2,0.4-1.8
		C862,859,862.3,858.5,862.6,858.2z M868.3,860c-0.2-0.5-0.5-0.9-0.9-1.2s-0.9-0.4-1.5-0.4s-1,0.1-1.4,0.3s-0.7,0.4-0.9,0.7
		s-0.4,0.7-0.5,1.2s-0.2,0.9-0.2,1.4c0,0.4,0,1,0,1.6s0,1.1,0,1.6c0,0.4,0.1,0.9,0.2,1.4c0.1,0.5,0.3,0.9,0.5,1.2s0.5,0.5,0.9,0.7
		s0.8,0.3,1.3,0.3s0.9-0.1,1.3-0.3c0.4-0.2,0.7-0.4,0.9-0.7s0.4-0.7,0.5-1.2c0.2-0.8,0.3-1.6,0.3-2.6s0-1.7-0.1-2.2
		C868.6,861,868.4,860.5,868.3,860z"/>
	<path class="st5" d="M873.2,856.9h7.8v1.4h-6.3v4.1c0.3-0.4,0.7-0.7,1.2-1s1.2-0.4,1.8-0.4c0.7,0,1.3,0.1,1.9,0.4
		c0.6,0.3,1,0.6,1.3,1.1c0.6,0.9,0.9,1.8,0.9,3c0,1.4-0.4,2.5-1.1,3.3c-0.8,0.9-1.8,1.3-3.2,1.3s-2.4-0.3-3.2-1
		c-0.8-0.6-1.3-1.5-1.4-2.5h1.6c0.2,0.6,0.5,1.2,1,1.5c0.5,0.4,1.2,0.6,2.1,0.6c0.9,0,1.5-0.3,2-0.9c0.5-0.6,0.7-1.3,0.7-2.3
		s-0.2-1.7-0.7-2.2s-1.2-0.8-2.2-0.8c-0.6,0-1.2,0.2-1.7,0.5s-0.8,0.8-1,1.4h-1.5L873.2,856.9L873.2,856.9z"/>
</g>
<g class="st4">
	<path class="st5" d="M916.4,869.9v-1.2c0.3-0.3,0.7-0.6,1.4-1.2c0.6-0.5,1.1-0.9,1.4-1.2c0.3-0.3,0.7-0.6,1.2-1.1s0.9-0.8,1.1-1.2
		c0.3-0.3,0.5-0.7,0.8-1.1c0.5-0.8,0.8-1.5,0.8-2.3s-0.2-1.4-0.6-1.8c-0.4-0.5-1-0.7-1.8-0.7s-1.5,0.3-1.9,0.8s-0.7,1.2-0.7,2h-1.6
		c0-1.3,0.5-2.4,1.2-3.1c0.8-0.7,1.8-1.1,3-1.1s2.2,0.3,2.9,1s1.1,1.6,1.1,2.8c0,1.4-0.7,2.9-2.1,4.4c-0.5,0.5-0.9,0.9-1.2,1.2
		c-0.8,0.7-1.6,1.5-2.5,2.2h6.1v1.4h-8.6V869.9z"/>
	<path class="st5" d="M928.3,858.2c0.3-0.4,0.8-0.7,1.3-0.9s1.2-0.3,2-0.3s1.5,0.2,2.1,0.5s1.1,0.8,1.4,1.4c0.6,1.2,0.9,2.7,0.9,4.6
		c0,2.5-0.4,4.3-1.3,5.3c-0.7,0.8-1.8,1.3-3.2,1.3c-2.6,0-4-1.5-4.4-4.5c-0.1-0.6-0.1-1.3-0.1-2.1s0-1.5,0.1-2.1s0.2-1.2,0.4-1.8
		C927.7,859,928,858.5,928.3,858.2z M933.9,860c-0.2-0.5-0.5-0.9-0.9-1.2s-0.9-0.4-1.5-0.4s-1,0.1-1.4,0.3s-0.7,0.4-0.9,0.7
		s-0.4,0.7-0.5,1.2s-0.2,0.9-0.2,1.4c0,0.4,0,1,0,1.6s0,1.1,0,1.6c0,0.4,0.1,0.9,0.2,1.4c0.1,0.5,0.3,0.9,0.5,1.2s0.5,0.5,0.9,0.7
		s0.8,0.3,1.3,0.3s0.9-0.1,1.3-0.3c0.4-0.2,0.7-0.4,0.9-0.7s0.4-0.7,0.5-1.2c0.2-0.8,0.3-1.6,0.3-2.6s0-1.7-0.1-2.2
		C934.2,861,934.1,860.5,933.9,860z"/>
	<path class="st5" d="M939.8,858.2c0.3-0.4,0.8-0.7,1.3-0.9s1.2-0.3,2-0.3s1.5,0.2,2.1,0.5s1.1,0.8,1.4,1.4c0.6,1.2,0.9,2.7,0.9,4.6
		c0,2.5-0.4,4.3-1.3,5.3c-0.7,0.8-1.8,1.3-3.2,1.3c-2.6,0-4-1.5-4.4-4.5c-0.1-0.6-0.1-1.3-0.1-2.1s0-1.5,0.1-2.1s0.2-1.2,0.4-1.8
		C939.2,859,939.4,858.5,939.8,858.2z M945.4,860c-0.2-0.5-0.5-0.9-0.9-1.2s-0.9-0.4-1.5-0.4s-1,0.1-1.4,0.3s-0.7,0.4-0.9,0.7
		s-0.4,0.7-0.5,1.2s-0.2,0.9-0.2,1.4c0,0.4,0,1,0,1.6s0,1.1,0,1.6c0,0.4,0.1,0.9,0.2,1.4c0.1,0.5,0.3,0.9,0.5,1.2s0.5,0.5,0.9,0.7
		s0.8,0.3,1.3,0.3s0.9-0.1,1.3-0.3c0.4-0.2,0.7-0.4,0.9-0.7s0.4-0.7,0.5-1.2c0.2-0.8,0.3-1.6,0.3-2.6s0-1.7-0.1-2.2
		C945.7,861,945.6,860.5,945.4,860z"/>
	<path class="st5" d="M954.7,858c-1.1,0-1.9,0.4-2.4,1.2s-0.8,2.1-0.8,4c0.3-0.6,0.8-1,1.4-1.4s1.3-0.5,2.1-0.5
		c1.2,0,2.2,0.4,2.9,1.2s1.1,1.8,1.1,3.1s-0.4,2.4-1.1,3.2c-0.7,0.8-1.8,1.2-3.2,1.2c-2.2,0-3.6-0.9-4.2-2.8c-0.3-1-0.5-2.5-0.5-4.4
		s0.4-3.4,1.1-4.6c0.7-1.1,1.9-1.7,3.5-1.7c1.2,0,2.1,0.3,2.7,0.9c0.7,0.6,1.1,1.4,1.2,2.3H957c-0.2-0.6-0.4-1.1-0.8-1.4
		C955.9,858.2,955.4,858,954.7,858z M957.5,865.7c0-0.9-0.2-1.6-0.7-2.2c-0.5-0.5-1.1-0.8-2-0.8s-1.6,0.2-2.2,0.7
		c-0.6,0.5-0.9,1.2-0.9,2.1c0,0.9,0.3,1.7,0.8,2.2c0.5,0.6,1.2,0.8,2.2,0.8c0.9,0,1.6-0.3,2.1-0.8
		C957.3,867.4,957.5,866.7,957.5,865.7z"/>
</g>
<g class="st4">
	<path class="st5" d="M994.3,869.9v-1.2c0.3-0.3,0.7-0.6,1.4-1.2c0.6-0.5,1.1-0.9,1.4-1.2c0.3-0.3,0.7-0.6,1.2-1.1s0.9-0.8,1.1-1.2
		c0.3-0.3,0.5-0.7,0.8-1.1c0.5-0.8,0.8-1.5,0.8-2.3s-0.2-1.4-0.6-1.8c-0.4-0.5-1-0.7-1.8-0.7s-1.5,0.3-1.9,0.8s-0.7,1.2-0.7,2h-1.6
		c0-1.3,0.5-2.4,1.2-3.1c0.8-0.7,1.8-1.1,3-1.1s2.2,0.3,2.9,1s1.1,1.6,1.1,2.8c0,1.4-0.7,2.9-2.1,4.4c-0.5,0.5-0.9,0.9-1.2,1.2
		c-0.8,0.7-1.6,1.5-2.5,2.2h6.1v1.4h-8.6V869.9z"/>
	<path class="st5" d="M1006.3,858.2c0.3-0.4,0.8-0.7,1.3-0.9s1.2-0.3,2-0.3s1.5,0.2,2.1,0.5s1.1,0.8,1.4,1.4
		c0.6,1.2,0.9,2.7,0.9,4.6c0,2.5-0.4,4.3-1.3,5.3c-0.7,0.8-1.8,1.3-3.2,1.3c-2.6,0-4-1.5-4.4-4.5c-0.1-0.6-0.1-1.3-0.1-2.1
		s0-1.5,0.1-2.1s0.2-1.2,0.4-1.8C1005.7,859,1006,858.5,1006.3,858.2z M1011.9,860c-0.2-0.5-0.5-0.9-0.9-1.2s-0.9-0.4-1.5-0.4
		s-1,0.1-1.4,0.3s-0.7,0.4-0.9,0.7s-0.4,0.7-0.5,1.2s-0.2,0.9-0.2,1.4c0,0.4,0,1,0,1.6s0,1.1,0,1.6c0,0.4,0.1,0.9,0.2,1.4
		c0.1,0.5,0.3,0.9,0.5,1.2s0.5,0.5,0.9,0.7s0.8,0.3,1.3,0.3s0.9-0.1,1.3-0.3c0.4-0.2,0.7-0.4,0.9-0.7s0.4-0.7,0.5-1.2
		c0.2-0.8,0.3-1.6,0.3-2.6s0-1.7-0.1-2.2C1012.2,861,1012.1,860.5,1011.9,860z"/>
	<path class="st5" d="M1017.7,858.2c0.3-0.4,0.8-0.7,1.3-0.9s1.2-0.3,2-0.3s1.5,0.2,2.1,0.5s1.1,0.8,1.4,1.4
		c0.6,1.2,0.9,2.7,0.9,4.6c0,2.5-0.4,4.3-1.3,5.3c-0.7,0.8-1.8,1.3-3.2,1.3c-2.6,0-4-1.5-4.4-4.5c-0.1-0.6-0.1-1.3-0.1-2.1
		s0-1.5,0.1-2.1s0.2-1.2,0.4-1.8C1017.1,859,1017.4,858.5,1017.7,858.2z M1023.3,860c-0.2-0.5-0.5-0.9-0.9-1.2s-0.9-0.4-1.5-0.4
		s-1,0.1-1.4,0.3s-0.7,0.4-0.9,0.7s-0.4,0.7-0.5,1.2s-0.2,0.9-0.2,1.4c0,0.4,0,1,0,1.6s0,1.1,0,1.6c0,0.4,0.1,0.9,0.2,1.4
		c0.1,0.5,0.3,0.9,0.5,1.2s0.5,0.5,0.9,0.7s0.8,0.3,1.3,0.3s0.9-0.1,1.3-0.3c0.4-0.2,0.7-0.4,0.9-0.7s0.4-0.7,0.5-1.2
		c0.2-0.8,0.3-1.6,0.3-2.6s0-1.7-0.1-2.2C1023.7,861,1023.5,860.5,1023.3,860z"/>
	<path class="st5" d="M1027.4,857h8.7v1.2l-5.1,11.9h-1.8l5.4-11.7h-7.1L1027.4,857L1027.4,857z"/>
</g>
<g class="st4">
	<path class="st5" d="M1070.9,869.9v-1.2c0.3-0.3,0.7-0.6,1.4-1.2c0.6-0.5,1.1-0.9,1.4-1.2s0.7-0.6,1.2-1.1s0.9-0.8,1.1-1.2
		c0.3-0.3,0.5-0.7,0.8-1.1c0.5-0.8,0.8-1.5,0.8-2.3s-0.2-1.4-0.6-1.8c-0.4-0.5-1-0.7-1.8-0.7s-1.5,0.3-1.9,0.8s-0.7,1.2-0.7,2h-1.6
		c0-1.3,0.5-2.4,1.2-3.1c0.8-0.7,1.8-1.1,3-1.1s2.2,0.3,2.9,1c0.7,0.7,1.1,1.6,1.1,2.8c0,1.4-0.7,2.9-2.1,4.4
		c-0.5,0.5-0.9,0.9-1.2,1.2c-0.8,0.7-1.6,1.5-2.5,2.2h6.1v1.4h-8.6V869.9z"/>
	<path class="st5" d="M1082.8,858.2c0.3-0.4,0.8-0.7,1.3-0.9s1.2-0.3,2-0.3s1.5,0.2,2.1,0.5s1.1,0.8,1.4,1.4
		c0.6,1.2,0.9,2.7,0.9,4.6c0,2.5-0.4,4.3-1.3,5.3c-0.7,0.8-1.8,1.3-3.2,1.3c-2.6,0-4-1.5-4.4-4.5c-0.1-0.6-0.1-1.3-0.1-2.1
		s0-1.5,0.1-2.1s0.2-1.2,0.4-1.8C1082.2,859,1082.5,858.5,1082.8,858.2z M1088.4,860c-0.2-0.5-0.5-0.9-0.9-1.2s-0.9-0.4-1.5-0.4
		s-1,0.1-1.4,0.3s-0.7,0.4-0.9,0.7c-0.2,0.3-0.4,0.7-0.5,1.2s-0.2,0.9-0.2,1.4c0,0.4,0,1,0,1.6s0,1.1,0,1.6c0,0.4,0.1,0.9,0.2,1.4
		s0.3,0.9,0.5,1.2s0.5,0.5,0.9,0.7s0.8,0.3,1.3,0.3s0.9-0.1,1.3-0.3s0.7-0.4,0.9-0.7c0.2-0.3,0.4-0.7,0.5-1.2
		c0.2-0.8,0.3-1.6,0.3-2.6s0-1.7-0.1-2.2C1088.7,861,1088.6,860.5,1088.4,860z"/>
	<path class="st5" d="M1094.3,858.2c0.3-0.4,0.8-0.7,1.3-0.9s1.2-0.3,2-0.3s1.5,0.2,2.1,0.5s1.1,0.8,1.4,1.4
		c0.6,1.2,0.9,2.7,0.9,4.6c0,2.5-0.4,4.3-1.3,5.3c-0.7,0.8-1.8,1.3-3.2,1.3c-2.6,0-4-1.5-4.4-4.5c-0.1-0.6-0.1-1.3-0.1-2.1
		s0-1.5,0.1-2.1s0.2-1.2,0.4-1.8C1093.7,859,1093.9,858.5,1094.3,858.2z M1099.9,860c-0.2-0.5-0.5-0.9-0.9-1.2s-0.9-0.4-1.5-0.4
		s-1,0.1-1.4,0.3s-0.7,0.4-0.9,0.7s-0.4,0.7-0.5,1.2s-0.2,0.9-0.2,1.4c0,0.4,0,1,0,1.6s0,1.1,0,1.6c0,0.4,0.1,0.9,0.2,1.4
		s0.3,0.9,0.5,1.2s0.5,0.5,0.9,0.7s0.8,0.3,1.3,0.3s0.9-0.1,1.3-0.3s0.7-0.4,0.9-0.7s0.4-0.7,0.5-1.2c0.2-0.8,0.3-1.6,0.3-2.6
		s0-1.7-0.1-2.2C1100.2,861,1100.1,860.5,1099.9,860z"/>
	<path class="st5" d="M1104.6,860.1c0-1,0.4-1.9,1.1-2.5c0.7-0.7,1.8-1,3.1-1s2.4,0.3,3.1,1s1.1,1.5,1.1,2.5c0,0.7-0.2,1.3-0.5,1.8
		c-0.4,0.5-0.8,0.9-1.4,1.2c0.7,0.2,1.2,0.6,1.7,1.2c0.4,0.6,0.6,1.3,0.6,2.1c0,1.2-0.4,2.2-1.3,2.9c-0.8,0.7-1.9,1.1-3.3,1.1
		s-2.5-0.4-3.3-1.1c-0.8-0.7-1.3-1.7-1.3-2.9c0-0.8,0.2-1.5,0.6-2.1s1-1,1.7-1.2C1105.3,862.4,1104.6,861.4,1104.6,860.1z
		 M1111.9,866.3c0-0.8-0.3-1.5-0.8-1.9c-0.6-0.4-1.3-0.7-2.2-0.7c-0.9,0-1.6,0.2-2.2,0.7c-0.6,0.4-0.8,1.1-0.8,1.9s0.3,1.5,0.8,2
		s1.3,0.7,2.2,0.7s1.7-0.2,2.2-0.7S1111.9,867.2,1111.9,866.3z M1111.6,860.2c0-0.7-0.2-1.2-0.7-1.6c-0.5-0.4-1.1-0.6-2-0.6
		s-1.5,0.2-2,0.6c-0.5,0.4-0.7,1-0.7,1.6c0,0.7,0.2,1.3,0.7,1.7s1.1,0.6,1.9,0.6s1.4-0.2,1.9-0.6S1111.6,860.9,1111.6,860.2z"/>
</g>
<g class="st4">
	<path class="st5" d="M1148.1,869.9v-1.2c0.3-0.3,0.7-0.6,1.4-1.2c0.6-0.5,1.1-0.9,1.4-1.2s0.7-0.6,1.2-1.1s0.9-0.8,1.1-1.2
		c0.3-0.3,0.5-0.7,0.8-1.1c0.5-0.8,0.8-1.5,0.8-2.3s-0.2-1.4-0.6-1.8c-0.4-0.5-1-0.7-1.8-0.7s-1.5,0.3-1.9,0.8s-0.7,1.2-0.7,2h-1.6
		c0-1.3,0.5-2.4,1.2-3.1c0.8-0.7,1.8-1.1,3-1.1s2.2,0.3,2.9,1c0.7,0.7,1.1,1.6,1.1,2.8c0,1.4-0.7,2.9-2.1,4.4
		c-0.5,0.5-0.9,0.9-1.2,1.2c-0.8,0.7-1.6,1.5-2.5,2.2h6.1v1.4h-8.6V869.9z"/>
	<path class="st5" d="M1160,858.2c0.3-0.4,0.8-0.7,1.3-0.9s1.2-0.3,2-0.3s1.5,0.2,2.1,0.5s1.1,0.8,1.4,1.4c0.6,1.2,0.9,2.7,0.9,4.6
		c0,2.5-0.4,4.3-1.3,5.3c-0.7,0.8-1.8,1.3-3.2,1.3c-2.6,0-4-1.5-4.4-4.5c-0.1-0.6-0.1-1.3-0.1-2.1s0-1.5,0.1-2.1s0.2-1.2,0.4-1.8
		C1159.4,859,1159.7,858.5,1160,858.2z M1165.6,860c-0.2-0.5-0.5-0.9-0.9-1.2s-0.9-0.4-1.5-0.4s-1,0.1-1.4,0.3s-0.7,0.4-0.9,0.7
		c-0.2,0.3-0.4,0.7-0.5,1.2s-0.2,0.9-0.2,1.4c0,0.4,0,1,0,1.6s0,1.1,0,1.6c0,0.4,0.1,0.9,0.2,1.4s0.3,0.9,0.5,1.2s0.5,0.5,0.9,0.7
		s0.8,0.3,1.3,0.3s0.9-0.1,1.3-0.3s0.7-0.4,0.9-0.7c0.2-0.3,0.4-0.7,0.5-1.2c0.2-0.8,0.3-1.6,0.3-2.6s0-1.7-0.1-2.2
		C1166,861,1165.8,860.5,1165.6,860z"/>
	<path class="st5" d="M1171.5,858.2c0.3-0.4,0.8-0.7,1.3-0.9s1.2-0.3,2-0.3s1.5,0.2,2.1,0.5s1.1,0.8,1.4,1.4
		c0.6,1.2,0.9,2.7,0.9,4.6c0,2.5-0.4,4.3-1.3,5.3c-0.7,0.8-1.8,1.3-3.2,1.3c-2.6,0-4-1.5-4.4-4.5c-0.1-0.6-0.1-1.3-0.1-2.1
		s0-1.5,0.1-2.1s0.2-1.2,0.4-1.8C1170.9,859,1171.2,858.5,1171.5,858.2z M1177.1,860c-0.2-0.5-0.5-0.9-0.9-1.2s-0.9-0.4-1.5-0.4
		s-1,0.1-1.4,0.3s-0.7,0.4-0.9,0.7s-0.4,0.7-0.5,1.2s-0.2,0.9-0.2,1.4c0,0.4,0,1,0,1.6s0,1.1,0,1.6c0,0.4,0.1,0.9,0.2,1.4
		s0.3,0.9,0.5,1.2s0.5,0.5,0.9,0.7s0.8,0.3,1.3,0.3s0.9-0.1,1.3-0.3s0.7-0.4,0.9-0.7s0.4-0.7,0.5-1.2c0.2-0.8,0.3-1.6,0.3-2.6
		s0-1.7-0.1-2.2C1177.4,861,1177.3,860.5,1177.1,860z"/>
	<path class="st5" d="M1186.4,868.7c1,0,1.7-0.4,2.1-1.1c0.4-0.7,0.7-2,0.7-3.9c-0.3,0.5-0.7,0.8-1.3,1.1s-1.2,0.4-1.8,0.4
		c-1.2,0-2.2-0.4-3-1.1c-0.8-0.8-1.2-1.8-1.2-3.1s0.4-2.4,1.1-3.1s1.8-1.2,3.1-1.2c1.6,0,2.7,0.5,3.4,1.6c0.7,1.1,1,2.8,1,5.1
		s-0.3,4-0.9,5.1s-1.7,1.7-3.3,1.7c-1.2,0-2.2-0.3-2.8-1c-0.7-0.6-1.1-1.4-1.2-2.4h1.5C1184,868,1184.9,868.7,1186.4,868.7z
		 M1183.4,860.9c0,0.9,0.2,1.6,0.7,2.1s1.2,0.8,2.1,0.8s1.6-0.3,2-0.8c0.5-0.5,0.7-1.2,0.7-2.1c0-0.9-0.2-1.6-0.7-2.1
		s-1.2-0.8-2-0.8s-1.5,0.3-2,0.8C1183.7,859.3,1183.4,860,1183.4,860.9z"/>
</g>
<g class="st4">
	<path class="st5" d="M1228.1,869.9v-1.2c0.3-0.3,0.7-0.6,1.4-1.2c0.6-0.5,1.1-0.9,1.4-1.2s0.7-0.6,1.2-1.1s0.9-0.8,1.1-1.2
		c0.3-0.3,0.5-0.7,0.8-1.1c0.5-0.8,0.8-1.5,0.8-2.3s-0.2-1.4-0.6-1.8c-0.4-0.5-1-0.7-1.8-0.7s-1.5,0.3-1.9,0.8s-0.7,1.2-0.7,2h-1.6
		c0-1.3,0.5-2.4,1.2-3.1c0.8-0.7,1.8-1.1,3-1.1s2.2,0.3,2.9,1c0.7,0.7,1.1,1.6,1.1,2.8c0,1.4-0.7,2.9-2.1,4.4
		c-0.5,0.5-0.9,0.9-1.2,1.2c-0.8,0.7-1.6,1.5-2.5,2.2h6.1v1.4h-8.6V869.9z"/>
	<path class="st5" d="M1240.1,858.2c0.3-0.4,0.8-0.7,1.3-0.9s1.2-0.3,2-0.3s1.5,0.2,2.1,0.5s1.1,0.8,1.4,1.4
		c0.6,1.2,0.9,2.7,0.9,4.6c0,2.5-0.4,4.3-1.3,5.3c-0.7,0.8-1.8,1.3-3.2,1.3c-2.6,0-4-1.5-4.4-4.5c-0.1-0.6-0.1-1.3-0.1-2.1
		s0-1.5,0.1-2.1s0.2-1.2,0.4-1.8C1239.5,859,1239.7,858.5,1240.1,858.2z M1245.7,860c-0.2-0.5-0.5-0.9-0.9-1.2s-0.9-0.4-1.5-0.4
		s-1,0.1-1.4,0.3s-0.7,0.4-0.9,0.7c-0.2,0.3-0.4,0.7-0.5,1.2s-0.2,0.9-0.2,1.4c0,0.4,0,1,0,1.6s0,1.1,0,1.6c0,0.4,0.1,0.9,0.2,1.4
		s0.3,0.9,0.5,1.2s0.5,0.5,0.9,0.7s0.8,0.3,1.3,0.3s0.9-0.1,1.3-0.3s0.7-0.4,0.9-0.7c0.2-0.3,0.4-0.7,0.5-1.2
		c0.2-0.8,0.3-1.6,0.3-2.6s0-1.7-0.1-2.2C1246,861,1245.9,860.5,1245.7,860z"/>
	<path class="st5" d="M1251.4,870.1v-11.3h-1.5v-1.5h3.1v12.8H1251.4z"/>
	<path class="st5" d="M1257.3,858.2c0.3-0.4,0.8-0.7,1.3-0.9s1.2-0.3,2-0.3s1.5,0.2,2.1,0.5s1.1,0.8,1.4,1.4
		c0.6,1.2,0.9,2.7,0.9,4.6c0,2.5-0.4,4.3-1.3,5.3c-0.7,0.8-1.8,1.3-3.2,1.3c-2.6,0-4-1.5-4.4-4.5c-0.1-0.6-0.1-1.3-0.1-2.1
		s0-1.5,0.1-2.1s0.2-1.2,0.4-1.8C1256.7,859,1257,858.5,1257.3,858.2z M1262.9,860c-0.2-0.5-0.5-0.9-0.9-1.2s-0.9-0.4-1.5-0.4
		s-1,0.1-1.4,0.3s-0.7,0.4-0.9,0.7c-0.2,0.3-0.4,0.7-0.5,1.2s-0.2,0.9-0.2,1.4c0,0.4,0,1,0,1.6s0,1.1,0,1.6c0,0.4,0.1,0.9,0.2,1.4
		s0.3,0.9,0.5,1.2s0.5,0.5,0.9,0.7s0.8,0.3,1.3,0.3s0.9-0.1,1.3-0.3s0.7-0.4,0.9-0.7c0.2-0.3,0.4-0.7,0.5-1.2
		c0.2-0.8,0.3-1.6,0.3-2.6s0-1.7-0.1-2.2C1263.2,861,1263.1,860.5,1262.9,860z"/>
</g>
<g class="st4">
	<path class="st5" d="M1308.2,869.9v-1.2c0.3-0.3,0.7-0.6,1.4-1.2c0.6-0.5,1.1-0.9,1.4-1.2s0.7-0.6,1.2-1.1s0.9-0.8,1.1-1.2
		c0.3-0.3,0.5-0.7,0.8-1.1c0.5-0.8,0.8-1.5,0.8-2.3s-0.2-1.4-0.6-1.8c-0.4-0.5-1-0.7-1.8-0.7s-1.5,0.3-1.9,0.8s-0.7,1.2-0.7,2h-1.6
		c0-1.3,0.5-2.4,1.2-3.1c0.8-0.7,1.8-1.1,3-1.1s2.2,0.3,2.9,1c0.7,0.7,1.1,1.6,1.1,2.8c0,1.4-0.7,2.9-2.1,4.4
		c-0.5,0.5-0.9,0.9-1.2,1.2c-0.8,0.7-1.6,1.5-2.5,2.2h6.1v1.4h-8.6V869.9z"/>
	<path class="st5" d="M1320.1,858.2c0.3-0.4,0.8-0.7,1.3-0.9s1.2-0.3,2-0.3s1.5,0.2,2.1,0.5s1.1,0.8,1.4,1.4
		c0.6,1.2,0.9,2.7,0.9,4.6c0,2.5-0.4,4.3-1.3,5.3c-0.7,0.8-1.8,1.3-3.2,1.3c-2.6,0-4-1.5-4.4-4.5c-0.1-0.6-0.1-1.3-0.1-2.1
		s0-1.5,0.1-2.1s0.2-1.2,0.4-1.8C1319.5,859,1319.8,858.5,1320.1,858.2z M1325.7,860c-0.2-0.5-0.5-0.9-0.9-1.2s-0.9-0.4-1.5-0.4
		s-1,0.1-1.4,0.3s-0.7,0.4-0.9,0.7s-0.4,0.7-0.5,1.2s-0.2,0.9-0.2,1.4c0,0.4,0,1,0,1.6s0,1.1,0,1.6c0,0.4,0.1,0.9,0.2,1.4
		s0.3,0.9,0.5,1.2s0.5,0.5,0.9,0.7s0.8,0.3,1.3,0.3s0.9-0.1,1.3-0.3s0.7-0.4,0.9-0.7s0.4-0.7,0.5-1.2c0.2-0.8,0.3-1.6,0.3-2.6
		s0-1.7-0.1-2.2C1326,861,1325.9,860.5,1325.7,860z"/>
	<path class="st5" d="M1331.4,870.1v-11.3h-1.5v-1.5h3.1v12.8H1331.4z"/>
	<path class="st5" d="M1337.2,870.1v-11.3h-1.5v-1.5h3.1v12.8H1337.2z"/>
</g>
<g class="st4">
	<path class="st5" d="M1383,869.9v-1.2c0.3-0.3,0.7-0.6,1.4-1.2c0.6-0.5,1.1-0.9,1.4-1.2s0.7-0.6,1.2-1.1s0.9-0.8,1.1-1.2
		c0.3-0.3,0.5-0.7,0.8-1.1c0.5-0.8,0.8-1.5,0.8-2.3s-0.2-1.4-0.6-1.8s-1-0.7-1.8-0.7s-1.5,0.3-1.9,0.8s-0.7,1.2-0.7,2h-1.6
		c0-1.3,0.5-2.4,1.2-3.1c0.8-0.7,1.8-1.1,3-1.1s2.2,0.3,2.9,1c0.7,0.7,1.1,1.6,1.1,2.8c0,1.4-0.7,2.9-2.1,4.4
		c-0.5,0.5-0.9,0.9-1.2,1.2c-0.8,0.7-1.6,1.5-2.5,2.2h6.1v1.4h-8.6V869.9z"/>
	<path class="st5" d="M1395,858.2c0.3-0.4,0.8-0.7,1.3-0.9s1.2-0.3,2-0.3s1.5,0.2,2.1,0.5s1.1,0.8,1.4,1.4c0.6,1.2,0.9,2.7,0.9,4.6
		c0,2.5-0.4,4.3-1.3,5.3c-0.7,0.8-1.8,1.3-3.2,1.3c-2.6,0-4-1.5-4.4-4.5c-0.1-0.6-0.1-1.3-0.1-2.1s0-1.5,0.1-2.1s0.2-1.2,0.4-1.8
		C1394.4,859,1394.7,858.5,1395,858.2z M1400.6,860c-0.2-0.5-0.5-0.9-0.9-1.2s-0.9-0.4-1.5-0.4s-1,0.1-1.4,0.3s-0.7,0.4-0.9,0.7
		s-0.4,0.7-0.5,1.2s-0.2,0.9-0.2,1.4c0,0.4,0,1,0,1.6s0,1.1,0,1.6c0,0.4,0.1,0.9,0.2,1.4s0.3,0.9,0.5,1.2s0.5,0.5,0.9,0.7
		s0.8,0.3,1.3,0.3s0.9-0.1,1.3-0.3s0.7-0.4,0.9-0.7s0.4-0.7,0.5-1.2c0.2-0.8,0.3-1.6,0.3-2.6s0-1.7-0.1-2.2
		C1400.9,861,1400.8,860.5,1400.6,860z"/>
	<path class="st5" d="M1406.3,870.1v-11.3h-1.5v-1.5h3.1v12.8H1406.3z"/>
	<path class="st5" d="M1410.7,869.9v-1.2c0.3-0.3,0.7-0.6,1.4-1.2c0.6-0.5,1.1-0.9,1.4-1.2s0.7-0.6,1.2-1.1s0.9-0.8,1.1-1.2
		c0.3-0.3,0.5-0.7,0.8-1.1c0.5-0.8,0.8-1.5,0.8-2.3s-0.2-1.4-0.6-1.8s-1-0.7-1.8-0.7s-1.5,0.3-1.9,0.8s-0.7,1.2-0.7,2h-1.6
		c0-1.3,0.5-2.4,1.2-3.1c0.8-0.7,1.8-1.1,3-1.1s2.2,0.3,2.9,1c0.7,0.7,1.1,1.6,1.1,2.8c0,1.4-0.7,2.9-2.1,4.4
		c-0.5,0.5-0.9,0.9-1.2,1.2c-0.8,0.7-1.6,1.5-2.5,2.2h6.1v1.4h-8.6V869.9z"/>
</g>
<g class="st4">
	<path class="st5" d="M1460.2,869.9v-1.2c0.3-0.3,0.7-0.6,1.4-1.2c0.6-0.5,1.1-0.9,1.4-1.2s0.7-0.6,1.2-1.1s0.9-0.8,1.1-1.2
		c0.3-0.3,0.5-0.7,0.8-1.1c0.5-0.8,0.8-1.5,0.8-2.3s-0.2-1.4-0.6-1.8c-0.4-0.5-1-0.7-1.8-0.7s-1.5,0.3-1.9,0.8s-0.7,1.2-0.7,2h-1.6
		c0-1.3,0.5-2.4,1.2-3.1c0.8-0.7,1.8-1.1,3-1.1s2.2,0.3,2.9,1c0.7,0.7,1.1,1.6,1.1,2.8c0,1.4-0.7,2.9-2.1,4.4
		c-0.5,0.5-0.9,0.9-1.2,1.2c-0.8,0.7-1.6,1.5-2.5,2.2h6.1v1.4h-8.6V869.9z"/>
	<path class="st5" d="M1472.1,858.2c0.3-0.4,0.8-0.7,1.3-0.9s1.2-0.3,2-0.3s1.5,0.2,2.1,0.5s1.1,0.8,1.4,1.4
		c0.6,1.2,0.9,2.7,0.9,4.6c0,2.5-0.4,4.3-1.3,5.3c-0.7,0.8-1.8,1.3-3.2,1.3c-2.6,0-4-1.5-4.4-4.5c-0.1-0.6-0.1-1.3-0.1-2.1
		s0-1.5,0.1-2.1s0.2-1.2,0.4-1.8C1471.5,859,1471.8,858.5,1472.1,858.2z M1477.7,860c-0.2-0.5-0.5-0.9-0.9-1.2s-0.9-0.4-1.5-0.4
		s-1,0.1-1.4,0.3s-0.7,0.4-0.9,0.7s-0.4,0.7-0.5,1.2s-0.2,0.9-0.2,1.4c0,0.4,0,1,0,1.6s0,1.1,0,1.6c0,0.4,0.1,0.9,0.2,1.4
		s0.3,0.9,0.5,1.2s0.5,0.5,0.9,0.7s0.8,0.3,1.3,0.3s0.9-0.1,1.3-0.3s0.7-0.4,0.9-0.7s0.4-0.7,0.5-1.2c0.2-0.8,0.3-1.6,0.3-2.6
		s0-1.7-0.1-2.2C1478.1,861,1477.9,860.5,1477.7,860z"/>
	<path class="st5" d="M1483.4,870.1v-11.3h-1.5v-1.5h3.1v12.8H1483.4z"/>
	<path class="st5" d="M1489.2,857.5c0.8-0.6,1.8-0.9,3-0.9s2.2,0.3,2.9,1c0.7,0.6,1.1,1.4,1.1,2.4c0,0.7-0.2,1.3-0.6,1.9
		c-0.4,0.5-0.9,0.9-1.5,1.1v0.1c0.7,0.2,1.3,0.6,1.7,1.2c0.4,0.6,0.6,1.4,0.6,2.4s-0.4,1.8-1.1,2.5s-1.7,1-3,1s-2.3-0.3-3.1-1
		c-0.8-0.6-1.3-1.6-1.3-2.8h1.5c0.1,0.7,0.3,1.2,0.9,1.7c0.5,0.4,1.2,0.7,2,0.7s1.5-0.2,1.9-0.7s0.7-1,0.7-1.7c0-0.9-0.3-1.6-0.9-2
		s-1.5-0.6-2.8-0.6h-0.4v-1.4h0.5c2.3,0,3.4-0.8,3.4-2.2c0-0.7-0.2-1.2-0.6-1.6c-0.4-0.4-1-0.6-1.8-0.6s-1.4,0.2-1.8,0.5
		c-0.4,0.4-0.7,0.8-0.8,1.4h-1.6C1488,858.9,1488.4,858.1,1489.2,857.5z"/>
</g>
<g class="st4">
	<path class="st5" d="M1537,869.9v-1.2c0.3-0.3,0.7-0.6,1.4-1.2c0.6-0.5,1.1-0.9,1.4-1.2s0.7-0.6,1.2-1.1s0.9-0.8,1.1-1.2
		c0.3-0.3,0.5-0.7,0.8-1.1c0.5-0.8,0.8-1.5,0.8-2.3s-0.2-1.4-0.6-1.8c-0.4-0.5-1-0.7-1.8-0.7s-1.5,0.3-1.9,0.8s-0.7,1.2-0.7,2h-1.6
		c0-1.3,0.5-2.4,1.2-3.1c0.8-0.7,1.8-1.1,3-1.1s2.2,0.3,2.9,1c0.7,0.7,1.1,1.6,1.1,2.8c0,1.4-0.7,2.9-2.1,4.4
		c-0.5,0.5-0.9,0.9-1.2,1.2c-0.8,0.7-1.6,1.5-2.5,2.2h6.1v1.4h-8.6V869.9z"/>
	<path class="st5" d="M1548.9,858.2c0.3-0.4,0.8-0.7,1.3-0.9s1.2-0.3,2-0.3s1.5,0.2,2.1,0.5s1.1,0.8,1.4,1.4
		c0.6,1.2,0.9,2.7,0.9,4.6c0,2.5-0.4,4.3-1.3,5.3c-0.7,0.8-1.8,1.3-3.2,1.3c-2.6,0-4-1.5-4.4-4.5c-0.1-0.6-0.1-1.3-0.1-2.1
		s0-1.5,0.1-2.1s0.2-1.2,0.4-1.8C1548.3,859,1548.6,858.5,1548.9,858.2z M1554.6,860c-0.2-0.5-0.5-0.9-0.9-1.2s-0.9-0.4-1.5-0.4
		s-1,0.1-1.4,0.3s-0.7,0.4-0.9,0.7s-0.4,0.7-0.5,1.2s-0.2,0.9-0.2,1.4c0,0.4,0,1,0,1.6s0,1.1,0,1.6c0,0.4,0.1,0.9,0.2,1.4
		s0.3,0.9,0.5,1.2s0.5,0.5,0.9,0.7s0.8,0.3,1.3,0.3s0.9-0.1,1.3-0.3s0.7-0.4,0.9-0.7s0.4-0.7,0.5-1.2c0.2-0.8,0.3-1.6,0.3-2.6
		s0-1.7-0.1-2.2C1554.9,861,1554.7,860.5,1554.6,860z"/>
	<path class="st5" d="M1560.3,870.1v-11.3h-1.5v-1.5h3.1v12.8H1560.3z"/>
	<path class="st5" d="M1571.1,870.1v-2.9h-6.7V866l6.2-8.9h2.1v8.6h1.7v1.4h-1.7v2.9L1571.1,870.1L1571.1,870.1z M1571.2,865.8v-7.1
		l-4.8,7.1H1571.2z"/>
</g>
<g class="st4">
	<path class="st5" d="M1614.2,869.9v-1.2c0.3-0.3,0.7-0.6,1.4-1.2c0.6-0.5,1.1-0.9,1.4-1.2s0.7-0.6,1.2-1.1s0.9-0.8,1.1-1.2
		c0.3-0.3,0.5-0.7,0.8-1.1c0.5-0.8,0.8-1.5,0.8-2.3s-0.2-1.4-0.6-1.8c-0.4-0.5-1-0.7-1.8-0.7s-1.5,0.3-1.9,0.8s-0.7,1.2-0.7,2h-1.6
		c0-1.3,0.5-2.4,1.2-3.1c0.8-0.7,1.8-1.1,3-1.1s2.2,0.3,2.9,1c0.7,0.7,1.1,1.6,1.1,2.8c0,1.4-0.7,2.9-2.1,4.4
		c-0.5,0.5-0.9,0.9-1.2,1.2c-0.8,0.7-1.6,1.5-2.5,2.2h6.1v1.4h-8.6V869.9z"/>
	<path class="st5" d="M1626.1,858.2c0.3-0.4,0.8-0.7,1.3-0.9s1.2-0.3,2-0.3s1.5,0.2,2.1,0.5s1.1,0.8,1.4,1.4
		c0.6,1.2,0.9,2.7,0.9,4.6c0,2.5-0.4,4.3-1.3,5.3c-0.7,0.8-1.8,1.3-3.2,1.3c-2.6,0-4-1.5-4.4-4.5c-0.1-0.6-0.1-1.3-0.1-2.1
		s0-1.5,0.1-2.1s0.2-1.2,0.4-1.8C1625.5,859,1625.8,858.5,1626.1,858.2z M1631.8,860c-0.2-0.5-0.5-0.9-0.9-1.2s-0.9-0.4-1.5-0.4
		s-1,0.1-1.4,0.3s-0.7,0.4-0.9,0.7s-0.4,0.7-0.5,1.2s-0.2,0.9-0.2,1.4c0,0.4,0,1,0,1.6s0,1.1,0,1.6c0,0.4,0.1,0.9,0.2,1.4
		s0.3,0.9,0.5,1.2s0.5,0.5,0.9,0.7s0.8,0.3,1.3,0.3s0.9-0.1,1.3-0.3s0.7-0.4,0.9-0.7s0.4-0.7,0.5-1.2c0.2-0.8,0.3-1.6,0.3-2.6
		s0-1.7-0.1-2.2C1632.1,861,1632,860.5,1631.8,860z"/>
	<path class="st5" d="M1637.5,870.1v-11.3h-1.5v-1.5h3.1v12.8H1637.5z"/>
	<path class="st5" d="M1642.4,856.9h7.8v1.4h-6.3v4.1c0.3-0.4,0.7-0.7,1.2-1s1.2-0.4,1.8-0.4c0.7,0,1.3,0.1,1.9,0.4
		c0.6,0.3,1,0.6,1.3,1.1c0.6,0.9,0.9,1.8,0.9,3c0,1.4-0.4,2.5-1.1,3.3c-0.8,0.9-1.8,1.3-3.2,1.3c-1.4,0-2.4-0.3-3.2-1
		c-0.8-0.6-1.3-1.5-1.4-2.5h1.6c0.2,0.6,0.5,1.2,1,1.5c0.5,0.4,1.2,0.6,2.1,0.6s1.5-0.3,2-0.9c0.5-0.6,0.7-1.3,0.7-2.3
		s-0.2-1.7-0.7-2.2s-1.2-0.8-2.2-0.8c-0.6,0-1.2,0.2-1.7,0.5s-0.8,0.8-1,1.4h-1.5L1642.4,856.9L1642.4,856.9z"/>
</g>
<path class="st5" d="M1634.9,107.3l12.7,12.7l-12.7,12.7l-12.8-12.6L1634.9,107.3z"/>
<path class="st6" d="M91.8,455l76.6,100.6l81-109.3L322.8,314l78.5,178.3h74.8l81-103.5l74.6-74.8l79,11.5l75.4,63.3L863.3,268
	l78,46l77.4-23l77.1,109.3l75.6-92.1l78.5-69l77.5,103.6L1403,314l75.5-17.3l79.7-69l76.7-107.6"/>
<path class="st5" d="M91.3,442.3L104,455l-12.7,12.7L78.6,455L91.3,442.3z"/>
<g class="st4">
	<path class="st5" d="M34.6,18.4c-0.5-0.5-0.8-1.3-0.8-2.2c0-0.9,0.3-1.6,0.8-2.2c0.6-0.5,1.3-0.8,2.2-0.8s1.6,0.3,2.2,0.8
		c0.6,0.5,0.9,1.3,0.9,2.2s-0.3,1.6-0.9,2.2s-1.3,0.8-2.2,0.8C35.8,19.2,35.1,18.9,34.6,18.4z M38,17.7c0.4-0.4,0.5-0.9,0.5-1.5
		S38.3,15,38,14.7s-0.8-0.6-1.3-0.6s-0.9,0.2-1.2,0.5s-0.5,1-0.5,1.6s0.2,1.2,0.5,1.5c0.3,0.4,0.7,0.5,1.2,0.5
		C37.2,18.3,37.6,18.1,38,17.7z"/>
	<path class="st5" d="M42.7,23.5c-1.2-1.1-1.7-2.6-1.7-4.3c0-1.7,0.6-3.2,1.7-4.3c1.2-1.1,2.6-1.7,4.3-1.7c1.2,0,2.3,0.3,3.3,0.9
		c1,0.6,1.7,1.4,2.1,2.5h-1.9c-0.7-1.3-1.9-2-3.5-2c-1.3,0-2.3,0.4-3.2,1.3c-0.8,0.8-1.2,2-1.2,3.4s0.4,2.5,1.2,3.4S45.7,24,47,24
		c0.8,0,1.5-0.2,2.1-0.5s1.1-0.8,1.4-1.5h1.9c-0.5,1.1-1.2,1.9-2.1,2.5c-1,0.6-2,0.9-3.3,0.9C45.2,25.2,43.8,24.6,42.7,23.5z"/>
</g>
</svg>
