<?xml version="1.0" encoding="utf-8"?>
<!-- Generator: Adobe Illustrator 21.0.0, SVG Export Plug-In . SVG Version: 6.00 Build 0)  -->
<svg version="1.1" id="Livello_1" xmlns="http://www.w3.org/2000/svg" xmlns:xlink="http://www.w3.org/1999/xlink" x="0px" y="0px"
	 width="93.8px" height="63px" viewBox="0 0 93.8 63" style="enable-background:new 0 0 93.8 63;" xml:space="preserve">
<style type="text/css">
	.st0{enable-background:new    ;}
	.st1{fill:#E94C62;}
	.st2{fill:#B22F45;}
	.st3{opacity:0.15;fill:none;stroke:#272727;stroke-width:0.5;stroke-miterlimit:10;enable-background:new    ;}
	.st4{opacity:0.15;enable-background:new    ;}
	.st5{fill:none;stroke:#272727;stroke-width:0.5;stroke-miterlimit:10;}
</style>
<g class="st0">
	<path d="M72.8,54.7c0.1-0.1,0.2-0.2,0.4-0.2s0.3-0.1,0.5-0.1c0.2,0,0.4,0,0.6,0.1c0.2,0.1,0.3,0.2,0.4,0.4c0.2,0.3,0.2,0.7,0.2,1.3
		c0,0.7-0.1,1.2-0.4,1.4c-0.2,0.2-0.5,0.3-0.9,0.3c-0.7,0-1.1-0.4-1.2-1.2c0-0.2,0-0.4,0-0.6c0-0.2,0-0.4,0-0.6
		c0-0.2,0.1-0.3,0.1-0.5C72.6,54.9,72.7,54.8,72.8,54.7z M74.3,55.2c-0.1-0.1-0.1-0.2-0.2-0.3c-0.1-0.1-0.2-0.1-0.4-0.1
		c-0.2,0-0.3,0-0.4,0.1C73.2,54.9,73.1,55,73,55s-0.1,0.2-0.1,0.3c0,0.1-0.1,0.3-0.1,0.4c0,0.1,0,0.3,0,0.4c0,0.2,0,0.3,0,0.4
		c0,0.1,0,0.2,0.1,0.4s0.1,0.2,0.1,0.3c0.1,0.1,0.1,0.1,0.2,0.2c0.1,0.1,0.2,0.1,0.4,0.1c0.1,0,0.3,0,0.4-0.1s0.2-0.1,0.2-0.2
		c0.1-0.1,0.1-0.2,0.1-0.3c0.1-0.2,0.1-0.4,0.1-0.7s0-0.5,0-0.6C74.4,55.5,74.3,55.3,74.3,55.2z"/>
	<path d="M79.2,57c0,0.2-0.1,0.5-0.3,0.6c-0.2,0.2-0.4,0.3-0.7,0.3v0.4h-0.3V58c-0.3,0-0.5-0.1-0.7-0.3c-0.2-0.2-0.3-0.4-0.3-0.6
		l0.5,0c0,0.1,0.1,0.2,0.1,0.3c0.1,0.1,0.2,0.1,0.4,0.2l0-1.2c-0.3-0.1-0.6-0.2-0.7-0.3C77.1,56,77,55.9,77,55.8c0-0.1,0-0.2,0-0.3
		c0-0.3,0.1-0.5,0.3-0.7s0.4-0.3,0.7-0.3v-0.4h0.3v0.4c0.3,0,0.5,0.1,0.7,0.3c0.2,0.1,0.3,0.3,0.3,0.6l-0.5,0c0-0.1-0.1-0.2-0.1-0.3
		c-0.1-0.1-0.2-0.1-0.3-0.2l0,1.2c0.4,0.1,0.7,0.2,0.8,0.3C79.1,56.6,79.2,56.8,79.2,57z M77.5,55.1c-0.1,0.1-0.2,0.2-0.2,0.4
		c0,0.2,0,0.3,0.1,0.4c0.1,0.1,0.2,0.1,0.4,0.2l0-1.1C77.8,54.9,77.6,55,77.5,55.1z M78.6,57.4c0.1-0.1,0.2-0.2,0.2-0.4
		c0-0.2,0-0.3-0.1-0.4c-0.1-0.1-0.2-0.1-0.4-0.2l0,1.1C78.4,57.6,78.5,57.5,78.6,57.4z"/>
	<path d="M85.1,54.6l0,3.4l-0.4,0l0-2.5L83.5,58l-0.3,0l-1.1-2.5l0,2.5h-0.4l0-3.4l0.5,0l1.3,2.8l1.3-2.8L85.1,54.6z"/>
	<path d="M85.8,54.6h0.4l0,3l1.2,0l0,0.3l-1.6,0L85.8,54.6z"/>
	<path d="M90.2,54.6l0.4,0l0,3.4l-0.4,0l-1.8-2.7l0,2.7l-0.4,0l0-3.4l0.4,0l1.8,2.7L90.2,54.6z"/>
</g>
<path class="st1" d="M57.8,55.9l-0.2-17.4c0-14.2-16.1-22.4-27.6-14l0,0c-11.5,8.3-8.6,26.2,4.8,30.6l16.5,5.4L57.8,55.9z"/>
<path class="st2" d="M57.8,55.9l-0.1-5.8c0-7.9-8.9-12.5-15.3-7.8l0,0c-6.3,4.5-3.9,13.7,3.3,16.4l5.6,1.8L57.8,55.9z"/>
<polyline class="st3" points="2.4,44.5 57.6,4.4 65.8,4.4 "/>
<polyline class="st3" points="8.2,46.4 57.6,10.5 60.9,10.5 "/>
<polyline class="st3" points="15,48.6 57.6,17.6 65.7,17.6 "/>
<polyline class="st3" points="21,50.9 57.9,24.2 61.2,24.2 "/>
<polyline class="st3" points="27.6,52.7 57.6,30.9 65.7,30.9 "/>
<polyline class="st3" points="33.4,54.6 57.6,37 60.9,37 "/>
<g class="st4">
	<path class="st5" d="M75,56.7"/>
</g>
<polyline class="st3" points="40.1,56.8 57.6,44.1 65.7,44.1 "/>
<polyline class="st3" points="51.5,60.7 57.9,56.1 65.7,56.1 "/>
<polyline class="st3" points="45.7,58.6 57.7,49.9 60.9,49.9 "/>
<g class="st0">
	<path d="M12.8,29.4l-0.2-0.3l1.8-1.3l0.2,0.3l-0.7,0.5l1.8,2.4l-0.4,0.3l-1.8-2.4L12.8,29.4z"/>
	<path d="M18.7,28.8l-0.7-0.4l-1.2,0.9l0.2,0.8l-0.4,0.3l-1-3.5l0.4-0.3l3,2L18.7,28.8z M16.8,28.8l1-0.7l-1.5-1L16.8,28.8z"/>
	<path d="M19.1,26.8l0.8,1.1l-0.4,0.3l-2-2.7l0.9-0.7c0.3-0.2,0.6-0.3,0.9-0.3c0.3,0,0.5,0.2,0.6,0.4c0.2,0.2,0.2,0.4,0.2,0.7
		c0,0.2-0.1,0.5-0.3,0.7l1.6,0.6L21,27.1l-1.5-0.6L19.1,26.8z M18.1,25.4l0.8,1l0.5-0.4c0.2-0.1,0.3-0.3,0.3-0.5
		c0-0.2,0-0.3-0.1-0.5c-0.3-0.3-0.6-0.4-1-0.1L18.1,25.4z"/>
	<path d="M23.2,25.5c-0.4,0.3-0.8,0.4-1.3,0.3c-0.5-0.1-0.8-0.3-1.1-0.7c-0.3-0.4-0.4-0.8-0.3-1.3c0.1-0.5,0.3-0.8,0.7-1.1
		c0.3-0.2,0.6-0.3,0.9-0.4c0.3,0,0.6,0,0.9,0.2l-0.4,0.3c-0.4-0.2-0.8-0.1-1.2,0.1c-0.3,0.2-0.5,0.5-0.5,0.8c0,0.3,0,0.7,0.3,1
		c0.2,0.3,0.5,0.5,0.9,0.6c0.3,0.1,0.6,0,0.9-0.2c0.3-0.2,0.5-0.5,0.5-0.8c0.1-0.3,0-0.6-0.2-0.9l-1.1,0.8L22,24.1l1.5-1.1l0.2,0.3
		c0.2,0.4,0.3,0.8,0.2,1.2C23.8,24.9,23.6,25.2,23.2,25.5z"/>
	<path d="M24.5,20.3l0.2,0.3l-1.1,0.8l0.7,0.9l1-0.7l0.2,0.3l-1,0.7l0.7,1l1.1-0.8l0.2,0.3l-1.4,1.1l-2-2.7L24.5,20.3z"/>
	<path d="M25.1,20.3L24.9,20l1.8-1.3l0.2,0.3l-0.7,0.5L28,22l-0.4,0.3l-1.8-2.4L25.1,20.3z"/>
	<path d="M32.3,18.8l-0.7-0.4l-1.2,0.9l0.2,0.8l-0.4,0.3l-1-3.5l0.4-0.3l3,2L32.3,18.8z M30.3,18.9l1-0.7l-1.5-1L30.3,18.9z"/>
	<path d="M32.6,16.8l0.8,1.1l-0.4,0.3l-2-2.7l0.9-0.7c0.3-0.2,0.6-0.3,0.9-0.3s0.5,0.2,0.6,0.4c0.2,0.2,0.2,0.4,0.2,0.7
		c0,0.2-0.1,0.5-0.3,0.7l1.6,0.6l-0.4,0.3L33,16.6L32.6,16.8z M31.7,15.5l0.8,1l0.5-0.4c0.2-0.1,0.3-0.3,0.3-0.5
		c0-0.2,0-0.3-0.1-0.5c-0.3-0.3-0.6-0.4-1-0.1L31.7,15.5z"/>
	<path d="M35,12.6l0.2,0.3l-1.1,0.8l0.7,0.9l1-0.7l0.2,0.3l-1,0.7l0.7,1l1.1-0.8l0.2,0.3l-1.4,1.1l-2-2.7L35,12.6z"/>
	<path d="M39.4,13.6l-0.7-0.4L37.5,14l0.2,0.8l-0.4,0.3l-1-3.5l0.4-0.3l3,2L39.4,13.6z M37.4,13.7l1-0.7l-1.5-1L37.4,13.7z"/>
</g>
<g class="st0">
	<path d="M68.9,3.3c0-0.3,0.1-0.5,0.3-0.7c0.2-0.2,0.5-0.3,0.9-0.3c0.4,0,0.6,0.1,0.8,0.3s0.3,0.4,0.3,0.7c0,0.2,0,0.4-0.1,0.5
		c-0.1,0.1-0.2,0.2-0.4,0.3c0.2,0.1,0.3,0.2,0.4,0.3c0.1,0.2,0.2,0.4,0.2,0.6c0,0.3-0.1,0.6-0.3,0.8C70.7,6,70.4,6.1,70,6.1
		c-0.4,0-0.7-0.1-0.9-0.3c-0.2-0.2-0.3-0.5-0.3-0.8c0-0.2,0.1-0.4,0.2-0.6s0.3-0.3,0.5-0.3C69.1,3.9,68.9,3.6,68.9,3.3z M70.8,5
		c0-0.2-0.1-0.4-0.2-0.5c-0.1-0.1-0.3-0.2-0.6-0.2c-0.2,0-0.4,0.1-0.6,0.2c-0.2,0.1-0.2,0.3-0.2,0.5c0,0.2,0.1,0.4,0.2,0.5
		c0.1,0.1,0.3,0.2,0.6,0.2c0.3,0,0.5-0.1,0.6-0.2C70.8,5.4,70.8,5.2,70.8,5z M70.8,3.3c0-0.2-0.1-0.3-0.2-0.4
		c-0.1-0.1-0.3-0.2-0.5-0.2c-0.2,0-0.4,0.1-0.5,0.2c-0.1,0.1-0.2,0.3-0.2,0.4s0.1,0.3,0.2,0.5c0.1,0.1,0.3,0.2,0.5,0.2
		c0.2,0,0.4-0.1,0.5-0.2C70.7,3.6,70.8,3.5,70.8,3.3z"/>
	<path d="M72.3,2.7c0.1-0.1,0.2-0.2,0.4-0.2c0.1-0.1,0.3-0.1,0.5-0.1c0.2,0,0.4,0,0.6,0.1c0.2,0.1,0.3,0.2,0.4,0.4
		c0.2,0.3,0.2,0.7,0.2,1.3c0,0.7-0.1,1.2-0.4,1.4C73.8,5.9,73.5,6,73.1,6c-0.7,0-1.1-0.4-1.2-1.2c0-0.2,0-0.4,0-0.6
		c0-0.2,0-0.4,0-0.6c0-0.2,0.1-0.3,0.1-0.5C72.1,3,72.2,2.8,72.3,2.7z M73.8,3.2c-0.1-0.1-0.1-0.2-0.2-0.3s-0.2-0.1-0.4-0.1
		c-0.2,0-0.3,0-0.4,0.1c-0.1,0.1-0.2,0.1-0.2,0.2s-0.1,0.2-0.1,0.3c0,0.1-0.1,0.3-0.1,0.4c0,0.1,0,0.3,0,0.4c0,0.2,0,0.3,0,0.4
		c0,0.1,0,0.2,0.1,0.4c0,0.1,0.1,0.2,0.1,0.3c0.1,0.1,0.1,0.1,0.2,0.2c0.1,0.1,0.2,0.1,0.4,0.1s0.3,0,0.4-0.1s0.2-0.1,0.2-0.2
		c0.1-0.1,0.1-0.2,0.1-0.3c0.1-0.2,0.1-0.4,0.1-0.7c0-0.3,0-0.5,0-0.6S73.8,3.4,73.8,3.2z"/>
	<path d="M78.7,5.1c0,0.2-0.1,0.5-0.3,0.6C78.3,5.9,78,6,77.7,6l0,0.4l-0.3,0l0-0.4c-0.3,0-0.5-0.1-0.7-0.3
		c-0.2-0.2-0.3-0.4-0.3-0.6l0.5,0c0,0.1,0.1,0.2,0.1,0.3s0.2,0.1,0.4,0.2l0-1.2c-0.3-0.1-0.6-0.2-0.7-0.3c-0.1-0.1-0.2-0.2-0.3-0.4
		c0-0.1,0-0.2,0-0.3c0-0.3,0.1-0.5,0.3-0.7c0.2-0.2,0.4-0.3,0.7-0.3V2.2l0.3,0v0.4c0.3,0,0.5,0.1,0.7,0.3c0.2,0.1,0.3,0.3,0.3,0.6
		l-0.5,0c0-0.1-0.1-0.2-0.1-0.3C78,3,77.9,3,77.7,3l0,1.2c0.4,0.1,0.7,0.2,0.8,0.3C78.7,4.6,78.7,4.8,78.7,5.1z M77,3.1
		c-0.1,0.1-0.2,0.2-0.2,0.4c0,0.2,0,0.3,0.1,0.4s0.2,0.1,0.4,0.2l0-1.1C77.3,3,77.1,3,77,3.1z M78.1,5.5c0.1-0.1,0.2-0.2,0.2-0.4
		c0-0.2,0-0.3-0.1-0.4c-0.1-0.1-0.2-0.1-0.4-0.2l0,1.1C77.9,5.6,78,5.6,78.1,5.5z"/>
	<path d="M84.6,2.6l0,3.4l-0.4,0l0-2.5L83,6h-0.3l-1.1-2.5l0,2.5l-0.4,0l0-3.4l0.5,0l1.3,2.8l1.3-2.8L84.6,2.6z"/>
	<path d="M85.4,2.6l0.4,0l0,3l1.2,0L87,6l-1.6,0L85.4,2.6z"/>
	<path d="M89.7,2.6l0.4,0l0,3.4l-0.4,0l-1.8-2.7l0,2.7l-0.4,0l0-3.4l0.4,0l1.8,2.7L89.7,2.6z"/>
</g>
<g class="st0">
	<path d="M70.1,15.7c-0.3,0-0.5,0.1-0.6,0.3c-0.1,0.2-0.2,0.6-0.2,1.1c0.1-0.2,0.2-0.3,0.4-0.4s0.4-0.1,0.6-0.1
		c0.3,0,0.6,0.1,0.8,0.3c0.2,0.2,0.3,0.5,0.3,0.9c0,0.4-0.1,0.6-0.3,0.9c-0.2,0.2-0.5,0.3-0.9,0.3c-0.6,0-1-0.3-1.1-0.8
		c-0.1-0.3-0.1-0.7-0.1-1.2s0.1-0.9,0.3-1.2c0.2-0.3,0.5-0.5,0.9-0.5c0.3,0,0.6,0.1,0.7,0.3c0.2,0.2,0.3,0.4,0.3,0.6l-0.4,0
		c0-0.2-0.1-0.3-0.2-0.4C70.4,15.7,70.3,15.7,70.1,15.7z M70.8,17.8c0-0.2-0.1-0.4-0.2-0.6c-0.1-0.1-0.3-0.2-0.5-0.2
		c-0.2,0-0.4,0.1-0.6,0.2c-0.2,0.1-0.2,0.3-0.2,0.6c0,0.3,0.1,0.5,0.2,0.6c0.1,0.2,0.3,0.2,0.6,0.2c0.3,0,0.4-0.1,0.6-0.2
		C70.8,18.2,70.8,18,70.8,17.8z"/>
	<path d="M72.3,15.7c0.1-0.1,0.2-0.2,0.4-0.2c0.1-0.1,0.3-0.1,0.5-0.1c0.2,0,0.4,0,0.6,0.1c0.2,0.1,0.3,0.2,0.4,0.4
		c0.2,0.3,0.2,0.7,0.2,1.3c0,0.7-0.1,1.2-0.4,1.4c-0.2,0.2-0.5,0.3-0.9,0.3c-0.7,0-1.1-0.4-1.2-1.2c0-0.2,0-0.4,0-0.6
		c0-0.2,0-0.4,0-0.6c0-0.2,0.1-0.3,0.1-0.5C72.1,16,72.2,15.8,72.3,15.7z M73.8,16.2c-0.1-0.1-0.1-0.2-0.2-0.3s-0.2-0.1-0.4-0.1
		c-0.2,0-0.3,0-0.4,0.1s-0.2,0.1-0.2,0.2s-0.1,0.2-0.1,0.3c0,0.1-0.1,0.3-0.1,0.4c0,0.1,0,0.3,0,0.4c0,0.2,0,0.3,0,0.4
		c0,0.1,0,0.2,0.1,0.4c0,0.1,0.1,0.2,0.1,0.3c0.1,0.1,0.1,0.1,0.2,0.2c0.1,0.1,0.2,0.1,0.4,0.1s0.3,0,0.4-0.1s0.2-0.1,0.2-0.2
		c0.1-0.1,0.1-0.2,0.1-0.3c0.1-0.2,0.1-0.4,0.1-0.7c0-0.3,0-0.5,0-0.6S73.8,16.4,73.8,16.2z"/>
	<path d="M78.7,18c0,0.2-0.1,0.5-0.3,0.6C78.3,18.9,78,19,77.7,19l0,0.4l-0.3,0l0-0.4c-0.3,0-0.5-0.1-0.7-0.3
		c-0.2-0.2-0.3-0.4-0.3-0.6l0.5,0c0,0.1,0.1,0.2,0.1,0.3s0.2,0.1,0.4,0.2l0-1.2c-0.3-0.1-0.6-0.2-0.7-0.3c-0.1-0.1-0.2-0.2-0.3-0.4
		c0-0.1,0-0.2,0-0.3c0-0.3,0.1-0.5,0.3-0.7c0.2-0.2,0.4-0.3,0.7-0.3v-0.4l0.3,0v0.4c0.3,0,0.5,0.1,0.7,0.3c0.2,0.1,0.3,0.3,0.3,0.6
		l-0.5,0c0-0.1-0.1-0.2-0.1-0.3C78,16,77.9,16,77.7,16l0,1.2c0.4,0.1,0.7,0.2,0.8,0.3C78.7,17.6,78.7,17.8,78.7,18z M77,16.1
		c-0.1,0.1-0.2,0.2-0.2,0.4c0,0.2,0,0.3,0.1,0.4s0.2,0.1,0.4,0.2l0-1.1C77.3,16,77.1,16,77,16.1z M78.1,18.4
		c0.1-0.1,0.2-0.2,0.2-0.4c0-0.2,0-0.3-0.1-0.4c-0.1-0.1-0.2-0.1-0.4-0.2l0,1.1C77.9,18.6,78,18.6,78.1,18.4z"/>
	<path d="M84.6,15.6l0,3.4l-0.4,0l0-2.5L83,19h-0.3l-1.1-2.5l0,2.5l-0.4,0l0-3.4l0.5,0l1.3,2.8l1.3-2.8L84.6,15.6z"/>
	<path d="M85.4,15.6l0.4,0l0,3l1.2,0l0,0.3l-1.6,0L85.4,15.6z"/>
	<path d="M89.7,15.6h0.4l0,3.4h-0.4l-1.8-2.7l0,2.7l-0.4,0l0-3.4l0.4,0l1.8,2.7L89.7,15.6z"/>
</g>
<g class="st0">
	<path d="M70.5,32l0-0.8l-1.8,0l0-0.3l1.7-2.4l0.6,0l0,2.3l0.5,0l0,0.4l-0.5,0l0,0.8L70.5,32z M70.5,30.8l0-1.9l-1.3,1.9L70.5,30.8z
		"/>
	<path d="M72.3,28.7c0.1-0.1,0.2-0.2,0.4-0.2c0.1-0.1,0.3-0.1,0.5-0.1c0.2,0,0.4,0,0.6,0.1c0.2,0.1,0.3,0.2,0.4,0.4
		c0.2,0.3,0.2,0.7,0.2,1.3c0,0.7-0.1,1.2-0.4,1.4c-0.2,0.2-0.5,0.3-0.9,0.3c-0.7,0-1.1-0.4-1.2-1.2c0-0.2,0-0.4,0-0.6
		c0-0.2,0-0.4,0-0.6c0-0.2,0.1-0.3,0.1-0.5C72.1,29,72.2,28.8,72.3,28.7z M73.8,29.2c-0.1-0.1-0.1-0.2-0.2-0.3s-0.2-0.1-0.4-0.1
		c-0.2,0-0.3,0-0.4,0.1c-0.1,0.1-0.2,0.1-0.2,0.2s-0.1,0.2-0.1,0.3c0,0.1-0.1,0.3-0.1,0.4c0,0.1,0,0.3,0,0.4c0,0.2,0,0.3,0,0.4
		c0,0.1,0,0.2,0.1,0.4s0.1,0.2,0.1,0.3c0.1,0.1,0.1,0.1,0.2,0.2c0.1,0.1,0.2,0.1,0.4,0.1s0.3,0,0.4-0.1s0.2-0.1,0.2-0.2
		c0.1-0.1,0.1-0.2,0.1-0.3c0.1-0.2,0.1-0.4,0.1-0.7c0-0.3,0-0.5,0-0.6S73.8,29.4,73.8,29.2z"/>
	<path d="M78.7,31c0,0.2-0.1,0.5-0.3,0.6C78.3,31.9,78,32,77.7,32l0,0.4l-0.3,0l0-0.4c-0.3,0-0.5-0.1-0.7-0.3
		c-0.2-0.2-0.3-0.4-0.3-0.6l0.5,0c0,0.1,0.1,0.2,0.1,0.3s0.2,0.1,0.4,0.2l0-1.2c-0.3-0.1-0.6-0.2-0.7-0.3c-0.1-0.1-0.2-0.2-0.3-0.4
		c0-0.1,0-0.2,0-0.3c0-0.3,0.1-0.5,0.3-0.7c0.2-0.2,0.4-0.3,0.7-0.3v-0.4l0.3,0v0.4c0.3,0,0.5,0.1,0.7,0.3c0.2,0.1,0.3,0.3,0.3,0.6
		l-0.5,0c0-0.1-0.1-0.2-0.1-0.3C78,29,77.9,29,77.7,28.9l0,1.2c0.4,0.1,0.7,0.2,0.8,0.3C78.7,30.6,78.7,30.8,78.7,31z M77,29.1
		c-0.1,0.1-0.2,0.2-0.2,0.4c0,0.2,0,0.3,0.1,0.4s0.2,0.1,0.4,0.2l0-1.1C77.3,28.9,77.1,29,77,29.1z M78.1,31.4
		c0.1-0.1,0.2-0.2,0.2-0.4c0-0.2,0-0.3-0.1-0.4c-0.1-0.1-0.2-0.1-0.4-0.2l0,1.1C77.9,31.6,78,31.5,78.1,31.4z"/>
	<path d="M84.6,28.6l0,3.4l-0.4,0l0-2.5L83,32h-0.3l-1.1-2.5l0,2.5l-0.4,0l0-3.4l0.5,0l1.3,2.8l1.3-2.8L84.6,28.6z"/>
	<path d="M85.4,28.6l0.4,0l0,3l1.2,0l0,0.3l-1.6,0L85.4,28.6z"/>
	<path d="M89.7,28.6l0.4,0l0,3.4l-0.4,0l-1.8-2.7l0,2.7l-0.4,0l0-3.4l0.4,0l1.8,2.7L89.7,28.6z"/>
</g>
<g class="st0">
	<path d="M69,44.9l0-0.3c0.1-0.1,0.2-0.2,0.4-0.3c0.2-0.1,0.3-0.3,0.4-0.3c0.1-0.1,0.2-0.2,0.3-0.3s0.2-0.2,0.3-0.3
		c0.1-0.1,0.1-0.2,0.2-0.3c0.1-0.2,0.2-0.4,0.2-0.6c0-0.2-0.1-0.4-0.2-0.5c-0.1-0.1-0.3-0.2-0.5-0.2c-0.2,0-0.4,0.1-0.5,0.2
		c-0.1,0.1-0.2,0.3-0.2,0.5l-0.4,0c0-0.4,0.1-0.6,0.3-0.8c0.2-0.2,0.5-0.3,0.8-0.3c0.3,0,0.6,0.1,0.8,0.3c0.2,0.2,0.3,0.4,0.3,0.8
		c0,0.4-0.2,0.8-0.6,1.2c-0.1,0.1-0.2,0.3-0.3,0.3c-0.2,0.2-0.4,0.4-0.7,0.6l1.7,0l0,0.4L69,44.9z"/>
	<path d="M72.3,41.7c0.1-0.1,0.2-0.2,0.4-0.2c0.1-0.1,0.3-0.1,0.5-0.1c0.2,0,0.4,0,0.6,0.1c0.2,0.1,0.3,0.2,0.4,0.4
		c0.2,0.3,0.2,0.7,0.2,1.3c0,0.7-0.1,1.2-0.4,1.4c-0.2,0.2-0.5,0.3-0.9,0.3c-0.7,0-1.1-0.4-1.2-1.2c0-0.2,0-0.4,0-0.6
		c0-0.2,0-0.4,0-0.6c0-0.2,0.1-0.3,0.1-0.5C72.1,42,72.2,41.8,72.3,41.7z M73.8,42.2c-0.1-0.1-0.1-0.2-0.2-0.3
		c-0.1-0.1-0.2-0.1-0.4-0.1c-0.2,0-0.3,0-0.4,0.1c-0.1,0.1-0.2,0.1-0.2,0.2s-0.1,0.2-0.1,0.3c0,0.1-0.1,0.3-0.1,0.4
		c0,0.1,0,0.3,0,0.4c0,0.2,0,0.3,0,0.4c0,0.1,0,0.2,0.1,0.4s0.1,0.2,0.1,0.3c0.1,0.1,0.1,0.1,0.2,0.2c0.1,0.1,0.2,0.1,0.4,0.1
		c0.1,0,0.3,0,0.4-0.1s0.2-0.1,0.2-0.2c0.1-0.1,0.1-0.2,0.1-0.3c0.1-0.2,0.1-0.4,0.1-0.7c0-0.3,0-0.5,0-0.6S73.8,42.4,73.8,42.2z"/>
	<path d="M78.7,44c0,0.2-0.1,0.5-0.3,0.6C78.3,44.9,78,45,77.7,45l0,0.4h-0.3l0-0.4c-0.3,0-0.5-0.1-0.7-0.3
		c-0.2-0.2-0.3-0.4-0.3-0.6l0.5,0c0,0.1,0.1,0.2,0.1,0.3c0.1,0.1,0.2,0.1,0.4,0.2l0-1.2c-0.3-0.1-0.6-0.2-0.7-0.3
		c-0.1-0.1-0.2-0.2-0.3-0.4c0-0.1,0-0.2,0-0.3c0-0.3,0.1-0.5,0.3-0.7c0.2-0.2,0.4-0.3,0.7-0.3v-0.4h0.3v0.4c0.3,0,0.5,0.1,0.7,0.3
		c0.2,0.1,0.3,0.3,0.3,0.6l-0.5,0c0-0.1-0.1-0.2-0.1-0.3s-0.2-0.1-0.3-0.2l0,1.2c0.4,0.1,0.7,0.2,0.8,0.3
		C78.7,43.6,78.7,43.8,78.7,44z M77,42.1c-0.1,0.1-0.2,0.2-0.2,0.4c0,0.2,0,0.3,0.1,0.4c0.1,0.1,0.2,0.1,0.4,0.2l0-1.1
		C77.3,41.9,77.1,42,77,42.1z M78.1,44.4c0.1-0.1,0.2-0.2,0.2-0.4c0-0.2,0-0.3-0.1-0.4c-0.1-0.1-0.2-0.1-0.4-0.2l0,1.1
		C77.9,44.6,78,44.5,78.1,44.4z"/>
	<path d="M84.6,41.6l0,3.4l-0.4,0l0-2.5L83,45l-0.3,0l-1.1-2.5l0,2.5l-0.4,0l0-3.4l0.5,0l1.3,2.8l1.3-2.8L84.6,41.6z"/>
	<path d="M85.4,41.6l0.4,0l0,3l1.2,0l0,0.3l-1.6,0L85.4,41.6z"/>
	<path d="M89.7,41.6l0.4,0l0,3.4l-0.4,0l-1.8-2.7l0,2.7l-0.4,0l0-3.4l0.4,0l1.8,2.7L89.7,41.6z"/>
</g>
</svg>
