<?xml version="1.0" encoding="utf-8"?>
<!-- Generator: Adobe Illustrator 21.0.0, SVG Export Plug-In . SVG Version: 6.00 Build 0)  -->
<svg version="1.1" id="Livello_1" xmlns="http://www.w3.org/2000/svg" xmlns:xlink="http://www.w3.org/1999/xlink" x="0px" y="0px"
	 width="1838.2px" height="1044.8px" viewBox="0 0 1838.2 1044.8" style="enable-background:new 0 0 1838.2 1044.8;"
	 xml:space="preserve">
<style type="text/css">
	.st0{fill:#93D1E2;stroke:#93D1E2;stroke-width:6;stroke-miterlimit:10;}
	.st1{display:none;}
	.st2{display:inline;fill:#007CA8;stroke:#007CA8;}
	.st3{fill:#FF8640;stroke:#FF8640;stroke-width:6;stroke-miterlimit:10;}
	.st4{fill:#69938C;stroke:#69938C;stroke-width:6;}
	.st5{fill:#69938C;stroke:#69938C;stroke-width:6;stroke-miterlimit:10;}
	.st6{fill:#FF8640;stroke:#FF8640;stroke-width:6;}
	.st7{fill:#E5C67A;stroke:#E5C67A;stroke-width:6;}
	.st8{fill:#E5C67A;stroke:#E5C67A;stroke-width:6;stroke-miterlimit:10;}
	.st9{fill:#93D1E2;stroke:#93D1E2;stroke-width:6;}
	.st10{fill:#007CA8;stroke:#007CA8;stroke-width:6;}
	.st11{fill:#007CA8;stroke:#007CA8;stroke-width:6;stroke-miterlimit:10;}
	.st12{enable-background:new    ;}
	.st13{font-family:'CrimsonText-Bold';}
	.st14{font-size:24px;}
</style>
<g id="Livello_1_1_">
	<circle class="st0" cx="624.3" cy="855.6" r="0.6"/>
	<circle class="st0" cx="604.9" cy="957.5" r="0.5"/>
	<circle class="st0" cx="561.6" cy="906" r="0.5"/>
</g>
<g id="_x30_" class="st1">
	<circle class="st2" cx="322.1" cy="131.8" r="0.7"/>
	<circle class="st2" cx="452.1" cy="93.6" r="1"/>
	<circle class="st2" cx="400" cy="139.6" r="1"/>
	<circle class="st2" cx="403.7" cy="155.4" r="1"/>
	<circle class="st2" cx="399.8" cy="177.2" r="1"/>
	<circle class="st2" cx="485.4" cy="127.8" r="1"/>
	<circle class="st2" cx="375.5" cy="132.6" r="1"/>
</g>
<g id="entertainment">
	<circle class="st3" cx="1320.2" cy="910.6" r="2.3"/>
</g>
<g id="corporations">
	<circle class="st4" cx="1706.8" cy="162.4" r="1"/>
	<circle class="st4" cx="1624.1" cy="228.6" r="1"/>
	<circle class="st4" cx="1757.8" cy="248.2" r="1"/>
	<circle class="st4" cx="1664.1" cy="192.2" r="0.8"/>
	<circle class="st4" cx="1672.1" cy="186.9" r="0.8"/>
	<circle class="st4" cx="1714" cy="140.6" r="1"/>
	<circle class="st4" cx="1772.5" cy="244.3" r="1"/>
	<circle class="st4" cx="1717.3" cy="254" r="1"/>
	<circle class="st4" cx="1684.7" cy="274.7" r="1"/>
	<circle class="st4" cx="1674.4" cy="294.1" r="1"/>
	<circle class="st4" cx="1598.3" cy="262.8" r="0.7"/>
	<circle class="st4" cx="1613.4" cy="227.7" r="1"/>
	<path class="st4" d="M1616.3,217.9c0.5-0.1,0.9,0.3,0.8,0.8c-0.1,0.3-0.3,0.5-0.5,0.5c-0.5,0.1-0.9-0.3-0.8-0.8
		C1615.8,218.1,1616,217.9,1616.3,217.9z"/>
	<circle class="st4" cx="1608.6" cy="219.3" r="1"/>
	<circle class="st5" cx="1742.3" cy="457.9" r="0.9"/>
	<circle class="st5" cx="1760.6" cy="560.3" r="0.6"/>
	<circle class="st5" cx="1581.9" cy="490.1" r="0.6"/>
	<circle class="st5" cx="1606.4" cy="528.8" r="2.4"/>
	<circle class="st5" cx="1690.3" cy="522.2" r="0.7"/>
	<circle class="st5" cx="1681.4" cy="522.9" r="0.7"/>
	<circle class="st5" cx="1685.6" cy="516.3" r="0.7"/>
	<circle class="st5" cx="1726.5" cy="555.8" r="0.8"/>
	<circle class="st5" cx="1694.8" cy="600" r="0.7"/>
	<circle class="st5" cx="1643.2" cy="907.6" r="0.7"/>
	<circle class="st5" cx="1715.8" cy="856.1" r="0.5"/>
	<circle class="st5" cx="1738.4" cy="882.3" r="0.9"/>
</g>
<g id="entertainement">
	<circle class="st6" cx="1357.7" cy="143.1" r="1"/>
	<circle class="st6" cx="1316.5" cy="275.3" r="1"/>
	<circle class="st6" cx="1259.7" cy="210.2" r="0.7"/>
	<circle class="st6" cx="1262.8" cy="215.3" r="0.8"/>
	<circle class="st6" cx="1316.9" cy="270" r="1"/>
	<circle class="st6" cx="1360.1" cy="250.5" r="1"/>
	<circle class="st6" cx="1256.6" cy="227" r="1"/>
	<circle class="st6" cx="1397.7" cy="242.9" r="0.8"/>
	<circle class="st6" cx="1393.4" cy="248" r="1"/>
	<circle class="st6" cx="1373.6" cy="271.5" r="1"/>
	<circle class="st3" cx="1394.5" cy="481.6" r="0.7"/>
	<path class="st3" d="M1379.6,534.3"/>
	<path class="st3" d="M1379.6,534.3"/>
	<circle class="st3" cx="1379.7" cy="534.3" r="0.9"/>
	<circle class="st3" cx="1269.5" cy="596.3" r="1"/>
	<circle class="st3" cx="1302.7" cy="624.3" r="0.7"/>
</g>
<g id="scientific">
	<circle class="st7" cx="996.9" cy="150.7" r="1"/>
	<circle class="st7" cx="898.9" cy="186.4" r="1"/>
	<circle class="st7" cx="976.7" cy="245.2" r="1"/>
	<circle class="st7" cx="1004.7" cy="248.2" r="1"/>
	<circle class="st7" cx="914.9" cy="263.8" r="1"/>
	<circle class="st7" cx="959.7" cy="267.8" r="1"/>
	<circle class="st7" cx="990.8" cy="145.1" r="1"/>
	<circle class="st7" cx="957.6" cy="168.1" r="1"/>
	<circle class="st7" cx="932.7" cy="254.6" r="1"/>
	<circle class="st7" cx="1068.5" cy="174.2" r="1"/>
	<circle class="st7" cx="1068.7" cy="181.4" r="1"/>
	<circle class="st7" cx="1055.6" cy="240.5" r="1"/>
	<circle class="st7" cx="1019.2" cy="282.4" r="1"/>
	<circle class="st7" cx="890.3" cy="203.7" r="1"/>
	<circle class="st7" cx="940.2" cy="273.1" r="1"/>
	<circle class="st7" cx="991.8" cy="270.7" r="0.7"/>
	<circle class="st7" cx="996.2" cy="267.2" r="1"/>
	<circle class="st7" cx="1012.2" cy="273.9" r="1"/>
	<circle class="st7" cx="972.7" cy="301.2" r="1"/>
	<circle class="st7" cx="972.9" cy="140.3" r="1"/>
	<circle class="st8" cx="897.2" cy="460" r="0.6"/>
	<circle class="st8" cx="937.1" cy="448.9" r="0.6"/>
	<circle class="st8" cx="942.3" cy="455.1" r="0.9"/>
	<circle class="st8" cx="1004.9" cy="472.6" r="0.7"/>
	<circle class="st8" cx="951.9" cy="535.9" r="0.8"/>
	<circle class="st8" cx="1075.6" cy="556.9" r="0.7"/>
	<circle class="st8" cx="1040.7" cy="557.3" r="0.6"/>
	<circle class="st8" cx="1004.5" cy="522.8" r="0.9"/>
	<circle class="st8" cx="1040.3" cy="535.5" r="0.6"/>
	<circle class="st8" cx="879.8" cy="576.5" r="0.7"/>
	<circle class="st8" cx="896.7" cy="590.7" r="0.7"/>
	<circle class="st8" cx="975.7" cy="609.4" r="0.7"/>
	<circle class="st8" cx="886.7" cy="622" r="0.8"/>
	<circle class="st8" cx="994.8" cy="625.8" r="0.8"/>
	<circle class="st8" cx="1022.5" cy="628.1" r="0.7"/>
	<circle class="st8" cx="906.5" cy="638.9" r="0.7"/>
	<circle class="st8" cx="980.4" cy="898.9" r="0.5"/>
	<circle class="st8" cx="1009" cy="836.6" r="0.5"/>
	<circle class="st8" cx="990.3" cy="918.4" r="0.8"/>
	<circle class="st8" cx="972.1" cy="957" r="0.6"/>
	<circle class="st8" cx="896.7" cy="933.3" r="0.9"/>
</g>
<g id="politica-interna">
	<circle class="st9" cx="587.8" cy="140.2" r="1"/>
	<circle class="st9" cx="599.4" cy="148.5" r="1"/>
	<circle class="st9" cx="646.7" cy="138.5" r="1"/>
	<circle class="st9" cx="633.1" cy="125.7" r="1"/>
	<circle class="st9" cx="645.2" cy="165" r="1"/>
	<circle class="st9" cx="552.4" cy="208.8" r="1"/>
	<circle class="st9" cx="573.2" cy="222.2" r="0.7"/>
	<circle class="st9" cx="561.5" cy="257.1" r="1"/>
	<circle class="st9" cx="632.6" cy="249.1" r="0.8"/>
	<circle class="st9" cx="695.1" cy="265.1" r="1"/>
	<circle class="st9" cx="668.7" cy="274.1" r="1"/>
	<circle class="st9" cx="621.2" cy="170.4" r="1"/>
	<circle class="st9" cx="697.9" cy="220.2" r="1"/>
	<circle class="st9" cx="707.5" cy="205.3" r="1"/>
	<circle class="st9" cx="698.6" cy="226.3" r="0.7"/>
	<circle class="st9" cx="582.9" cy="211.1" r="1"/>
	<circle class="st9" cx="645.1" cy="213.2" r="1"/>
	<circle class="st9" cx="614.3" cy="223.8" r="1"/>
	<circle class="st9" cx="615.3" cy="206.3" r="0.9"/>
	<circle class="st9" cx="627.5" cy="210.6" r="1"/>
	<circle class="st9" cx="651.9" cy="209.3" r="1"/>
	<circle class="st9" cx="575.7" cy="172.4" r="1"/>
	<circle class="st9" cx="588.5" cy="157.4" r="1"/>
	<circle class="st9" cx="575" cy="145.1" r="1"/>
	<circle class="st9" cx="619.7" cy="154.1" r="1"/>
	<circle class="st9" cx="610" cy="165" r="1"/>
	<circle class="st9" cx="595.4" cy="172.4" r="1"/>
	<circle class="st9" cx="626.3" cy="179.4" r="1.7"/>
	<circle class="st9" cx="689" cy="175.9" r="1"/>
	<circle class="st9" cx="570.9" cy="282.5" r="0.7"/>
	<circle class="st9" cx="705.6" cy="167.5" r="1"/>
	<circle class="st9" cx="684.3" cy="248.3" r="1"/>
	<circle class="st9" cx="652.4" cy="266.1" r="1"/>
	<circle class="st9" cx="632.2" cy="230.8" r="3.3"/>
	<circle class="st9" cx="646" cy="241.4" r="0.7"/>
	<circle class="st9" cx="659.9" cy="269.6" r="1"/>
	<circle class="st9" cx="529.2" cy="189.8" r="1.4"/>
	<circle class="st9" cx="521.4" cy="199.4" r="1"/>
	<circle class="st9" cx="635.1" cy="286.6" r="1"/>
	<circle class="st9" cx="707.1" cy="269.6" r="1"/>
	<circle class="st9" cx="686.4" cy="285.8" r="1"/>
	<circle class="st9" cx="691.4" cy="290.9" r="1"/>
	<circle class="st9" cx="668.2" cy="298.4" r="1"/>
	<circle class="st9" cx="604.1" cy="297.9" r="0.9"/>
	<circle class="st9" cx="626.6" cy="296.5" r="1"/>
</g>
<g id="american">
	<circle class="st0" cx="713.7" cy="499.1" r="1.1"/>
	<circle class="st0" cx="681.3" cy="570.5" r="0.6"/>
	<circle class="st0" cx="560.7" cy="448.2" r="0.9"/>
	<circle class="st0" cx="581.5" cy="464.6" r="0.7"/>
	<circle class="st0" cx="562.4" cy="471.4" r="0.6"/>
	<circle class="st0" cx="531.7" cy="532.8" r="0.6"/>
	<circle class="st0" cx="514.4" cy="504" r="0.7"/>
	<circle class="st0" cx="722.5" cy="566.5" r="0.6"/>
	<circle class="st0" cx="665.3" cy="452" r="0.8"/>
	<circle class="st0" cx="605.8" cy="494.6" r="0.6"/>
	<circle class="st0" cx="625.5" cy="484.2" r="0.6"/>
	<circle class="st0" cx="620" cy="465.1" r="0.7"/>
	<circle class="st0" cx="634.3" cy="457" r="0.7"/>
	<circle class="st0" cx="554.4" cy="521.7" r="0.7"/>
	<circle class="st0" cx="559.1" cy="517.9" r="0.8"/>
	<circle class="st0" cx="566.8" cy="514.6" r="1.5"/>
	<circle class="st0" cx="624.8" cy="575.5" r="0.9"/>
	<circle class="st0" cx="661.9" cy="532.2" r="0.9"/>
	<circle class="st0" cx="662.6" cy="561.6" r="2"/>
	<circle class="st0" cx="707.3" cy="503.1" r="1.3"/>
	<circle class="st0" cx="714" cy="507.5" r="1.1"/>
	<circle class="st0" cx="683.8" cy="529.2" r="1.3"/>
	<circle class="st0" cx="716.7" cy="531.9" r="0.6"/>
	<circle class="st0" cx="687" cy="546.1" r="4.5"/>
	<circle class="st0" cx="681.3" cy="575.9" r="0.6"/>
	<circle class="st0" cx="540" cy="547.3" r="0.6"/>
	<circle class="st0" cx="542.5" cy="584.5" r="0.6"/>
	<circle class="st0" cx="622.3" cy="613.4" r="0.6"/>
	<circle class="st0" cx="674" cy="606.1" r="0.6"/>
	<circle class="st0" cx="522.2" cy="570.2" r="1"/>
	<circle class="st0" cx="580.2" cy="620.6" r="0.8"/>
	<circle class="st0" cx="629.5" cy="626.6" r="0.8"/>
	<circle class="st0" cx="625.2" cy="644.2" r="0.7"/>
	<circle class="st0" cx="646.2" cy="641.9" r="0.7"/>
	<circle class="st0" cx="671.6" cy="848.9" r="0.7"/>
	<circle class="st0" cx="634" cy="905" r="0.5"/>
	<circle class="st0" cx="636" cy="908" r="0.5"/>
	<circle class="st0" cx="624.9" cy="895.3" r="0.5"/>
	<circle class="st0" cx="598.9" cy="898.5" r="1"/>
	<circle class="st0" cx="576.8" cy="961.5" r="0.7"/>
	<circle class="st0" cx="512.3" cy="943.5" r="0.8"/>
	<circle class="st0" cx="560.8" cy="818.8" r="0.6"/>
	<circle class="st0" cx="645.5" cy="824.8" r="0.7"/>
	<circle class="st0" cx="601.3" cy="842.9" r="0.6"/>
	<circle class="st0" cx="588" cy="877.2" r="0.7"/>
	<circle class="st0" cx="593" cy="872.6" r="1.1"/>
	<circle class="st0" cx="592.2" cy="868.1" r="0.5"/>
	<circle class="st0" cx="527.3" cy="810.4" r="0.5"/>
	<circle class="st0" cx="624.3" cy="883.2" r="1"/>
	<circle class="st0" cx="634.9" cy="873.7" r="1"/>
	<circle class="st0" cx="620.5" cy="862.5" r="1"/>
	<circle class="st0" cx="616.4" cy="842.9" r="4.1"/>
	<circle class="st0" cx="655.8" cy="935.3" r="0.8"/>
	<circle class="st0" cx="592.3" cy="886.1" r="3"/>
	<circle class="st0" cx="698.6" cy="888.7" r="0.5"/>
	<circle class="st0" cx="698.6" cy="876" r="0.5"/>
</g>
<g id="international">
	<circle class="st10" cx="211.4" cy="135.3" r="1"/>
	<circle class="st10" cx="288.1" cy="182.5" r="1"/>
	<circle class="st10" cx="270.1" cy="162.9" r="1"/>
	<circle class="st10" cx="193.3" cy="181.4" r="1"/>
	<circle class="st10" cx="189.7" cy="170.3" r="0.7"/>
	<circle class="st10" cx="196.7" cy="175.6" r="1"/>
	<circle class="st10" cx="169.3" cy="173.5" r="0.7"/>
	<circle class="st10" cx="171.3" cy="178.4" r="1"/>
	<circle class="st10" cx="174.3" cy="218.6" r="1"/>
	<circle class="st10" cx="185.8" cy="233.7" r="1"/>
	<circle class="st10" cx="164.1" cy="233.5" r="1"/>
	<circle class="st10" cx="192.3" cy="244.8" r="1"/>
	<circle class="st10" cx="219.5" cy="221.1" r="1"/>
	<circle class="st10" cx="235.3" cy="236.6" r="1"/>
	<circle class="st10" cx="223.1" cy="229.9" r="1"/>
	<circle class="st10" cx="219.3" cy="241" r="1"/>
	<circle class="st10" cx="226.3" cy="236.8" r="1.6"/>
	<circle class="st10" cx="211.1" cy="253.5" r="1"/>
	<circle class="st10" cx="308" cy="207.1" r="1"/>
	<circle class="st10" cx="325" cy="217" r="1"/>
	<circle class="st10" cx="160.4" cy="267.6" r="1"/>
	<circle class="st10" cx="266.3" cy="156.4" r="1"/>
	<circle class="st10" cx="269.1" cy="150.8" r="1"/>
	<circle class="st10" cx="319.8" cy="203.7" r="0.7"/>
	<circle class="st10" cx="291.3" cy="201.6" r="0.7"/>
	<circle class="st10" cx="264.3" cy="237.7" r="1"/>
	<circle class="st10" cx="280.9" cy="227.7" r="1"/>
	<circle class="st10" cx="278.6" cy="176" r="0.7"/>
	<circle class="st10" cx="260.6" cy="186.2" r="0.7"/>
	<circle class="st10" cx="224.5" cy="213.6" r="0.7"/>
	<circle class="st10" cx="225.4" cy="186.9" r="0.9"/>
	<circle class="st10" cx="194.4" cy="154.6" r="1"/>
	<circle class="st10" cx="183.9" cy="144.2" r="1"/>
	<circle class="st10" cx="278.7" cy="139.6" r="1"/>
	<circle class="st10" cx="246.6" cy="177.6" r="2.8"/>
	<circle class="st10" cx="234.5" cy="194.1" r="4"/>
	<circle class="st10" cx="181.4" cy="229.2" r="1"/>
	<circle class="st10" cx="169.6" cy="245" r="1"/>
	<circle class="st10" cx="189.8" cy="249.8" r="1"/>
	<circle class="st10" cx="196" cy="257.7" r="1"/>
	<circle class="st10" cx="172.8" cy="258.6" r="1"/>
	<circle class="st10" cx="183.6" cy="268.6" r="1"/>
	<circle class="st10" cx="334.7" cy="222" r="1"/>
	<circle class="st10" cx="279.9" cy="247.9" r="1"/>
	<circle class="st10" cx="200.9" cy="253.5" r="0.7"/>
	<circle class="st10" cx="205.5" cy="207.7" r="1"/>
	<circle class="st10" cx="241.9" cy="210.1" r="3.1"/>
	<circle class="st10" cx="255.8" cy="217" r="2.1"/>
	<circle class="st10" cx="280.6" cy="261.3" r="1"/>
	<circle class="st10" cx="240.6" cy="262.8" r="1"/>
	<circle class="st10" cx="155.3" cy="176.6" r="1"/>
	<circle class="st10" cx="137.7" cy="196.3" r="1"/>
	<circle class="st10" cx="237.4" cy="282.6" r="1"/>
	<circle class="st10" cx="312" cy="271.2" r="1"/>
	<circle class="st10" cx="258.4" cy="285.9" r="1"/>
	<circle class="st10" cx="241.6" cy="295.9" r="1"/>
	<circle class="st10" cx="267.9" cy="295.9" r="1"/>
	<circle class="st10" cx="145.1" cy="211.1" r="1"/>
	<circle class="st10" cx="192.3" cy="278.3" r="1"/>
	<circle class="st11" cx="226.3" cy="547.5" r="0.7"/>
	<circle class="st11" cx="234" cy="444.2" r="0.7"/>
	<circle class="st11" cx="218.9" cy="533.1" r="0.8"/>
	<circle class="st11" cx="210.6" cy="477.3" r="0.6"/>
	<circle class="st11" cx="180.7" cy="455.8" r="0.7"/>
	<circle class="st11" cx="186.9" cy="581.8" r="0.6"/>
	<circle class="st11" cx="214.2" cy="514.9" r="0.7"/>
	<circle class="st11" cx="126.9" cy="465.4" r="0.8"/>
	<circle class="st11" cx="158.2" cy="476.1" r="0.6"/>
	<circle class="st11" cx="303.3" cy="565.7" r="0.6"/>
	<circle class="st11" cx="202.3" cy="525.5" r="0.8"/>
	<circle class="st11" cx="207.8" cy="529.8" r="0.9"/>
	<circle class="st11" cx="159.1" cy="507.3" r="0.8"/>
	<circle class="st11" cx="168" cy="512" r="1.2"/>
	<circle class="st11" cx="236.1" cy="477.4" r="0.6"/>
	<circle class="st11" cx="257.6" cy="465.3" r="0.6"/>
	<path class="st10" d="M196.5,540.7"/>
	<path class="st10" d="M196.5,540.7"/>
	<path class="st10" d="M196.5,540.7"/>
	<path class="st10" d="M196.5,540.7"/>
	<circle class="st11" cx="196.6" cy="540.7" r="1.2"/>
	<circle class="st11" cx="198.8" cy="545.8" r="0.7"/>
	<circle class="st11" cx="219.2" cy="550.8" r="3.6"/>
	<circle class="st11" cx="202" cy="568.2" r="1.2"/>
	<path class="st10" d="M215.3,527.7"/>
	<path class="st10" d="M215.3,527.7"/>
	<path class="st10" d="M215.3,527.7"/>
	<path class="st10" d="M215.3,527.7"/>
	<path class="st10" d="M215.3,527.7"/>
	<path class="st10" d="M215.3,527.7"/>
	<path class="st10" d="M215.3,527.7"/>
	<path class="st10" d="M215.3,527.7"/>
	<path class="st10" d="M215.3,527.7"/>
	<path class="st10" d="M215.3,527.7"/>
	<path class="st10" d="M215.3,527.7"/>
	<path class="st10" d="M215.3,527.7"/>
	<circle class="st11" cx="215.4" cy="527.7" r="1.5"/>
	<circle class="st11" cx="319.3" cy="473" r="0.9"/>
	<circle class="st11" cx="321.8" cy="480.9" r="0.9"/>
	<circle class="st11" cx="225.2" cy="556.3" r="0.7"/>
	<circle class="st11" cx="222.8" cy="563.2" r="1.6"/>
	<circle class="st11" cx="216.4" cy="568.2" r="1.3"/>
	<circle class="st11" cx="208.1" cy="557.9" r="1.2"/>
	<circle class="st11" cx="170.7" cy="562.8" r="0.6"/>
	<circle class="st11" cx="140.1" cy="559.8" r="0.6"/>
	<circle class="st11" cx="156.9" cy="572" r="0.6"/>
	<circle class="st11" cx="296.5" cy="596.8" r="0.7"/>
	<circle class="st11" cx="264" cy="596.3" r="0.7"/>
	<circle class="st11" cx="202.4" cy="597.6" r="0.6"/>
	<circle class="st11" cx="198.5" cy="613.3" r="0.7"/>
	<circle class="st11" cx="297.1" cy="617" r="0.6"/>
	<circle class="st11" cx="312.4" cy="600.5" r="0.7"/>
	<circle class="st11" cx="325.1" cy="577.5" r="0.9"/>
	<circle class="st11" cx="133.4" cy="601.8" r="0.8"/>
	<circle class="st11" cx="196.4" cy="645.6" r="0.8"/>
	<circle class="st11" cx="166.7" cy="846.5" r="0.6"/>
	<circle class="st11" cx="310.2" cy="830.1" r="0.5"/>
	<circle class="st11" cx="223.8" cy="877.2" r="1.5"/>
	<circle class="st11" cx="184.9" cy="882.2" r="0.5"/>
	<circle class="st11" cx="201.3" cy="859" r="0.6"/>
	<circle class="st11" cx="175.6" cy="839.1" r="0.7"/>
	<circle class="st11" cx="150.6" cy="848.9" r="1"/>
	<circle class="st11" cx="147.5" cy="858.9" r="0.8"/>
	<circle class="st11" cx="234.9" cy="896.9" r="1.5"/>
	<circle class="st11" cx="295.3" cy="916.2" r="0.7"/>
	<circle class="st11" cx="119.2" cy="906.3" r="0.5"/>
	<circle class="st11" cx="123.5" cy="897" r="0.5"/>
	<circle class="st11" cx="163.7" cy="882.8" r="1.1"/>
	<circle class="st11" cx="193" cy="889.8" r="0.5"/>
	<circle class="st11" cx="197.4" cy="871.4" r="4.1"/>
</g>
<text transform="matrix(1 0 0 1 167.2985 47.8885)" class="st12"><tspan x="0" y="0" class="st13 st14">International</tspan><tspan x="32.2" y="28.8" class="st13 st14">politics</tspan></text>
<text transform="matrix(1 0 0 1 595.6169 47.8885)" class="st12"><tspan x="0" y="0" class="st13 st14">American</tspan><tspan x="13.3" y="28.8" class="st13 st14">politics</tspan></text>
<text transform="matrix(1 0 0 1 957.5923 58.8885)" class="st13 st14">Scientific</text>
<text transform="matrix(1 0 0 1 1251.8335 58.8885)" class="st13 st14">Entertainement</text>
<text transform="matrix(1 0 0 1 1659.228 58.8885)" class="st13 st14">Corporate</text>
<text transform="matrix(1 0 0 1 -0.6392 216.12)" class="st13 st14">2014</text>
<text transform="matrix(1 0 0 1 -0.1236 550.5299)" class="st13 st14">2015</text>
<text transform="matrix(1 0 0 1 -0.2642 877.9103)" class="st13 st14">2016</text>
</svg>
