<?xml version="1.0" encoding="utf-8"?>
<!-- Generator: Adobe Illustrator 16.0.0, SVG Export Plug-In . SVG Version: 6.00 Build 0)  -->
<!DOCTYPE svg PUBLIC "-//W3C//DTD SVG 1.1//EN" "http://www.w3.org/Graphics/SVG/1.1/DTD/svg11.dtd">
<svg version="1.1" xmlns="http://www.w3.org/2000/svg" xmlns:xlink="http://www.w3.org/1999/xlink" x="0px" y="0px" width="740px"
	 height="434px" viewBox="261.596 142 740 434" enable-background="new 261.596 142 740 434" xml:space="preserve">
<pattern  x="-1.5" y="730" width="25.406" height="152.589" patternUnits="userSpaceOnUse" id="New_Pattern_Swatch_1" viewBox="0 -152.589 25.406 152.589" overflow="visible">
	<g>
		<polygon fill="none" points="0,0 25.406,0 25.406,-152.589 0,-152.589 		"/>
		<polygon fill="#001798" points="0,-152.589 0,0 12.703,0 12.703,-152.589 		"/>
		<polygon fill="#810F7B" points="25.406,-152.589 12.703,-152.589 12.703,0 25.406,0 		"/>
	</g>
</pattern>
<g id="nulla">
</g>
<g id="not_guilty">
</g>
<g id="amministrativo">
</g>
<g id="penale">
	<path fill="#810F7B" fill-opacity="0.8" stroke="#505050" d="M701.89-46.831"/>
	<path opacity="0.7" fill="#C4C4C4" stroke="#898989" d="M1127.863,467.717"/>
	<circle opacity="0.7" fill="#7CE86F" cx="555.675" cy="358.684" r="128.516"/>
	<circle opacity="0.7" fill="#E5F229" cx="707.517" cy="358.684" r="128.517"/>
	<circle opacity="0.7" fill="#12DE97" cx="390.113" cy="362.344" r="128.516"/>
	<circle opacity="0.7" fill="#E32D76" cx="873.079" cy="362.344" r="128.517"/>
	<g>
		<rect x="261.596" y="185.6" fill="none" width="258.459" height="12.4"/>
		<text transform="matrix(1 0 0 1 261.5962 194.5996)" fill="#3B4259" font-family="'FiraSans-Regular'" font-size="12" letter-spacing="3" font-weight="700">ILLICIT DRUG MARKET RELATED ISSUES</text>
	</g>
	<rect x="288.641" y="348.336" fill="none" width="202.944" height="29.212"/>
	<text transform="matrix(1 0 0 1 329.2017 357.3359)"><tspan x="0" y="0" fill="#3B4259" font-family="'FiraSans-Regular'" font-size="12" letter-spacing="3">DRUG-RELATED </tspan><tspan x="-27.138" y="17" fill="#3B4259" font-family="'FiraSans-Regular'" font-size="12" letter-spacing="3">CRIME AND VIOLENCE</tspan></text>
	<rect x="803.146" y="348.336" fill="none" width="139.865" height="29.212"/>
	<text transform="matrix(1 0 0 1 819.4814 357.3359)"><tspan x="0" y="0" fill="#3B4259" font-family="'FiraSans-Regular'" font-size="12" letter-spacing="3">GOVERNMENT </tspan><tspan x="-1.194" y="17" fill="#3B4259" font-family="'FiraSans-Regular'" font-size="12" letter-spacing="3">EXPENDITURE</tspan></text>
	<rect x="448.228" y="340.24" fill="none" width="214.895" height="45.402"/>
	<text transform="matrix(1 0 0 1 531.0449 349.2402)"><tspan x="0" y="0" fill="#3B4259" font-family="'FiraSans-Regular'" font-size="12" letter-spacing="3">WIDER </tspan><tspan x="-13.8" y="17" fill="#3B4259" font-family="'FiraSans-Regular'" font-size="12" letter-spacing="3">CRIMINAL </tspan><tspan x="-11.148" y="34" fill="#3B4259" font-family="'FiraSans-Regular'" font-size="12" letter-spacing="3">ACTIVITY</tspan></text>
	<rect x="603.475" y="340.24" fill="none" width="208.083" height="45.402"/>
	<text transform="matrix(1 0 0 1 663.3457 349.2402)"><tspan x="0" y="0" fill="#3B4259" font-family="'FiraSans-Regular'" font-size="12" letter-spacing="3">IMPACT ON </tspan><tspan x="1.38" y="17" fill="#3B4259" font-family="'FiraSans-Regular'" font-size="12" letter-spacing="3">THE LEGAL </tspan><tspan x="6.324" y="34" fill="#3B4259" font-family="'FiraSans-Regular'" font-size="12" letter-spacing="3">ECONOMY</tspan></text>
</g>
<g id="bi">
</g>
<g id="glitch" display="none">
	<g display="inline" opacity="0.2">
		<path fill="#ECE4E5" d="M615.63,723.283c-209.814,0-379.886-170.068-379.886-379.875c0-209.808,170.072-379.88,379.886-379.88
			c209.799,0,379.885,170.073,379.885,379.88C995.515,553.215,825.429,723.283,615.63,723.283z"/>
		<path fill="#810F7B" fill-opacity="0.8" stroke="#505050" d="M733.64-54.734"/>
		<path fill="#C4C4C4" stroke="#898989" d="M741.657,497.945l-1.418,5.143l1.619,6.439l4.697,3.645l-0.242,3.928l-3.686,2.188
			l-0.688,4.818l-5.266,7.127l-1.943-1.012l-0.203-3.24l-6.316-4.98l-0.973-7.088l0.973-10.244l1.539-4.697l-1.904-2.391
			l-0.768-4.818l4.939-7.572l0.689,2.916l3.076-1.377l2.43,4.131l2.713,1.537L741.657,497.945z"/>
		<path fill="#C4C4C4" stroke="#898989" d="M774.538,293.08l10.975,0.162l12.311-7.289l2.633-11.016l9.312-6.357l-1.053-8.908
			l6.885-3.402l12.23-7.816l11.945,5.104l1.619,4.98l5.953-2.389l11.096,4.777l1.094,9.355l-2.43,5.346l7.127,12.756l4.617,3.521
			l-0.689,3.484l7.654,3.359l3.279,5.062l-4.414,4.131l-9.15-0.648l-2.188,1.783l2.672,6.234l2.795,11.864l-9.76,1.095l-3.482,4.051
			l-0.77,9.15l-4.494-1.74l-10.246,0.891l-2.996-4.252l-4.252,3.158l-4.252-2.631l-8.949-0.365l-12.676-4.373l-11.459-1.459
			l-8.789,0.406l-6.236,4.98l-5.426,0.688l-0.203-8.139l-3.521-8.586l6.803-3.807l0.08-7.49l-3.158-7.209L774.538,293.08z"/>
		<path fill="#C4C4C4" stroke="#898989" d="M743.642,494.949l-0.527,3.117l-1.457-0.121l-0.73-5.549l-2.713-1.537l-2.43-4.131
			l2.105-3.443l2.713-1.133l1.58-5.104l2.025-0.891l1.619,2.188l2.146,0.973l1.459,2.469l1.861,0.729l2.229,2.836l1.619-0.082
			l-1.297,3.768l-1.336,1.822l0.365,1.133l-2.551,0.566L743.642,494.949z"/>
		<path fill="#C4C4C4" stroke="#898989" d="M810.134,395.857l2.713-2.512l7.533-1.701l8.383,5.305l4.656,0.648l5.143,4.535
			l-0.811,5.711l4.131,2.713l1.621,6.965l3.967,4.211l-0.768,2.43l2.105,1.701l-2.998,1.174l-6.721-0.445l-1.094-2.307l-2.389,1.336
			l0.809,2.916l-3.117,5.223l-1.984,5.549l-2.836,1.781l-2.064-7.41l1.215-6.965l-0.365-7.25l-6.559-9.881l-3.605-7.086
			l-3.523-5.021L810.134,395.857z"/>
		<path fill="#C4C4C4" stroke="#898989" d="M732.708,488.105l-0.689-2.916l-4.939,7.572l0.768,4.818l-2.389-1.174l-3.158-4.98
			l-4.941-3.037l1.256-2.592l1.66-8.504l3.686-3.604l2.146-1.459l2.996,2.674l1.66,2.186l3.727,1.66l4.332,3.199l-0.932,1.336
			l-2.105,3.443L732.708,488.105z"/>
		<path fill="#C4C4C4" stroke="#898989" d="M741.657,497.945l1.457,0.121l0.527-3.117l6.682-2.391l2.551-0.566l3.887-0.891
			l5.225-0.242l5.709,4.898l0.811,10.004l-2.188,0.484l-1.861,2.633l-6.156-0.283l-4.332,3.279l-7.412,1.297l-4.697-3.645
			l-1.619-6.439L741.657,497.945z"/>
		<path fill="#C4C4C4" stroke="#898989" d="M723.677,451.174l4.131-0.041l-2.836,6.965l5.467,6.074l-1.66,7.371l-2.672,0.688
			l-2.146,1.459l-3.686,3.604l-1.66,8.504l-10.043-5.832l-4.291-6.52l-4.334-3.441l-5.225-5.873l-2.43-4.898l-5.588-7.412
			l2.389-6.641l4.092,3.686l2.43-3.32l5.305-0.365l9.758,2.674l7.857-0.244L723.677,451.174z"/>
		<path fill="#C4C4C4" stroke="#898989" d="M744.896,442.225l6.926,3.807l0.891,6.6l6.602,4.617l3.562-3.564l2.834,1.984
			l-2.631,2.674l2.064,2.752l-2.793,3.564l1.012,5.75l5.508,6.723l-4.334,4.818l-1.902,4.9l1.254,1.822l-1.902,2.188l-5.225,0.242
			l-3.887,0.891l-0.365-1.133l1.336-1.822l1.297-3.768l-1.619,0.082l-2.229-2.836l-1.861-0.729l-1.459-2.469l-2.146-0.973
			l-1.619-2.188l-2.025,0.891l-1.58,5.104l-2.713,1.133l0.932-1.336l-4.332-3.199l-3.727-1.66l-1.66-2.186l-2.996-2.674l2.672-0.688
			l1.66-7.371l-5.467-6.074l2.836-6.965l-4.131,0.041l4.373-6.035l-3.604-4.615l-2.754-6.277l8.707-4.252l7.086,0.688l6.156,6.398
			L744.896,442.225z"/>
		<path fill="#C4C4C4" stroke="#898989" d="M616.81,407.561l0.445,2.996l-1.742,4.09l5.145,2.996l5.791,0.445l-0.893,6.764
			l-4.98,2.793l-8.422-2.064l-2.471,6.602l-5.387,0.525l-1.984-2.592l-6.357,5.508l-5.467,0.77l-4.9-3.482l-3.887-7.168
			l-5.426,2.592l0.162-7.451l8.301-9.354l-0.365-4.254l5.184,1.58l3.119-2.875l9.637,0.121l2.35-3.645L616.81,407.561z"/>
		<path fill="#C4C4C4" stroke="#898989" d="M994.075,479.283"/>
		<path fill="#C4C4C4" stroke="#898989" d="M868.812,327.175l4.211,0.77l2.875-4.211l3.443,0.932l11.783-1.781l7.25,10.407
			l-2.836,3.727l0.932,5.629l9.07,0.85l4.051,7.816l-0.244,3.521l14.418,6.236l8.705-2.793l7.006,8.26l6.641-0.16l16.725,5.668
			l0.123,5.143l-4.576,9.031l2.469,9.436l-1.781,5.629l-10.975,1.256l-5.83,4.697l-0.365,7.41l-9.07,1.336l-7.572,5.346
			l-10.609,0.85l-9.801,6.156l-5.346,4.17l6.033,5.953l5.549,3.889l11.582-0.973l-2.229,5.75l-12.432,2.754l-15.428,9.193
			l-6.277-3.199l2.471-7.492l-12.393-4.697l2.025-3.119l12.797-6.6l-1.621-3.281l-1.822,1.662l-1.781-0.893l-17.656-4.129
			l-0.77-6.115l-10.527,2.023l-4.213,9.031l-8.787,11.947l-5.184-2.754l-5.305,2.592l-5.062-2.957l2.836-1.781l1.984-5.549
			l3.117-5.223l-0.809-2.916l2.389-1.297l1.094,2.268l6.721,0.445l2.998-1.174l-2.105-1.701l0.768-2.43l-3.967-4.211l-1.621-6.965
			l-4.131-2.713l0.811-5.711l-5.143-4.535l-4.656-0.648l-8.383-5.305l-7.533,1.701l-2.713,2.512l-4.777-0.041l-2.877,3.969
			l-8.381,1.619l-3.848,2.592l-5.305-4.09l-7.248-0.082l-7.047-1.861l-4.9,3.604l-0.811-4.535l-6.275-4.617l2.227-6.924l3.119-4.455
			l2.51,0.973l-2.955-7.775l10.326-14.619l5.629-2.064l1.215-5.021l-5.711-15.754l5.426-0.688l6.236-4.98l8.789-0.406l11.459,1.459
			l12.676,4.373l8.949,0.365l4.252,2.631l4.252-3.158l2.996,4.252l10.246-0.891l4.494,1.74l0.77-9.15l3.482-4.051L868.812,327.175z"
			/>
		<path fill="#C4C4C4" d="M615.999,659.049l-4.859-23.73l-6.967-5.387l-0.121-3.279l-9.273-8.02l-1.012-10.244l7.006-7.613
			l2.672-11.42l-1.822-13.283l2.309-7.248l12.393-5.709l7.936,1.699l-0.324,7.168l9.639-5.223l0.811,2.713l-5.711,6.924l-0.039,6.48
			l3.928,3.441l-1.498,11.986l-7.492,6.926l2.146,7.41l5.871,0.242l2.875,6.439l4.334,2.105l-0.648,10.326l-5.549,3.848
			l-3.482,4.252l-7.814,5.102l1.215,5.467l-0.973,5.588L615.999,659.049z"/>
		<g>
			<path fill="none" d="M996.272,336.75c-0.154-8.827-0.617-17.576-1.361-26.242l-0.303,69.367
				C995.956,365.707,996.526,351.318,996.272,336.75z"/>
			<path fill="none" d="M972.479,474.459l-9.596-2.674l-1.377,1.822l-14.457-13.242l-12.959-5.992l-9.801-9.395l8.262-2.592
				l9.436-13.566l-6.357-6.48l16.725-6.762l-0.283-3.645l-10.205,2.672l0.363-7.41l5.873-4.697l10.975-1.256l1.781-5.668
				l-2.512-9.436l4.617-9.031l-0.121-5.102l-16.725-5.711l-6.643,0.203l-7.004-8.262l-8.707,2.795l-14.416-6.236l0.242-3.523
				l-4.049-7.816l-9.072-0.891l-0.93-5.629l2.834-3.686l-7.248-10.448l-11.785,1.783l-3.441-0.932l-2.875,4.211l-4.252-0.729
				l-2.795-11.905l-2.672-6.236l2.186-1.781l9.152,0.648l4.414-4.131l-3.279-5.062l-7.654-3.361l0.689-3.482l-4.617-3.523
				l-7.127-12.756l2.43-5.305l-1.094-9.354l-11.096-4.779l-5.953,2.389l-1.619-5.021l-11.947-5.102l-3.645-12.107l-0.971-10.084
				l-5.467-4.819l4.859-6.722l-3.361-20.085l8.1-12.675l-1.701-3.887l12.918-12.433l-11.906-10.853l24.297-30.007l10.529-13.971
				l4.252-12.554l-16.807-17.251l4.658-16.806l-10.205-19.64l1.518-4.627c-65.322-49.222-146.955-77.81-235.07-76.266
				c-209.782,3.677-376.847,176.704-373.17,386.479C240.295,559.84,413.32,726.9,623.103,723.225
				c161.332-2.828,297.406-105.83,349.975-248.678L972.479,474.459z M765.954,285.102l-20.896,0.283l-13.971-2.227l2.592-8.625
				l15.672-6.398l11.906,3.482l5.021,3.117l-1.215,5.387L765.954,285.102z"/>
			<path fill="#C4C4C4" d="M853.546,64.119l-4.658,16.806l16.807,17.251l-4.252,12.554L850.913,124.7l-24.297,30.007l11.906,10.853
				l-12.918,12.433l1.701,3.887l-8.1,12.675l3.361,20.085l-4.859,6.722l5.467,4.819l0.971,10.084l3.645,12.107l11.947,5.102
				l1.619,5.021l5.953-2.389l11.096,4.779l1.094,9.354l-2.43,5.305l7.127,12.756l4.617,3.523l-0.689,3.482l7.654,3.361l3.279,5.062
				l-4.414,4.131l-9.152-0.648l-2.186,1.781l2.672,6.236l2.795,11.905l4.252,0.729l2.875-4.211l3.441,0.932l11.785-1.783
				l7.248,10.448l-2.834,3.686l0.93,5.629l9.072,0.891l4.049,7.816l-0.242,3.523l14.416,6.236l8.707-2.795l7.004,8.262l6.643-0.203
				l16.725,5.711l0.121,5.102l-4.617,9.031l2.512,9.436l-1.781,5.668l-10.975,1.256l-5.873,4.697l-0.363,7.41l10.205-2.672
				l0.283,3.645l-16.725,6.762l6.357,6.48l-9.436,13.566l-8.262,2.592l9.801,9.395l12.959,5.992l14.457,13.242l1.377-1.822
				l9.596,2.674l0.598,0.088c11.035-29.986,18.395-61.729,21.531-94.672l0.303-69.367
				c-9.518-110.773-66.412-207.632-150.053-270.656l-1.518,4.627L853.546,64.119z"/>
			<polygon fill="#C4C4C4" points="761.257,271.617 749.351,268.135 733.679,274.533 731.087,283.158 745.058,285.385 
				765.954,285.102 765.063,280.121 766.278,274.734 			"/>
		</g>
		<path fill="none" d="M396.878,648.588l4.334-11.42l1.539-7.047l7.289-9.07l11.379-6.195l8.422-5.629l7.573-14.215l3.604-8.543
			l8.342,0.08l6.844,5.912l10.812-0.971l11.744,3.037l4.939,0.16l10.893-7.572l12.311-2.43l7.168-5.791l10.934-4.252l19.236-2.51
			l18.789-1.174l5.711,2.105l10.689-5.549l12.148-0.121l4.617,3.279l7.734-0.85l-2.309,7.248l1.822,13.283l-2.672,11.42
			l-7.006,7.613l1.012,10.244l9.273,8.02l0.121,3.279l6.967,5.387l4.859,23.73l5.547-3.039l0.973-5.588l-1.215-5.467l7.814-5.102
			l3.482-4.252l5.549-3.848l0.648-10.326l13.322,4.656l4.779-1.174l9.475,2.268l15.064,5.953l5.305,11.824l10.205,2.592
			l15.996,5.508l12.107,6.52l5.549-3.402l5.426-6.033l-2.633-10.164l3.564-6.479l8.18-6.277l7.816-1.822l15.348,2.754l3.887,5.992
			l4.211,0.041l3.605,2.268l11.297,1.58l2.754,4.373l15.105-0.203l10.934,3.482l11.258,3.93l5.07,1.949
			c96.316-68.906,159.092-181.695,159.092-309.154c0-209.808-170.086-379.88-379.885-379.88
			c-209.815,0-379.887,170.073-379.887,379.88c0,128.832,64.131,242.674,162.209,311.363L396.878,648.588z"/>
		<path fill="#C4C4C4" d="M820.095,646.684l-10.934-3.482l-15.105,0.203l-4.09,6.357l1.742,5.629l-2.916,8.1l3.4,10.447v5.906
			c15.398-8.098,30.172-17.223,44.23-27.281l-5.07-1.949L820.095,646.684z"/>
		<path fill="#C4C4C4" d="M788.792,663.49l2.916-8.1l-1.742-5.629l4.09-6.357l-2.754-4.373l-11.297-1.58l-3.605-2.268l-4.211-0.041
			l-3.887-5.992l-15.348-2.754l-7.816,1.822l-8.18,6.277l-3.564,6.479l2.633,10.164l-5.426,6.033l-5.549,3.402l-12.107-6.52
			l-15.996-5.508l-10.205-2.592l-5.305-11.824l-15.064-5.953l-9.475-2.268l-4.779,1.174l-13.322-4.656l-0.648,10.326l-5.549,3.848
			l-3.482,4.252l-7.814,5.102l1.215,5.467l-0.973,5.588l-5.547,3.039l3.684,11.5l0.607,5.992l-1.984,10.488l0.811,5.832
			l-1.457,6.965l1.012,7.979l-4.535,5.223l6.723,9.152l0.006,0.066c61.793-0.836,120.023-16.424,171.328-43.402v-5.906
			L788.792,663.49z"/>
		<path fill="#C4C4C4" d="M439.521,666.539l9.273-3.482l4.373-6.561l13.283-5.223l0.484-9.76l6.561-1.174l5.143-4.9l14.863-2.268
			l2.064-5.184l-2.996-2.875l-3.928-14.295l-0.648-8.303l-4.293-8.828l-4.939-0.16l-11.744-3.037l-10.812,0.971l-6.844-5.912
			l-8.342-0.08l-3.604,8.543l-7.573,14.215l-8.422,5.629l-11.379,6.195l-7.289,9.07l-1.539,7.047l-4.334,11.42l1.074,6.184
			c8.502,5.955,17.259,11.568,26.251,16.824l3.978-2.072L439.521,666.539z"/>
		<path fill="#C4C4C4" d="M614.136,713.027l4.535-5.223l-1.012-7.979l1.457-6.965l-0.811-5.832l1.984-10.488l-0.607-5.992
			l-3.684-11.5l-4.859-23.73l-6.967-5.387l-0.121-3.279l-9.273-8.02l-1.012-10.244l7.006-7.613l2.672-11.42l-1.822-13.283
			l2.309-7.248l-7.734,0.85l-4.617-3.279l-12.148,0.121l-10.689,5.549l-5.711-2.105l-18.789,1.174l-19.236,2.51l-10.934,4.252
			l-7.168,5.791l-12.311,2.43l-10.893,7.572l4.293,8.828l0.648,8.303l3.928,14.295l2.996,2.875l-2.064,5.184l-14.863,2.268
			l-5.143,4.9l-6.561,1.174l-0.484,9.76l-13.283,5.223l-4.373,6.561l-9.273,3.482l-11.34,1.984l-3.978,2.072
			c56.21,32.854,121.616,51.688,191.427,51.688c1.746,0,3.492-0.014,5.234-0.037l-0.006-0.066L614.136,713.027z"/>
		<g>
			<path fill="#48FFD9" stroke="#666666" d="M765.144,461.094l3.281,6.48l4.373-1.176l8.746,2.471l16.684,0.811l5.629-4.01
				l13.365-3.645l8.26,5.711l6.682,1.66l-5.912,6.438l-4.131,11.057l3.645,8.746l-9.758-2.064l-11.582,4.777l-0.121,7.533
				l-10.328,1.416l-7.977-5.264l-9.111,4.172l-8.383-0.445l-0.811-10.004l-5.709-4.898l1.902-2.188l-1.254-1.822l1.902-4.9
				l4.334-4.818l-5.508-6.723l-1.012-5.75L765.144,461.094z"/>
			<path fill="#48FFD9" stroke="#666666" d="M664.634,424.447l9.396,1.254l5.75-3.725l9.92-0.406l2.146-2.793l1.904,0.201
				l2.227,5.549l-9.031,4.373l-1.133,6.561l-3.928,1.66l0.041,4.535l-4.455-0.324l-3.848-2.631l-2.105,2.754l-7.896-0.568
				l2.512-1.457l-2.715-6.926L664.634,424.447z"/>
			<path fill="#48FFD9" stroke="#666666" d="M684.112,551.48l-4.09,11.258l1.701,4.414l-2.389,7.248l-8.666-5.305l-5.791-1.539
				l-15.834-7.248l1.578-7.371l13.283,1.297l11.582-1.58L684.112,551.48z M612.476,507.664l6.805,10.609l-1.58,19.479l-5.143-0.932
				l-4.617,4.859l-4.293-3.846l-0.445-17.738l-2.592-8.504l6.236,0.77L612.476,507.664z M648.396,420.193l16.238,4.252l-1.215,8.059
				l2.715,6.926l-9.031-2.35l-9.232,5.752l0.646,7.977l-1.375,4.535l3.725,8.059l10.65,7.896l5.709,12.838l12.635,12.352l8.91-0.082
				l2.754,3.361l-3.199,2.996l10.164,5.467l8.342,4.535l9.719,7.775l1.174,2.754l-2.105,5.305l-6.316-6.883l-9.881-2.432
				l-4.779,9.559l8.221,5.426l-1.336,7.613l-4.738,0.85l-6.074,12.393l-4.738,1.092l0.041-4.373l2.309-7.734l2.469-3.117
				l-4.414-8.465l-3.482-7.41l-4.697-1.863l-3.361-6.396l-7.289-2.715l-4.898-6.033l-8.383-0.973l-8.869-6.803l-10.367-9.922
				l-7.734-8.867l-3.523-15.389l-5.668-1.822l-9.234-5.225l-5.223,2.146l-6.561,7.289l-4.738,1.135l1.297-6.803l-6.156-1.984
				l-2.916-12.311l3.928-4.9l-3.359-6.074l0.484-4.576l4.9,3.482l5.467-0.77l6.357-5.508l1.984,2.592l5.428-0.525l2.469-6.602
				l8.383,2.066l5.021-2.754l0.891-6.764l6.885,2.35l1.336-3.158l11.217-2.877L648.396,420.193z"/>
			<path fill="#48FFD9" stroke="#666666" d="M700.675,397.477l-0.85,6.924l-6.398,0.041l2.188,3.604l-3.768,10.732l-2.146,2.793
				l-9.92,0.406l-5.75,3.725l-9.396-1.254l-16.238-4.254l-2.51-5.789l-11.219,2.914l-1.336,3.119l-6.883-2.35l-5.791-0.445
				l-5.145-2.996l1.742-4.09l-0.445-2.996l3.441-0.893l5.752,4.617l1.619-4.414l10.002,0.729l8.139-2.996l5.428,0.486l3.523,3.441
				l1.092-2.834l-1.619-11.016l4.09-2.186l3.969-7.896l8.463,5.547l6.359-7.047l4.008-1.295l8.828,5.264l5.305-0.891l5.266,3.24
				l-0.932,2.188L700.675,397.477z"/>
			<path fill="#48FFD9" stroke="#666666" d="M700.474,389.418l-5.266-3.24l-5.305,0.891l-8.828-5.264l-4.008,1.295l-6.359,7.047
				l-8.463-5.547l-6.398-7.412l-5.791-4.211l-1.215-7.369l-1.984-5.266l8.262-3.846l4.211-4.455l8.141-3.482l2.875-3.402
				l2.996,2.066l5.062-1.904l5.385,5.791l8.465,1.58l-0.689,4.898l6.156,3.645l1.699-4.576l7.775,1.984l1.094,5.549l8.424,1.053
				l5.223,8.625l-3.359,0.041l-1.783,3.117l-2.592,0.77l-0.729,3.93l-2.188,0.85l-0.322,1.58l-3.848,1.781l-5.062-0.283
				L700.474,389.418z"/>
			<path fill="#48FFD9" stroke="#666666" d="M721.935,373.867l0.648,1.053l4.697-2.348l5.711,6.154l6.721-3.725l5.346,1.781
				l8.18-2.43l10.773,6.641l-3.119,4.496l-2.227,6.924l-2.43,1.742l-12.148-5.184l-3.727,1.012l-2.672,4.051l-5.346,2.105
				l-1.215-1.094l-5.508,2.633l-4.535,0.525l-0.891,3.402l-9.557,2.064l-4.172-1.863l-5.791-4.332l-1.133-5.871l0.932-2.188
				l1.578-3.766l5.062,0.283l3.848-1.781l0.322-1.58l2.188-0.85l0.729-3.93l2.592-0.77l1.783-3.117L721.935,373.867z"/>
			<path fill="#48FFD9" stroke="#666666" d="M545.538,341.025l8.301,1.418l10.529-3.766l7.168,7.896l6.275,4.211l-1.295,12.027
				l-2.957,0.648l-1.254,9.84l-9.922-7.979l-5.832,1.377l-7.936-8.342l-5.266-7.168l-5.264-0.283l-1.66-6.316L545.538,341.025z"/>
			<path fill="#48FFD9" stroke="#666666" d="M576.841,300.814l9.436,0.525l2.146,6.398l-2.836,17.13l-2.875,6.925h-6.844
				l1.943,18.992l-6.275-4.211l-7.168-7.896l-10.529,3.766l-8.301-1.418l5.83-5.021l9.963-27.293L576.841,300.814z"/>
			<path fill="#48FFD9" stroke="#666666" d="M443.61,280.648l-6.074,13.322l-8.584-3.969l-7.006,0.283l2.349-10.406l-2.349-10.529
				l9.516-0.811L443.61,280.648z M473.78,196.579l-12.148,23.204l11.582-2.916l12.432,0.121l-2.957,17.09l-10.205,18.344
				l11.744,1.297l0.891,2.105l10.125,23.447l7.775,3.117l7.004,21.908l3.24,7.451l13.77,3.562l-1.377,11.864l-5.791,5.388
				l4.535,9.436l-10.205,9.436l-15.186-0.162l-19.316,4.9l-5.305-3.523l-7.492,8.342l-10.488-2.025l-7.977,6.764l-6.034-3.523
				l16.644-18.791l10.164-3.928h-0.08l-17.738-3.037l-3.199-7.289l11.865-5.71l-6.236-10.042l2.146-12.393l16.887,1.701l0,0
				l1.66-11.096l-7.613-11.945l-0.162-0.283l-13.768-3.443l-2.713-5.346l4.131-8.908l-3.727-5.547l-6.115,9.475l-0.647-19.438
				l-5.751-10.488l4.131-21.706l8.828-17.454l9.07,1.701L473.78,196.579z"/>
			<path fill="#48FFD9" stroke="#666666" d="M620.534,272.225l0.203,7.613l11.5,4.535l-0.121,6.885l11.541-3.645l6.359-5.305
				l12.836,7.652l5.346,6.115l2.672,9.678l-3.158,5.062l4.09,6.682l2.836,9.921l-0.893,6.317l4.658,11.582l-5.062,1.904
				l-2.996-2.066l-2.875,3.402l-8.141,3.482l-4.211,4.455l-8.262,3.846l1.984,5.266l1.215,7.369l5.791,4.211l6.398,7.412
				l-3.969,7.896l-4.09,2.186l1.619,11.016l-1.092,2.834l-3.523-3.441l-5.428-0.486l-8.139,2.996l-10.002-0.729l-1.619,4.414
				l-5.752-4.617l-3.441,0.893l-12.148-5.104l-2.35,3.645l-9.637-0.121l1.416-12.068l5.752-11.742l-16.361-3.16l-5.346-4.574
				l0.648-7.654l-2.268-3.969l1.295-12.027l-1.943-18.992h6.844l2.875-6.925l2.836-17.13l-2.146-6.398l2.227-4.049l9.477-1.053
				l2.105,4.211l7.734-9.436l-2.592-7.248l-0.525-11.137l8.584,2.592L620.534,272.225z"/>
			<path fill="#48FFD9" stroke="#666666" d="M678.403,345.318l-4.658-11.582l0.893-6.317l-2.836-9.921l-4.09-6.682l3.158-5.062
				l-2.672-9.678l7.775-5.629l17.695-8.99l14.336-6.641l11.299,3.32l0.85,4.779l10.975,0.242l13.971,2.227l20.895-0.322l5.832,2.105
				l2.713,5.912l0.486,8.463l3.158,7.209l-0.08,7.49l-6.803,3.807l3.521,8.586l0.203,8.139l5.711,15.754l-1.215,5.021l-5.629,2.064
				l-10.326,14.619l2.914,7.775l-2.469-1.014l-10.773-6.641l-8.18,2.43l-5.346-1.781l-6.721,3.725l-5.711-6.154l-4.697,2.348
				l-0.648-1.053l-5.223-8.625l-8.424-1.053l-1.094-5.549l-7.775-1.984l-1.699,4.576l-6.156-3.645l0.689-4.898l-8.465-1.58
				L678.403,345.318z"/>
		</g>
		
			<pattern  id="SVGID_1_" xlink:href="#New_Pattern_Swatch_1" patternTransform="matrix(0.7071 -0.7071 0.7071 0.7071 4348.4326 -7592.1304)"  opacity="0.2">
		</pattern>
		<path fill="url(#SVGID_1_)" fill-opacity="0.8" stroke="#505050" d="M438.854,303.592l0.545,3.984l-8.585,16.685l-20.126,10.853
			l-16.076-2.754l9.191-19.355l-2.328-7.607L438.854,303.592z"/>
		<g>
			<polygon fill="#810F7B" points="572.86,368.947 572.306,373.303 574.856,374.84 575.44,374.768 575.44,369.092 			"/>
			<polygon fill="#001798" points="578.575,369.266 575.44,369.092 575.44,374.768 578.137,374.436 			"/>
			<polygon fill="none" stroke="#666666" stroke-miterlimit="10" points="575.44,369.092 572.86,368.947 572.306,373.303 
				574.856,374.84 575.44,374.768 578.137,374.436 578.575,369.266 			"/>
		</g>
		
			<pattern  id="SVGID_2_" xlink:href="#New_Pattern_Swatch_1" patternTransform="matrix(0.7071 -0.7071 0.7071 0.7071 4348.4326 -7592.1304)"  opacity="0.2">
		</pattern>
		<path fill="url(#SVGID_2_)" fill-opacity="0.8" stroke="#505050" d="M765.751,401.566l4.9-3.604l7.047,1.861l7.248,0.082
			l5.264,4.09l3.889-2.592l8.381-1.619l2.877-3.969l4.777,0.041l3.441,1.619l3.523,5.021l3.605,7.086l6.559,9.881l0.365,7.25
			l-1.215,6.965l2.064,7.41l5.062,2.957l5.305-2.592l5.184,2.754l0.244,4.17l-5.508,3.402l-3.443-1.459l-3.158,19.074l-6.682-1.66
			l-8.26-5.711l-13.365,3.645l-5.629,4.01l-16.684-0.811l-8.746-2.471l-4.373,1.176l-3.281-6.48l-2.064-2.752l2.631-2.674
			l-2.834-1.984l-3.562,3.564l-6.602-4.617l-0.891-6.6l-6.926-3.807l-1.254-5.145l-6.156-6.398l9.111-3.076l6.844-11.178
			l5.387-11.338L765.751,401.566z"/>
		
			<pattern  id="SVGID_3_" xlink:href="#New_Pattern_Swatch_1" patternTransform="matrix(0.7071 -0.7071 0.7071 0.7071 4348.4326 -7592.1304)"  opacity="0.2">
		</pattern>
		<path fill="url(#SVGID_3_)" fill-opacity="0.8" stroke="#505050" d="M616.444,493.41l-3.766,11.703l-5.143-3.078l-2.633-10.246
			l2.309-5.709l7.33-5.871L616.444,493.41z M548.616,358.357l7.936,8.342l5.832-1.377l9.922,7.979l2.551,1.498l3.279-0.363
			l5.346,4.535l16.361,3.199l-5.752,11.742l-1.457,12.068l-3.117,2.875l-5.184-1.539l0.363,4.252l-8.301,9.314l-0.162,7.451
			l5.426-2.551l3.889,7.166l-0.486,4.576l3.361,6.074l-3.928,4.9l2.914,12.311l6.156,1.984l-1.297,6.803l-10.285,8.789
			l-22.395-4.213l-16.521,5.021l-1.295,9.273l-13.162,1.984l-12.756-6.965l-4.131,3.32l-20.895-7.006l-4.535-6.033l5.871-9.395
			l2.146-31.91l-11.703-17.252l-8.383-8.463l-17.373-6.48l-1.133-12.432l14.74-3.725l19.072,4.414l-3.604-19.6l10.73,7.49
			l26.443-13.646l3.402-14.619l9.922-3.645l1.66,6.318l5.264,0.283L548.616,358.357z"/>
		<path fill="#810F7B" fill-opacity="0.8" stroke="#505050" d="M405.303,497.541l0.567-10.854l-4.617-6.723l16.036-11.217
			l13.89,2.834l15.268-0.121l12.066,2.674l9.436-0.811l18.346,0.486l4.535,6.033l20.895,7.006l4.131-3.32l12.797,6.965l13.16-1.984
			l0.607,8.869l-10.771,10.082l-14.537,3.16l-1.012,5.021l-7.006,8.219l-4.375,11.988l4.414,8.301l-6.559,6.479l-2.432,9.314
			l-8.584,2.834l-8.059,10.895l-14.375,0.201l-10.854-0.242l-7.086,4.941l-4.334,5.305l-5.588-1.176l-4.172-4.736l-3.239-8.1
			l-10.61-2.188l-0.931-4.697l4.212-5.346l1.539-3.887l-3.889-4.293l3.119-9.516l-4.535-8.789l4.898-1.215l0.445-6.965l1.863-2.146
			l0.121-11.662l5.266-4.049l-3.159-7.613l-6.642-0.527l-1.943,1.904l-6.682,0.041l-2.875-7.451l-4.617,2.227L405.303,497.541z"/>
		<path fill="#810F7B" fill-opacity="0.8" stroke="#505050" d="M405.303,497.541l4.13-3.848l4.617-2.227l2.875,7.451l6.682-0.041
			l1.943-1.904l6.642,0.527l3.159,7.613l-5.266,4.049l-0.121,11.662l-1.863,2.146l-0.445,6.965l-4.898,1.215l4.535,8.789
			l-3.119,9.516l3.889,4.293l-1.539,3.887l-4.212,5.346l0.931,4.697l-4.535,3.686l-5.992-1.984l-5.873,1.539l1.742-11.096
			l-1.053-8.828l-5.104-1.336l-2.713-5.467l0.932-9.557l4.495-5.305l0.81-5.953l2.39-8.949l-0.284-6.359l-2.268-5.426
			L405.303,497.541z"/>
		<path fill="#810F7B" fill-opacity="0.8" stroke="#505050" d="M783.933,214.68l1.338-12.634l-4.172,2.713l-7.207-7.694
			l-1.014-12.594l14.377-6.196l14.295-3.28l12.311,3.726l11.742-0.688l1.701,3.888l-8.059,12.715l3.361,20.085l-4.859,6.723
			l-9.395-0.041l-9.76-7.856l-4.98-2.632L783.933,214.68z"/>
		<path fill="#810F7B" fill-opacity="0.8" stroke="#505050" d="M746.962,251.289l0.404-15.43l5.588-13.121l10.691-7.208l8.99,15.711
			l9.111-0.404l2.186-16.158l9.68-3.766l4.98,2.632l9.76,7.856l9.395,0.041l5.467,4.818l0.932,10.084l3.686,12.107l-12.23,7.816
			l-6.885,3.402l-10.934-9.801l-6.033-1.297l-1.578-4.252l-11.178,2.025l-19.033-1.336L746.962,251.289z"/>
		<path fill="#810F7B" fill-opacity="0.8" stroke="#505050" d="M765.993,285.062l-0.93-4.941l1.215-5.387l-5.021-3.117
			l-11.865-3.482l-2.43-16.846l12.998-6.277l19.033,1.336l11.178-2.025l1.578,4.252l6.033,1.297l10.934,9.801l1.053,8.908
			l-9.312,6.357l-2.633,11.016l-12.311,7.289l-10.975-0.162l-2.713-5.912L765.993,285.062z"/>
		<path fill="#810F7B" fill-opacity="0.8" stroke="#505050" d="M651.96,259.752l-6.805,16.076l-11.863-11.176l-1.58-8.303
			l16.643-6.721L651.96,259.752z M631.792,242.541l-2.793,7.695l-3.361-2.229l-8.18,14.539l3.078,9.678l-7.25,2.996l-8.584-2.592
			l-4.617-11.014l-0.324-20.734l1.904-5.588l3.238-6.236l10.004-1.297l3.967-5.791l9.152-5.953l-0.404,10.853l-3.361,6.803
			l1.377,5.791L631.792,242.541z"/>
		<path fill="#810F7B" fill-opacity="0.8" stroke="#505050" d="M576.517,362.812l2.268,3.969l-0.648,7.654l-3.279,0.404
			l-2.551-1.539l1.254-9.84L576.517,362.812z"/>
		<path fill="#810F7B" fill-opacity="0.8" stroke="#505050" d="M892.825,593.635l7.654-5.912l-10.326,4.131l-8.18-0.203
			l-1.621,3.361l-0.809,0.082l-5.387,0.486l2.633,5.547l5.547,1.781l11.662-5.588l-0.363-1.094L892.825,593.635z"/>
		<path fill="#810F7B" fill-opacity="0.8" stroke="#505050" d="M776.968,587.238l6.197,4.697l8.828-0.77l8.463,0.971l-0.283,2.43
			l6.195-1.66l-1.418,4.09l-16.359,1.176l0.121-2.268l-13.848-2.715L776.968,587.238z M809.972,502.359l-3.523,9.436l-2.713,1.66
			l-6.924-0.404l-5.912-1.418l-13.77,3.887l7.855,8.342l-5.75,2.391h-6.316l-5.994-7.613l-2.146,3.238l2.553,8.828l5.668,6.885
			l-4.291,3.199l6.316,6.682l5.629,4.172l0.162,8.098l-5.508-4.656l-5.021,0.85l3.361,7.289l-3.725,0.77l-4.051-2.793l4.859,15.994
			h-2.348l-1.822-5.061l-2.309-0.082l-1.053,5.346l-1.822-1.215l0.404-2.996l-2.268-4.211h-2.592l0.486,3.4l-1.012,1.094
			l-2.512-2.188l-1.539-4.09l2.105-2.309l-1.457-2.996l-1.66-1.539l-1.701-0.363l-1.984-3.807l2.35-2.105l1.457-1.945l2.268,0.406
			l1.014-1.66l2.389-0.648l2.754,1.863l2.227,0.688l1.58-2.51l-3.807-0.324l-2.268-0.77l-5.062,1.133l-4.939,0.203l-4.414-6.641
			l-0.73-1.014l0.689-2.592l-5.75-4.656l-0.77-4.172l5.264-7.127l0.689-4.818l3.684-2.146l0.244-3.928l7.41-1.336l4.332-3.281
			l6.156,0.285l1.863-2.633l2.146-0.486l8.383,0.445l9.111-4.131l8.018,5.266l10.326-1.418l0.121-7.531L809.972,502.359z
			 M674.831,590.42l7.828-0.77l-3.279,4.738L674.831,590.42z"/>
		<path fill="#810F7B" fill-opacity="0.8" stroke="#505050" d="M721.692,434.246l2.754,6.277l3.604,4.615l-4.373,6.035l-5.143-3.564
			l-7.857,0.244l-9.758-2.674l-5.305,0.365l-2.43,3.32l-4.092-3.686l-2.389,6.641l5.588,7.412l2.43,4.898l5.225,5.873l4.334,3.441
			l4.291,6.52l10.043,5.832l-1.256,2.592l-10.65-5.67l-6.6-5.588l-10.367-4.617l-9.557-11.541l2.309-1.215l-5.184-6.641
			l-0.242-5.426l-7.291-2.512l-3.482,6.926l-3.361-5.387l0.285-5.588l0.404-0.244l7.896,0.568l2.105-2.754l3.848,2.631l4.455,0.324
			l-0.041-4.535l3.928-1.66l1.133-6.561l9.031-4.373l3.604,2.025l8.504,7.006l9.355,3.117L721.692,434.246z"/>
		<polyline fill="#001798" stroke="#505050" points="765.142,-52.15 763.841,-53.611 742.304,-77.796 735.323,-76.614 
			733.64,-55.888 712.323,-60.614 710.938,-52.15 709.261,-42.586 		"/>
		<path fill="#001798" stroke="#505050" d="M765.142-52.15L775.47,4.672l3.807,10.934l-19.518,7.856l-11.016,18.993l1.781,16.279
			l-18.061,20.774l-21.908,21.625l-8.301,34.057l8.1,16.481l10.852,12.716L710.8,189.614l-11.826,5.103l-4.332,35.797l-6.439,19.277
			l-13.768-1.984l-6.439,15.994l-13.16,0.932l-3.604-19.072l-9.518-23.529l-8.625-30.372l5.021-12.756l9.436-15.429l3.766-27.253
			l-7.248-12.067l-0.729-32.558l7.41-23.933l11.258,0.445l3.928-10.326l-4.131-9.031l17.615-38.47l11.379-31.87l7.492-21.219
			l10.893,0.081"/>
		<path fill="#001798" stroke="#505050" d="M742.304-77.796l6.805-8.423l12.633,16.806l14.822-1.579l11.26,7.879l11.5-14.683
			L805.194-101l17.615-11.257l14.537,13.161c-4.477,12.517-6.479,45.658-6.479,45.658l17.412,20.207l-10.488,22.191l13.201,32.234
			l-7.652,23.325L853.585,64.2l-4.656,16.765l16.805,17.251l-4.291,12.554l-10.529,13.971l-24.297,30.007l-20.613,1.822
			l-19.963,8.383l-18.467,4.778l-6.6-12.432l-10.975-7.572l2.51-23.164l-5.508-21.908l5.428-14.498l10.285-15.955l25.957-28.428
			l7.613-5.629l-1.215-11.5l-15.793-13.04L775.47,4.672l-7.725-42.498l-2.604-14.324L742.304-77.796z"/>
		<path fill="#001798" stroke="#505050" d="M710.938-52.15l-1.678,9.564l-10.893-0.122l-7.492,21.22l-11.338,31.87l-17.615,38.471
			l4.129,9.03l-3.967,10.326l-11.258-0.445l-7.371,23.933l0.689,32.558l7.248,12.068l-3.766,27.253l-9.436,15.429l-5.021,12.756
			l-7.613-13.565l-22.436,25.39l-15.145,5.021l-15.711-10.974l-4.051-23.73l-3.604-53.696l10.447-15.712l29.967-20.977L627.46,56.83
			l20.775-37.661l27.293-55.721l12.93-15.598l37.326-48.567l24.904-14.538l18.668,1.782l17.291-28.306l20.693,1.539l20.367-7.046
			l35.516,25.27l-14.619,9.03l12.432,20.693L841.72-79.376l-7.396,2.762h-2.5l5.523-22.483l-14.537-13.161L805.194-101
			l-6.371,24.387l-11,13.5l-11.26-7.879l-14.822,1.579L749.108-86.22l-6.805,8.423l-6.98,1.183l-1.684,20.726l-21.316-4.726
			L710.938-52.15z"/>
		<path fill="#001798" stroke="#505050" d="M437.536,293.971l1.863,13.605l-8.585,16.685l-20.126,10.853l-16.076-2.754l9.191-19.355
			l-5.912-19.316l15.43-15.186l8.584-9.193l2.35,10.529l-2.35,10.406l7.047-0.242L437.536,293.971z"/>
		<path fill="#001798" stroke="#505050" d="M691.847,418.777l3.768-10.732l-2.188-3.604l6.398-0.041l0.85-6.924l5.791,4.332
			l4.172,1.863l9.557-2.064l0.891-3.402l4.535-0.525l5.508-2.633l1.215,1.094l5.346-2.105l2.672-4.051l3.727-1.012l12.148,5.184
			l2.43-1.742l6.275,4.617l0.811,4.535l-6.924,3.523l-5.387,11.338l-6.844,11.178l-9.111,3.076l-7.086-0.688l-8.707,4.252
			l-4.252,2.43l-9.355-3.117l-8.504-7.006l-3.604-2.025l-2.227-5.549L691.847,418.777z"/>
	</g>
	<g display="inline" opacity="0.1">
		<path fill="#ECE4E5" d="M623.681,726.626c-209.814,0-379.886-170.068-379.886-379.875c0-209.808,170.072-379.88,379.886-379.88
			c209.799,0,379.885,170.073,379.885,379.88C1003.565,556.558,833.479,726.626,623.681,726.626z"/>
		<path fill="#810F7B" fill-opacity="0.8" stroke="#505050" d="M741.69-51.392"/>
		<path fill="#C4C4C4" stroke="#898989" d="M749.708,501.288l-1.418,5.143l1.619,6.439l4.697,3.645l-0.242,3.928l-3.686,2.188
			l-0.688,4.818l-5.266,7.127l-1.943-1.012l-0.203-3.24l-6.316-4.98l-0.973-7.088l0.973-10.244l1.539-4.697l-1.904-2.391
			l-0.768-4.818l4.939-7.572l0.689,2.916l3.076-1.377l2.43,4.131l2.713,1.537L749.708,501.288z"/>
		<path fill="#C4C4C4" stroke="#898989" d="M782.589,296.423l10.975,0.162l12.311-7.289l2.633-11.016l9.312-6.357l-1.053-8.908
			l6.885-3.402l12.23-7.816l11.945,5.104l1.619,4.98l5.953-2.389l11.096,4.777l1.094,9.355l-2.43,5.346l7.127,12.756l4.617,3.521
			l-0.689,3.484l7.654,3.359l3.279,5.062l-4.414,4.131l-9.15-0.648l-2.188,1.783l2.672,6.234l2.795,11.864l-9.76,1.095l-3.482,4.051
			l-0.77,9.15l-4.494-1.74l-10.246,0.891l-2.996-4.252l-4.252,3.158l-4.252-2.631l-8.949-0.365l-12.676-4.373l-11.459-1.459
			l-8.789,0.406l-6.236,4.98l-5.426,0.688l-0.203-8.139l-3.521-8.586l6.803-3.807l0.08-7.49l-3.158-7.209L782.589,296.423z"/>
		<path fill="#C4C4C4" stroke="#898989" d="M751.692,498.292l-0.527,3.117l-1.457-0.121l-0.73-5.549l-2.713-1.537l-2.43-4.131
			l2.105-3.443l2.713-1.133l1.58-5.104l2.025-0.891l1.619,2.188l2.146,0.973l1.459,2.469l1.861,0.729l2.229,2.836l1.619-0.082
			l-1.297,3.768l-1.336,1.822l0.365,1.133l-2.551,0.566L751.692,498.292z"/>
		<path fill="#C4C4C4" stroke="#898989" d="M818.185,399.2l2.713-2.512l7.533-1.701l8.383,5.305l4.656,0.648l5.143,4.535
			l-0.811,5.711l4.131,2.713l1.621,6.965l3.967,4.211l-0.768,2.43l2.105,1.701l-2.998,1.174l-6.721-0.445l-1.094-2.307l-2.389,1.336
			l0.809,2.916l-3.117,5.223l-1.984,5.549l-2.836,1.781l-2.064-7.41l1.215-6.965l-0.365-7.25l-6.559-9.881l-3.605-7.086
			l-3.523-5.021L818.185,399.2z"/>
		<path fill="#C4C4C4" stroke="#898989" d="M740.759,491.448l-0.689-2.916l-4.939,7.572l0.768,4.818l-2.389-1.174l-3.158-4.98
			l-4.941-3.037l1.256-2.592l1.66-8.504l3.686-3.604l2.146-1.459l2.996,2.674l1.66,2.186l3.727,1.66l4.332,3.199l-0.932,1.336
			l-2.105,3.443L740.759,491.448z"/>
		<path fill="#C4C4C4" stroke="#898989" d="M749.708,501.288l1.457,0.121l0.527-3.117l6.682-2.391l2.551-0.566l3.887-0.891
			l5.225-0.242l5.709,4.898l0.811,10.004l-2.188,0.484l-1.861,2.633l-6.156-0.283l-4.332,3.279l-7.412,1.297l-4.697-3.645
			l-1.619-6.439L749.708,501.288z"/>
		<path fill="#C4C4C4" stroke="#898989" d="M731.728,454.517l4.131-0.041l-2.836,6.965l5.467,6.074l-1.66,7.371l-2.672,0.688
			l-2.146,1.459l-3.686,3.604l-1.66,8.504l-10.043-5.832l-4.291-6.52l-4.334-3.441l-5.225-5.873l-2.43-4.898l-5.588-7.412
			l2.389-6.641l4.092,3.686l2.43-3.32l5.305-0.365l9.758,2.674l7.857-0.244L731.728,454.517z"/>
		<path fill="#C4C4C4" stroke="#898989" d="M752.946,445.567l6.926,3.807l0.891,6.6l6.602,4.617l3.562-3.564l2.834,1.984
			l-2.631,2.674l2.064,2.752l-2.793,3.564l1.012,5.75l5.508,6.723l-4.334,4.818l-1.902,4.9l1.254,1.822l-1.902,2.188l-5.225,0.242
			l-3.887,0.891l-0.365-1.133l1.336-1.822l1.297-3.768l-1.619,0.082l-2.229-2.836l-1.861-0.729l-1.459-2.469l-2.146-0.973
			l-1.619-2.188l-2.025,0.891l-1.58,5.104l-2.713,1.133l0.932-1.336l-4.332-3.199l-3.727-1.66l-1.66-2.186l-2.996-2.674l2.672-0.688
			l1.66-7.371l-5.467-6.074l2.836-6.965l-4.131,0.041l4.373-6.035l-3.604-4.615l-2.754-6.277l8.707-4.252l7.086,0.688l6.156,6.398
			L752.946,445.567z"/>
		<path fill="#C4C4C4" stroke="#898989" d="M624.86,410.903l0.445,2.996l-1.742,4.09l5.145,2.996l5.791,0.445l-0.893,6.764
			l-4.98,2.793l-8.422-2.064l-2.471,6.602l-5.387,0.525l-1.984-2.592l-6.357,5.508l-5.467,0.77l-4.9-3.482l-3.887-7.168
			l-5.426,2.592l0.162-7.451l8.301-9.354l-0.365-4.254l5.184,1.58l3.119-2.875l9.637,0.121l2.35-3.645L624.86,410.903z"/>
		<path fill="#C4C4C4" stroke="#898989" d="M1002.126,482.626"/>
		<path fill="#C4C4C4" stroke="#898989" d="M876.862,330.518l4.211,0.77l2.875-4.211l3.443,0.932l11.783-1.781l7.25,10.407
			l-2.836,3.727l0.932,5.629l9.07,0.85l4.051,7.816l-0.244,3.521l14.418,6.236l8.705-2.793l7.006,8.26l6.641-0.16l16.725,5.668
			l0.123,5.143l-4.576,9.031l2.469,9.436l-1.781,5.629l-10.975,1.256l-5.83,4.697l-0.365,7.41l-9.07,1.336l-7.572,5.346
			l-10.609,0.85l-9.801,6.156l-5.346,4.17l6.033,5.953l5.549,3.889l11.582-0.973l-2.229,5.75l-12.432,2.754l-15.428,9.193
			l-6.277-3.199l2.471-7.492l-12.393-4.697l2.025-3.119l12.797-6.6l-1.621-3.281l-1.822,1.662l-1.781-0.893l-17.656-4.129
			l-0.77-6.115l-10.527,2.023l-4.213,9.031l-8.787,11.947l-5.184-2.754l-5.305,2.592l-5.062-2.957l2.836-1.781l1.984-5.549
			l3.117-5.223l-0.809-2.916l2.389-1.297l1.094,2.268l6.721,0.445l2.998-1.174l-2.105-1.701l0.768-2.43l-3.967-4.211l-1.621-6.965
			l-4.131-2.713l0.811-5.711l-5.143-4.535l-4.656-0.648l-8.383-5.305l-7.533,1.701l-2.713,2.512l-4.777-0.041l-2.877,3.969
			l-8.381,1.619l-3.848,2.592l-5.305-4.09l-7.248-0.082l-7.047-1.861l-4.9,3.604l-0.811-4.535l-6.275-4.617l2.227-6.924l3.119-4.455
			l2.51,0.973l-2.955-7.775l10.326-14.619l5.629-2.064l1.215-5.021l-5.711-15.754l5.426-0.688l6.236-4.98l8.789-0.406l11.459,1.459
			l12.676,4.373l8.949,0.365l4.252,2.631l4.252-3.158l2.996,4.252l10.246-0.891l4.494,1.74l0.77-9.15l3.482-4.051L876.862,330.518z"
			/>
		<path fill="#C4C4C4" d="M624.05,663.392l-4.859-23.73l-6.967-5.387l-0.121-3.279l-9.273-8.02l-1.012-10.244l7.006-7.613
			l2.672-11.42l-1.822-13.283l2.309-7.248l12.393-5.709l7.936,1.699l-0.324,7.168l9.639-5.223l0.811,2.713l-5.711,6.924l-0.039,6.48
			l3.928,3.441l-1.498,11.986l-7.492,6.926l2.146,7.41l5.871,0.242l2.875,6.439l4.334,2.105l-0.648,10.326l-5.549,3.848
			l-3.482,4.252l-7.814,5.102l1.215,5.467l-0.973,5.588L624.05,663.392z"/>
		<g>
			<path fill="none" d="M1004.323,340.093c-0.154-8.827-0.617-17.576-1.361-26.242l-0.303,69.367
				C1004.007,369.05,1004.577,354.661,1004.323,340.093z"/>
			<path fill="none" d="M980.53,477.802l-9.596-2.674l-1.377,1.822l-14.457-13.242l-12.959-5.992l-9.801-9.395l8.262-2.592
				l9.436-13.566l-6.357-6.48l16.725-6.762l-0.283-3.645l-10.205,2.672l0.363-7.41l5.873-4.697l10.975-1.256l1.781-5.668
				l-2.512-9.436l4.617-9.031l-0.121-5.102l-16.725-5.711l-6.643,0.203l-7.004-8.262l-8.707,2.795l-14.416-6.236l0.242-3.523
				l-4.049-7.816l-9.072-0.891l-0.93-5.629l2.834-3.686l-7.248-10.448l-11.785,1.783l-3.441-0.932l-2.875,4.211l-4.252-0.729
				l-2.795-11.905l-2.672-6.236l2.186-1.781l9.152,0.648l4.414-4.131l-3.279-5.062l-7.654-3.361l0.689-3.482l-4.617-3.523
				l-7.127-12.756l2.43-5.305l-1.094-9.354l-11.096-4.779l-5.953,2.389l-1.619-5.021l-11.947-5.102l-3.645-12.107l-0.971-10.084
				l-5.467-4.819l4.859-6.722l-3.361-20.085l8.1-12.675l-1.701-3.887l12.918-12.433l-11.906-10.853l24.297-30.007l10.529-13.971
				l4.252-12.554l-16.807-17.251l4.658-16.806l-10.205-19.64l1.518-4.627c-65.322-49.222-146.955-77.81-235.07-76.266
				c-209.782,3.677-376.847,176.704-373.169,386.479c3.677,209.775,176.702,376.836,386.484,373.16
				c161.332-2.828,297.406-105.83,349.975-248.678L980.53,477.802z M774.005,288.444l-20.896,0.283l-13.971-2.227l2.592-8.625
				l15.672-6.398l11.906,3.482l5.021,3.117l-1.215,5.387L774.005,288.444z"/>
			<path fill="#C4C4C4" d="M861.597,67.462l-4.658,16.806l16.807,17.251l-4.252,12.554l-10.529,13.971l-24.297,30.007l11.906,10.853
				l-12.918,12.433l1.701,3.887l-8.1,12.675l3.361,20.085l-4.859,6.722l5.467,4.819l0.971,10.084l3.645,12.107l11.947,5.102
				l1.619,5.021l5.953-2.389l11.096,4.779l1.094,9.354l-2.43,5.305l7.127,12.756l4.617,3.523l-0.689,3.482l7.654,3.361l3.279,5.062
				l-4.414,4.131l-9.152-0.648l-2.186,1.781l2.672,6.236l2.795,11.905l4.252,0.729l2.875-4.211l3.441,0.932l11.785-1.783
				l7.248,10.448l-2.834,3.686l0.93,5.629l9.072,0.891l4.049,7.816l-0.242,3.523l14.416,6.236l8.707-2.795l7.004,8.262l6.643-0.203
				l16.725,5.711l0.121,5.102l-4.617,9.031l2.512,9.436l-1.781,5.668l-10.975,1.256l-5.873,4.697l-0.363,7.41l10.205-2.672
				l0.283,3.645l-16.725,6.762l6.357,6.48l-9.436,13.566l-8.262,2.592l9.801,9.395l12.959,5.992l14.457,13.242l1.377-1.822
				l9.596,2.674l0.598,0.088c11.035-29.986,18.395-61.729,21.531-94.672l0.303-69.367
				c-9.518-110.773-66.412-207.632-150.053-270.656l-1.518,4.627L861.597,67.462z"/>
			<polygon fill="#C4C4C4" points="769.308,274.96 757.401,271.478 741.729,277.876 739.138,286.501 753.108,288.728 
				774.005,288.444 773.114,283.464 774.329,278.077 			"/>
		</g>
		<path fill="none" d="M404.929,651.931l4.334-11.42l1.539-7.047l7.289-9.07l11.379-6.195l8.422-5.629l7.573-14.215l3.604-8.543
			l8.342,0.08l6.844,5.912l10.812-0.971l11.744,3.037l4.939,0.16l10.893-7.572l12.311-2.43l7.168-5.791l10.934-4.252l19.236-2.51
			l18.789-1.174l5.711,2.105l10.689-5.549l12.148-0.121l4.617,3.279l7.734-0.85l-2.309,7.248l1.822,13.283l-2.672,11.42
			l-7.006,7.613l1.012,10.244l9.273,8.02l0.121,3.279l6.967,5.387l4.859,23.73l5.547-3.039l0.973-5.588l-1.215-5.467l7.814-5.102
			l3.482-4.252l5.549-3.848l0.648-10.326l13.322,4.656l4.779-1.174l9.475,2.268l15.064,5.953l5.305,11.824l10.205,2.592
			l15.996,5.508l12.107,6.52l5.549-3.402l5.426-6.033l-2.633-10.164l3.564-6.479l8.18-6.277l7.816-1.822l15.348,2.754l3.887,5.992
			l4.211,0.041l3.605,2.268l11.297,1.58l2.754,4.373l15.105-0.203l10.934,3.482l11.258,3.93l5.07,1.949
			c96.316-68.906,159.092-181.695,159.092-309.154c0-209.808-170.086-379.88-379.885-379.88
			c-209.815,0-379.886,170.073-379.886,379.88c0,128.832,64.131,242.674,162.209,311.363L404.929,651.931z"/>
		<path fill="#C4C4C4" d="M828.146,650.026l-10.934-3.482l-15.105,0.203l-4.09,6.357l1.742,5.629l-2.916,8.1l3.4,10.447v5.906
			c15.398-8.098,30.172-17.223,44.23-27.281l-5.07-1.949L828.146,650.026z"/>
		<path fill="#C4C4C4" d="M796.843,666.833l2.916-8.1l-1.742-5.629l4.09-6.357l-2.754-4.373l-11.297-1.58l-3.605-2.268l-4.211-0.041
			l-3.887-5.992l-15.348-2.754l-7.816,1.822l-8.18,6.277l-3.564,6.479l2.633,10.164l-5.426,6.033l-5.549,3.402l-12.107-6.52
			l-15.996-5.508l-10.205-2.592l-5.305-11.824l-15.064-5.953l-9.475-2.268l-4.779,1.174l-13.322-4.656l-0.648,10.326l-5.549,3.848
			l-3.482,4.252l-7.814,5.102l1.215,5.467l-0.973,5.588l-5.547,3.039l3.684,11.5l0.607,5.992l-1.984,10.488l0.811,5.832
			l-1.457,6.965l1.012,7.979l-4.535,5.223l6.723,9.152l0.006,0.066c61.793-0.836,120.023-16.424,171.328-43.402v-5.906
			L796.843,666.833z"/>
		<path fill="#C4C4C4" d="M447.572,670.882l9.273-3.482l4.373-6.561l13.283-5.223l0.484-9.76l6.561-1.174l5.143-4.9l14.863-2.268
			l2.064-5.184l-2.996-2.875l-3.928-14.295l-0.648-8.303l-4.293-8.828l-4.939-0.16l-11.744-3.037l-10.812,0.971l-6.844-5.912
			l-8.342-0.08l-3.604,8.543l-7.573,14.215l-8.422,5.629l-11.379,6.195l-7.289,9.07l-1.539,7.047l-4.334,11.42l1.074,6.184
			c8.502,5.955,17.259,11.568,26.251,16.824l3.978-2.072L447.572,670.882z"/>
		<path fill="#C4C4C4" d="M622.187,717.37l4.535-5.223l-1.012-7.979l1.457-6.965l-0.811-5.832l1.984-10.488l-0.607-5.992
			l-3.684-11.5l-4.859-23.73l-6.967-5.387l-0.121-3.279l-9.273-8.02l-1.012-10.244l7.006-7.613l2.672-11.42l-1.822-13.283
			l2.309-7.248l-7.734,0.85l-4.617-3.279l-12.148,0.121l-10.689,5.549l-5.711-2.105l-18.789,1.174l-19.236,2.51l-10.934,4.252
			l-7.168,5.791l-12.311,2.43l-10.893,7.572l4.293,8.828l0.648,8.303l3.928,14.295l2.996,2.875l-2.064,5.184l-14.863,2.268
			l-5.143,4.9l-6.561,1.174l-0.484,9.76l-13.283,5.223l-4.373,6.561l-9.273,3.482l-11.34,1.984l-3.978,2.072
			c56.21,32.854,121.616,51.688,191.426,51.688c1.746,0,3.492-0.014,5.234-0.037l-0.006-0.066L622.187,717.37z"/>
		<g>
			<path fill="#48FFD9" stroke="#666666" d="M773.194,464.437l3.281,6.48l4.373-1.176l8.746,2.471l16.684,0.811l5.629-4.01
				l13.365-3.645l8.26,5.711l6.682,1.66l-5.912,6.438l-4.131,11.057l3.645,8.746l-9.758-2.064l-11.582,4.777l-0.121,7.533
				l-10.328,1.416l-7.977-5.264l-9.111,4.172l-8.383-0.445l-0.811-10.004l-5.709-4.898l1.902-2.188l-1.254-1.822l1.902-4.9
				l4.334-4.818l-5.508-6.723l-1.012-5.75L773.194,464.437z"/>
			<path fill="#48FFD9" stroke="#666666" d="M672.685,427.79l9.396,1.254l5.75-3.725l9.92-0.406l2.146-2.793l1.904,0.201
				l2.227,5.549l-9.031,4.373l-1.133,6.561l-3.928,1.66l0.041,4.535l-4.455-0.324l-3.848-2.631l-2.105,2.754l-7.896-0.568
				l2.512-1.457l-2.715-6.926L672.685,427.79z"/>
			<path fill="#48FFD9" stroke="#666666" d="M692.163,554.823l-4.09,11.258l1.701,4.414l-2.389,7.248l-8.666-5.305l-5.791-1.539
				l-15.834-7.248l1.578-7.371l13.283,1.297l11.582-1.58L692.163,554.823z M620.526,511.007l6.805,10.609l-1.58,19.479l-5.143-0.932
				l-4.617,4.859l-4.293-3.846l-0.445-17.738l-2.592-8.504l6.236,0.77L620.526,511.007z M656.446,423.536l16.238,4.252l-1.215,8.059
				l2.715,6.926l-9.031-2.35l-9.232,5.752l0.646,7.977l-1.375,4.535l3.725,8.059l10.65,7.896l5.709,12.838l12.635,12.352l8.91-0.082
				l2.754,3.361l-3.199,2.996l10.164,5.467l8.342,4.535l9.719,7.775l1.174,2.754l-2.105,5.305l-6.316-6.883l-9.881-2.432
				l-4.779,9.559l8.221,5.426l-1.336,7.613l-4.738,0.85l-6.074,12.393l-4.738,1.092l0.041-4.373l2.309-7.734l2.469-3.117
				l-4.414-8.465l-3.482-7.41l-4.697-1.863l-3.361-6.396l-7.289-2.715l-4.898-6.033l-8.383-0.973l-8.869-6.803l-10.367-9.922
				l-7.734-8.867l-3.523-15.389l-5.668-1.822l-9.234-5.225l-5.223,2.146l-6.561,7.289l-4.738,1.135l1.297-6.803l-6.156-1.984
				l-2.916-12.311l3.928-4.9l-3.359-6.074l0.484-4.576l4.9,3.482l5.467-0.77l6.357-5.508l1.984,2.592l5.428-0.525l2.469-6.602
				l8.383,2.066l5.021-2.754l0.891-6.764l6.885,2.35l1.336-3.158l11.217-2.877L656.446,423.536z"/>
			<path fill="#48FFD9" stroke="#666666" d="M708.726,400.819l-0.85,6.924l-6.398,0.041l2.188,3.604l-3.768,10.732l-2.146,2.793
				l-9.92,0.406l-5.75,3.725l-9.396-1.254l-16.238-4.254l-2.51-5.789l-11.219,2.914l-1.336,3.119l-6.883-2.35l-5.791-0.445
				l-5.145-2.996l1.742-4.09l-0.445-2.996l3.441-0.893l5.752,4.617l1.619-4.414l10.002,0.729l8.139-2.996l5.428,0.486l3.523,3.441
				l1.092-2.834l-1.619-11.016l4.09-2.186l3.969-7.896l8.463,5.547l6.359-7.047l4.008-1.295l8.828,5.264l5.305-0.891l5.266,3.24
				l-0.932,2.188L708.726,400.819z"/>
			<path fill="#48FFD9" stroke="#666666" d="M708.524,392.761l-5.266-3.24l-5.305,0.891l-8.828-5.264l-4.008,1.295l-6.359,7.047
				l-8.463-5.547l-6.398-7.412l-5.791-4.211l-1.215-7.369l-1.984-5.266l8.262-3.846l4.211-4.455l8.141-3.482l2.875-3.402
				l2.996,2.066l5.062-1.904l5.385,5.791l8.465,1.58l-0.689,4.898l6.156,3.645l1.699-4.576l7.775,1.984l1.094,5.549l8.424,1.053
				l5.223,8.625l-3.359,0.041l-1.783,3.117l-2.592,0.77l-0.729,3.93l-2.188,0.85l-0.322,1.58l-3.848,1.781l-5.062-0.283
				L708.524,392.761z"/>
			<path fill="#48FFD9" stroke="#666666" d="M729.985,377.21l0.648,1.053l4.697-2.348l5.711,6.154l6.721-3.725l5.346,1.781
				l8.18-2.43l10.773,6.641l-3.119,4.496l-2.227,6.924l-2.43,1.742l-12.148-5.184l-3.727,1.012l-2.672,4.051l-5.346,2.105
				l-1.215-1.094l-5.508,2.633l-4.535,0.525l-0.891,3.402l-9.557,2.064l-4.172-1.863l-5.791-4.332l-1.133-5.871l0.932-2.188
				l1.578-3.766l5.062,0.283l3.848-1.781l0.322-1.58l2.188-0.85l0.729-3.93l2.592-0.77l1.783-3.117L729.985,377.21z"/>
			<path fill="#48FFD9" stroke="#666666" d="M553.589,344.368l8.301,1.418l10.529-3.766l7.168,7.896l6.275,4.211l-1.295,12.027
				l-2.957,0.648l-1.254,9.84l-9.922-7.979l-5.832,1.377l-7.936-8.342l-5.266-7.168l-5.264-0.283l-1.66-6.316L553.589,344.368z"/>
			<path fill="#48FFD9" stroke="#666666" d="M584.892,304.157l9.436,0.525l2.146,6.398l-2.836,17.13l-2.875,6.925h-6.844
				l1.943,18.992l-6.275-4.211l-7.168-7.896l-10.529,3.766l-8.301-1.418l5.83-5.021l9.963-27.293L584.892,304.157z"/>
			<path fill="#48FFD9" stroke="#666666" d="M451.662,283.991l-6.074,13.322l-8.584-3.969l-7.006,0.283l2.349-10.406l-2.349-10.529
				l9.516-0.811L451.662,283.991z M481.832,199.922l-12.148,23.204l11.582-2.916l12.432,0.121l-2.957,17.09l-10.205,18.344
				l11.744,1.297l0.891,2.105l10.125,23.447l7.775,3.117l7.004,21.908l3.24,7.451l13.77,3.562l-1.377,11.864l-5.791,5.388
				l4.535,9.436l-10.205,9.436l-15.186-0.162l-19.316,4.9l-5.305-3.523l-7.492,8.342l-10.488-2.025l-7.977,6.764l-6.034-3.523
				l16.644-18.791l10.164-3.928h-0.08l-17.738-3.037l-3.199-7.289l11.865-5.71l-6.236-10.042l2.146-12.393l16.887,1.701l0,0
				l1.66-11.096l-7.613-11.945l-0.162-0.283l-13.768-3.443l-2.713-5.346l4.131-8.908l-3.727-5.547l-6.115,9.475l-0.647-19.438
				l-5.751-10.488l4.131-21.706l8.828-17.454l9.07,1.701L481.832,199.922z"/>
			<path fill="#48FFD9" stroke="#666666" d="M628.585,275.567l0.203,7.613l11.5,4.535l-0.121,6.885l11.541-3.645l6.359-5.305
				l12.836,7.652l5.346,6.115l2.672,9.678l-3.158,5.062l4.09,6.682l2.836,9.921l-0.893,6.317l4.658,11.582l-5.062,1.904
				l-2.996-2.066l-2.875,3.402l-8.141,3.482l-4.211,4.455l-8.262,3.846l1.984,5.266l1.215,7.369l5.791,4.211l6.398,7.412
				l-3.969,7.896l-4.09,2.186l1.619,11.016l-1.092,2.834l-3.523-3.441l-5.428-0.486l-8.139,2.996l-10.002-0.729l-1.619,4.414
				l-5.752-4.617l-3.441,0.893l-12.148-5.104l-2.35,3.645l-9.637-0.121l1.416-12.068l5.752-11.742l-16.361-3.16l-5.346-4.574
				l0.648-7.654l-2.268-3.969l1.295-12.027l-1.943-18.992h6.844l2.875-6.925l2.836-17.13l-2.146-6.398l2.227-4.049l9.477-1.053
				l2.105,4.211l7.734-9.436l-2.592-7.248l-0.525-11.137l8.584,2.592L628.585,275.567z"/>
			<path fill="#48FFD9" stroke="#666666" d="M686.454,348.661l-4.658-11.582l0.893-6.317l-2.836-9.921l-4.09-6.682l3.158-5.062
				l-2.672-9.678l7.775-5.629l17.695-8.99l14.336-6.641l11.299,3.32l0.85,4.779l10.975,0.242l13.971,2.227l20.895-0.322l5.832,2.105
				l2.713,5.912l0.486,8.463l3.158,7.209l-0.08,7.49l-6.803,3.807l3.521,8.586l0.203,8.139l5.711,15.754l-1.215,5.021l-5.629,2.064
				l-10.326,14.619l2.914,7.775l-2.469-1.014l-10.773-6.641l-8.18,2.43l-5.346-1.781l-6.721,3.725l-5.711-6.154l-4.697,2.348
				l-0.648-1.053l-5.223-8.625l-8.424-1.053l-1.094-5.549l-7.775-1.984l-1.699,4.576l-6.156-3.645l0.689-4.898l-8.465-1.58
				L686.454,348.661z"/>
		</g>
		
			<pattern  id="SVGID_4_" xlink:href="#New_Pattern_Swatch_1" patternTransform="matrix(0.7071 -0.7071 0.7071 0.7071 4338.5186 -7570.8223)"  opacity="0.1">
		</pattern>
		<path fill="url(#SVGID_4_)" fill-opacity="0.8" stroke="#505050" d="M446.906,306.935l0.545,3.984l-8.585,16.685l-20.126,10.853
			l-16.076-2.754l9.191-19.355l-2.328-7.607L446.906,306.935z"/>
		<g>
			<polygon fill="#810F7B" points="580.911,372.29 580.356,376.646 582.907,378.183 583.491,378.11 583.491,372.435 			"/>
			<polygon fill="#001798" points="586.626,372.608 583.491,372.435 583.491,378.11 586.188,377.778 			"/>
			<polygon fill="none" stroke="#666666" stroke-miterlimit="10" points="583.491,372.435 580.911,372.29 580.356,376.646 
				582.907,378.183 583.491,378.11 586.188,377.778 586.626,372.608 			"/>
		</g>
		
			<pattern  id="SVGID_5_" xlink:href="#New_Pattern_Swatch_1" patternTransform="matrix(0.7071 -0.7071 0.7071 0.7071 4338.5186 -7570.8223)"  opacity="0.1">
		</pattern>
		<path fill="url(#SVGID_5_)" fill-opacity="0.8" stroke="#505050" d="M773.802,404.909l4.9-3.604l7.047,1.861l7.248,0.082
			l5.264,4.09l3.889-2.592l8.381-1.619l2.877-3.969l4.777,0.041l3.441,1.619l3.523,5.021l3.605,7.086l6.559,9.881l0.365,7.25
			l-1.215,6.965l2.064,7.41l5.062,2.957l5.305-2.592l5.184,2.754l0.244,4.17l-5.508,3.402l-3.443-1.459l-3.158,19.074l-6.682-1.66
			l-8.26-5.711l-13.365,3.645l-5.629,4.01l-16.684-0.811l-8.746-2.471l-4.373,1.176l-3.281-6.48l-2.064-2.752l2.631-2.674
			l-2.834-1.984l-3.562,3.564l-6.602-4.617l-0.891-6.6l-6.926-3.807l-1.254-5.145l-6.156-6.398l9.111-3.076l6.844-11.178
			l5.387-11.338L773.802,404.909z"/>
		
			<pattern  id="SVGID_6_" xlink:href="#New_Pattern_Swatch_1" patternTransform="matrix(0.7071 -0.7071 0.7071 0.7071 4338.5186 -7570.8223)"  opacity="0.1">
		</pattern>
		<path fill="url(#SVGID_6_)" fill-opacity="0.8" stroke="#505050" d="M624.495,496.753l-3.766,11.703l-5.143-3.078l-2.633-10.246
			l2.309-5.709l7.33-5.871L624.495,496.753z M556.667,361.7l7.936,8.342l5.832-1.377l9.922,7.979l2.551,1.498l3.279-0.363
			l5.346,4.535l16.361,3.199l-5.752,11.742l-1.457,12.068l-3.117,2.875l-5.184-1.539l0.363,4.252l-8.301,9.314l-0.162,7.451
			l5.426-2.551l3.889,7.166l-0.486,4.576l3.361,6.074l-3.928,4.9l2.914,12.311l6.156,1.984l-1.297,6.803l-10.285,8.789
			l-22.395-4.213l-16.521,5.021l-1.295,9.273l-13.162,1.984l-12.756-6.965l-4.131,3.32l-20.895-7.006l-4.535-6.033l5.871-9.395
			l2.146-31.91l-11.703-17.252l-8.383-8.463l-17.373-6.48l-1.133-12.432l14.74-3.725l19.072,4.414l-3.604-19.6l10.73,7.49
			l26.443-13.646l3.402-14.619l9.921-3.645l1.66,6.318l5.264,0.283L556.667,361.7z"/>
		<path fill="#810F7B" fill-opacity="0.8" stroke="#505050" d="M413.354,500.884l0.567-10.854l-4.617-6.723l16.036-11.217
			l13.89,2.834l15.268-0.121l12.066,2.674l9.436-0.811l18.346,0.486l4.535,6.033l20.895,7.006l4.131-3.32l12.797,6.965l13.16-1.984
			l0.607,8.869l-10.771,10.082l-14.537,3.16l-1.012,5.021l-7.006,8.219l-4.375,11.988l4.414,8.301l-6.559,6.479l-2.432,9.314
			l-8.584,2.834l-8.059,10.895l-14.375,0.201l-10.854-0.242l-7.086,4.941l-4.334,5.305l-5.588-1.176l-4.172-4.736l-3.239-8.1
			l-10.61-2.188l-0.931-4.697l4.212-5.346l1.539-3.887l-3.889-4.293l3.119-9.516l-4.535-8.789l4.898-1.215l0.445-6.965l1.863-2.146
			l0.121-11.662l5.266-4.049l-3.159-7.613l-6.642-0.527l-1.943,1.904l-6.682,0.041l-2.875-7.451l-4.617,2.227L413.354,500.884z"/>
		<path fill="#810F7B" fill-opacity="0.8" stroke="#505050" d="M413.354,500.884l4.13-3.848l4.617-2.227l2.875,7.451l6.682-0.041
			l1.943-1.904l6.642,0.527l3.159,7.613l-5.266,4.049l-0.121,11.662l-1.863,2.146l-0.445,6.965l-4.898,1.215l4.535,8.789
			l-3.119,9.516l3.889,4.293l-1.539,3.887l-4.212,5.346l0.931,4.697l-4.535,3.686l-5.992-1.984l-5.873,1.539l1.742-11.096
			l-1.053-8.828l-5.104-1.336l-2.713-5.467l0.932-9.557l4.495-5.305l0.81-5.953l2.39-8.949l-0.284-6.359l-2.268-5.426
			L413.354,500.884z"/>
		<path fill="#810F7B" fill-opacity="0.8" stroke="#505050" d="M791.983,218.023l1.338-12.634l-4.172,2.713l-7.207-7.694
			l-1.014-12.594l14.377-6.196l14.295-3.28l12.311,3.726l11.742-0.688l1.701,3.888l-8.059,12.715l3.361,20.085l-4.859,6.723
			l-9.395-0.041l-9.76-7.856l-4.98-2.632L791.983,218.023z"/>
		<path fill="#810F7B" fill-opacity="0.8" stroke="#505050" d="M755.013,254.632l0.404-15.43l5.588-13.121l10.691-7.208l8.99,15.711
			l9.111-0.404l2.186-16.158l9.68-3.766l4.98,2.632l9.76,7.856l9.395,0.041l5.467,4.818l0.932,10.084l3.686,12.107l-12.23,7.816
			l-6.885,3.402l-10.934-9.801l-6.033-1.297l-1.578-4.252l-11.178,2.025l-19.033-1.336L755.013,254.632z"/>
		<path fill="#810F7B" fill-opacity="0.8" stroke="#505050" d="M774.044,288.405l-0.93-4.941l1.215-5.387l-5.021-3.117
			l-11.865-3.482l-2.43-16.846l12.998-6.277l19.033,1.336l11.178-2.025l1.578,4.252l6.033,1.297l10.934,9.801l1.053,8.908
			l-9.312,6.357l-2.633,11.016l-12.311,7.289l-10.975-0.162l-2.713-5.912L774.044,288.405z"/>
		<path fill="#810F7B" fill-opacity="0.8" stroke="#505050" d="M660.011,263.095l-6.805,16.076l-11.863-11.176l-1.58-8.303
			l16.643-6.721L660.011,263.095z M639.843,245.884l-2.793,7.695l-3.361-2.229l-8.18,14.539l3.078,9.678l-7.25,2.996l-8.584-2.592
			l-4.617-11.014l-0.324-20.734l1.904-5.588l3.238-6.236l10.004-1.297l3.967-5.791l9.152-5.953l-0.404,10.853l-3.361,6.803
			l1.377,5.791L639.843,245.884z"/>
		<path fill="#810F7B" fill-opacity="0.8" stroke="#505050" d="M584.567,366.155l2.268,3.969l-0.648,7.654l-3.279,0.404
			l-2.551-1.539l1.254-9.84L584.567,366.155z"/>
		<path fill="#810F7B" fill-opacity="0.8" stroke="#505050" d="M900.876,596.978l7.654-5.912l-10.326,4.131l-8.18-0.203
			l-1.621,3.361l-0.809,0.082l-5.387,0.486l2.633,5.547l5.547,1.781l11.662-5.588l-0.363-1.094L900.876,596.978z"/>
		<path fill="#810F7B" fill-opacity="0.8" stroke="#505050" d="M785.019,590.581l6.197,4.697l8.828-0.77l8.463,0.971l-0.283,2.43
			l6.195-1.66l-1.418,4.09l-16.359,1.176l0.121-2.268l-13.848-2.715L785.019,590.581z M818.022,505.702l-3.523,9.436l-2.713,1.66
			l-6.924-0.404l-5.912-1.418l-13.77,3.887l7.855,8.342l-5.75,2.391h-6.316l-5.994-7.613l-2.146,3.238l2.553,8.828l5.668,6.885
			l-4.291,3.199l6.316,6.682l5.629,4.172l0.162,8.098l-5.508-4.656l-5.021,0.85l3.361,7.289l-3.725,0.77l-4.051-2.793l4.859,15.994
			h-2.348l-1.822-5.061l-2.309-0.082l-1.053,5.346l-1.822-1.215l0.404-2.996l-2.268-4.211h-2.592l0.486,3.4l-1.012,1.094
			l-2.512-2.188l-1.539-4.09l2.105-2.309l-1.457-2.996l-1.66-1.539l-1.701-0.363l-1.984-3.807l2.35-2.105l1.457-1.945l2.268,0.406
			l1.014-1.66l2.389-0.648l2.754,1.863l2.227,0.688l1.58-2.51l-3.807-0.324l-2.268-0.77l-5.062,1.133l-4.939,0.203l-4.414-6.641
			l-0.73-1.014l0.689-2.592l-5.75-4.656l-0.77-4.172l5.264-7.127l0.689-4.818l3.684-2.146l0.244-3.928l7.41-1.336l4.332-3.281
			l6.156,0.285l1.863-2.633l2.146-0.486l8.383,0.445l9.111-4.131l8.018,5.266l10.326-1.418l0.121-7.531L818.022,505.702z
			 M682.882,593.763l7.828-0.77l-3.279,4.738L682.882,593.763z"/>
		<path fill="#810F7B" fill-opacity="0.8" stroke="#505050" d="M729.743,437.589l2.754,6.277l3.604,4.615l-4.373,6.035l-5.143-3.564
			l-7.857,0.244l-9.758-2.674l-5.305,0.365l-2.43,3.32l-4.092-3.686l-2.389,6.641l5.588,7.412l2.43,4.898l5.225,5.873l4.334,3.441
			l4.291,6.52l10.043,5.832l-1.256,2.592l-10.65-5.67l-6.6-5.588l-10.367-4.617l-9.557-11.541l2.309-1.215l-5.184-6.641
			l-0.242-5.426l-7.291-2.512l-3.482,6.926l-3.361-5.387l0.285-5.588l0.404-0.244l7.896,0.568l2.105-2.754l3.848,2.631l4.455,0.324
			l-0.041-4.535l3.928-1.66l1.133-6.561l9.031-4.373l3.604,2.025l8.504,7.006l9.355,3.117L729.743,437.589z"/>
		<polyline fill="#001798" stroke="#505050" points="773.192,-48.807 771.892,-50.268 750.354,-74.454 743.374,-73.271 
			741.69,-52.545 720.374,-57.271 718.989,-48.808 717.312,-39.243 		"/>
		<path fill="#001798" stroke="#505050" d="M773.192-48.807l10.328,56.822l3.807,10.934l-19.518,7.856l-11.016,18.993l1.781,16.279
			L740.515,82.85l-21.908,21.625l-8.301,34.057l8.1,16.481l10.852,12.716l-10.406,25.229l-11.826,5.103l-4.332,35.797l-6.439,19.277
			l-13.768-1.984l-6.439,15.994l-13.16,0.932l-3.604-19.072l-9.518-23.529l-8.625-30.372l5.021-12.756l9.436-15.429l3.766-27.253
			l-7.248-12.067l-0.729-32.558l7.41-23.933l11.258,0.445l3.928-10.326l-4.131-9.031l17.615-38.47l11.379-31.87l7.492-21.219
			l10.893,0.081"/>
		<path fill="#001798" stroke="#505050" d="M750.354-74.454l6.805-8.423l12.633,16.806l14.822-1.579l11.26,7.879l11.5-14.683
			l5.871-23.204l17.615-11.257l14.537,13.161c-4.477,12.517-6.479,45.658-6.479,45.658l17.412,20.207L845.843-7.698l13.201,32.234
			l-7.652,23.325l10.244,19.681l-4.656,16.765l16.805,17.251l-4.291,12.554l-10.529,13.971l-24.297,30.007l-20.613,1.822
			l-19.963,8.383l-18.467,4.778l-6.6-12.432l-10.975-7.572l2.51-23.164l-5.508-21.908l5.428-14.498l10.285-15.955l25.957-28.428
			l7.613-5.629l-1.215-11.5l-15.793-13.04l-3.807-10.934l-7.725-42.498l-2.604-14.324L750.354-74.454z"/>
		<path fill="#001798" stroke="#505050" d="M718.989-48.808l-1.678,9.564l-10.893-0.122l-7.492,21.22l-11.338,31.87l-17.615,38.471
			l4.129,9.03l-3.967,10.326l-11.258-0.445l-7.371,23.933l0.689,32.558l7.248,12.068l-3.766,27.253l-9.436,15.429l-5.021,12.756
			l-7.613-13.565l-22.436,25.39l-15.145,5.021l-15.711-10.974l-4.051-23.73l-3.604-53.696l10.447-15.712l29.967-20.977
			l22.434-26.687l20.775-37.661l27.293-55.721l12.93-15.598l37.326-48.567l24.904-14.538l18.668,1.782l17.291-28.306l20.693,1.539
			l20.367-7.046l35.516,25.27l-14.619,9.03l12.432,20.693l-19.316,12.918l-7.396,2.762h-2.5l5.523-22.483l-14.537-13.161
			l-17.615,11.257l-6.371,24.387l-11,13.5l-11.26-7.879l-14.822,1.579l-12.633-16.806l-6.805,8.423l-6.98,1.183l-1.684,20.726
			l-21.316-4.726L718.989-48.808z"/>
		<path fill="#001798" stroke="#505050" d="M445.587,297.313l1.863,13.605l-8.585,16.685l-20.126,10.853l-16.076-2.754l9.191-19.355
			l-5.912-19.316l15.43-15.186l8.584-9.193l2.35,10.529l-2.35,10.406l7.047-0.242L445.587,297.313z"/>
		<path fill="#001798" stroke="#505050" d="M699.897,422.12l3.768-10.732l-2.188-3.604l6.398-0.041l0.85-6.924l5.791,4.332
			l4.172,1.863l9.557-2.064l0.891-3.402l4.535-0.525l5.508-2.633l1.215,1.094l5.346-2.105l2.672-4.051l3.727-1.012l12.148,5.184
			l2.43-1.742l6.275,4.617l0.811,4.535l-6.924,3.523l-5.387,11.338l-6.844,11.178l-9.111,3.076l-7.086-0.688l-8.707,4.252
			l-4.252,2.43l-9.355-3.117l-8.504-7.006l-3.604-2.025l-2.227-5.549L699.897,422.12z"/>
	</g>
</g>
<g id="colors" display="none">
	<ellipse display="inline" fill="#810F7B" stroke="#505050" cx="1417.016" cy="312.126" rx="27.606" ry="27.715"/>
	<circle display="inline" fill="none" stroke="#818181" cx="1417.016" cy="374.97" r="25.785"/>
	<circle display="inline" fill="#C4C4C4" cx="1417.016" cy="557.714" r="25.785"/>
	<circle display="inline" fill="none" stroke="#505050" cx="1417.016" cy="435.884" r="25.786"/>
	<circle display="inline" fill="#48FFD9" stroke="#666666" cx="1417.016" cy="496.799" r="25.786"/>
	<rect x="1322.227" y="368.011" display="inline" fill="#001798" stroke="#505050" width="12.703" height="152.589"/>
	<rect x="1341.281" y="366.893" display="inline" fill="#810F7B" stroke="#505050" width="12.703" height="152.589"/>
</g>
</svg>
