<?xml version="1.0" encoding="utf-8"?>
<!-- Generator: Adobe Illustrator 19.2.1, SVG Export Plug-In . SVG Version: 6.00 Build 0)  -->
<svg version="1.1" id="Livello_1" xmlns="http://www.w3.org/2000/svg" xmlns:xlink="http://www.w3.org/1999/xlink" x="0px" y="0px"
	 viewBox="0 0 750 364.1" style="enable-background:new 0 0 750 364.1;" xml:space="preserve">
<style type="text/css">
	.st0{fill:#3B4259;}
	.st1{fill:#FFFFFF;}
	.st2{fill:#EFEFEF;}
	.st3{fill:#B1B3BD;}
	.st4{font-family:'FiraSans-Medium';}
	.st5{font-size:16px;}
	.st6{letter-spacing:4px;}
	.st7{font-family:'FiraSans-Regular';}
	.st8{font-size:12px;}
	.st9{letter-spacing:3px;}
</style>
<g>
	<rect x="-1" y="24" class="st0" width="515.9" height="339.1"/>
	<path class="st1" d="M513.9,25v337.1H0V25H513.9 M515.9,23h-2H0h-2v2v337.1v2h2h513.9h2v-2V25V23L515.9,23z"/>
</g>
<g>
	<rect x="512.9" y="24" class="st2" width="238.1" height="283.2"/>
	<path class="st1" d="M750,25v281.1H513.9V25H750 M752,23h-2H513.9h-2v2v281.1v2h2H750h2v-2V25V23L752,23z"/>
</g>
<g>
	<rect x="512.9" y="305.2" class="st3" width="238.1" height="57.9"/>
	<path class="st1" d="M750,306.1v56H513.9v-56H750 M752,304.1h-2H513.9h-2v2v56v2h2H750h2v-2v-56V304.1L752,304.1z"/>
</g>
<g>
	<text transform="matrix(1 0 0 1 29.9998 69.2886)" class="st1 st4 st5 st6">Natural</text>
	<text transform="matrix(1 0 0 1 29.9998 332.0997)" class="st1 st7 st8 st9">Cannabis, Cocaine, Khat</text>
</g>
<g>
	<text transform="matrix(1 0 0 1 533.8674 348.8404)" class="st1 st7 st8 st9">Heroin, LSD</text>
	<text transform="matrix(1 0 0 1 533.8674 331.1001)" class="st1 st4 st5 st6">Semisynthetic</text>
</g>
<g>
	<text transform="matrix(1 0 0 1 533.8666 272.1502)" class="st0 st7 st8 st9">Amphetamine, </text>
	<text transform="matrix(1 0 0 1 533.8666 286.5502)" class="st0 st7 st8 st9">Metamphetamine</text>
	<text transform="matrix(1 0 0 1 533.8668 69.2885)" class="st0 st4 st5 st6">Synthetic</text>
</g>
</svg>
