<?xml version="1.0" encoding="utf-8"?>
<!-- Generator: Adobe Illustrator 19.2.1, SVG Export Plug-In . SVG Version: 6.00 Build 0)  -->
<svg version="1.1" id="Livello_1" xmlns="http://www.w3.org/2000/svg" xmlns:xlink="http://www.w3.org/1999/xlink" x="0px" y="0px"
	 viewBox="0 0 740 73.4" style="enable-background:new 0 0 740 73.4;" xml:space="preserve">
<style type="text/css">
	.st0{fill:none;}
	.st1{fill:#E5F229;}
	.st2{fill:#E32D76;}
	.st3{fill:#3B4259;}
	.st4{font-family:'FiraSans-Regular';}
	.st5{font-size:12px;}
	.st6{letter-spacing:3px;}
	.st7{fill:#12DE97;stroke:#F7F0F1;stroke-width:0.5;}
	.st8{fill:#E5F229;stroke:#F7F0F1;stroke-width:0.5;}
	.st9{fill:#E32D76;stroke:#F7F0F1;stroke-width:0.5;}
	.st10{fill:url(#SVGID_1_);fill-opacity:0.8;stroke:#F7F0F1;stroke-width:0.5;}
</style>
<pattern  y="63.4" width="25.4" height="152.6" patternUnits="userSpaceOnUse" id="SVGID_2_" viewBox="0 -152.6 25.4 152.6" style="overflow:visible;">
	<g>
		<rect y="-152.6" class="st0" width="25.4" height="152.6"/>
		<g>
			<rect y="-152.6" class="st0" width="25.4" height="152.6"/>
			<g>
				<rect y="-152.6" class="st0" width="25.4" height="152.6"/>
				<g>
					<polygon class="st0" points="0,0 25.4,0 25.4,-152.6 0,-152.6 					"/>
					<polygon class="st1" points="0,0 0,-152.6 12.7,-152.6 12.7,0 					"/>
					<polygon class="st2" points="25.4,0 12.7,0 12.7,-152.6 25.4,-152.6 					"/>
				</g>
			</g>
		</g>
	</g>
</pattern>
<text transform="matrix(1 0 0 1 34.5051 31.3675)" class="st3 st4 st5 st6">Not illegal</text>
<circle class="st7" cx="12.6" cy="28.3" r="12.6"/>
<text transform="matrix(1 0 0 1 198.8484 31.3675)" class="st3 st4 st5 st6">Administrative offence</text>
<circle class="st8" cx="176.9" cy="28.3" r="12.6"/>
<text transform="matrix(1 0 0 1 463.5129 31.3675)" class="st3 st4 st5 st6">Penal offence</text>
<circle class="st9" cx="442.6" cy="28.3" r="12.6"/>
<text transform="matrix(1 0 0 1 646.3391 31.3675)" class="st3 st4 st5 st6">Both </text>
<pattern  id="SVGID_1_" xlink:href="#SVGID_2_" patternTransform="matrix(0.4825 -0.2785 -0.2785 -0.4825 -15909.2373 -15435.2676)">
</pattern>
<circle class="st10" cx="624.5" cy="28.3" r="12.6"/>
</svg>
