<?xml version="1.0" encoding="utf-8"?>
<!-- Generator: Adobe Illustrator 19.2.1, SVG Export Plug-In . SVG Version: 6.00 Build 0)  -->
<svg version="1.1" id="Livello_1" xmlns="http://www.w3.org/2000/svg" xmlns:xlink="http://www.w3.org/1999/xlink" x="0px" y="0px"
	 viewBox="0 0 1170 526" style="enable-background:new 0 0 1170 526;" xml:space="preserve">
<style type="text/css">
	.st0{fill:none;}
	.st1{fill:#E5F229;}
	.st2{fill:#E32D76;}
	.st3{fill:#001798;}
	.st4{fill:#810F7B;}
	.st5{fill:#EFEFEF;}
	.st6{fill:#C4C4C4;stroke:#C4C4C4;stroke-miterlimit:10;}
	.st7{fill:#C4C4C4;}
	.st8{fill:#C4C4C4;stroke:#898989;}
	.st9{fill:#E5F229;stroke:#3B4259;}
	.st10{fill:#E32D76;stroke:#3B4259;stroke-linejoin:bevel;}
	.st11{fill:none;stroke:#3B4259;stroke-miterlimit:10;}
	.st12{fill:url(#SVGID_6_);fill-opacity:0.8;stroke:#3B4259;}
	.st13{fill:url(#SVGID_8_);fill-opacity:0.8;stroke:#3B4259;}
	.st14{fill:url(#SVGID_10_);fill-opacity:0.8;stroke:#3B4259;}
	.st15{fill:url(#SVGID_12_);fill-opacity:0.8;stroke:#3B4259;}
	.st16{fill:url(#SVGID_14_);fill-opacity:0.8;stroke:#3B4259;}
	.st17{fill:url(#SVGID_16_);fill-opacity:0.8;stroke:#3B4259;}
	.st18{fill:#12DE97;stroke:#3B4259;}
	.st19{fill:#E32D76;stroke:#3B4259;}
	.st20{fill:url(#SVGID_17_);fill-opacity:0.8;stroke:#3B4259;}
	.st21{fill:url(#SVGID_18_);fill-opacity:0.8;stroke:#3B4259;}
	.st22{fill:url(#SVGID_19_);fill-opacity:0.8;stroke:url(#SVGID_20_);}
	.st23{fill:#3B4259;}
	.st24{font-family:'FiraSans-Medium';}
	.st25{font-size:16px;}
	.st26{letter-spacing:4px;}
</style>
<pattern  y="587.7" width="25.4" height="152.6" patternUnits="userSpaceOnUse" id="SVGID_1_" viewBox="0 -152.6 25.4 152.6" style="overflow:visible;">
	<g>
		<rect y="-152.6" class="st0" width="25.4" height="152.6"/>
		<g>
			<rect y="-152.6" class="st0" width="25.4" height="152.6"/>
			<g>
				<rect y="-152.6" class="st0" width="25.4" height="152.6"/>
				<g>
					<rect y="-152.6" class="st0" width="25.4" height="152.6"/>
					<g>
						<rect y="-152.6" class="st0" width="25.4" height="152.6"/>
						<g>
							<polygon class="st0" points="0,0 25.4,0 25.4,-152.6 0,-152.6 							"/>
							<polygon class="st1" points="0,0 0,-152.6 12.7,-152.6 12.7,0 							"/>
							<polygon class="st2" points="25.4,0 12.7,0 12.7,-152.6 25.4,-152.6 							"/>
						</g>
					</g>
				</g>
			</g>
		</g>
	</g>
</pattern>
<pattern  y="587.7" width="25.4" height="152.6" patternUnits="userSpaceOnUse" id="SVGID_11_" viewBox="0 -152.6 25.4 152.6" style="overflow:visible;">
	<g>
		<rect y="-152.6" class="st0" width="25.4" height="152.6"/>
		<g>
			<rect y="-152.6" class="st0" width="25.4" height="152.6"/>
			<g>
				<rect y="-152.6" class="st0" width="25.4" height="152.6"/>
				<g>
					<rect y="-152.6" class="st0" width="25.4" height="152.6"/>
					<g>
						<rect y="-152.6" class="st0" width="25.4" height="152.6"/>
						<g>
							<polygon class="st0" points="0,0 25.4,0 25.4,-152.6 0,-152.6 							"/>
							<polygon class="st1" points="0,0 0,-152.6 12.7,-152.6 12.7,0 							"/>
							<polygon class="st2" points="25.4,0 12.7,0 12.7,-152.6 25.4,-152.6 							"/>
						</g>
					</g>
				</g>
			</g>
		</g>
	</g>
</pattern>
<pattern  y="587.7" width="25.4" height="152.6" patternUnits="userSpaceOnUse" id="SVGID_13_" viewBox="0 -152.6 25.4 152.6" style="overflow:visible;">
	<g>
		<rect y="-152.6" class="st0" width="25.4" height="152.6"/>
		<g>
			<rect y="-152.6" class="st0" width="25.4" height="152.6"/>
			<g>
				<rect y="-152.6" class="st0" width="25.4" height="152.6"/>
				<g>
					<rect y="-152.6" class="st0" width="25.4" height="152.6"/>
					<g>
						<rect y="-152.6" class="st0" width="25.4" height="152.6"/>
						<g>
							<polygon class="st0" points="0,0 25.4,0 25.4,-152.6 0,-152.6 							"/>
							<polygon class="st1" points="0,0 0,-152.6 12.7,-152.6 12.7,0 							"/>
							<polygon class="st2" points="25.4,0 12.7,0 12.7,-152.6 25.4,-152.6 							"/>
						</g>
					</g>
				</g>
			</g>
		</g>
	</g>
</pattern>
<pattern  y="587.7" width="25.4" height="152.6" patternUnits="userSpaceOnUse" id="SVGID_15_" viewBox="0 -152.6 25.4 152.6" style="overflow:visible;">
	<g>
		<rect y="-152.6" class="st0" width="25.4" height="152.6"/>
		<g>
			<rect y="-152.6" class="st0" width="25.4" height="152.6"/>
			<g>
				<rect y="-152.6" class="st0" width="25.4" height="152.6"/>
				<g>
					<rect y="-152.6" class="st0" width="25.4" height="152.6"/>
					<g>
						<rect y="-152.6" class="st0" width="25.4" height="152.6"/>
						<g>
							<polygon class="st0" points="0,-152.6 25.4,-152.6 25.4,0 0,0 							"/>
							<polygon class="st3" points="0,0 0,-152.6 12.7,-152.6 12.7,0 							"/>
							<polygon class="st4" points="25.4,0 12.7,0 12.7,-152.6 25.4,-152.6 							"/>
						</g>
					</g>
				</g>
			</g>
		</g>
	</g>
</pattern>
<pattern  y="587.7" width="25.4" height="152.6" patternUnits="userSpaceOnUse" id="SVGID_2_" viewBox="0 -152.6 25.4 152.6" style="overflow:visible;">
	<g>
		<rect y="-152.6" class="st0" width="25.4" height="152.6"/>
		<g>
			<rect y="-152.6" class="st0" width="25.4" height="152.6"/>
			<g>
				<rect y="-152.6" class="st0" width="25.4" height="152.6"/>
				<g>
					<rect y="-152.6" class="st0" width="25.4" height="152.6"/>
					<g>
						<rect y="-152.6" class="st0" width="25.4" height="152.6"/>
						<g>
							<polygon class="st0" points="0,0 25.4,0 25.4,-152.6 0,-152.6 							"/>
							<polygon class="st1" points="0,0 0,-152.6 12.7,-152.6 12.7,0 							"/>
							<polygon class="st2" points="25.4,0 12.7,0 12.7,-152.6 25.4,-152.6 							"/>
						</g>
					</g>
				</g>
			</g>
		</g>
	</g>
</pattern>
<pattern  y="587.7" width="25.4" height="152.6" patternUnits="userSpaceOnUse" id="SVGID_3_" viewBox="0 -152.6 25.4 152.6" style="overflow:visible;">
	<g>
		<rect y="-152.6" class="st0" width="25.4" height="152.6"/>
		<g>
			<rect y="-152.6" class="st0" width="25.4" height="152.6"/>
			<g>
				<rect y="-152.6" class="st0" width="25.4" height="152.6"/>
				<g>
					<rect y="-152.6" class="st0" width="25.4" height="152.6"/>
					<g>
						<rect y="-152.6" class="st0" width="25.4" height="152.6"/>
						<g>
							<polygon class="st0" points="0,0 25.4,0 25.4,-152.6 0,-152.6 							"/>
							<polygon class="st1" points="0,0 0,-152.6 12.7,-152.6 12.7,0 							"/>
							<polygon class="st2" points="25.4,0 12.7,0 12.7,-152.6 25.4,-152.6 							"/>
						</g>
					</g>
				</g>
			</g>
		</g>
	</g>
</pattern>
<pattern  y="587.7" width="25.4" height="152.6" patternUnits="userSpaceOnUse" id="SVGID_4_" viewBox="0 -152.6 25.4 152.6" style="overflow:visible;">
	<g>
		<rect y="-152.6" class="st0" width="25.4" height="152.6"/>
		<g>
			<rect y="-152.6" class="st0" width="25.4" height="152.6"/>
			<g>
				<rect y="-152.6" class="st0" width="25.4" height="152.6"/>
				<g>
					<rect y="-152.6" class="st0" width="25.4" height="152.6"/>
					<g>
						<rect y="-152.6" class="st0" width="25.4" height="152.6"/>
						<g>
							<polygon class="st0" points="0,0 25.4,0 25.4,-152.6 0,-152.6 							"/>
							<polygon class="st1" points="0,0 0,-152.6 12.7,-152.6 12.7,0 							"/>
							<polygon class="st2" points="25.4,0 12.7,0 12.7,-152.6 25.4,-152.6 							"/>
						</g>
					</g>
				</g>
			</g>
		</g>
	</g>
</pattern>
<pattern  y="587.7" width="25.4" height="152.6" patternUnits="userSpaceOnUse" id="SVGID_5_" viewBox="0 -152.6 25.4 152.6" style="overflow:visible;">
	<g>
		<rect y="-152.6" class="st0" width="25.4" height="152.6"/>
		<g>
			<rect y="-152.6" class="st0" width="25.4" height="152.6"/>
			<g>
				<rect y="-152.6" class="st0" width="25.4" height="152.6"/>
				<g>
					<rect y="-152.6" class="st0" width="25.4" height="152.6"/>
					<g>
						<rect y="-152.6" class="st0" width="25.4" height="152.6"/>
						<g>
							<polygon class="st0" points="0,0 25.4,0 25.4,-152.6 0,-152.6 							"/>
							<polygon class="st1" points="0,0 0,-152.6 12.7,-152.6 12.7,0 							"/>
							<polygon class="st2" points="25.4,0 12.7,0 12.7,-152.6 25.4,-152.6 							"/>
						</g>
					</g>
				</g>
			</g>
		</g>
	</g>
</pattern>
<pattern  y="587.7" width="25.4" height="152.6" patternUnits="userSpaceOnUse" id="SVGID_7_" viewBox="0 -152.6 25.4 152.6" style="overflow:visible;">
	<g>
		<rect y="-152.6" class="st0" width="25.4" height="152.6"/>
		<g>
			<rect y="-152.6" class="st0" width="25.4" height="152.6"/>
			<g>
				<rect y="-152.6" class="st0" width="25.4" height="152.6"/>
				<g>
					<rect y="-152.6" class="st0" width="25.4" height="152.6"/>
					<g>
						<rect y="-152.6" class="st0" width="25.4" height="152.6"/>
						<g>
							<polygon class="st0" points="0,0 25.4,0 25.4,-152.6 0,-152.6 							"/>
							<polygon class="st1" points="0,0 0,-152.6 12.7,-152.6 12.7,0 							"/>
							<polygon class="st2" points="25.4,0 12.7,0 12.7,-152.6 25.4,-152.6 							"/>
						</g>
					</g>
				</g>
			</g>
		</g>
	</g>
</pattern>
<pattern  y="587.7" width="25.4" height="152.6" patternUnits="userSpaceOnUse" id="SVGID_9_" viewBox="0 -152.6 25.4 152.6" style="overflow:visible;">
	<g>
		<rect y="-152.6" class="st0" width="25.4" height="152.6"/>
		<g>
			<rect y="-152.6" class="st0" width="25.4" height="152.6"/>
			<g>
				<rect y="-152.6" class="st0" width="25.4" height="152.6"/>
				<g>
					<rect y="-152.6" class="st0" width="25.4" height="152.6"/>
					<g>
						<rect y="-152.6" class="st0" width="25.4" height="152.6"/>
						<g>
							<polygon class="st0" points="0,0 25.4,0 25.4,-152.6 0,-152.6 							"/>
							<polygon class="st1" points="0,0 0,-152.6 12.7,-152.6 12.7,0 							"/>
							<polygon class="st2" points="25.4,0 12.7,0 12.7,-152.6 25.4,-152.6 							"/>
						</g>
					</g>
				</g>
			</g>
		</g>
	</g>
</pattern>
<g id="nulla">
</g>
<g id="amministrativo">
</g>
<g id="penale">
</g>
<g>
	<path class="st5" d="M884.5,521.6c-118.6,0-214.8-96.1-214.8-214.8C669.7,188.2,765.9,92,884.5,92s214.8,96.2,214.8,214.8
		S1003.1,521.6,884.5,521.6z"/>
	<path class="st6" d="M955.7,394.2l-0.8,2.9l0.9,3.6l2.7,2.1l-0.1,2.2l-2.1,1.2l-0.4,2.7l-3,4l-1.1-0.6l-0.1-1.8l-3.6-2.8l-0.5-4
		l0.5-5.8l0.9-2.7l-1.1-1.4l-0.4-2.7l2.8-4.3l0.4,1.6l1.7-0.8l1.4,2.3l1.5,0.9L955.7,394.2z"/>
	<path class="st6" d="M974.3,278.3l6.2,0.1l7-4.1l1.5-6.2l5.3-3.6l-0.6-5l3.9-1.9l6.9-4.4l6.8,2.9l0.9,2.8l3.4-1.4l6.3,2.7l0.6,5.3
		l-1.4,3l4,7.2l2.6,2l-0.4,2l4.3,1.9l1.9,2.9l-2.5,2.3l-5.2-0.4l-1.2,1l1.5,3.5l1.6,6.7l-5.5,0.6l-2,2.3l-0.4,5.2l-2.5-1l-5.8,0.5
		l-1.7-2.4l-2.4,1.8l-2.4-1.5l-5.1-0.2l-7.2-2.5l-6.5-0.8l-5,0.2l-3.5,2.8l-3.1,0.4l-0.1-4.6l-2-4.9l3.8-2.2v-4.2l-1.8-4.1
		L974.3,278.3z"/>
	<path class="st6" d="M956.9,392.5l-0.3,1.8l-0.8-0.1l-0.4-3.1l-1.5-0.9l-1.4-2.3l1.2-1.9l1.5-0.6l0.9-2.9l1.1-0.5l0.9,1.2l1.2,0.5
		l0.8,1.4l1.1,0.4l1.3,1.6h0.9l-0.7,2.1l-0.8,1l0.2,0.6l-1.4,0.3L956.9,392.5z"/>
	<path class="st6" d="M994.4,336.5l1.5-1.4l4.3-1l4.7,3l2.6,0.4l2.9,2.6l-0.5,3.2l2.3,1.5l0.9,3.9l2.2,2.4l-0.4,1.4l1.2,1l-1.7,0.7
		l-3.8-0.3l-0.6-1.3l-1.3,0.8l0.5,1.6l-1.8,3l-1.1,3.1l-1.6,1l-1.2-4.2l0.7-3.9l-0.2-4.1l-3.7-5.6l-2-4l-2-2.8L994.4,336.5z"/>
	<path class="st6" d="M950.7,388.6l-0.4-1.6l-2.8,4.3l0.4,2.7l-1.4-0.7l-1.8-2.8l-2.8-1.7l0.7-1.5l0.9-4.8l2.1-2l1.2-0.8l1.7,1.5
		l0.9,1.2l2.1,0.9l2.4,1.8l-0.5,0.8l-1.2,1.9L950.7,388.6z"/>
	<path class="st6" d="M955.7,394.2l0.8,0.1l0.3-1.8l3.8-1.4l1.4-0.3l2.2-0.5l3-0.1l3.2,2.8l0.5,5.7l-1.2,0.3l-1.1,1.5l-3.5-0.2
		l-2.4,1.9l-4.2,0.7l-2.7-2.1l-0.9-3.6L955.7,394.2z"/>
	<path class="st6" d="M945.6,367.7h2.3l-1.6,3.9l3.1,3.4l-0.9,4.2l-1.5,0.4l-1.2,0.8l-2.1,2l-0.9,4.8L937,384l-2.4-3.7l-2.5-1.9
		l-3-3.3l-1.4-2.8l-3.2-4.2l1.3-3.8l2.3,2.1l1.4-1.9l3-0.2l5.5,1.5l4.4-0.1L945.6,367.7z"/>
	<path class="st6" d="M957.6,362.7l3.9,2.2l0.5,3.7l3.7,2.6l2-2l1.6,1.1l-1.5,1.5l1.2,1.6l-1.6,2l0.6,3.3l3.1,3.8l-2.5,2.7l-1.1,2.8
		l0.7,1l-1.1,1.2l-3,0.1l-2.2,0.5l-0.2-0.6l0.8-1l0.7-2.1h-0.9l-1.3-1.6l-1.1-0.4l-0.8-1.4l-1.2-0.5L957,382l-1.1,0.5l-0.9,2.9
		l-1.5,0.6l0.5-0.8l-2.4-1.8l-2.1-0.9l-0.9-1.2l-1.7-1.5l1.5-0.4l0.9-4.2l-3.1-3.4l1.6-3.9h-2.3l2.5-3.4l-2-2.6l-1.6-3.5l4.9-2.4
		l4,0.4l3.5,3.6L957.6,362.7z"/>
	<path class="st7" d="M885.1,343.1l0.3,1.7l-1,2.3l2.9,1.7l3.3,0.3l-0.5,3.8l-2.8,1.6l-4.8-1.2l-1.4,3.7l-3,0.3l-1.1-1.5l-3.6,3.1
		l-3.1,0.4l-2.8-2l-2.2-4.1l-3.1,1.5l0.1-4.2l4.7-5.3l-0.2-2.4l2.9,0.9l1.8-1.6l5.4,0.1l1.3-2.1L885.1,343.1z"/>
	<path class="st8" d="M1098.4,383.6"/>
	<path class="st6" d="M1027.6,297.6l2.4,0.4l1.6-2.4l1.9,0.5l6.7-1l4.1,5.9l-1.6,2.1l0.5,3.2l5.1,0.5l2.3,4.4l-0.1,2l8.2,3.5
		l4.9-1.6l4,4.7l3.8-0.1l9.5,3.2l0.1,2.9l-2.6,5.1l1.4,5.3l-1,3.2l-6.2,0.7l-3.3,2.7l-0.2,4.2l-5.1,0.8l-4.3,3l-6,0.5l-5.5,3.5
		l-3,2.4l3.4,3.4l3.1,2.2l6.5-0.5l-1.3,3.3l-7,1.6l-8.7,5.2l-3.5-1.8l1.4-4.2l-7-2.7l1.1-1.8l7.2-3.7l-0.9-1.9l-1,0.9l-1-0.5
		l-10-2.3l-0.4-3.5l-6,1.1l-2.4,5.1l-5,6.8l-2.9-1.6l-3,1.5l-2.9-1.7l1.6-1l1.1-3.1l1.8-3l-0.5-1.6l1.3-0.7l0.6,1.3l3.8,0.3l1.7-0.7
		l-1.2-1l0.4-1.4l-2.2-2.4l-0.9-3.9l-2.3-1.5l0.5-3.2l-2.9-2.6l-2.6-0.4l-4.7-3l-4.3,1l-1.5,1.4h-2.7l-1.6,2.2l-4.7,0.9l-2.2,1.5
		l-3-2.3h-4.1l-4-1.1l-2.8,2l-0.5-2.6l-3.5-2.6l1.3-3.9l1.8-2.5l1.4,0.5l-1.7-4.4l5.8-8.3l3.2-1.2l0.7-2.8l-3.2-8.9l3.1-0.4l3.5-2.8
		l5-0.2l6.5,0.8l7.2,2.5l5.1,0.2l2.4,1.5l2.4-1.8l1.7,2.4l5.8-0.5l2.5,1l0.4-5.2l2-2.3L1027.6,297.6z"/>
	<path class="st6" d="M884.7,485.8l-2.7-13.4l-3.9-3l-0.1-1.9l-5.2-4.5l-0.6-5.8l4-4.3l1.5-6.5l-1-7.5l1.3-4.1l7-3.2l4.5,1l-0.2,4.1
		l5.4-3l0.5,1.5l-3.2,3.9v3.7l2.2,1.9l-0.8,6.8l-4.2,3.9l1.2,4.2l3.3,0.1l1.6,3.6l2.4,1.2l-0.4,5.8l-3.1,2.2l-2,2.4l-4.4,2.9
		l0.7,3.1l-0.5,3.2L884.7,485.8z"/>
	<g>
		<path class="st0" d="M1099.7,303c-0.1-5-0.3-9.9-0.8-14.8l-0.2,39.2C1099.5,319.4,1099.8,311.3,1099.7,303z"/>
		<path class="st0" d="M1086.2,380.9l-5.4-1.5l-0.8,1l-8.2-7.5l-7.3-3.4l-5.5-5.3l4.7-1.5l5.3-7.7l-3.6-3.7l9.5-3.8l-0.2-2.1
			l-5.8,1.5l0.2-4.2l3.3-2.7l6.2-0.7l1-3.2l-1.4-5.3l2.6-5.1l-0.1-2.9l-9.5-3.2l-3.8,0.1l-4-4.7l-4.9,1.6l-8.2-3.5l0.1-2l-2.3-4.4
			l-5.1-0.5l-0.5-3.2l1.6-2.1l-4.1-5.9l-6.7,1l-1.9-0.5l-1.6,2.4l-2.4-0.4l-1.6-6.7l-1.5-3.5l1.2-1l5.2,0.4l2.5-2.3l-1.9-2.9
			l-4.3-1.9l0.4-2l-2.6-2l-4-7.2l1.4-3l-0.6-5.3l-6.3-2.7l-3.4,1.4l-0.9-2.8l-6.8-2.9l-2.1-6.8l-0.5-5.7l-3.1-2.7l2.7-3.8l-1.9-11.4
			l4.6-7.2l-1-2.2l7.3-7l-6.7-6.1l13.7-17l6-7.9l2.4-7.1l-9.5-9.8l2.6-9.5l-5.8-11.1l0.9-2.6c-36.9-27.8-83.1-44-132.9-43.1
			c-118.6,2.1-213.1,99.9-211,218.5s99.9,213,218.5,211C979.6,520,1056.5,461.8,1086.2,380.9L1086.2,380.9z M969.5,273.8l-11.8,0.2
			l-7.9-1.3l1.5-4.9l8.9-3.6l6.7,2l2.8,1.8l-0.7,3L969.5,273.8z"/>
		<path class="st7" d="M1019,148.9l-2.6,9.5l9.5,9.8l-2.4,7.1l-6,7.9l-13.7,17l6.7,6.1l-7.3,7l1,2.2l-4.6,7.2l1.9,11.4l-2.7,3.8
			l3.1,2.7l0.5,5.7l2.1,6.8l6.8,2.9l0.9,2.8l3.4-1.4l6.3,2.7l0.6,5.3l-1.4,3l4,7.2l2.6,2l-0.4,2l4.3,1.9l1.9,2.9l-2.5,2.3l-5.2-0.4
			l-1.2,1l1.5,3.5l1.6,6.7l2.4,0.4l1.6-2.4l1.9,0.5l6.7-1l4.1,5.9l-1.6,2.1l0.5,3.2l5.1,0.5l2.3,4.4l-0.1,2l8.2,3.5l4.9-1.6l4,4.7
			l3.8-0.1l9.5,3.2l0.1,2.9l-2.6,5.1l1.4,5.3l-1,3.2l-6.2,0.7l-3.3,2.7l-0.2,4.2l5.8-1.5l0.2,2.1l-9.5,3.8l3.6,3.7l-5.3,7.7
			l-4.7,1.5l5.5,5.3l7.3,3.4l8.2,7.5l0.8-1l5.4,1.5h0.3c6.2-17,10.4-34.9,12.2-53.5l0.2-39.2c-5.4-62.6-37.5-117.4-84.8-153
			l-0.9,2.6L1019,148.9z"/>
		<polygon class="st7" points="966.8,266.2 960.1,264.2 951.2,267.9 949.8,272.7 957.7,274 969.5,273.8 969,271 969.7,268 		"/>
	</g>
	<path class="st0" d="M760.8,479.3l2.4-6.5l0.9-4l4.1-5.1l6.4-3.5l4.8-3.2l4.3-8l2-4.8h4.7l3.9,3.3l6.1-0.5l6.6,1.7l2.8,0.1l6.2-4.3
		l7-1.4l4.1-3.3l6.2-2.4l10.9-1.4l10.6-0.7l3.2,1.2l6-3.1l6.9-0.1l2.6,1.9l4.4-0.5l-1.3,4.1l1,7.5l-1.5,6.5l-4,4.3l0.6,5.8l5.2,4.5
		l0.1,1.9l3.9,3l2.7,13.4l3.1-1.7l0.5-3.2l-0.7-3.1l4.4-2.9l2-2.4l3.1-2.2l0.4-5.8l7.5,2.6l2.7-0.7l5.4,1.3l8.5,3.4l3,6.7l5.8,1.5
		l9,3.1l6.8,3.7l3.1-1.9l3.1-3.4l-1.5-5.7l2-3.7l4.6-3.5l4.4-1l8.7,1.6l2.2,3.4h2.4l2,1.3l6.4,0.9l1.6,2.5l8.5-0.1l6.2,2l6.4,2.2
		l2.9,1.1c54.5-39,89.9-102.7,89.9-174.8c0-118.6-96.2-214.8-214.8-214.8s-214.8,96.2-214.8,214.8c0,72.8,36.3,137.2,91.7,176
		L760.8,479.3z"/>
	<path class="st6" d="M1000.1,478.3l-6.2-2l-8.5,0.1L983,480l1,3.2l-1.6,4.6l1.9,5.9v3.3c8.7-4.6,17.1-9.7,25-15.4l-2.9-1.1
		L1000.1,478.3z"/>
	<path class="st6" d="M982.4,487.8l1.6-4.6l-1-3.2l2.3-3.6l-1.6-2.5l-6.4-0.9l-2-1.3h-2.4l-2.2-3.4l-8.7-1.6l-4.4,1l-4.6,3.5l-2,3.7
		l1.5,5.7l-3.1,3.4l-3.1,1.9l-6.8-3.7l-9-3.1l-5.8-1.5l-3-6.7l-8.5-3.4l-5.4-1.3l-2.7,0.7l-7.5-2.6l-0.4,5.8l-3.1,2.2l-2,2.4
		l-4.4,2.9l0.7,3.1l-0.5,3.2l-3.1,1.7l2.1,6.5l0.3,3.4l-1.1,5.9l0.5,3.3l-0.8,3.9l0.6,4.5l-2.6,3l3.8,5.2l0,0
		c34.9-0.5,67.9-9.3,96.9-24.5v-3.3L982.4,487.8z"/>
	<path class="st6" d="M784.9,490l5.2-2l2.5-3.7l7.5-3l0.3-5.5l3.7-0.7l2.9-2.8l8.4-1.3l1.2-2.9l-1.7-1.6l-2.2-8.1l-0.4-4.7l-2.4-5
		l-2.8-0.1l-6.6-1.7l-6.1,0.5l-3.9-3.3h-4.7l-2,4.8l-4.3,8l-4.8,3.2l-6.4,3.5l-4.1,5.1l-0.9,4l-2.4,6.5l0.6,3.5
		c4.8,3.4,9.8,6.5,14.8,9.5l2.2-1.2L784.9,490z"/>
	<path class="st6" d="M883.6,516.3l2.6-3l-0.6-4.5l0.8-3.9l-0.5-3.3l1.1-5.9l-0.3-3.4l-2.1-6.5l-2.7-13.4l-3.9-3l-0.1-1.9l-5.2-4.5
		l-0.6-5.8l4-4.3l1.5-6.5l-1-7.5l1.3-4.1l-4.4,0.5l-2.6-1.9l-6.9,0.1l-6,3.1l-3.2-1.2l-10.6,0.7l-10.9,1.4l-6.2,2.4l-4.1,3.3l-7,1.4
		l-6.2,4.3l2.4,5l0.4,4.7l2.2,8.1l1.7,1.6l-1.2,2.9l-8.4,1.3l-2.9,2.8l-3.7,0.7l-0.3,5.5l-7.5,3l-2.5,3.7l-5.2,2l-6.4,1.1l-2.2,1.2
		c31.8,18.6,68.8,29.2,108.2,29.2c1,0,2,0,3,0l0,0L883.6,516.3z"/>
	<path class="st9" d="M765.6,393.9l0.3-6.1l-2.6-3.8l9.1-6.3l7.9,1.6l8.6-0.1l6.8,1.5l5.3-0.5l10.4,0.3l2.6,3.4l11.8,4l2.3-1.9
		l7.2,3.9l7.4-1.1l0.3,5l-6.1,5.7l-8.2,1.8l-0.6,2.8l-4,4.6l-2.5,6.8l2.5,4.7l-3.7,3.7l-1.4,5.3l-4.9,1.6l-4.6,6.2l-8.1,0.1
		l-6.1-0.1l-4,2.8l-2.5,3l-3.2-0.7l-2.4-2.7l-1.8-4.6l-6-1.2l-0.5-2.7l2.4-3l0.9-2.2l-2.2-2.4l1.8-5.4l-2.6-5l2.8-0.7l0.3-3.9
		l1.1-1.2l0.1-6.6l3-2.3l-1.8-4.3l-3.8-0.3l-1.1,1.1H772l-1.6-4.2l-2.6,1.3L765.6,393.9z"/>
	<path class="st9" d="M765.6,393.9l2.3-2.2l2.6-1.3l1.6,4.2h3.8l1.1-1.1l3.8,0.3l1.8,4.3l-3,2.3l-0.1,6.6l-1.1,1.2l-0.3,3.9
		l-2.8,0.7l2.6,5l-1.8,5.4l2.2,2.4l-0.9,2.2l-2.4,3l0.5,2.7l-2.6,2.1l-3.4-1.1l-3.3,0.9l1-6.3l-0.6-5l-2.9-0.8l-1.5-3.1l0.5-5.4
		l2.5-3l0.5-3.4l1.4-5.1l-0.2-3.6l-1.3-3.1L765.6,393.9z"/>
	<path class="st9" d="M979.6,234l0.8-7.1l-2.4,1.5l-4.1-4.3l-0.6-7.1l8.1-3.5l8.1-1.9l7,2.1l6.6-0.4l1,2.2l-4.6,7.2l1.9,11.4
		l-2.7,3.8h-5.3l-5.5-4.4l-2.8-1.5L979.6,234z"/>
	<path class="st9" d="M958.7,254.7l0.2-8.7l3.2-7.4l6-4.1l5.1,8.9l5.2-0.2l1.2-9.1l5.5-2.1l2.8,1.5l5.5,4.4h5.3l3.1,2.7l0.5,5.7
		l2.1,6.8l-6.9,4.4l-3.9,1.9l-6.2-5.5l-3.4-0.7l-0.9-2.4l-6.3,1.1l-10.8-0.8L958.7,254.7z"/>
	<path class="st9" d="M969.5,273.8L969,271l0.7-3l-2.8-1.8l-6.7-2l-1.4-9.5l7.3-3.5l10.8,0.8l6.3-1.1l0.9,2.4l3.4,0.7l6.2,5.5l0.6,5
		l-5.3,3.6l-1.5,6.2l-7,4.1l-6.2-0.1l-1.5-3.3L969.5,273.8z"/>
	<path class="st9" d="M944.4,358.2l1.6,3.5l2,2.6l-2.5,3.4l-2.9-2l-4.4,0.1l-5.5-1.5l-3,0.2l-1.4,1.9l-2.3-2.1l-1.3,3.8l3.2,4.2
		l1.4,2.8l3,3.3l2.5,1.9l2.4,3.7l5.7,3.3l-0.7,1.5l-6-3.2l-3.7-3.2l-5.9-2.6l-5.4-6.5l1.3-0.7l-2.9-3.8l-0.1-3.1l-4.1-1.4l-2,3.9
		l-1.9-3l0.2-3.2l0.2-0.1l4.5,0.3l1.2-1.6l2.2,1.5l2.5,0.2v-2.6l2.2-0.9l0.6-3.7l5.1-2.5l2,1.1l4.8,4l5.3,1.8L944.4,358.2z"/>
	<path class="st9" d="M862.6,282.7l5.3,0.3l1.2,3.6l-1.6,9.7l-1.6,3.9H862l1.1,10.7l-3.5-2.4l-4.1-4.5l-6,2.1l-4.7-0.8l3.3-2.8
		l5.6-15.4L862.6,282.7z"/>
	<path class="st9" d="M787.2,271.3l-3.4,7.5l-4.9-2.2l-4,0.2l1.3-5.9l-1.3-6l5.4-0.5L787.2,271.3z M804.3,223.8l-6.9,13.1l6.5-1.6
		l7,0.1l-1.7,9.7l-5.8,10.4l6.6,0.7l0.5,1.2l5.7,13.3l4.4,1.8l4,12.4l1.8,4.2l7.8,2l-0.8,6.7l-3.3,3l2.6,5.3l-5.8,5.3l-8.6-0.1
		l-10.9,2.8l-3-2l-4.2,4.7l-5.9-1.1l-4.5,3.8l-3.4-2l9.4-10.6l5.7-2.2l0,0l-10-1.7l-1.8-4.1l6.7-3.2l-3.5-5.7l1.2-7l9.5,1l0,0
		l0.9-6.3l-4.3-6.8l-0.1-0.2l-7.8-1.9l-1.5-3l2.3-5l-2.1-3.1l-3.5,5.4l-0.4-11l-3.3-5.9l2.3-12.3l5-9.9l5.1,1L804.3,223.8z"/>
	<path class="st9" d="M932.4,332.8l-3-1.8l-3,0.5l-5-3l-2.3,0.7l-3.6,4l-4.8-3.1l-3.6-4.2l-3.3-2.4l-0.7-4.2l-1.1-3l4.7-2.2l2.4-2.5
		l4.6-2l1.6-1.9l1.7,1.2l2.9-1.1l3,3.3l4.8,0.9l-0.4,2.8l3.5,2.1l1-2.6l4.4,1.1l0.6,3.1l4.8,0.6l3,4.9h-1.9l-1,1.8l-1.5,0.4
		l-0.4,2.2l-1.2,0.5l-0.2,0.9l-2.2,1l-2.9-0.2L932.4,332.8z"/>
	<path class="st9" d="M923.2,424.4l-2.3,6.4l1,2.5l-1.4,4.1l-4.9-3l-3.3-0.9l-9-4.1l0.9-4.2l7.5,0.7l6.5-0.9L923.2,424.4z
		 M882.7,399.7l3.8,6l-0.9,11l-2.9-0.5l-2.6,2.7l-2.4-2.2l-0.3-10l-1.5-4.8l3.5,0.4L882.7,399.7z M903,350.2l9.2,2.4l-0.7,4.6
		l1.5,3.9l-5.1-1.3l-5.2,3.3l0.4,4.5l-0.8,2.6l2.1,4.6l6,4.5l3.2,7.3l7.1,7h5l1.6,1.9l-1.8,1.7l5.7,3.1l4.7,2.6l5.5,4.4l0.7,1.6
		l-1.2,3l-3.6-3.9l-5.6-1.4L929,412l4.6,3.1L933,419l-2.7,0.5l-3.4,7l-2.7,0.6v-2.5l1.3-4.4l1.4-1.8l-2.5-4.8l-2-4.2l-2.7-1.1
		l-1.9-3.6l-4.1-1.5l-2.8-3.4l-4.7-0.5l-5-3.8l-5.9-5.6l-4.4-5l-2-8.7l-3.2-1l-5.2-3l-3,1.2l-3.7,4.1l-2.7,0.6l0.7-3.8l-3.5-1.1
		l-1.6-7l2.2-2.8L867,360l0.3-2.6l2.8,2l3.1-0.4l3.6-3.1l1.1,1.5l3.1-0.3l1.4-3.7l4.7,1.2l2.8-1.6l0.5-3.8l3.9,1.3l0.8-1.8l6.3-1.6
		L903,350.2z"/>
	<path class="st9" d="M912.2,352.6l5.3,0.7l3.3-2.1l5.6-0.2l1.2-1.6l1.1,0.1l1.3,3.1l-5.1,2.5l-0.6,3.7l-2.2,0.9v2.6l-2.5-0.2
		l-2.2-1.5l-1.2,1.6l-4.5-0.3l1.4-0.8l-1.5-3.9L912.2,352.6z"/>
	<polyline class="st10" points="969.4,83.4 968.3,82.3 956.1,68.7 952.2,69.3 951.2,81.1 939.1,78.4 938.4,83.2 937.3,89.4 	"/>
	<path class="st10" d="M969,83.2l5.8,32.1l2.2,6.2l-11,4.4l-6.2,10.7l1,9.2l-10.2,11.7l-12.4,12.2l-4.7,19.3l4.6,9.3l6.1,7.2
		l-5.9,14.3l-6.7,2.9l-2.4,20.2l-3.6,10.9l-7.8-1.1l-3.6,9l-7.4,0.5l-2-10.8l-5.4-13.3l-4.9-17.2l2.8-7.2l5.3-8.7l2.1-15.4l-4.1-6.8
		l-0.4-18.4l4.2-13.5l6.4,0.3l2.2-5.8l-2.3-5.1l10-21.7l6.4-18l4.2-12h6.2"/>
	<path class="st10" d="M956.1,68.7l3.8-4.8l7.1,9.5l8.4-0.9l6.4,4.5l6.5-8.3l3.3-13.1l10-6.4l8.2,7.4c-2.5,7.1-3.7,25.8-3.7,25.8
		l9.8,11.4l-5.9,12.5l7.5,18.2l-4.3,13.2l5.8,11.1l-2.6,9.5l9.5,9.8l-2.4,7.1l-6,7.9l-13.7,17l-11.7,1l-11.3,4.7l-10.4,2.7l-3.7-7
		l-6.2-4.3l1.4-13.1l-3.1-12.4l3.1-8.2l5.8-9l14.7-16.1l4.3-3.2l-0.7-6.5l-8.9-7.4l-2.2-6.2l-4.4-24L969,83L956.1,68.7z"/>
	<path class="st10" d="M938.4,83.2l-0.9,5.4l-6.2-0.1l-4.2,12l-6.4,18l-10,21.8l2.3,5.1l-2.2,5.8l-6.4-0.3l-4.2,13.5l0.4,18.4
		l4.1,6.8l-2.1,15.4l-5.3,8.7l-2.8,7.2l-4.3-7.7l-12.7,14.4l-8.6,2.8l-8.9-6.2l-2.3-13.4l-2-30.4l5.9-8.9l16.9-11.9l12.7-15.1
		l11.7-21.3L918.3,92l7.3-8.8l21.1-27.5l14.1-8.2l10.6,1l9.8-16l11.7,0.9l11.5-4l20.1,14.3l-8.3,5.1l7,11.7l-10.9,7.3l-4.2,1.6h-1.4
		l3.1-12.7l-8.2-7.4l-10,6.4L988,69.3l-6.2,7.6l-6.4-4.5l-8.4,0.9l-7.1-9.5l-3.8,4.8l-3.9,0.7l-1,11.7l-12.1-2.7L938.4,83.2z"/>
	<path class="st10" d="M927.6,349.4l2.1-6.1l-1.2-2h3.6l0.5-3.9l3.3,2.4l2.4,1.1l5.4-1.2l0.5-1.9l2.6-0.3l3.1-1.5l0.7,0.6l3-1.2
		l1.5-2.3l2.1-0.6l6.9,2.9l1.4-1l3.5,2.6l0.5,2.6l-3.9,2l-3,6.4l-3.9,6.3l-5.2,1.7l-4-0.4l-4.9,2.4l-2.4,1.4l-5.3-1.8l-4.8-4l-2-1.1
		l-1.3-3.1H927.6z"/>
	<path class="st10" d="M969.4,339.7l2.8-2l4,1.1h4.1l3,2.3l2.2-1.5l4.7-0.9l1.6-2.2h2.7l1.9,0.9l2,2.8l2,4l3.7,5.6l0.2,4.1l-0.7,3.9
		l1.2,4.2l2.9,1.7l3-1.5l2.9,1.6l0.1,2.4l-3.1,1.9l-1.9-0.8l-1.8,10.8l-3.8-0.9l-4.7-3.2l-7.6,2.1l-3.2,2.3l-9.4-0.5l-4.9-1.4
		l-2.5,0.7l-1.9-3.7l-1.2-1.6l1.5-1.5l-1.6-1.1l-2,2l-3.7-2.6l-0.5-3.7l-3.9-2.2l-0.7-2.9l-3.5-3.6l5.2-1.7l3.9-6.3l3-6.4
		L969.4,339.7z"/>
	<path class="st10" d="M975.7,444.6l3.5,2.7l5-0.4l4.8,0.5l-0.2,1.4l3.5-0.9l-0.8,2.3l-9.2,0.7l0.1-1.3l-7.8-1.5L975.7,444.6z
		 M994.4,396.7l-2,5.3l-1.5,0.9l-3.9-0.2l-3.3-0.8l-7.8,2.2l4.4,4.7l-3.3,1.4h-3.6l-3.4-4.3l-1.2,1.8l1.4,5l3.2,3.9l-2.4,1.8
		l3.6,3.8l3.2,2.4l0.1,4.6l-3.1-2.6l-2.8,0.5l1.9,4.1l-2.1,0.4l-2.3-1.6l2.7,9h-1.3l-1-2.9h-1.3l-0.6,3l-1-0.7l0.2-1.7l-1.3-2.4
		h-1.5l0.3,1.9l-0.6,0.6l-1.4-1.2l-0.9-2.3l1.2-1.3l-0.8-1.7l-0.9-0.9l-1-0.2l-1.1-2.2l1.3-1.2l0.8-1.1l1.3,0.2l0.6-0.9l1.4-0.4
		l1.6,1.1l1.3,0.4l0.9-1.4l-2.2-0.2l-1.3-0.4l-2.9,0.6l-2.8,0.1l-2.5-3.8l-0.4-0.6l0.4-1.5l-3.3-2.6l-0.4-2.4l3-4l0.4-2.7l2.1-1.2
		l0.1-2.2l4.2-0.8l2.4-1.9l3.5,0.2l1.1-1.5l1.2-0.3l4.7,0.3l5.2-2.3l4.5,3l5.8-0.8l0.1-4.3L994.4,396.7z M918,446.4l4.4-0.4
		l-1.9,2.7L918,446.4z"/>
	<path class="st10" d="M920,307.9l-2.6-6.5l0.5-3.6l-1.6-5.6l-2.3-3.8l1.8-2.9l-1.5-5.5l4.4-3.2l10-5.1l8.1-3.8l6.4,1.9l0.5,2.7
		l6.2,0.1l7.9,1.3l11.8-0.2l3.3,1.2l1.5,3.3l0.3,4.8l1.8,4.1v4.2l-3.8,2.2l2,4.9l0.1,4.6l3.2,8.9l-0.7,2.8L974,316l-5.8,8.3l1.6,4.4
		l-1.4-0.6l-6.1-3.8l-4.6,1.4l-3-1l-3.8,2.1l-3.2-3.5l-2.7,1.3l-0.4-0.6l-3-4.9l-4.8-0.6l-0.6-3.1l-4.4-1.1l-1,2.6l-3.5-2.1l0.4-2.8
		l-4.8-0.9L920,307.9z"/>
	<path class="st10" d="M944.6,324l0.4,0.6l2.7-1.3l3.2,3.5l3.8-2.1l3,1l4.6-1.4l6.1,3.8l-1.8,2.5l-1.3,3.9l-1.4,1l-6.9-2.9l-2.1,0.6
		l-1.5,2.3l-3,1.2l-0.7-0.6l-3.1,1.5l-2.6,0.3l-0.5,1.9l-5.4,1.2l-2.4-1.1l-3.3-2.4l-0.6-3.3l0.5-1.2l0.9-2.1l2.9,0.2l2.2-1l0.2-0.9
		l1.2-0.5l0.4-2.2l1.5-0.4l1-1.8L944.6,324z"/>
	<path class="st10" d="M932.6,337.4l-0.5,3.9h-3.6l1.2,2l-2.1,6.1l-1.2,1.6l-5.6,0.2l-3.3,2.1l-5.3-0.7l-9.2-2.4l-1.4-3.3l-6.3,1.6
		l-0.8,1.8l-3.9-1.3l-3.3-0.3l-2.9-1.7l1-2.3l-0.3-1.7l1.9-0.5l3.3,2.6l0.9-2.5l5.7,0.4l4.6-1.7l3.1,0.3l2,1.9l0.6-1.6l-0.9-6.2
		l2.3-1.2l2.2-4.5l4.8,3.1l3.6-4l2.3-0.7l5,3l3-0.5l3,1.8l-0.5,1.2L932.6,337.4z"/>
	<path class="st10" d="M1041.2,448.3l4.3-3.3l-5.8,2.3l-4.6-0.1l-0.9,1.9h-0.5l-3,0.3l1.5,3.1l3.1,1l6.6-3.2l-0.2-0.6L1041.2,448.3z
		"/>
	<g>
		<polygon class="st9" points="860.7,318.1 860,323.7 861.4,324.6 861.8,324.5 862.2,317.8 		"/>
		<polygon class="st10" points="863.7,320 862.2,317.8 861.8,324.5 863.3,324.3 		"/>
		<polygon class="st11" points="862.4,317.8 860.7,318.1 860.3,321.2 860,323.7 861.4,324.6 861.8,324.5 863.3,324.3 863.7,320 		
			"/>
		<pattern  id="SVGID_6_" xlink:href="#SVGID_1_" patternTransform="matrix(0.6738 0 0 -0.6738 -14916.0615 -36287.9414)">
		</pattern>
		<path class="st12" d="M905,259.5l-3.8,9.1l-6.7-6.3l-0.9-4.7l9.4-3.8L905,259.5z M893.6,249.8l-1.6,4.4l-1.9-1.3l-4.6,8.2l1.7,5.5
			l-4.1,1.7l-4.9-1.5l-2.6-6.2l-0.2-11.7l1.1-3.2l1.8-3.5l5.7-0.7l2.2-3.3l5.2-3.4l-0.2,6.1l-1.9,3.8l0.8,3.3L893.6,249.8z"/>
	</g>
	
		<pattern  id="SVGID_8_" xlink:href="#SVGID_2_" patternTransform="matrix(0.5835 -0.3369 -0.3369 -0.5835 -19483.5312 -31538.8965)">
	</pattern>
	<path class="st13" d="M887.3,266.6l0.1,4.3l6.5,2.6l-0.1,3.9l6.5-2.1l3.6-3l7.3,4.3l3,3.5l1.5,5.5l-1.8,2.9l2.3,3.8l1.6,5.6
		l-0.5,3.6l2.6,6.5l-2.9,1.1l-1.7-1.2l-1.6,1.9l-4.6,2l-2.4,2.5l-4.7,2.2l1.1,3l0.7,4.2l3.3,2.4l3.6,4.2l-2.2,4.5l-2.3,1.2l0.9,6.2
		l-0.6,1.6l-2-1.9l-3.1-0.3l-4.6,1.7l-5.7-0.4l-0.9,2.5l-3.3-2.6l-1.9,0.5l-6.9-2.9l-1.3,2.1l-5.4-0.1l0.8-6.8l3.3-6.6l-9.2-1.8
		l-3-2.6l0.4-4.3l-1.3-2.2l0.7-6.8l-1.1-10.7h3.9l1.6-3.9l1.6-9.7l-1.2-3.6l1.3-2.3l5.4-0.6l1.2,2.4l4.4-5.3l-1.5-4.1l-0.3-6.3
		l4.9,1.5L887.3,266.6z"/>
	
		<pattern  id="SVGID_10_" xlink:href="#SVGID_3_" patternTransform="matrix(0.5835 -0.3369 -0.3369 -0.5835 -19483.5312 -31538.8965)">
	</pattern>
	<path class="st14" d="M969,373.3l1.9,3.7l2.5-0.7l4.9,1.4l9.4,0.5l3.2-2.3l7.6-2.1l4.7,3.2l3.8,0.9l-3.3,3.6l-2.3,6.3l2.1,4.9
		l-5.5-1.2l-6.5,2.7l-0.1,4.3l-5.8,0.8l-4.5-3l-5.2,2.4l-4.7-0.3l-0.5-5.7l-3.2-2.8l1.1-1.2l-0.7-1l1.1-2.8l2.5-2.7l-3.1-3.8
		l-0.6-3.3L969,373.3z"/>
	<pattern  id="SVGID_12_" xlink:href="#SVGID_4_" patternTransform="matrix(0.6738 0 0 -0.6738 -14916.0615 -36287.9414)">
	</pattern>
	<path class="st15" d="M844.9,305.5l4.7,0.8l6-2.1l4.1,4.5l3.5,2.4l-0.7,6.8l-1.7,0.4l-0.7,5.6l-5.6-4.5l-3.3,0.8l-4.5-4.7l-3-4.1
		l-3-0.2l-0.9-3.6L844.9,305.5z"/>
	
		<pattern  id="SVGID_14_" xlink:href="#SVGID_5_" patternTransform="matrix(0.5835 -0.3369 -0.3369 -0.5835 -19483.5312 -31538.8965)">
	</pattern>
	<path class="st16" d="M783.8,278.9l1.1,7.7L780,296l-11.4,6.1l-9.1-1.6l5.2-10.9l-3.3-10.9l8.7-8.6l4.9-5.2l1.3,6l-1.3,5.9l4-0.1
		L783.8,278.9z"/>
	
		<pattern  id="SVGID_16_" xlink:href="#SVGID_7_" patternTransform="matrix(0.5835 -0.3369 -0.3369 -0.5835 -19483.5312 -31538.8965)">
	</pattern>
	<path class="st17" d="M884.9,391.6l-2.1,6.6l-2.9-1.7l-1.5-5.8l1.3-3.2l4.1-3.3L884.9,391.6z M846.6,315.3l4.5,4.7l3.3-0.8l5.6,4.5
		l1.4,0.8l1.9-0.2l3,2.6l9.2,1.8l-3.3,6.6l-0.8,6.8l-1.8,1.6l-2.9-0.9l0.2,2.4l-4.7,5.3l-0.1,4.2l3.1-1.4l2.2,4.1l-0.3,2.6l1.9,3.4
		l-2.2,2.8l1.6,7l3.5,1.1l-0.7,3.8l-5.8,5l-12.7-2.4l-9.3,2.8l-0.7,5.2l-7.4,1.1l-7.2-3.9l-2.3,1.9l-11.8-4l-2.6-3.4l3.3-5.3l1.2-18
		l-6.6-9.8l-4.7-4.8l-9.8-3.7l-0.6-7l8.3-2.1l10.8,2.5l-2-11.1l6.1,4.2l14.9-7.7l1.9-8.3l5.6-2.1l0.9,3.6l3,0.2L846.6,315.3z"/>
</g>
<g>
	<path class="st5" d="M289.5,521.9c-118.6,0-214.8-96.1-214.8-214.8S170.9,92.3,289.5,92.3s214.8,96.2,214.8,214.8
		S408.1,521.9,289.5,521.9z"/>
	<path class="st6" d="M360.7,394.5l-0.8,2.9l0.9,3.6l2.7,2.1l-0.1,2.2l-2.1,1.2l-0.4,2.7l-3,4l-1.1-0.6l-0.1-1.8l-3.6-2.8l-0.5-4
		l0.5-5.8l0.9-2.7l-1.1-1.4l-0.4-2.7l2.8-4.3l0.4,1.6l1.7-0.8l1.4,2.3l1.5,0.9L360.7,394.5z"/>
	<path class="st6" d="M379.3,278.7l6.2,0.1l7-4.1l1.5-6.2l5.3-3.6l-0.6-5l3.9-1.9l6.9-4.4l6.8,2.9l0.9,2.8l3.4-1.4l6.3,2.7l0.6,5.3
		l-1.4,3l4,7.2l2.6,2l-0.4,2l4.3,1.9l1.9,2.9l-2.5,2.3l-5.2-0.4l-1.2,1l1.5,3.5l1.6,6.7l-5.5,0.6l-2,2.3l-0.4,5.2l-2.5-1l-5.8,0.5
		l-1.7-2.4l-2.4,1.8l-2.4-1.5l-5.1-0.2l-7.2-2.5l-6.5-0.8l-5,0.2l-3.5,2.8l-3.1,0.4l-0.1-4.6l-2-4.9l3.8-2.2v-4.2l-1.8-4.1
		L379.3,278.7z"/>
	<path class="st6" d="M361.9,392.8l-0.3,1.8l-0.8-0.1l-0.4-3.1l-1.5-0.9l-1.4-2.3l1.2-1.9l1.5-0.6l0.9-2.9l1.1-0.5l0.9,1.2l1.2,0.5
		l0.8,1.4l1.1,0.4l1.3,1.6h0.9l-0.7,2.1l-0.8,1l0.2,0.6l-1.4,0.3L361.9,392.8z"/>
	<path class="st6" d="M399.5,336.8l1.5-1.4l4.3-1l4.7,3l2.6,0.4l2.9,2.6l-0.5,3.2l2.3,1.5l0.9,3.9l2.2,2.4l-0.4,1.4l1.2,1l-1.7,0.7
		l-3.8-0.3l-0.6-1.3l-1.4,0.8l0.5,1.6l-1.8,3l-1.1,3.1l-1.6,1l-1.2-4.2l0.7-3.9l-0.2-4.1l-3.7-5.6l-2-4l-2-2.8L399.5,336.8z"/>
	<path class="st6" d="M355.7,388.9l-0.4-1.6l-2.8,4.3l0.4,2.7l-1.4-0.7l-1.8-2.8l-2.8-1.7l0.7-1.5l0.9-4.8l2.1-2l1.2-0.8l1.7,1.5
		l0.9,1.2l2.1,0.9l2.4,1.8l-0.5,0.8l-1.2,1.9L355.7,388.9z"/>
	<path class="st6" d="M360.7,394.5l0.8,0.1l0.3-1.8l3.8-1.4l1.4-0.3l2.2-0.5l3-0.1l3.2,2.8l0.5,5.7l-1.2,0.3l-1.1,1.5l-3.5-0.2
		l-2.4,1.9l-4.2,0.7l-2.7-2.1l-0.9-3.6L360.7,394.5z"/>
	<path class="st6" d="M350.6,368h2.3l-1.6,3.9l3.1,3.4l-0.9,4.2l-1.5,0.4l-1.2,0.8l-2.1,2l-0.9,4.8l-5.7-3.3l-2.4-3.7l-2.4-1.9
		l-3-3.3l-1.4-2.8l-3.2-4.2l1.4-3.8l2.3,2.1l1.4-1.9l3-0.2l5.5,1.5l4.4-0.1L350.6,368z"/>
	<path class="st6" d="M362.6,363l3.9,2.2l0.5,3.7l3.7,2.6l2-2l1.6,1.1l-1.5,1.5l1.2,1.6l-1.6,2l0.6,3.3l3.1,3.8l-2.4,2.7l-1.1,2.8
		l0.7,1l-1.1,1.2l-3,0.1l-2.2,0.5l-0.2-0.6l0.8-1l0.7-2.1h-0.9l-1.3-1.6l-1.1-0.4l-0.8-1.4l-1.2-0.5l-0.9-1.2l-1.1,0.5l-0.9,2.9
		l-1.5,0.6l0.5-0.8l-2.4-1.8l-2.1-0.9l-0.9-1.2l-1.7-1.5l1.5-0.4l0.9-4.2l-3.1-3.4l1.6-3.9h-2.3l2.5-3.4l-2-2.6l-1.6-3.5l4.9-2.4
		l4,0.4l3.5,3.6L362.6,363z"/>
	<path class="st7" d="M290.2,343.4l0.3,1.7l-1,2.3l2.9,1.7l3.3,0.3l-0.5,3.8l-2.8,1.6l-4.8-1.2l-1.4,3.7l-3,0.3l-1.1-1.5l-3.6,3.1
		l-3.1,0.4l-2.8-2l-2.2-4.1l-3.1,1.5l0.1-4.2l4.7-5.3l-0.2-2.4l2.9,0.9l1.8-1.6l5.4,0.1l1.3-2.1L290.2,343.4z"/>
	<path class="st8" d="M503.5,383.9"/>
	<path class="st6" d="M432.6,297.9l2.4,0.4l1.6-2.4l1.9,0.5l6.7-1l4.1,5.9l-1.6,2.1l0.5,3.2l5.1,0.5l2.3,4.4l-0.1,2l8.2,3.5l4.9-1.6
		l4,4.7l3.8-0.1l9.5,3.2l0.1,2.9l-2.6,5.1l1.4,5.3l-1,3.2l-6.2,0.7l-3.3,2.7l-0.2,4.2l-5.1,0.8l-4.3,3l-6,0.5l-5.5,3.5l-3,2.4
		l3.4,3.4l3.1,2.2l6.5-0.5l-1.3,3.3l-7,1.6l-8.7,5.2l-3.5-1.8l1.4-4.2l-7-2.7l1.1-1.8l7.2-3.7l-0.9-1.9l-1,0.9l-1-0.5l-10-2.3
		l-0.4-3.5l-6,1.1l-2.4,5.1l-5,6.8l-2.9-1.6l-3,1.5l-2.9-1.7l1.6-1l1.1-3.1l1.8-3l-0.5-1.6l1.4-0.7l0.6,1.3l3.8,0.3l1.7-0.7l-1.2-1
		l0.4-1.4l-2.2-2.4l-0.9-3.9l-2.3-1.5l0.5-3.2l-2.9-2.6l-2.6-0.4l-4.7-3l-4.3,1l-1.5,1.4H397l-1.6,2.2l-4.7,0.9l-2.2,1.5l-3-2.3
		h-4.1l-4-1.1l-2.8,2l-0.5-2.6l-3.5-2.6l1.3-3.9l1.8-2.5l1.4,0.5l-1.7-4.4l5.8-8.3l3.2-1.2l0.7-2.8l-3.2-8.9l3.1-0.4l3.5-2.8l5-0.2
		l6.5,0.8l7.2,2.5l5.1,0.2l2.4,1.5l2.4-1.8l1.7,2.4l5.8-0.5l2.5,1l0.4-5.2l2-2.3L432.6,297.9z"/>
	<path class="st6" d="M289.7,486.1l-2.7-13.4l-3.9-3l-0.1-1.9l-5.2-4.5l-0.6-5.8l4-4.3l1.5-6.5l-1-7.5l1.3-4.1l7-3.2l4.5,1l-0.2,4.1
		l5.4-3l0.5,1.5l-3.2,3.9v3.7l2.2,1.9l-0.8,6.8l-4.2,3.9l1.2,4.2l3.3,0.1l1.6,3.6l2.4,1.2l-0.4,5.8l-3.1,2.2l-2,2.4l-4.4,2.9
		l0.7,3.1l-0.6,3.2L289.7,486.1z"/>
	<g>
		<path class="st0" d="M504.7,303.3c-0.1-5-0.3-9.9-0.8-14.8l-0.2,39.2C504.5,319.7,504.8,311.6,504.7,303.3z"/>
		<path class="st0" d="M491.2,381.2l-5.4-1.5l-0.8,1l-8.2-7.5l-7.3-3.4l-5.5-5.3l4.7-1.5l5.3-7.7l-3.6-3.7l9.5-3.8l-0.2-2.1
			l-5.8,1.5l0.2-4.2l3.3-2.7l6.2-0.7l1-3.2l-1.4-5.3l2.6-5.1l-0.1-2.9l-9.5-3.2l-3.8,0.1l-4-4.7l-4.9,1.6l-8.2-3.5l0.1-2l-2.3-4.4
			l-5.1-0.5l-0.5-3.2l1.6-2.1l-4.1-5.9l-6.7,1l-1.9-0.5l-1.6,2.4l-2.4-0.4l-1.6-6.7l-1.5-3.5l1.2-1l5.2,0.4l2.5-2.3l-1.9-2.9
			l-4.3-1.9l0.4-2l-2.6-2l-4-7.2l1.4-3l-0.6-5.3l-6.3-2.7l-3.4,1.4l-0.9-2.8l-6.8-2.9l-2.1-6.8l-0.5-5.7l-3.1-2.7l2.7-3.8l-1.9-11.4
			l4.6-7.2l-1-2.2l7.3-7l-6.7-6.1l13.7-17l6-7.9l2.4-7.1l-9.5-9.8l2.6-9.5l-5.8-11.1l0.9-2.6c-36.9-27.8-83.1-44-132.9-43.1
			c-118.6,2.1-213.1,99.9-211,218.5c2.1,118.6,99.9,213,218.5,211c91.2-1.6,168.1-59.8,197.9-140.6L491.2,381.2z M374.5,274.1
			l-11.8,0.2l-7.9-1.3l1.5-4.9l8.9-3.6l6.7,2l2.8,1.8l-0.7,3L374.5,274.1z"/>
		<path class="st7" d="M424,149.2l-2.6,9.5l9.5,9.8l-2.4,7.1l-6,7.9l-13.7,17l6.7,6.1l-7.3,7l1,2.2l-4.6,7.2l1.9,11.4l-2.7,3.8
			l3.1,2.7l0.5,5.7l2.1,6.8l6.8,2.9l0.9,2.8l3.4-1.4l6.3,2.7l0.6,5.3l-1.4,3l4,7.2l2.6,2l-0.4,2l4.3,1.9l1.9,2.9L436,287l-5.2-0.4
			l-1.2,1l1.5,3.5l1.6,6.7l2.4,0.4l1.6-2.4l1.9,0.5l6.7-1l4.1,5.9l-1.6,2.1l0.5,3.2l5.1,0.5l2.3,4.4l-0.1,2l8.2,3.5l4.9-1.6l4,4.7
			l3.8-0.1l9.5,3.2l0.1,2.9l-2.6,5.1l1.4,5.3l-1,3.2l-6.2,0.7l-3.3,2.7l-0.2,4.2l5.8-1.5l0.2,2.1l-9.5,3.8l3.6,3.7L469,363l-4.7,1.5
			l5.5,5.3l7.3,3.4l8.2,7.5l0.8-1l5.4,1.5h0.3c6.2-17,10.4-34.9,12.2-53.5l0.2-39.2c-5.4-62.6-37.5-117.4-84.8-153l-0.9,2.6
			L424,149.2z"/>
		<polygon class="st7" points="371.8,266.5 365.1,264.6 356.2,268.2 354.8,273 362.7,274.3 374.5,274.1 374,271.3 374.7,268.3 		"/>
	</g>
	<path class="st0" d="M165.8,479.6l2.4-6.5l0.9-4l4.1-5.1l6.4-3.5l4.8-3.2l4.3-8l2-4.8h4.7l3.9,3.3l6.1-0.5l6.6,1.7l2.8,0.1l6.2-4.3
		l7-1.4l4.1-3.3l6.2-2.4l10.9-1.4l10.6-0.7l3.2,1.2l6-3.1l6.9-0.1l2.6,1.9l4.4-0.5l-1.3,4.1l1,7.5l-1.5,6.5l-4,4.3l0.6,5.8l5.2,4.5
		l0.1,1.9l3.9,3l2.7,13.4l3.1-1.7l0.6-3.2l-0.7-3.1l4.4-2.9l2-2.4l3.1-2.2l0.4-5.8l7.5,2.6l2.7-0.7l5.4,1.3l8.5,3.4l3,6.7l5.8,1.5
		l9,3.1l6.8,3.7l3.1-1.9l3.1-3.4l-1.5-5.7l2-3.7l4.6-3.5l4.4-1l8.7,1.6l2.2,3.4h2.4l2,1.3l6.4,0.9l1.6,2.5l8.5-0.1l6.2,2l6.4,2.2
		l2.9,1.1c54.5-39,89.9-102.7,89.9-174.8c0-118.6-96.2-214.8-214.8-214.8S74.5,188.6,74.5,307.2c0,72.8,36.3,137.2,91.7,176
		L165.8,479.6z"/>
	<path class="st6" d="M405.1,478.6l-6.2-2l-8.5,0.1l-2.3,3.6l1,3.2l-1.6,4.6l1.9,5.9v3.3c8.7-4.6,17.1-9.7,25-15.4l-2.9-1.1
		L405.1,478.6z"/>
	<path class="st6" d="M387.4,488.1l1.6-4.6l-1-3.2l2.3-3.6l-1.6-2.5l-6.4-0.9l-2-1.3h-2.4l-2.2-3.4L367,467l-4.4,1l-4.6,3.5l-2,3.7
		l1.5,5.7l-3.1,3.4l-3.1,1.9l-6.8-3.7l-9-3.1l-5.8-1.5l-3-6.7l-8.5-3.4l-5.4-1.3l-2.7,0.7l-7.5-2.6l-0.4,5.8l-3.1,2.2l-2,2.4
		l-4.4,2.9l0.7,3.1l-0.6,3.2l-3.1,1.7l2.1,6.5l0.3,3.4l-1.1,5.9l0.5,3.3l-0.8,3.9l0.6,4.5l-2.6,3l3.8,5.2l0,0
		c34.9-0.5,67.9-9.3,96.9-24.5V494L387.4,488.1z"/>
	<path class="st6" d="M189.9,490.4l5.2-2l2.5-3.7l7.5-3l0.3-5.5l3.7-0.7l2.9-2.8l8.4-1.3l1.2-2.9l-1.7-1.6l-2.2-8.1l-0.4-4.7l-2.4-5
		l-2.8-0.1l-6.6-1.7l-6.1,0.5l-3.9-3.3h-4.7l-2,4.8l-4.3,8l-4.8,3.2l-6.4,3.5l-4.1,5.1l-0.9,4l-2.4,6.5l0.6,3.5
		c4.8,3.4,9.8,6.5,14.8,9.5l2.2-1.2L189.9,490.4z"/>
	<path class="st6" d="M288.7,516.6l2.6-3l-0.6-4.5l0.8-3.9l-0.5-3.3l1.1-5.9l-0.3-3.4l-2.1-6.5l-2.7-13.4l-3.9-3l-0.1-1.9l-5.2-4.5
		l-0.6-5.8l4-4.3l1.5-6.5l-1-7.5l1.3-4.1l-4.4,0.5l-2.6-1.9l-6.9,0.1l-6,3.1l-3.2-1.2l-10.6,0.7l-10.9,1.4l-6.2,2.4l-4.1,3.3l-7,1.4
		l-6.2,4.3l2.4,5l0.4,4.7l2.2,8.1l1.7,1.6l-1.2,2.9l-8.4,1.3l-2.9,2.8l-3.7,0.7l-0.3,5.5l-7.5,3l-2.5,3.7l-5.2,2l-6.4,1.1l-2.2,1.2
		c31.8,18.6,68.8,29.2,108.2,29.2c1,0,2,0,3,0l0,0L288.7,516.6z"/>
	<g>
		<path class="st18" d="M374,373.6l1.9,3.7l2.5-0.7l4.9,1.4l9.4,0.5l3.2-2.3l7.6-2.1l4.7,3.2l3.8,0.9l-3.3,3.6l-2.3,6.3l2.1,4.9
			l-5.5-1.2l-6.5,2.7l-0.1,4.3l-5.8,0.8l-4.5-3l-5.2,2.4l-4.7-0.3l-0.5-5.7l-3.2-2.8l1.1-1.2l-0.7-1l1.1-2.8l2.4-2.7l-3.1-3.8
			l-0.6-3.3L374,373.6z"/>
		<path class="st18" d="M317.2,352.9l5.3,0.7l3.3-2.1l5.6-0.2l1.2-1.6l1.1,0.1l1.3,3.1l-5.1,2.5l-0.6,3.7l-2.2,0.9v2.6l-2.5-0.2
			l-2.2-1.5l-1.2,1.6l-4.5-0.3l1.4-0.8l-1.5-3.9L317.2,352.9z"/>
		<path class="st18" d="M328.2,424.7l-2.3,6.4l1,2.5l-1.4,4.1l-4.9-3l-3.3-0.9l-9-4.1l0.9-4.2l7.5,0.7l6.5-0.9L328.2,424.7z
			 M287.7,400l3.8,6l-0.9,11l-2.9-0.5l-2.6,2.7l-2.4-2.2l-0.3-10l-1.5-4.8l3.5,0.4L287.7,400z M308,350.5l9.2,2.4l-0.7,4.6l1.5,3.9
			l-5.1-1.3l-5.2,3.3l0.4,4.5l-0.8,2.6l2.1,4.6l6,4.5l3.2,7.3l7.1,7h5l1.6,1.9l-1.8,1.7l5.7,3.1l4.7,2.6l5.5,4.4l0.7,1.6l-1.2,3
			l-3.6-3.9l-5.6-1.4l-2.7,5.4l4.6,3.1l-0.8,4.3l-2.7,0.5l-3.4,7l-2.7,0.6v-2.5l1.3-4.4l1.4-1.8l-2.5-4.8l-2-4.2l-2.7-1.1l-1.9-3.6
			l-4.1-1.5l-2.8-3.4L311,400l-5-3.8l-5.9-5.6l-4.4-5l-2-8.7l-3.2-1l-5.2-3l-3,1.2l-3.7,4.1l-2.7,0.6l0.7-3.8l-3.5-1.1l-1.6-7
			l2.2-2.8l-1.9-3.4l0.3-2.6l2.8,2l3.1-0.4l3.6-3.1l1.1,1.5l3.1-0.3l1.4-3.7l4.7,1.2l2.8-1.6l0.5-3.8l3.9,1.3l0.8-1.8l6.3-1.6
			L308,350.5z"/>
		<path class="st18" d="M337.6,337.7l-0.5,3.9h-3.6l1.2,2l-2.1,6.1l-1.2,1.6l-5.6,0.2l-3.3,2.1l-5.3-0.7l-9.2-2.4l-1.4-3.3l-6.3,1.6
			l-0.8,1.8l-3.9-1.3l-3.3-0.3l-2.9-1.7l1-2.3l-0.3-1.7l1.9-0.5l3.3,2.6l0.9-2.5l5.7,0.4l4.6-1.7l3.1,0.3l2,1.9l0.6-1.6l-0.9-6.2
			l2.3-1.2l2.2-4.5l4.8,3.1l3.6-4l2.3-0.7l5,3l3-0.5l3,1.8l-0.5,1.2L337.6,337.7z"/>
		<path class="st18" d="M337.5,333.1l-3-1.8l-3,0.5l-5-3l-2.3,0.7l-3.6,4l-4.8-3.1l-3.6-4.2l-3.3-2.4l-0.7-4.2l-1.1-3l4.7-2.2
			l2.4-2.5l4.6-2l1.6-1.9l1.7,1.2l2.9-1.1l3,3.3l4.8,0.9l-0.4,2.8l3.5,2.1l1-2.6l4.4,1.1l0.6,3.1l4.8,0.6l3,4.9h-1.9l-1,1.8
			l-1.5,0.4l-0.4,2.2l-1.2,0.5l-0.2,0.9l-2.2,1l-2.9-0.2L337.5,333.1z"/>
		<path class="st18" d="M349.6,324.3l0.4,0.6l2.7-1.3l3.2,3.5l3.8-2.1l3,1l4.6-1.4l6.1,3.8l-1.8,2.5l-1.3,3.9l-1.4,1l-6.9-2.9
			l-2.1,0.6l-1.5,2.3l-3,1.2l-0.7-0.6l-3.1,1.5l-2.6,0.3l-0.5,1.9l-5.4,1.2l-2.4-1.1l-3.3-2.4l-0.6-3.3l0.5-1.2l0.9-2.1l2.9,0.2
			l2.2-1l0.2-0.9l1.2-0.5l0.4-2.2l1.5-0.4l1-1.8L349.6,324.3z"/>
		<path class="st18" d="M249.9,305.8l4.7,0.8l6-2.1l4.1,4.5l3.5,2.4l-0.7,6.8l-1.7,0.4L265,324l-5.6-4.5l-3.3,0.8l-4.5-4.7l-3-4.1
			l-3-0.2l-0.9-3.6L249.9,305.8z"/>
		<path class="st18" d="M267.6,283l5.3,0.3l1.2,3.6l-1.6,9.7l-1.6,3.9H267l1.1,10.7l-3.5-2.4l-4.1-4.5l-6,2.1l-4.7-0.8l3.3-2.8
			l5.6-15.4L267.6,283z"/>
		<path class="st18" d="M192.2,271.6l-3.4,7.5l-4.9-2.2l-4,0.2l1.3-5.9l-1.3-6l5.4-0.5L192.2,271.6z M209.3,224.1l-6.9,13.1l6.5-1.6
			l7,0.1l-1.7,9.7l-5.8,10.4l6.6,0.7l0.5,1.2l5.7,13.3l4.4,1.8l4,12.4l1.8,4.2l7.8,2l-0.8,6.7l-3.3,3l2.6,5.3l-5.8,5.3l-8.6-0.1
			l-10.9,2.8l-3-2l-4.2,4.7l-5.9-1.1l-4.5,3.8l-3.4-2l9.4-10.6l5.7-2.2l0,0l-10-1.7l-1.8-4.1l6.7-3.2l-3.5-5.7l1.2-7l9.5,1l0,0
			l0.9-6.3l-4.3-6.8l-0.1-0.2l-7.8-1.9l-1.5-3l2.3-5L196,258l-3.5,5.4l-0.4-11l-3.3-5.9l2.3-12.3l5-9.9l5.1,1L209.3,224.1z"/>
		<path class="st18" d="M292.3,266.9l0.1,4.3l6.5,2.6l-0.1,3.9l6.5-2.1l3.6-3l7.3,4.3l3,3.5l1.5,5.5l-1.8,2.9l2.3,3.8l1.6,5.6
			l-0.5,3.6l2.6,6.5l-2.9,1.1l-1.7-1.2l-1.6,1.9l-4.6,2l-2.4,2.5l-4.7,2.2l1.1,3l0.7,4.2l3.3,2.4l3.6,4.2l-2.2,4.5l-2.3,1.2l0.9,6.2
			l-0.6,1.6l-2-1.9l-3.1-0.3l-4.6,1.7l-5.7-0.4l-0.9,2.5l-3.3-2.6l-1.9,0.5l-6.9-2.9l-1.3,2.1l-5.4-0.1l0.8-6.8l3.3-6.6l-9.2-1.8
			l-3-2.6l0.4-4.3l-1.3-2.2l0.7-6.8l-1.1-10.7h3.9l1.6-3.9l1.6-9.7l-1.2-3.6l1.3-2.3l5.4-0.6l1.2,2.4l4.4-5.3l-1.5-4.1l-0.3-6.3
			l4.9,1.5L292.3,266.9z"/>
		<path class="st18" d="M325,308.2l-2.6-6.5l0.5-3.6l-1.6-5.6l-2.3-3.8l1.8-2.9l-1.5-5.5l4.4-3.2l10-5.1l8.1-3.8l6.4,1.9l0.5,2.7
			l6.2,0.1l7.9,1.3l11.8-0.2l3.3,1.2l1.5,3.3l0.3,4.8l1.8,4.1v4.2l-3.8,2.2l2,4.9l0.1,4.6l3.2,8.9l-0.7,2.8l-3.2,1.2l-5.8,8.3
			l1.6,4.4l-1.4-0.6l-6.1-3.8l-4.6,1.4l-3-1L356,327l-3.2-3.5l-2.7,1.3l-0.4-0.6l-3-4.9l-4.8-0.6l-0.6-3.1l-4.4-1.1l-1,2.6l-3.5-2.1
			l0.4-2.8l-4.8-0.9L325,308.2z"/>
	</g>
	<path class="st9" d="M170.6,394.2l0.3-6.1l-2.6-3.8l9.1-6.3l7.9,1.6l8.6-0.1l6.8,1.5l5.3-0.5l10.4,0.3l2.6,3.4l11.8,4l2.3-1.9
		l7.2,3.9l7.4-1.1l0.3,5l-6.1,5.7l-8.2,1.8l-0.6,2.8l-4,4.6l-2.5,6.8l2.5,4.7l-3.7,3.7l-1.4,5.3l-4.9,1.6l-4.6,6.2l-8.1,0.1
		l-6.1-0.1l-4,2.8l-2.4,3l-3.2-0.7l-2.4-2.7l-1.8-4.6l-6-1.2l-0.5-2.7l2.4-3l0.9-2.2l-2.2-2.4l1.8-5.4l-2.6-5l2.8-0.7l0.3-3.9
		l1.1-1.2l0.1-6.6l3-2.3l-1.8-4.3l-3.8-0.3l-1.1,1.1h-3.8l-1.6-4.2l-2.6,1.3L170.6,394.2z"/>
	<path class="st9" d="M170.6,394.2l2.3-2.2l2.6-1.3l1.6,4.2h3.8l1.1-1.1l3.8,0.3l1.8,4.3l-3,2.3l-0.1,6.6l-1.1,1.2l-0.3,3.9
		l-2.8,0.7l2.6,5l-1.8,5.4l2.2,2.4l-0.9,2.2l-2.4,3l0.5,2.7l-2.6,2.1l-3.4-1.1l-3.3,0.9l1-6.3l-0.6-5l-2.9-0.8l-1.5-3.1l0.5-5.4
		l2.5-3l0.5-3.4l1.4-5.1l-0.2-3.6l-1.3-3.1L170.6,394.2z"/>
	<path class="st9" d="M384.7,234.3l0.8-7.1l-2.4,1.5l-4.1-4.4l-0.6-7.1l8.1-3.5l8.1-1.9l7,2.1l6.6-0.4l1,2.2l-4.6,7.2l1.9,11.4
		l-2.7,3.8h-5.3l-5.5-4.4l-2.8-1.5L384.7,234.3z"/>
	<path class="st9" d="M363.7,255l0.2-8.7l3.2-7.4l6-4.1l5.1,8.9l5.2-0.2l1.2-9.1l5.5-2.1l2.8,1.5l5.5,4.4h5.3l3.1,2.7l0.5,5.7
		l2.1,6.8l-6.9,4.4l-3.9,1.9l-6.2-5.5l-3.4-0.7l-0.9-2.4l-6.3,1.1l-10.8-0.8L363.7,255z"/>
	<path class="st9" d="M374.5,274.1l-0.5-2.8l0.7-3l-2.8-1.8l-6.7-2l-1.4-9.5l7.3-3.5l10.8,0.8l6.3-1.1l0.9,2.4l3.4,0.7l6.2,5.5
		l0.6,5l-5.3,3.6l-1.5,6.2l-7,4.1l-6.2-0.1l-1.5-3.3L374.5,274.1z"/>
	<path class="st9" d="M310,259.8l-3.8,9.1l-6.7-6.3l-0.9-4.7l9.4-3.8L310,259.8z M298.6,250.1l-1.6,4.4l-1.9-1.3l-4.6,8.2l1.7,5.5
		l-4.1,1.7l-4.9-1.5l-2.6-6.2l-0.2-11.7l1.1-3.2l1.8-3.5l5.7-0.7l2.2-3.3l5.2-3.4l-0.2,6.1l-1.9,3.8l0.8,3.3L298.6,250.1z"/>
	<path class="st9" d="M267.4,318.1l1.3,2.2l-0.4,4.3l-1.9,0.2L265,324l0.7-5.6L267.4,318.1z"/>
	<path class="st19" d="M446.2,448.6l4.3-3.3l-5.8,2.3l-4.6-0.1l-0.9,1.9h-0.5l-3,0.3l1.5,3.1l3.1,1l6.6-3.2l-0.2-0.6L446.2,448.6z"
		/>
	<path class="st10" d="M380.7,445l3.5,2.7l5-0.4l4.8,0.5l-0.2,1.4l3.5-0.9l-0.8,2.3l-9.2,0.7l0.1-1.3l-7.8-1.5L380.7,445z
		 M399.4,397l-2,5.3l-1.5,0.9L392,403l-3.3-0.8l-7.8,2.2l4.4,4.7l-3.3,1.4h-3.6l-3.4-4.3l-1.2,1.8l1.4,5l3.2,3.9l-2.4,1.8l3.6,3.8
		l3.2,2.4l0.1,4.6l-3.1-2.6l-2.8,0.5l1.9,4.1l-2.1,0.4l-2.3-1.6l2.7,9h-1.3l-1-2.9h-1.3l-0.6,3l-1-0.7l0.2-1.7l-1.3-2.4h-1.5
		l0.3,1.9l-0.6,0.6l-1.4-1.2l-0.9-2.3l1.2-1.3l-0.8-1.7l-0.9-0.9l-1-0.2l-1.1-2.2l1.3-1.2l0.8-1.1l1.3,0.2l0.6-0.9l1.4-0.4l1.6,1.1
		l1.3,0.4l0.9-1.4l-2.2-0.2l-1.3-0.4L367,424l-2.8,0.1l-2.5-3.8l-0.4-0.6l0.4-1.5l-3.3-2.6l-0.4-2.4l3-4l0.4-2.7l2.1-1.2l0.1-2.2
		l4.2-0.8l2.4-1.9l3.5,0.2l1.1-1.5l1.2-0.3l4.7,0.3l5.2-2.3l4.5,3l5.8-0.8l0.1-4.3L399.4,397z M323,446.8l4.4-0.4l-1.9,2.7
		L323,446.8z"/>
	<path class="st9" d="M349.5,358.5l1.6,3.5l2,2.6l-2.5,3.4l-2.9-2l-4.4,0.1l-5.5-1.5l-3,0.2l-1.4,1.9l-2.3-2.1l-1.4,3.8l3.2,4.2
		l1.4,2.8l3,3.3l2.4,1.9l2.4,3.7l5.7,3.3l-0.7,1.5l-6-3.2l-3.7-3.2l-5.9-2.6l-5.4-6.5l1.3-0.7l-2.9-3.8l-0.1-3.1l-4.1-1.4l-2,3.9
		l-1.9-3l0.2-3.2l0.2-0.1l4.5,0.3l1.2-1.6l2.2,1.5l2.5,0.2V360l2.2-0.9l0.6-3.7l5.1-2.5l2,1.1l4.8,4l5.3,1.8L349.5,358.5z"/>
	<path class="st10" d="M361.1,69l3.8-4.8l7.1,9.5l8.4-0.9l6.4,4.5l6.5-8.3l3.3-13.1l10-6.4l8.2,7.4c-2.5,7.1-3.7,25.8-3.7,25.8
		l9.8,11.4l-5.9,12.5l7.5,18.2l-4.3,13.2l5.8,11.1l-2.6,9.5l9.5,9.8l-2.4,7.1l-6,7.9l-13.7,17l-11.7,1l-11.3,4.7l-10.4,2.7l-3.7-7
		l-6.2-4.3l1.4-13.1l-3.1-12.4l3.1-8.2l5.8-9l14.7-16.1l4.3-3.2L391,129l-8.9-7.4l-2.2-6.2l-4.4-24l-1.5-8.1L361.1,69z"/>
	<path class="st10" d="M343.4,83.5l-0.9,5.4l-6.2-0.1l-4.2,12l-6.4,18l-10,21.7l2.3,5.1l-2.2,5.8l-6.4-0.3l-4.2,13.5l0.4,18.4
		l4.1,6.8l-2.1,15.4l-5.3,8.7l-2.8,7.2l-4.3-7.7l-12.7,14.4l-8.6,2.8l-8.9-6.2l-2.3-13.4l-2-30.4l5.9-8.9l16.9-11.9l12.7-15.1
		l11.7-21.3l15.4-31.5l7.3-8.8L351.8,56l14.1-8.2l10.6,1l9.8-16l11.7,0.9l11.5-4l20,14.3l-8.3,5.1l7,11.7l-10.9,7.3l-4.2,1.6h-1.4
		l3.1-12.7l-8.2-7.4l-10,6.4L393,69.8l-6.2,7.6l-6.4-4.5l-8.4,0.9l-7.1-9.5l-3.8,4.8l-3.9,0.7l-1,11.7l-12.1-2.7L343.4,83.5z"/>
	<path class="st10" d="M332.6,349.7l2.1-6.1l-1.2-2h3.6l0.5-3.9l3.3,2.4l2.4,1.1l5.4-1.2l0.5-1.9l2.6-0.3l3.1-1.5l0.7,0.6l3-1.2
		l1.5-2.3l2.1-0.6l6.9,2.9l1.4-1l3.5,2.6l0.5,2.6l-3.9,2l-3,6.4l-3.9,6.3l-5.2,1.7l-4-0.4l-4.9,2.4l-2.4,1.4l-5.3-1.8l-4.8-4l-2-1.1
		l-1.3-3.1H332.6z"/>
	<path class="st10" d="M188.8,279.2l1.1,7.7l-4.9,9.4l-11.4,6.1l-9.1-1.6l5.2-10.9l-3.3-10.9l8.7-8.6l4.9-5.2l1.3,6l-1.3,5.9l4-0.1
		L188.8,279.2z"/>
	
		<pattern  id="SVGID_17_" xlink:href="#SVGID_9_" patternTransform="matrix(0.5835 -0.3369 -0.3369 -0.5835 -19584.9395 -31363.666)">
	</pattern>
	<path class="st20" d="M189.6,284.6l0.3,2.3l-4.9,9.4l-11.4,6.1l-9.1-1.6l5.2-10.9l-1.3-4.3L189.6,284.6z"/>
	<g>
		<polygon class="st10" points="265.3,321.5 265,324 266.4,324.9 266.8,324.8 266.8,321.6 		"/>
		<polygon class="st10" points="268.6,321.7 266.8,321.6 266.8,324.8 268.3,324.6 		"/>
		<polygon class="st10" points="266.8,321.6 265.3,321.5 265,324 266.4,324.9 266.8,324.8 268.3,324.6 268.6,321.7 		"/>
	</g>
	
		<pattern  id="SVGID_18_" xlink:href="#SVGID_11_" patternTransform="matrix(0.5835 -0.3369 -0.3369 -0.5835 -19584.9395 -31363.666)">
	</pattern>
	<path class="st21" d="M374.4,340l2.8-2l4,1.1h4.1l3,2.3l2.2-1.5l4.7-0.9l1.6-2.2h2.7l1.9,0.9l2,2.8l2,4l3.7,5.6l0.2,4.1l-0.7,3.9
		l1.2,4.2l2.9,1.7l3-1.5l2.9,1.6l0.1,2.4l-3.1,1.9l-1.9-0.8l-1.8,10.8l-3.8-0.9l-4.7-3.2l-7.6,2.1l-3.2,2.3l-9.4-0.5l-4.9-1.4
		l-2.5,0.7l-1.9-3.7l-1.2-1.6l1.5-1.5l-1.6-1.1l-2,2l-3.7-2.6l-0.5-3.7l-3.9-2.2l-0.7-2.9l-3.5-3.6l5.2-1.7l3.9-6.3l3-6.4L374.4,340
		z"/>
	
		<pattern  id="SVGID_19_" xlink:href="#SVGID_13_" patternTransform="matrix(0.5835 -0.3369 -0.3369 -0.5835 -19584.9395 -31363.666)">
	</pattern>
	
		<pattern  id="SVGID_20_" xlink:href="#SVGID_15_" patternTransform="matrix(0.5835 -0.3369 -0.3369 -0.5835 -19584.916 -31363.6934)">
	</pattern>
	<path class="st22" d="M290,391.9l-2.1,6.6l-2.9-1.7l-1.5-5.8l1.3-3.2l4.1-3.3L290,391.9z M251.6,315.6l4.5,4.7l3.3-0.8l5.6,4.5
		l1.4,0.8l1.9-0.2l3,2.6l9.2,1.8l-3.3,6.6l-0.8,6.8l-1.8,1.6l-2.9-0.9l0.2,2.4l-4.7,5.3l-0.1,4.2l3.1-1.4l2.2,4.1l-0.3,2.6l1.9,3.4
		l-2.2,2.8l1.6,7l3.5,1.1l-0.7,3.8l-5.8,5l-12.7-2.4l-9.3,2.8l-0.7,5.2l-7.4,1.1l-7.2-3.9l-2.3,1.9l-11.8-4l-2.6-3.4l3.3-5.3l1.2-18
		l-6.6-9.8l-4.7-4.8l-9.8-3.7l-0.6-7l8.3-2.1l10.8,2.5l-2-11.1l6.1,4.2l14.9-7.7l1.9-8.3l5.6-2.1l0.9,3.6l3,0.2L251.6,315.6z"/>
	<polyline class="st10" points="374.4,83.7 373.3,82.7 361.1,69 357.2,69.7 356.2,81.4 344.2,78.7 343.4,83.5 342.3,89.7 	"/>
	<path class="st10" d="M374,83.5l5.8,32.1l2.2,6.2l-11,4.4l-6.2,10.7l1,9.2l-10.2,11.7L343.2,170l-4.7,19.3l4.6,9.3l6.1,7.2
		l-5.9,14.3l-6.7,2.9l-2.4,20.2l-3.6,10.9l-7.8-1.1l-3.6,9l-7.4,0.5l-2-10.8l-5.4-13.3l-4.9-17.2l2.8-7.2l5.3-8.7l2.1-15.4l-4.1-6.8
		l-0.4-18.4l4.2-13.5l6.4,0.3l2.2-5.8l-2.3-5.1l10-21.8l6.4-18l4.2-12h6.2"/>
</g>
<text transform="matrix(1 0 0 1 92.2887 186.03)" class="st23 st24 st25 st26">Use of drugs</text>
<text transform="matrix(1 0 0 1 611.1725 186.0301)" class="st23 st24 st25 st26">Possession of drugs</text>
</svg>
