<?xml version="1.0" encoding="utf-8"?>
<!-- Generator: Adobe Illustrator 19.2.1, SVG Export Plug-In . SVG Version: 6.00 Build 0)  -->
<svg version="1.1" id="Layer_1" xmlns="http://www.w3.org/2000/svg" xmlns:xlink="http://www.w3.org/1999/xlink" x="0px" y="0px"
	 viewBox="0 0 778.7 567.5" style="enable-background:new 0 0 778.7 567.5;" xml:space="preserve">
<style type="text/css">
	.st0{fill:#EFEFEF;}
	.st1{clip-path:url(#SVGID_2_);fill:#C4C4C4;stroke:#C4C4C4;}
	.st2{clip-path:url(#SVGID_4_);fill:#C4C4C4;stroke:#C4C4C4;}
	.st3{clip-path:url(#SVGID_6_);fill:#C4C4C4;stroke:#C4C4C4;}
	.st4{clip-path:url(#SVGID_8_);fill:#C4C4C4;stroke:#C4C4C4;}
	.st5{clip-path:url(#SVGID_10_);fill:#C4C4C4;stroke:#C4C4C4;}
	.st6{clip-path:url(#SVGID_12_);fill:#C4C4C4;stroke:#C4C4C4;}
	.st7{clip-path:url(#SVGID_14_);fill:#C4C4C4;stroke:#C4C4C4;}
	.st8{clip-path:url(#SVGID_16_);fill:#C4C4C4;}
	.st9{clip-path:url(#SVGID_18_);fill:none;}
	.st10{clip-path:url(#SVGID_20_);fill:#C4C4C4;}
	.st11{fill:#C4C4C4;stroke:#C4C4C4;}
	.st12{fill:#7CE86F;stroke:#3B4259;}
	.st13{fill:#C4C4C4;stroke:#3B4259;}
	.st14{fill:#E0FADC;stroke:#3B4259;}
	.st15{fill:#C4C4C4;stroke:#FFFFFF;}
	.st16{fill:#7CE86F;stroke:#3B4259;stroke-miterlimit:10;}
	.st17{fill:none;stroke:#3B4259;stroke-width:2;stroke-linecap:round;stroke-miterlimit:10;}
	.st18{fill:#3B4259;}
	.st19{fill:none;stroke:#3B4259;stroke-miterlimit:10;}
	.st20{font-family:'FiraSans-Regular';}
	.st21{font-size:12px;}
	.st22{letter-spacing:3px;}
	.st23{fill:#7CE86F;stroke:#7CE86F;}
	.st24{fill:#E0FADC;}
	.st25{fill:none;stroke:#3B4259;stroke-linecap:round;stroke-miterlimit:10;}
</style>
<g id="Layer_3_8_">
	<g>
		<path class="st0" d="M0,129.2h740v438.4H0V129.2z"/>
	</g>
</g>
<g id="nonEU">
	<g>
		<g>
			<g>
				<g>
					<g>
						<g>
							<g>
								<defs>
									<rect id="SVGID_1_" width="778.3" height="567.6"/>
								</defs>
								<clipPath id="SVGID_2_">
									<use xlink:href="#SVGID_1_"  style="overflow:visible;"/>
								</clipPath>
								<polygon class="st1" points="772.8,396.5 767.4,392.6 755.4,392.1 742.4,392.5 740,393.9 740,393.9 740,393.9 727.1,389.7 
									723.6,392.3 724.7,399 724.7,399 724.7,399 710.5,395.7 705.9,397.6 705.8,402.5 708.5,403.5 704.2,411.1 711.5,415 
									716.2,412 716.2,412 716.2,412 727.5,417.5 720,426 720,426 720,426 713.6,425.2 711.8,428.8 711.8,428.8 711.8,428.8 
									702.5,427.3 703.7,433.8 712.1,432.6 712.1,432.6 712.1,432.6 723.2,435.7 737.8,433.3 737.8,433.3 737.8,433.3 
									739.2,430.6 737.2,428.1 737.6,427.7 743.1,422.4 747.8,419.9 756.8,421 757.2,413.7 757.3,413.7 757.3,413.7 766.9,411.8 
									768.1,407.2 768.1,407.2 768.1,407.2 778.2,400.5 778.3,397.8 								"/>
							</g>
						</g>
					</g>
				</g>
			</g>
		</g>
		<g>
			<g>
				<g>
					<g>
						<g>
							<g>
								<defs>
									<rect id="SVGID_3_" width="778.3" height="567.6"/>
								</defs>
								<clipPath id="SVGID_4_">
									<use xlink:href="#SVGID_3_"  style="overflow:visible;"/>
								</clipPath>
								<polygon class="st2" points="528.4,361 536,355.8 543.3,358.3 550.8,357.4 554.1,364.3 555.6,375.1 548.4,373.8 
									542.3,375.8 544.1,383.9 536.2,383.1 537.4,386.7 542.4,389.4 548.5,399.2 558.6,402.7 561,406.5 560.2,411.2 561.3,413.9 
									563.9,410.1 572.3,407.4 572.3,407.4 572.3,407.4 578.5,410.4 586.3,418.9 590.2,418.2 590.2,418.2 578.9,377.2 
									596.9,369.9 596.9,369.9 596.9,369.9 598.6,370.8 613,378.3 620.7,382.2 631.1,391.9 639.8,389.9 652.9,388.4 652.9,388.4 
									652.9,388.4 664.9,396.2 667.8,407.4 671.7,407.3 671.7,407.3 671.7,407.3 676.2,416.4 686.4,416.3 686.4,416.3 
									686.4,416.3 690.2,421.5 693.1,421.3 694.1,413.2 701.9,404.8 705.8,402.5 705.8,402.5 705.8,402.5 705.9,397.6 
									710.5,395.7 710.5,395.7 710.5,395.7 724.7,399 723.6,392.3 727.1,389.7 727.1,389.7 727.1,389.7 740,393.9 742.4,392.5 
									755.4,392.1 755.4,392.1 755.4,392.1 767.4,392.6 772.8,396.5 778.3,397.8 775.2,391.5 775.2,391.5 775.2,391.4 
									779.3,388.2 764.6,369.2 764.6,369.1 764.6,369.1 777.9,363.8 780.7,361 777.3,340.7 777.3,340.7 777.3,340.7 793.8,343.4 
									795.6,338 790.6,326.8 790.6,326.8 790.6,326.8 796.2,325.3 798.1,317.7 798.1,317.5 790.9,311 782.2,313.1 776.7,308.6 
									770.6,306.8 763.8,300.6 758.9,298.9 749.9,302.4 736.8,296.7 735.9,301.7 735.8,302.7 735.8,302.7 735.7,302.8 
									706.1,275.6 692.8,267.6 693.7,264 681.1,275.5 674.6,276.6 672.3,270.5 661.5,267.3 655.3,270.4 647.9,259.1 634.1,257.4 
									629.9,262.4 614,267.4 611.7,270.3 586.6,275.5 584.8,279.4 592.8,286.7 592.8,286.7 592.9,286.8 587,290 589.5,292.9 
									589.4,292.9 589.5,292.9 584.5,298.6 599.1,305.6 599.1,305.7 599.1,305.7 599.2,311 588.6,311.1 587.7,314.4 576.2,309.1 
									564.6,309.9 558.3,314.9 548.1,310.8 529.4,303.7 518,304.5 506.2,317.1 507.6,325.2 498.1,319.1 495.4,331.4 498.2,333.6 
									498.2,333.6 498.2,333.6 496,342.1 503.7,348.8 504.4,349.4 510,348.9 516.8,356.1 516.8,356.1 516.8,356.2 517.5,361.9 
									521.8,363.5 521.8,363.6 521.9,363.6 								"/>
							</g>
						</g>
					</g>
				</g>
			</g>
		</g>
		<g>
			<g>
				<g>
					<g>
						<g>
							<g>
								<defs>
									<rect id="SVGID_5_" width="778.3" height="567.6"/>
								</defs>
								<clipPath id="SVGID_6_">
									<use xlink:href="#SVGID_5_"  style="overflow:visible;"/>
								</clipPath>
								<polygon class="st3" points="806.4,521.2 806.4,509.6 806.4,509.6 806.4,509.6 800,508.4 805.8,520.7 								"/>
							</g>
						</g>
					</g>
				</g>
			</g>
		</g>
		<g>
			<g>
				<g>
					<g>
						<g>
							<g>
								<defs>
									<rect id="SVGID_7_" width="778.3" height="567.6"/>
								</defs>
								<clipPath id="SVGID_8_">
									<use xlink:href="#SVGID_7_"  style="overflow:visible;"/>
								</clipPath>
								<polygon class="st4" points="798.2,488.9 798.2,488.9 800.1,498.2 805,503.8 806.4,509.6 806.4,324.1 800.6,316.4 
									798.2,317.5 798.1,317.5 798.1,317.5 798.1,317.7 796.3,325.3 796.2,325.3 796.2,325.4 790.6,326.8 795.6,338 793.8,343.4 
									793.8,343.4 777.3,340.7 780.7,361 777.9,363.8 777.9,363.8 777.8,363.8 764.6,369.1 779.4,388.2 779.3,388.2 779.3,388.2 
									775.2,391.5 778.3,397.8 778.2,400.4 778.2,400.5 778.2,400.5 768.1,407.2 766.9,411.8 766.9,411.8 766.9,411.8 
									757.3,413.7 756.8,421 756.8,421 756.8,421 747.8,419.9 743.1,422.4 737.6,427.7 737.2,428.1 739.2,430.6 737.8,433.3 
									743.1,443.6 745.4,442.3 751.1,444.7 751.1,444.7 751.1,444.7 752.2,449.1 755.4,455.4 755.4,455.4 755.4,455.4 
									755.4,455.4 757.7,458.4 757.9,458.6 761.1,460.7 765.5,463.6 770.5,472.1 781.7,475.1 785.4,476.1 797.2,488 								"/>
							</g>
						</g>
					</g>
				</g>
			</g>
		</g>
		<g>
			<g>
				<g>
					<g>
						<g>
							<g>
								<defs>
									<rect id="SVGID_9_" width="778.3" height="567.6"/>
								</defs>
								<clipPath id="SVGID_10_">
									<use xlink:href="#SVGID_9_"  style="overflow:visible;"/>
								</clipPath>
								<polygon class="st5" points="750.1,302.4 759.1,298.8 764,300.6 770.7,306.7 776.9,308.6 782.3,313.1 790.9,310.9 
									798.2,317.5 800.6,316.4 806.4,314.2 806.4,42.9 787.3,43.6 780.5,39.1 762.7,39.1 756.6,41.5 757.5,44.3 747.5,38.1 
									745.2,40.5 735,38.7 727.2,37.9 727.6,34.5 734,27.8 735.8,24.4 730.8,19.2 722.5,15.9 706,12.1 692,13.1 690.5,15.9 
									683.5,11.2 671,10.5 674.7,7.6 662.9,5 656.4,10 656.5,14.6 660,19 650.9,19.5 645.5,25.8 639.2,23.8 627.2,25.7 
									628.3,28.6 616.4,31 611.4,36.8 605.8,37.5 605.9,44.7 614.9,49.8 604.8,52.1 591.8,52.5 584.4,55.2 593.8,66.4 605.4,74.8 
									590.7,69.5 579.9,70.8 573.8,75.6 581.9,83.1 574.5,81.5 569.4,71.1 562.2,65.4 559.7,65.9 566.4,73.3 561.6,81.1 
									574.8,89.4 577.6,100.4 582.9,106.3 589.8,106.8 591.8,114 599.2,119.9 597.4,125.4 599.2,130.8 594.4,134.1 594.3,138.1 
									586.4,136.9 588.7,120.9 586.5,113.5 575.8,107.3 567.5,92.5 560.6,85.2 554.9,81.9 554.1,73 548.9,67.1 532.6,65.2 
									530,67.5 532.8,77.4 528.7,87.7 531,91.2 539.2,99.4 540.4,104.6 548,105.3 549.6,107.6 559,112.9 558.4,118.8 529.9,107.7 
									519.9,104.7 501,102.4 499.9,106.1 509.4,112.1 506.5,119.6 496.3,113.4 489.8,118.3 478.8,119.2 476.3,123.1 468.3,122.3 
									471.1,115.4 466.4,115.1 449.8,125.3 439.3,131.1 440.6,138.1 432.1,140.9 425.8,137.3 423.4,131.2 430.5,129.6 
									424.6,123.6 406.4,120.7 413.4,127.3 412.9,134 420.5,140.3 419.6,148 412.5,144.4 406.5,144 395.5,155.2 402.4,163.1 
									397.9,166 380.4,159.6 377.6,163.9 382.9,168.5 383.6,173.9 377.7,171.2 368.5,168 365,156.8 363.1,151.8 350.7,144 
									354.8,142.5 385.2,149.9 394.4,146.7 399.4,140.7 396.4,133.4 389.9,128.3 363,116.7 345.8,114.5 334.1,108.2 329.1,112.1 
									329.1,112.2 329.1,112.2 320.1,116.8 315.5,117.9 315.5,117.9 315.5,117.9 316.6,125.7 324.4,130.7 327.7,132.8 
									324.1,141.2 334.4,153.5 332.4,163.1 340.2,171.1 339.2,178.4 344,181.4 350.7,185.7 349.5,191.3 344.9,197.9 333.6,212.3 
									341.7,217.3 335.2,223.6 336.6,225.5 336.6,225.5 336.6,225.5 333,232 337,242.2 334.6,245.8 338.4,248.2 338.5,248.3 
									338.5,248.3 340.1,253.6 340.8,254.9 343.6,260 351.5,262.6 351.5,262.7 351.6,262.7 353.1,265.3 356.6,263.9 361.4,265.6 
									364.1,266.4 365.8,271.6 364.8,274.6 367.5,277.8 370.8,281.7 374.1,283.6 374.1,283.6 374.1,283.7 374.1,285.7 
									379.3,287.5 379.3,287.5 379.4,287.5 382.1,290.4 379.7,292.9 373.8,292.6 372.5,293.7 373.1,294.5 375,297.3 378,304.2 
									378.1,304.3 380.9,304.7 382.3,302.1 384.6,302.6 392.1,301.4 392.1,301.4 392.1,301.4 398.1,307.5 396.7,309.8 398,313.2 
									403.8,313.6 404,313.6 407.6,318.3 407.9,320.5 411.6,321.8 418.2,324.1 423.6,322.2 423.6,322.2 423.6,322.2 429.3,327.3 
									433.6,327 445.5,330.3 445.5,330.3 445.5,330.3 446.4,333.6 444.6,339.5 446.6,343.6 447.5,345.5 447.5,345.5 447.6,345.5 
									447.2,349.2 440,350.3 436.7,353.5 437.4,358.4 443.9,356.4 444.6,358.8 434.2,363.6 439.4,367.9 434.7,377.3 429.4,379.2 
									437.3,385.5 447.1,389.5 458.8,398.6 459.5,397.2 459.6,397.2 459.6,397.2 466.6,399 478.6,400.4 490.4,405.4 492.2,407.5 
									496.6,405.6 496.6,405.6 496.7,405.6 499.4,406.3 504.5,407.7 504.5,407.7 504.6,407.7 507.9,412.2 509.4,412.8 
									513.4,414.6 513.4,414.6 513.4,414.6 515.8,414.9 522.7,421.5 526.4,422.1 527.1,419.2 530.8,414.6 519.3,401.8 
									518.3,394.3 508.8,384 513.8,372.3 520.9,370.2 522.7,363.6 518.4,361.9 518.3,361.9 518.3,361.9 517.6,356.1 510.9,349 
									505.3,349.4 505.3,349.4 505.3,349.4 504.6,348.8 497,342.2 497,342.1 497,342.1 499.1,333.6 496.4,331.5 496.4,331.4 
									496.3,331.4 499,319 508.5,325.2 507.1,317.1 518.9,304.5 530.2,303.7 548.8,310.7 559,314.8 565.3,309.8 576.9,309.1 
									588.3,314.4 589.3,311 599.8,311 599.7,305.7 585.1,298.7 585.2,298.6 585.1,298.6 590.1,292.9 587.7,290 587.7,290 
									587.6,289.9 593.5,286.7 585.5,279.5 585.5,279.4 585.4,279.4 587.2,275.4 612.3,270.3 614.6,267.4 630.4,262.3 
									634.7,257.4 648.3,259 655.8,270.4 661.9,267.2 672.7,270.4 674.9,276.5 681.5,275.4 694.1,263.9 693.2,267.6 706.4,275.5 
									736,302.7 736.1,301.7 737,296.6 								"/>
							</g>
						</g>
					</g>
				</g>
			</g>
		</g>
		<g>
			<g>
				<g>
					<g>
						<g>
							<g>
								<defs>
									<rect id="SVGID_11_" width="778.3" height="567.6"/>
								</defs>
								<clipPath id="SVGID_12_">
									<use xlink:href="#SVGID_11_"  style="overflow:visible;"/>
								</clipPath>
								<polygon class="st6" points="746.7,563.2 746.7,563.2 746.7,563.2 756.8,563.7 763.1,551.6 765.7,539.9 771.1,528.3 
									769,520.2 774.4,513.4 766.2,508.1 761.2,500.6 755.6,490.8 758.3,485.8 758.3,485.8 758.3,485.8 771.6,488 780.3,485.9 
									785.4,476.1 785.3,476.1 781.7,475.1 770.5,472.1 770.5,472.1 770.5,472.1 765.5,463.6 761.1,460.7 757.9,458.6 
									753.5,460.1 750,462.4 741.1,464.1 733,466.8 729.6,471.9 732.9,476.6 735.4,482.1 732.6,487 734.1,491.3 732.9,495.5 
									732.9,495.5 724.9,495.4 730.1,502.8 725.5,505.8 723.7,512.7 725.8,519.5 723.2,522.8 719.9,521.9 713.8,523.5 
									713.6,526.7 707.4,526.9 704.1,533.4 705.9,543 695.8,548 695.8,548 695.8,548 689.7,547.2 688.5,549.7 683.1,548.5 
									674.9,550.4 659.7,545.1 664.9,550.8 669.7,557.5 678.8,562.2 680,568.2 743.8,568.2 								"/>
							</g>
						</g>
					</g>
				</g>
			</g>
		</g>
		<g>
			<g>
				<g>
					<g>
						<g>
							<g>
								<defs>
									<rect id="SVGID_13_" width="778.3" height="567.6"/>
								</defs>
								<clipPath id="SVGID_14_">
									<use xlink:href="#SVGID_13_"  style="overflow:visible;"/>
								</clipPath>
								<polygon class="st7" points="771.6,488 771.6,488 758.3,485.8 755.6,490.8 761.3,500.6 766.2,508.1 774.4,513.4 769,520.2 
									771.2,528.3 765.7,539.9 763.1,551.6 756.8,563.7 756.8,563.7 756.8,563.7 746.7,563.2 743.9,568.2 806.4,568.2 
									806.4,521.2 805.8,520.8 800,508.4 800,508.4 806.4,509.6 805,503.8 800.1,498.2 800.1,498.2 800,498.2 798.2,488.9 
									797.2,488 785.4,476.1 780.3,485.9 								"/>
							</g>
						</g>
					</g>
				</g>
			</g>
		</g>
		<g>
			<g>
				<g>
					<g>
						<g>
							<g>
								<defs>
									<rect id="SVGID_15_" width="778.3" height="567.6"/>
								</defs>
								<clipPath id="SVGID_16_">
									<use xlink:href="#SVGID_15_"  style="overflow:visible;"/>
								</clipPath>
								<path class="st8" d="M791,326.7"/>
							</g>
						</g>
					</g>
				</g>
			</g>
		</g>
		<g>
			<g>
				<g>
					<g>
						<g>
							<g>
								<defs>
									<rect id="SVGID_17_" width="778.3" height="567.6"/>
								</defs>
								<clipPath id="SVGID_18_">
									<use xlink:href="#SVGID_17_"  style="overflow:visible;"/>
								</clipPath>
								<line class="st9" x1="796.6" y1="325.2" x2="796.6" y2="325.2"/>
							</g>
						</g>
					</g>
				</g>
			</g>
		</g>
		<g>
			<g>
				<g>
					<g>
						<g>
							<g>
								<defs>
									<rect id="SVGID_19_" width="778.3" height="567.6"/>
								</defs>
								<clipPath id="SVGID_20_">
									<use xlink:href="#SVGID_19_"  style="overflow:visible;"/>
								</clipPath>
								<path class="st10" d="M798.5,488.4"/>
							</g>
						</g>
					</g>
				</g>
			</g>
		</g>
	</g>
	<polygon class="st11" points="440.9,531.6 437.1,533.2 437.1,530.3 439.1,528.7 436.8,527.5 437.7,520.1 440.9,521.6 442,518.1 
		441.8,518 442.7,516.3 442,511.8 439.8,512 439.3,513.9 436.4,514 436.4,514 436.4,514 436.2,514.1 435.4,516.9 434.6,525.3 
		433,530.5 433.7,531.1 431.7,534.8 439.4,553.7 441.6,535.9 	"/>
	<polygon class="st11" points="545.6,535.1 545.6,535.1 545.7,527 540,518.7 528.7,512.9 521.1,502.4 521.6,493.7 525.2,489.8 
		523.4,483.3 517.4,480.1 509.7,467 506.1,469 505.9,468.8 502.7,466.2 492.9,465 489.7,466.9 486.6,473.9 482.6,476.7 484.6,484.8 
		483.6,498.3 466.8,510.2 472,523.6 482.6,526.4 496.3,533.9 523.3,555.8 539.3,556.3 544,545.5 549.8,546.3 554.9,546.7 549.3,541 
		548.3,535.1 	"/>
	<polygon class="st11" points="452.8,553.4 454.4,549.4 460.7,547.8 461.7,544 464.3,542.1 454.4,531.2 470.6,525.3 472,523.6 
		472,523.6 472,523.6 466.8,510.2 451.9,522.3 442,518.1 440.9,521.6 441.7,528.4 440.9,531.6 441.6,535.9 439.4,553.7 439.8,555.3 
		449.5,556.9 	"/>
	<polygon class="st11" points="439.8,512 442,511.8 442,511.8 442,511.8 443.3,505.7 447.3,501.4 445.3,497.1 441.5,496.6 
		441.4,497 438.3,504.9 436.4,514 439.3,513.9 	"/>
	<polygon class="st11" points="447.3,501.4 443.3,505.7 442,511.8 442.7,516.3 441.8,518 442,518.1 451.9,522.3 466.8,510.2 
		483.6,498.3 484.6,484.8 482.5,476.7 486.6,473.9 489.7,466.9 480.6,468.8 476.2,468.7 467.4,473.1 460.6,473.2 455.9,471.3 
		447.3,474.5 444.3,472.4 444.7,478.2 444.7,478.6 444.7,478.6 444.7,478.6 442.9,481.1 441,483.6 439.6,488.1 441.5,496.6 
		445.3,497.1 	"/>
	<polygon class="st11" points="743.1,443.6 737.8,433.3 723.2,435.7 723.2,435.7 723.2,435.7 712.1,432.6 703.7,433.8 703.7,433.8 
		703.7,433.8 702.5,427.3 702.5,427.3 702.5,427.3 711.8,428.8 713.6,425.2 713.6,425.2 710.4,425.7 708.3,422.6 708.3,417.3 
		698.4,420.4 698.2,427.7 696.2,434 689.4,433.8 688.7,438.8 695.4,441.3 699.6,449.5 698.2,461.1 698.2,461.1 701.1,462.3 
		706,458.5 706,458.5 706,458.5 709.4,460.5 710.5,455.3 710.5,455.3 715.4,455.3 716.2,453.6 715.7,449 718,445 718,445 718,445 
		723.2,447.3 723.3,450.8 725.9,451.2 727.9,460.7 732.2,464.2 734.4,461.8 737.7,460.5 741.2,455.2 741.2,455.2 741.2,455.2 
		747.1,455.8 755.4,455.4 755.4,455.4 752.2,449.1 751.1,444.7 745.4,442.4 	"/>
	<polygon class="st11" points="610.3,454.4 620.6,459.7 627.4,460.7 639.2,470.3 645.3,470.4 648.3,479.8 648.3,479.8 657.8,483.8 
		663.6,482.1 664.1,476.9 670.2,475 673.9,471.5 673.2,462.4 679.5,460 679.7,455.9 684.4,458.8 686.9,459 685.2,452.2 673.1,447.8 
		663.2,442.7 656.5,437.6 645.1,430.3 638,418.9 634.8,417 626.3,417.9 626.3,417.9 626.3,417.9 622.6,415.7 619.3,406.8 607,401.4 
		602.1,408.1 596.4,412.2 599.2,417.8 590.2,418.2 590.2,418.2 586.3,418.9 586.3,418.9 586.3,418.9 578.5,410.4 572.3,407.4 
		563.9,410.1 561.3,413.9 561.3,413.9 561.3,413.9 565.5,421 564.4,412.8 570.1,409.8 573.9,416.1 581.4,422.5 575.2,426.4 
		567,423.9 567.5,433.3 572.9,433.8 572.7,441.5 579.8,445 581.3,456.7 584.5,464.6 591.3,462.2 595.6,455.6 595.6,455.6 
		595.6,455.6 601.1,455.7 604.2,453.5 604.2,453.5 604.2,453.5 	"/>
	<polygon class="st11" points="209.1,479.6 210.7,490.1 209,499.2 204.1,505.4 205,513.6 212.1,520.2 212.3,522.9 217.6,527.3 
		221.8,547 225.9,544.4 226.5,539.8 225.4,535.2 231.1,531 233.6,527.4 237.6,524.3 237.7,515.8 234.4,514.1 232.1,508.8 
		227.7,508.7 225.9,502.7 231.3,497.1 232,487.6 229,484.9 228.8,479.8 232.7,474.3 232,472.3 225.2,476.4 225.2,470.8 219.4,469.5 
		210.6,473.9 210.6,473.9 210.6,473.9 	"/>
	<polygon class="st11" points="678.8,562.2 669.7,557.5 664.9,550.8 659.6,545.1 665.3,534.7 663.1,527.5 656.3,525.8 654.2,518.7 
		649.5,509.9 651.8,503.6 647.8,502.1 648.2,493.9 648.3,479.8 645.3,470.4 639.1,470.3 627.4,460.7 620.6,459.7 610.2,454.4 
		604.2,453.5 601.1,455.7 601.1,455.7 595.6,455.6 591.3,462.2 584.5,464.6 584.3,467.2 572.2,470.5 560.1,468.9 553.3,463.5 
		545,461.5 540.8,453.3 538.9,453.9 538.8,453.9 538.8,453.9 538.6,453.7 532.6,448.3 532.6,448.3 532.6,448.2 534.3,442.7 
		531.6,439.8 531.2,439.5 528.4,440.4 520.5,448.9 517.6,449.3 517.6,449.3 517.6,449.3 517.6,449.3 517.5,449.3 517.5,449.3 
		517.4,449.2 511.7,448 506.7,443 506.6,442.9 504.5,438.8 499.6,442.1 504.5,454.7 503.6,458.2 509.7,467 517.4,480.1 523.4,483.3 
		525.2,489.8 521.6,493.7 521.2,502.4 528.7,512.9 540,518.7 545.7,527 545.6,535.1 548.3,535.1 548.3,535.1 549.3,541 554.9,546.7 
		557.5,542.3 563.4,545.9 567.7,544 576.3,558.6 583,568.2 680,568.2 	"/>
	<polygon class="st11" points="80.7,555.1 89.2,553.5 96.3,550.5 99.6,545 109.7,540.7 110.1,532.5 115,531.6 118.9,527.5 
		130,525.7 131.5,521.4 129.3,519 126.5,507.4 126,500.8 122.9,493.7 119.3,493.5 110.7,491.1 102.8,491.9 97.8,487.2 91.8,487.1 
		89,493.9 83.1,505.3 76.7,509.8 68.2,514.8 62.5,522.2 61.2,528 57.7,537.4 59.4,551.1 51.9,560.3 47.6,563.2 42.9,568.2 
		66.6,568.2 66.7,563.2 	"/>
	<polygon class="st11" points="225.5,561.8 224.9,556.7 221.8,547 217.6,527.3 212.3,522.9 212.1,520.2 205,513.6 204,505.4 
		209,499.2 210.7,490.1 209.1,479.6 210.6,473.9 204.9,474.7 201.5,472.1 192.7,472.3 185,476.6 180.8,475 167.2,475.9 153.2,477.9 
		145.2,481.2 140,485.8 131,487.7 122.9,493.7 126,500.8 126.5,507.4 129.3,519 131.5,521.4 130,525.7 118.9,527.5 115,531.6 
		110.1,532.5 109.7,540.7 99.7,545 96.3,550.5 89.2,553.5 80.7,555.1 66.7,563.2 66.6,568.2 224.6,568.2 	"/>
	<polygon class="st11" points="421.6,562.8 416.9,551.2 417.7,550.2 425.3,565.9 427.4,568.2 436,568.2 436.5,566.6 437.4,558.2 
		439.4,553.7 431.7,534.8 427.8,537.7 421.1,537.1 414.1,534.6 412.5,538.2 409.6,532.8 403.4,531.5 396,532.5 392.9,535.7 
		386.7,539.3 382.6,537.7 373.9,534.5 365.5,531.7 354.2,532 351.6,537.3 353.3,542.1 351.7,548.9 354.9,557.8 355.6,568.2 
		424.7,568.2 	"/>
	<polygon class="st11" points="224.9,556.7 225.5,561.8 224.6,568.2 355.6,568.2 354.9,557.8 351.7,548.9 353.3,542.1 351.6,537.3 
		354.2,532 351.9,528.4 343.3,527.2 340.5,525.4 337.3,525.4 334.1,520.5 322.5,518.3 316.8,519.9 311.1,525.1 308.8,530.5 
		311.4,538.9 307.6,544 303.6,546.9 294.3,541.5 282,537 274.3,534.9 269.8,525.2 258.4,520.4 251.2,518.5 247.7,519.5 237.7,515.8 
		237.6,524.3 233.6,527.4 231.1,531 225.4,535.2 226.5,539.8 225.9,544.4 221.8,547 221.8,547 	"/>
	<polygon class="st11" points="550,562.5 550,562.5 547,557.3 539.3,556.3 523.3,555.8 496.3,533.9 482.6,526.4 472,523.6 
		470.6,525.3 454.4,531.2 464.3,542.1 461.7,544 460.7,547.8 454.4,549.4 452.8,553.4 449.5,556.9 439.8,555.3 439.3,559.7 
		439.3,563.6 438.8,568.2 559,568.2 556,562.1 	"/>
	<polygon class="st11" points="445.8,478.2 445.8,477.8 445.4,472 448.4,474.1 457,470.8 461.7,472.8 468.5,472.7 477.2,468.3 
		477.2,468.3 477.2,468.3 481.7,468.4 490.7,466.4 490.7,466.4 490.7,466.4 493.9,464.6 493.9,464.6 493.9,464.6 503.7,465.8 
		506.9,468.4 507.1,468.5 510.6,466.6 504.6,457.8 505.5,454.4 500.6,441.7 505.5,438.4 502.5,435.9 501.7,435.3 495.2,432.7 
		494.9,427.3 492.8,423.5 484,418.3 475.7,419 467.3,425 460.2,424.2 451.2,426.1 439,422.1 423.7,414.6 410.6,415.2 401.7,418.5 
		393.1,425.8 377.7,424.6 375.4,433.1 363,433.8 355.3,444.4 361,449.6 358.1,458.2 364.7,464.2 370.8,475.1 379.7,474.8 
		388.4,480.5 393.9,479.2 395.3,474.5 404.2,474.7 411.6,480.6 424,479.1 428.8,472.6 436.1,475 440.9,474 438.4,478.2 442.2,483.1 
		444,480.6 	"/>
	<polygon class="st11" points="758.2,458 755.8,455 747.5,455.4 747.5,455.4 747.5,455.4 741.7,454.8 738.2,460.1 734.9,461.4 
		732.7,463.9 732.7,463.9 732.7,463.9 728.4,460.3 726.4,450.9 723.8,450.4 723.7,447 718.6,444.7 716.2,448.7 716.7,453.2 
		716,454.9 716,454.9 711,454.9 709.9,460.1 709.9,460.1 709.9,460.1 706.5,458.1 701.6,461.9 701.6,461.9 701.6,461.9 698.8,460.7 
		698.8,460.7 698.8,460.7 698.8,460.7 692,458.6 687.5,458.7 685,458.4 680.3,455.5 680.1,459.6 673.8,462 674.5,471 670.8,474.6 
		664.7,476.5 664.3,481.6 658.4,483.4 658.4,483.4 658.4,483.4 649,479.4 648.9,493.4 648.5,501.6 652.4,503.1 650.2,509.4 
		654.8,518.2 657,525.3 663.7,526.9 665.9,534.1 660.3,544.5 660.3,544.5 675.6,549.8 683.7,547.9 683.7,547.9 683.7,547.9 
		689.1,549.1 690.3,546.6 690.3,546.6 690.3,546.6 696.4,547.4 706.4,542.4 704.6,532.9 707.9,526.4 714.1,526.2 714.3,523 
		720.4,521.3 723.7,522.2 726.3,519 724.2,512.2 726,505.3 730.6,502.3 725.4,495 733.4,495 734.6,490.9 733.1,486.6 735.9,481.7 
		733.4,476.2 730.1,471.5 733.5,466.4 741.5,463.7 750.5,462 753.9,459.7 758.3,458.2 	"/>
	<polygon class="st11" points="591.3,462.2 584.5,464.6 581.3,456.7 579.8,445 572.7,441.5 572.9,433.8 567.5,433.3 567,423.9 
		575.2,426.4 581.4,422.5 573.9,416.1 570.1,409.8 564.4,412.8 565.5,421 561.3,413.9 561.3,413.9 560.2,411.2 561,406.5 
		558.6,402.7 548.5,399.2 542.4,389.4 537.4,386.7 536.2,383.1 544.1,383.9 542.3,375.8 548.4,373.8 555.6,375.1 554.1,364.3 
		550.8,357.4 543.3,358.3 536,355.8 528.4,361 521.9,363.6 521.8,363.6 520,370.2 512.9,372.3 507.9,384 517.5,394.3 518.4,401.8 
		530,414.6 526.3,419.2 525.5,422.1 525.5,422.1 526.3,419.2 530,414.6 535.5,420.3 541.4,428.1 545.2,428.5 548.4,431.4 
		541.9,432.5 542.4,441.1 541.8,445.1 539.4,447.8 540.8,453.3 538.8,453.9 538.9,453.9 540.8,453.3 545,461.5 553.3,463.5 
		560.1,468.9 572.2,470.5 584.3,467.2 584.5,464.6 591.3,462.2 595.6,455.6 595.6,455.6 	"/>
	<polygon class="st11" points="520.5,448.8 520.4,448.8 518.7,441.1 517.2,440.5 514.8,439.4 510.7,436.5 510.7,436.5 510.7,436.5 
		512.2,432.9 507.2,429.2 507.2,429.2 507.2,429.2 508.2,426.4 504.8,424.6 504.8,424.6 504.8,424.5 502.5,421.7 491.8,423.8 
		493.9,427.6 494.2,433 500.7,435.6 501.4,436.2 504.5,438.8 504.5,438.7 506.1,438.4 506.1,438.4 506.1,438.4 506.1,438.4 
		509.1,441.3 512.7,441.2 512.7,441.2 512.7,441.2 512.7,441.2 513,442.9 517.6,449.3 517.6,449.3 520.5,448.9 	"/>
	<polygon class="st11" points="539.4,447.8 541.8,445.1 542.4,441.1 541.9,432.5 548.4,431.4 545.2,428.5 541.4,428.1 535.5,420.3 
		530,414.6 526.3,419.2 525.5,422.1 525.5,422.1 525.5,422.1 521.8,421.5 514.9,414.9 512.5,414.6 512.5,414.6 512.6,414.6 
		510.8,416.2 516.1,422.1 515.2,423.4 515.2,423.4 515.2,423.4 510.7,422.9 507.8,421.5 504.2,419.9 502.6,421.7 504.8,424.6 
		508.3,426.4 508.2,426.4 508.2,426.4 507.2,429.2 512.2,432.9 512.2,432.9 512.3,432.9 510.7,436.5 514.7,439.4 517.2,440.5 
		518.7,441.1 520.5,448.8 528.3,440.4 531.2,439.4 531.2,439.5 531.2,439.5 531.6,439.8 534.3,442.6 534.3,442.7 534.3,442.7 
		532.6,448.3 538.6,453.7 538.8,453.9 540.8,453.3 	"/>
	<polygon class="st11" points="491.8,423.8 502.5,421.7 502.5,421.7 504.1,419.8 507.8,421.5 510.8,422.9 515.2,423.4 516,422.1 
		510.8,416.2 512.5,414.6 508.5,412.8 507,412.2 503.6,407.7 498.4,406.3 495.7,405.6 491.3,407.5 491.3,407.5 491.2,407.5 
		489.4,405.4 477.5,400.4 465.5,399 458.5,397.2 457.8,398.6 461.4,401.9 466,403.1 471.4,407 474.9,414.5 474.6,419.3 483,418.5 	
		"/>
	<polygon class="st11" points="539.3,556.3 547,557.3 550,562.5 556,562.1 556,562.1 556,562.1 551.9,553.7 552.3,551.1 
		549.8,546.3 544,545.5 	"/>
	<polygon class="st11" points="436.8,527.5 439.1,528.7 437.1,530.3 437.1,533.2 440.9,531.6 441.7,528.4 440.9,521.6 437.7,520.1 	
		"/>
</g>
<g id="EU">
	<polygon class="st12" points="309.8,434.5 309.8,434.4 312.3,432.7 312.1,430 312.2,430 312.2,429.8 308.6,427.1 307,422.5 
		307.7,418.7 306.8,414.7 304.8,413.7 302.7,410.7 300.7,411.7 300,409.6 297,415.1 297.9,418.6 299.4,420.3 298.6,423.7 
		298.6,431.2 299.7,436.5 304.6,440.1 304.9,442.6 306.4,443.3 309.6,437.9 	"/>
	<polygon class="st13" points="268.4,354.7 272.7,354.6 272.9,350.1 272.9,350.1 271.8,346.3 272.3,344.9 272.3,344.9 268.6,342.8 
		265.1,343.4 258.9,340.1 256.3,341 252.3,345.6 246.4,342.1 244.1,347.1 241.4,348.6 243,355.8 242.4,357.6 242.4,357.6 
		242.4,357.6 239.9,355.4 236.2,355.1 230.8,357.1 230.8,357.1 230.8,357.1 224,356.7 223.1,359.6 223.1,359.6 223.1,359.6 
		219,356.6 216.7,357.2 217.1,359.1 216.1,361.9 219.6,363.8 223.6,364.1 228.4,365.6 229.2,363.5 236.7,361.5 238.6,365.4 
		249.9,368.1 256.4,368.9 260.1,366.3 266.9,366 268.2,364.1 270.1,357 	"/>
	<polygon class="st13" points="297.5,394.8 293.3,390.6 294.8,385.7 292,385.8 288.2,383.4 282.8,383.6 275.9,381.9 272.3,382.2 
		270.8,384.5 270.8,384.5 270.8,384.5 267.8,382 266.5,386.6 270.8,391.6 272.7,395.1 276.7,399.1 279.9,401.5 283.3,406.1 
		290.7,410.2 291.3,404.1 293.6,401.5 295,400.5 296.9,400 	"/>
	<polygon class="st13" points="166.3,321.5 169.8,326 175.2,331.2 179.1,330.3 185.9,335.3 186.5,329.1 188.4,328.7 188.4,328.7 
		189,321.3 189,321.3 184.8,318.7 179.9,313.9 173.1,316.2 167.6,315.4 161.6,317.6 162.8,321.4 	"/>
	<polygon class="st13" points="357.5,392.4 348.6,395.1 345,398 345,398 345,398 333.4,397.6 327.1,395.9 324.1,396.8 321.4,392.3 
		319.7,394.8 320.8,398.8 325.2,403.5 322.5,407 321.6,410.6 322.6,411.8 321.4,413.4 325.8,416.9 327.2,424.2 333.1,424.4 
		339.2,421.3 345.3,425 352.4,423.9 351.9,418.5 351.9,418.6 351.9,418.4 359.6,414.8 359.6,414.8 359.6,414.8 366.6,416.1 
		363.3,409.9 365.1,402 368.6,397.3 363.8,396.3 	"/>
	<polygon class="st13" points="196.2,374.2 199.6,376.5 203.3,376 207.5,372.2 209,374 212.6,373.6 214.1,369.1 220,370.5 
		223.3,368.6 223.6,364.1 219.6,363.8 216.1,361.9 217.1,359.1 216.7,357.2 216.7,357.2 216.7,357.2 208.3,353.9 206.8,356.3 
		206.8,356.3 206.8,356.3 200.3,356.2 198.2,358.1 194.7,357.1 195.1,359.9 189.6,366.1 189.7,371.1 191.4,370.3 193.3,369.4 	"/>
	<polygon class="st13" points="422.2,488.5 416.3,488.4 415.4,491.1 414.9,491.2 411,491.7 413.4,496.1 417.6,497.4 425.6,492.8 
		425.2,491.9 424.4,489.9 429.4,485.1 	"/>
	<polygon class="st12" points="249.8,317.4 248.1,319.5 242.9,321.7 240.3,324.4 235,326.9 236.6,330.2 237.7,334.8 241.7,337.4 
		246.4,342.1 252.3,345.6 256.3,341 258.9,340.1 265.1,343.4 268.6,342.8 272.3,344.9 273.1,342.5 273.1,342.5 273.1,342.5 
		276.5,342.6 279,341.4 279.1,340.4 280.5,339.8 280.8,337.4 282.5,336.8 283.4,334.8 285.7,334.8 281.6,329.4 276,328.8 
		274.9,325.4 269.6,324.2 268.8,327.1 268.8,327.1 268.8,327.1 264.5,324.8 264.7,321.8 259,320.9 255.1,317.4 251.9,318.6 
		251.9,318.6 251.9,318.6 	"/>
	<polygon class="st13" points="194.9,295.5 193.5,305.6 191.8,309.7 191.8,309.7 187.3,309.7 189,321.3 188.4,328.7 190,331.2 
		189.7,336 193.4,338.8 204.5,340.8 200.9,348.4 200.3,356.2 206.8,356.3 208.3,353.9 208.3,353.9 208.3,353.9 216.7,357.2 
		219,356.6 219,356.6 219,356.6 223.1,359.6 224,356.7 224,356.7 224,356.7 230.8,357.1 236.2,355.1 236.2,355.1 236.2,355.1 
		239.9,355.4 242.4,357.6 243,355.8 241.4,348.6 244.1,347.1 246.4,342.1 241.7,337.4 237.7,334.8 236.5,330.2 235,326.9 
		240.3,324.4 242.9,321.7 248.1,319.5 249.8,317.4 249.8,317.4 249.8,317.4 251.9,318.6 255.1,317.4 251.5,310.4 251.7,306.6 
		249.3,300.8 246.3,296.9 248.2,293.9 245.9,288.3 242.2,284.9 233.6,280.6 229.8,283.7 222.5,285.8 222.4,281.9 214.8,279.4 
		214.4,275.1 209.9,276.8 209.9,276.8 209.9,276.8 204.4,275.4 205.1,281.7 207,285.7 202.3,291.2 200.8,288.8 194.7,289.4 
		193.4,291.8 193.4,291.8 	"/>
	<polygon class="st13" points="233.8,268 231.1,262.5 220.9,266.3 222.2,270.8 230.3,277 	"/>
	<polygon class="st13" points="212.2,269.8 216.8,261.8 219,263 220.4,258.8 216.5,257.2 215.4,254.1 217.2,250.5 217.1,244.8 
		211.7,248 209.4,251.1 203.2,251.8 201.3,255.1 200.3,258.1 201.2,269.3 204.4,275.4 209.9,276.8 214.4,275.1 	"/>
	<polygon class="st14" points="130.9,406.8 127.8,402.5 115,402.2 108.4,402.7 100,400.8 89.4,400.8 79.7,398.8 68.2,406.7 
		71.2,411.5 70.5,419.3 73.5,416.5 76.9,414.9 78.7,420.3 83.4,420.3 84.8,418.9 84.8,418.9 84.8,418.9 89.5,419.4 91.5,424.9 
		87.7,427.8 87.4,436.4 86,438 85.5,443.2 82,444.1 85,450.7 82.6,457.9 85.3,461.2 84.1,464.2 80.9,468.3 81.5,471.9 89.1,473.6 
		91.3,480 94.3,483.7 98.3,484.6 101.6,480.4 106.8,476.6 114.7,476.8 125.1,476.7 131.1,468.3 137.3,466 139,458.9 143.8,454 
		140.6,447.7 143.7,438.8 148.7,432.7 149.4,429 159.7,426.7 167.2,419.4 166.7,412.9 157.5,414.4 148.4,409.4 145.5,411.8 	"/>
	<polygon class="st13" points="217,424.8 219.3,416.3 217.5,406.9 212.6,411.1 211.1,415.2 213.3,422.6 	"/>
	<polygon class="st14" points="198.1,393.3 198,393.3 195.8,384.8 198.4,381.4 198.1,381 195.9,377.3 196.1,374.2 193.3,369.4 
		191.4,370.3 189.7,371.1 189.7,371.1 189.6,371.1 189.6,366.1 195,359.9 194.7,357.1 194.7,357.1 194.7,357.1 198.2,358.1 
		200.3,356.2 200.3,356.2 200.9,348.4 204.4,340.8 193.4,338.9 189.7,336 187.6,336.3 185.9,335.3 179.1,330.3 175.2,331.2 
		169.8,326 166.3,321.6 162.8,321.4 161.6,317.6 161.6,317.6 161.6,317.5 155.1,319.8 153,328.8 135.3,337.4 128.2,332.6 
		130.5,345.1 117.7,342.2 107.8,344.6 108.4,352.6 120,356.9 125.7,362.4 133.5,374 131.9,395.9 127.8,402.5 130.9,406.8 
		145.5,411.8 148.4,409.4 157.4,414.4 166.6,412.9 167.5,406.3 179,402.7 194.7,405.7 201.7,399.4 202.4,394.7 198.1,393.4 	"/>
	<polygon class="st13" points="92.2,285.3 92.2,285.3 97.6,287.6 101.8,280 94.4,273.2 88.3,273.6 89.5,279.5 87.7,285.4 	"/>
	<polygon class="st13" points="102.7,271.6 106.7,266.4 109,269.5 106.2,274.4 107.8,277.4 116.6,279.4 116.7,279.5 121.4,286.3 
		120.2,292.7 109.4,291.6 107.8,298.9 111.7,304.8 103.8,308.2 105.8,312.6 117.4,314.5 117.4,314.5 110.7,316.8 99.4,328.3 
		103.3,330.5 108.7,326.4 115.6,327.6 120.7,322.5 124.2,324.7 137,321.7 147,321.8 153.7,316 150.7,310.3 154.5,307.1 155.3,300.1 
		146.3,298 144.2,293.6 139.7,281.1 134.8,279.3 128.5,266.3 127.9,265.2 120.6,264.5 127.1,254.6 129.1,245.6 121.4,245.5 
		114.2,247.1 122,235.2 113.6,236 108.1,235.1 102.3,244 99.3,255.4 102.7,261 	"/>
	<polygon class="st13" points="350.5,489.1 344.2,489.7 339.3,486.1 338.2,490.8 348.5,492.8 348.6,494.6 360.5,493.5 361.2,490.3 
		356.8,491.7 356.8,489.7 	"/>
	<polygon class="st14" points="351.9,418.6 352.4,423.8 352.4,423.9 352.4,424 345.3,425.2 339.2,421.4 333.1,424.6 327.1,424.3 
		325.6,424.7 324.5,426.6 320.1,426.5 317.3,428.9 312.2,430 312.3,432.7 312.3,432.7 312.3,432.9 309.8,434.5 309.6,437.9 
		309.6,437.9 309.6,438.1 306.3,443.5 307.1,446.6 311.6,450 311.2,452 311.8,452.8 315.4,457.8 319,457.6 322.6,456.7 324.3,457.2 
		327,457.5 326.1,459.4 324.4,458.9 322.3,457.5 320.6,458 320,459.3 318.3,459 317.4,460.5 315.9,462.1 317.6,465 318.8,465.3 
		320.1,466.5 321.3,468.8 320,470.6 321.4,473.8 323.4,475.5 324,474.6 323.4,472 325.3,471.9 327.3,475.2 327.2,477.5 328.6,478.4 
		328.9,474.3 330.6,474.3 332.3,478.2 334,478.2 329.4,465.9 332.5,468 335.1,467.3 332.2,461.7 335.7,461.1 340,464.6 339.3,458.3 
		335,455.2 329.9,450.2 332.8,447.8 328.2,442.7 325.7,436.1 327,433.6 331.9,439.2 336.3,439.2 340.2,437.3 334,431.2 343.5,428.2 
		347.7,429.2 352.7,429.4 354.5,428.2 356.1,421.2 355.8,421 	"/>
	<polygon class="st13" points="283.3,406.1 279.9,401.5 276.7,399.1 272.7,395.1 270.8,391.6 266.5,386.6 267.8,382 270.8,384.5 
		272.3,382.2 275.9,381.9 282.8,383.6 288.2,383.4 292,385.8 294.6,381.6 291.8,378.5 289.5,374.3 286.7,375.9 286.7,375.9 
		286.7,375.9 280.1,373.9 273.9,369.2 271.3,368 265.4,370.9 265,375.4 262.4,376.5 262.6,379.6 259.6,379.4 256.8,377.7 
		255.5,379.6 250,379.2 249.7,379.4 249.8,383.2 252.4,386.9 254.4,382.1 259.6,383.8 260.1,387.5 264,392.1 262.4,392.9 269.7,401 
		277.2,404.1 282.1,408.1 290,412 290.7,410.2 	"/>
	<polygon class="st13" points="310.1,347.4 310.1,347.4 301.5,344.2 299.1,344.9 297.6,347.5 294.2,349 294.2,349 294.2,349 
		293.3,348.2 289.7,350 286.7,350.4 286.3,352.6 280,354 280,354 280,354 277.1,352.9 272.9,350.1 272.7,354.6 268.4,354.7 
		270.1,357 268.2,364.1 269.5,364.3 271.3,368 273.9,369.2 280.1,373.9 286.7,375.9 289.5,374.3 295.2,371.3 295.2,371.3 
		295.2,371.3 300.1,371.7 306.1,369.6 309.9,362.1 312.7,354.5 317.1,352.1 317.1,352.1 317.1,352.1 317.1,352.1 316.2,349.2 
		311.6,346.3 	"/>
	<polygon class="st13" points="79.1,311.6 92.6,305.2 98.5,295.4 97.6,287.6 92.2,285.3 87.7,285.4 87.7,285.4 87.7,285.4 
		89.5,279.5 88.3,273.6 82.6,278.7 72.2,287.2 75.4,298.4 68.7,309.9 	"/>
	<polygon class="st14" points="249.9,368.1 238.6,365.4 236.8,361.7 229.2,363.6 228.5,365.7 223.7,364.2 223.3,368.7 220,370.6 
		214.2,369.2 212.7,373.7 209,374.1 207.6,372.3 203.4,376.1 199.6,376.6 196.2,374.2 196,377.4 198.1,381 198.4,381.4 198.4,381.4 
		198.4,381.5 195.8,384.9 198.1,393.3 202.4,394.7 202.4,394.7 202.5,394.7 201.7,399.5 205,398.7 209.3,393.6 212.9,392 
		219.5,395.6 223.5,396.9 226.5,407.7 232.2,414.1 239.9,421.1 246.5,426 252.4,426.7 256.2,431.1 261.5,433.1 264.2,437.8 
		267.6,439.1 270.5,444.7 274.1,451 272.5,453.4 271.2,459.3 271.4,462.6 274.7,461.8 278.5,452.3 281.8,451.6 282.4,445.8 
		276.2,441.9 279.1,434.7 286.3,436.4 291.1,441.5 292.3,437.5 291.3,435.5 284,429.8 277.8,426.6 270.3,422.7 272.4,420.5 
		270.3,418 264,418.1 254.6,409.4 250,400.3 242.2,394.8 239.3,389.2 240.1,386.1 239.3,380.6 245.4,376.7 251.7,378.2 249.5,373.5 
			"/>
	<polygon class="st13" points="210.7,435.8 211.5,449.1 214.7,452 217.8,448.3 221.6,448.9 222.1,434.4 216.9,426.6 213.1,430.1 
		208.6,429.6 	"/>
	<polygon class="st13" points="263.7,460 255.4,461.3 245.8,460.3 244.9,466 256.7,471.5 260.9,472.7 267.5,476.8 268.8,471.1 
		267.4,467.7 269.8,459 	"/>
	<polygon class="st13" points="308.8,416.5 313.4,414.8 315.1,414.3 314.8,413.5 315.6,412.2 316.2,409.5 315.1,409.5 315.1,409.5 
		315.1,409.5 313.3,407.6 312,407.1 310.8,405.3 309.2,404.6 307.9,403.1 306.6,403.7 305.8,407.4 304,408.2 302.8,410.7 
		304.8,413.7 306.8,414.7 307.7,418.7 308.7,418.8 	"/>
	<polygon class="st13" points="306.8,278.4 307.8,281.2 311.7,282.3 314,285.6 321,285.6 328.2,281.3 328.9,275 334.2,271.4 
		332.6,266.5 324.9,261.3 321,260.7 319.6,258.4 312.8,259.6 300.8,259.1 293.1,262.6 295.9,271.9 303.7,273.7 307.2,275.4 	"/>
	<polygon class="st13" points="190,331.2 188.4,328.7 186.5,329.1 185.9,335.3 187.6,336.3 189.7,336 189.7,336 	"/>
	<polygon class="st15" points="346.5,347.9 349,348.9 351.8,352.1 354.9,356.7 360.3,363.2 361.3,368 361.2,372.8 363.3,377.7 
		365.1,376.5 365.9,372.7 367.5,369.1 366.6,367.2 366.7,367.1 368.1,366.3 369.1,367.8 373.7,368 375.6,367.2 374,366.1 
		374.3,364.5 371.2,361.7 369.3,357.1 366.3,355.4 366.2,351.6 362.3,348.7 359.1,348.4 353,345.1 348.1,346.2 	"/>
	<polygon class="st13" points="300,409.6 300.7,411.7 302.7,410.7 304,408.2 304.6,407.2 301.3,405 298.6,403.9 297.3,402.3 
		295,400.5 293.6,401.5 291.3,404.1 290.7,410.2 290,412 293.6,414.2 296.1,417.7 297.9,418.6 297,415.1 	"/>
	<polygon class="st13" points="315.1,414.3 315.1,414.3 313.4,414.8 308.8,416.5 308.7,418.8 307.7,418.7 307,422.5 308.6,427.1 
		312.2,429.8 317.3,428.8 320.2,426.3 324.5,426.5 325.6,424.6 327.2,424.2 325.8,416.9 321.4,413.4 317.8,413.7 	"/>
	<polygon class="st16" points="179.9,313.9 184.8,318.7 189,321.3 187.3,309.7 187.3,309.7 191.8,309.7 193.5,305.6 194.9,295.5 
		193.4,291.8 193.4,291.8 187.3,291.5 177.4,296.1 171.4,312.3 167.6,315.4 173.1,316.2 	"/>
	<polygon class="st13" points="264.7,321.8 264.5,324.8 268.8,327.1 269.6,324.2 269.6,324.2 269.6,324.2 274.9,325.4 276,328.8 
		281.6,329.4 285.7,334.8 285.7,334.8 286.2,335.5 289.1,333.9 293.4,337.7 297.6,335.3 301.3,336.4 306.6,334.8 314.3,338.9 
		315.6,339.4 316,339.5 313.4,334.6 319.1,325.3 322.7,324 323,320.9 317.9,311.3 317.1,306.4 314.1,301.4 318.2,299 317.6,294.6 
		315,290.5 314,285.6 311.7,282.3 307.8,281.2 294.5,281.6 285.4,280.4 285.4,280.4 278.4,280.4 277.5,277.7 270.1,276 261.4,279.8 
		250.6,285 245.9,288.3 248.2,293.9 246.3,296.9 249.3,300.8 251.7,306.6 251.5,310.4 255.1,317.4 259,320.9 	"/>
	<polygon class="st13" points="84.1,464.2 85.3,461.2 82.6,457.9 85,450.7 82,444.1 85.5,443.2 86,438 87.4,436.4 87.7,427.8 
		91.5,424.9 89.5,419.4 84.8,418.9 83.4,420.3 78.7,420.3 76.9,414.9 73.5,416.5 70.5,419.3 70.7,423 72.2,427 72.2,431.6 
		70.2,438.2 69.5,442.7 66.1,446.6 65.1,453.8 66.9,458 70.6,459 71.1,465.8 69.5,474.4 73.8,473.2 78.1,474.7 81.5,471.9 
		80.9,468.3 	"/>
	<polygon class="st13" points="370.4,377.9 367.1,379.7 367.1,379.7 367.1,379.7 363.3,377.7 363.3,377.7 361.2,372.8 361.3,368 
		360.3,363.2 354.9,356.7 351.8,352.1 349,348.9 346.5,347.9 343.3,347.9 341.7,350.6 336.2,351.7 336,351.9 333.8,353.4 
		333.8,353.4 333.8,353.4 330.3,351.1 329.9,350.8 325,350.9 325,350.9 325,350.9 320.1,349.7 317.1,352.1 317.1,352.1 312.7,354.5 
		309.9,362.1 306.1,369.6 300.1,371.7 300.1,371.7 300.1,371.7 304.8,376 306,379.5 311,382 312.1,386.6 317,389.7 319.2,387.2 
		321.4,388.5 319.7,390.4 321.4,392.3 324.1,396.8 327.1,395.9 333.4,397.6 345,398 348.6,395.1 357.5,392.4 363.8,396.3 
		368.6,397.3 368.9,384 371.4,385 374.9,382.5 374.3,379.7 374.3,379.7 374.3,379.7 	"/>
	<polygon class="st13" points="289.5,374.3 289.5,374.3 291.8,378.5 294.6,381.6 292,385.8 294.8,385.7 293.3,390.6 297.5,394.8 
		296.9,400 295,400.5 297.3,402.3 298.6,403.9 301.3,405 304.6,407.2 304,408.2 305.8,407.4 306.6,403.7 307.9,403.1 307.9,403.1 
		307.9,403.1 309.2,404.6 310.8,405.3 312,407.1 313.3,407.6 315.1,409.5 316.2,409.5 316.2,409.5 316.2,409.5 315.6,412.2 
		314.8,413.5 315.1,414.3 317.8,413.7 321.4,413.4 322.6,411.8 321.6,410.6 322.5,407 325.2,403.5 320.8,398.8 319.7,394.8 
		321.4,392.3 319.7,390.4 321.4,388.5 319.2,387.2 317,389.7 312.1,386.6 311,382 306,379.5 304.8,376 300.1,371.7 295.2,371.3 	"/>
	<polygon class="st13" points="294.5,281.6 307.8,281.2 306.8,278.4 307.2,275.4 303.7,273.7 295.9,271.9 286.4,275.6 285.4,280.4 
		285.4,280.4 	"/>
	<polygon class="st14" points="263.9,119.4 264.2,126.6 264.2,126.6 264.2,126.6 252.5,125.1 251.9,131.2 246,131.2 243,139.1 
		238.3,151.4 230.2,167 233,170.7 231.2,175.1 231.1,175.1 231.1,175.1 224.7,175 221.5,185.4 223.2,200 228,205.5 226.9,218.4 
		221.9,226 219.3,232.4 219.3,232.4 219.3,232.4 225.8,247.9 232.7,260.4 235.9,270.8 244.2,270.2 247.4,261.4 256.1,262.3 259,252 
		259.6,233.5 266.5,230.8 271.2,218.3 263.9,212.3 258.1,204.6 260.9,189 272.2,179.4 281.1,170.4 279,163.7 283.8,155.9 
		294.1,152.6 291.1,148.3 287.6,131.4 276.6,124.1 267.6,118.9 267.6,118.9 	"/>
	<polygon class="st13" points="256.8,377.7 259.6,379.4 262.6,379.6 262.4,376.5 265,375.4 265.4,370.9 271.3,368 269.5,364.3 
		268.2,364.1 266.9,366 260.1,366.3 256.4,368.9 249.9,368.1 249.5,373.5 251.7,378.2 250,379.2 255.5,379.6 	"/>
	<polygon class="st13" points="306.6,334.8 301.3,336.4 297.6,335.3 293.4,337.7 289.1,333.9 286.2,335.5 285.7,334.8 283.4,334.8 
		282.5,336.8 280.8,337.4 280.5,339.8 279.1,340.4 279,341.4 276.6,342.6 276.5,342.6 276.5,342.6 273.1,342.5 272.3,344.9 
		271.8,346.3 272.9,350.1 277.1,352.9 280,354 286.3,352.6 286.7,350.4 289.7,350 293.3,348.2 293.3,348.2 293.3,348.2 294.2,349 
		297.6,347.5 299.1,344.9 301.5,344.2 301.5,344.2 301.5,344.2 310.1,347.4 311.6,346.3 311.6,346.3 312.5,341.8 312.7,341.5 
		314.3,338.9 	"/>
	<polygon class="st13" points="359.6,414.8 351.9,418.4 355.8,421 356.1,421.2 356.1,421.2 356.2,421.3 354.5,428.2 352.7,429.5 
		352.9,431.7 356,436.8 362,430.8 365.1,427.3 374.5,426.5 375.6,423.8 368.2,420.4 366.7,416.1 366.6,416.1 366.6,416.1 	"/>
	<polygon class="st13" points="344.8,198.1 349.5,191.6 350.6,185.9 344,181.7 339.2,178.6 339.2,178.6 339.2,178.6 340.1,171.4 
		332.4,163.4 334.4,153.9 324.1,141.5 327.7,133.1 324.4,131 316.5,126 315.5,118.3 316,111 316,110.6 315.5,110.3 307.3,106.4 
		299.1,110.4 298,118.5 293.3,123.4 293.2,123.4 293.2,123.4 286.2,120.9 278.4,121.6 278.4,121.6 278.4,121.6 270.6,115.9 
		267.6,118.9 276.6,124.1 287.6,131.4 291.1,148.3 294.1,152.6 303.9,157.6 305.5,162.2 301.7,164.6 289.2,176.8 284.5,183.8 
		282.3,190.3 287.2,200.2 287.4,211 294.5,214.5 299.5,220.4 310.2,217.9 321.4,213.6 333.5,212.5 333.5,212.4 333.5,212.4 	"/>
	<polygon class="st13" points="336.7,264.5 332.6,266.5 334.2,271.4 328.9,275 328.2,281.3 321,285.6 314,285.6 315,290.5 
		317.6,294.6 318.2,299 314.1,301.4 317.1,306.4 317.9,311.3 321.4,310.8 325.1,307.8 330.8,307.4 338.3,308.2 347.1,310.6 
		352.9,310.7 356,312.3 358.4,310.3 360.8,312.8 367.5,312.1 370.6,313.1 370.1,307.6 371.9,305.1 378.1,304.3 378,304.1 
		374.9,297.3 373.1,294.5 372.5,293.7 372.5,293.7 372.5,293.6 373.7,292.6 379.7,292.8 382,290.3 379.3,287.5 374.1,285.7 
		374.1,285.7 374.1,285.7 374.1,283.7 370.8,281.7 370.8,281.7 370.7,281.7 367.5,277.8 364.8,274.7 364.8,274.6 364.8,274.6 
		365.8,271.6 364,266.5 361.4,265.6 356.6,264 353.1,265.4 353.1,265.4 353,265.4 351.5,262.7 343.5,260.1 	"/>
	<polygon class="st13" points="322.1,242 328.8,246 334.6,245.9 334.6,245.9 334.6,245.9 336.9,242.3 332.9,232.1 336.6,225.7 
		335.2,223.8 328.2,224.3 320.4,222.6 312,224.4 303.9,227.6 305.5,233.9 310.6,237.8 312.9,236.3 313.2,242.8 318.8,240.7 	"/>
	<polygon class="st13" points="312.8,259.6 319.6,258.4 321,260.7 324.9,261.3 332.6,266.5 336.7,264.5 343.5,260.1 343.5,260.1 
		343.5,260.1 340.7,254.9 340,253.7 340,253.7 340,253.6 338.4,248.4 334.6,245.9 328.8,246 322.1,242 318.8,240.7 313.2,242.8 
		313.2,251.3 307.6,251.6 300.7,243.5 294.7,247.4 292.2,254.4 293.1,262.6 300.8,259.1 	"/>
	<polygon class="st13" points="436.7,353.3 440,350.1 447.2,349.1 447.6,345.3 446.7,343.5 444.6,339.3 446.3,333.5 445.6,330.2 
		433.7,327 429.4,327.2 429.4,327.2 429.3,327.2 423.6,322.2 418.2,324.1 411.6,321.7 407.9,320.4 407.6,318.3 404,313.6 
		403.9,313.5 398,313.2 398,313.2 398,313.2 396.7,309.7 398,307.5 392.1,301.4 384.7,302.7 382.3,302.1 380.9,304.7 378.1,304.3 
		371.9,305.1 370.1,307.6 370.6,313.1 367.5,312.1 360.8,312.8 358.4,310.3 356,312.3 352.9,310.7 347.1,310.6 338.3,308.2 
		330.8,307.4 325.1,307.8 321.4,310.8 317.9,311.3 323,320.9 322.7,324 319.1,325.3 313.4,334.6 316,339.5 316,339.5 316,339.5 
		315.6,339.4 314.3,338.9 312.7,341.5 312.5,341.8 311.6,346.3 311.6,346.3 311.6,346.3 311.6,346.3 316.2,349.2 317.1,352.1 
		320.1,349.7 320.1,349.7 320.1,349.7 325,350.9 329.9,350.8 329.9,350.8 329.9,350.8 330.3,351.1 333.8,353.4 336,351.9 
		336.2,351.7 341.7,350.6 343.3,347.9 346.5,347.9 348.1,346.2 353,345.1 353,345.1 353,345.1 359.1,348.4 362.3,348.7 366.2,351.6 
		366.3,355.4 369.3,357.1 371.2,361.7 374.3,364.5 374,366.1 375.6,367.2 373.7,368 373.7,368 373.7,368 369.1,367.8 368.1,366.3 
		366.7,367.1 366.6,367.2 367.5,369.1 365.9,372.7 365.1,376.5 363.3,377.7 367.1,379.7 370.4,377.9 370.4,377.9 370.4,377.9 
		374.3,379.7 379.1,371.5 380.9,365.3 387.9,363.8 389.1,367.9 401.6,370.4 402.9,371 404,369.8 405.4,372 397.5,376.7 396.4,378.8 
		405.5,381.9 404.7,387.1 409.3,389.2 418.9,382.6 427.1,380.5 427.9,376.6 420.1,377.4 415.8,374.8 411,370.9 414.1,368 420,363.7 
		427.1,363 431.5,359.3 437.5,358.2 437.5,358.2 437.5,358.2 	"/>
	<polygon class="st13" points="270.6,115.9 278.4,121.6 286.2,120.9 286.2,120.9 286.2,120.9 293.2,123.4 297.9,118.5 299,110.4 
		307.3,106.4 307.3,106.4 307.4,106.4 315.5,110.3 316,110.6 316,111 315.5,118.3 320,117.2 329,112.6 320.7,105.9 327.5,102.8 
		307,95.2 297.1,97.6 286.4,97.3 279.4,106.6 269.6,106.2 257.4,111.2 243,125.3 233.9,133.6 221.3,155 210.9,170.5 199,182 
		182.1,191.3 176.2,198.4 179.3,223.8 182.3,235.6 192.1,241.2 201.4,238.5 214.2,225.7 219.3,232.4 221.8,226 226.9,218.4 
		227.9,205.5 223.1,200 221.4,185.4 224.7,175 224.7,175 224.7,175 231.1,175.1 232.9,170.7 230.1,167 238.2,151.4 242.9,139.1 
		245.9,131.2 251.8,131.2 252.5,125.1 252.5,125.1 252.5,125.1 264.2,126.6 263.9,119.4 267.5,118.8 267.6,118.9 267.6,118.9 
		267.6,118.8 	"/>
	<g>
		<g>
			<path class="st17" d="M324,448.5c0,0-33.9,2.5-63.7-22.7"/>
			<g>
				<polygon class="st18" points="250.2,415.9 270.2,423.9 261.2,426.4 259,435.6 				"/>
			</g>
		</g>
	</g>
	<g>
		<g>
			<path class="st17" d="M304.7,427.9c0,0,6.5,2.1,12.3,8.3"/>
			<g>
				<polygon class="st18" points="324,448.5 306.7,435.8 316.1,435.5 320.6,427.3 				"/>
			</g>
		</g>
	</g>
</g>
<g id="legenda">
	<g>
		<g>
			<line class="st19" x1="319.5" y1="54.9" x2="340.3" y2="54.9"/>
			<g>
				<polygon class="st18" points="347.4,54.9 337.4,58.9 339.8,54.9 337.4,50.8 				"/>
			</g>
		</g>
	</g>
	<text transform="matrix(1 0 0 1 34.5051 57.8782)" class="st18 st20 st21 st22">Main producers</text>
	<circle class="st23" cx="12.6" cy="54.8" r="12.6"/>
	<text transform="matrix(1 0 0 1 214.8484 57.8782)" class="st18 st20 st21 st22">Hotspots</text>
	<circle class="st24" cx="192.9" cy="54.8" r="12.6"/>
	<text transform="matrix(1 0 0 1 354.3316 57.8782)" class="st18 st20 st21 st22">Main routes</text>
</g>
<rect x="73.7" y="266.1" class="st0" width="105" height="21.2"/>
<text transform="matrix(1 0 0 1 76.7341 280.5894)" class="st18 st20 st21 st22">Netherlands</text>
<rect x="281.7" y="308.5" class="st0" width="128.4" height="21.2"/>
<text transform="matrix(1 0 0 1 284.7341 323.0393)" class="st18 st20 st21 st22">Czech Republic</text>
<rect x="313.8" y="401.2" class="st0" width="71.2" height="21.2"/>
<text transform="matrix(1 0 0 1 319.9999 415.7744)" class="st18 st20 st21 st22">Albania</text>
<g id="frecce">
	<g>
		<g>
			<path class="st17" d="M183.6,304.2c0,0-67.2,8.7-67.5,119.8"/>
			<g>
				<polygon class="st18" points="116.4,438.1 108,418.3 116.2,422.9 124.2,418.1 				"/>
			</g>
		</g>
	</g>
	<g>
		<g>
			<path class="st17" d="M185.1,304c0,0,18,49.6,55.7,98.4"/>
			<g>
				<polygon class="st18" points="249.7,413.4 230.9,402.9 240.2,401.5 243.6,392.8 				"/>
			</g>
		</g>
	</g>
	<g>
		<g>
			<path class="st17" d="M304.8,428c0,0-27.5-94.4-129.6-66.9"/>
			<g>
				<polygon class="st18" points="161.7,365.3 178.5,351.8 176.3,360.9 183.1,367.3 				"/>
			</g>
		</g>
	</g>
	<g>
		<g>
			<path class="st17" d="M300.1,416.1c0,0-26.4-61.5-67.5-93.1"/>
			<g>
				<polygon class="st18" points="220.9,315.1 241.9,319.7 233.4,323.7 232.7,333.1 				"/>
			</g>
		</g>
	</g>
	<g>
		<g>
			<path class="st17" d="M183.6,304.2c0,0-24.1,9.5-23.2,47"/>
			<g>
				<polygon class="st18" points="161.7,365.3 151.9,346.2 160.4,350.2 168.1,344.8 				"/>
			</g>
		</g>
	</g>
	<g>
		<g>
			<path class="st17" d="M184.8,304.2c0,0-22.9-27.7-46.2-1.5"/>
			<g>
				<polygon class="st18" points="130.4,314.2 135.6,293.3 139.4,301.9 148.7,302.9 				"/>
			</g>
		</g>
	</g>
	<g>
		<g>
			<path class="st17" d="M184.8,304.2c0,0-18.6-26.5,8.9-41.5"/>
			<g>
				<polygon class="st18" points="206.8,257.5 191.5,272.6 192.8,263.3 185.3,257.6 				"/>
			</g>
		</g>
	</g>
	<g>
		<g>
			<path class="st17" d="M206.8,257.5c0,0,2.3-18.1,25.4-29.3"/>
			<g>
				<polygon class="st18" points="245.5,223.3 229.8,238 231.3,228.8 224,222.9 				"/>
			</g>
		</g>
	</g>
	<g>
		<g>
			<path class="st17" d="M244.5,223.9c0,0,4.4-37,55-40.6"/>
			<g>
				<polygon class="st18" points="313.7,183.2 293.9,191.6 298.5,183.4 293.6,175.4 				"/>
			</g>
		</g>
	</g>
	<g>
		<g>
			<g>
				<g>
					<path class="st17" d="M130.4,313.1c0,0-18.7,5-37.5-9"/>
					<g>
						<polygon class="st18" points="82.7,294.3 102.9,301.9 93.9,304.6 91.8,313.8 						"/>
					</g>
				</g>
			</g>
		</g>
	</g>
	<g>
		<g>
			<path class="st25" d="M185.1,304c-0.7,2.4-4.3,12-4.8,15.3"/>
			<g>
				<polygon class="st18" points="179.6,326.3 176.6,316 180.4,318.7 184.7,316.8 				"/>
			</g>
		</g>
	</g>
	<g>
		<g>
			<path class="st17" d="M184.1,304c0,0,14.8-2.1,26,2.1"/>
			<g>
				<polygon class="st18" points="220.9,315.1 200.2,309.5 208.9,305.9 210,296.6 				"/>
			</g>
		</g>
	</g>
	<g>
		<g>
			<path class="st17" d="M254.8,332.4c0,0,14-5,27.2,0.5"/>
			<g>
				<polygon class="st18" points="293.4,341.3 272.4,336.6 280.9,332.6 281.7,323.3 				"/>
			</g>
		</g>
	</g>
	<path class="st17" d="M254.6,332.3c0,0-2-5.9-22.5-9.5"/>
	<g>
		<g>
			<path class="st17" d="M254.8,332.4c0,0,16.3,5,33.5,22.8"/>
			<g>
				<polygon class="st18" points="297.5,366 278.3,356.3 287.5,354.5 290.6,345.6 				"/>
			</g>
		</g>
	</g>
	<g>
		<g>
			<path class="st17" d="M254.8,332.3c0,0,5.8-17.8,19.9-26.3"/>
			<g>
				<polygon class="st18" points="288.1,301.6 272.1,316 273.8,306.7 266.6,300.6 				"/>
			</g>
		</g>
	</g>
	<g>
		<g>
			<path class="st17" d="M184.8,304.2c0,0,50.5-49.2,93.4-12.7"/>
			<g>
				<polygon class="st18" points="288.1,301.6 268.2,293.3 277.3,290.9 279.7,281.8 				"/>
			</g>
		</g>
	</g>
	<g>
		<g>
			<path class="st17" d="M244.5,223.9c0,0-14.1-27.3-35.2-20.8"/>
			<g>
				<polygon class="st18" points="197.1,210.4 210.6,193.6 210.4,203 218.5,207.8 				"/>
			</g>
		</g>
	</g>
	<g>
		<g>
			<path class="st17" d="M288.1,301.6c0,0,16.4-0.5,24.9-18.4"/>
			<g>
				<polygon class="st18" points="317.1,269.8 318.7,291.2 312.4,284.2 303.2,286.2 				"/>
			</g>
		</g>
	</g>
</g>
</svg>
