<?xml version="1.0" encoding="utf-8"?>
<!-- Generator: Adobe Illustrator 19.2.1, SVG Export Plug-In . SVG Version: 6.00 Build 0)  -->
<svg version="1.1" xmlns="http://www.w3.org/2000/svg" xmlns:xlink="http://www.w3.org/1999/xlink" x="0px" y="0px"
	 viewBox="0 0 1366 616" style="enable-background:new 0 0 1366 616;" xml:space="preserve">
<style type="text/css">
	.st0{fill:#141414;}
	.st1{fill:none;stroke:#AFAFAF;stroke-width:0.1;stroke-linecap:round;stroke-linejoin:round;}
	.st2{fill:#D3D3D3;}
	.st3{font-family:'Lekton-Regular';}
	.st4{font-size:16px;}
	.st5{fill:#C6006B;}
	.st6{fill:#D13389;}
	.st7{fill:#DD66A6;}
	.st8{fill:#E899C4;}
	.st9{fill:#F4CCE1;}
	.st10{font-size:10px;}
	.st11{fill:none;stroke:#D3D3D3;stroke-width:3;}
</style>
<g id="Livello_1">
</g>
<g id="Livello_2">
	<rect y="-1" class="st0" width="1366" height="617"/>
	<text transform="matrix(1 0 0 1 667 471.6035)" class="st2 st3 st4">Blues</text>
	<rect x="667" y="427" class="st5" width="82" height="22"/>
	<g>
		<rect x="762" y="427" class="st5" width="82" height="22"/>
		<rect x="762" y="431" class="st6" width="82" height="1"/>
		<rect x="762" y="429" class="st7" width="82" height="2"/>
		<rect x="762" y="427" class="st8" width="82" height="2"/>
	</g>
	<g>
		<rect x="381" y="413" class="st5" width="82" height="36"/>
		<rect x="381" y="421" class="st6" width="82" height="10"/>
		<rect x="381" y="415" class="st8" width="82" height="1"/>
		<rect x="381" y="413" class="st9" width="82" height="2"/>
		<rect x="381" y="418" class="st7" width="82" height="1"/>
		<rect x="381" y="419" class="st7" width="82" height="2"/>
		<rect x="381" y="416" class="st8" width="82" height="2"/>
	</g>
	<g>
		<rect x="476" y="413" class="st5" width="82" height="36"/>
		<rect x="476" y="419" class="st6" width="82" height="2"/>
		<rect x="476" y="418" class="st7" width="82" height="1"/>
		<rect x="476" y="416" class="st8" width="82" height="2"/>
		<rect x="476" y="413" class="st9" width="82" height="3"/>
	</g>
	<g>
		<rect x="857" y="427" class="st5" width="82" height="22"/>
		<rect x="857" y="438" class="st6" width="82" height="10"/>
		<rect x="857" y="432" class="st7" width="82" height="6"/>
		<rect x="857" y="431" class="st8" width="82" height="1"/>
		<rect x="857" y="427" class="st9" width="82" height="4"/>
	</g>
	<g>
		<rect x="573" y="419" class="st5" width="82" height="30"/>
		<rect x="573" y="429" class="st6" width="82" height="10"/>
		<rect x="573" y="419" class="st9" width="82" height="6"/>
		<rect x="573" y="425" class="st8" width="82" height="2"/>
		<rect x="573" y="427" class="st7" width="82" height="2"/>
	</g>
	<g>
		<rect x="287" y="361" class="st5" width="82" height="88"/>
		<rect x="287" y="361" class="st9" width="82" height="26"/>
		<rect x="287" y="397" class="st6" width="82" height="18"/>
		<rect x="287" y="389" class="st7" width="82" height="8"/>
		<rect x="287" y="387" class="st8" width="82" height="2"/>
	</g>
	<g>
		<rect x="192" y="135" class="st5" width="81" height="314"/>
		<rect x="192" y="212" class="st6" width="81" height="52"/>
		<rect x="192" y="192" class="st7" width="81" height="20"/>
		<rect x="192" y="180" class="st8" width="81" height="12"/>
		<rect x="192" y="135" class="st9" width="81" height="45"/>
	</g>
	<text transform="matrix(1 0 0 1 476 471.3848)" class="st2 st3 st4">Jazz</text>
	<text transform="matrix(1 0 0 1 381 471.8486)" class="st2 st3 st4">EDM</text>
	<text transform="matrix(1 0 0 1 762 471.6035)" class="st2 st3 st4">Country</text>
	<text transform="matrix(1 0 0 1 857 471.7148)" class="st2 st3 st4">R&amp;B</text>
	<text transform="matrix(1 0 0 1 573 471.3848)" class="st2 st3 st4">Reggae</text>
	<text transform="matrix(1 0 0 1 287 471.9336)" class="st2 st3 st4">Rock</text>
	<text transform="matrix(1 0 0 1 192 471.373)" class="st2 st3 st4">Hip-hop</text>
	<text transform="matrix(1 0 0 1 192 488.4355)"><tspan x="0" y="0" class="st2 st3 st10">Rap</tspan><tspan x="0" y="12" class="st2 st3 st10">Trap </tspan><tspan x="0" y="24" class="st2 st3 st10">Trip-hop</tspan><tspan x="0" y="36" class="st2 st3 st10">Gangsta rap</tspan><tspan x="0" y="48" class="st2 st3 st10">Pop rap</tspan><tspan x="0" y="60" class="st2 st3 st10">G-funk</tspan><tspan x="0" y="72" class="st2 st3 st10">West-coast Hip-hop</tspan></text>
	<text transform="matrix(1 0 0 1 287 488.4355)"><tspan x="0" y="0" class="st2 st3 st10">Art rock</tspan><tspan x="0" y="12" class="st2 st3 st10">Folk rock</tspan><tspan x="0" y="24" class="st2 st3 st10">Classic Metal</tspan><tspan x="0" y="36" class="st2 st3 st10">Garage rock</tspan><tspan x="0" y="48" class="st2 st3 st10">Progressive rock</tspan><tspan x="0" y="60" class="st2 st3 st10">Proto punk</tspan><tspan x="0" y="72" class="st2 st3 st10">Indie</tspan></text>
	<text transform="matrix(1 0 0 1 381 488.4355)"><tspan x="0" y="0" class="st2 st3 st10">Future bass</tspan><tspan x="0" y="12" class="st2 st3 st10">Pop</tspan><tspan x="0" y="24" class="st2 st3 st10">Alternative pop</tspan></text>
	<text transform="matrix(1 0 0 1 476 488.4355)"><tspan x="0" y="0" class="st2 st3 st10">Acid jazz</tspan><tspan x="0" y="12" class="st2 st3 st10">Latin jazz</tspan><tspan x="0" y="24" class="st2 st3 st10">Funk</tspan></text>
	<text transform="matrix(1 0 0 1 573 488.4355)"><tspan x="0" y="0" class="st2 st3 st10">Reggae fusion</tspan><tspan x="0" y="12" class="st2 st3 st10">Dancehall</tspan><tspan x="0" y="24" class="st2 st3 st10">Ska</tspan></text>
	<text transform="matrix(1 0 0 1 762 488.4355)"><tspan x="0" y="0" class="st2 st3 st10">Bro-country</tspan><tspan x="0" y="12" class="st2 st3 st10">Folk</tspan></text>
	<text transform="matrix(1 0 0 1 857 488.4355)"><tspan x="0" y="0" class="st2 st3 st10">Trap R&amp;B</tspan><tspan x="0" y="12" class="st2 st3 st10">Pop R&amp;B</tspan></text>
	<g>
		<text transform="matrix(1 0 0 1 191.7787 59.8191)" class="st2 st3 st4">MUSIC GENRES</text>
		<line class="st11" x1="191.8" y1="68.6" x2="287" y2="68.6"/>
	</g>
</g>
</svg>
