<?xml version="1.0" encoding="utf-8"?>
<!-- Generator: Adobe Illustrator 21.0.0, SVG Export Plug-In . SVG Version: 6.00 Build 0)  -->
<svg version="1.1" id="Layer_1" xmlns="http://www.w3.org/2000/svg" xmlns:xlink="http://www.w3.org/1999/xlink" x="0px" y="0px"
	 viewBox="0 0 1368 818.7" style="enable-background:new 0 0 1368 818.7;" xml:space="preserve">
<style type="text/css">
	.st0{fill:#141414;}
	.st1{fill:#FDBD2C;}
	.st2{font-family:'Lekton-Bold';}
	.st3{font-size:14px;}
	.st4{font-family:'Lekton-Regular';}
	.st5{fill:none;stroke:#D3D3D3;stroke-width:3;}
	.st6{fill:#FDBD2C;stroke:#D3D3D3;stroke-width:3;}
	.st7{opacity:0.26;enable-background:new    ;}
	.st8{clip-path:url(#SVGID_2_);fill:none;stroke:#D4D4D3;stroke-width:0.5;}
	.st9{clip-path:url(#SVGID_4_);fill:none;stroke:#D4D4D3;stroke-width:0.5;}
	.st10{clip-path:url(#SVGID_6_);fill:none;stroke:#D4D4D3;stroke-width:0.5;}
	.st11{clip-path:url(#SVGID_8_);fill:none;stroke:#D4D4D3;stroke-width:0.5;}
	.st12{clip-path:url(#SVGID_10_);fill:none;stroke:#D4D4D3;stroke-width:0.5;}
	.st13{clip-path:url(#SVGID_12_);fill:none;stroke:#D4D4D3;stroke-width:0.5;}
	.st14{clip-path:url(#SVGID_14_);fill:none;stroke:#D4D4D3;stroke-width:0.5;}
	.st15{clip-path:url(#SVGID_16_);fill:none;stroke:#D4D4D3;stroke-width:0.5;}
	.st16{clip-path:url(#SVGID_18_);fill:none;stroke:#D4D4D3;stroke-width:0.5;}
	.st17{clip-path:url(#SVGID_20_);fill:none;stroke:#D4D4D3;stroke-width:0.5;}
	.st18{clip-path:url(#SVGID_22_);fill:none;stroke:#D4D4D3;stroke-width:0.5;}
	.st19{clip-path:url(#SVGID_24_);fill:none;stroke:#D4D4D3;stroke-width:0.5;}
	.st20{clip-path:url(#SVGID_26_);fill:none;stroke:#D4D4D3;stroke-width:0.5;}
	.st21{clip-path:url(#SVGID_28_);fill:none;stroke:#D4D4D3;stroke-width:0.5;}
	.st22{clip-path:url(#SVGID_30_);fill:none;stroke:#D4D4D3;stroke-width:0.5;}
	.st23{clip-path:url(#SVGID_32_);fill:none;stroke:#D4D4D3;stroke-width:0.5;}
	.st24{clip-path:url(#SVGID_34_);fill:none;stroke:#D4D4D3;stroke-width:0.5;}
	.st25{clip-path:url(#SVGID_36_);fill:none;stroke:#D4D4D3;stroke-width:0.5;}
	.st26{clip-path:url(#SVGID_38_);fill:none;stroke:#D4D4D3;stroke-width:0.5;}
	.st27{clip-path:url(#SVGID_40_);fill:none;stroke:#D4D4D3;stroke-width:0.5;}
	.st28{clip-path:url(#SVGID_42_);fill:none;stroke:#D4D4D3;stroke-width:0.5;}
	.st29{clip-path:url(#SVGID_44_);fill:none;stroke:#D4D4D3;stroke-width:0.5;}
	.st30{clip-path:url(#SVGID_46_);fill:none;stroke:#D4D4D3;stroke-width:0.5;}
	.st31{clip-path:url(#SVGID_48_);fill:none;stroke:#D4D4D3;stroke-width:0.5;}
	.st32{clip-path:url(#SVGID_50_);fill:none;stroke:#D4D4D3;stroke-width:0.5;}
	.st33{clip-path:url(#SVGID_52_);fill:none;stroke:#D4D4D3;stroke-width:0.5;}
	.st34{clip-path:url(#SVGID_54_);fill:none;stroke:#D4D4D3;stroke-width:0.5;}
	.st35{clip-path:url(#SVGID_56_);fill:none;stroke:#D4D4D3;stroke-width:0.5;}
	.st36{clip-path:url(#SVGID_58_);fill:none;stroke:#D4D4D3;stroke-width:0.5;}
	.st37{clip-path:url(#SVGID_60_);fill:none;stroke:#D4D4D3;stroke-width:0.5;}
	.st38{clip-path:url(#SVGID_62_);fill:none;stroke:#D4D4D3;stroke-width:0.5;}
	.st39{clip-path:url(#SVGID_64_);fill:none;stroke:#D4D4D3;stroke-width:0.5;}
	.st40{clip-path:url(#SVGID_66_);fill:none;stroke:#D4D4D3;stroke-width:0.5;}
	.st41{clip-path:url(#SVGID_68_);fill:none;stroke:#D4D4D3;stroke-width:0.5;}
	.st42{clip-path:url(#SVGID_70_);fill:none;stroke:#D4D4D3;stroke-width:0.5;}
	.st43{clip-path:url(#SVGID_72_);fill:none;stroke:#D4D4D3;stroke-width:0.5;}
	.st44{clip-path:url(#SVGID_74_);fill:none;stroke:#D4D4D3;stroke-width:0.5;}
	.st45{clip-path:url(#SVGID_76_);fill:none;stroke:#D4D4D3;stroke-width:0.5;}
	.st46{fill:none;stroke:#D4D4D3;stroke-width:0.5;}
	.st47{fill:none;}
	.st48{fill:#D3D3D3;}
	.st49{font-size:10px;}
	.st50{fill:none;stroke:#D4D4D3;stroke-width:0.25;}
	.st51{font-size:16px;}
</style>
<g id="sfondo">
	<rect y="-8.6" class="st0" width="1368" height="827.3"/>
</g>
<g id="siti">
</g>
<g>
	<text transform="matrix(1 0 0 1 227.1077 519.2843)" class="st1 st2 st3">n°3</text>
	<text transform="matrix(1 0 0 1 258.1077 519.2843)" class="st1 st4 st3"> videos </text>
	<text transform="matrix(1 0 0 1 227.1077 536.0843)" class="st1 st4 st3">of </text>
	<text transform="matrix(1 0 0 1 247.1077 536.0843)" class="st1 st4 st3">Travel</text>
	<text transform="matrix(1 0 0 1 287.0077 536.0843)" class="st1 st4 st3"> </text>
	<text transform="matrix(1 0 0 1 429.7509 459.7846)" class="st1 st2 st3">n°4</text>
	<text transform="matrix(1 0 0 1 460.7509 459.7846)" class="st1 st4 st3"> videos </text>
	<text transform="matrix(1 0 0 1 429.7509 476.5846)" class="st1 st4 st3">of </text>
	<text transform="matrix(1 0 0 1 449.7509 476.5846)" class="st1 st4 st3">Sports</text>
	<text transform="matrix(1 0 0 1 489.6509 476.5846)" class="st1 st4 st3"> </text>
	<text transform="matrix(1 0 0 1 227.1077 579.1503)" class="st1 st2 st3">n°6</text>
	<text transform="matrix(1 0 0 1 258.1077 579.1503)" class="st1 st4 st3"> videos </text>
	<text transform="matrix(1 0 0 1 227.1077 595.9503)" class="st1 st4 st3">of </text>
	<text transform="matrix(1 0 0 1 247.1077 595.9503)" class="st1 st4 st3">Gaming</text>
	<text transform="matrix(1 0 0 1 287.0077 595.9503)" class="st1 st4 st3"> </text>
	<text transform="matrix(1 0 0 1 227.1078 640.7095)" class="st1 st2 st3">n°14</text>
	<text transform="matrix(1 0 0 1 265.1078 640.7095)" class="st1 st4 st3"> videos of</text>
	<text transform="matrix(1 0 0 1 227.1078 657.5095)" class="st1 st4 st3">Howto &amp; Style</text>
	<text transform="matrix(1 0 0 1 313.6078 657.5095)" class="st1 st4 st3"> </text>
	<rect x="216" y="379" class="st5" width="167.7" height="59.3"/>
	<polygon class="st5" points="216,438.1 416.5,438.1 416.5,556.5 316.3,556.5 316.8,497.2 216,497.8 	"/>
	<text transform="matrix(1 0 0 1 227.1077 459.7853)" class="st1 st2 st3">n°9</text>
	<text transform="matrix(1 0 0 1 258.1077 459.7853)" class="st1 st4 st3"> videos of</text>
	<text transform="matrix(1 0 0 1 227.1077 476.5853)" class="st1 st4 st3">Film &amp; Animation</text>
	<text transform="matrix(1 0 0 1 227.1077 400.047)" class="st1 st2 st3">n°5</text>
	<text transform="matrix(1 0 0 1 258.1077 400.047)" class="st1 st4 st3"> videos </text>
	<text transform="matrix(1 0 0 1 227.1077 416.847)" class="st1 st4 st3">of </text>
	<text transform="matrix(1 0 0 1 247.1077 416.847)" class="st1 st4 st3">Activism</text>
	<rect x="216" y="140.1" class="st6" width="167.7" height="118.9"/>
	<text transform="matrix(1 0 0 1 227.1077 160.8385)" class="st0 st2 st3">n°11 </text>
	<text transform="matrix(1 0 0 1 262.1077 160.8385)" class="st0 st4 st3">videos</text>
	<text transform="matrix(1 0 0 1 227.1077 177.6385)" class="st0 st4 st3">of Music</text>
	<text transform="matrix(1 0 0 1 227.1075 279.2013)" class="st1 st2 st3">n°10</text>
	<text transform="matrix(1 0 0 1 265.1075 279.2013)" class="st1 st4 st3"> videos </text>
	<text transform="matrix(1 0 0 1 227.1075 296.0013)" class="st1 st4 st3">of </text>
	<text transform="matrix(1 0 0 1 247.1075 296.0013)" class="st1 st4 st3">Science &amp;</text>
	<text transform="matrix(1 0 0 1 227.1075 312.8013)" class="st1 st4 st3">technology </text>
	<text transform="matrix(1 0 0 1 393.7482 160.8388)" class="st1 st2 st3">n°15</text>
	<text transform="matrix(1 0 0 1 431.7482 160.8388)" class="st1 st4 st3"> videos </text>
	<text transform="matrix(1 0 0 1 393.7482 177.6388)" class="st1 st4 st3">of </text>
	<text transform="matrix(1 0 0 1 413.7482 177.6388)" class="st1 st4 st3">Comedy </text>
	<text transform="matrix(1 0 0 1 496.3358 160.8389)" class="st1 st2 st3">n°52</text>
	<text transform="matrix(1 0 0 1 534.3358 160.8389)" class="st1 st4 st3"> videos </text>
	<text transform="matrix(1 0 0 1 496.3358 177.6388)" class="st1 st4 st3">of </text>
	<text transform="matrix(1 0 0 1 516.3358 177.6388)" class="st1 st4 st3">News &amp; Politics </text>
	<text transform="matrix(1 0 0 1 463.2041 521.2765)" class="st1 st2 st3">n°37</text>
	<text transform="matrix(1 0 0 1 501.2041 521.2765)" class="st1 st4 st3"> videos </text>
	<text transform="matrix(1 0 0 1 463.2041 538.0765)" class="st1 st4 st3">of </text>
	<text transform="matrix(1 0 0 1 483.2041 538.0765)" class="st1 st4 st3">Education</text>
	<text transform="matrix(1 0 0 1 765.286 520.2997)" class="st1 st2 st3">n°57</text>
	<text transform="matrix(1 0 0 1 803.286 520.2997)" class="st1 st4 st3"> videos </text>
	<text transform="matrix(1 0 0 1 765.286 537.0997)" class="st1 st4 st3">of </text>
	<text transform="matrix(1 0 0 1 785.286 537.0997)" class="st1 st4 st3">People &amp; Blogs</text>
	<text transform="matrix(1 0 0 1 800.0128 160.8385)" class="st1 st2 st3">n°64</text>
	<text transform="matrix(1 0 0 1 838.0128 160.8385)" class="st1 st4 st3"> videos </text>
	<text transform="matrix(1 0 0 1 800.0128 177.6386)" class="st1 st4 st3">of </text>
	<text transform="matrix(1 0 0 1 820.0128 177.6386)" class="st1 st4 st3">Entertainment</text>
	<polygon class="st5" points="786.3,140.1 1222.6,140.1 1222.6,497.8 853.8,497.8 853.8,439 786.3,439 	"/>
	<polygon class="st5" points="484.3,140.1 786.3,140.1 786.3,497.8 518.2,497.8 518.2,439 484.3,439 	"/>
	<polygon class="st5" points="451,497.5 753,497.5 753,734.9 416.3,734.9 416.3,675.5 451,675.5 	"/>
	<polygon class="st5" points="416.5,616.7 216,616.7 216,734 417.1,734.9 417.1,675.5 451,675.5 451,556.5 416.5,556.5 	"/>
	<polygon class="st5" points="517.7,439 416.3,439 416.3,556.2 451.3,556.5 451.3,497.5 652.4,497.9 450,497.5 517.7,497.8 	"/>
	<g class="st7">
		<g>
			<g>
				<g>
					<g>
						<g>
							<g>
								<defs>
									<rect id="SVGID_1_" x="216" y="141.1" width="1006.5" height="596"/>
								</defs>
								<clipPath id="SVGID_2_">
									<use xlink:href="#SVGID_1_"  style="overflow:visible;"/>
								</clipPath>
								<line class="st8" x1="249.6" y1="141.1" x2="249.6" y2="737.2"/>
							</g>
						</g>
					</g>
				</g>
			</g>
		</g>
		<g>
			<g>
				<g>
					<g>
						<g>
							<g>
								<defs>
									<rect id="SVGID_3_" x="216" y="141.1" width="1006.5" height="596"/>
								</defs>
								<clipPath id="SVGID_4_">
									<use xlink:href="#SVGID_3_"  style="overflow:visible;"/>
								</clipPath>
								<line class="st9" x1="216" y1="617.7" x2="1222.6" y2="617.7"/>
							</g>
						</g>
					</g>
				</g>
			</g>
		</g>
		<g>
			<g>
				<g>
					<g>
						<g>
							<g>
								<defs>
									<rect id="SVGID_5_" x="216" y="141.1" width="1006.5" height="596"/>
								</defs>
								<clipPath id="SVGID_6_">
									<use xlink:href="#SVGID_5_"  style="overflow:visible;"/>
								</clipPath>
								<line class="st10" x1="786.3" y1="141.1" x2="786.3" y2="737.2"/>
							</g>
						</g>
					</g>
				</g>
			</g>
		</g>
		<g>
			<g>
				<g>
					<g>
						<g>
							<g>
								<defs>
									<rect id="SVGID_7_" x="216" y="141.1" width="1006.5" height="596"/>
								</defs>
								<clipPath id="SVGID_8_">
									<use xlink:href="#SVGID_7_"  style="overflow:visible;"/>
								</clipPath>
								<line class="st11" x1="518.4" y1="141.1" x2="518.4" y2="737.2"/>
							</g>
						</g>
					</g>
				</g>
			</g>
		</g>
		<g>
			<g>
				<g>
					<g>
						<g>
							<g>
								<defs>
									<rect id="SVGID_9_" x="216" y="141.1" width="1006.5" height="596"/>
								</defs>
								<clipPath id="SVGID_10_">
									<use xlink:href="#SVGID_9_"  style="overflow:visible;"/>
								</clipPath>
								<line class="st12" x1="216" y1="201.1" x2="1222.6" y2="201.1"/>
							</g>
						</g>
					</g>
				</g>
			</g>
		</g>
		<g>
			<g>
				<g>
					<g>
						<g>
							<g>
								<defs>
									<rect id="SVGID_11_" x="216" y="141.1" width="1006.5" height="596"/>
								</defs>
								<clipPath id="SVGID_12_">
									<use xlink:href="#SVGID_11_"  style="overflow:visible;"/>
								</clipPath>
								<line class="st13" x1="1055.1" y1="141.1" x2="1055.1" y2="737.2"/>
							</g>
						</g>
					</g>
				</g>
			</g>
		</g>
		<g>
			<g>
				<g>
					<g>
						<g>
							<g>
								<defs>
									<rect id="SVGID_13_" x="216" y="141.1" width="1006.5" height="596"/>
								</defs>
								<clipPath id="SVGID_14_">
									<use xlink:href="#SVGID_13_"  style="overflow:visible;"/>
								</clipPath>
								<line class="st14" x1="383.7" y1="141.1" x2="383.7" y2="737.2"/>
							</g>
						</g>
					</g>
				</g>
			</g>
		</g>
		<g>
			<g>
				<g>
					<g>
						<g>
							<g>
								<defs>
									<rect id="SVGID_15_" x="216" y="141.1" width="1006.5" height="596"/>
								</defs>
								<clipPath id="SVGID_16_">
									<use xlink:href="#SVGID_15_"  style="overflow:visible;"/>
								</clipPath>
								<line class="st15" x1="216" y1="439.5" x2="1222.6" y2="439.5"/>
							</g>
						</g>
					</g>
				</g>
			</g>
		</g>
		<g>
			<g>
				<g>
					<g>
						<g>
							<g>
								<defs>
									<rect id="SVGID_17_" x="216" y="141.1" width="1006.5" height="596"/>
								</defs>
								<clipPath id="SVGID_18_">
									<use xlink:href="#SVGID_17_"  style="overflow:visible;"/>
								</clipPath>
								<line class="st16" x1="920.4" y1="141.1" x2="920.4" y2="737.2"/>
							</g>
						</g>
					</g>
				</g>
			</g>
		</g>
		<g>
			<g>
				<g>
					<g>
						<g>
							<g>
								<defs>
									<rect id="SVGID_19_" x="216" y="141.1" width="1006.5" height="596"/>
								</defs>
								<clipPath id="SVGID_20_">
									<use xlink:href="#SVGID_19_"  style="overflow:visible;"/>
								</clipPath>
								<line class="st17" x1="652.4" y1="141.1" x2="652.4" y2="737.2"/>
							</g>
						</g>
					</g>
				</g>
			</g>
		</g>
		<g>
			<g>
				<g>
					<g>
						<g>
							<g>
								<defs>
									<rect id="SVGID_21_" x="216" y="141.1" width="1006.5" height="596"/>
								</defs>
								<clipPath id="SVGID_22_">
									<use xlink:href="#SVGID_21_"  style="overflow:visible;"/>
								</clipPath>
								<line class="st18" x1="1189.1" y1="141.1" x2="1189.1" y2="737.2"/>
							</g>
						</g>
					</g>
				</g>
			</g>
		</g>
		<g>
			<g>
				<g>
					<g>
						<g>
							<g>
								<defs>
									<rect id="SVGID_23_" x="216" y="141.1" width="1006.5" height="596"/>
								</defs>
								<clipPath id="SVGID_24_">
									<use xlink:href="#SVGID_23_"  style="overflow:visible;"/>
								</clipPath>
								<line class="st19" x1="316.8" y1="141.1" x2="316.8" y2="737.2"/>
							</g>
						</g>
					</g>
				</g>
			</g>
		</g>
		<g>
			<g>
				<g>
					<g>
						<g>
							<g>
								<defs>
									<rect id="SVGID_25_" x="216" y="141.1" width="1006.5" height="596"/>
								</defs>
								<clipPath id="SVGID_26_">
									<use xlink:href="#SVGID_25_"  style="overflow:visible;"/>
								</clipPath>
								<line class="st20" x1="216" y1="557.5" x2="1222.6" y2="557.5"/>
							</g>
						</g>
					</g>
				</g>
			</g>
		</g>
		<g>
			<g>
				<g>
					<g>
						<g>
							<g>
								<defs>
									<rect id="SVGID_27_" x="216" y="141.1" width="1006.5" height="596"/>
								</defs>
								<clipPath id="SVGID_28_">
									<use xlink:href="#SVGID_27_"  style="overflow:visible;"/>
								</clipPath>
								<line class="st21" x1="853.6" y1="141.1" x2="853.6" y2="737.2"/>
							</g>
						</g>
					</g>
				</g>
			</g>
		</g>
		<g>
			<g>
				<g>
					<g>
						<g>
							<g>
								<defs>
									<rect id="SVGID_29_" x="216" y="141.1" width="1006.5" height="596"/>
								</defs>
								<clipPath id="SVGID_30_">
									<use xlink:href="#SVGID_29_"  style="overflow:visible;"/>
								</clipPath>
								<line class="st22" x1="585.7" y1="141.1" x2="585.7" y2="737.2"/>
							</g>
						</g>
					</g>
				</g>
			</g>
		</g>
		<g>
			<g>
				<g>
					<g>
						<g>
							<g>
								<defs>
									<rect id="SVGID_31_" x="216" y="141.1" width="1006.5" height="596"/>
								</defs>
								<clipPath id="SVGID_32_">
									<use xlink:href="#SVGID_31_"  style="overflow:visible;"/>
								</clipPath>
								<line class="st23" x1="1122.4" y1="141.1" x2="1122.4" y2="737.2"/>
							</g>
						</g>
					</g>
				</g>
			</g>
		</g>
		<g>
			<g>
				<g>
					<g>
						<g>
							<g>
								<defs>
									<rect id="SVGID_33_" x="216" y="141.1" width="1006.5" height="596"/>
								</defs>
								<clipPath id="SVGID_34_">
									<use xlink:href="#SVGID_33_"  style="overflow:visible;"/>
								</clipPath>
								<line class="st24" x1="451" y1="141.1" x2="451" y2="737.2"/>
							</g>
						</g>
					</g>
				</g>
			</g>
		</g>
		<g>
			<g>
				<g>
					<g>
						<g>
							<g>
								<defs>
									<rect id="SVGID_35_" x="216" y="141.1" width="1006.5" height="596"/>
								</defs>
								<clipPath id="SVGID_36_">
									<use xlink:href="#SVGID_35_"  style="overflow:visible;"/>
								</clipPath>
								<line class="st25" x1="216" y1="319.8" x2="1222.6" y2="319.8"/>
							</g>
						</g>
					</g>
				</g>
			</g>
		</g>
		<g>
			<g>
				<g>
					<g>
						<g>
							<g>
								<defs>
									<rect id="SVGID_37_" x="216" y="141.1" width="1006.5" height="596"/>
								</defs>
								<clipPath id="SVGID_38_">
									<use xlink:href="#SVGID_37_"  style="overflow:visible;"/>
								</clipPath>
								<line class="st26" x1="987.7" y1="141.1" x2="987.7" y2="737.2"/>
							</g>
						</g>
					</g>
				</g>
			</g>
		</g>
		<g>
			<g>
				<g>
					<g>
						<g>
							<g>
								<defs>
									<rect id="SVGID_39_" x="216" y="141.1" width="1006.5" height="596"/>
								</defs>
								<clipPath id="SVGID_40_">
									<use xlink:href="#SVGID_39_"  style="overflow:visible;"/>
								</clipPath>
								<line class="st27" x1="719.6" y1="141.1" x2="719.6" y2="737.2"/>
							</g>
						</g>
					</g>
				</g>
			</g>
		</g>
		<g>
			<g>
				<g>
					<g>
						<g>
							<g>
								<defs>
									<rect id="SVGID_41_" x="216" y="141.1" width="1006.5" height="596"/>
								</defs>
								<clipPath id="SVGID_42_">
									<use xlink:href="#SVGID_41_"  style="overflow:visible;"/>
								</clipPath>
								<line class="st28" x1="282.9" y1="141.1" x2="282.9" y2="737.2"/>
							</g>
						</g>
					</g>
				</g>
			</g>
		</g>
		<g>
			<g>
				<g>
					<g>
						<g>
							<g>
								<defs>
									<rect id="SVGID_43_" x="216" y="141.1" width="1006.5" height="596"/>
								</defs>
								<clipPath id="SVGID_44_">
									<use xlink:href="#SVGID_43_"  style="overflow:visible;"/>
								</clipPath>
								<line class="st29" x1="216" y1="677.4" x2="1222.6" y2="677.4"/>
							</g>
						</g>
					</g>
				</g>
			</g>
		</g>
		<g>
			<g>
				<g>
					<g>
						<g>
							<g>
								<defs>
									<rect id="SVGID_45_" x="216" y="141.1" width="1006.5" height="596"/>
								</defs>
								<clipPath id="SVGID_46_">
									<use xlink:href="#SVGID_45_"  style="overflow:visible;"/>
								</clipPath>
								<line class="st30" x1="819.8" y1="141.1" x2="819.8" y2="737.2"/>
							</g>
						</g>
					</g>
				</g>
			</g>
		</g>
		<g>
			<g>
				<g>
					<g>
						<g>
							<g>
								<defs>
									<rect id="SVGID_47_" x="216" y="141.1" width="1006.5" height="596"/>
								</defs>
								<clipPath id="SVGID_48_">
									<use xlink:href="#SVGID_47_"  style="overflow:visible;"/>
								</clipPath>
								<line class="st31" x1="551.8" y1="141.1" x2="551.8" y2="737.2"/>
							</g>
						</g>
					</g>
				</g>
			</g>
		</g>
		<g>
			<g>
				<g>
					<g>
						<g>
							<g>
								<defs>
									<rect id="SVGID_49_" x="216" y="141.1" width="1006.5" height="596"/>
								</defs>
								<clipPath id="SVGID_50_">
									<use xlink:href="#SVGID_49_"  style="overflow:visible;"/>
								</clipPath>
								<line class="st32" x1="1088.5" y1="141.1" x2="1088.5" y2="737.2"/>
							</g>
						</g>
					</g>
				</g>
			</g>
		</g>
		<g>
			<g>
				<g>
					<g>
						<g>
							<g>
								<defs>
									<rect id="SVGID_51_" x="216" y="141.1" width="1006.5" height="596"/>
								</defs>
								<clipPath id="SVGID_52_">
									<use xlink:href="#SVGID_51_"  style="overflow:visible;"/>
								</clipPath>
								<line class="st33" x1="417.1" y1="141.1" x2="417.1" y2="737.2"/>
							</g>
						</g>
					</g>
				</g>
			</g>
		</g>
		<g>
			<g>
				<g>
					<g>
						<g>
							<g>
								<defs>
									<rect id="SVGID_53_" x="216" y="141.1" width="1006.5" height="596"/>
								</defs>
								<clipPath id="SVGID_54_">
									<use xlink:href="#SVGID_53_"  style="overflow:visible;"/>
								</clipPath>
								<line class="st34" x1="216" y1="380" x2="1222.6" y2="380"/>
							</g>
						</g>
					</g>
				</g>
			</g>
		</g>
		<g>
			<g>
				<g>
					<g>
						<g>
							<g>
								<defs>
									<rect id="SVGID_55_" x="216" y="141.1" width="1006.5" height="596"/>
								</defs>
								<clipPath id="SVGID_56_">
									<use xlink:href="#SVGID_55_"  style="overflow:visible;"/>
								</clipPath>
								<line class="st35" x1="953.8" y1="141.1" x2="953.8" y2="737.2"/>
							</g>
						</g>
					</g>
				</g>
			</g>
		</g>
		<g>
			<g>
				<g>
					<g>
						<g>
							<g>
								<defs>
									<rect id="SVGID_57_" x="216" y="141.1" width="1006.5" height="596"/>
								</defs>
								<clipPath id="SVGID_58_">
									<use xlink:href="#SVGID_57_"  style="overflow:visible;"/>
								</clipPath>
								<line class="st36" x1="685.7" y1="141.1" x2="685.7" y2="737.2"/>
							</g>
						</g>
					</g>
				</g>
			</g>
		</g>
		<g>
			<g>
				<g>
					<g>
						<g>
							<g>
								<defs>
									<rect id="SVGID_59_" x="216" y="141.1" width="1006.5" height="596"/>
								</defs>
								<clipPath id="SVGID_60_">
									<use xlink:href="#SVGID_59_"  style="overflow:visible;"/>
								</clipPath>
								<line class="st37" x1="350.2" y1="141.1" x2="350.2" y2="737.2"/>
							</g>
						</g>
					</g>
				</g>
			</g>
		</g>
		<g>
			<g>
				<g>
					<g>
						<g>
							<g>
								<defs>
									<rect id="SVGID_61_" x="216" y="141.1" width="1006.5" height="596"/>
								</defs>
								<clipPath id="SVGID_62_">
									<use xlink:href="#SVGID_61_"  style="overflow:visible;"/>
								</clipPath>
								<line class="st38" x1="216" y1="498.5" x2="1222.6" y2="498.5"/>
							</g>
						</g>
					</g>
				</g>
			</g>
		</g>
		<g>
			<g>
				<g>
					<g>
						<g>
							<g>
								<defs>
									<rect id="SVGID_63_" x="216" y="141.1" width="1006.5" height="596"/>
								</defs>
								<clipPath id="SVGID_64_">
									<use xlink:href="#SVGID_63_"  style="overflow:visible;"/>
								</clipPath>
								<line class="st39" x1="887.1" y1="141.1" x2="887.1" y2="737.2"/>
							</g>
						</g>
					</g>
				</g>
			</g>
		</g>
		<g>
			<g>
				<g>
					<g>
						<g>
							<g>
								<defs>
									<rect id="SVGID_65_" x="216" y="141.1" width="1006.5" height="596"/>
								</defs>
								<clipPath id="SVGID_66_">
									<use xlink:href="#SVGID_65_"  style="overflow:visible;"/>
								</clipPath>
								<line class="st40" x1="619" y1="141.1" x2="619" y2="737.2"/>
							</g>
						</g>
					</g>
				</g>
			</g>
		</g>
		<g>
			<g>
				<g>
					<g>
						<g>
							<g>
								<defs>
									<rect id="SVGID_67_" x="216" y="141.1" width="1006.5" height="596"/>
								</defs>
								<clipPath id="SVGID_68_">
									<use xlink:href="#SVGID_67_"  style="overflow:visible;"/>
								</clipPath>
								<line class="st41" x1="1155.7" y1="141.1" x2="1155.7" y2="737.2"/>
							</g>
						</g>
					</g>
				</g>
			</g>
		</g>
		<g>
			<g>
				<g>
					<g>
						<g>
							<g>
								<defs>
									<rect id="SVGID_69_" x="216" y="141.1" width="1006.5" height="596"/>
								</defs>
								<clipPath id="SVGID_70_">
									<use xlink:href="#SVGID_69_"  style="overflow:visible;"/>
								</clipPath>
								<line class="st42" x1="484.3" y1="141.1" x2="484.3" y2="737.2"/>
							</g>
						</g>
					</g>
				</g>
			</g>
		</g>
		<g>
			<g>
				<g>
					<g>
						<g>
							<g>
								<defs>
									<rect id="SVGID_71_" x="216" y="141.1" width="1006.5" height="596"/>
								</defs>
								<clipPath id="SVGID_72_">
									<use xlink:href="#SVGID_71_"  style="overflow:visible;"/>
								</clipPath>
								<line class="st43" x1="216" y1="260.1" x2="1222.6" y2="260.1"/>
							</g>
						</g>
					</g>
				</g>
			</g>
		</g>
		<g>
			<g>
				<g>
					<g>
						<g>
							<g>
								<defs>
									<rect id="SVGID_73_" x="216" y="141.1" width="1006.5" height="596"/>
								</defs>
								<clipPath id="SVGID_74_">
									<use xlink:href="#SVGID_73_"  style="overflow:visible;"/>
								</clipPath>
								<line class="st44" x1="1021" y1="141.1" x2="1021" y2="737.2"/>
							</g>
						</g>
					</g>
				</g>
			</g>
		</g>
		<g>
			<g>
				<g>
					<g>
						<g>
							<g>
								<defs>
									<rect id="SVGID_75_" x="216" y="141.1" width="1006.5" height="596"/>
								</defs>
								<clipPath id="SVGID_76_">
									<use xlink:href="#SVGID_75_"  style="overflow:visible;"/>
								</clipPath>
								<line class="st45" x1="753" y1="141.1" x2="753" y2="737.2"/>
							</g>
						</g>
					</g>
				</g>
			</g>
		</g>
	</g>
	<polygon class="st5" points="1222.6,734.9 753,734.9 753,497.8 786.3,497.8 786.3,439 853.8,439 853.8,497.8 1222.6,497.8 	"/>
	<rect x="383.7" y="140.1" class="st5" width="100.6" height="297.9"/>
	<rect x="216" y="259.1" class="st5" width="167.7" height="119.9"/>
	<rect x="216" y="497.2" class="st5" width="100.2" height="59.1"/>
	<rect x="216" y="556.2" class="st5" width="200.3" height="59.8"/>
	<rect x="216" y="140.1" class="st46" width="167.7" height="118.9"/>
	<path class="st47" d="M417.1,734.9"/>
</g>
<text transform="matrix(1 0 0 1 128.2645 172.572)" class="st48 st4 st49">x 1 video</text>
<text transform="matrix(1 0 0 1 177.0645 172.572)" class="st48 st4 st49"> </text>
<rect x="86.6" y="139.5" class="st50" width="33.4" height="60.1"/>
<g>
	<text transform="matrix(1 0 0 1 177.0646 64.622)" class="st48 st4 st51">YOUTUBE VIDEOS</text>
	<line class="st5" x1="177.1" y1="73.4" x2="288.2" y2="73.4"/>
</g>
</svg>
