<?xml version="1.0" encoding="utf-8"?>
<!-- Generator: Adobe Illustrator 21.0.0, SVG Export Plug-In . SVG Version: 6.00 Build 0)  -->
<svg version="1.1" id="Livello_1" xmlns="http://www.w3.org/2000/svg" xmlns:xlink="http://www.w3.org/1999/xlink" x="0px" y="0px"
	 viewBox="0 0 847 505.2" style="enable-background:new 0 0 847 505.2;" xml:space="preserve">
<style type="text/css">
	.st0{fill:#141414;}
	.st1{fill:#FDBD2C;}
	.st2{font-family:'Lekton-Regular';}
	.st3{font-size:8px;}
	.st4{fill:none;stroke:#D3D3D3;stroke-width:3;}
	.st5{fill:#FDBD2C;stroke:#D3D3D3;stroke-width:3;}
	.st6{font-family:'Lekton-Bold';}
	.st7{opacity:0.26;}
	.st8{clip-path:url(#SVGID_2_);fill:none;stroke:#D4D4D3;stroke-width:0.5;}
	.st9{fill:none;stroke:#D4D4D3;stroke-width:0.5;}
	.st10{fill:none;}
	.st11{fill:#D3D3D3;}
	.st12{font-size:16px;}
</style>
<rect y="-2.4" class="st0" width="847" height="507.6"/>
<title>Travel &amp; Events: 3</title>
<text transform="matrix(1 0 0 1 164.4639 318.7881)"><tspan x="0" y="0" class="st1 st2 st3">Travel </tspan><tspan x="-2" y="9.6" class="st1 st2 st3">&amp; Events</tspan></text>
<rect x="152.6" y="241.4" class="st4" width="90.5" height="32"/>
<polygon class="st4" points="152.6,273.3 260.8,273.3 260.8,337.2 206.7,337.2 207,305.2 152.6,305.5 "/>
<title>Sports: 4</title>
<text transform="matrix(1 0 0 1 277.3096 293.0977)" class="st1 st2 st3">Sports</text>
<title>Gaming: 4</title>
<text transform="matrix(1 0 0 1 196.3247 356.292)" class="st1 st2 st3">Gaming</text>
<title>Nonprofits &amp; Activism: 5</title>
<title>Film &amp; Animation: 9</title>
<text transform="matrix(1 0 0 1 169.3711 293.1494)" class="st1 st2 st3">Film &amp; Animation</text>
<text transform="matrix(1 0 0 1 178.5156 256.1631)"><tspan x="0" y="0" class="st1 st2 st3">Non profits </tspan><tspan x="2" y="9.6" class="st1 st2 st3">&amp; activism</tspan></text>
<rect x="152.6" y="112.5" class="st5" width="90.5" height="64.2"/>
<title>Music: 10</title>
<text transform="matrix(1 0 0 1 189.0181 148.0801)" class="st0 st6 st3">Music</text>
<title>Science &amp; Technology: 10</title>
<text transform="matrix(1 0 0 1 183.6602 204.418)" class="st1 st2 st3">Science </text>
<text transform="matrix(1 0 0 1 176.5156 212.9912)" class="st1 st2 st3">&amp; Technology</text>
<title>Howto &amp; Style: 16</title>
<text transform="matrix(1 0 0 1 183.8223 404.2676)" class="st1 st2 st3">Howto &amp; Style</text>
<title>Education: 37</title>
<text transform="matrix(1 0 0 1 335.5063 370.5576)" class="st1 st2 st3">Education</text>
<title>News &amp; Politics: 53</title>
<text transform="matrix(1 0 0 1 352.1245 204.5273)" class="st1 st2 st3">News &amp; Politics</text>
<title>People &amp; Blogs: 58</title>
<text transform="matrix(1 0 0 1 544.1621 370.5576)" class="st1 st2 st3">People &amp; Blogs</text>
<polygon class="st4" points="460.4,112.5 695.9,112.5 695.9,305.5 478.5,305.5 478.5,241.4 460.4,241.4 "/>
<polygon class="st4" points="297.4,112.5 460.4,112.5 460.4,305.5 315.7,305.5 315.7,273.8 297.4,273.8 "/>
<polygon class="st4" points="279.4,305.4 442.4,305.4 442.4,433.5 260.7,433.5 260.7,401.5 279.4,401.5 "/>
<polygon class="st4" points="260.8,369.7 152.6,369.7 152.6,433 261.1,433.5 261.1,401.5 279.4,401.5 279.4,337.2 260.8,337.2 "/>
<polygon class="st4" points="315.4,273.8 260.7,273.8 260.7,337.1 279.6,337.2 279.6,305.4 388.1,305.6 278.9,305.4 315.4,305.5 "/>
<title>Entertainment: 76</title>
<text transform="matrix(1 0 0 1 554.9424 204.5273)" class="st1 st2 st3">Entertainment</text>
<g class="st7">
	<defs>
		<rect id="SVGID_1_" x="152.6" y="112.5" class="st7" width="543.3" height="321.7"/>
	</defs>
	<clipPath id="SVGID_2_">
		<use xlink:href="#SVGID_1_"  style="overflow:visible;"/>
	</clipPath>
	<line class="st8" x1="170.7" y1="112.5" x2="170.7" y2="434.2"/>
	<line class="st8" x1="152.6" y1="369.7" x2="695.9" y2="369.7"/>
	<line class="st8" x1="460.4" y1="112.5" x2="460.4" y2="434.2"/>
	<line class="st8" x1="315.8" y1="112.5" x2="315.8" y2="434.2"/>
	<line class="st8" x1="152.6" y1="144.9" x2="695.9" y2="144.9"/>
	<line class="st8" x1="605.5" y1="112.5" x2="605.5" y2="434.2"/>
	<line class="st8" x1="243.1" y1="112.5" x2="243.1" y2="434.2"/>
	<line class="st8" x1="152.6" y1="273.5" x2="695.9" y2="273.5"/>
	<line class="st8" x1="532.8" y1="112.5" x2="532.8" y2="434.2"/>
	<line class="st8" x1="388.1" y1="112.5" x2="388.1" y2="434.2"/>
	<line class="st8" x1="677.8" y1="112.5" x2="677.8" y2="434.2"/>
	<line class="st8" x1="207" y1="112.5" x2="207" y2="434.2"/>
	<line class="st8" x1="152.6" y1="337.2" x2="695.9" y2="337.2"/>
	<line class="st8" x1="496.7" y1="112.5" x2="496.7" y2="434.2"/>
	<line class="st8" x1="352.1" y1="112.5" x2="352.1" y2="434.2"/>
	<line class="st8" x1="641.8" y1="112.5" x2="641.8" y2="434.2"/>
	<line class="st8" x1="279.4" y1="112.5" x2="279.4" y2="434.2"/>
	<line class="st8" x1="152.6" y1="208.9" x2="695.9" y2="208.9"/>
	<line class="st8" x1="569.1" y1="112.5" x2="569.1" y2="434.2"/>
	<line class="st8" x1="424.4" y1="112.5" x2="424.4" y2="434.2"/>
	<line class="st8" x1="188.7" y1="112.5" x2="188.7" y2="434.2"/>
	<line class="st8" x1="152.6" y1="401.9" x2="695.9" y2="401.9"/>
	<line class="st8" x1="478.5" y1="112.5" x2="478.5" y2="434.2"/>
	<line class="st8" x1="333.8" y1="112.5" x2="333.8" y2="434.2"/>
	<line class="st8" x1="623.5" y1="112.5" x2="623.5" y2="434.2"/>
	<line class="st8" x1="261.1" y1="112.5" x2="261.1" y2="434.2"/>
	<line class="st8" x1="152.6" y1="241.4" x2="695.9" y2="241.4"/>
	<line class="st8" x1="550.8" y1="112.5" x2="550.8" y2="434.2"/>
	<line class="st8" x1="406.1" y1="112.5" x2="406.1" y2="434.2"/>
	<line class="st8" x1="225" y1="112.5" x2="225" y2="434.2"/>
	<line class="st8" x1="152.6" y1="305.4" x2="695.9" y2="305.4"/>
	<line class="st8" x1="514.8" y1="112.5" x2="514.8" y2="434.2"/>
	<line class="st8" x1="370.1" y1="112.5" x2="370.1" y2="434.2"/>
	<line class="st8" x1="659.8" y1="112.5" x2="659.8" y2="434.2"/>
	<line class="st8" x1="297.4" y1="112.5" x2="297.4" y2="434.2"/>
	<line class="st8" x1="152.6" y1="176.7" x2="695.9" y2="176.7"/>
	<line class="st8" x1="587.1" y1="112.5" x2="587.1" y2="434.2"/>
	<line class="st8" x1="442.4" y1="112.5" x2="442.4" y2="434.2"/>
</g>
<text transform="matrix(1 0 0 1 259.522 204.5273)" class="st1 st2 st3">Comedy</text>
<polygon class="st4" points="695.9,433.5 442.4,433.5 442.4,305.5 460.4,305.5 460.4,241.4 478.5,241.4 478.5,305.5 695.9,305.5 "/>
<rect x="243.1" y="112.5" class="st4" width="54.3" height="160.8"/>
<rect x="152.6" y="176.7" class="st4" width="90.5" height="64.7"/>
<rect x="152.6" y="305.2" class="st4" width="54.1" height="31.9"/>
<rect x="152.6" y="337.1" class="st4" width="108.1" height="32.3"/>
<rect x="152.6" y="112.5" class="st9" width="90.5" height="64.2"/>
<path class="st10" d="M261.1,433.5"/>
<g>
	<rect x="152.6" y="57.6" class="st10" width="209.3" height="14.6"/>
	<text transform="matrix(1 0 0 1 152.6077 70.8691)" class="st11 st2 st12">YOUTUBE VIDEOS</text>
	<line class="st4" x1="152.6" y1="79.7" x2="262.9" y2="79.7"/>
</g>
<rect x="663.3" y="65" class="st10" width="73.1" height="7.3"/>
<text transform="matrix(1 0 0 1 663.2547 71.6348)"><tspan x="0" y="0" class="st11 st2 st3">x 1 video</tspan><tspan x="32.8" y="0" class="st11 st2 st3"> </tspan></text>
<rect x="641.6" y="53.8" class="st9" width="18" height="31.8"/>
</svg>
