<?xml version="1.0" encoding="utf-8"?>
<!-- Generator: Adobe Illustrator 19.2.1, SVG Export Plug-In . SVG Version: 6.00 Build 0)  -->
<svg version="1.1" id="Livello_1" xmlns="http://www.w3.org/2000/svg" xmlns:xlink="http://www.w3.org/1999/xlink" x="0px" y="0px"
	 viewBox="0 0 1366 788" style="enable-background:new 0 0 1366 788;" xml:space="preserve">
<style type="text/css">
	.st0{fill:#141414;}
	.st1{fill:#FDBD2C;}
	.st2{font-family:'Lekton-Regular';}
	.st3{font-size:16px;}
	.st4{fill:none;stroke:#D3D3D3;stroke-width:3;}
	.st5{fill:#FDBD2C;stroke:#D3D3D3;stroke-width:3;}
	.st6{font-family:'Lekton-Bold';}
	.st7{opacity:0.26;enable-background:new    ;}
	.st8{clip-path:url(#SVGID_2_);fill:none;stroke:#D4D4D3;stroke-width:0.5;}
	.st9{clip-path:url(#SVGID_4_);fill:none;stroke:#D4D4D3;stroke-width:0.5;}
	.st10{clip-path:url(#SVGID_6_);fill:none;stroke:#D4D4D3;stroke-width:0.5;}
	.st11{clip-path:url(#SVGID_8_);fill:none;stroke:#D4D4D3;stroke-width:0.5;}
	.st12{clip-path:url(#SVGID_10_);fill:none;stroke:#D4D4D3;stroke-width:0.5;}
	.st13{clip-path:url(#SVGID_12_);fill:none;stroke:#D4D4D3;stroke-width:0.5;}
	.st14{clip-path:url(#SVGID_14_);fill:none;stroke:#D4D4D3;stroke-width:0.5;}
	.st15{clip-path:url(#SVGID_16_);fill:none;stroke:#D4D4D3;stroke-width:0.5;}
	.st16{clip-path:url(#SVGID_18_);fill:none;stroke:#D4D4D3;stroke-width:0.5;}
	.st17{clip-path:url(#SVGID_20_);fill:none;stroke:#D4D4D3;stroke-width:0.5;}
	.st18{clip-path:url(#SVGID_22_);fill:none;stroke:#D4D4D3;stroke-width:0.5;}
	.st19{clip-path:url(#SVGID_24_);fill:none;stroke:#D4D4D3;stroke-width:0.5;}
	.st20{clip-path:url(#SVGID_26_);fill:none;stroke:#D4D4D3;stroke-width:0.5;}
	.st21{clip-path:url(#SVGID_28_);fill:none;stroke:#D4D4D3;stroke-width:0.5;}
	.st22{clip-path:url(#SVGID_30_);fill:none;stroke:#D4D4D3;stroke-width:0.5;}
	.st23{clip-path:url(#SVGID_32_);fill:none;stroke:#D4D4D3;stroke-width:0.5;}
	.st24{clip-path:url(#SVGID_34_);fill:none;stroke:#D4D4D3;stroke-width:0.5;}
	.st25{clip-path:url(#SVGID_36_);fill:none;stroke:#D4D4D3;stroke-width:0.5;}
	.st26{clip-path:url(#SVGID_38_);fill:none;stroke:#D4D4D3;stroke-width:0.5;}
	.st27{clip-path:url(#SVGID_40_);fill:none;stroke:#D4D4D3;stroke-width:0.5;}
	.st28{clip-path:url(#SVGID_42_);fill:none;stroke:#D4D4D3;stroke-width:0.5;}
	.st29{clip-path:url(#SVGID_44_);fill:none;stroke:#D4D4D3;stroke-width:0.5;}
	.st30{clip-path:url(#SVGID_46_);fill:none;stroke:#D4D4D3;stroke-width:0.5;}
	.st31{clip-path:url(#SVGID_48_);fill:none;stroke:#D4D4D3;stroke-width:0.5;}
	.st32{clip-path:url(#SVGID_50_);fill:none;stroke:#D4D4D3;stroke-width:0.5;}
	.st33{clip-path:url(#SVGID_52_);fill:none;stroke:#D4D4D3;stroke-width:0.5;}
	.st34{clip-path:url(#SVGID_54_);fill:none;stroke:#D4D4D3;stroke-width:0.5;}
	.st35{clip-path:url(#SVGID_56_);fill:none;stroke:#D4D4D3;stroke-width:0.5;}
	.st36{clip-path:url(#SVGID_58_);fill:none;stroke:#D4D4D3;stroke-width:0.5;}
	.st37{clip-path:url(#SVGID_60_);fill:none;stroke:#D4D4D3;stroke-width:0.5;}
	.st38{clip-path:url(#SVGID_62_);fill:none;stroke:#D4D4D3;stroke-width:0.5;}
	.st39{clip-path:url(#SVGID_64_);fill:none;stroke:#D4D4D3;stroke-width:0.5;}
	.st40{clip-path:url(#SVGID_66_);fill:none;stroke:#D4D4D3;stroke-width:0.5;}
	.st41{clip-path:url(#SVGID_68_);fill:none;stroke:#D4D4D3;stroke-width:0.5;}
	.st42{clip-path:url(#SVGID_70_);fill:none;stroke:#D4D4D3;stroke-width:0.5;}
	.st43{clip-path:url(#SVGID_72_);fill:none;stroke:#D4D4D3;stroke-width:0.5;}
	.st44{clip-path:url(#SVGID_74_);fill:none;stroke:#D4D4D3;stroke-width:0.5;}
	.st45{clip-path:url(#SVGID_76_);fill:none;stroke:#D4D4D3;stroke-width:0.5;}
	.st46{fill:none;stroke:#D4D4D3;stroke-width:0.5;}
	.st47{fill:none;}
	.st48{fill:#D3D3D3;}
	.st49{font-size:10px;}
</style>
<rect x="0.9" class="st0" width="1364.3" height="788"/>
<title>Travel &amp; Events: 3</title>
<text transform="matrix(1 0 0 1 212.7305 517.4814)" class="st1 st2 st3">Travel </text>
<text transform="matrix(1 0 0 1 209.0254 535.2676)" class="st1 st2 st3">&amp; Events</text>
<rect x="190.7" y="374.1" class="st4" width="167.7" height="59.3"/>
<polygon class="st4" points="190.7,433.2 391.2,433.2 391.2,551.6 291,551.6 291.5,492.3 190.7,492.9 "/>
<title>Sports: 4</title>
<text transform="matrix(1 0 0 1 421.7954 469.8867)" class="st1 st2 st3">Sports</text>
<title>Gaming: 4</title>
<text transform="matrix(1 0 0 1 271.7578 586.9629)" class="st1 st2 st3">Gaming</text>
<title>Nonprofits &amp; Activism: 5</title>
<title>Film &amp; Animation: 9</title>
<text transform="matrix(1 0 0 1 221.8218 469.9824)" class="st1 st2 st3">Film &amp; Animation</text>
<text transform="matrix(1 0 0 1 238.7637 401.459)" class="st1 st2 st3">Non profits </text>
<text transform="matrix(1 0 0 1 242.4688 419.2441)" class="st1 st2 st3">&amp; activism</text>
<rect x="190.7" y="135.3" class="st5" width="167.7" height="118.9"/>
<title>Music: 10</title>
<text transform="matrix(1 0 0 1 258.2212 201.2178)" class="st0 st6 st3">Music</text>
<title>Science &amp; Technology: 10</title>
<text transform="matrix(1 0 0 1 248.2949 305.5928)" class="st1 st2 st3">Science </text>
<text transform="matrix(1 0 0 1 235.0581 321.4766)" class="st1 st2 st3">&amp; Technology</text>
<title>Howto &amp; Style: 16</title>
<text transform="matrix(1 0 0 1 248.5952 675.8457)" class="st1 st2 st3">Howto &amp; Style</text>
<title>Education: 37</title>
<text transform="matrix(1 0 0 1 529.6133 613.3926)" class="st1 st2 st3">Education</text>
<title>News &amp; Politics: 53</title>
<text transform="matrix(1 0 0 1 560.4023 305.7949)" class="st1 st2 st3">News &amp; Politics</text>
<title>People &amp; Blogs: 58</title>
<text transform="matrix(1 0 0 1 916.1816 613.3926)" class="st1 st2 st3">People &amp; Blogs</text>
<polygon class="st4" points="761,135.3 1197.3,135.3 1197.3,492.9 794.5,492.9 794.5,374.1 761,374.1 "/>
<polygon class="st4" points="459,135.3 761,135.3 761,492.9 492.9,492.9 492.9,434.1 459,434.1 "/>
<polygon class="st4" points="425.7,492.7 727.7,492.7 727.7,730 391,730 391,670.7 425.7,670.7 "/>
<polygon class="st4" points="391.2,611.8 190.7,611.8 190.7,729.1 391.8,730 391.8,670.7 425.7,670.7 425.7,551.6 391.2,551.6 "/>
<polygon class="st4" points="492.4,434.1 391,434.1 391,551.4 426,551.6 426,492.7 627.1,493 424.7,492.7 492.4,492.9 "/>
<title>Entertainment: 76</title>
<text transform="matrix(1 0 0 1 936.1543 305.7949)" class="st1 st2 st3">Entertainment</text>
<g class="st7">
	<g>
		<defs>
			<rect id="SVGID_1_" x="190.7" y="135.3" width="1006.5" height="596"/>
		</defs>
		<clipPath id="SVGID_2_">
			<use xlink:href="#SVGID_1_"  style="overflow:visible;"/>
		</clipPath>
		<line class="st8" x1="224.3" y1="135.3" x2="224.3" y2="731.3"/>
	</g>
	<g>
		<defs>
			<rect id="SVGID_3_" x="190.7" y="135.3" width="1006.5" height="596"/>
		</defs>
		<clipPath id="SVGID_4_">
			<use xlink:href="#SVGID_3_"  style="overflow:visible;"/>
		</clipPath>
		<line class="st9" x1="190.7" y1="611.8" x2="1197.3" y2="611.8"/>
	</g>
	<g>
		<defs>
			<rect id="SVGID_5_" x="190.7" y="135.3" width="1006.5" height="596"/>
		</defs>
		<clipPath id="SVGID_6_">
			<use xlink:href="#SVGID_5_"  style="overflow:visible;"/>
		</clipPath>
		<line class="st10" x1="761" y1="135.3" x2="761" y2="731.3"/>
	</g>
	<g>
		<defs>
			<rect id="SVGID_7_" x="190.7" y="135.3" width="1006.5" height="596"/>
		</defs>
		<clipPath id="SVGID_8_">
			<use xlink:href="#SVGID_7_"  style="overflow:visible;"/>
		</clipPath>
		<line class="st11" x1="493.1" y1="135.3" x2="493.1" y2="731.3"/>
	</g>
	<g>
		<defs>
			<rect id="SVGID_9_" x="190.7" y="135.3" width="1006.5" height="596"/>
		</defs>
		<clipPath id="SVGID_10_">
			<use xlink:href="#SVGID_9_"  style="overflow:visible;"/>
		</clipPath>
		<line class="st12" x1="190.7" y1="195.3" x2="1197.3" y2="195.3"/>
	</g>
	<g>
		<defs>
			<rect id="SVGID_11_" x="190.7" y="135.3" width="1006.5" height="596"/>
		</defs>
		<clipPath id="SVGID_12_">
			<use xlink:href="#SVGID_11_"  style="overflow:visible;"/>
		</clipPath>
		<line class="st13" x1="1029.8" y1="135.3" x2="1029.8" y2="731.3"/>
	</g>
	<g>
		<defs>
			<rect id="SVGID_13_" x="190.7" y="135.3" width="1006.5" height="596"/>
		</defs>
		<clipPath id="SVGID_14_">
			<use xlink:href="#SVGID_13_"  style="overflow:visible;"/>
		</clipPath>
		<line class="st14" x1="358.4" y1="135.3" x2="358.4" y2="731.3"/>
	</g>
	<g>
		<defs>
			<rect id="SVGID_15_" x="190.7" y="135.3" width="1006.5" height="596"/>
		</defs>
		<clipPath id="SVGID_16_">
			<use xlink:href="#SVGID_15_"  style="overflow:visible;"/>
		</clipPath>
		<line class="st15" x1="190.7" y1="433.6" x2="1197.3" y2="433.6"/>
	</g>
	<g>
		<defs>
			<rect id="SVGID_17_" x="190.7" y="135.3" width="1006.5" height="596"/>
		</defs>
		<clipPath id="SVGID_18_">
			<use xlink:href="#SVGID_17_"  style="overflow:visible;"/>
		</clipPath>
		<line class="st16" x1="895.1" y1="135.3" x2="895.1" y2="731.3"/>
	</g>
	<g>
		<defs>
			<rect id="SVGID_19_" x="190.7" y="135.3" width="1006.5" height="596"/>
		</defs>
		<clipPath id="SVGID_20_">
			<use xlink:href="#SVGID_19_"  style="overflow:visible;"/>
		</clipPath>
		<line class="st17" x1="627.1" y1="135.3" x2="627.1" y2="731.3"/>
	</g>
	<g>
		<defs>
			<rect id="SVGID_21_" x="190.7" y="135.3" width="1006.5" height="596"/>
		</defs>
		<clipPath id="SVGID_22_">
			<use xlink:href="#SVGID_21_"  style="overflow:visible;"/>
		</clipPath>
		<line class="st18" x1="1163.8" y1="135.3" x2="1163.8" y2="731.3"/>
	</g>
	<g>
		<defs>
			<rect id="SVGID_23_" x="190.7" y="135.3" width="1006.5" height="596"/>
		</defs>
		<clipPath id="SVGID_24_">
			<use xlink:href="#SVGID_23_"  style="overflow:visible;"/>
		</clipPath>
		<line class="st19" x1="291.5" y1="135.3" x2="291.5" y2="731.3"/>
	</g>
	<g>
		<defs>
			<rect id="SVGID_25_" x="190.7" y="135.3" width="1006.5" height="596"/>
		</defs>
		<clipPath id="SVGID_26_">
			<use xlink:href="#SVGID_25_"  style="overflow:visible;"/>
		</clipPath>
		<line class="st20" x1="190.7" y1="551.6" x2="1197.3" y2="551.6"/>
	</g>
	<g>
		<defs>
			<rect id="SVGID_27_" x="190.7" y="135.3" width="1006.5" height="596"/>
		</defs>
		<clipPath id="SVGID_28_">
			<use xlink:href="#SVGID_27_"  style="overflow:visible;"/>
		</clipPath>
		<line class="st21" x1="828.3" y1="135.3" x2="828.3" y2="731.3"/>
	</g>
	<g>
		<defs>
			<rect id="SVGID_29_" x="190.7" y="135.3" width="1006.5" height="596"/>
		</defs>
		<clipPath id="SVGID_30_">
			<use xlink:href="#SVGID_29_"  style="overflow:visible;"/>
		</clipPath>
		<line class="st22" x1="560.4" y1="135.3" x2="560.4" y2="731.3"/>
	</g>
	<g>
		<defs>
			<rect id="SVGID_31_" x="190.7" y="135.3" width="1006.5" height="596"/>
		</defs>
		<clipPath id="SVGID_32_">
			<use xlink:href="#SVGID_31_"  style="overflow:visible;"/>
		</clipPath>
		<line class="st23" x1="1097.1" y1="135.3" x2="1097.1" y2="731.3"/>
	</g>
	<g>
		<defs>
			<rect id="SVGID_33_" x="190.7" y="135.3" width="1006.5" height="596"/>
		</defs>
		<clipPath id="SVGID_34_">
			<use xlink:href="#SVGID_33_"  style="overflow:visible;"/>
		</clipPath>
		<line class="st24" x1="425.7" y1="135.3" x2="425.7" y2="731.3"/>
	</g>
	<g>
		<defs>
			<rect id="SVGID_35_" x="190.7" y="135.3" width="1006.5" height="596"/>
		</defs>
		<clipPath id="SVGID_36_">
			<use xlink:href="#SVGID_35_"  style="overflow:visible;"/>
		</clipPath>
		<line class="st25" x1="190.7" y1="313.9" x2="1197.3" y2="313.9"/>
	</g>
	<g>
		<defs>
			<rect id="SVGID_37_" x="190.7" y="135.3" width="1006.5" height="596"/>
		</defs>
		<clipPath id="SVGID_38_">
			<use xlink:href="#SVGID_37_"  style="overflow:visible;"/>
		</clipPath>
		<line class="st26" x1="962.4" y1="135.3" x2="962.4" y2="731.3"/>
	</g>
	<g>
		<defs>
			<rect id="SVGID_39_" x="190.7" y="135.3" width="1006.5" height="596"/>
		</defs>
		<clipPath id="SVGID_40_">
			<use xlink:href="#SVGID_39_"  style="overflow:visible;"/>
		</clipPath>
		<line class="st27" x1="694.3" y1="135.3" x2="694.3" y2="731.3"/>
	</g>
	<g>
		<defs>
			<rect id="SVGID_41_" x="190.7" y="135.3" width="1006.5" height="596"/>
		</defs>
		<clipPath id="SVGID_42_">
			<use xlink:href="#SVGID_41_"  style="overflow:visible;"/>
		</clipPath>
		<line class="st28" x1="257.6" y1="135.3" x2="257.6" y2="731.3"/>
	</g>
	<g>
		<defs>
			<rect id="SVGID_43_" x="190.7" y="135.3" width="1006.5" height="596"/>
		</defs>
		<clipPath id="SVGID_44_">
			<use xlink:href="#SVGID_43_"  style="overflow:visible;"/>
		</clipPath>
		<line class="st29" x1="190.7" y1="671.5" x2="1197.3" y2="671.5"/>
	</g>
	<g>
		<defs>
			<rect id="SVGID_45_" x="190.7" y="135.3" width="1006.5" height="596"/>
		</defs>
		<clipPath id="SVGID_46_">
			<use xlink:href="#SVGID_45_"  style="overflow:visible;"/>
		</clipPath>
		<line class="st30" x1="794.5" y1="135.3" x2="794.5" y2="731.3"/>
	</g>
	<g>
		<defs>
			<rect id="SVGID_47_" x="190.7" y="135.3" width="1006.5" height="596"/>
		</defs>
		<clipPath id="SVGID_48_">
			<use xlink:href="#SVGID_47_"  style="overflow:visible;"/>
		</clipPath>
		<line class="st31" x1="526.5" y1="135.3" x2="526.5" y2="731.3"/>
	</g>
	<g>
		<defs>
			<rect id="SVGID_49_" x="190.7" y="135.3" width="1006.5" height="596"/>
		</defs>
		<clipPath id="SVGID_50_">
			<use xlink:href="#SVGID_49_"  style="overflow:visible;"/>
		</clipPath>
		<line class="st32" x1="1063.2" y1="135.3" x2="1063.2" y2="731.3"/>
	</g>
	<g>
		<defs>
			<rect id="SVGID_51_" x="190.7" y="135.3" width="1006.5" height="596"/>
		</defs>
		<clipPath id="SVGID_52_">
			<use xlink:href="#SVGID_51_"  style="overflow:visible;"/>
		</clipPath>
		<line class="st33" x1="391.8" y1="135.3" x2="391.8" y2="731.3"/>
	</g>
	<g>
		<defs>
			<rect id="SVGID_53_" x="190.7" y="135.3" width="1006.5" height="596"/>
		</defs>
		<clipPath id="SVGID_54_">
			<use xlink:href="#SVGID_53_"  style="overflow:visible;"/>
		</clipPath>
		<line class="st34" x1="190.7" y1="374.1" x2="1197.3" y2="374.1"/>
	</g>
	<g>
		<defs>
			<rect id="SVGID_55_" x="190.7" y="135.3" width="1006.5" height="596"/>
		</defs>
		<clipPath id="SVGID_56_">
			<use xlink:href="#SVGID_55_"  style="overflow:visible;"/>
		</clipPath>
		<line class="st35" x1="928.5" y1="135.3" x2="928.5" y2="731.3"/>
	</g>
	<g>
		<defs>
			<rect id="SVGID_57_" x="190.7" y="135.3" width="1006.5" height="596"/>
		</defs>
		<clipPath id="SVGID_58_">
			<use xlink:href="#SVGID_57_"  style="overflow:visible;"/>
		</clipPath>
		<line class="st36" x1="660.4" y1="135.3" x2="660.4" y2="731.3"/>
	</g>
	<g>
		<defs>
			<rect id="SVGID_59_" x="190.7" y="135.3" width="1006.5" height="596"/>
		</defs>
		<clipPath id="SVGID_60_">
			<use xlink:href="#SVGID_59_"  style="overflow:visible;"/>
		</clipPath>
		<line class="st37" x1="324.9" y1="135.3" x2="324.9" y2="731.3"/>
	</g>
	<g>
		<defs>
			<rect id="SVGID_61_" x="190.7" y="135.3" width="1006.5" height="596"/>
		</defs>
		<clipPath id="SVGID_62_">
			<use xlink:href="#SVGID_61_"  style="overflow:visible;"/>
		</clipPath>
		<line class="st38" x1="190.7" y1="492.7" x2="1197.3" y2="492.7"/>
	</g>
	<g>
		<defs>
			<rect id="SVGID_63_" x="190.7" y="135.3" width="1006.5" height="596"/>
		</defs>
		<clipPath id="SVGID_64_">
			<use xlink:href="#SVGID_63_"  style="overflow:visible;"/>
		</clipPath>
		<line class="st39" x1="861.8" y1="135.3" x2="861.8" y2="731.3"/>
	</g>
	<g>
		<defs>
			<rect id="SVGID_65_" x="190.7" y="135.3" width="1006.5" height="596"/>
		</defs>
		<clipPath id="SVGID_66_">
			<use xlink:href="#SVGID_65_"  style="overflow:visible;"/>
		</clipPath>
		<line class="st40" x1="593.7" y1="135.3" x2="593.7" y2="731.3"/>
	</g>
	<g>
		<defs>
			<rect id="SVGID_67_" x="190.7" y="135.3" width="1006.5" height="596"/>
		</defs>
		<clipPath id="SVGID_68_">
			<use xlink:href="#SVGID_67_"  style="overflow:visible;"/>
		</clipPath>
		<line class="st41" x1="1130.4" y1="135.3" x2="1130.4" y2="731.3"/>
	</g>
	<g>
		<defs>
			<rect id="SVGID_69_" x="190.7" y="135.3" width="1006.5" height="596"/>
		</defs>
		<clipPath id="SVGID_70_">
			<use xlink:href="#SVGID_69_"  style="overflow:visible;"/>
		</clipPath>
		<line class="st42" x1="459" y1="135.3" x2="459" y2="731.3"/>
	</g>
	<g>
		<defs>
			<rect id="SVGID_71_" x="190.7" y="135.3" width="1006.5" height="596"/>
		</defs>
		<clipPath id="SVGID_72_">
			<use xlink:href="#SVGID_71_"  style="overflow:visible;"/>
		</clipPath>
		<line class="st43" x1="190.7" y1="254.2" x2="1197.3" y2="254.2"/>
	</g>
	<g>
		<defs>
			<rect id="SVGID_73_" x="190.7" y="135.3" width="1006.5" height="596"/>
		</defs>
		<clipPath id="SVGID_74_">
			<use xlink:href="#SVGID_73_"  style="overflow:visible;"/>
		</clipPath>
		<line class="st44" x1="995.7" y1="135.3" x2="995.7" y2="731.3"/>
	</g>
	<g>
		<defs>
			<rect id="SVGID_75_" x="190.7" y="135.3" width="1006.5" height="596"/>
		</defs>
		<clipPath id="SVGID_76_">
			<use xlink:href="#SVGID_75_"  style="overflow:visible;"/>
		</clipPath>
		<line class="st45" x1="727.7" y1="135.3" x2="727.7" y2="731.3"/>
	</g>
</g>
<text transform="matrix(1 0 0 1 388.8408 305.7949)" class="st1 st2 st3">Comedy</text>
<polygon class="st4" points="1197.3,730 727.7,730 727.7,492.9 761,492.9 761,374.1 794.5,374.1 794.5,492.9 1197.3,492.9 "/>
<rect x="358.4" y="135.3" class="st4" width="100.6" height="297.9"/>
<rect x="190.7" y="254.2" class="st4" width="167.7" height="119.9"/>
<rect x="190.7" y="492.3" class="st4" width="100.2" height="59.1"/>
<rect x="190.7" y="551.4" class="st4" width="200.3" height="59.8"/>
<rect x="190.7" y="135.3" class="st46" width="167.7" height="118.9"/>
<path class="st47" d="M391.8,730"/>
<rect x="663.3" y="65" class="st47" width="73.1" height="7.3"/>
<text transform="matrix(1 0 0 1 1153.5859 59.8191)" class="st48 st2 st49">x 1 video</text>
<text transform="matrix(1 0 0 1 1186.3859 59.8191)" class="st48 st2 st49"> </text>
<rect x="1096.9" y="26.7" class="st46" width="33.4" height="60.1"/>
<g>
	<text transform="matrix(1 0 0 1 191.7787 59.8191)" class="st48 st2 st3">YOUTUBE VIDEOS</text>
	<line class="st4" x1="191.8" y1="68.6" x2="302.9" y2="68.6"/>
</g>
</svg>
