<?xml version="1.0" encoding="utf-8"?>
<!-- Generator: Adobe Illustrator 21.0.0, SVG Export Plug-In . SVG Version: 6.00 Build 0)  -->
<svg version="1.1" id="people_x5F_01" xmlns="http://www.w3.org/2000/svg" xmlns:xlink="http://www.w3.org/1999/xlink" x="0px"
	 y="0px" viewBox="0 0 217.5 42.8" style="enable-background:new 0 0 217.5 42.8;" xml:space="preserve">
<style type="text/css">
	.st0{fill:#1D1D1B;}
	.st1{fill:#00EB8C;}
</style>
<g>
	<path d="M84.3,4.1h-1.5l-0.2-1.3c-0.2-0.2-0.4-0.4-0.7-0.5s-0.7-0.2-1.1-0.2c-0.9,0-1.5,0.3-2,0.9s-0.7,1.4-0.7,2.5v0.3
		c0,1,0.2,1.8,0.7,2.5s1.1,1,2,1c0.4,0,0.8-0.1,1.1-0.2s0.6-0.3,0.8-0.5l0.2-1.3h1.5v2c-0.4,0.5-0.9,0.8-1.5,1.1
		c-0.6,0.3-1.3,0.4-2.1,0.4c-1.3,0-2.4-0.5-3.3-1.4s-1.3-2.1-1.3-3.6V5.5c0-1.4,0.4-2.6,1.3-3.6s1.9-1.4,3.3-1.4
		c0.8,0,1.5,0.1,2.1,0.4c0.6,0.3,1.1,0.7,1.5,1.1V4.1z"/>
	<path d="M84.9,6.9c0-1.1,0.3-2,0.9-2.7c0.6-0.7,1.5-1.1,2.6-1.1c1.1,0,1.9,0.4,2.6,1.1s0.9,1.6,0.9,2.7V7c0,1.1-0.3,2-0.9,2.7
		c-0.6,0.7-1.5,1-2.6,1c-1.1,0-2-0.3-2.6-1c-0.6-0.7-0.9-1.6-0.9-2.7V6.9z M86.9,7c0,0.7,0.1,1.2,0.4,1.6c0.2,0.4,0.6,0.6,1.1,0.6
		c0.5,0,0.9-0.2,1.1-0.6s0.4-1,0.4-1.6V6.9c0-0.7-0.1-1.2-0.4-1.6s-0.6-0.6-1.1-0.6s-0.9,0.2-1.1,0.6s-0.4,1-0.4,1.6V7z"/>
	<path d="M92.1,1.2V0h3.1v9.3l1,0.2v1.2h-3.9V9.5l1-0.2V1.4L92.1,1.2z"/>
	<path d="M96.3,6.9c0-1.1,0.3-2,0.9-2.7c0.6-0.7,1.5-1.1,2.6-1.1c1.1,0,1.9,0.4,2.6,1.1s0.9,1.6,0.9,2.7V7c0,1.1-0.3,2-0.9,2.7
		c-0.6,0.7-1.5,1-2.6,1c-1.1,0-2-0.3-2.6-1c-0.6-0.7-0.9-1.6-0.9-2.7V6.9z M98.2,7c0,0.7,0.1,1.2,0.4,1.6c0.2,0.4,0.6,0.6,1.1,0.6
		c0.5,0,0.9-0.2,1.1-0.6s0.4-1,0.4-1.6V6.9c0-0.7-0.1-1.2-0.4-1.6s-0.6-0.6-1.1-0.6s-0.9,0.2-1.1,0.6s-0.4,1-0.4,1.6V7z"/>
	<path d="M103.9,9.5l1-0.2V4.7l-1.1-0.2V3.3h2.9l0.1,1.1c0.2-0.4,0.4-0.7,0.7-0.9s0.6-0.3,1-0.3c0.1,0,0.2,0,0.3,0
		c0.1,0,0.2,0,0.3,0.1L108.8,5L108,5c-0.3,0-0.5,0.1-0.7,0.2s-0.3,0.3-0.4,0.5v3.6l1,0.2v1.2h-3.9V9.5z"/>
	<path d="M115.8,9.3c0.4,0,0.6-0.1,0.9-0.3c0.2-0.2,0.3-0.5,0.3-0.8h1.8l0,0c0,0.7-0.3,1.4-0.8,1.9c-0.6,0.5-1.3,0.8-2.2,0.8
		c-1.1,0-2-0.3-2.5-1s-0.9-1.6-0.9-2.7V6.9c0-1.1,0.3-2,0.9-2.7s1.5-1.1,2.6-1.1c0.6,0,1.1,0.1,1.6,0.3s0.9,0.4,1.2,0.8l0,2h-1.6
		L116.8,5c-0.1-0.1-0.2-0.2-0.4-0.2c-0.1-0.1-0.3-0.1-0.5-0.1c-0.6,0-1,0.2-1.2,0.6s-0.3,0.9-0.3,1.6v0.2c0,0.7,0.1,1.2,0.3,1.6
		C114.9,9.1,115.3,9.3,115.8,9.3z"/>
	<path d="M119.4,6.9c0-1.1,0.3-2,0.9-2.7c0.6-0.7,1.5-1.1,2.6-1.1c1.1,0,1.9,0.4,2.6,1.1s0.9,1.6,0.9,2.7V7c0,1.1-0.3,2-0.9,2.7
		c-0.6,0.7-1.5,1-2.6,1c-1.1,0-2-0.3-2.6-1c-0.6-0.7-0.9-1.6-0.9-2.7V6.9z M121.4,7c0,0.7,0.1,1.2,0.4,1.6c0.2,0.4,0.6,0.6,1.1,0.6
		c0.5,0,0.9-0.2,1.1-0.6s0.4-1,0.4-1.6V6.9c0-0.7-0.1-1.2-0.4-1.6s-0.6-0.6-1.1-0.6s-0.9,0.2-1.1,0.6s-0.4,1-0.4,1.6V7z"/>
	<path d="M131.7,9.8c-0.2,0.3-0.5,0.6-0.8,0.8s-0.7,0.3-1.1,0.3c-0.9,0-1.6-0.3-2.1-1s-0.8-1.5-0.8-2.6V7c0-1.2,0.3-2.1,0.8-2.8
		s1.2-1.1,2.1-1.1c0.4,0,0.7,0.1,1,0.2c0.3,0.2,0.6,0.4,0.8,0.7V1.4l-1.1-0.2V0h1.1h2v9.3l1,0.2v1.2h-2.7L131.7,9.8z M128.9,7.2
		c0,0.6,0.1,1.2,0.3,1.5c0.2,0.4,0.6,0.6,1.1,0.6c0.3,0,0.5-0.1,0.8-0.2s0.4-0.3,0.5-0.5V5.4c-0.1-0.2-0.3-0.4-0.5-0.6
		c-0.2-0.1-0.5-0.2-0.7-0.2c-0.5,0-0.8,0.2-1.1,0.6s-0.3,1-0.3,1.7V7.2z"/>
	<path d="M138.4,10.8c-1.1,0-1.9-0.3-2.6-1s-1-1.6-1-2.6V6.9c0-1.1,0.3-2,0.9-2.7s1.4-1.1,2.4-1.1c1,0,1.8,0.3,2.3,0.9
		s0.8,1.4,0.8,2.4v1.1h-4.4l0,0c0,0.5,0.2,0.9,0.5,1.2s0.7,0.5,1.2,0.5c0.4,0,0.8,0,1.1-0.1c0.3-0.1,0.6-0.2,1-0.4l0.5,1.2
		c-0.3,0.2-0.7,0.4-1.2,0.6S139,10.8,138.4,10.8z M138.2,4.7c-0.4,0-0.7,0.1-0.9,0.4s-0.3,0.7-0.4,1.1l0,0h2.4V6.1
		c0-0.4-0.1-0.8-0.3-1C138.9,4.8,138.6,4.7,138.2,4.7z"/>
</g>
<g>
	<g>
		<path d="M0,37v-0.6l1-0.1v-8l-1-0.1v-0.6h1h0.8h1v0.6l-1,0.1v8h3.8l0.1-1.3h0.7V37H0z"/>
		<path d="M10.3,37.1c-0.9,0-1.6-0.3-2.1-0.9s-0.9-1.4-0.9-2.4v-0.3c0-1,0.3-1.8,0.8-2.4c0.6-0.6,1.2-1,2-1c0.8,0,1.5,0.3,2,0.8
			S13,32,13,32.9v0.6H8.1v0.2c0,0.8,0.2,1.4,0.6,1.9c0.4,0.5,1,0.8,1.6,0.8c0.5,0,0.9-0.1,1.2-0.2c0.3-0.1,0.6-0.3,0.9-0.6l0.3,0.5
			c-0.3,0.3-0.6,0.5-1,0.6C11.4,37,10.9,37.1,10.3,37.1z M10.2,30.6c-0.6,0-1,0.2-1.4,0.6c-0.4,0.4-0.6,1-0.7,1.6l0,0h4v-0.2
			c0-0.6-0.2-1.1-0.5-1.5C11.3,30.8,10.8,30.6,10.2,30.6z"/>
		<path d="M14,33.6c0-1.1,0.2-2,0.7-2.6c0.5-0.7,1.1-1,1.9-1c0.5,0,0.9,0.1,1.3,0.3c0.4,0.2,0.7,0.5,0.9,0.9l0.1-1.1h0.6v6.8
			c0,0.9-0.2,1.6-0.7,2.1s-1.1,0.8-2,0.8c-0.3,0-0.7,0-1.1-0.1c-0.4-0.1-0.7-0.2-1-0.3l0.2-0.6c0.3,0.1,0.6,0.2,0.9,0.3
			c0.3,0.1,0.6,0.1,1,0.1c0.7,0,1.1-0.2,1.5-0.6c0.3-0.4,0.5-0.9,0.5-1.6V36c-0.2,0.4-0.5,0.6-0.9,0.8s-0.8,0.3-1.3,0.3
			c-0.8,0-1.5-0.3-1.9-0.9S14,34.8,14,33.7V33.6z M14.8,33.7c0,0.8,0.2,1.5,0.5,2c0.3,0.5,0.8,0.7,1.5,0.7c0.5,0,0.9-0.1,1.2-0.3
			c0.3-0.2,0.6-0.5,0.8-0.9V32c-0.2-0.4-0.4-0.7-0.7-1s-0.7-0.4-1.3-0.4c-0.7,0-1.2,0.3-1.5,0.8c-0.3,0.5-0.5,1.3-0.5,2.1V33.7z"/>
		<path d="M25.7,37c-0.1-0.2-0.1-0.4-0.1-0.6c0-0.2,0-0.3,0-0.5c-0.3,0.4-0.6,0.7-1,0.9c-0.4,0.2-0.9,0.4-1.4,0.4
			c-0.7,0-1.2-0.2-1.6-0.5c-0.4-0.3-0.6-0.8-0.6-1.4c0-0.6,0.3-1.1,0.8-1.5c0.5-0.4,1.3-0.6,2.2-0.6h1.5v-0.9c0-0.5-0.2-0.9-0.5-1.2
			c-0.3-0.3-0.8-0.4-1.3-0.4c-0.4,0-0.7,0.1-1,0.2c-0.3,0.1-0.6,0.2-0.8,0.4l-0.1,0.9h-0.6l0-1.3c0.3-0.2,0.7-0.4,1.1-0.6
			c0.4-0.2,0.9-0.2,1.4-0.2c0.8,0,1.4,0.2,1.8,0.6c0.5,0.4,0.7,0.9,0.7,1.7v3.4c0,0.1,0,0.3,0,0.4c0,0.1,0,0.3,0,0.4l0.7,0V37H25.7z
			 M23.2,36.5c0.6,0,1-0.1,1.5-0.4s0.7-0.6,0.9-1v-1.4H24c-0.7,0-1.2,0.1-1.7,0.4c-0.4,0.3-0.6,0.6-0.6,1.1c0,0.4,0.1,0.7,0.4,0.9
			C22.4,36.3,22.7,36.5,23.2,36.5z"/>
		<path d="M27.6,27.7v-0.6h1.8v9.3l1,0.1V37h-2.8v-0.6l1-0.1v-8.6L27.6,27.7z"/>
		<path d="M38.9,37c-0.1-0.2-0.1-0.4-0.1-0.6c0-0.2,0-0.3,0-0.5c-0.3,0.4-0.6,0.7-1,0.9c-0.4,0.2-0.9,0.4-1.4,0.4
			c-0.7,0-1.2-0.2-1.6-0.5c-0.4-0.3-0.6-0.8-0.6-1.4c0-0.6,0.3-1.1,0.8-1.5c0.5-0.4,1.3-0.6,2.2-0.6h1.5v-0.9c0-0.5-0.2-0.9-0.5-1.2
			c-0.3-0.3-0.8-0.4-1.3-0.4c-0.4,0-0.7,0.1-1,0.2c-0.3,0.1-0.6,0.2-0.8,0.4l-0.1,0.9h-0.6l0-1.3c0.3-0.2,0.7-0.4,1.1-0.6
			C36,30.1,36.5,30,37,30c0.8,0,1.4,0.2,1.8,0.6c0.5,0.4,0.7,0.9,0.7,1.7v3.4c0,0.1,0,0.3,0,0.4c0,0.1,0,0.3,0,0.4l0.7,0V37H38.9z
			 M36.4,36.5c0.6,0,1-0.1,1.5-0.4s0.7-0.6,0.9-1v-1.4h-1.5c-0.7,0-1.2,0.1-1.7,0.4c-0.4,0.3-0.6,0.6-0.6,1.1c0,0.4,0.1,0.7,0.4,0.9
			C35.6,36.3,36,36.5,36.4,36.5z"/>
		<path d="M44,36.5c0.5,0,0.9-0.1,1.3-0.4s0.6-0.7,0.6-1.2h0.7l0,0c0,0.6-0.2,1.2-0.8,1.6c-0.5,0.4-1.1,0.6-1.8,0.6
			c-0.9,0-1.7-0.3-2.2-1c-0.5-0.6-0.8-1.5-0.8-2.5v-0.3c0-1,0.3-1.8,0.8-2.5s1.2-1,2.2-1c0.5,0,1,0.1,1.5,0.3
			c0.4,0.2,0.8,0.5,1.1,0.8l0,1.5h-0.6l-0.1-1.2c-0.2-0.2-0.5-0.4-0.8-0.5c-0.3-0.1-0.6-0.2-1-0.2c-0.7,0-1.3,0.3-1.6,0.8
			c-0.4,0.5-0.5,1.2-0.5,2v0.3c0,0.8,0.2,1.5,0.5,2S43.2,36.5,44,36.5z"/>
		<path d="M49.4,28.4v1.8h1.5v0.6h-1.5v4.5c0,0.4,0.1,0.8,0.2,1c0.2,0.2,0.4,0.3,0.7,0.3c0.1,0,0.2,0,0.4,0c0.1,0,0.3,0,0.4-0.1
			l0.1,0.6c-0.1,0.1-0.3,0.1-0.5,0.1s-0.4,0-0.5,0c-0.5,0-0.9-0.2-1.1-0.5c-0.3-0.3-0.4-0.8-0.4-1.4v-4.5h-1.2v-0.6h1.2v-1.8H49.4z"
			/>
		<path d="M51.9,36.4l1-0.1v-5.6l-1-0.1v-0.6h1.8v6.2l1,0.1V37h-2.8V36.4z M53.7,28.2H53v-1.1h0.8V28.2z"/>
		<path d="M55.7,33.5c0-1,0.3-1.8,0.8-2.5c0.6-0.6,1.3-1,2.2-1c0.9,0,1.7,0.3,2.2,1c0.6,0.6,0.8,1.5,0.8,2.5v0.2
			c0,1-0.3,1.8-0.8,2.5c-0.6,0.6-1.3,1-2.2,1c-0.9,0-1.7-0.3-2.2-1s-0.8-1.5-0.8-2.5V33.5z M56.5,33.7c0,0.8,0.2,1.5,0.6,2
			s1,0.8,1.7,0.8c0.7,0,1.3-0.3,1.7-0.8s0.6-1.2,0.6-2v-0.2c0-0.8-0.2-1.4-0.6-2c-0.4-0.5-1-0.8-1.7-0.8s-1.3,0.3-1.7,0.8
			c-0.4,0.5-0.6,1.2-0.6,2V33.7z"/>
		<path d="M62.5,36.4l1-0.1v-5.6l-1-0.1v-0.6h1.7l0.1,1.2c0.2-0.4,0.5-0.8,0.9-1c0.4-0.2,0.8-0.3,1.3-0.3c0.7,0,1.3,0.2,1.7,0.7
			s0.6,1.2,0.6,2.1v3.5l1,0.1V37H67v-0.6l1-0.1v-3.5c0-0.8-0.1-1.3-0.4-1.7c-0.3-0.3-0.7-0.5-1.3-0.5c-0.5,0-1,0.1-1.3,0.4
			c-0.3,0.3-0.6,0.7-0.7,1.1v4.2l1,0.1V37h-2.8V36.4z"/>
		<path d="M75.7,32.2h-0.6l-0.1-1c-0.2-0.2-0.4-0.4-0.7-0.5c-0.3-0.1-0.6-0.2-1-0.2c-0.6,0-1,0.1-1.2,0.4c-0.3,0.2-0.4,0.5-0.4,0.8
			c0,0.3,0.1,0.6,0.4,0.8c0.2,0.2,0.7,0.4,1.4,0.5c0.8,0.2,1.4,0.4,1.8,0.7s0.6,0.7,0.6,1.3c0,0.6-0.2,1-0.7,1.4
			c-0.5,0.4-1.1,0.5-1.8,0.5c-0.5,0-1-0.1-1.4-0.2c-0.4-0.1-0.8-0.3-1.1-0.6v-1.4h0.6l0.1,1c0.2,0.2,0.5,0.4,0.8,0.4
			c0.3,0.1,0.6,0.1,1,0.1c0.6,0,1-0.1,1.3-0.4c0.3-0.2,0.5-0.5,0.5-0.9c0-0.3-0.1-0.6-0.4-0.8c-0.3-0.2-0.7-0.4-1.4-0.6
			c-0.8-0.2-1.4-0.4-1.8-0.7c-0.4-0.3-0.6-0.7-0.6-1.2c0-0.5,0.2-1,0.7-1.3c0.4-0.4,1-0.5,1.8-0.5c0.5,0,1,0.1,1.4,0.2
			c0.4,0.2,0.8,0.4,1,0.6L75.7,32.2z"/>
	</g>
	<g>
		<path d="M138.1,28.3v-0.6h2.8v0.6l-1,0.1v8l1,0.1V37h-2.8v-0.6l1-0.1v-8L138.1,28.3z"/>
		<path d="M141.7,27.7v-0.6h1.8v9.3l1,0.1V37h-2.8v-0.6l1-0.1v-8.6L141.7,27.7z"/>
		<path d="M145.2,27.7v-0.6h1.8v9.3l1,0.1V37h-2.8v-0.6l1-0.1v-8.6L145.2,27.7z"/>
		<path d="M151.9,37.1c-0.9,0-1.6-0.3-2.1-0.9s-0.9-1.4-0.9-2.4v-0.3c0-1,0.3-1.8,0.8-2.4c0.6-0.6,1.2-1,2-1c0.8,0,1.5,0.3,2,0.8
			s0.7,1.2,0.7,2.1v0.6h-4.8v0.2c0,0.8,0.2,1.4,0.6,1.9c0.4,0.5,1,0.8,1.6,0.8c0.5,0,0.9-0.1,1.2-0.2c0.3-0.1,0.6-0.3,0.9-0.6
			l0.3,0.5c-0.3,0.3-0.6,0.5-1,0.6C153,37,152.5,37.1,151.9,37.1z M151.8,30.6c-0.6,0-1,0.2-1.4,0.6c-0.4,0.4-0.6,1-0.7,1.6l0,0h4
			v-0.2c0-0.6-0.2-1.1-0.5-1.5C152.9,30.8,152.4,30.6,151.8,30.6z"/>
		<path d="M155.6,33.6c0-1.1,0.2-2,0.7-2.6c0.5-0.7,1.1-1,1.9-1c0.5,0,0.9,0.1,1.3,0.3c0.4,0.2,0.7,0.5,0.9,0.9l0.1-1.1h0.6v6.8
			c0,0.9-0.2,1.6-0.7,2.1s-1.1,0.8-2,0.8c-0.3,0-0.7,0-1.1-0.1c-0.4-0.1-0.7-0.2-1-0.3l0.2-0.6c0.3,0.1,0.6,0.2,0.9,0.3
			c0.3,0.1,0.6,0.1,1,0.1c0.7,0,1.1-0.2,1.5-0.6c0.3-0.4,0.5-0.9,0.5-1.6V36c-0.2,0.4-0.5,0.6-0.9,0.8s-0.8,0.3-1.3,0.3
			c-0.8,0-1.5-0.3-1.9-0.9s-0.7-1.4-0.7-2.5V33.6z M156.4,33.7c0,0.8,0.2,1.5,0.5,2c0.3,0.5,0.8,0.7,1.5,0.7c0.5,0,0.9-0.1,1.2-0.3
			c0.3-0.2,0.6-0.5,0.8-0.9V32c-0.2-0.4-0.4-0.7-0.7-1s-0.7-0.4-1.3-0.4c-0.7,0-1.2,0.3-1.5,0.8c-0.3,0.5-0.5,1.3-0.5,2.1V33.7z"/>
		<path d="M167.3,37c-0.1-0.2-0.1-0.4-0.1-0.6c0-0.2,0-0.3,0-0.5c-0.3,0.4-0.6,0.7-1,0.9c-0.4,0.2-0.9,0.4-1.4,0.4
			c-0.7,0-1.2-0.2-1.6-0.5c-0.4-0.3-0.6-0.8-0.6-1.4c0-0.6,0.3-1.1,0.8-1.5c0.5-0.4,1.3-0.6,2.2-0.6h1.5v-0.9c0-0.5-0.2-0.9-0.5-1.2
			c-0.3-0.3-0.8-0.4-1.3-0.4c-0.4,0-0.7,0.1-1,0.2c-0.3,0.1-0.6,0.2-0.8,0.4l-0.1,0.9h-0.6l0-1.3c0.3-0.2,0.7-0.4,1.1-0.6
			c0.4-0.2,0.9-0.2,1.4-0.2c0.8,0,1.4,0.2,1.8,0.6c0.5,0.4,0.7,0.9,0.7,1.7v3.4c0,0.1,0,0.3,0,0.4c0,0.1,0,0.3,0,0.4l0.7,0V37H167.3
			z M164.8,36.5c0.6,0,1-0.1,1.5-0.4s0.7-0.6,0.9-1v-1.4h-1.5c-0.7,0-1.2,0.1-1.7,0.4c-0.4,0.3-0.6,0.6-0.6,1.1
			c0,0.4,0.1,0.7,0.4,0.9C164,36.3,164.3,36.5,164.8,36.5z"/>
		<path d="M169.2,27.7v-0.6h1.8v9.3l1,0.1V37h-2.8v-0.6l1-0.1v-8.6L169.2,27.7z"/>
		<path d="M180.5,37c-0.1-0.2-0.1-0.4-0.1-0.6c0-0.2,0-0.3,0-0.5c-0.3,0.4-0.6,0.7-1,0.9c-0.4,0.2-0.9,0.4-1.4,0.4
			c-0.7,0-1.2-0.2-1.6-0.5c-0.4-0.3-0.6-0.8-0.6-1.4c0-0.6,0.3-1.1,0.8-1.5c0.5-0.4,1.3-0.6,2.2-0.6h1.5v-0.9c0-0.5-0.2-0.9-0.5-1.2
			c-0.3-0.3-0.8-0.4-1.3-0.4c-0.4,0-0.7,0.1-1,0.2c-0.3,0.1-0.6,0.2-0.8,0.4l-0.1,0.9h-0.6l0-1.3c0.3-0.2,0.7-0.4,1.1-0.6
			c0.4-0.2,0.9-0.2,1.4-0.2c0.8,0,1.4,0.2,1.8,0.6c0.5,0.4,0.7,0.9,0.7,1.7v3.4c0,0.1,0,0.3,0,0.4c0,0.1,0,0.3,0,0.4l0.7,0V37H180.5
			z M178,36.5c0.6,0,1-0.1,1.5-0.4s0.7-0.6,0.9-1v-1.4h-1.5c-0.7,0-1.2,0.1-1.7,0.4c-0.4,0.3-0.6,0.6-0.6,1.1c0,0.4,0.1,0.7,0.4,0.9
			C177.2,36.3,177.6,36.5,178,36.5z"/>
		<path d="M185.6,36.5c0.5,0,0.9-0.1,1.3-0.4s0.6-0.7,0.6-1.2h0.7l0,0c0,0.6-0.2,1.2-0.8,1.6c-0.5,0.4-1.1,0.6-1.8,0.6
			c-0.9,0-1.7-0.3-2.2-1c-0.5-0.6-0.8-1.5-0.8-2.5v-0.3c0-1,0.3-1.8,0.8-2.5s1.2-1,2.2-1c0.5,0,1,0.1,1.5,0.3
			c0.4,0.2,0.8,0.5,1.1,0.8l0,1.5h-0.6l-0.1-1.2c-0.2-0.2-0.5-0.4-0.8-0.5c-0.3-0.1-0.6-0.2-1-0.2c-0.7,0-1.3,0.3-1.6,0.8
			c-0.4,0.5-0.5,1.2-0.5,2v0.3c0,0.8,0.2,1.5,0.5,2S184.8,36.5,185.6,36.5z"/>
		<path d="M191,28.4v1.8h1.5v0.6H191v4.5c0,0.4,0.1,0.8,0.2,1c0.2,0.2,0.4,0.3,0.7,0.3c0.1,0,0.2,0,0.4,0c0.1,0,0.3,0,0.4-0.1
			l0.1,0.6c-0.1,0.1-0.3,0.1-0.5,0.1s-0.4,0-0.5,0c-0.5,0-0.9-0.2-1.1-0.5c-0.3-0.3-0.4-0.8-0.4-1.4v-4.5H189v-0.6h1.2v-1.8H191z"/>
		<path d="M193.5,36.4l1-0.1v-5.6l-1-0.1v-0.6h1.8v6.2l1,0.1V37h-2.8V36.4z M195.3,28.2h-0.8v-1.1h0.8V28.2z"/>
		<path d="M197.3,33.5c0-1,0.3-1.8,0.8-2.5c0.6-0.6,1.3-1,2.2-1c0.9,0,1.7,0.3,2.2,1c0.6,0.6,0.8,1.5,0.8,2.5v0.2
			c0,1-0.3,1.8-0.8,2.5c-0.6,0.6-1.3,1-2.2,1c-0.9,0-1.7-0.3-2.2-1s-0.8-1.5-0.8-2.5V33.5z M198.1,33.7c0,0.8,0.2,1.5,0.6,2
			s1,0.8,1.7,0.8c0.7,0,1.3-0.3,1.7-0.8s0.6-1.2,0.6-2v-0.2c0-0.8-0.2-1.4-0.6-2c-0.4-0.5-1-0.8-1.7-0.8s-1.3,0.3-1.7,0.8
			c-0.4,0.5-0.6,1.2-0.6,2V33.7z"/>
		<path d="M204.2,36.4l1-0.1v-5.6l-1-0.1v-0.6h1.7l0.1,1.2c0.2-0.4,0.5-0.8,0.9-1c0.4-0.2,0.8-0.3,1.3-0.3c0.7,0,1.3,0.2,1.7,0.7
			s0.6,1.2,0.6,2.1v3.5l1,0.1V37h-2.8v-0.6l1-0.1v-3.5c0-0.8-0.1-1.3-0.4-1.7c-0.3-0.3-0.7-0.5-1.3-0.5c-0.5,0-1,0.1-1.3,0.4
			c-0.3,0.3-0.6,0.7-0.7,1.1v4.2l1,0.1V37h-2.8V36.4z"/>
		<path d="M217.3,32.2h-0.6l-0.1-1c-0.2-0.2-0.4-0.4-0.7-0.5c-0.3-0.1-0.6-0.2-1-0.2c-0.6,0-1,0.1-1.2,0.4c-0.3,0.2-0.4,0.5-0.4,0.8
			c0,0.3,0.1,0.6,0.4,0.8c0.2,0.2,0.7,0.4,1.4,0.5c0.8,0.2,1.4,0.4,1.8,0.7s0.6,0.7,0.6,1.3c0,0.6-0.2,1-0.7,1.4
			c-0.5,0.4-1.1,0.5-1.8,0.5c-0.5,0-1-0.1-1.4-0.2c-0.4-0.1-0.8-0.3-1.1-0.6v-1.4h0.6l0.1,1c0.2,0.2,0.5,0.4,0.8,0.4
			c0.3,0.1,0.6,0.1,1,0.1c0.6,0,1-0.1,1.3-0.4c0.3-0.2,0.5-0.5,0.5-0.9c0-0.3-0.1-0.6-0.4-0.8c-0.3-0.2-0.7-0.4-1.4-0.6
			c-0.8-0.2-1.4-0.4-1.8-0.7c-0.4-0.3-0.6-0.7-0.6-1.2c0-0.5,0.2-1,0.7-1.3c0.4-0.4,1-0.5,1.8-0.5c0.5,0,1,0.1,1.4,0.2
			c0.4,0.2,0.8,0.4,1,0.6L217.3,32.2z"/>
	</g>
	<g>
		<circle class="st0" cx="93.5" cy="33.4" r="9.4"/>
	</g>
	<g>
		<circle class="st1" cx="120.5" cy="33.4" r="9.4"/>
	</g>
</g>
</svg>
