<?xml version="1.0" encoding="utf-8"?>
<!-- Generator: Adobe Illustrator 18.0.0, SVG Export Plug-In . SVG Version: 6.00 Build 0)  -->
<!DOCTYPE svg PUBLIC "-//W3C//DTD SVG 1.1//EN" "http://www.w3.org/Graphics/SVG/1.1/DTD/svg11.dtd">
<svg version="1.1" id="Livello_1" xmlns="http://www.w3.org/2000/svg" xmlns:xlink="http://www.w3.org/1999/xlink" x="0px" y="0px"
	 viewBox="0 -84 498.3 200.1" enable-background="new 0 -84 498.3 200.1" xml:space="preserve">
<rect x="32.8" y="86" fill="#999999" width="39.3" height="8.4"/>
<line fill="none" stroke="#000000" stroke-miterlimit="10" x1="0.5" y1="19.5" x2="0.5" y2="96.5"/>
<line fill="none" stroke="#000000" stroke-miterlimit="10" x1="0" y1="59" x2="65.7" y2="59"/>
<rect x="32.8" y="38.9" fill="#F5F5F5" stroke="#000000" stroke-miterlimit="10" width="39.3" height="38.1"/>
<text transform="matrix(1 0 0 1 102.5273 60.4391)" font-family="'CrimsonText-Roman'" font-size="12">articles</text>
<text transform="matrix(1 0 0 1 450.9297 62.6542)" font-family="'CrimsonText-Roman'" font-size="13.4086">1 article</text>
<text transform="matrix(1 0 0 1 450.9297 -71.9899)" font-family="'CrimsonText-Roman'" font-size="13.4086">8 articles</text>
<text transform="matrix(1 0 0 1 102.5273 91.6527)" font-family="'CrimsonText-Roman'" font-size="12">adjective category</text>
<g opacity="0.8">
	<g>
		<line fill="none" stroke="#000000" stroke-miterlimit="10" x1="65.2" y1="57.9" x2="99.1" y2="57.9"/>
		<g>
			<polygon points="66.8,60.4 67.2,59.9 65.1,57.9 67.2,55.9 66.8,55.5 64.2,57.9 			"/>
		</g>
	</g>
</g>
<g opacity="0.8">
	<g>
		<line fill="none" stroke="#000000" stroke-miterlimit="10" x1="65.2" y1="90.2" x2="99.1" y2="90.2"/>
		<g>
			<polygon points="66.8,92.7 67.2,92.2 65.1,90.2 67.2,88.2 66.8,87.8 64.2,90.2 			"/>
		</g>
	</g>
</g>
<rect x="233.5" y="-73.5" fill="#F5F5F5" stroke="#000000" stroke-miterlimit="10" width="168" height="168"/>
<rect x="367.5" y="62.5" fill="#F5F5F5" stroke="#000000" stroke-miterlimit="10" width="34" height="32"/>
<line fill="#F5F5F5" stroke="#000000" stroke-miterlimit="10" x1="233.5" y1="-73.5" x2="442" y2="-73.5"/>
<line fill="#F5F5F5" stroke="#000000" stroke-miterlimit="10" x1="367.4" y1="62.6" x2="441.5" y2="62.6"/>
</svg>
