<svg id="timeline" xmlns="http://www.w3.org/2000/svg" viewBox="0 0 1093.39 744.79"><defs><style>.cls-1,.cls-6{fill:none;stroke:#9b865e;stroke-miterlimit:10;}.cls-2,.cls-6{opacity:0.26;}.cls-3{opacity:0;font-size:50px;fill:#d93e4a;font-family:Helvetica Neue;}.cls-4{font-weight:700;}.cls-5{font-size:13px;fill:#0b233d;font-family:Candara;}</style></defs><title>时间轴</title><path id="line" class="cls-1" d="M508.4,267.79c1.91-5.27-6-5.95-6-.26,0,11.53,18.7,10.33,17.31-7.25-4.05-23.79-52.31-14.43-43.42,26.41,10.38,47.7,111,56.2,116.32-42.3-4-175.82-342.06-159.75-301.39,136.48,57.27,254.08,396.69,312,549.62,166.53" transform="translate(-13.51 -49.09)"/><g id="_2015" data-name="2015"><g class="cls-2"><line class="cls-1" x1="824.32" y1="491.06" x2="806.34" y2="529.04"/><line class="cls-1" x1="821.24" y1="489.88" x2="809.42" y2="530.22"/><line class="cls-1" x1="818.02" y1="489.21" x2="812.65" y2="530.9"/><line class="cls-1" x1="814.72" y1="489.04" x2="815.94" y2="531.06"/><line class="cls-1" x1="811.45" y1="489.4" x2="819.22" y2="530.71"/><line class="cls-1" x1="808.26" y1="490.26" x2="822.41" y2="529.84"/><line class="cls-1" x1="805.26" y1="491.62" x2="825.42" y2="528.49"/><line class="cls-1" x1="802.5" y1="493.42" x2="828.18" y2="526.69"/><line class="cls-1" x1="800.05" y1="495.63" x2="830.62" y2="524.47"/><line class="cls-1" x1="797.99" y1="498.2" x2="832.69" y2="521.9"/><line class="cls-1" x1="796.35" y1="501.06" x2="834.33" y2="519.04"/><line class="cls-1" x1="795.18" y1="504.14" x2="835.5" y2="515.96"/><line class="cls-1" x1="794.5" y1="507.37" x2="836.18" y2="512.73"/><line class="cls-1" x1="794.33" y1="510.66" x2="836.34" y2="509.44"/><line class="cls-1" x1="794.69" y1="513.94" x2="835.99" y2="506.16"/><line class="cls-1" x1="795.55" y1="517.12" x2="835.13" y2="502.98"/><line class="cls-1" x1="796.9" y1="520.13" x2="833.78" y2="499.97"/><line class="cls-1" x1="798.71" y1="522.89" x2="831.98" y2="497.21"/><line class="cls-1" x1="800.92" y1="525.33" x2="829.76" y2="494.76"/><line class="cls-1" x1="803.49" y1="527.4" x2="827.19" y2="492.69"/></g><text class="cls-3" transform="translate(835.34 474.38)"><tspan class="cls-4">2015</tspan><tspan class="cls-5"><tspan x="0" y="18">Paris- the 21st Conference of the Parties</tspan></tspan></text></g><g id="_1988" data-name="1988"><g class="cls-2"><line class="cls-1" x1="512.19" y1="202.03" x2="495.28" y2="237.76"/><line class="cls-1" x1="509.29" y1="200.93" x2="498.17" y2="238.87"/><line class="cls-1" x1="506.26" y1="200.29" x2="501.21" y2="239.51"/><line class="cls-1" x1="503.16" y1="200.14" x2="504.31" y2="239.66"/><line class="cls-1" x1="500.08" y1="200.47" x2="507.4" y2="239.33"/><line class="cls-1" x1="497.09" y1="201.29" x2="510.39" y2="238.51"/><line class="cls-1" x1="494.26" y1="202.56" x2="513.22" y2="237.24"/><line class="cls-1" x1="491.66" y1="204.25" x2="515.82" y2="235.54"/><line class="cls-1" x1="489.36" y1="206.34" x2="518.12" y2="233.46"/><line class="cls-1" x1="487.42" y1="208.75" x2="520.06" y2="231.05"/><line class="cls-1" x1="485.88" y1="211.44" x2="521.61" y2="228.35"/><line class="cls-1" x1="484.78" y1="214.34" x2="522.71" y2="225.46"/><line class="cls-1" x1="484.14" y1="217.38" x2="523.35" y2="222.42"/><line class="cls-1" x1="483.99" y1="220.47" x2="523.5" y2="219.32"/><line class="cls-1" x1="484.32" y1="223.56" x2="523.17" y2="216.24"/><line class="cls-1" x1="485.13" y1="226.55" x2="522.36" y2="213.24"/><line class="cls-1" x1="486.4" y1="229.38" x2="521.09" y2="210.42"/><line class="cls-1" x1="488.1" y1="231.97" x2="519.39" y2="207.82"/><line class="cls-1" x1="490.18" y1="234.27" x2="517.31" y2="205.52"/><line class="cls-1" x1="492.6" y1="236.22" x2="514.89" y2="203.57"/></g><text class="cls-3" transform="translate(445.24 178.78)"><tspan class="cls-4">1988</tspan><tspan class="cls-5"><tspan x="10.36" y="18">IPCC Established</tspan></tspan></text></g><g id="_1990" data-name="1990"><g class="cls-2"><line class="cls-1" x1="475.26" y1="231.28" x2="459.81" y2="263.9"/><line class="cls-1" x1="472.61" y1="230.27" x2="462.46" y2="264.9"/><line class="cls-1" x1="469.84" y1="229.69" x2="465.23" y2="265.48"/><line class="cls-1" x1="467.01" y1="229.55" x2="468.06" y2="265.62"/><line class="cls-1" x1="464.2" y1="229.85" x2="470.88" y2="265.32"/><line class="cls-1" x1="461.47" y1="230.59" x2="473.61" y2="264.58"/><line class="cls-1" x1="458.88" y1="231.75" x2="476.2" y2="263.42"/><line class="cls-1" x1="456.51" y1="233.3" x2="478.57" y2="261.87"/><line class="cls-1" x1="454.42" y1="235.2" x2="480.67" y2="259.97"/><line class="cls-1" x1="452.64" y1="237.41" x2="482.44" y2="257.76"/><line class="cls-1" x1="451.23" y1="239.87" x2="483.85" y2="255.31"/><line class="cls-1" x1="450.23" y1="242.51" x2="484.86" y2="252.66"/><line class="cls-1" x1="449.65" y1="245.28" x2="485.44" y2="249.89"/><line class="cls-1" x1="449.51" y1="248.11" x2="485.58" y2="247.06"/><line class="cls-1" x1="449.81" y1="250.93" x2="485.28" y2="244.24"/><line class="cls-1" x1="450.55" y1="253.66" x2="484.54" y2="241.51"/><line class="cls-1" x1="451.71" y1="256.24" x2="483.38" y2="238.93"/><line class="cls-1" x1="453.26" y1="258.61" x2="481.83" y2="236.56"/><line class="cls-1" x1="455.16" y1="260.71" x2="479.93" y2="234.46"/><line class="cls-1" x1="457.37" y1="262.48" x2="477.72" y2="232.68"/></g><text class="cls-3" transform="translate(328.47 262.74)"><tspan class="cls-4">1990</tspan><tspan class="cls-5"><tspan x="0" y="18">IPCC and Second </tspan><tspan x="94.73" y="18">W</tspan><tspan x="105.88" y="18">orld Climate Conference</tspan><tspan x="0" y="36">UN General Assembly Negotiations</tspan></tspan></text></g><g id="_1992" data-name="1992"><g class="cls-2"><line class="cls-1" x1="503.17" y1="251.84" x2="486.73" y2="286.57"/><line class="cls-1" x1="500.36" y1="250.77" x2="489.54" y2="287.64"/><line class="cls-1" x1="497.4" y1="250.15" x2="492.5" y2="288.26"/><line class="cls-1" x1="494.39" y1="250" x2="495.51" y2="288.41"/><line class="cls-1" x1="491.4" y1="250.32" x2="498.51" y2="288.09"/><line class="cls-1" x1="488.49" y1="251.11" x2="501.42" y2="287.3"/><line class="cls-1" x1="485.74" y1="252.35" x2="504.17" y2="286.06"/><line class="cls-1" x1="483.21" y1="254" x2="506.7" y2="284.41"/><line class="cls-1" x1="480.98" y1="256.02" x2="508.93" y2="282.39"/><line class="cls-1" x1="479.09" y1="258.37" x2="510.82" y2="280.04"/><line class="cls-1" x1="477.59" y1="260.98" x2="512.32" y2="277.42"/><line class="cls-1" x1="476.52" y1="263.8" x2="513.39" y2="274.61"/><line class="cls-1" x1="475.9" y1="266.75" x2="514.01" y2="271.66"/><line class="cls-1" x1="475.75" y1="269.76" x2="514.16" y2="268.64"/><line class="cls-1" x1="476.08" y1="272.76" x2="513.84" y2="265.65"/><line class="cls-1" x1="476.87" y1="275.67" x2="513.05" y2="262.74"/><line class="cls-1" x1="478.1" y1="278.42" x2="511.82" y2="259.98"/><line class="cls-1" x1="479.75" y1="280.94" x2="510.17" y2="257.46"/><line class="cls-1" x1="481.78" y1="283.18" x2="508.14" y2="255.23"/><line class="cls-1" x1="484.12" y1="285.07" x2="505.79" y2="253.33"/></g><text class="cls-3" transform="translate(380.26 333.28)"><tspan class="cls-4">1992</tspan><tspan class="cls-5"><tspan x="0" y="18">UNFCCC Opens for Signature at Rio Earth Summit</tspan></tspan></text></g><g id="_1994" data-name="1994"><g class="cls-2"><line class="cls-1" x1="543.91" y1="250.59" x2="527.47" y2="285.32"/><line class="cls-1" x1="541.09" y1="249.51" x2="530.28" y2="286.39"/><line class="cls-1" x1="538.14" y1="248.9" x2="533.24" y2="287.01"/><line class="cls-1" x1="535.13" y1="248.75" x2="536.25" y2="287.16"/><line class="cls-1" x1="532.14" y1="249.07" x2="539.25" y2="286.83"/><line class="cls-1" x1="529.23" y1="249.86" x2="542.16" y2="286.05"/><line class="cls-1" x1="526.48" y1="251.1" x2="544.91" y2="284.81"/><line class="cls-1" x1="523.95" y1="252.75" x2="547.43" y2="283.16"/><line class="cls-1" x1="521.72" y1="254.77" x2="549.67" y2="281.14"/><line class="cls-1" x1="519.83" y1="257.12" x2="551.56" y2="278.79"/><line class="cls-1" x1="518.33" y1="259.73" x2="553.06" y2="276.17"/><line class="cls-1" x1="517.26" y1="262.55" x2="554.13" y2="273.35"/><line class="cls-1" x1="516.64" y1="265.5" x2="554.75" y2="270.4"/><line class="cls-1" x1="516.49" y1="268.51" x2="554.9" y2="267.39"/><line class="cls-1" x1="516.82" y1="271.51" x2="554.58" y2="264.4"/><line class="cls-1" x1="517.6" y1="274.42" x2="553.79" y2="261.49"/><line class="cls-1" x1="518.84" y1="277.17" x2="552.55" y2="258.73"/><line class="cls-1" x1="520.49" y1="279.69" x2="550.91" y2="256.21"/><line class="cls-1" x1="522.51" y1="281.92" x2="548.88" y2="253.98"/><line class="cls-1" x1="524.86" y1="283.82" x2="546.53" y2="252.08"/></g><text class="cls-3" transform="translate(539.25 333.28)"><tspan class="cls-4">1994</tspan><tspan class="cls-5"><tspan x="0" y="18">UNFCCC Enters into Force</tspan></tspan></text></g><g id="_1995" data-name="1995"><g class="cls-2"><line class="cls-1" x1="577.53" y1="217.9" x2="559.55" y2="255.89"/><line class="cls-1" x1="574.45" y1="216.73" x2="562.63" y2="257.06"/><line class="cls-1" x1="571.23" y1="216.05" x2="565.86" y2="257.74"/><line class="cls-1" x1="567.93" y1="215.89" x2="569.15" y2="257.9"/><line class="cls-1" x1="564.65" y1="216.25" x2="572.43" y2="257.55"/><line class="cls-1" x1="561.47" y1="217.11" x2="575.62" y2="256.69"/><line class="cls-1" x1="558.46" y1="218.46" x2="578.63" y2="255.34"/><line class="cls-1" x1="555.71" y1="220.26" x2="581.39" y2="253.53"/><line class="cls-1" x1="553.26" y1="222.48" x2="583.83" y2="251.32"/><line class="cls-1" x1="551.2" y1="225.04" x2="585.9" y2="248.75"/><line class="cls-1" x1="549.56" y1="227.91" x2="587.54" y2="245.89"/><line class="cls-1" x1="548.38" y1="230.99" x2="588.71" y2="242.8"/><line class="cls-1" x1="547.71" y1="234.21" x2="589.39" y2="239.58"/><line class="cls-1" x1="547.54" y1="237.51" x2="589.55" y2="236.28"/><line class="cls-1" x1="547.9" y1="240.79" x2="589.2" y2="233.01"/><line class="cls-1" x1="548.76" y1="243.97" x2="588.34" y2="229.82"/><line class="cls-1" x1="550.11" y1="246.98" x2="586.99" y2="226.81"/><line class="cls-1" x1="551.92" y1="249.74" x2="585.18" y2="224.05"/><line class="cls-1" x1="554.13" y1="252.18" x2="582.97" y2="221.61"/><line class="cls-1" x1="556.7" y1="254.25" x2="580.4" y2="219.54"/></g><text class="cls-3" transform="translate(606.87 246.98)"><tspan class="cls-4">1995</tspan><tspan class="cls-5"><tspan x="0" y="18">Berlin- the 1st Conference of the Parties</tspan></tspan></text></g><g id="_1996" data-name="1996"><g class="cls-2"><line class="cls-1" x1="588.27" y1="169.87" x2="570.29" y2="207.86"/><line class="cls-1" x1="585.19" y1="168.7" x2="573.37" y2="209.03"/><line class="cls-1" x1="581.97" y1="168.02" x2="576.6" y2="209.71"/><line class="cls-1" x1="578.67" y1="167.86" x2="579.89" y2="209.87"/><line class="cls-1" x1="575.4" y1="168.21" x2="583.18" y2="209.52"/><line class="cls-1" x1="572.21" y1="169.08" x2="586.36" y2="208.65"/><line class="cls-1" x1="569.21" y1="170.43" x2="589.37" y2="207.3"/><line class="cls-1" x1="566.45" y1="172.23" x2="592.13" y2="205.5"/><line class="cls-1" x1="564" y1="174.45" x2="594.57" y2="203.29"/><line class="cls-1" x1="561.94" y1="177.01" x2="596.64" y2="200.72"/><line class="cls-1" x1="560.3" y1="179.88" x2="598.28" y2="197.86"/><line class="cls-1" x1="559.12" y1="182.96" x2="599.45" y2="194.78"/><line class="cls-1" x1="558.45" y1="186.19" x2="600.13" y2="191.55"/><line class="cls-1" x1="558.29" y1="189.48" x2="600.29" y2="188.25"/><line class="cls-1" x1="558.64" y1="192.75" x2="599.94" y2="184.97"/><line class="cls-1" x1="559.5" y1="195.94" x2="599.08" y2="181.79"/><line class="cls-1" x1="560.85" y1="198.95" x2="597.73" y2="178.78"/><line class="cls-1" x1="562.66" y1="201.71" x2="595.92" y2="176.02"/><line class="cls-1" x1="564.87" y1="204.15" x2="593.71" y2="173.58"/><line class="cls-1" x1="567.44" y1="206.21" x2="591.14" y2="171.51"/></g><text class="cls-3" transform="translate(606.87 161.72)"><tspan class="cls-4">1996</tspan><tspan class="cls-5"><tspan x="0" y="18">UNFCCC Secretariat Moves to Bonn</tspan></tspan></text></g><g id="_1997" data-name="1997"><g class="cls-2"><line class="cls-1" x1="536.33" y1="72.8" x2="510.03" y2="128.35"/><line class="cls-1" x1="531.83" y1="71.08" x2="514.54" y2="130.07"/><line class="cls-1" x1="527.11" y1="70.09" x2="519.26" y2="131.06"/><line class="cls-1" x1="522.29" y1="69.85" x2="524.08" y2="131.3"/><line class="cls-1" x1="517.5" y1="70.37" x2="528.88" y2="130.78"/><line class="cls-1" x1="512.85" y1="71.63" x2="533.53" y2="129.52"/><line class="cls-1" x1="508.45" y1="73.61" x2="537.94" y2="127.54"/><line class="cls-1" x1="504.41" y1="76.25" x2="541.97" y2="124.91"/><line class="cls-1" x1="500.84" y1="79.49" x2="545.55" y2="121.67"/><line class="cls-1" x1="497.82" y1="83.24" x2="548.57" y2="117.91"/><line class="cls-1" x1="495.42" y1="87.43" x2="550.97" y2="113.72"/><line class="cls-1" x1="493.7" y1="91.94" x2="552.69" y2="109.22"/><line class="cls-1" x1="492.71" y1="96.65" x2="553.68" y2="104.5"/><line class="cls-1" x1="492.48" y1="101.47" x2="553.92" y2="99.68"/><line class="cls-1" x1="492.99" y1="106.26" x2="553.4" y2="94.89"/><line class="cls-1" x1="494.26" y1="110.92" x2="552.14" y2="90.23"/><line class="cls-1" x1="496.23" y1="115.32" x2="550.16" y2="85.83"/><line class="cls-1" x1="498.87" y1="119.35" x2="547.53" y2="81.79"/><line class="cls-1" x1="502.11" y1="122.93" x2="544.29" y2="78.21"/><line class="cls-1" x1="505.86" y1="125.95" x2="540.53" y2="75.19"/></g><text class="cls-3" transform="translate(524.08 42.85)"><tspan class="cls-4">1997</tspan><tspan class="cls-5"><tspan x="0" y="18">Kyoto Protocol Adopted- The 3rd Conference of the Parties</tspan></tspan></text></g><g id="_2001" data-name="2001"><line class="cls-6" x1="346.84" y1="70.7" x2="348.29" y2="164.23"/><line class="cls-6" x1="365.92" y1="74.45" x2="329.21" y2="160.48"/><line class="cls-6" x1="361.33" y1="72.76" x2="333.8" y2="162.17"/><line class="cls-6" x1="356.58" y1="71.57" x2="338.55" y2="163.36"/><line class="cls-6" x1="351.73" y1="70.88" x2="343.39" y2="164.05"/><line class="cls-6" x1="341.96" y1="71.03" x2="353.18" y2="163.9"/><line class="cls-6" x1="337.14" y1="71.87" x2="358" y2="163.06"/><line class="cls-6" x1="332.43" y1="73.21" x2="362.71" y2="161.72"/><line class="cls-6" x1="327.89" y1="75.04" x2="367.25" y2="159.89"/><line class="cls-6" x1="323.57" y1="77.33" x2="371.58" y2="157.6"/><line class="cls-6" x1="319.5" y1="80.06" x2="375.64" y2="154.87"/><line class="cls-6" x1="315.74" y1="83.2" x2="379.4" y2="151.73"/><line class="cls-6" x1="312.34" y1="86.71" x2="382.82" y2="148.22"/><line class="cls-6" x1="309.32" y1="90.56" x2="385.84" y2="144.37"/><line class="cls-6" x1="306.72" y1="94.71" x2="388.44" y2="140.21"/><line class="cls-6" x1="304.56" y1="99.1" x2="390.6" y2="135.82"/><line class="cls-6" x1="302.88" y1="103.7" x2="392.28" y2="131.22"/><line class="cls-6" x1="301.69" y1="108.44" x2="393.47" y2="126.47"/><line class="cls-6" x1="301" y1="113.28" x2="394.17" y2="121.62"/><line class="cls-6" x1="300.82" y1="118.17" x2="394.34" y2="116.72"/><line class="cls-6" x1="301.15" y1="123.05" x2="394.01" y2="111.84"/><line class="cls-6" x1="301.99" y1="127.88" x2="393.17" y2="107.02"/><line class="cls-6" x1="303.33" y1="132.58" x2="391.83" y2="102.31"/><line class="cls-6" x1="305.16" y1="137.13" x2="390" y2="97.77"/><line class="cls-6" x1="307.45" y1="141.45" x2="387.71" y2="93.44"/><line class="cls-6" x1="310.17" y1="145.51" x2="384.98" y2="89.37"/><line class="cls-6" x1="313.31" y1="149.27" x2="381.84" y2="85.61"/><line class="cls-6" x1="316.82" y1="152.68" x2="378.33" y2="82.21"/><line class="cls-6" x1="320.67" y1="155.7" x2="374.47" y2="79.18"/><line class="cls-6" x1="324.82" y1="158.3" x2="370.32" y2="76.58"/><text class="cls-3" transform="translate(180.41 91.94)"><tspan class="cls-4">2001</tspan><tspan class="cls-5"><tspan x="-103.59" y="18">Bonn-the 6th Conference of the Parties</tspan><tspan x="-136.58" y="36">Marrakesh </tspan><tspan x="-75.19" y="36">-</tspan><tspan x="-72.29" y="36">The 7th Conference of the Parties</tspan></tspan></text></g><g id="_2005" data-name="2005"><line class="cls-6" x1="275.31" y1="155.36" x2="326.07" y2="190.02"/><g class="cls-2"><line class="cls-1" x1="313.83" y1="144.91" x2="287.53" y2="200.47"/><line class="cls-1" x1="309.33" y1="143.2" x2="292.04" y2="202.18"/><line class="cls-1" x1="304.61" y1="142.21" x2="296.76" y2="203.17"/><line class="cls-1" x1="299.79" y1="141.97" x2="301.58" y2="203.41"/><line class="cls-1" x1="295" y1="142.48" x2="306.38" y2="202.89"/><line class="cls-1" x1="290.34" y1="143.75" x2="311.03" y2="201.63"/><line class="cls-1" x1="285.95" y1="145.72" x2="315.43" y2="199.66"/><line class="cls-1" x1="281.91" y1="148.36" x2="319.47" y2="197.02"/><line class="cls-1" x1="278.34" y1="151.6" x2="323.04" y2="193.78"/><line class="cls-1" x1="272.92" y1="159.54" x2="328.47" y2="185.84"/><line class="cls-1" x1="271.2" y1="164.05" x2="330.18" y2="181.33"/><line class="cls-1" x1="270.21" y1="168.77" x2="331.17" y2="176.61"/><line class="cls-1" x1="269.97" y1="173.58" x2="331.41" y2="171.79"/><line class="cls-1" x1="270.49" y1="178.38" x2="330.9" y2="167"/><line class="cls-1" x1="271.76" y1="183.03" x2="329.64" y2="162.34"/><line class="cls-1" x1="273.73" y1="187.43" x2="327.66" y2="157.94"/><line class="cls-1" x1="276.37" y1="191.46" x2="325.02" y2="153.9"/><line class="cls-1" x1="279.61" y1="195.04" x2="321.79" y2="150.33"/><line class="cls-1" x1="283.36" y1="198.06" x2="318.03" y2="147.3"/></g><text class="cls-3" transform="translate(146.01 181.33)"><tspan class="cls-4">2005</tspan><tspan class="cls-5"><tspan x="0" y="18">EU Emissions </tspan><tspan x="74.99" y="18">T</tspan><tspan x="81.1" y="18">rading Launches</tspan><tspan x="0" y="36">Kyoto Protocol Enters into Force</tspan><tspan x="0" y="54">Montreal- the 11th Conference of the Parties</tspan></tspan></text></g><g id="_2006" data-name="2006"><g class="cls-2"><line class="cls-1" x1="286.71" y1="226.52" x2="268.72" y2="264.5"/><line class="cls-1" x1="283.63" y1="225.34" x2="271.8" y2="265.68"/><line class="cls-1" x1="280.4" y1="224.67" x2="275.03" y2="266.36"/><line class="cls-1" x1="277.11" y1="224.51" x2="278.33" y2="266.52"/><line class="cls-1" x1="273.83" y1="224.86" x2="281.61" y2="266.16"/><line class="cls-1" x1="270.65" y1="225.72" x2="284.79" y2="265.3"/><line class="cls-1" x1="267.64" y1="227.07" x2="287.8" y2="263.95"/><line class="cls-1" x1="264.88" y1="228.88" x2="290.56" y2="262.15"/><line class="cls-1" x1="262.44" y1="231.09" x2="293.01" y2="259.93"/><line class="cls-1" x1="260.37" y1="233.66" x2="295.07" y2="257.36"/><line class="cls-1" x1="258.73" y1="236.52" x2="296.71" y2="254.5"/><line class="cls-1" x1="257.56" y1="239.6" x2="297.89" y2="251.42"/><line class="cls-1" x1="256.88" y1="242.83" x2="298.56" y2="248.19"/><line class="cls-1" x1="256.72" y1="246.12" x2="298.73" y2="244.9"/><line class="cls-1" x1="257.07" y1="249.4" x2="298.37" y2="241.62"/><line class="cls-1" x1="257.94" y1="252.58" x2="297.51" y2="238.44"/><line class="cls-1" x1="259.29" y1="255.59" x2="296.16" y2="235.43"/><line class="cls-1" x1="261.09" y1="258.35" x2="294.36" y2="232.67"/><line class="cls-1" x1="263.3" y1="260.79" x2="292.14" y2="230.22"/><line class="cls-1" x1="265.87" y1="262.86" x2="289.58" y2="228.15"/></g><text class="cls-3" transform="translate(124.15 252.08)"><tspan class="cls-4">2006</tspan><tspan class="cls-5"><tspan x="-100.31" y="18">Clean Development Mechanism Opens</tspan><tspan x="-124.15" y="36">Nairobi-the 12th Conference of the Partiesv</tspan></tspan></text></g><g id="_2007" data-name="2007"><g class="cls-2"><line class="cls-1" x1="290.01" y1="299.81" x2="263.7" y2="355.37"/><line class="cls-1" x1="285.5" y1="298.1" x2="268.21" y2="357.09"/><line class="cls-1" x1="280.78" y1="297.11" x2="272.93" y2="358.08"/><line class="cls-1" x1="275.97" y1="296.87" x2="277.75" y2="358.32"/><line class="cls-1" x1="271.17" y1="297.39" x2="282.55" y2="357.8"/><line class="cls-1" x1="266.52" y1="298.65" x2="287.21" y2="356.54"/><line class="cls-1" x1="262.12" y1="300.63" x2="291.61" y2="354.56"/><line class="cls-1" x1="258.08" y1="303.27" x2="295.65" y2="351.92"/><line class="cls-1" x1="254.51" y1="306.5" x2="299.22" y2="348.68"/><line class="cls-1" x1="251.49" y1="310.26" x2="302.24" y2="344.92"/><line class="cls-1" x1="249.09" y1="314.44" x2="304.64" y2="340.74"/><line class="cls-1" x1="247.38" y1="318.95" x2="306.36" y2="336.24"/><line class="cls-1" x1="246.39" y1="323.67" x2="307.35" y2="331.51"/><line class="cls-1" x1="246.15" y1="328.49" x2="307.59" y2="326.7"/><line class="cls-1" x1="246.67" y1="333.28" x2="307.07" y2="321.9"/><line class="cls-1" x1="247.93" y1="337.93" x2="305.81" y2="317.25"/><line class="cls-1" x1="249.9" y1="342.33" x2="303.84" y2="312.85"/><line class="cls-1" x1="252.54" y1="346.37" x2="301.2" y2="308.81"/><line class="cls-1" x1="255.78" y1="349.94" x2="297.96" y2="305.23"/><line class="cls-1" x1="259.54" y1="352.97" x2="294.2" y2="302.21"/></g><text class="cls-3" transform="translate(129.72 355.37)"><tspan class="cls-4">2007</tspan><tspan class="cls-5"><tspan x="-102.9" y="18">Bali- The 13th Conference of the Parties</tspan></tspan></text></g><g id="_2008" data-name="2008"><g class="cls-2"><line class="cls-1" x1="313.08" y1="386.61" x2="295.09" y2="424.6"/><line class="cls-1" x1="310" y1="385.44" x2="298.18" y2="425.77"/><line class="cls-1" x1="306.77" y1="384.76" x2="301.4" y2="426.45"/><line class="cls-1" x1="303.48" y1="384.6" x2="304.7" y2="426.61"/><line class="cls-1" x1="300.2" y1="384.96" x2="307.98" y2="426.26"/><line class="cls-1" x1="297.02" y1="385.82" x2="311.16" y2="425.39"/><line class="cls-1" x1="294.01" y1="387.17" x2="314.17" y2="424.04"/><line class="cls-1" x1="291.25" y1="388.97" x2="316.93" y2="422.24"/><line class="cls-1" x1="288.81" y1="391.19" x2="319.38" y2="420.03"/><line class="cls-1" x1="286.74" y1="393.75" x2="321.45" y2="417.46"/><line class="cls-1" x1="285.1" y1="396.62" x2="323.09" y2="414.6"/><line class="cls-1" x1="283.93" y1="399.7" x2="324.26" y2="411.52"/><line class="cls-1" x1="283.25" y1="402.92" x2="324.94" y2="408.29"/><line class="cls-1" x1="283.09" y1="406.21" x2="325.1" y2="404.99"/><line class="cls-1" x1="283.45" y1="409.49" x2="324.75" y2="401.71"/><line class="cls-1" x1="284.31" y1="412.68" x2="323.88" y2="398.53"/><line class="cls-1" x1="285.66" y1="415.68" x2="322.53" y2="395.52"/><line class="cls-1" x1="287.46" y1="418.45" x2="320.73" y2="392.76"/><line class="cls-1" x1="289.68" y1="420.89" x2="318.52" y2="390.32"/><line class="cls-1" x1="292.25" y1="422.95" x2="315.95" y2="388.25"/></g><text class="cls-3" transform="translate(160.1 436.78)"><tspan class="cls-4">2008</tspan><tspan class="cls-5"><tspan x="-108.19" y="18">Joint Implementation Mechanism Starts</tspan><tspan x="-124.54" y="36">Poznan- The 14th Conference of the Parties</tspan></tspan></text></g><g id="_2009" data-name="2009"><g class="cls-2"><line class="cls-1" x1="371.89" y1="461.23" x2="353.91" y2="499.22"/><line class="cls-1" x1="368.81" y1="460.06" x2="356.99" y2="500.39"/><line class="cls-1" x1="365.58" y1="459.38" x2="360.22" y2="501.07"/><line class="cls-1" x1="362.29" y1="459.22" x2="363.51" y2="501.23"/><line class="cls-1" x1="359.01" y1="459.58" x2="366.79" y2="500.88"/><line class="cls-1" x1="355.83" y1="460.44" x2="369.98" y2="500.02"/><line class="cls-1" x1="352.82" y1="461.79" x2="372.99" y2="498.67"/><line class="cls-1" x1="350.06" y1="463.59" x2="375.75" y2="496.86"/><line class="cls-1" x1="347.62" y1="465.81" x2="378.19" y2="494.65"/><line class="cls-1" x1="345.55" y1="468.38" x2="380.26" y2="492.08"/><line class="cls-1" x1="343.92" y1="471.24" x2="381.9" y2="489.22"/><line class="cls-1" x1="342.74" y1="474.32" x2="383.07" y2="486.14"/><line class="cls-1" x1="342.07" y1="477.54" x2="383.75" y2="482.91"/><line class="cls-1" x1="341.9" y1="480.84" x2="383.91" y2="479.62"/><line class="cls-1" x1="342.26" y1="484.12" x2="383.56" y2="476.34"/><line class="cls-1" x1="343.12" y1="487.3" x2="382.7" y2="473.15"/><line class="cls-1" x1="344.47" y1="490.3" x2="381.35" y2="470.14"/><line class="cls-1" x1="346.28" y1="493.07" x2="379.54" y2="467.38"/><line class="cls-1" x1="348.49" y1="495.51" x2="377.33" y2="464.94"/><line class="cls-1" x1="351.06" y1="497.58" x2="374.76" y2="462.87"/></g><text class="cls-3" transform="translate(206.83 506.16)"><tspan class="cls-4">2009</tspan><tspan class="cls-5"><tspan x="-150.69" y="18">Copenhagen- the 15th Conference of the Parties</tspan></tspan></text></g><g id="_2010" data-name="2010"><g class="cls-2"><line class="cls-1" x1="458.6" y1="510.34" x2="432.29" y2="565.89"/><line class="cls-1" x1="454.09" y1="508.62" x2="436.8" y2="567.61"/><line class="cls-1" x1="449.37" y1="507.63" x2="441.52" y2="568.6"/><line class="cls-1" x1="444.56" y1="507.39" x2="446.34" y2="568.84"/><line class="cls-1" x1="439.76" y1="507.91" x2="451.14" y2="568.32"/><line class="cls-1" x1="435.11" y1="509.17" x2="455.8" y2="567.06"/><line class="cls-1" x1="430.71" y1="511.15" x2="460.2" y2="565.08"/><line class="cls-1" x1="426.67" y1="513.79" x2="464.23" y2="562.44"/><line class="cls-1" x1="423.1" y1="517.03" x2="467.81" y2="559.21"/><line class="cls-1" x1="420.08" y1="520.78" x2="470.83" y2="555.45"/><line class="cls-1" x1="417.68" y1="524.97" x2="473.23" y2="551.26"/><line class="cls-1" x1="415.97" y1="529.47" x2="474.95" y2="546.76"/><line class="cls-1" x1="414.98" y1="534.19" x2="475.94" y2="542.04"/><line class="cls-1" x1="414.74" y1="539.01" x2="476.18" y2="537.22"/><line class="cls-1" x1="415.26" y1="543.8" x2="475.66" y2="532.42"/><line class="cls-1" x1="416.52" y1="548.46" x2="474.4" y2="527.77"/><line class="cls-1" x1="418.49" y1="552.86" x2="472.43" y2="523.37"/><line class="cls-1" x1="421.13" y1="556.89" x2="469.79" y2="519.33"/><line class="cls-1" x1="424.37" y1="560.47" x2="466.55" y2="515.75"/><line class="cls-1" x1="428.13" y1="563.49" x2="462.79" y2="512.73"/></g><text class="cls-3" transform="translate(293.14 587.39)"><tspan class="cls-4">2010</tspan><tspan class="cls-5"><tspan x="-124.39" y="18">Cancun- The 16th Conference of the Parties</tspan></tspan></text></g><g id="_2012" data-name="2012"><g class="cls-2"><line class="cls-1" x1="555.98" y1="551.76" x2="537.99" y2="589.75"/><line class="cls-1" x1="552.9" y1="550.59" x2="541.07" y2="590.92"/><line class="cls-1" x1="549.67" y1="549.91" x2="544.3" y2="591.6"/><line class="cls-1" x1="546.38" y1="549.75" x2="547.6" y2="591.76"/><line class="cls-1" x1="543.1" y1="550.1" x2="550.88" y2="591.41"/><line class="cls-1" x1="539.92" y1="550.96" x2="554.06" y2="590.54"/><line class="cls-1" x1="536.91" y1="552.32" x2="557.07" y2="589.19"/><line class="cls-1" x1="534.15" y1="554.12" x2="559.83" y2="587.39"/><line class="cls-1" x1="531.71" y1="556.33" x2="562.28" y2="585.17"/><line class="cls-1" x1="529.64" y1="558.9" x2="564.34" y2="582.61"/><line class="cls-1" x1="528" y1="561.76" x2="565.99" y2="579.74"/><line class="cls-1" x1="526.83" y1="564.84" x2="567.16" y2="576.66"/><line class="cls-1" x1="526.15" y1="568.07" x2="567.83" y2="573.44"/><line class="cls-1" x1="525.99" y1="571.37" x2="568" y2="570.14"/><line class="cls-1" x1="526.34" y1="574.64" x2="567.65" y2="566.86"/><line class="cls-1" x1="527.21" y1="577.83" x2="566.78" y2="563.68"/><line class="cls-1" x1="528.56" y1="580.83" x2="565.43" y2="560.67"/><line class="cls-1" x1="530.36" y1="583.59" x2="563.63" y2="557.91"/><line class="cls-1" x1="532.58" y1="586.04" x2="561.41" y2="555.46"/><line class="cls-1" x1="535.14" y1="588.1" x2="558.85" y2="553.39"/></g><text class="cls-3" transform="translate(444.56 648.49)"><tspan class="cls-4">2012</tspan><tspan class="cls-5"><tspan x="0" y="18">Doha- the 18th Conference of the Parties</tspan></tspan></text></g><g id="_2013" data-name="2013"><g class="cls-2"><line class="cls-1" x1="663.48" y1="531.47" x2="626.76" y2="617.51"/><line class="cls-1" x1="658.88" y1="529.79" x2="631.35" y2="619.2"/><line class="cls-1" x1="654.13" y1="528.6" x2="636.1" y2="620.39"/><line class="cls-1" x1="649.28" y1="527.9" x2="640.95" y2="621.08"/><line class="cls-1" x1="644.39" y1="527.73" x2="645.84" y2="621.26"/><line class="cls-1" x1="639.51" y1="528.06" x2="650.73" y2="620.93"/><line class="cls-1" x1="634.69" y1="528.9" x2="655.55" y2="620.09"/><line class="cls-1" x1="629.98" y1="530.24" x2="660.26" y2="618.75"/><line class="cls-1" x1="625.44" y1="532.06" x2="664.8" y2="616.92"/><line class="cls-1" x1="621.12" y1="534.36" x2="669.13" y2="614.63"/><line class="cls-1" x1="617.05" y1="537.08" x2="673.2" y2="611.9"/><line class="cls-1" x1="613.3" y1="540.22" x2="676.96" y2="608.76"/><line class="cls-1" x1="609.89" y1="543.73" x2="680.37" y2="605.24"/><line class="cls-1" x1="606.87" y1="547.59" x2="683.39" y2="601.39"/><line class="cls-1" x1="604.27" y1="551.73" x2="685.99" y2="597.24"/><line class="cls-1" x1="602.11" y1="556.13" x2="688.15" y2="592.85"/><line class="cls-1" x1="600.43" y1="560.72" x2="689.83" y2="588.25"/><line class="cls-1" x1="599.24" y1="565.46" x2="691.02" y2="583.5"/><line class="cls-1" x1="598.55" y1="570.31" x2="691.72" y2="578.65"/><line class="cls-1" x1="598.37" y1="575.2" x2="691.9" y2="573.75"/><line class="cls-1" x1="598.7" y1="580.08" x2="691.56" y2="568.87"/><line class="cls-1" x1="599.54" y1="584.9" x2="690.72" y2="564.04"/><line class="cls-1" x1="600.88" y1="589.61" x2="689.38" y2="559.34"/><line class="cls-1" x1="602.71" y1="594.15" x2="687.56" y2="554.79"/><line class="cls-1" x1="605" y1="598.48" x2="685.26" y2="550.46"/><line class="cls-1" x1="607.72" y1="602.54" x2="682.54" y2="546.4"/><line class="cls-1" x1="610.86" y1="606.3" x2="679.4" y2="542.64"/><line class="cls-1" x1="614.37" y1="609.7" x2="675.88" y2="539.23"/><line class="cls-1" x1="618.22" y1="612.72" x2="672.02" y2="536.21"/><line class="cls-1" x1="622.37" y1="615.33" x2="667.88" y2="533.61"/></g><text class="cls-3" transform="translate(631.15 687.1)"><tspan class="cls-4">2013</tspan><tspan class="cls-5"><tspan x="0" y="18">New Home for UNFCCC Secretariat</tspan><tspan x="0" y="36">IPCC Releases 2nd Part of Fifth Assessment Report</tspan><tspan x="0" y="54">W</tspan><tspan x="11.32" y="54">arsaw- The 19th Conference of the Partiesv</tspan></tspan></text></g><g id="_2014" data-name="2014"><g class="cls-2"><line class="cls-1" x1="773.83" y1="479.28" x2="702.45" y2="630.04"/><line class="cls-1" x1="769.83" y1="477.51" x2="706.44" y2="631.8"/><line class="cls-1" x1="765.75" y1="475.96" x2="710.53" y2="633.35"/><line class="cls-1" x1="761.6" y1="474.62" x2="714.68" y2="634.69"/><line class="cls-1" x1="757.38" y1="473.5" x2="718.9" y2="635.81"/><line class="cls-1" x1="753.1" y1="472.61" x2="723.17" y2="636.7"/><line class="cls-1" x1="748.79" y1="471.94" x2="727.49" y2="637.37"/><line class="cls-1" x1="744.45" y1="471.49" x2="731.83" y2="637.81"/><line class="cls-1" x1="740.09" y1="471.28" x2="736.19" y2="638.03"/><line class="cls-1" x1="735.72" y1="471.29" x2="740.56" y2="638.02"/><line class="cls-1" x1="731.36" y1="471.53" x2="744.92" y2="637.78"/><line class="cls-1" x1="727.02" y1="471.99" x2="749.26" y2="637.31"/><line class="cls-1" x1="722.71" y1="472.69" x2="753.57" y2="636.61"/><line class="cls-1" x1="718.44" y1="473.61" x2="757.84" y2="635.69"/><line class="cls-1" x1="714.23" y1="474.75" x2="762.06" y2="634.55"/><line class="cls-1" x1="710.08" y1="476.11" x2="766.21" y2="633.19"/><line class="cls-1" x1="706" y1="477.69" x2="770.28" y2="631.61"/><line class="cls-1" x1="702.02" y1="479.48" x2="774.26" y2="629.82"/><line class="cls-1" x1="698.14" y1="481.47" x2="778.14" y2="627.83"/><line class="cls-1" x1="694.36" y1="483.66" x2="781.92" y2="625.63"/><line class="cls-1" x1="690.71" y1="486.05" x2="785.58" y2="623.25"/><line class="cls-1" x1="687.18" y1="488.63" x2="789.1" y2="620.67"/><line class="cls-1" x1="683.8" y1="491.38" x2="792.48" y2="617.91"/><line class="cls-1" x1="680.56" y1="494.31" x2="795.72" y2="614.98"/><line class="cls-1" x1="677.48" y1="497.41" x2="798.8" y2="611.88"/><line class="cls-1" x1="674.57" y1="500.66" x2="801.71" y2="608.63"/><line class="cls-1" x1="671.83" y1="504.06" x2="804.45" y2="605.22"/><line class="cls-1" x1="669.27" y1="507.6" x2="807.01" y2="601.69"/><line class="cls-1" x1="666.91" y1="511.27" x2="809.37" y2="598.02"/><line class="cls-1" x1="664.73" y1="515.06" x2="811.54" y2="594.23"/><line class="cls-1" x1="662.76" y1="518.95" x2="813.52" y2="590.33"/><line class="cls-1" x1="661" y1="522.95" x2="815.28" y2="586.34"/><line class="cls-1" x1="659.44" y1="527.03" x2="816.83" y2="582.26"/><line class="cls-1" x1="658.11" y1="531.18" x2="818.17" y2="578.1"/><line class="cls-1" x1="656.99" y1="535.4" x2="819.29" y2="573.88"/><line class="cls-1" x1="656.09" y1="539.68" x2="820.18" y2="569.61"/><line class="cls-1" x1="655.42" y1="543.99" x2="820.86" y2="565.29"/><line class="cls-1" x1="654.97" y1="548.34" x2="821.3" y2="560.95"/><line class="cls-1" x1="654.76" y1="552.7" x2="821.51" y2="556.59"/><line class="cls-1" x1="654.77" y1="557.06" x2="821.5" y2="552.22"/><line class="cls-1" x1="655.01" y1="561.42" x2="821.26" y2="547.86"/><line class="cls-1" x1="655.48" y1="565.76" x2="820.79" y2="543.52"/><line class="cls-1" x1="656.18" y1="570.07" x2="820.1" y2="539.21"/><line class="cls-1" x1="657.1" y1="574.34" x2="819.17" y2="534.94"/><line class="cls-1" x1="658.24" y1="578.55" x2="818.03" y2="530.73"/><line class="cls-1" x1="659.6" y1="582.7" x2="816.67" y2="526.58"/><line class="cls-1" x1="661.17" y1="586.78" x2="815.09" y2="522.5"/><line class="cls-1" x1="662.96" y1="590.76" x2="813.31" y2="518.52"/><line class="cls-1" x1="664.95" y1="594.64" x2="811.31" y2="514.64"/><line class="cls-1" x1="667.14" y1="598.42" x2="809.12" y2="510.86"/><line class="cls-1" x1="669.53" y1="602.08" x2="806.73" y2="507.21"/><line class="cls-1" x1="672.11" y1="605.6" x2="804.15" y2="503.68"/><line class="cls-1" x1="674.87" y1="608.98" x2="801.39" y2="500.29"/><line class="cls-1" x1="677.8" y1="612.22" x2="798.46" y2="497.06"/><line class="cls-1" x1="680.89" y1="615.3" x2="795.37" y2="493.98"/><line class="cls-1" x1="684.14" y1="618.21" x2="792.11" y2="491.07"/><line class="cls-1" x1="687.55" y1="620.95" x2="788.71" y2="488.33"/><line class="cls-1" x1="691.09" y1="623.51" x2="785.17" y2="485.77"/><line class="cls-1" x1="694.75" y1="625.88" x2="781.5" y2="483.4"/><line class="cls-1" x1="698.54" y1="628.05" x2="777.71" y2="481.23"/></g><text class="cls-3" transform="translate(816.67 625.88)"><tspan class="cls-4">2014</tspan><tspan class="cls-5"><tspan x="0" y="18">Reality Check</tspan><tspan x="0" y="36">IPCC Releases 2nd Part of Fifth Assessment Report</tspan><tspan x="0" y="54">UN Secretary-General&apos;s Climate Summit</tspan><tspan x="0" y="72">Lima- the twentieth Conference of the Parties</tspan></tspan></text></g></svg>