<?xml version="1.0" encoding="utf-8"?>
<!-- Generator: Adobe Illustrator 19.2.1, SVG Export Plug-In . SVG Version: 6.00 Build 0)  -->
<svg version="1.1" id="Livello_1" xmlns="http://www.w3.org/2000/svg" xmlns:xlink="http://www.w3.org/1999/xlink" x="0px" y="0px"
	 viewBox="0 0 900 537" style="enable-background:new 0 0 900 537;" xml:space="preserve">
<style type="text/css">
	.st0{fill:#141414;}
	.st1{font-family:'Lekton-Regular';}
	.st2{font-size:13.2221px;}
	.st3{fill:none;stroke:#141414;stroke-width:0.4;stroke-miterlimit:10;}
	.st4{fill:#C6006B;}
	.st5{font-family:'Lekton-Bold';}
	.st6{fill:none;stroke:#000000;stroke-width:0.4;stroke-miterlimit:10;stroke-dasharray:4;}
	.st7{fill:#FFFFFF;}
</style>
<text transform="matrix(1 0 0 1 308.3745 107.2881)" class="st0 st1 st2">- “marijuana legalization Alabama”</text>
<text transform="matrix(1 0 0 1 308.3745 123.1553)" class="st0 st1 st2">- “marijuana legalization Arkansas”</text>
<text transform="matrix(1 0 0 1 308.3745 139.0215)" class="st0 st1 st2">- “marijuana legalization Arizona”</text>
<text transform="matrix(1 0 0 1 308.3745 154.8877)" class="st0 st1 st2">- “...”</text>
<text transform="matrix(1 0 0 1 354.8696 274.7959)" class="st0 st1 st2">10 websites per query</text>
<text transform="matrix(1 0 0 1 387.9253 290.6621)" class="st0 st1 st2">(500 links)</text>
<text transform="matrix(1 0 0 1 341.6479 411.2031)" class="st0 st1 st2">5 more popular categories</text>
<polygon class="st3" points="502.7,64.5 424.3,64.5 345.9,64.5 345.9,20.5 502.7,20.5 "/>
<text transform="matrix(1 0 0 1 518.8408 39.3125)" class="st4 st5 st2">» language: English</text>
<text transform="matrix(1 0 0 1 518.8408 55.1787)" class="st4 st5 st2">» 20 results per page</text>
<text transform="matrix(1 0 0 1 364.1177 39.3125)" class="st0 st1 st2">QUERIES DEFINITION</text>
<text transform="matrix(1 0 0 1 403.7847 56.2002)" class="st4 st5 st2">Google</text>
<line class="st3" x1="423.6" y1="64.5" x2="423.6" y2="92"/>
<polygon class="st3" points="502.7,232.1 424.3,232.1 345.9,232.1 345.9,187.9 502.7,187.9 "/>
<text transform="matrix(1 0 0 1 367.4243 206.7578)" class="st0 st1 st2">CORPUS DEFINITION</text>
<text transform="matrix(1 0 0 1 380.646 223.6436)" class="st4 st5 st2">Webscraper.io</text>
<line class="st3" x1="423.6" y1="232.1" x2="423.6" y2="259.4"/>
<line class="st6" x1="423.6" y1="160.1" x2="423.6" y2="187.5"/>
<polygon class="st3" points="502.7,369.4 424.3,369.4 345.9,369.4 345.9,325.4 502.7,325.4 "/>
<text transform="matrix(1 0 0 1 367.4243 344.2109)" class="st0 st1 st2">ACTORS DEFINITION</text>
<text transform="matrix(1 0 0 1 357.5073 361.0977)" class="st4 st5 st2">WebPulse Site Review</text>
<line class="st3" x1="423.6" y1="369.4" x2="423.6" y2="396.9"/>
<line class="st6" x1="423.6" y1="297.5" x2="423.6" y2="325"/>
<text transform="matrix(1 0 0 1 519.4717 464.751)" class="st4 st5 st2">» Illustrator</text>
<polygon class="st4" points="502.6,476 424.3,476 345.9,476 345.9,446 502.6,446 "/>
<text transform="matrix(1 0 0 1 381.2769 464.751)" class="st7 st1 st2">VISUALIZATION</text>
<line class="st6" x1="424.3" y1="417.4" x2="424.3" y2="448.6"/>
</svg>
